<?xml version="1.0" encoding="utf-8"?>
<!-- Generator: Adobe Illustrator 22.0.1, SVG Export Plug-In . SVG Version: 6.00 Build 0)  -->
<svg version="1.1" id="Layer_1" xmlns="http://www.w3.org/2000/svg" xmlns:xlink="http://www.w3.org/1999/xlink" x="0px" y="0px"
	 viewBox="0 0 500 500" style="enable-background:new 0 0 500 500;" xml:space="preserve">
<path d="M280,351.3c0,9,0,17.8,0,26.8c-5.4-1.8-10.7-3.5-16.1-5.3c-0.8,2.4-1.6,4.7-2.4,7.1c-0.9,2.7-1.8,5.4-2.7,8
	c-0.1,0.4-0.6,0.8-0.9,0.8c-8.7,0-17.3,0-26.2,0c1.8-8.9,3.5-17.7,5.3-26.7c-9,3.6-17.7,7.1-26.6,10.6c0.3,0.4,0.5,0.8,0.7,1.1
	c3.1,4.7,6.2,9.4,9.4,14c0.5,0.7,0.5,1.2,0.1,1.9c-3.3,6.5-6.5,13-9.8,19.5c-0.3,0.6-0.9,1.1-1.4,1.4c-4.7,2.4-9.3,4.8-14.1,7
	c-4.5,2-8.4,4.8-12.1,8c-8.6,7.3-17.2,14.5-25.9,21.6c-2.8,2.3-6,4.2-9.1,6.2c-6.7,4.5-13.5,8.9-20.1,13.5c-2.3,1.6-4.8,2.4-7.6,2.8
	c-13.3,1.8-26.6,3.8-39.9,5.7c-11.9,1.7-23.9,3.4-35.8,5.1c-10.2,1.5-20.3,2.9-30.5,4.4c-0.4,0.1-0.7,0.1-1.1-0.1
	c3.5-1.2,7-2.4,10.5-3.5c26.6-8.5,52.8-18,78.8-28c0.5-0.2,1.1-0.5,1.6-0.8c24.6-15.2,49.1-30.6,73-46.9c0.9-0.6,1.3-1.3,1.3-2.4
	c-0.1-4.7,0-9.5,0-14.5c-0.5,0-1,0-1.5,0c-11.7,0-23.3,0-35,0c-0.6,0-1.2,0-1.7-0.2c-10.3-3.4-20.5-6.8-30.8-10.2
	c-0.2-0.1-0.4-0.2-0.7-0.3c0.7-3.5,1.4-6.9,2.1-10.4c1-5.1,2-10.2,3.1-15.3c0.2-0.8,0-1.2-0.7-1.6c-4.7-3.1-9.4-6.2-14.1-9.4
	c-0.6-0.4-1.2-1.1-1.4-1.7c-3.3-8.2-6.6-16.3-9.8-24.5c-0.3-0.7-0.3-1.6-0.2-2.4c1.6-8.1,3.2-16.2,4.9-24.3c0.1-0.7,0.6-1.5,1.1-2
	c10.1-8.5,20.3-17,30.5-25.4c0.5-0.4,1.2-0.6,1.8-0.6c8.2,0,16.3,0,24.5,0c0.9,0,1.5-0.3,2.1-0.9c3.2-3.3,6.5-6.5,9.8-9.8
	c-0.4-0.3-0.6-0.5-0.9-0.7c-0.1-0.1-0.2-0.1-0.3-0.2c-12.6-9.5-26.9-15.9-40.9-22.9c-1.7-0.9-3.5-1.7-5.2-2.6
	c-0.4-0.2-0.8-0.7-0.9-1.2c-1.7-8.3-3.4-16.6-5-24.9c-0.1-0.6,0-1.5,0.4-2c3.1-4.8,6.3-9.5,9.4-14.3c0.4-0.7,0.9-0.9,1.7-0.9
	c8.2,0,16.3,0,24.5,0c0.9,0,1.5,0.3,2.1,0.9c6.5,6.5,13,13,19.4,19.5c0.3,0.3,0.6,0.7,1,1.2c0.4-0.5,0.6-0.8,0.8-1.1
	c3.1-4.7,6.2-9.4,9.4-14c0.5-0.8,0.5-1.3,0-2.1c-12-17.1-24-34.3-36.1-51.4c-0.6-0.8-0.6-1.3,0-2.2c3.1-4.6,6.2-9.2,9.3-13.9
	c0.6-0.9,1.1-1,2.1-0.8c6.3,1.6,12.6,3.2,18.9,4.8c0.9,0.2,1.4,0.1,2.1-0.5C185.5,110.1,197.3,100,209,90c1-0.8,1.9-1.2,3.2-1.2
	c11.3,0.1,22.7,0,34,0.1c1,0,2.2,0.3,3.1,0.8c18.5,10,36.9,20.1,55.3,30.2c2.4,1.3,4.8,1.4,7.3,1.7c11.5,1.2,23,2.3,34.5,3.5
	c4.3,0.4,8.7,0.9,13,1.3c0.2,0,0.5,0.1,1,0.1c0,2.2,0,4.4,0,6.6c0.1,9.1,0.2,18.2,0.3,27.2c0.2,11.1,0.3,22.2,0.5,33.3
	c0.2,10.9,0.3,21.8,0.5,32.7c0.2,11.2,0.3,22.3,0.5,33.5c0.2,10.9,0.3,21.8,0.5,32.7c0.2,11.2,0.3,22.3,0.5,33.5
	c0.1,5,0.2,10,0.3,15c0,0.6,0.1,1.2,0.3,1.8c5.2,17.5,10.4,34.9,15.7,52.3c0.2,0.6,0.7,1.3,1.2,1.6c13.6,7.7,27.4,15.2,40.9,23
	c7.6,4.4,14.8,9.3,22.2,14c14,8.9,28,17.9,42,26.9c0.3,0.2,0.7,0.5,1.1,0.8c-6,9.6-12,19.1-18.1,28.7c-2.5-2.5-5-4.8-7.4-7.2
	c-11.9-11.6-23.8-23.2-35.7-34.8c-5.6-5.5-11.2-10.9-16.9-16.3c-1.1-1-2.6-1.6-4-2.3c-12.1-5.8-24.3-11.5-36.3-17.5
	c-5.6-2.8-11-6.2-16.4-9.3c-9.5-5.5-19-10.9-28.4-16.4c-0.5-0.3-1.1-0.8-1.4-1.4c-6.7-10.8-13.4-21.6-20.1-32.4
	c-0.6-0.9-1.1-1.3-2.3-1.3c-6.1,0.1-12.2,0-18.4,0C281.1,351.3,280.7,351.3,280,351.3z"/>
<path d="M368.2,46.8c1-1.9,1.9-3.6,2.9-5.4c1.1-2,3.8-2.6,5.4-1.1c0.5,0.5,0.9,1.6,0.8,2.3c-0.4,3.3-1.2,6.5-1.6,9.7
	c-0.4,2.8-0.6,5.7-0.9,8.6c-0.1,0.8,0.1,1.6,0.3,2.3c0.3,1.2,1.2,1.4,2,0.5c0.7-0.8,1.4-1.7,2-2.6c2-3.2,3.9-6.4,5.9-9.6
	c0.2-0.4,0.3-1.1,0.1-1.6c-0.8-2.6-1.1-5.1-0.5-7.8c0.8-3.5,4.4-6.2,8-6.2c1.9,0,3.3,0.8,3.8,2.6c0.5,1.7,0.7,3.4,0.9,5.1
	c0.1,1.1-0.7,1.5-1.7,1.6c-1.1,0-1.2-0.6-1.3-1.6c-0.1-1.4-0.3-2.9-0.6-4.3c-0.1-0.3-0.5-0.8-0.8-0.8c-0.3,0-0.7,0.4-0.9,0.8
	c-1.1,2.4-1.3,5.1-0.6,7.6c1.1,3.5,2.6,6.8,4,10.2c0.1,0.2,0.8,0.5,1.1,0.4c3.3-1,6.2-2.8,8.2-5.7c0.3-0.5,0.5-1.1,0.6-1.7
	c0.9-9.7,1.8-19.4,2.8-29.1c0.3-3.2,1.4-6.4,3.9-8.7c1.6-1.5,3.5-2.4,5.7-2.4c2.8,0,4.6,1.7,4.8,4.5c0.2,3.5-0.5,6.9-1.6,10.3
	c-1.9,5.6-4.8,10.7-8.1,15.6c-0.4,0.6-0.6,1.4-0.7,2.1c-0.2,2.1-0.2,4.3-0.1,6.6c0.5-0.6,1-1.2,1.5-1.9c1.8-2.5,3.6-5,5.5-7.5
	c1-1.3,2.3-1.5,3.7-0.5c-2.3,3.2-4.5,6.4-6.9,9.8c3.3,0.7,4.4,3,4.5,5.9c0.2,4.4,0.3,8.8,0.5,13.2c0,0.9,0.1,1.7,0.2,2.6
	c0.1,0,0.2,0.1,0.3,0.1c0.3-0.4,0.6-0.8,0.9-1.2c3-5.4,6-10.8,9-16.3c0.4-0.8,0.6-1.8,0.8-2.7c0.7-3,1.5-5.9,3.6-8.3
	c1.7-2,3.7-2.8,6.3-2.3c1.6,0.3,2.7,1.4,3.4,2.7c0.7,1.3,1.3,2.7,2,4.2c1-1.9,1.9-3.6,2.9-5.3c0.8-1.5,1.9-2.1,3.3-1.9
	c2.6,0.3,3.3,1.2,2.9,3.7c-0.7,4.3-1.5,8.5-2.1,12.8c-0.3,2.2-0.2,4.4-0.1,6.6c0,0.5,0.5,1.2,1,1.5c0.2,0.1,1.1-0.4,1.4-0.8
	c1-1.3,1.9-2.7,2.8-4.1c1.9-3,3.7-6,5.5-8.9c0.2-0.4,0.5-0.8,0.9-1c0.3-0.1,0.9-0.1,1.1,0.1c0.2,0.2,0.3,0.7,0.3,1.1
	c0,0.3-0.3,0.7-0.5,1c-2.2,3.5-4.3,7-6.5,10.5c-0.6,1-1.3,2-2.2,2.9c-1.8,1.8-3.8,3.2-6.6,2.1c-2.4-0.9-4-3.4-4-6.2
	c0-1.9,0-3.8-0.1-5.7c0,0,0-0.1-0.2-0.2c-0.9,1.8-1.7,3.6-2.6,5.4c-0.6,1.3-1.2,2.5-1.9,3.8c-1.1,2-2.9,2.8-5.1,2.8
	c-2.2,0-4.1-0.9-4.9-3c-0.7-1.8-1.1-3.8-1.6-5.6c0,0.1-0.3,0.3-0.4,0.6c-2.1,3.8-4.2,7.7-6.3,11.5c-0.5,0.8-0.9,1.7-1.5,2.5
	c-1.6,2.1-4.4,2.1-5.5-0.3c-0.8-1.7-1.2-3.7-1.4-5.6c-0.3-3.8-0.4-7.6-0.6-11.5c0-0.7-0.1-1.5-0.2-2.2c-0.2-1.3-1.1-1.5-2-0.7
	c-0.9,0.8-1.2,1.7-1.3,2.9c0,3-0.1,6.1-0.2,9.1c-0.1,1.9-0.6,2.4-2,2.6c-1.9,0.2-3.4-0.5-3.7-2.1c-0.4-2.6-0.6-5.2-0.8-7.8
	c-0.1-0.7,0-1.4,0-1.7c-2.7,1.7-5.6,3.4-8.5,5.1c0.5,1.7,1,3.5,1.4,5.4c1,5.1-1.7,9.4-6.5,10.6c-3.4,0.8-5.7-0.7-6.1-4.1
	c-0.5-4.2,1.1-7.8,3.7-10.9c0.8-1,0.9-1.7,0.3-2.7c-1-1.8-1.8-3.6-2.8-5.6c-1.6,2.5-3,4.9-4.5,7.2c-0.8,1.3-1.7,2.6-2.5,3.9
	c-0.3,0.4-0.6,0.8-1,1.1c-1.8,1.6-3.8,2.7-6.2,1.6c-2.5-1.1-3.8-3.2-3.9-5.9c-0.1-2,0-4.1-0.3-6.2c-0.5,1-1,2-1.5,3
	c-1,2-1.9,4-2.9,5.9c-1.1,2.1-2.9,2.9-5.1,2.9c-2.2,0-4.1-0.9-5-3.1c-0.6-1.4-0.8-3-1.2-4.5c-0.1-0.5-0.1-1-0.4-1.6
	c-0.5,0.7-0.9,1.4-1.4,2.1c-0.9,1.3-1.9,2.6-2.7,4.1c-2.7,4.9-10.5,4.1-12.8-0.9c-0.7-1.6-1.1-3.4-1.7-5.1c-0.1,0.2-0.3,0.5-0.5,0.7
	c-3,6.6-6,13.3-9,19.9c-0.4,0.9-0.8,1.8-1.2,2.6c-1.3,2.2-3.6,2.5-5.4,0.7c-1.4-1.4-1.9-3.3-2.1-5.2c-0.2-2.3-0.3-4.7-0.3-7
	c0-3.6,0-7.2,0-10.9c0-0.5,0-0.9,0-1.5c-2.5-0.1-4.9-0.2-7.3-0.2c-0.2,0-0.6,0.6-0.7,1c-1.6,5.3-3.1,10.5-4.7,15.8
	c-0.6,2.2-1.2,4.4-1.8,6.6c-0.2,0.7-0.6,1.4-1,1.9c-0.3,0.3-1.1,0.7-1.4,0.5c-0.5-0.2-0.9-0.8-1-1.4c-0.1-0.6,0-1.3,0.2-1.9
	c2.6-8.2,5.2-16.4,7.7-24.6c3.7-12.2,7.4-24.4,11-36.5c0.1-0.3,0.2-0.6,0.2-0.8c0.8-2.5,2.5-3.2,4.9-2c1,0.5,1.2,1.4,1.2,2.4
	c-0.2,5.4-0.4,10.8-0.5,16.2c-0.2,5.5-0.3,11-0.5,16.5c-0.2,6.1-0.4,12.2-0.4,18.4c0,2.9,0.4,5.8,0.6,8.7c0.1,0,0.2,0,0.3,0.1
	c0.6-1.2,1.1-2.4,1.7-3.5c3.2-6.8,6.4-13.5,9.6-20.3c0.2-0.5,0.3-1.2,0.2-1.8c-0.4-9.3,0.1-18.6,2.5-27.6c0.9-3.4,1.9-6.7,3.8-9.7
	c1.8-2.9,4.4-3.9,7.7-3.5c2.2,0.3,3.6,2.3,3.7,5.1c0.1,4-0.9,7.8-2.4,11.5c-1.9,4.8-4.4,9.2-7.5,13.4c-0.5,0.7-0.9,1.6-1,2.4
	c-0.3,4.6-0.5,9.2-0.6,13.8c0,1.7,0.5,3.5,1.1,5.1c1,2.4,3,2.7,4.9,0.9c0.8-0.8,1.5-1.7,2.1-2.7c1.6-2.5,3.2-5,4.7-7.5
	c0.5-0.9,0.7-1.9,0.9-2.9c0.6-2.8,1.5-5.5,3.3-7.9c1.1-1.4,2.5-2.4,4.3-2.6c2.3-0.3,4.2,0.4,5.4,2.4
	C366.8,43.6,367.4,45.2,368.2,46.8z M358.4,59.2c0.3,1.6,0.4,3,0.8,4.3c0.4,1.2,1.2,1.2,1.9,0.2c3-4.7,5-9.9,5-15.6
	c0-1.8-0.5-3.5-2-4.8c-1-0.9-1.7-0.8-2.4,0.3c-0.6,1-1.1,2.1-1.3,3.2C359.6,50.9,359,55.1,358.4,59.2z M437.4,58.9
	c0.3,1.7,0.4,3.2,0.8,4.6c0.3,1.1,1.1,1.2,1.8,0.2c0.5-0.7,1-1.4,1.4-2.2c2.1-4.3,3.8-8.8,3.6-13.7c-0.1-1.8-0.6-3.3-2-4.6
	c-0.9-0.8-1.6-0.8-2.3,0.2c-0.5,0.8-1,1.8-1.2,2.7C438.7,50.5,438.1,54.8,437.4,58.9z M412.4,37c0.1-0.1,0.2-0.2,0.3-0.4
	c3.2-4.8,5.7-10,7-15.6c0.5-1.9,0.6-3.9,0.8-5.9c0.1-1-0.4-2-1.4-2c-0.8,0-1.8,0.5-2.3,1.1c-0.8,1-1.3,2.2-1.7,3.4
	C413.3,23.9,413,30.5,412.4,37z M308.2,54.9c0.2,0.1,0.3,0.2,0.4,0.2c1.3,0,2.7,0,4,0c2,0,2.4-0.4,2.5-2.4
	c0.2-6.2,0.4-12.5,0.7-18.7c0-1.3,0-2.6,0-4c-0.1,0-0.2,0-0.3,0C313.1,38.3,310.7,46.6,308.2,54.9z M340.2,37.8
	c0.2-0.2,0.4-0.5,0.6-0.7c2.5-3.2,4.2-6.9,5.5-10.7c1-3,1.8-6,1.7-9.1c0-1.2-0.2-2.5-1.5-3.6C342,21.2,341.7,29.7,340.2,37.8z
	 M390.9,63.4c-0.1,0-0.3-0.1-0.4-0.1c-0.7,1.4-1.5,2.7-2.1,4.2c-0.7,1.7-1.1,3.5-0.6,5.4c0.2,0.6,0.7,1.5,1.2,1.6
	c0.5,0.1,1.4-0.4,1.8-0.9c0.6-0.8,1-1.7,1.2-2.7C392.5,68.2,391.9,65.8,390.9,63.4z"/>
</svg>
