<?xml version="1.0" encoding="utf-8"?>
<!-- Generator: Adobe Illustrator 22.0.1, SVG Export Plug-In . SVG Version: 6.00 Build 0)  -->
<svg version="1.1" id="Layer_1" xmlns="http://www.w3.org/2000/svg" xmlns:xlink="http://www.w3.org/1999/xlink" x="0px" y="0px"
	 viewBox="0 0 500 500" style="enable-background:new 0 0 500 500;" xml:space="preserve">
<path d="M86.4,489.9c-0.2-2.6-0.4-5.1-0.6-7.7c-0.7-8.8-1.4-17.6-2.1-26.4c-0.6-7.9-1.3-15.8-1.9-23.6c-0.8-10-1.6-20-2.4-30
	c-0.7-8.8-1.4-17.5-2.1-26.3c-0.8-10-1.6-20-2.4-30c-0.7-8.8-1.6-17.5-2-26.3c-0.5-9.7-0.8-19.4-1.1-29.1c-0.4-13.1-0.7-26.1-1-39.2
	c-0.2-9.7-0.5-19.3-0.7-29c-0.4-14.2-0.8-28.5-1.2-42.7c-0.2-8.5-0.4-17-0.6-25.5c-0.4-14.3-0.8-28.5-1.2-42.8
	c-0.2-8.5-0.4-17-0.6-25.5c-0.3-11-0.6-22-0.9-32.9c-0.1-4.9,0-9.7,0-14.6c66-6.7,131.6-17,197.3-28.6c0.9,3,1.7,5.9,2.6,8.7
	c10.9,36.9,21.7,73.9,32.6,110.8c1.4,4.6,3.7,9,5.5,13.5c16.9,40,33.7,80.1,50.6,120.1c0.3,0.8,0.4,1.4,0.1,2.2
	c-4.5,13.4-8.9,26.7-13.3,40.1c-0.2,0.7-0.3,1.6-0.2,2.4c4.3,24,8.7,48.1,13.1,72.1c0.3,1.4,0.5,2.8,0.7,4.3
	c-70.5,9.4-141,18.8-211.6,28.2c0.2,0.5,0.3,0.9,0.5,1.3c6.7,18,13.4,35.9,20.2,53.8c0.4,0.9,0.3,1.4-0.6,2
	c-11.1,6.6-22.2,13.3-33.3,19.9c-0.5,0.3-1.2,0.5-1.7,0.5c-13.5,0-27.1,0-40.6,0C87.1,490,86.8,490,86.4,489.9z"/>
<path d="M384.6,448.7c-0.4,1-0.9,2-1.2,3.1c-1.9,6.1-3.8,12.3-5.7,18.5c-0.3,0.9-0.6,1.7-1,2.5c-0.7,1.2-1.8,1.6-3.1,1.4
	c-1.3-0.2-1.8-1.1-1.8-2.2c-0.2-4.2-0.4-8.5-0.5-12.7c-0.1-2.9,0-5.9,0-9.1c-0.3,0.7-0.4,1.1-0.6,1.5c-2,6.2-4,12.4-6,18.6
	c-0.6,1.9-1.6,2.7-3.5,2.5c-1.9-0.2-2.7-1-2.8-3.1c-0.1-2.3-0.2-4.6-0.4-7.3c-0.5,0.8-0.9,1.5-1.4,2.1c-1.3,2-2.5,4-4,5.8
	c-1.5,1.8-3.6,2.9-6.1,1.9c-2.5-1.1-3.7-3.1-3.8-5.8c-0.1-1.9,0-3.7-0.3-5.7c-0.4,0.9-0.9,1.8-1.3,2.7c-0.9,1.9-1.8,3.8-2.8,5.7
	c-1,2-2.8,2.9-5,2.9c-2.2-0.1-4.1-1-4.8-3.2c-0.7-2.2-1-4.5-1.5-6.8c-0.1,0.1-0.5,0.4-0.9,0.6c-1.3,0.6-2.6,1.2-4,1.8
	c-0.6,0.2-0.9,0.5-1,1.2c-0.4,2.5-0.8,5.1-1.4,7.6c-1.1,4.3-4,7-8.3,8.2c-1.7,0.5-3.4,0.6-4.7-0.9c-1.4-1.6-1.8-3.4-1.1-5.5
	c1.6-4.3,4.5-7.5,8.5-9.8c0.8-0.4,1.1-0.9,1.1-1.8c-0.1-3.6-0.2-7.1-0.4-10.7c0-0.6-0.5-1.2-0.7-1.8c-0.5,0.4-1.2,0.8-1.5,1.3
	c-1.5,3.1-2.9,6.1-4.3,9.3c-0.4,1-0.6,2.1-0.7,3.1c-0.3,2.7-2.9,3.9-5,2.1c-0.9-0.7-1.3-2-1.8-3c-0.2-0.5-0.2-1.1-0.4-1.9
	c-0.6,0.9-1.1,1.6-1.6,2.4c-1,1.7-2,3.4-3.1,5c-0.5,0.7-1.2,1.4-1.9,2c-1.6,1.3-3.5,2-5.5,1c-2.1-1-3.4-2.7-3.5-5.1
	c-0.1-2.1,0-4.2,0-6.7c-0.3,0.5-0.5,0.7-0.7,1c-1.1,2.3-2.2,4.6-3.3,6.8c-1.4,2.9-3.4,4.1-6,3.8c-2.9-0.4-4.7-2.2-5.2-5.4
	c-0.2-1.1-0.2-2.2-0.4-3.6c-0.6,0.8-1,1.5-1.5,2.2c-0.9,1.3-1.8,2.5-2.6,3.8c-2.6,4.7-10.1,3.9-12.3-0.8c-0.7-1.5-1.1-3.2-1.7-5
	c-0.3,0.5-0.6,1-0.8,1.6c-2.9,6.3-5.7,12.7-8.5,19c-0.3,0.6-0.5,1.2-0.9,1.8c-1.2,2-3.3,2.3-5,0.7c-1.4-1.3-1.9-3-2.1-4.8
	c-0.2-1.9-0.3-3.7-0.3-5.6c0-4,0-7.9,0-11.9c0-0.4,0-0.9,0-1.6c-2.4,0-4.6,0-6.8,0c-0.3,0-0.7,0.6-0.9,1c-1.4,4.7-2.9,9.5-4.2,14.2
	c-0.7,2.4-1.3,4.9-2,7.3c-0.2,0.6-0.5,1.3-0.9,1.7c-0.3,0.3-1,0.6-1.4,0.4c-0.4-0.1-0.8-0.7-0.9-1.2c-0.1-0.6,0-1.3,0.2-2
	c2.7-8.6,5.4-17.1,8.1-25.7c3.3-10.8,6.5-21.6,9.7-32.4c0.2-0.6,0.3-1.1,0.5-1.7c0.6-1.8,1.2-2.2,3.1-1.9c2,0.3,2.6,0.9,2.5,2.8
	c-0.2,8-0.6,16.1-0.8,24.1c-0.2,9.6-0.2,19.2-0.3,28.8c0,1.2,0.2,2.3,0.3,3.5c0,0.2,0.1,0.4,0.2,0.9c0.5-1.1,1-2,1.4-3
	c3.1-6.7,6.3-13.3,9.4-20c0.2-0.5,0.3-1.1,0.2-1.7c-0.5-10.6,0.4-21.1,3.9-31.3c0.6-1.8,1.6-3.6,2.7-5.2c1.8-2.8,4.8-3.1,7.4-2.5
	c1.8,0.4,2.6,2,2.9,3.7c0.4,3.2-0.3,6.3-1.2,9.3c-1.8,5.6-4.5,10.6-8,15.3c-0.6,0.8-1,1.9-1.1,2.9c-0.3,4.4-0.5,8.9-0.5,13.3
	c0,1.5,0.5,3,1.1,4.4c0.9,2,2.6,2.3,4.3,0.9c0.7-0.6,1.3-1.3,1.8-2.1c1.7-2.6,3.4-5.2,5-7.9c0.4-0.8,0.6-1.7,0.8-2.6
	c0.6-2.8,1.5-5.5,3.3-7.8c1.1-1.4,2.4-2.3,4.2-2.5c2.4-0.3,4.2,0.6,5.3,2.7c0.7,1.2,1.2,2.5,1.8,4c1-1.8,1.9-3.4,2.7-5
	c1.2-2.5,3.5-2.2,5.1-1.4c1,0.5,1.1,1.5,1,2.5c-0.6,3.2-1.2,6.5-1.7,9.7c-0.4,2.9-0.5,5.8-0.7,8.7c0,0.2,0,0.5,0.1,0.7
	c0.3,0.5,0.6,1.2,1,1.4c0.3,0.1,1.1-0.4,1.4-0.8c1.3-1.8,2.3-3.8,3.7-5.5c2.5-3.3,3.2-7,3.3-11.1c0.1-7.5,1.1-15,3.6-22.2
	c1-3,2.4-5.8,4.9-7.8c1.7-1.4,3.7-1.9,6-1.5c1.7,0.3,2.7,1.3,3.1,3c0.6,2.5,0.4,5.1-0.3,7.5c-1.9,7-4.8,13.7-9.1,19.6
	c-1.2,1.6-1.6,3.2-1.2,5.4c0.6-0.9,1.2-1.8,1.7-2.6c0.9-1.3,1.8-2.7,2.8-3.9c2.4-3,6.8-2.4,8.3,1.2c1.5,3.6,1.4,7.3,1.2,11.1
	c0,0.2-0.1,0.5-0.1,1.1c1.1-0.5,2.1-0.8,2.9-1.3c2.1-1.3,3.5-2.9,4.1-5.5c0.5-2.4,1.6-4.7,2.8-6.9c0.5-1,1.5-1.8,2.5-2.3
	c2.7-1.5,5.7-0.7,7.2,2c0.7,1.3,1.2,2.6,1.9,4.1c0.9-1.7,1.8-3.3,2.7-5c1.1-2,3-2.6,5.1-1.5c0.9,0.5,1.2,1.3,1,2.2
	c-0.4,2.7-1,5.3-1.3,8c-0.4,3.3-0.8,6.7-1.1,10c-0.1,0.7,0.2,1.5,0.4,2.2c0.3,0.9,1,1,1.6,0.3c0.7-0.8,1.4-1.6,2-2.5
	c1.6-2.6,3.2-5.2,4.7-7.8c0.3-0.5,0.4-1.1,0.4-1.7c0.2-3,0.2-6.1,0.4-9.1c0.1-1.7,0.4-1.9,2-2c4-0.1,4.4,0.2,4.3,4.2
	c-0.1,3.4-0.3,6.8-0.4,10.2c0,0.5,0,1,0.2,1.6c0.9-2.8,1.8-5.6,2.8-8.3c0.5-1.6,1-3.3,1.7-4.8c0.5-1.1,1.2-2.2,2.1-2.9
	c2.6-2,6.1-0.4,6.4,2.9c0.2,3.4,0.2,6.8,0.3,10.2c0,0.2,0,0.3,0.2,0.6c0.2-0.4,0.3-0.8,0.5-1.1c1.7-4.3,3.2-8.6,5-12.9
	c1-2.4,2.7-3.3,5-2.9c2.5,0.5,4.3,2.4,4.2,4.9c-0.1,2.7-0.6,5.4-1,8.2c-1,6.5-2,13.1-2.9,19.6c-0.1,0.7,0.4,1.6,0.6,2.4
	c0.6-0.5,1.4-0.9,1.8-1.5c2-3.6,3.9-7.3,5.9-11c0.2-0.4,0.4-0.9,0.7-1.3c1.6-3.1,3-6.1,3.8-9.6c0.5-2.2,1.7-4.3,3-6.1
	c2.2-3.1,7.5-3.6,9.6,1.2c0.5,1.1,0.9,2.1,1.4,3.3c1-1.8,1.8-3.4,2.7-5c1.1-2,3.1-2.6,5.1-1.4c1.2,0.7,1.1,1.8,0.9,2.9
	c-0.4,2.4-1,4.8-1.3,7.2c-0.4,3.1-0.8,6.3-1.1,9.4c-0.1,1.3-0.3,3.1,1.1,3.5c1.3,0.3,1.9-1.4,2.6-2.4c2.2-3.5,4.3-7,6.5-10.5
	c0.2-0.3,0.3-0.7,0.6-0.8c0.5-0.2,1-0.3,1.5-0.4c0.1,0.5,0.4,1.2,0.2,1.5c-2.6,4.2-5.2,8.3-7.8,12.5c-0.3,0.5-0.8,1-1.2,1.4
	c-1.7,1.5-3.6,2.5-5.9,1.5c-2.3-1-3.6-3-3.7-5.5c-0.1-2,0-4-0.3-6c-0.4,0.9-0.9,1.7-1.3,2.6c-1,2-1.9,4-2.9,5.9
	c-1,2-2.8,2.8-4.9,2.8c-2.1,0-3.9-0.9-4.8-3c-0.6-1.5-1-3-1.5-4.7c-0.7,1.3-1.4,2.5-2,3.8c-1.6,3.1-3.2,6.2-4.9,9.3
	c-0.5,0.9-1.1,1.8-1.7,2.6c-1.3,1.8-3.2,2.8-5.4,2.3c-2.2-0.5-3.5-2.1-4.1-4.3c-0.7-2.6-0.3-5.1,0.1-7.7c0.9-5.7,1.9-11.3,2.7-17
	c0.2-1.5,0.3-2.9,0.4-4.4C385,448.8,384.8,448.7,384.6,448.7z M406.2,464.6c0.3,1.6,0.4,2.9,0.8,4.2c0.3,1,1.2,1.1,1.7,0.2
	c2.9-4.5,4.8-9.4,4.8-14.8c0-1.9-0.5-3.6-2.1-4.9c-0.7-0.6-1.4-0.6-1.9,0.2c-0.6,0.9-1.2,1.9-1.3,2.9
	C407.4,456.5,406.8,460.6,406.2,464.6z M340.6,454.4c-0.2-0.7-0.3-2.2-0.9-3.4c-0.4-0.9-1.3-2-2.2-2.1c-1.2-0.2-1.6,1.2-2,2.2
	c-0.3,0.7-0.5,1.5-0.7,2.3c-0.5,2.7-1,5.5-1.2,8.3c-0.2,2.1-0.1,4.1,0,6.2c0,0.6,0.7,1.1,1,1.7c0.5-0.4,1.1-0.7,1.4-1.2
	C338.7,464.3,340.2,459.9,340.6,454.4z M275.2,464.2c0.2,1.6,0.3,2.9,0.6,4.2c0.1,0.4,0.6,0.9,0.9,1c0.3,0.1,0.8-0.3,1-0.7
	c2.9-4.5,4.7-9.4,4.7-14.9c0-1.7-0.5-3.3-1.8-4.5c-1-0.9-1.7-0.9-2.4,0.3c-0.6,0.9-1,2-1.2,3.1C276.3,456.7,275.7,460.6,275.2,464.2
	z M227.1,460.6c1.5,0,2.9,0,4.2,0c2.1,0,2.3-0.3,2.4-2.4c0.2-6.1,0.4-12.1,0.6-18.2c0-1.1,0-2.2,0-3.2c-0.1,0-0.2,0-0.3,0
	C231.8,444.7,229.5,452.5,227.1,460.6z M307.5,446.9c0.1,0,0.3,0,0.4,0.1c3.2-5.2,6.2-10.5,7.2-16.6c0.4-2.2,0.2-4.5,0.2-6.7
	c0-0.3-0.3-0.9-0.6-1c-0.3-0.1-0.8,0.2-1.1,0.5c-0.4,0.5-0.8,1-1,1.6c-1.2,4-2.5,7.9-3.4,12C308.4,440.1,308,443.5,307.5,446.9z
	 M257.6,444c0.3-0.1,0.4-0.1,0.4-0.1c0.2-0.3,0.5-0.6,0.7-0.9c2.3-3.1,3.8-6.6,5-10.3c0.9-2.8,1.6-5.7,1.4-8.7
	c-0.1-1.1-0.2-2.1-1.5-3.1C259.6,428.2,259.2,436.2,257.6,444z M315.4,467.2c-0.1-0.1-0.3-0.1-0.4-0.2c-2.9,2-5.8,4.1-7.3,7.5
	c-0.3,0.7-0.4,1.5-0.4,2.3c0.1,1,0.2,2.1,1.4,2.5c1.2,0.4,2.1-0.4,2.6-1.3c1-1.6,2-3.3,2.7-5C314.6,471.1,314.9,469.1,315.4,467.2z"
	/>
</svg>
