<?xml version="1.0" encoding="utf-8"?>
<!-- Generator: Adobe Illustrator 22.0.1, SVG Export Plug-In . SVG Version: 6.00 Build 0)  -->
<svg version="1.1" id="Layer_1" xmlns="http://www.w3.org/2000/svg" xmlns:xlink="http://www.w3.org/1999/xlink" x="0px" y="0px"
	 viewBox="0 0 500 500" style="enable-background:new 0 0 500 500;" xml:space="preserve">
<path d="M103.8,398.4c-0.9-3.7-1.9-7.4-2.8-11.2c-0.2-0.9-0.6-1.6-1.4-2.2c-3-2.2-6-4.3-8.8-6.6c-3.1-2.6-6.8-3.8-10.5-5
	c-5.6-1.9-10.3-4.8-14.1-9.3c-1.8-2.1-3.9-3.9-5.8-5.9c-0.4-0.4-0.7-1.1-0.7-1.7c-0.1-2.5-0.1-5.1,0-7.6c0-0.6,0.3-1.2,0.7-1.6
	c1.5-1.6,3.1-3.2,4.7-4.7c0.7-0.7,0.8-1.3,0.4-2.2c-6-14.4-11.9-28.7-17.9-43.1c-4.2-10.1-8.5-20.2-12.8-30.3
	c-0.3-0.8-0.3-1.4,0.1-2.2c0.8-1.4,1.5-2.9,2.2-4.4c0.3-0.7,0.7-0.9,1.4-0.9c1.4,0.1,2.8,0,4.2,0c0.8,0,1.2-0.2,1.4-1
	c0.8-2.5,1.6-5.1,2.5-7.6c0.3-0.7,0.1-1.1-0.5-1.6c-4.7-3.7-9.3-7.4-14-11.1c-0.7-0.6-1-1.2-1-2.1c0-6.5,0-13,0.1-19.5
	c0-1,0.3-2,0.7-2.8c0.7-1.6,1.6-3.2,2.4-4.9c3.2,2.1,6.2,4.1,9.5,6.3c0.5-1.4,0.8-2.7,1.4-3.9c1.8-3.7,1.8-7.3,0-10.9
	c-0.6-1.2-0.9-2.5-1.3-3.9c-1.8,0.6-3.4,1.1-5.1,1.7c-1.5,0.5-3,1.4-4.4,1.2c-1.3-0.2-2.5-1.5-3.8-2.3c-1.6-1-3.1-2.1-4.7-3.1
	c-0.8-0.5-1-1-1-1.9c0-6.5,0-13.1,0-19.6c0-0.7-0.3-1.6-0.7-2.1c-3.7-4.7-7.5-9.4-11.2-14.1c-0.4-0.5-0.6-1.2-0.6-1.8
	c0-9.9,0-19.8,0-29.7c0-0.5,0.3-1.2,0.7-1.6c1.6-1.7,3.3-3.3,4.9-5c0.4-0.4,0.7-1,0.7-1.5c0-5.7,0-11.5,0-17.2
	c0-0.5-0.3-1.1-0.7-1.5c-1.6-1.7-3.3-3.3-4.9-5c-0.4-0.4-0.7-1.1-0.7-1.6c0-5.7,0-11.4,0-17.1c0-0.7,0.2-1.1,0.8-1.5
	c2.6-1.7,5.2-3.4,7.8-5.2c0.5-0.4,1-0.9,1.3-1.4c3.9-6.8,7.9-13.5,11.6-20.4c0.8-1.5,0.8-3.5,1-5.3c0.9-9.9,1.8-19.7,2.7-29.6
	c0-0.2,0-0.3,0.1-0.7c42.1,15.8,84.2,31.6,126.3,47.4c-0.9,3.1-1.8,6.2-2.7,9.2c-10.5,35.4-21.1,70.9-31.6,106.3
	c-0.3,1-0.2,1.8,0.4,2.7c42.8,67.1,85.6,134.1,128.3,201.2c2.5,3.9,4.9,7.9,7.5,11.7c3,4.4,4.5,9.4,6.5,14.3
	c2.7,6.6,5.3,13.3,8,19.9c0.4,0.9,0.3,1.4-0.5,2.1c-4.7,3.7-9.3,7.4-14,11.1c-0.6,0.5-0.8,1-0.8,1.8c0,3.5,0.1,6.9,0,10.4
	c0,0.7-0.3,1.5-0.8,1.9c-3.6,3.7-7.3,7.4-11,11.1c-0.6,0.6-0.8,1.2-0.8,2c0,3.5,0,6.9,0,10.4c0,0.8,0.2,1.2,0.9,1.5
	c1.6,0.7,3.1,1.5,4.6,2.3c0.4,0.2,0.8,0.8,0.8,1.3c0.1,2.5,0,5.1,0.1,7.6c0,0.8-0.3,1.1-1,1.2c-3.7,0.9-7.4,1.9-11.1,2.8
	c-0.4,0.1-0.9,0.1-1.4,0c-20.5-3-41-6.1-61.5-9.1c-7.3-1.1-14.6-2.2-21.9-3.2c-1-0.1-1.2-0.5-1.3-1.4c-1-8.8-1.9-17.5-2.9-26.3
	c-0.1-0.6-0.3-1.2-0.6-1.7c-6-10-12-20-18-30c-0.3-0.5-0.7-0.9-1.2-1.2c-2.6-1.8-5.2-3.5-7.9-5.3c-0.6-0.4-0.9-0.9-0.9-1.6
	c0-2.5,0-5,0-7.5c0-0.7-0.2-1.2-0.9-1.4c0,0-0.1,0-0.1-0.1c-3.4-2.2-7-2.9-11-2.7c-4.3,0.2-8.6,0-12.9,0
	C104.1,398.5,104,398.4,103.8,398.4z"/>
<path d="M362.5,128.7c-0.2-0.1-0.2-0.1-0.3-0.1c-2.8-0.7-4.6,0.3-5.9,3c-1.6,3.2-3.6,6.2-5.7,9.1c-2.4,3.6-5.1,7-9.6,8.1
	c-0.3,0.1-0.5,0.7-0.7,1c-1,2.5-1.7,5-3,7.4c-1.2,2.4-3.3,4-6.1,4.5c-5,0.9-10-2.2-11.4-7.3c-0.6-2.1-0.6-4.4-0.8-6.7
	c-0.1-0.5,0-1,0-1.6c-2.4,1.5-4.9,2.2-7.6,2.1c-2.7-0.1-5.2-0.8-7.6-2.5c0.1,0.5,0.2,0.8,0.3,1c4.8,9.5,4.5,19.5,2.5,29.5
	c-0.8,4.3-2.2,8.5-4.6,12.2c-1.6,2.5-3.6,3.4-6.3,2.8c-2.6-0.6-4.6-2.6-5-5.3c-0.9-6.1-0.9-12.3-0.3-18.4c0.6-6.8,1.4-13.7,2.1-20.5
	c0-0.4,0-0.7-0.1-1.2c-0.2,0.3-0.5,0.7-0.7,1c-1.6,2.6-3.2,5.2-5,7.8c-1,1.4-2.1,2.8-3.3,4.1c-4.2,4.3-11.4,2.9-13.4-2.8
	c-0.9-2.4-1-5.1-1.4-7.7c-0.1-0.3-0.1-0.6-0.1-1.3c-0.9,1.4-1.7,2.6-2.5,3.7c-1.3,1.9-2.7,3.7-3.8,5.7c-3.5,6.1-13.2,5.1-16.1-0.9
	c-1.1-2.1-1.4-4.6-2.1-6.9c-0.1-0.3-0.1-0.6-0.2-1.3c-1,1.7-1.8,3.1-2.7,4.4c-1.5,2.2-2.9,4.6-4.7,6.5c-2,2.3-4.7,3.5-7.8,2.2
	c-3.2-1.3-4.9-3.9-5.1-7.3c-0.1-2.8,0-5.7-0.3-8.6c-1.3,2.8-2.6,5.5-4,8.3c-0.6,1.3-1.2,2.5-1.9,3.8c-1.4,2.5-3.7,3.6-6.4,3.5
	c-2.8,0-5-1.2-6.4-3.7c-1.4-2.5-1.7-5.2-1.7-8.4c-0.5,0.7-0.7,1-1,1.4c-4.5,6.4-8.9,12.9-13.4,19.3c-1,1.5-2.4,2.8-3.7,4
	c-5.7,5.1-14,3.9-17.9-2.6c-2.5-4.2-3.5-8.8-3.7-13.6c-0.3-8.7-0.1-17.4,1-26.1c1.1-8.5,2.8-16.8,5.8-24.9c1.3-3.6,3.1-7.1,6.1-9.6
	c3.1-2.6,6.5-4.3,10.6-4.5c2.4-0.1,4.3,0.8,5.9,2.5c3.5,3.9,5.2,8.7,6.5,13.6c0.1,0.4-0.3,1.3-0.6,1.4c-0.3,0.2-1.2-0.1-1.5-0.5
	c-0.9-1.3-1.6-2.7-2.3-4.1c-1.4-2.5-2.6-5.2-4.3-7.6c-2.3-3.3-4.6-3.1-6.8,0.3c-2.6,3.8-3.9,8.2-5.1,12.6c-3.1,11.9-4.7,24-5.1,36.3
	c-0.2,6-0.1,12,1.3,17.9c0.4,1.8,1.2,3.6,2.2,5.1c1.3,2.1,3.3,2.4,5.3,0.9c1.7-1.3,3.5-2.8,4.8-4.5c4.6-6.2,9-12.5,13.5-18.8
	c2-2.8,3.5-5.8,4.2-9.3c0.6-3.5,2.1-6.8,4.7-9.5c2.9-3.1,9.4-4,12.2,1.9c0.7,1.5,1.3,3,2,4.7c0.2-0.3,0.4-0.6,0.6-0.8
	c1.1-2,2.2-4.1,3.3-6.2c1.3-2.5,5-3.2,7.1-1.2c0.5,0.5,0.9,1.4,0.8,2.1c-0.4,3-0.8,6-1.4,9c-0.9,5.1-1.9,10.1-1.8,15.3
	c0,1.1,0.2,2.2,0.5,3.2c0.4,1.2,1.4,1.4,2.2,0.5c1.1-1.2,2.1-2.5,3-3.8c1.9-3,3.8-6.1,5.6-9.2c0.3-0.6,0.4-1.3,0.4-2
	c-0.7-14.1,0.5-28,5.1-41.5c0.8-2.4,2.1-4.8,3.5-7c2.3-3.6,6.2-4.4,10-3.6c2.3,0.5,3.8,2.8,4,5.6c0.3,3.7-0.3,7.3-1.4,10.8
	c-2.3,7.7-6,14.8-10.8,21.2c-1,1.3-1.6,2.7-1.7,4.3c-0.2,5.1-0.6,10.1-0.7,15.2c0,2.1,0.5,4.3,0.8,6.4c0.1,0.5,0.3,1,0.5,1.5
	c1.4,3.2,3.9,3.8,6.5,1.4c0.7-0.7,1.3-1.5,1.9-2.3c2.5-3.9,5-7.7,7.3-11.7c0.8-1.3,0.7-3.1,1-4.7c0.5-2.7,1-5.3,1.6-8
	c0.3-1.4,1.2-2.4,2.7-2.6c1.2-0.1,2.4-0.1,3.6,0.1c1.6,0.3,2.4,2,2.1,4c-0.4,2.5-1.1,5-1.5,7.5c-0.7,4.4-1.4,8.7-1.8,13.1
	c-0.1,1.4,0.2,2.9,0.8,4.2c0.7,1.6,2.4,2.2,4,1.3c1.1-0.6,2.2-1.5,2.8-2.5c3.3-5,6.4-10,9.5-15.1c0.5-0.8,0.5-1.9,0.7-2.9
	c1.4-8.2,2.8-16.4,4.3-24.6c0.8-4,2-8,4-11.6c1.4-2.5,3.3-4.4,6.1-5.3c4.4-1.4,8.2,1.3,8.4,6c0.3,7.1-1.2,13.8-4.2,20.2
	c-2,4.4-4.4,8.7-6.6,13c-0.5,1-1,2-1.2,3.1c-1,5.4,4.4,9.7,9.9,7.9c2.9-0.9,4.8-2.9,5.6-5.9c0.6-2.2,1.3-4.5,2.3-6.6
	c2.6-5.3,8.6-7.2,13.3-4.5c3.2,1.9,4.8,5,5.1,8.6c0.2,2.9,0,5.9,0,9c0.5-0.2,1.1-0.4,1.7-0.8c2.3-1.2,3.9-3.1,5.2-5.3
	c2.3-3.5,4.5-7,6.7-10.5c0.1-0.2,0.2-0.4,0.4-0.8c-1.2-0.3-2.4-0.6-3.5-1c-3.8-1.1-5.3-4-4.3-7.8c1-3.7,4.3-6.5,7.7-6.7
	c2.4-0.1,3.9,0.8,4.2,3.2c0.3,2.6,0,5.2,0,7.8c0,0.4-0.1,0.7-0.2,1.3c2.2,0,4.4,0,6.5,0c1,0,2,0,3,0.1c1.6,0.2,2.3,0.9,2,2.5
	c-0.5,2.6-1.2,5.2-1.9,7.7c-1.5,5.5-3.1,11.1-3.4,16.8c-0.1,1.2,0,2.4,0.4,3.5c0.6,1.8,2,2,3.3,0.7c1.2-1.3,2.2-2.7,3.2-4.1
	c2-3.1,3.9-6.2,5.8-9.3c0.3-0.4,0.4-1,0.4-1.5c0.1-4.5,0.2-8.9,0.2-13.4c0-2.2,0.8-3.1,3-3.4c1-0.1,2-0.1,3-0.1
	c1.9,0.1,3.1,1.3,3,3.3c0,3.5-0.2,7-0.4,10.5c-0.1,3-0.3,6.1-0.2,9.2c0.1-0.3,0.3-0.5,0.4-0.8c2.6-6.2,5.3-12.3,9.5-17.6
	c1.2-1.5,2.7-3,4.3-4.1c3.4-2.3,6.5-1.1,7.7,2.9c0.8,2.8,0.5,5.6,0,8.3c-1.3,6.7-2.8,13.3-4,20c-0.7,3.7-0.9,7.4-1.4,11.1
	c0,0.2,0,0.4,0,0.9c0.4-0.6,0.7-1,0.9-1.3c4.7-7.8,9.3-15.7,14.2-23.4c1.2-2,1.2-4.1,1.6-6.2c0.6-2.7,1-5.4,1.6-8.1
	c0.3-1.5,1.3-2.5,2.8-2.6c1.1-0.1,2.3-0.1,3.5,0.1c1.3,0.2,2.2,1.4,2.1,3c-0.2,2.1-0.7,4.2-1,6.3c-0.8,4.8-1.5,9.7-2.2,14.6
	c-0.1,1.1-0.1,2.2,0.1,3.2c0.4,3.1,3.2,4.3,5.7,2.5c0.8-0.6,1.6-1.5,2.1-2.4c2.4-3.7,4.7-7.4,6.9-11.1c0.4-0.6,0.4-1.4,0.7-2.1
	c0.9-3,1.7-6.1,2.9-9c0.6-1.6,1.9-3,3.1-4.1c3.8-3.4,9.1-2.4,11.4,2.1c0.8,1.6,1.4,3.2,2.2,5c1.3-2.4,2.5-4.6,3.7-6.9
	c1.1-2.1,2.6-2.8,4.8-2.4c2.7,0.4,3.6,1.7,3.2,4.3c-0.4,2.4-0.9,4.8-1.3,7.3c-0.7,4.9-1.4,9.8-2,14.7c-0.1,1.3,0.1,2.7,0.4,3.9
	c0.4,1.5,1.5,1.8,2.5,0.6c1.5-1.8,2.8-3.8,4.1-5.8c2.4-3.8,4.7-7.6,7-11.4c0.1-0.1,0.2-0.3,0.3-0.4c0.6-0.8,1.2-1.3,2.2-0.7
	c1,0.6,0.6,1.4,0.2,2.2c-1.1,1.8-2.2,3.5-3.3,5.3c-1.7,2.8-3.3,5.6-5.1,8.3c-1.2,1.8-2.5,3.6-4,5.1c-2,2-4.6,3-7.4,1.8
	c-2.9-1.2-4.6-3.5-5-6.7c-0.2-1.9-0.1-3.8-0.1-5.7c0-1,0-2.1-0.2-3.2c-0.2,0.4-0.4,0.7-0.6,1.1c-1.7,3.4-3.3,6.8-5,10.2
	c-1.4,2.8-3.7,4-6.7,4c-3.1,0-5.4-1.4-6.7-4.3c-0.9-2-1.3-4-1.3-6.2c0-0.4,0-0.9-0.2-1.4c-0.9,1.5-1.8,3-2.8,4.4
	c-1.4,2-2.8,4.1-4.5,6c-4.2,4.5-11.4,3-13.5-2.8c-0.7-2.1-0.9-4.5-1.3-6.7c-0.1-0.5-0.1-1-0.2-1.8c-0.6,1-1,1.6-1.4,2.2
	c-3.7,6.3-7.3,12.7-11,19c-0.7,1.2-1.6,2.5-2.7,3.4c-2.2,1.9-5,1.5-6.8-0.8c-1.6-2.1-1.6-4.6-1.7-7c-0.2-5.2,0.9-10.2,1.8-15.2
	c1.2-6.2,2.7-12.3,4.1-18.4c0.1-0.5,0.1-1,0.2-1.6c-0.1-0.1-0.3-0.1-0.4-0.2c-0.4,0.4-0.9,0.8-1.3,1.2c-5.8,7-9.3,15.1-11.9,23.7
	c-0.5,1.8-1,3.7-1.4,5.6c-0.3,1.5-1.1,2.3-2.5,2.6c-1.3,0.2-2.6,0.3-4,0.3c-1.1,0-1.5-0.9-1.5-1.9c-0.1-3.8-0.3-7.7-0.4-11.5
	c0-0.2,0-0.5-0.1-1.1c-0.6,0.9-1.1,1.6-1.5,2.2c-1.8,2.6-3.4,5.3-5.3,7.8c-1.3,1.7-3,3-5.3,3.2c-3.1,0.3-6.3-1.8-7.4-4.8
	c-1.1-3-0.7-6-0.4-9c0.7-5.9,2.2-11.7,3.9-17.4C362.3,129.5,362.4,129.1,362.5,128.7z M210.9,151.6c0.2,1.1,0.3,2.6,0.6,4
	c0.2,0.6,0.8,1.3,1.4,1.5c0.3,0.1,1.2-0.6,1.4-1.1c1.3-2.4,2.6-4.8,3.7-7.3c1.7-4.1,2.8-8.4,2.5-12.9c-0.2-2.3-0.9-4.4-2.8-5.9
	c-0.9-0.8-1.8-0.7-2.5,0.2c-0.7,1-1.4,2.2-1.7,3.4C211.9,139.4,211.4,145.3,210.9,151.6z M449.8,151.7c0.2,1,0.3,2.8,0.8,4.4
	c0.4,1.5,1.7,1.6,2.4,0.3c1.4-2.4,2.7-4.8,3.8-7.3c1.7-4,2.8-8.3,2.6-12.7c-0.1-2.4-0.7-4.7-2.7-6.3c-1.1-0.9-2-0.9-2.7,0.3
	c-0.7,1.1-1.4,2.4-1.7,3.7C450.8,139.6,450.3,145.3,449.8,151.7z M303.1,131.2c0.1,0,0.2,0.1,0.4,0.1c1-1.9,2-3.7,2.9-5.6
	c3-6.2,5.7-12.6,7-19.4c0.4-2.5,0.8-5-0.3-7.3c-0.3-0.6-0.8-1.3-1.4-1.4c-0.4-0.1-1.1,0.6-1.4,1.2c-0.7,1.3-1.3,2.6-1.7,4
	c-2.2,7-3.5,14.1-4.5,21.3C303.7,126.3,303.4,128.8,303.1,131.2z M297.7,187.6c0.1,0.1,0.3,0.1,0.4,0.2c0.8-1.2,1.7-2.3,2.4-3.5
	c2.6-5,3.5-10.5,4-16c0.4-5.1,0.3-10.2-1.2-15.2c-0.4-1.4-1-2.6-1.6-4c-0.1,0-0.2,0.1-0.4,0.1C300.1,162,298.9,174.8,297.7,187.6z
	 M252.3,123.1c0.1,0,0.3,0.1,0.4,0.1c0.4-0.4,0.8-0.9,1.1-1.3c3.5-4.8,5.8-10.2,7.4-15.8c1-3.4,1.7-6.9,1.3-10.5
	c-0.2-1.2-0.5-2.3-1.8-3.3C254.9,101.9,254.6,112.7,252.3,123.1z M338,148.7c-2-0.9-3.7-1.5-5.2-2.4c-1.6-0.9-3-2-4.6-3.1
	c-0.2,0.6-0.5,1.1-0.6,1.6c-1,3.7-0.5,7.3,0.6,10.9c0.5,1.4,1,2.9,2.6,3.2c1.7,0.3,2.8-0.8,3.7-2c0.5-0.6,0.9-1.2,1.2-1.9
	C336.5,152.8,337.2,150.7,338,148.7z M337.9,145.5c0.6-2.9,0.9-5.9,0.5-8.9c-0.2-1.7-0.8-3.2-2.1-4.4c-1.7-1.6-3.6-1.4-4.8,0.5
	C328.2,137.9,331.5,144.5,337.9,145.5z M355.3,115.5c-1.6,2.1-1.9,6.2,0,8.3C356.3,121.1,356.6,118.4,355.3,115.5z"/>
<path d="M428.5,110.7c1.6,0,2.8,1.2,2.8,2.7c0,1.7-1.6,3.1-3.3,3.1c-1.6,0-2.8-1.2-2.7-2.6C425.3,112.2,426.8,110.7,428.5,110.7z"/>
<path d="M280.5,113.4c0,1.7-1.5,3.1-3.3,3.1c-1.6,0-2.8-1.1-2.8-2.6c0-1.7,1.5-3.2,3.2-3.2C279.2,110.7,280.5,111.9,280.5,113.4z"/>
</svg>
