<?xml version="1.0" encoding="utf-8"?>
<!-- Generator: Adobe Illustrator 22.0.1, SVG Export Plug-In . SVG Version: 6.00 Build 0)  -->
<svg version="1.1" id="Layer_1" xmlns="http://www.w3.org/2000/svg" xmlns:xlink="http://www.w3.org/1999/xlink" x="0px" y="0px"
	 viewBox="0 0 500 500" style="enable-background:new 0 0 500 500;" xml:space="preserve">
<path d="M54.6,92.2c2.4,0.2,4.6,0.5,6.9,0.7c9.3,1,18.6,2,27.9,3c9.1,1,18.3,2,27.4,3c8.3,0.9,16.6,1.8,24.8,2.6
	c9.1,1,18.2,1.9,27.3,2.9c8.4,0.9,16.7,1.8,25.1,2.7c9.2,1,18.3,2,27.5,2.9c7.7,0.8,15.5,1.5,23.2,2.2c9.4,0.8,18.7,1.6,28.1,2.5
	c8.3,0.7,16.5,1.4,24.8,2.1c9.4,0.8,18.7,1.6,28.1,2.5c8.2,0.7,16.4,1.4,24.6,2.1c10,0.9,20,1.8,30,2.7c9.7,0.9,19.5,1.9,29.2,2.9
	c9.8,1,19.6,2,29.4,3c8.9,0.9,17.8,1.8,26.6,2.6c9,0.9,17.9,1.8,26.9,2.7c0.8,0.1,1.7,0.2,2.6,0.3c0,0.5,0,1,0,1.4
	c0,26.5,0.1,53,0,79.5c0,6.9-0.6,13.8-1,20.6c-0.8,17.4-1.7,34.9-2.5,52.3c-0.8,17.4-1.7,34.9-2.6,52.3c-0.8,15.7-1.5,31.4-2.3,47.1
	c-0.8,15.7-1.5,31.4-2.3,47.1c-0.5,11.1-1.1,22.2-1.6,33.4c0,0.9-0.3,1.2-1.2,1.2c-22.4,0-44.7,0.1-67.1-0.1
	c-4.7,0-9.4-0.9-14.1-1.4c-9.3-1-18.5-2-27.8-2.9c-9.2-1-18.4-2-27.6-2.9c-7.6-0.8-15.1-1.6-22.7-2.4c-8.5-0.9-16.9-1.8-25.4-2.7
	c-8.4-0.9-16.8-1.8-25.2-2.7c-8.4-0.9-16.8-1.8-25.2-2.7c-8.5-0.9-17-1.8-25.5-2.7c-8.4-0.9-16.7-1.8-25.1-2.7
	c-8.4-0.9-16.8-1.8-25.2-2.7c-8.4-0.9-16.8-1.8-25.2-2.7c-8.5-0.9-17-1.8-25.5-2.7c-8.4-0.9-16.7-1.8-25.1-2.7
	c-8.4-0.9-16.8-1.8-25.2-2.7c-8.4-0.9-16.8-1.8-25.2-2.7c-8.5-0.9-17-1.8-25.5-2.7c-4.3-0.5-8.5-0.9-12.8-1.4
	c-0.3,0-0.7-0.1-1.1-0.2C21.5,315.5,38.1,203.9,54.6,92.2z"/>
<path d="M269.5,72.5c2.5-0.8,3.9-2.4,5.2-4.2c1.8-2.7,3.4-5.4,5.1-8.1c0.2-0.2,0.2-0.5,0.4-0.9c-0.9-0.3-1.8-0.5-2.6-0.7
	c-2.7-0.8-3.8-2.7-3.3-5.4c0.5-2.9,3.1-5.3,5.9-5.6c1.8-0.2,3,0.5,3.3,2.3c0.3,1.7,0.2,3.4,0.2,5.1c0,0.6-0.2,1.2-0.3,2
	c1.8,0,3.5,0,5.2,0c0.6,0,1.1,0,1.7,0c1.7,0.1,2.3,0.8,1.9,2.4c-0.6,2.6-1.5,5.2-2,7.9c-0.8,3.5-1.4,7-1.9,10.5
	c-0.1,0.8,0,1.7,0.3,2.5c0.5,1.3,1.5,1.6,2.4,0.5c0.9-1,1.7-2.1,2.5-3.2c1.5-2.3,3-4.6,4.4-7c0.5-0.8,0.6-1.9,0.9-2.9
	c0.6-2.6,1.3-5.1,2.9-7.3c0.8-1,1.8-2,2.9-2.6c2.6-1.3,5.4-0.4,6.9,2.1c0.7,1.3,1.3,2.7,2,4.2c0.9-1.7,1.8-3.3,2.7-5
	c1-1.9,2.3-2.5,4.4-1.9c1.4,0.4,2,1,1.8,2.5c-0.4,2.7-1,5.4-1.3,8.2c-0.5,3.4-0.8,6.7-1.1,10.1c-0.1,0.7,0.1,1.5,0.4,2.2
	c0.4,1,1,1.1,1.7,0.4c0.7-0.8,1.4-1.6,1.9-2.5c2-3.1,3.9-6.3,5.8-9.5c0.9-1.5,1.3-3.2,2.1-4.8c1.9-3.9,5.1-6.1,9.5-6.2
	c1.4,0,2.8,0.3,4.3,0.5c0.7-2.8,1.1-5.7,2-8.4c1.2-3.6,2.7-7.1,4.3-10.6c1.4-3.1,3.8-5.4,6.5-7.4c1.5-1.1,3.2-1.4,4.9-0.6
	c1.7,0.8,2.4,2.2,2.3,4c0,1.3-0.1,2.7-0.5,3.9c-1.9,7-5.3,13.2-9.8,18.9c-1.7,2.1-3.8,4-4.1,6.8c-0.7,6.9-1.9,13.7-1.3,20.7
	c0,0.5,0.1,1.1,0.3,1.6c0.4,1.3,1.6,1.5,2.4,0.5c0.6-0.7,1-1.6,1.5-2.4c2.9-4.8,5.8-9.6,8.7-14.4c0.7-1.1,1.1-2.4,1.5-3.6
	c0.4-1.1,0.7-2.4,1.2-3.5c1.5-3.9,4.7-5.9,8.4-5.4c3.3,0.5,5.9,3.6,6.2,7.6c0.1,2.1,0,4.2,0,6.6c0.9-0.6,2-1,2.7-1.7
	c1.1-1.1,2-2.3,2.9-3.5c0.5-0.6,1-1.2,1.6-0.6c0.3,0.3,0.4,1.3,0.1,1.7c-1.8,2.7-3.7,5.3-7.1,6.2c-0.3,0.1-0.6,0.5-0.7,0.9
	c-0.5,1.3-0.9,2.8-1.4,4.1c-1.7,3.8-4.4,5.5-7.8,5c-3.7-0.5-6.3-3.2-6.8-7.2c-0.1-0.9-0.2-1.9-0.3-3.1c-0.3,0.5-0.5,0.7-0.7,1
	c-2.5,4-5,8-7.5,12c-2.9,4.5-6.9,4.3-9.2-0.6c-1-2.1-1.1-4.7-1.6-7c-0.2-1-0.3-2.1-0.4-3.5c-0.6,0.8-0.9,1.3-1.3,1.9
	c-1,1.3-2,2.8-3.2,4c-3.4,3.2-8.8,1.7-10.1-2.8c-0.4-1.5-0.5-3.1-0.7-4.7c-0.4,0.6-0.8,1.2-1.1,1.8c-1.1,1.7-2.2,3.6-3.5,5.2
	c-1.6,1.9-3.6,3.3-6.3,2.3c-2.6-0.9-4-3-4.1-5.7c-0.1-2,0-4-0.3-6c-0.4,0.9-0.9,1.7-1.3,2.6c-1,2-1.9,4-2.9,5.9
	c-1.1,2.1-2.9,3-5.1,2.9c-2.2-0.1-4-1-4.9-3.1c-0.7-1.8-1-3.7-1.5-5.6c-0.1,0.2-0.4,0.6-0.6,0.9c-1.4,2-2.6,4.2-4.2,6
	c-2.6,3-5.8,3.1-8.3,0.4c-1.6-1.7-1.8-4-1.6-6.2c0.3-5.2,1.5-10.2,3-15.2c0.1-0.4,0.2-0.8,0.4-1.4c-1,0-1.9-0.1-2.7,0
	c-0.4,0-0.8,0.5-1,0.8c-2,3.1-3.9,6.3-6,9.3c-1.6,2.4-3.6,4.5-6.5,5.2c-0.3,0.1-0.5,0.5-0.6,0.8c-0.5,1.3-0.8,2.6-1.3,3.9
	c-1.7,4-4.4,5.7-7.9,5.2c-3.8-0.6-6.3-3.4-6.8-7.5c-0.1-0.9-0.2-1.9-0.3-3c-0.3,0.3-0.5,0.5-0.6,0.8c-1.3,1.9-2.6,3.8-3.8,5.7
	c-2.8,4.8-10.1,3.8-12.3-0.6c-0.8-1.6-1.1-3.5-1.6-5.2c-0.2-0.6-0.2-1.3-0.3-1.8c-1.3,0.6-2.6,1.1-3.8,1.7c-0.3,0.1-0.4,0.6-0.6,0.9
	c-0.7,1.7-1.1,3.5-2,5.1c-1.3,2.5-3.4,4.2-6.4,4c-3.4-0.2-5.9-1.9-7-5.2c-0.6-1.6-0.7-3.4-1-5.2c-0.2,0.3-0.5,0.6-0.7,1
	c-3.4,5-6.8,9.9-10.3,14.8c-0.8,1.1-1.8,2.1-2.9,3c-4.3,3.8-10.6,2.8-13.5-2.2c-2-3.3-2.7-7-2.9-10.8c-0.4-11.4,0.5-22.6,3.7-33.6
	c0.9-3.3,2-6.5,3.9-9.3c2.4-3.5,5.8-5.4,10-6c1.9-0.3,3.6,0.5,4.9,2c2.5,2.9,3.8,6.5,4.8,10.1c0.1,0.3-0.1,1-0.4,1.2
	c-0.3,0.1-0.9-0.1-1.2-0.4c-0.5-0.7-0.9-1.5-1.4-2.3c-1.2-2.2-2.3-4.6-3.7-6.6c-1.6-2.3-3.3-2.2-4.9,0.1c-2.1,2.9-3.1,6.3-4,9.7
	c-2.9,11.1-4.3,22.5-3.8,33.9c0.1,3,0.6,6,1.5,8.9c1.2,4.1,3.7,4.8,6.6,1.7c3.2-3.5,5.9-7.3,8.7-11.1c1.7-2.3,3.2-4.9,4.9-7.3
	c1.5-2,2-4.2,2.7-6.5c0.6-1.8,1.4-3.5,2.8-4.8c4.4-3.9,10.8-1.7,11.9,4.3c0.5,2.5,0.1,5.2,0.1,7.9c2.3-0.2,3.9-1.9,3.8-3.9
	c-0.3-8.5,0.2-16.9,2.3-25.2c0.9-3.5,1.8-7.1,3.8-10.2c1.8-2.8,4.4-4.1,7.7-3.5c2,0.3,3.4,2.3,3.4,5c0.1,4-1,7.7-2.4,11.4
	c-1.8,4.5-4.2,8.7-7.1,12.6c-0.5,0.7-1,1.7-1,2.6c-0.3,4-0.5,8.1-0.6,12.1c0,1.7,0.4,3.4,0.7,5c0.3,1.4,1,2.6,2.5,2.9
	c1.5,0.3,2.5-0.7,3.3-1.8c0.4-0.4,0.7-0.9,1-1.3c1-1.5,1.9-3.1,2.9-4.6c1.8-2.7,3.4-5.4,4.1-8.6c0.2-1.1,0.8-2.2,1.4-3.1
	c1.7-2.6,4.1-4,7.2-3.6c3,0.4,4.8,2.3,5.8,5.1c1,2.7,0.7,5.4,0.5,8.2C269.6,71.8,269.5,72.1,269.5,72.5z M336.3,81.4
	c3.7-4.3,6.9-8.7,8.1-14.3c0.4-1.8,0.3-3.6,0.2-5.4c0-1.1-0.6-1.9-1.7-2.3c-1.1-0.3-1.9,0.2-2.6,1c-0.6,0.7-1.1,1.5-1.5,2.3
	c-2,4.1-3,8.5-3.3,13.1C335.4,77.7,335.4,79.6,336.3,81.4z M303.8,75.5c0.2,1.7,0.3,3.2,0.6,4.6c0.1,0.4,0.5,1,0.9,1.1
	c0.3,0.1,0.8-0.4,1.2-0.7c0.2-0.1,0.3-0.3,0.4-0.5c2.3-4,3.9-8.3,4.3-12.9c0.2-2.2-0.1-4.3-1.7-6c-1.1-1.1-2-1-2.7,0.3
	c-0.5,0.8-0.9,1.8-1.1,2.7C305,67.8,304.4,71.8,303.8,75.5z M352.6,57.3c0.3-0.2,0.4-0.3,0.5-0.5c4.8-5.4,7.9-11.6,9.7-18.5
	c0.3-1.1,0.5-2.3,0.6-3.5c0-0.4-0.3-0.9-0.5-1.4c-0.4,0.2-1,0.3-1.3,0.6c-0.5,0.5-1,1.1-1.3,1.7c-1.6,3.2-3.2,6.5-4.6,9.8
	C354.2,49.2,353.2,53.1,352.6,57.3z M240.8,55.2c0.1,0,0.2,0.1,0.3,0.1c0.5-0.7,1-1.3,1.5-2c2.4-3.5,4.1-7.4,5-11.5
	c0.6-2.4,0.7-5,0.8-7.5c0-0.8-0.6-1.6-0.9-2.3c-0.2,0-0.4,0-0.6,0C242.8,39.2,242.5,47.4,240.8,55.2z M220.5,70.7
	c-0.1,0.1-0.2,0.3-0.3,0.6c-1,3.3-0.5,6.6,0.8,9.7c0.7,1.7,2.2,2,3.6,0.7c2.1-1.9,2.8-4.5,3.2-6.8C225.2,73.4,222.9,72,220.5,70.7z
	 M370.2,70.6c-1.3,3.7-0.9,7.3,0.8,10.7c0.7,1.4,2.1,1.4,3.3,0.3c2.1-1.9,2.8-4.5,3.2-6.8C375,73.4,372.7,72,370.2,70.6z
	 M259.9,70.7c-1.4,2.4-1,8.7,0.9,10.9c0.8,1,1.9,1.1,3,0.2c2.2-1.9,3-4.5,3.3-7C264.6,73.4,262.2,72.1,259.9,70.7z M228,72.2
	c0.4-2.2,0.8-4.5,0.3-6.8c-0.3-1.1-0.8-2.3-1.5-3.2c-1.1-1.4-2.7-1.2-3.7,0.3C220.6,66.4,223.1,71.6,228,72.2z M267.3,72.2
	c0.2-1.2,0.3-2.3,0.5-3.5c0.1-0.7,0.2-1.5,0-2.2c-0.4-1.4-0.7-2.9-1.5-4.1c-1.2-1.8-3-1.5-4.1,0.3C260.1,66.8,262.4,71.3,267.3,72.2
	z M377.8,72.2c0.2-1.5,0.4-3,0.4-4.5c0-1.9-0.2-3.8-1.5-5.3c-1.3-1.6-3-1.4-4,0.4C370.5,66.8,373,71.6,377.8,72.2z M280.5,49.4
	c-1.2,2.3-1.2,4.3,0,6.5C281.3,53.7,281.4,51.6,280.5,49.4z"/>
</svg>
