<?xml version="1.0" encoding="utf-8"?>
<!-- Generator: Adobe Illustrator 22.0.1, SVG Export Plug-In . SVG Version: 6.00 Build 0)  -->
<svg version="1.1" id="Layer_1" xmlns="http://www.w3.org/2000/svg" xmlns:xlink="http://www.w3.org/1999/xlink" x="0px" y="0px"
	 viewBox="0 0 500 500" style="enable-background:new 0 0 500 500;" xml:space="preserve">
<path d="M328.8,490c-70.1,0-140,0-210,0c-0.7-3.3-1.3-6.6-2-9.9c-5.1-25.7-10.3-51.4-15.4-77.2c-5.1-25.6-10.2-51.2-15.3-76.8
	c-5.5-27.4-10.9-54.7-16.4-82.1c-3.6-18-7.3-36-10.8-54c-1.9-10.1-3.4-20.2-5.1-30.3c-2.2-13.3-4.4-26.5-6.6-39.8
	c-2.2-13.3-4.4-26.5-6.6-39.8C38.2,67,36,53.8,33.8,40.5c-1.7-10.1-3.4-20.1-5.1-30.5c0.3,0.5,0.5,0.8,0.7,1
	c19.7,39.3,39.3,78.6,59,118c0.3,0.6,0.4,1.3,0.4,1.9c0,9.2,0,18.4,0,27.6c0,0.9,0.2,1.6,0.8,2.2c23.2,26,46.3,52.1,69.4,78.1
	c27.7,31.1,55.4,62.3,83,93.4c26.3,29.6,52.7,59.3,79,88.9c2.4,2.7,4.8,5.3,7.1,8.1c0.3,0.4,0.6,1,0.6,1.5c0,19.5,0,38.9,0,58.4
	C328.8,489.4,328.8,489.6,328.8,490z"/>
<path d="M405.7,122.3c-1.5-0.4-2.9-0.7-4.2-1.1c-4-1.2-5.8-4.3-4.8-8.4c1-4.2,4.6-7.5,8.7-7.9c2.5-0.2,4.1,0.7,4.8,3.2
	c0.9,2.7,0.5,5.5,0.1,8.3c-0.1,0.7-0.2,1.5-0.4,2.3c2.7,0,5.3,0,8,0c1,0,1.9,0,2.9,0.1c1.8,0.2,2.5,1.1,2.2,2.8
	c-0.5,2.7-1.2,5.4-1.9,8c-1.7,6.1-3.5,12.3-4,18.7c-0.1,1.5-0.1,3.1,0.2,4.6c0.6,2.5,2.5,2.9,4.2,0.9c1.5-1.8,2.9-3.8,4.2-5.9
	c2.6-4,5-8,7.5-12.1c0.3-0.6,0.6-1.2,0.7-1.8c1.4-6.2,4.4-11.3,10.1-14.4c2.1-1.2,4.4-1.9,6.9-1.8c3.8,0,6.2,2.8,5.8,6.5
	c-0.6,5.3-3.3,9.4-7.4,12.5c-1.8,1.4-3.8,2.5-5.7,3.7c-0.5,0.3-1,0.7-1.1,1.2c-1.1,3.5-1.1,7.1,0.4,10.5c1.7,3.9,4.9,5.2,8.9,3.6
	c3.2-1.3,5.1-4,6.8-6.7c3.1-4.8,6-9.7,9.1-14.5c0.2-0.3,0.3-0.6,0.5-0.8c0.6-0.7,1.3-1.1,2.2-0.6c0.9,0.5,0.7,1.3,0.5,2.1
	c-0.1,0.3-0.2,0.5-0.4,0.8c-3.5,5.4-6.9,10.7-10.4,16c-2.5,3.7-5.6,6.6-10.2,7.5c-2.8,0.6-5.6,0.4-8.4-0.5c-4.8-1.6-6.9-5.3-7.9-9.8
	c-0.5-2.2-0.7-4.4-1-6.8c-0.9,1.4-1.8,2.7-2.7,4.1c-2,3.3-3.9,6.8-6.8,9.6c-2.3,2.2-4.8,3.7-8.1,2.6c-3.4-1.2-5.5-3.6-6.1-7.3
	c-0.6-3.9,0-7.8,0.7-11.5c1-5.3,2.4-10.4,3.7-15.7c0.1-0.6,0.3-1.1,0.5-1.9c-1.5,0-2.9,0-4.3,0c-0.4,0-0.8,0.3-1,0.7
	c-6,9.6-11.9,19.2-17.9,28.7c-1.1,1.8-2.5,3.6-4.1,5c-5.3,4.7-12.6,2-13.7-5c-0.4-2.4-0.2-5-0.3-7.5c0-1.1,0-2.2-0.3-3.4
	c-0.9,1.9-1.9,3.9-2.8,5.8c-1.2,2.5-2.4,5-3.7,7.5c-1.5,2.9-4.1,4.1-7.3,4.1c-3.2,0-5.6-1.3-7.2-4.1c-1.9-3.3-2-7-1.9-10.7
	c0-0.5,0.1-1,0.1-1.5c0-0.1-0.1-0.1,0-0.1c-1.8,0.7-3.6,1.6-5.5,2c-1.9,0.3-3.8,0-6-0.1c-3.3,9.1-6.7,18.6-10.2,28
	c-1,2.7-2.3,5.3-3.9,7.8c-2.2,3.4-6.5,3.5-9.2,0.5c-2.2-2.5-2.9-5.7-3.1-8.9c-0.4-7.4,0.3-14.7,1.3-22c0.8-6.2,1.7-12.4,2.3-18.6
	c-0.2,0.4-0.4,0.8-0.6,1.2c-2.4,6.4-4.7,12.9-7,19.3c-0.3,0.9-0.6,1.8-1,2.7c-1,2.3-2.7,4-5.1,4.8c-2.3,0.8-4.3,0.2-6-1.6
	c-1.9-2.1-2.5-4.6-2.6-7.2c0-1.7,0-3.3,0-5.1c-0.5,0.8-1,1.6-1.5,2.4c-1.6,2.6-3.2,5.2-4.9,7.7c-0.7,1-1.7,1.9-2.7,2.7
	c-4.7,3.5-10.3,1.8-12.6-3.8c-1-2.6-0.7-5.3-0.7-7.9c0-1.6,0-3.1-0.3-4.8c-0.9,1.8-1.8,3.7-2.7,5.5c-1.2,2.5-2.4,5.1-3.8,7.6
	c-1.6,3.1-4.3,4.4-7.7,4.2c-3.2-0.1-5.6-1.6-7.1-4.5c-1.2-2.4-1.7-5-1.7-7.6c0-0.5,0-0.9-0.2-1.5c-0.5,0.8-1,1.5-1.5,2.3
	c-1.6,2.4-3.3,4.8-4.8,7.3c-3.6,6-11.9,5.3-16,1.6c-2.6-2.4-3.6-5.5-4.2-8.9c-0.2-0.9-0.3-1.9-0.5-3.1c-0.8,1.1-1.3,2.1-2,3
	c-1.9,2.7-3.6,5.5-5.7,8c-4.3,5-11.3,6.5-17.3,3.8c-2.6-1.1-4.6-2.9-5.5-5.6c-0.7-1.9-1.4-3.9-1.7-6c-0.3-2-0.3-4.1-0.4-6.3
	c-0.1,0-0.2,0.1-0.3,0.1c-3.3,2.7-7,4.6-11,6.1c-0.8,0.3-1.2,0.8-1.5,1.6c-2,5.6-3.8,11.4-6.1,16.9c-2.1,4.9-5.1,9.3-9.7,12.3
	c-2.3,1.6-4.9,2.5-7.7,2.9c-6.4,1-9.7-4.6-9-9.2c0.8-5.4,3.5-9.7,7.2-13.6c3.9-4,8.4-7,13.6-9.2c5.1-2.2,5.1-2.2,6.2-7.7
	c2.1-10.6,2.9-21.3,1.7-32.1c-0.9-8-2.9-15.6-6.4-22.8c-0.1-0.2-0.2-0.5-0.3-0.7c-0.6-1.1-1.3-1.1-2-0.1c-0.7,0.9-1.3,1.8-1.9,2.8
	c-5,7.9-8.2,16.5-10.8,25.4c-3,10.4-5.7,20.9-7.2,31.6c-0.6,4.4-0.9,8.9-1.3,13.3c-0.2,1.8-0.9,3.4-2.7,4.1c-2.4,1-4.5-0.2-4.8-2.7
	c-0.2-1.7,0-3.5,0.1-5.2c0.5-9.3,1.2-18.6,1.6-27.9c0.6-13.8,1.1-27.5,1.6-41.3c0.1-3.4,3.6-5.2,6.5-3.4c1,0.6,1.3,1.6,1.2,2.7
	c-0.1,4.8-0.3,9.6-0.4,14.4c-0.1,5.3-0.1,10.7-0.2,16c0,0.2,0.1,0.4,0.3,0.6c0.8-2.3,1.6-4.7,2.4-7c2.3-5.9,4.5-11.9,7-17.8
	c1-2.3,2.6-4.5,4.2-6.4c4.7-5.6,12.2-3.3,14.9,1.4c3.2,5.4,5,11.2,6,17.3c1.8,11.4,1,22.8-1.1,34c-0.4,1.9-0.8,3.8-1.2,5.7
	c0.1,0.1,0.2,0.2,0.3,0.3c2.2-1.3,4.5-2.5,6.7-3.8c1.1-0.7,2-1.6,3-2.5c1.4-1.2,2.2-2.7,2.7-4.5c1.7-6.5,5.4-11.5,11.9-14
	c1.1-0.4,2.3-0.7,3.5-0.8c5-0.6,8,2.8,7,7.8c-1,5-3.9,8.8-7.9,11.7c-1.6,1.2-3.4,2.1-5,3.2c-0.5,0.3-1,0.9-1.2,1.4
	c-1,3.3-1,6.7,0.3,9.9c1.8,4.5,5.7,6,9.9,3.5c1.7-1,3.2-2.4,4.3-4c2.8-4,5.2-8.1,7.8-12.2c0.2-0.4,0.3-0.9,0.3-1.3
	c0-5.4-0.2-10.8,0-16.2c0.4-11,2.3-21.7,6-32c0.9-2.6,2.4-5.1,3.9-7.5c2.3-3.5,7.1-5,11.1-3.8c2.8,0.9,4,3.1,4.3,5.9
	c0.5,4.7-0.4,9.3-1.8,13.8c-2.6,8.2-6.6,15.8-11.8,22.7c-1.2,1.6-1.9,3.2-2,5.2c-0.2,5.9-0.7,11.8-0.8,17.7c0,2.2,0.5,4.4,1,6.5
	c0.2,1.1,0.8,2.2,1.4,3.1c1.3,1.9,3.3,2.3,5.2,1c1.1-0.8,2.2-1.8,3-3c2.9-4.3,5.6-8.8,8.3-13.2c0.5-0.8,0.5-1.8,0.7-2.7
	c0.8-4.1,2-8,4.4-11.5c2.4-3.5,5.7-5.3,10.1-4.4c1.9,0.4,3.3,1.5,4.2,3c1,1.6,1.7,3.4,2.5,5.1c0.3,0.6,0.5,1.1,0.8,2
	c0.5-0.8,0.8-1.4,1.2-2.1c1.1-2.1,2.2-4.1,3.3-6.2c1.5-2.7,5.8-3.3,8-1.2c0.9,0.8,1,1.9,0.8,3c-0.7,4.2-1.5,8.4-2.2,12.5
	c-0.9,5.2-1.9,10.4-1.4,15.7c0.1,1.2,0.2,2.7,1.6,3.1c1.3,0.3,2-0.9,2.6-1.8c2.2-3.3,4.1-6.8,6.4-10c2.6-3.6,3.8-7.5,4.2-11.8
	c0.3-2.4,0.8-4.8,1.5-7.2c0.8-2.8,3.6-4.1,6.3-3.4c2.3,0.6,3.3,1.9,2.9,4.2c-0.5,3.6-1.3,7.2-1.7,10.9c-0.5,5.4-0.8,10.9-1.2,16.3
	c0,0.5,0.1,1,0.2,1.5c0.1,0,0.3,0.1,0.4,0.1c0.5-1.1,1-2.2,1.5-3.4c3-7.8,5.9-15.5,8.9-23.3c0.2-0.6,0.6-1.2,0.9-1.8
	c1.7-3.1,4.8-4.2,8-2.7c1.5,0.7,2.5,1.9,2.3,3.6c-0.4,5.8-0.9,11.6-1.4,17.4c-0.9,8.5-1.9,17-2.8,25.5c-0.2,2,0,4.1,0.1,6.1
	c0,0.5,0.5,1,0.8,1.4c0.4-0.4,1-0.6,1.2-1.1c1-1.9,1.9-3.9,2.7-5.9c3.1-8.6,6.2-17.2,9.3-25.8c0.4-1,0.3-1.6-0.6-2.3
	c-5.4-4.6-6.2-11.6-2.2-17.4c1.3-1.9,3.2-3,5.5-3.3c2.2-0.3,3.7,0.9,4.3,3.1c0.7,2.9,0.3,5.8-0.4,8.7c-0.5,2.2-1.1,4.4-1.8,6.6
	c-0.3,1.1,0,1.6,1.1,1.8c3.1,0.7,7.3-0.9,9.1-3.6c0.3-0.5,0.4-1.1,0.5-1.7c0.9-4.3,2.1-8.5,4.8-12.1c2.4-3.2,5.5-4.8,9.7-4
	c2,0.4,3.5,1.6,4.5,3.3c0.9,1.5,1.6,3.2,2.3,4.8c0.3,0.6,0.5,1.2,0.8,2.1c1.5-2.7,2.8-5.2,4.2-7.7c1.6-3,4.9-3.9,7.8-2
	c1.2,0.8,1.5,2,1.3,3.3c-0.6,3.8-1.3,7.6-2,11.4c-1,5.5-2,11-1.6,16.6c0.1,0.9,0.3,1.7,0.6,2.5c0.5,1.1,1.4,1.3,2.3,0.5
	c0.8-0.8,1.7-1.7,2.3-2.6c3.5-5.5,6.9-11.1,10.3-16.7c2.3-3.7,4.8-7.4,7.1-11.2C405.2,123.3,405.4,122.8,405.7,122.3z M166.4,150.5
	c-0.1-0.1-0.2-0.2-0.3-0.3c-1.8,1-3.6,1.9-5.3,2.9c-4.5,2.8-8.7,5.9-11.5,10.5c-2.1,3.3-3.2,6.9-2.3,10.8c0.6,2.6,2.3,3.3,4.7,2.1
	c2.3-1.2,4-3.1,5.4-5.3c3.1-4.9,5.8-10,7.6-15.5C165.3,154.1,165.8,152.3,166.4,150.5z M256.4,148.7c0.2,1.1,0.4,3,0.9,4.8
	c0.5,1.6,1.9,1.8,2.7,0.4c1.6-2.8,3.2-5.6,4.4-8.6c1.8-4.3,3-8.8,2.8-13.4c-0.1-2.9-0.7-5.7-3.2-7.7c-1.2-1-2.1-1-3,0.3
	c-0.8,1.2-1.5,2.5-1.9,3.9C257.5,134.7,256.9,141.3,256.4,148.7z M358.7,148.2c0.2,1.3,0.3,3.3,0.9,5.1c0.5,1.8,1.8,1.9,2.8,0.4
	c1.3-2.1,2.5-4.2,3.5-6.5c2.2-5.2,3.9-10.5,3.6-16.3c-0.1-2.7-0.9-5.2-3.1-7c-1.2-0.9-2.1-0.9-3,0.3c-0.7,1-1.3,2.1-1.6,3.2
	C359.8,134.1,359.4,140.8,358.7,148.2z M229.7,116.3c0.1,0.1,0.2,0.1,0.3,0.2c0.5-0.6,1-1.2,1.5-1.8c3.8-5.1,6.2-10.9,8-16.9
	c1.1-3.6,1.9-7.3,1.8-11.2c-0.1-1.8-0.3-3.6-1.9-5c-1.7,1.7-2.6,3.7-3.4,5.8c-2.1,5.5-3.2,11.2-4.2,16.9
	C231,108.3,230.4,112.3,229.7,116.3z M443.6,136.8c2.6-1.7,4.9-3.3,6.5-5.6c1.8-2.5,3-5.2,2.2-8.4c-0.2-0.6-0.6-1.4-1-1.5
	c-0.4-0.1-1.3,0.4-1.6,0.9c-1.4,2.1-2.9,4.3-4,6.6C444.5,131.1,443.5,133.7,443.6,136.8z M197.9,136.7c3.5-2.3,6.8-4.7,8.2-8.7
	c0.5-1.5,0.6-3.2,0.6-4.7c0-0.7-0.7-1.5-1.1-2.2c-0.7,0.5-1.5,0.8-1.9,1.4c-2.9,3.6-4.6,7.7-5.7,12.1
	C197.9,135.2,198,135.9,197.9,136.7z M338.7,123.4c-3.5,3.2-4.4,11.6-1.7,13.7C338.8,132.8,339.5,128.4,338.7,123.4z M406,107.6
	c-1.9,3-1.9,6.9,0,9.6C407.1,114,407.5,110.9,406,107.6z"/>
</svg>
