<?xml version="1.0" encoding="utf-8"?>
<!-- Generator: Adobe Illustrator 22.0.1, SVG Export Plug-In . SVG Version: 6.00 Build 0)  -->
<svg version="1.1" id="Layer_1" xmlns="http://www.w3.org/2000/svg" xmlns:xlink="http://www.w3.org/1999/xlink" x="0px" y="0px"
	 viewBox="0 0 500 500" style="enable-background:new 0 0 500 500;" xml:space="preserve">
<path d="M331.7,69.4c0.6,0,1,0,1.5,0c8.9,0,17.8,0,26.7,0c1.2,0,1.6,0.3,2,1.4c6.3,20.5,12.6,41.1,18.9,61.6
	c0.3,0.9,0.8,1.9,1.4,2.7c14.1,18.9,28.3,37.8,42.5,56.6c1.1,1.5,1.3,3.1,1.6,4.7c1.4,8.4,2.8,16.8,4.2,25.3
	c0.1,0.7,0.4,1.5,0.9,2.1c16.2,22.7,32.5,45.4,48.7,68.2c3.4,4.7,6.5,9.7,9.7,14.5c0.2,0.4,0.4,0.9,0.4,1.3
	c0.6,12.3,1.2,24.6,1.8,36.9c0.7,13.2,1.3,26.3,2,39.5c0.3,6.9,0.7,13.7,1,20.6c0,0.8-0.2,1.6-0.5,2.3c-2.9,5.9-5.9,11.8-8.8,17.7
	c-0.3,0.7-0.7,1.1-1.6,1.2c-9.4,1.5-18.7,3.1-28,4.7c-0.5,0.1-1,0-1.5-0.2c-4.4-1.4-8.8-2.9-13.2-4.4c-0.6-0.2-1.2-0.7-1.6-1.2
	c-7.8-9.3-15.5-18.6-23.3-27.9c-0.4-0.5-1.2-1-1.9-1.1c-7.4-1.5-14.8-3-22.2-4.4c-1-0.2-1.5-0.6-1.8-1.6c-3-10.8-6.1-21.6-9.2-32.3
	c-0.2-0.6-0.7-1.2-1.3-1.5c-2.6-1.4-5.2-2.7-7.9-3.9c-0.8-0.4-1.1-0.9-1.3-1.7c-1.5-6.2-3.1-12.4-4.7-18.7c-1,0-1.9,0-2.9,0
	c-3.6,0-7.2,0-10.8,0c-0.8,0-1.3-0.3-1.7-1c-4.5-7.6-9.1-15.2-13.7-22.9c-0.4-0.6-0.6-1.4-0.6-2.1c0-9.1,0-18.1-0.1-27.2
	c0-0.9-0.2-1.8-0.6-2.5c-1.2-2.6-2.6-5.2-3.8-7.8c-0.3-0.7-0.7-0.9-1.5-0.9c-4.3,0-8.6,0-12.9,0c-0.6,0-1.2,0.2-1.7,0.4
	c-3,1.5-6,3-9.1,4.5c-0.2-0.5-0.4-0.9-0.5-1.4c-1.4-4.1-2.7-8.1-4.1-12.2c-0.3-0.9-0.3-1.6,0.3-2.5c2.9-4.2,5.7-8.5,8.6-12.8
	c0.3-0.5,0.6-1.2,0.6-1.9c0-12.5,0-24.9,0-37.4c0-0.9-0.3-1.4-1.1-1.9c-12.3-7.7-24.7-15.3-36.9-23.1c-3.5-2.2-6.5-5.2-9.7-7.9
	c-8.6-7.3-17.1-14.7-25.7-22c-0.6-0.5-1.6-0.8-2.4-1c-8.9-1.5-17.9-3-26.8-4.5c-1-0.2-1.6,0.1-2.3,0.8
	c-12.5,12.6-25.1,25.1-37.6,37.7c-0.7,0.7-1.3,0.9-2.3,0.6c-5.8-1.5-11.7-2.9-17.5-4.4c-0.6-0.1-1.2-0.7-1.5-1.2
	c-6.2-10.8-12.4-21.7-18.6-32.5c-0.5-0.8-1-1.2-1.9-1.3c-9.2-1.3-18.3-2.7-27.5-3.9c-5.3-0.6-10.2-2.3-15.2-4
	c-5.6-1.9-5.6-1.8-11.5-0.8c-16.8,2.8-33.5,5.6-50.3,8.4c-1,0.2-2,0.3-3.1,0.5C14.9,130.5,10,117.3,5,104c2.1-0.3,4-0.7,6-1
	c15.4-2.4,30.7-4.8,46.1-7.1c9.9-1.5,19.9-2.7,29.8-3.9c9.7-1.2,19.5-2.3,29.2-3.5c9-1.1,18.1-2.1,27.1-3.2c3.1-0.4,6.2-0.7,9.2-1.1
	c0.8-0.1,1.3,0.1,1.9,0.6c4.3,4.4,8.7,8.7,13.1,13.1c0.7,0.7,1.4,1,2.3,0.9c13.7-0.6,27.3-1.2,41-1.8c17.4-0.8,34.8-1.4,52.2-2.3
	c20.7-1.1,41.5-0.7,62.2-0.7c1.3,0,1.6-0.4,1.9-1.5c1.4-7.4,2.9-14.8,4.4-22.1C331.5,70.2,331.6,69.8,331.7,69.4z"/>
<path d="M239.1,260.2c1-1.9,1.9-3.6,2.8-5.2c1-1.8,3.5-2.4,5.1-1c0.5,0.4,0.8,1.4,0.7,2c-0.3,2.4-0.8,4.8-1.1,7.2
	c-0.4,3.1-0.9,6.1-1.1,9.2c-0.1,1.1,0.1,2.2,0.3,3.3c0.3,1.1,1.1,1.3,1.9,0.4c0.9-1,1.6-2.1,2.3-3.2c1.9-3.1,3.7-6.2,5.6-9.3
	c0.2-0.4,0.5-0.8,0.9-1.1c0.3-0.2,0.8-0.2,1.1,0c0.2,0.1,0.3,0.7,0.3,1c0,0.4-0.3,0.7-0.5,1c-2,3.2-3.9,6.5-5.9,9.7
	c-0.8,1.2-1.6,2.4-2.6,3.4c-1.6,1.6-3.6,2.6-5.9,1.6c-2.4-1-3.6-3-3.7-5.5c-0.1-1.9,0-3.9-0.3-5.9c-0.6,1.2-1.2,2.5-1.8,3.7
	c-0.8,1.6-1.5,3.1-2.3,4.7c-1,2-2.7,3-5,2.9c-2.2,0-4-1-4.9-3.1c-0.6-1.6-1-3.4-1.4-5.1c-0.2,0.2-0.4,0.6-0.6,0.9
	c-2.3,3.6-4.5,7.3-6.8,10.9c-0.1,0.1-0.1,0.2-0.2,0.3c-2.7,4.1-6.2,4-8.7-0.3c-1.4-2.4-1.4-5.2-1.8-7.9c-0.1-0.8-0.2-1.6-0.4-2.6
	c-0.7,1-1.1,1.7-1.7,2.4c-0.8,1-1.5,2.2-2.5,3.1c-3.4,3.4-8.8,2-10.1-2.7c-0.4-1.4-0.4-2.8-0.7-4.4c-0.7,1.2-1.4,2.3-2.1,3.3
	c-1.1,1.5-2.1,3-3.3,4.4c-3.1,3.3-8.5,2.1-9.9-2.2c-0.6-1.9-0.8-3.9-1.2-6c-0.4,0.6-0.8,1.3-1.3,1.9c-1.3,1.9-2.4,3.8-3.8,5.6
	c-1.4,1.8-3.3,3-5.8,2.2c-2.4-0.8-3.9-2.8-4-5.6c-0.2-5,0.9-9.8,2.2-14.6c0.3-1.1,0.6-2.3,1-3.6c-1,0-1.8-0.1-2.7,0
	c-0.4,0.1-0.7,0.5-1,0.8c-2,3.2-3.9,6.4-6,9.5c-1.5,2.2-3.3,4-6,4.7c-0.3,0.1-0.6,0.6-0.7,1c-0.6,1.5-0.9,3-1.6,4.4
	c-1.4,3.1-3.9,4.5-6.7,4.3c-3.2-0.2-5.8-2.2-6.7-5.4c-0.4-1.5-0.6-3.1-0.8-4.8c-0.2,0.2-0.4,0.5-0.6,0.8c-1.2,1.8-2.5,3.6-3.5,5.4
	c-2.6,4.7-9.8,3.9-12.1-0.6c-1.3-2.4-1.6-5-1.8-7.6c-0.6-8.5-0.5-16.9,1.2-25.3c0.9-4.5,1.9-9,4.4-12.9c1.3-2.1,3.2-3.2,5.7-3.3
	c3.1-0.1,4.8,1.6,5,4.7c0.2,4.1-0.9,8-2.4,11.8c-1.7,4.3-4,8.3-6.7,12c-0.5,0.7-0.9,1.7-0.9,2.6c-0.3,3.8-0.5,7.6-0.5,11.5
	c0,2,0.4,4.1,1.1,6c0.9,2.4,2.9,2.7,4.7,0.9c0.6-0.6,1.1-1.2,1.5-1.9c1.8-2.8,3.6-5.7,5.3-8.6c0.5-0.8,0.6-1.7,0.9-2.6
	c0.7-2.3,1.3-4.7,3.2-6.4c3.4-3.1,8.4-2.4,10.7,1.5c1.4,2.4,1.5,5,1.3,7.7c0,0.8-0.1,1.7-0.2,2.7c1.6-0.5,2.8-1.4,3.7-2.5
	c0.5-0.6,1-1.3,1.5-1.9c1.7-2.7,3.4-5.5,5.2-8.4c-1-0.3-1.9-0.5-2.8-0.8c-2.6-0.8-3.8-2.9-3.1-5.5c0.7-2.6,2.3-4.4,4.9-5.1
	c2.3-0.6,3.8,0.4,4.1,2.7c0.1,1,0.1,2,0.1,3.1c0,1-0.2,1.9-0.3,3.1c1,0,1.9,0,2.9,0c1.2,0,2.5-0.1,3.7,0c1.6,0.1,2.2,0.7,1.8,2.3
	c-0.4,2-1,3.9-1.4,5.9c-0.8,3.9-1.6,7.9-2.3,11.9c-0.1,0.8,0,1.6,0.2,2.4c0.5,1.5,1.5,1.7,2.6,0.6c0.6-0.6,1.1-1.3,1.6-2
	c1.8-2.9,3.6-5.7,5.4-8.7c0.4-0.7,0.4-1.5,0.5-2.3c0.4-2.3,0.8-4.7,1.3-7c0.4-1.8,1.7-2.4,4.1-2.1c1.5,0.2,2.3,1.1,2,2.8
	c-0.3,2.6-1,5.2-1.4,7.8c-0.4,2.7-0.6,5.4-0.9,8.1c0,0.4,0,0.9,0.1,1.3c0.2,1.1,0.7,2.1,1.8,2.5c1.1,0.4,2.1-0.1,2.9-0.8
	c0.4-0.4,0.8-0.9,1.1-1.4c2-3.2,4-6.4,5.9-9.7c0.8-1.3,1.2-2.8,1.8-4.2c1.6-3.4,4-6,7.9-6.5c1.9-0.3,3.8,0,5.9,0
	c0.3-1.3,0.6-2.9,1-4.5c1.1-5.5,2.9-10.8,6.1-15.4c1.4-2.1,3.4-3.9,5.4-5.6c1.4-1.2,3.1-1.3,4.8-0.5c1.7,0.8,2.2,2.3,2.2,4
	c0,3.4-1.2,6.5-2.5,9.5c-2.2,4.9-4.7,9.6-8.3,13.7c-2.1,2.4-3.2,5.1-3.3,8.3c-0.2,4.9-0.7,9.7-0.9,14.6c-0.1,1.2,0,2.4,0.3,3.5
	c0.1,0.6,0.7,1.4,1.3,1.6c0.4,0.1,1.3-0.6,1.6-1.1c2-3.2,3.9-6.5,5.8-9.8c0.4-0.6,0.7-1.2,1.1-1.9c1.7-2.8,3.4-5.5,3.9-8.9
	c0.3-2.4,1.4-4.5,3-6.4c2.2-2.6,7.1-3.5,9.3,1C238.1,257.8,238.5,258.9,239.1,260.2z M197.9,277.6c3.8-4.4,6.9-8.8,8-14.3
	c0.3-1.6,0.3-3.4,0.2-5.1c0-1-0.6-2-1.7-2.3c-1.1-0.4-1.9,0.2-2.6,1c-0.5,0.6-1,1.3-1.3,2c-2.2,4.7-3.3,9.6-3.3,14.8
	C197.3,274.9,197.6,276.1,197.9,277.6z M237.1,262.5c0-2.1-0.4-3.8-1.3-4.9c-1.3-1.7-2.4-1.6-3.3,0.3c-0.4,0.8-0.7,1.6-0.8,2.4
	c-0.5,2.9-1,5.9-1.3,8.8c-0.2,2-0.1,4.1,0.1,6.2c0,0.5,0.7,1.1,1.1,1.6c0.4-0.4,1-0.6,1.3-1.1C235.3,271.7,236.8,267.3,237.1,262.5z
	 M213.6,253.4c0.1,0.1,0.3,0.1,0.4,0.2c0.4-0.4,0.7-0.8,1.1-1.2c3.8-4.6,6.4-9.8,8.1-15.5c0.5-1.7,0.7-3.4,1-5.1
	c0.1-0.4-0.3-0.9-0.5-1.3c-0.4,0.2-1,0.3-1.3,0.6c-0.8,1.1-1.6,2.1-2.1,3.3c-1.5,3.3-3,6.6-4.2,10
	C215,247.3,214.4,250.4,213.6,253.4z M124.1,229.6c-4.1,7.1-4.4,15-5.7,22.7c1.3-1.7,2.5-3.4,3.4-5.3c2.1-4.4,3.7-8.9,3.7-13.9
	C125.5,231.9,125.4,230.8,124.1,229.6z M136.7,267.3c-0.1,0.3-0.3,0.8-0.4,1.2c-0.7,3-0.3,5.8,0.9,8.6c0.8,1.9,2.3,2.2,3.8,0.7
	c1.9-1.9,2.5-4.2,2.9-6.5C141.4,269.9,139.1,268.6,136.7,267.3z M144.3,268.8c0-2.3,0.2-4.5-0.1-6.7c-0.1-1.1-0.8-2.2-1.5-3.1
	c-1.1-1.3-2.7-1-3.6,0.5C136.9,263.3,139.2,267.9,144.3,268.8z M156.7,252.8c0.7-2.2,1-4.1-0.1-6.2
	C155.5,248.8,155.5,250.7,156.7,252.8z"/>
<path d="M87.8,256.2c4,0,7.8,0,11.6,0c0.6,0,1.3-0.1,1.9,0.1c0.4,0.1,0.7,0.6,1.1,0.9c-0.3,0.3-0.7,0.8-1,0.8
	c-2.1,0.2-4.2,0.4-6.3,0.5c-2.4,0.1-4.8,0-7.4,0c-0.2,2-0.4,3.9-0.6,5.7c-0.9,6.5-1.6,13.1-2.9,19.5c-1,5.2-4.4,9-9.1,11.3
	c-7.5,3.8-15.6,0-17.9-8.2c-1.3-4.8,0.7-10.3,4.7-12.7c1.5-0.9,2.5-1,3.6-0.3c-0.7,0.6-1.3,1.2-1.9,1.8c-2.3,2-3.7,4.4-3.8,7.5
	c-0.1,4,1.4,7.3,4.6,9.7c3.3,2.4,7.4,1.7,10.5-1.6c3.5-3.7,5.1-8.2,5.6-13.1c0.8-8,1.5-16.1,2.3-24.1c0.7-7,1.5-14,4.1-21
	c-2,0-3.8-0.1-5.7,0c-3.1,0.1-6.1,0.2-9.1,0.7c-4.4,0.7-7.6,5.1-7.4,9.5c0.1,1.6,0.7,2.8,2.3,3.4c1.5,0.5,2.9,0.2,3.9-1.3
	c0.9-1.3,1.5-2.8,2.2-4.3c0.4-0.9,0.8-1.7,1.9-1.8c1.9-0.1,2.9,0.8,2.6,2.8c-0.5,2.9-2.2,4.9-4.9,5.8c-1.8,0.6-3.8,0.8-5.6,0.6
	c-4.3-0.4-6.4-3.8-5.4-8c1.2-5.1,4.8-7.8,9.6-9.1c3.2-0.8,6.6-1.3,9.9-1.3c10.9-0.1,21.8,0.2,32.8,0.3c0.5,0,1.3,0.5,1.4,0.9
	c0.2,0.9-0.6,1.1-1.3,1.2c-3.4,0.2-6.9,0.3-10.3,0.4c-3.6,0.1-7.1,0.1-10.7,0.1c-0.7,0-1.1,0.2-1.3,0.9
	C89.7,241.2,88.5,248.6,87.8,256.2z"/>
<path d="M182.7,244.9c0,1.3-1.1,2.3-2.5,2.2c-1.2,0-2.1-0.9-2-2c0.1-1.3,1.2-2.3,2.4-2.3C181.8,242.9,182.7,243.8,182.7,244.9z"/>
</svg>
