<?xml version="1.0" encoding="utf-8"?>
<!-- Generator: Adobe Illustrator 22.0.1, SVG Export Plug-In . SVG Version: 6.00 Build 0)  -->
<svg version="1.1" id="Layer_1" xmlns="http://www.w3.org/2000/svg" xmlns:xlink="http://www.w3.org/1999/xlink" x="0px" y="0px"
	 viewBox="0 0 500 500" style="enable-background:new 0 0 500 500;" xml:space="preserve">
<path d="M79.1,29.4c4.4-1.5,8.7-2.8,12.9-4.4c7.2-2.7,14.8-3.6,22.2-5c15.8-3,31.7-5.8,47.5-8.7c4.6-0.8,9.1-1.4,13.7-1.4
	c25.4,0.1,50.8,0,76.2,0c0.5,0,1,0,1.6,0c0,0.6,0,1,0,1.5c0,7.7,0,15.5,0,23.2c0,0.6,0.3,1.4,0.8,1.8c3.8,3.8,7.6,7.6,11.4,11.4
	c0.4,0.4,1.2,0.7,1.8,0.7c5.7,0.1,11.4,0,17.1,0c0.8,0,1.4,0.2,1.9,0.9C296.7,62,307,74.5,317.4,86.8c1.9,2.2,4.3,4,6.6,5.9
	c29.9,25.9,59.8,51.8,89.6,77.7c0.6,0.5,1.1,1.3,1.3,2c1.9,5.7,3.8,11.4,5.7,17c0.2,0.7,0.6,1.4,1.1,1.9
	c5.9,5.9,11.8,11.9,17.7,17.8c0.5,0.5,1,1,1.3,1.6c3.9,5.8,7.8,11.7,11.7,17.5c0.5,0.7,0.6,1.3,0.3,2.2c-1.9,5.7-3.8,11.4-5.8,17.1
	c-0.2,0.7-0.6,1.4-1,2c-3.8,5.8-7.7,11.5-11.5,17.3c-0.5,0.7-0.8,1.7-0.8,2.5c0,26.9,0,53.8,0,80.7c0,0.5,0,1.1,0,1.7
	c-12.9,0-25.8,0-38.7,0c-2.2,10.8-4.3,21.5-6.5,32.3c-0.6,0-1,0-1.5,0c-18.2,0-36.5-0.1-54.7,0c-7.9,0.1-15.7,0.6-23.6,0.9
	c-17.3,0.7-34.5,1.5-51.8,2.2c-17.3,0.8-34.5,1.5-51.8,2.3c-7.3,0.3-14.6,0.6-21.9,1c-0.8,0-1.4-0.1-2-0.7
	c-5.9-5.9-11.8-11.8-17.7-17.8c-0.4-0.4-0.8-1.1-0.9-1.7c-3.6-19.7-7.2-39.4-10.8-59.2c-0.6-3.2-1.2-6.5-1.7-9.7
	c-0.1-0.8-0.1-1.7,0.2-2.5c4-12.1,8-24.1,12-36.2c0.2-0.7,0.2-1.7-0.1-2.3c-16.9-40.2-33.9-80.4-50.7-120.6c-1.9-4.5-3-9.4-4.4-14.2
	c-9.3-31.7-18.6-63.3-27.9-95C79.4,30.3,79.3,29.9,79.1,29.4z"/>
<path d="M244.9,420c1.1-2.1,2.1-4,3.2-5.9c1.2-2.3,3.8-2.9,6-1.5c0.9,0.6,1.2,1.4,1,2.4c-0.4,2.8-0.9,5.5-1.4,8.2
	c-0.8,4.4-1.7,8.8-1.4,13.4c0.1,1,0,2.3,1.2,2.7c1.2,0.4,1.7-0.8,2.2-1.6c2.5-3.8,4.9-7.7,7.3-11.6c0.5-0.8,1-1.7,1.6-2.5
	c0.5-0.7,1.1-1.1,1.9-0.6c0.8,0.5,0.5,1.3,0.1,1.9c-2.9,4.6-5.8,9.3-8.7,13.8c-0.6,0.9-1.4,1.7-2.2,2.4c-3.9,3.4-9.1,1.8-10.5-3.2
	c-0.2-0.9-0.3-1.9-0.3-2.8c0-2,0-4-0.2-6.1c-0.3,0.6-0.7,1.2-1,1.9c-1.3,2.6-2.5,5.2-3.8,7.7c-1.3,2.6-3.4,3.8-6.2,3.7
	c-2.8-0.1-4.8-1.6-5.7-4.2c-0.6-1.9-0.9-3.9-1.3-5.9c-0.4,0.6-0.8,1.3-1.3,2c-1.6,2.3-3.1,4.7-4.9,6.7c-3.7,4-10.2,2.4-11.8-2.9
	c-0.7-2.2-0.8-4.5-1.3-6.9c-0.3,0.4-0.5,0.8-0.8,1.2c-2.7,3.8-5.5,7.5-8.2,11.3c-0.4,0.6-0.6,1.4-0.7,2.1c-0.5,4.8-0.8,9.5-1.3,14.3
	c-0.6,5.6-1.6,11.1-3.7,16.4c-1.9,4.9-5.1,8.6-10.1,10.7c-8.5,3.5-15.3-1.8-14.1-10.9c0.9-7.2,4.3-13.2,9.1-18.4
	c3.6-3.9,7.5-7.5,11.3-11.1c1.5-1.4,2.2-2.8,2.2-4.9c0-5.2,0.3-10.5,0.5-15.9c-0.3,0.4-0.5,0.7-0.6,0.9c-2.4,4.1-4.7,8.2-7.1,12.2
	c-1.3,2.2-3,3.6-5.7,3.5c-3.3-0.1-6.4-3.1-6.5-6.4c0-1.2,0-2.3-0.2-3.6c-0.4,0.6-0.7,1.2-1.1,1.8c-1.3,1.9-2.6,4-4.1,5.8
	c-2.9,3.4-6.7,3.5-9.6,0.5c-1.5-1.6-1.9-3.6-1.9-5.7c0.1-5.5,1.2-10.9,2.7-16.2c0.4-1.3,0.7-2.6,1.1-3.9c-0.1-0.1-0.2-0.1-0.3-0.1
	c-2.4-0.6-3.9,0.2-5.1,2.5c-1.6,3.2-3.7,6.1-5.7,9.1c-1.8,2.7-4.1,5-7.4,5.8c-0.3,0.1-0.6,0.6-0.7,1c-0.7,1.9-1.2,3.8-2.1,5.6
	c-1.6,3.1-4,5.1-7.7,4.8c-3.7-0.3-6.5-2.1-7.7-5.7c-0.7-2-0.9-4.1-1.3-6.2c-0.6,0.9-1.1,1.9-1.8,2.8c-1.4,2-2.7,4.1-4.4,5.9
	c-4.2,4.3-11.5,4.4-15.3,0.4c-2-2.1-2.6-4.7-2.9-7.4c-0.2-1.4-0.2-2.8-0.3-4.3c-0.2,0.2-0.4,0.3-0.6,0.4c-2.6,1.8-5.1,3.7-7.8,5.4
	c-0.8,0.5-1.2,1.1-1.3,2c-0.7,5.8-1.3,11.7-2.1,17.5c-1,7.5-2.5,14.9-6,21.6c-2.7,5.2-6.5,9.4-11.6,12.2c-3.7,2-7.6,2.6-11.7,1.3
	c-5-1.6-7.9-6.1-8.1-12c-0.2-5.6,1.6-10.5,4.7-15.1c4.9-7.3,11.2-13.3,17.9-18.8c3.4-2.7,6.9-5.3,10.3-8.1c0.4-0.3,0.8-1,0.8-1.5
	c0.8-10.6,1.6-21.2,2.4-31.7c0-0.5,0-1-0.1-1.5c-0.1,0-0.2,0-0.3,0c-1.1,2.8-2.2,5.6-3.3,8.5c-2.8,6.9-5.6,13.9-8.5,20.8
	c-1.2,2.8-2.9,5.4-5.1,7.5c-2.6,2.4-5,2.7-7.7,1c-1.3-0.8-2.1-2-2.4-3.4c-0.6-3.2-1.3-6.5-1.5-9.7c-0.9-12.4,2.2-23.8,8.7-34.4
	c2-3.3,4.6-5.7,8.6-6.6c4.1-0.9,7.8,0.8,9.6,4.5c0.8,1.5,1.3,3.1,2.1,5c0.4-1.8,0.7-3.4,1-5c0.1-0.5,0.2-1,0.3-1.5
	c0.5-2.4,2.3-3.4,4.6-2.2c0.9,0.5,1.1,1.3,1,2.2c-0.4,5.2-0.8,10.5-1.2,15.7c-0.6,7.6-1.1,15.2-1.7,22.8c-0.2,2.1-0.3,4.2-0.5,6.4
	c3-1.2,5.4-3,7.6-5.2c1.6-1.6,2.7-3.3,3.4-5.5c1.6-5.5,5.2-9.2,11-10.4c3.9-0.8,6.5,1.7,5.8,5.6c-0.6,3.8-2.7,6.7-5.8,9
	c-1.3,1-2.8,1.8-4.2,2.7c-0.3,0.2-0.8,0.5-0.9,0.8c-1.1,3.4-1,6.7,1.2,9.6c1.4,2,3.4,2.5,5.8,1.3c1.4-0.7,2.9-1.7,3.8-3
	c2.7-3.8,5.1-7.7,7.5-11.7c0.6-1.1,0.7-2.5,1.1-3.7c0.4-1.1,0.7-2.3,1.3-3.4c1.8-3.6,5.3-5.7,8.7-5.2c3.9,0.6,6.7,3.5,7.2,7.7
	c0.3,2.1,0.1,4.3,0.1,6.5c0,0.6-0.1,1.2-0.2,2.3c1.3-0.8,2.3-1.3,3.2-2c0.7-0.6,1.4-1.3,2-2.1c0.4-0.5,0.8-1,1.1-1.5
	c2-3.2,4-6.3,6.1-9.6c-1.1-0.3-2.1-0.6-3.1-0.9c-3.3-1-4.6-3.5-3.7-6.8c0.9-3,3.6-5.5,6.4-5.7c2.4-0.2,3.8,0.7,4,3.1
	c0.2,2,0,4.1-0.1,6.1c0,0.4-0.1,0.8-0.2,1.4c1.9,0,3.6,0,5.4,0c0.9,0,1.8,0,2.6,0c1.7,0.2,2.3,0.9,2,2.6c-0.2,1.1-0.5,2.2-0.8,3.3
	c-1.2,4.8-2.4,9.6-3.5,14.4c-0.3,1.4-0.3,2.8-0.4,4.2c0,0.4-0.1,0.8,0.1,1.1c0.4,0.8,0.8,1.8,1.5,2.1c0.5,0.2,1.7-0.5,2.1-1.1
	c2.6-3.7,5.1-7.5,7.5-11.4c0.6-0.9,0.6-2.2,0.8-3.4c0.7-2.8,1.7-5.6,3.6-7.9c1.1-1.4,2.5-2.5,4.3-3.1c3.5-1.1,6.5-0.2,8.5,2.9
	c0.8,1.2,1.5,2.6,2.3,4.1c0.2-0.4,0.3-0.8,0.5-1.1c0.6-1.3,1.2-2.6,1.8-3.8c0.7-1.2,1.7-1.7,3.1-1.6c1.8,0.1,2.6,0.9,2.5,2.7
	c-0.2,5-0.6,10.1-0.9,15.1c-0.2,2.9-0.4,5.9-0.7,9.2c0.4-0.5,0.7-0.8,0.9-1.1c2.8-4.1,5.6-8.1,8.2-12.2c0.7-1.2,0.9-2.7,1.2-4.1
	c0.5-2.3,0.9-4.7,1.4-7c0.5-2.2,2.2-3,5-2.5c1.7,0.3,2.6,1.5,2.2,3.7c-0.7,3.9-1.5,7.8-2.2,11.7c-0.4,2.3-0.5,4.7-0.6,7.1
	c0,0.7,0.1,1.4,0.4,2.1c0.8,2,2.6,2.6,4.4,1.4c0.8-0.5,1.5-1.3,2-2.1c2.1-3.2,4.1-6.4,6.1-9.7c0.5-0.9,0.5-2,0.8-3
	c0.9-2.5,1.6-5.1,2.8-7.4c0.7-1.3,1.9-2.6,3.2-3.4c3-2.1,6.8-1.2,8.6,1.9C243.5,416.6,244.1,418.3,244.9,420z M80.1,438.7
	c-0.3,0.1-0.3,0.1-0.4,0.1c-7.6,6.1-15.1,12.5-21.4,19.9c-3.1,3.7-5.7,7.8-7,12.5c-1.2,4.6-0.9,9.1,1.4,13.3c1.7,3,4.3,4,7.5,2.9
	c3.9-1.3,6.9-3.8,9.2-7.1c2.4-3.5,4.2-7.3,5.5-11.3c2.3-6.9,3.4-14.1,4.2-21.2C79.5,444.8,79.8,441.8,80.1,438.7z M59.7,424
	c0.2,1.6,0.3,3.8,0.6,5.9c0.2,1.6,0.5,3.1,1,4.6c0.6,1.7,2,1.9,3.2,0.6c0.5-0.6,1-1.2,1.3-1.9c5.5-10.4,10-21.3,13.7-32.5
	c0.4-1.3,0.6-2.9,0.3-4.2c-0.6-2.7-1.5-5.4-2.5-7.9c-1.4-3.2-4.1-3.6-6.4-0.9c-1.5,1.7-2.7,3.7-3.9,5.6
	C61.9,402.6,60.3,412.9,59.7,424z M191.3,448.2c-0.5,0.4-0.8,0.6-1.2,0.9c-2.2,2-4.5,4-6.5,6.2c-4.1,4.4-7.7,9.1-9.8,14.9
	c-1.3,3.7-1.9,7.4-0.6,11.2c1.3,3.9,4.5,5,8,3c0.7-0.4,1.3-0.9,1.9-1.4c1.9-1.8,3.1-4.1,3.7-6.6c1-4.4,1.9-8.8,2.6-13.2
	C190.2,458.3,190.7,453.3,191.3,448.2z M180.9,439.1c0.3-0.5,0.6-0.9,0.8-1.3c2.2-3.8,4.4-7.6,6.6-11.5c2.2-3.8,1.1-8.6-2.4-11.2
	c-0.6-0.4-1.1-0.5-1.5,0.1c-0.9,1.1-1.9,2.1-2.5,3.3c-2.3,4.6-3.2,9.5-3,14.6C179,435.2,179.3,437.3,180.9,439.1z M234,433.9
	c0.1,0,0.2,0,0.2,0.1c0.1,1.2,0.1,2.3,0.4,3.5c0.2,0.7,0.8,1.3,1.2,2c0.6-0.5,1.3-0.9,1.7-1.5c2.7-4.5,4.5-9.4,5-14.7
	c0.2-2.5-0.1-4.9-1.9-6.9c-1.2-1.3-2.3-1.3-3.2,0.3c-0.5,0.9-0.9,1.8-1.1,2.8C235.5,424.2,234.8,429.1,234,433.9z M129,427.5
	c0,0-0.1,0.1-0.2,0.2c-1.4,4.1-0.9,8.1,1.1,12c0.7,1.4,2.2,1.6,3.4,0.6c2.7-2.2,3.5-5.3,4-8.1C134.4,430.5,131.8,429,129,427.5z
	 M137.9,429.3c0.1-2.6,0.2-5.1,0.2-7.5c-0.1-1.5-0.7-3-1.9-4.1c-1.5-1.4-3-1.2-4.1,0.5C129.1,422.6,131.8,428.2,137.9,429.3z
	 M104.2,425.6c2.1-1.3,3.8-2.6,5.1-4.4c1.3-1.8,2.1-3.7,1.6-6c-0.1-0.5-0.5-1-0.7-1.5c-0.5,0.3-1.1,0.5-1.5,0.9
	c-2.2,2.7-3.5,5.8-4.3,9.2C104.3,424.3,104.3,424.8,104.2,425.6z M152.6,410.8c0.9-2.6,1.1-4.9,0-7.5
	C151.3,405.8,151.2,408.1,152.6,410.8z"/>
<path d="M218.1,401.6c-0.1,1.4-1.4,2.6-2.9,2.6c-1.4,0-2.5-1.1-2.4-2.4c0.1-1.5,1.4-2.7,2.9-2.6
	C217.2,399.2,218.2,400.3,218.1,401.6z"/>
</svg>
