<?xml version="1.0" encoding="utf-8"?>
<!-- Generator: Adobe Illustrator 22.0.1, SVG Export Plug-In . SVG Version: 6.00 Build 0)  -->
<svg version="1.1" id="Layer_1" xmlns="http://www.w3.org/2000/svg" xmlns:xlink="http://www.w3.org/1999/xlink" x="0px" y="0px"
	 viewBox="0 0 500 500" style="enable-background:new 0 0 500 500;" xml:space="preserve">
<path d="M403.1,448.7c-5-1.7-9.9-3.1-14.7-4.9c-5.5-2.1-11-2.8-16.9-2.8c-103.7,0.1-207.4,0.1-311.1,0.1c-1.4,0-1.9-0.3-2.2-1.8
	c-4.8-24.5-9.8-49-14.7-73.5c-2.6-12.9-5-25.9-7.8-38.7c-0.9-3.9-2.6-7.7-4-11.5c-8.8-24.2-17.6-48.3-26.4-72.5
	c-0.2-0.6-0.3-1.3-0.3-2c0-32.4,0-64.8,0-97.2c0-0.4,0-0.8,0-1.4c2.6-0.1,5.2-0.2,7.8-0.3c15.8-0.5,31.6-1.1,47.4-1.6
	c11.5-0.4,22.9-0.8,34.4-1.2c15.7-0.5,31.3-1.1,47-1.6c11.5-0.4,23-0.8,34.5-1.2c15.7-0.5,31.3-1.1,47-1.7
	c16.7-0.6,33.5-1.4,50.2-2.1c13.7-0.6,27.3-1.2,41-1.8c14.8-0.7,29.6-1.3,44.4-2c14.2-0.6,28.4-1.2,42.7-1.8c0.5,0,1,0,1.7,0
	c0,0.5,0,1,0,1.5c0,19.4,0,38.9,0,58.3c0,1,0.3,1.7,1,2.4c4.5,4.4,8.9,8.9,13.4,13.3c0.7,0.6,1.4,1.2,2.2,1.7
	c12,7.2,24,14.4,36.1,21.7c0.6,0.4,1.2,0.8,1.6,1.4c12.2,14.6,24.3,29.2,36.5,43.8c0.7,0.9,1.1,1.7,1.1,2.8c-0.1,4.3,0,8.5-0.1,12.8
	c0,0.7-0.2,1.4-0.5,2c-7.3,12.1-14.5,24.3-21.8,36.4c-0.4,0.6-0.9,1.1-1.5,1.5c-12.1,7.3-24.2,14.5-36.3,21.8
	c-0.7,0.4-1.3,1.1-1.6,1.8c-2.4,4.6-4.7,9.2-7.1,14c5.1,2.6,10.2,5.1,15.3,7.7c-1.9,5.6-3.9,11.1-5.5,16.6c-1.3,4.5-3.5,8.4-6.4,12
	c-6.2,8-12.1,16.1-18.2,24.2c-0.4,0.5-0.7,1.2-0.9,1.8c-2.4,7.1-4.7,14.2-7.1,21.2C403.3,448.2,403.2,448.4,403.1,448.7z"/>
<path d="M196.9,113.9c0.4-0.6,0.8-1.1,1.1-1.7c1.6-4.2,3.2-8.5,4.8-12.8c1-2.7,1.9-5.4,2.9-8.1c-0.4-0.4-0.8-0.7-1.1-1
	c-3.1-3-3.5-7.7-0.9-11.1c0.3-0.4,0.6-0.7,1-1c1.2-0.9,2.6-1.5,4-0.9c1.4,0.6,1.8,2.1,1.6,3.5c-0.4,2.7-0.9,5.3-1.5,8
	c-0.3,1.1-0.1,1.5,1.1,1.7c2.7,0.3,5.4-1.4,6-4.1c0.7-3.1,1.6-6.1,4-8.4c2.8-2.8,6.9-2.2,8.8,1.3c0.6,1.1,1,2.3,1.6,3.6
	c0.2-0.3,0.4-0.5,0.6-0.8c0.7-1.3,1.5-2.7,2.2-4c1.1-2,3.2-2.5,5.1-1.4c0.9,0.5,1.1,1.4,0.9,2.3c-0.6,3.3-1.2,6.6-1.7,9.9
	c-0.4,2.7-0.6,5.5-0.6,8.2c0,0.8,0.7,1.6,1,2.4c0.6-0.5,1.5-0.9,1.9-1.5c2.4-3.7,4.8-7.5,7.1-11.3c0.2-0.4,0.4-0.8,0.7-1
	c0.4-0.2,1-0.4,1.3-0.2c0.3,0.2,0.3,0.8,0.3,1.3c0,0.2-0.2,0.4-0.3,0.5c-2.1,3.4-4.2,6.8-6.3,10.2c-0.8,1.2-1.7,2.4-2.7,3.4
	c-1.5,1.5-3.4,2.2-5.5,1.4c-2.2-0.9-3.5-2.6-3.7-4.9c-0.2-2.2,0-4.4-0.3-6.7c-0.3,0.6-0.7,1.3-1,1.9c-1,2.1-2.1,4.3-3.1,6.4
	c-1.1,2.2-2.9,3.2-5.3,3c-2.3-0.1-4-1.3-4.8-3.4c-0.5-1.4-0.7-2.9-0.9-4.3c-0.1-1,0-2,0-3.2c-2.3,1.4-4.7,2.1-7.4,1.2
	c-1.3,3.5-2.5,6.9-3.8,10.3c-1.1,3.1-2.2,6.2-3.4,9.2c-0.6,1.5-1.3,2.9-2.2,4.3c-1.4,2.1-4.1,2.3-5.9,0.4c-1.3-1.3-1.9-3-2-4.8
	c-0.5-5,0-10,0.7-15c0.5-4.2,1.1-8.3,1.4-12.6c-0.4,1-0.9,2-1.3,3.1c-1.3,3.7-2.6,7.4-3.9,11c-0.3,0.9-0.8,1.7-1.3,2.4
	c-2.5,2.9-6.2,2.2-7.4-1.3c-0.5-1.4-0.5-3-0.6-4.5c-0.1-1,0.1-2,0.2-2.9c-1.2,0.5-2.4,1-3.6,1.6c-0.3,0.2-0.5,0.6-0.7,1
	c-0.5,1.3-0.8,2.7-1.4,4c-1.5,3.4-4.2,5.2-7,4.9c-3.7-0.4-6.4-2.8-7-6.5c-1-5.4,0.1-10.5,2.5-15.3c1.5-3.2,4.8-4.6,8-3.9
	c2.9,0.6,5.3,3.6,5.5,7c0.1,2.2,0,4.4,0,6.6c2.5-0.7,4-2.3,4.4-4.8c0.4-2.2,0.7-4.4,1.3-6.6c0.5-1.9,2.2-3,4.1-2.6
	c1.7,0.4,2.3,1.3,2.1,3c-0.6,4.8-1.3,9.6-1.8,14.4c-0.2,1.3,0,2.7,0,4c0.1,0,0.3,0.1,0.4,0.1c0.3-0.8,0.7-1.5,1-2.3
	c1.8-4.7,3.6-9.4,5.4-14.2c0.3-0.7,0.6-1.4,1-2.1c1-1.9,2.6-2.6,4.7-2c1.6,0.4,2.4,1.4,2.2,3.1c-0.7,7-1.4,14-2.1,21.1
	c-0.3,3.4-0.5,6.8-0.7,10.2c0,0.5,0.2,0.9,0.3,1.4C196.6,113.9,196.8,113.9,196.9,113.9z M220.8,94.6c0.2,1.6,0.3,2.9,0.7,4.2
	c0.3,1.1,1.2,1.3,1.8,0.3c3-4.7,5-9.8,4.6-15.4c-0.1-1.3-0.8-2.6-1.5-3.7c-0.9-1.3-1.9-1.1-2.7,0.2c-0.5,0.8-0.9,1.8-1,2.7
	C222,86.9,221.4,90.9,220.8,94.6z M164.6,89.5c0,0.1-0.2,0.2-0.2,0.3c-1.1,3.4-0.7,6.7,0.8,9.9c0.7,1.4,1.9,1.6,3.2,0.6
	c2.2-1.8,2.9-4.4,3.3-6.8C169.2,92.1,167,90.8,164.6,89.5z M171.9,91c0.5-2.7,0.9-5.4,0-8c-0.2-0.6-0.6-1.2-1-1.7
	c-1.3-1.4-2.8-1.3-3.7,0.4C165.3,84.8,166,89.5,171.9,91z M206.6,88.3c1.3-3,1.7-5.9,1.2-9C205.6,81.4,205,85.8,206.6,88.3z"/>
<path d="M148.6,57.7c-0.5,0.4-0.9,0.7-1.2,1c-2.7,2.4-5.5,4.7-8.2,7.1c-2.8,2.5-4.6,5.5-4,9.4c0.2,1.1-0.5,1.5-1.4,1.6
	c-1,0.1-1.2-0.5-1.3-1.3c-0.3-2.8,0.3-5.4,2-7.4c2-2.4,4.4-4.5,6.7-6.6c1.9-1.7,3.9-3.3,5.7-5.1c1.1-1.1,1.7-2.6,2.6-3.8
	c0.3-0.4,0.8-0.9,1.3-1.1c0.6-0.2,1.2-0.2,1.9-0.2c2.4,0,3.1,0.7,3,3.1c-0.3,12-0.5,24-1,35.9c-0.3,7-1.3,13.8-4.6,20.1
	c-2.2,4.2-5.2,7.3-10,8.3c-5.6,1.2-11.3-1.8-12.7-6.7c-0.9-3.2,0-6.2,1.4-9c2-3.8,5.1-6.6,8.7-8.7c0.3-0.2,0.8-0.3,1.2-0.3
	c0.6,0,0.9,0.4,0.5,0.9c-0.3,0.4-0.7,0.8-1.1,1.2c-2.7,2.3-5.1,4.7-6.7,7.9c-1.5,3.2-1.8,6.5-0.2,9.8c1.6,3.2,4.8,4,7.8,2
	c2.8-1.9,4.8-4.4,6-7.5c2.2-5.8,3.1-11.8,3.2-18c0.2-10.7,0.3-21.4,0.4-32.1C148.7,58.2,148.7,58,148.6,57.7z"/>
</svg>
