<?xml version="1.0" encoding="utf-8"?>
<!-- Generator: Adobe Illustrator 22.0.1, SVG Export Plug-In . SVG Version: 6.00 Build 0)  -->
<svg version="1.1" id="Layer_1" xmlns="http://www.w3.org/2000/svg" xmlns:xlink="http://www.w3.org/1999/xlink" x="0px" y="0px"
	 viewBox="0 0 500 500" style="enable-background:new 0 0 500 500;" xml:space="preserve">
<path d="M74.3,431.2c1.1-4.8,2.1-9.6,3.2-14.3c5-22.5,10-45.1,15-67.6c1.5-6.9,2.8-13.9,4.2-20.8c0.2-0.9,0.6-1.9,1.1-2.7
	c2.5-3.9,5.1-7.7,7.6-11.6c0.3-0.5,0.4-1.2,0.3-1.7c-1.3-5.3-2.6-10.7-4-16c-0.2-0.7-0.5-1.5-1-2.1c-2.5-3.8-5.1-7.6-7.6-11.4
	c-0.3-0.4-0.5-0.8-0.8-1.2c2.5-2.8,5-5.5,7.5-8.2c13.8-15,27.6-30.1,41.3-45.1c0.6-0.7,1.1-1.6,1.2-2.5c1.4-6.7,2.7-13.4,4-20.1
	c0.1-0.6-0.1-1.4-0.5-1.9c-4-5.4-8-10.7-12-16c-0.7-0.9-0.8-1.6-0.6-2.7c6-23.1,11.9-46.2,17.8-69.2c6.8-26.6,13.6-53.1,20.4-79.7
	c2.1-8.4,4.3-16.8,6.4-25.1c0.1-0.4,0.2-0.7,0.3-1.2c12.1,3,24.1,6,36.2,9.1c-0.4,2.5-0.8,5-1.2,7.4c-1,6.3-2.1,12.6-3.2,18.8
	c-0.1,0.6-0.5,1.3-0.9,1.7c-2.5,2.6-5.1,5.1-7.6,7.6c-0.4,0.4-0.7,1.1-0.7,1.7c0,10-0.1,20,0,30c0.1,3.6,0.8,7.2,1.2,10.8
	c1,8.3,2.1,16.7,3.1,25c0.1,0.8,0.4,1.2,1.1,1.6c5.4,2.7,10.7,5.4,16.1,8c0.8,0.4,1.1,0.9,1.1,1.8c0,8.2,0,16.5,0,24.7
	c0,0.8,0.3,1.3,1,1.8c8.4,5.5,16.7,11.1,25.1,16.7c0.3,0.2,0.7,0.5,1.1,0.8c-0.2,0.4-0.4,0.8-0.6,1.2c-5.6,11.2-11.3,22.4-16.7,33.6
	c-1.1,2.2-1.5,4.8-2,7.3c-1.1,5.3-2.1,10.6-3.2,15.9c-0.1,0.4-0.1,1,0.1,1.3c2.8,4.2,5.6,8.5,8.4,12.7c0,0.1,0.1,0.1,0.3,0.2
	c1.2-2.5,2.5-4.9,3.7-7.5c0.5-1,1-1.4,2.2-1.3c3.6,0.1,7.2,0,10.7,0c0.5,0,0.9,0,1.4,0c0.5,3.5,1.1,7,1.6,10.4
	c1.8,11.6,3.6,23.3,5.4,34.9c0.6,4.1,1.3,8.1,1.9,12.2c0.1,0.9,0.4,1.4,1.2,1.8c2.3,1.1,4.6,2.3,6.9,3.4c0.8,0.4,1.3,1,1.6,1.8
	c2.7,6.8,5.4,13.5,8.1,20.3c0.3,0.9,0.8,1.2,1.7,1.2c17.4,0,34.7,0,52.1,0c0.6,0,1.3-0.1,1.9-0.3c3.9-1.3,7.8-2.6,11.7-3.9
	c0.5-0.2,1.2-0.2,1.7,0c4,1.3,7.9,2.6,11.8,3.9c0.8,0.3,1,0.6,0.8,1.4c-4.5,23.2-9.1,46.4-13.6,69.6c-4.5,22.9-8.9,45.8-13.3,68.7
	c-1.5,7.7-3,15.4-4.5,23c0,0.2-0.1,0.3-0.2,0.6c-0.5-0.1-1.1-0.2-1.6-0.3c-19.6-4.2-39.2-8.4-58.8-12.6
	c-21.9-4.7-43.8-9.3-65.6-14.1c-11.3-2.5-22.6-5.4-33.9-8.1c-29.2-7-58.5-14.1-87.7-21.2C81.4,432.9,77.9,432.1,74.3,431.2z"/>
<path d="M360.8,201.4c0.9-1.7,1.8-3.3,2.6-4.8c1-1.9,3.1-2.4,5-1.3c1,0.7,1,1.7,0.8,2.7c-0.5,2.8-1.1,5.6-1.5,8.5
	c-0.4,2.8-0.7,5.5-0.8,8.3c0,0.9,0.4,2.4,1,2.7c1.1,0.5,1.6-0.9,2.1-1.6c1.8-2.8,3.6-5.5,5.1-8.4c0.6-1.2,0.5-2.9,0.6-4.4
	c0.6-7,1-14,2.8-20.8c0.7-2.9,1.7-5.7,3.6-8c1.1-1.4,2.6-2.5,4.4-2.9c4.6-0.9,7.5,2,6.6,6.6c-1.1,5.6-3.4,10.7-6.7,15.3
	c-0.9,1.3-2,2.5-2.9,3.8c-0.5,0.7-0.9,1.4-1,2.2c-0.2,1.9-0.3,3.8-0.2,5.8c0.2-0.3,0.4-0.5,0.6-0.8c1.2-1.7,2.3-3.4,3.5-5
	c1-1.3,2.3-2.2,3.9-2.5c2.3-0.3,3.8,0.6,4,2.8c0.2,2.4,0,4.9-0.4,7.3c-0.9,5.5-2,11.1-3,16.6c-0.1,0.7-0.1,1.5,0,2.3
	c0.2-0.3,0.4-0.5,0.6-0.8c3.7-6.1,7.4-12.3,11-18.4c0.8-1.3,1-2.9,1.5-4.3c0.3-0.8,0.6-1.7,1-2.4c1.6-2.8,4.4-4.3,7.1-3.8
	c3,0.5,5.4,2.8,5.8,6c0.3,2,0.1,4,0.2,6c0,0.4-0.1,0.9-0.1,1.5c1.9-0.4,3.1-1.7,4.2-3c0.5-0.6,0.8-1.4,1.4-1.9
	c0.4-0.3,1-0.3,1.6-0.5c0,0.5,0.3,1.1,0.1,1.4c-1.7,2.6-3.5,5.1-6.7,6.1c-0.4,0.1-0.8,0.6-1,1c-0.7,1.6-1.1,3.3-1.9,4.7
	c-1.3,2.5-3.3,4.1-6.3,3.8c-3-0.3-5.3-1.8-6.4-4.7c-0.6-1.5-0.7-3.2-1.1-4.8c-0.1,0.2-0.3,0.4-0.5,0.6c-2.7,4.6-5.3,9.3-8,13.9
	c-0.5,0.8-1,1.6-1.7,2.1c-2.3,1.8-4.8,1-5.7-1.7c-0.9-2.4-0.8-5-0.4-7.4c1.1-6.2,2.5-12.3,3.7-18.5c0.1-0.3,0.1-0.6,0-1.1
	c-0.5,0.5-1.1,1.1-1.5,1.6c-4.1,5-6.6,10.7-7.8,17.1c-0.3,1.7-0.8,2.2-2.3,2.2c-1.5,0-2.3-0.5-2.6-2.1c-0.2-1.3-0.1-2.6-0.1-3.9
	c0-1,0-2-0.2-3c-0.4,0.7-0.8,1.4-1.3,2c-1,1.6-1.9,3.2-3.2,4.6c-1.6,1.8-3.5,3.1-6.1,2.1c-2.5-1-3.7-3-3.8-5.7
	c-0.1-1.8,0-3.7-0.2-5.6c-0.3,0.6-0.7,1.3-1,1.9c-1,2.1-2,4.1-3,6.2c-1,2.1-2.7,3-5,2.9c-2.3-0.1-4-1.2-4.8-3.3
	c-0.6-1.5-0.8-3.2-1.2-4.8c-0.3,0.4-0.5,0.8-0.8,1.2c-2.2,3.5-4.4,7-6.6,10.5c-0.2,0.4-0.5,0.8-0.8,1.1c-2.1,2.6-4.7,2.7-7,0.2
	c-1.8-2.1-2.1-4.6-2.5-7.2c-0.2-1.4-0.3-2.8-0.6-4.4c-0.3,0.4-0.6,0.7-0.8,1c-0.9,1.3-1.8,2.6-2.8,3.8c-1.7,1.9-3.8,2.6-6.3,2
	c-2.5-0.7-3.9-2.5-4.3-5c-0.8-4.9,0.5-9.3,2.7-13.6c0.8-1.4,1.8-2.8,3.1-3.9c2.5-2.1,5.5-2.6,8.7-1.9c0.3,0.1,0.6,0.1,1,0.2
	c0.1,0,0.2,0,0.3,0c0.8-3.2,1.5-6.5,2.5-9.7c1.4-4.5,3.3-8.8,6.5-12.4c1-1.1,2.1-2,3.3-2.9c1.5-1.2,3.2-1.4,4.9-0.6
	c1.8,0.9,2.4,2.5,2.1,4.3c-0.4,2.4-0.9,4.8-1.7,7.1c-2.1,5.5-5,10.7-9,15.2c-1.9,2.2-3.1,4.6-3.2,7.6c-0.2,4.9-0.8,9.8-1.1,14.7
	c-0.1,1.2,0,2.4,0.3,3.6c0.1,0.6,0.6,1.4,1.1,1.6c0.4,0.1,1.3-0.4,1.6-0.9c3.2-5.3,6.4-10.6,9.6-15.9c0.3-0.6,0.4-1.3,0.6-2
	c0.5-2.6,1.3-5.2,2.8-7.4c1.3-2,3.1-3.2,5.6-3c1.7,0.1,3,1,3.8,2.4C359.5,198.6,360.1,200,360.8,201.4z M320.1,218
	c3.5-2.7,7.7-10.2,8.2-14.6c0.2-1.4,0.1-2.9,0-4.3c-0.1-1-0.7-1.8-1.7-2.1c-1-0.3-1.8,0.3-2.4,1c-0.6,0.8-1.2,1.6-1.6,2.5
	c-1.8,4-2.8,8.2-3,12.5C319.6,214.6,319.9,216.2,320.1,218z M351.6,213.3c0.1,0,0.1,0,0.2,0c0.1,0.9,0.1,1.9,0.4,2.8
	c0.2,0.6,0.7,1,1.1,1.5c0.4-0.4,1-0.7,1.2-1.1c2.4-3.9,3.9-8.1,4.3-12.7c0.1-2.1-0.2-4.2-1.9-5.7c-0.9-0.8-1.5-0.8-2.1,0.2
	c-0.5,0.9-1,1.9-1.2,3C352.8,205.3,352.3,209.3,351.6,213.3z M383.2,194.6c3.8-4.7,6.7-9.8,7.9-15.8c0.2-1,0.2-2.1,0.1-3.1
	c-0.1-1-0.7-2-1.8-1.9c-0.6,0-1.4,0.8-1.8,1.4C384.7,181.4,383.6,187.9,383.2,194.6z M336,194.6c0.1,0,0.2,0.1,0.3,0.1
	c0.2-0.2,0.4-0.5,0.6-0.7c4-4.6,6.7-10,8.4-15.8c0.4-1.4,0.7-2.9,0.9-4.4c0.1-0.5-0.3-1-0.5-1.6c-0.5,0.2-1.1,0.4-1.4,0.8
	c-0.6,0.6-1,1.3-1.4,2.1c-2.7,4.9-4.8,10-6.1,15.5C336.5,191.9,336.3,193.3,336,194.6z M409.2,207.5c-0.1,0.3-0.3,0.4-0.3,0.6
	c-1,3.2-0.6,6.3,0.7,9.2c0.8,1.8,2.4,1.9,3.8,0.4c1.7-1.8,2.3-4.1,2.7-6.4c-1.3-0.6-2.5-1-3.6-1.7
	C411.4,209.1,410.4,208.3,409.2,207.5z M416.3,209.2c0.2-1.5,0.4-3,0.4-4.4c0-1.8-0.2-3.7-1.5-5.1c-1.3-1.3-2.7-1.2-3.7,0.4
	C409.3,203.9,411.4,208.1,416.3,209.2z"/>
<path d="M304.3,176.7c-0.5,0.4-1,0.8-1.4,1.1c-2.4,2.1-4.8,4.2-7.3,6.3c-3,2.6-5.1,5.6-4.4,9.9c0.1,0.9-0.6,1.2-1.4,1.3
	c-0.9,0.1-1.2-0.4-1.3-1.2c-0.3-2.5,0.1-5,1.8-7c1.9-2.3,4.1-4.3,6.3-6.4c1.9-1.8,4-3.3,5.9-5.2c1.1-1.1,1.8-2.6,2.8-4
	c0.3-0.4,0.6-0.8,1-0.9c0.8-0.2,1.6-0.3,2.5-0.2c2.1,0.2,2.6,0.8,2.5,3c-0.1,4.1-0.2,8.2-0.3,12.4c-0.3,8.7-0.4,17.5-0.9,26.2
	c-0.3,5.9-1.6,11.7-4.7,16.9c-2.4,4.2-5.8,6.9-10.7,7.5c-5.2,0.6-10.3-2.7-11.2-7.6c-0.6-3.1,0.4-5.9,2-8.6c2-3.4,4.8-5.9,8.2-7.9
	c0.4-0.2,1.1-0.1,1.6-0.1c-0.2,0.5-0.2,1-0.6,1.4c-1.4,1.4-3,2.7-4.4,4.2c-2,2.2-3.3,4.7-3.8,7.6c-0.4,2.2,0,4.3,1.1,6.3
	c1.5,2.8,4.5,3.6,7.2,1.9c3-1.9,5-4.5,6.3-7.9c2.3-6.2,2.9-12.6,3-19.1c0.1-9.8,0.2-19.6,0.4-29.4
	C304.4,177.2,304.4,177,304.3,176.7z"/>
</svg>
