<?xml version="1.0" encoding="utf-8"?>
<!-- Generator: Adobe Illustrator 22.0.1, SVG Export Plug-In . SVG Version: 6.00 Build 0)  -->
<svg version="1.1" id="Layer_1" xmlns="http://www.w3.org/2000/svg" xmlns:xlink="http://www.w3.org/1999/xlink" x="0px" y="0px"
	 viewBox="0 0 500 500" style="enable-background:new 0 0 500 500;" xml:space="preserve">
<path d="M31.2,490c0-0.4,0-0.8,0-1.2c0-18.7,0-37.4,0-56.2c0-0.7,0.2-1.6,0.6-2.2c8-13.4,16.1-26.9,24.1-40.3c0.7-1.1,1-2.6,1.3-3.9
	c2.5-9.9,5-19.8,7.4-29.7c0.1-0.6,0.1-1.3-0.2-1.9c-2.4-5-4.9-9.9-7.4-14.9c-0.3-0.6-0.5-1.3-0.5-2c0-10.6,0-21.3,0-31.9
	c0-0.7,0.2-1.5,0.4-2.2c2.5-7.6,5.1-15.2,7.6-22.8c0.3-0.8,0.2-1.3-0.5-2c-2.3-2.2-4.5-4.5-6.8-6.7c-0.6-0.6-0.8-1.2-0.8-2.1
	c0-18.8,0-37.6,0-56.4c0-0.8-0.2-1.7-0.4-2.4c-2.5-7.6-5.1-15.1-7.5-22.7c-1-3.4-1.5-7-2.1-10.5c-2.2-13.3-4.5-26.6-6.7-39.9
	c-0.2-1.1-0.3-2.3-0.3-3.5c0-29.7,0-59.5,0-89.2c0-0.5,0-1.1,0-1.8c0.6,0,1.1,0,1.6,0c13.1,0,26.1,0,39.2,0c1,0,1.7-0.3,2.4-1
	c5-5,10-10.1,15-15c0.5-0.5,1.2-0.9,1.9-1.1c24.7-5.5,49.3-11,74-16.4c0.4-0.1,0.8-0.1,1.2-0.1c27.6,0,55.3,0,82.9,0
	c0.2,0,0.5,0,0.9,0c0.3,2,0.6,3.9,0.9,5.9c2.2,15.2,4.5,30.4,6.7,45.6c2,13.9,4.1,27.8,6.1,41.7c2.1,14.5,4.3,28.9,6.4,43.4
	c2,13.3,3.9,26.6,5.8,39.9c1.7,11.6,3.4,23.2,5.1,34.9c1.6,11,3.2,22,4.8,33c1.7,11.7,3.4,23.3,5.2,35c0.6,4.2,1.1,8.4,1.1,12.7
	c-0.1,11.8,0,23.7-0.1,35.5c0,0.7-0.3,1.5-0.8,1.9c-5,5.1-10.1,10.2-15.2,15.3c-0.6,0.6-1.2,0.9-2.1,0.8c-10.3,0-20.5,0-30.8,0
	c-0.5,0-1,0-1.6,0c0,0.5-0.1,1-0.1,1.4c0,4.7,0,9.4,0,14.1c0,0.8-0.3,1.6-0.7,2.3c-7.8,10.5-15.7,20.9-23.5,31.4
	c-0.6,0.9-1.1,1.9-1.4,3c-2.6,10.4-5.2,20.8-7.8,31.1c-0.1,0.4-0.4,1-0.8,1.2c-5.4,2.8-10.9,5.5-16.6,8.4c-0.2-0.3-0.4-0.8-0.7-1.1
	c-5-5.1-10.1-10.1-15.1-15.1c-0.5-0.5-1.3-0.8-1.9-0.8c-4.8-0.1-9.5,0-14.3,0c-0.4,0-0.8,0-1.3,0.1c0,0.6,0,1.1,0,1.6
	c0,7.5,0,15,0,22.5c0,0.9-0.3,1.2-1.2,1.4c-16.3,2.7-32.5,5.5-48.8,8.1c-6.1,1-12.2,1.4-18.4,2.1c-8.6,1-17.2,1.9-25.8,2.9
	c-7.9,0.9-15.8,1.8-23.7,2.6c-2.5,0.3-5,0.6-7.5,0.8c-0.8,0.1-1.2,0.5-1.6,1.2c-2.4,4.8-4.8,9.6-7.2,14.4c-0.2,0.4-0.4,0.7-0.6,1
	C31.4,490,31.3,490,31.2,490z"/>
<path d="M423.6,449c0.2-0.3,0.4-0.6,0.6-0.9c3.5-5.6,6.9-11.2,10.3-16.8c0.4-0.7,0.5-1.5,0.8-2.2c0.9-2.5,1.7-4.9,2.7-7.4
	c0.3-0.8,1-1.5,1.7-2.1c2.8-2.6,6.8-1.9,8.5,1.4c0.6,1.1,1,2.3,1.7,3.8c0.9-1.7,1.8-3.2,2.6-4.8c1.1-2,2.4-2.5,4.5-1.8
	c1.2,0.4,1.8,1.1,1.6,2.3c-0.3,2.2-0.8,4.3-1.1,6.5c-0.5,3.7-1,7.5-1.4,11.3c-0.1,1-0.2,2.5,1,2.8c0.6,0.1,1.7-1,2.2-1.8
	c2.3-3.5,4.5-7,6.7-10.5c0.1-0.2,0.2-0.4,0.3-0.5c0.4-0.7,1-1.5,1.9-0.9c0.9,0.6,0.3,1.4-0.1,2c-2,3.2-4,6.4-6.1,9.6
	c-0.8,1.2-1.6,2.3-2.6,3.3c-1.6,1.6-3.6,2.6-5.9,1.5c-2.3-1.1-3.5-3-3.6-5.5c-0.1-1.9,0-3.8,0-6c-0.3,0.5-0.5,0.7-0.6,0.9
	c-1.2,2.4-2.4,4.8-3.6,7.3c-1.1,2.2-2.9,3.2-5.3,3c-2.3-0.1-3.9-1.3-4.7-3.5c-0.4-1.1-0.6-2.2-0.8-3.4c-0.1-0.5-0.1-1-0.4-1.5
	c-1.5,2.5-3.1,5-4.6,7.6c-1.3,2.2-2.4,4.4-3.7,6.5c-0.6,1-1.3,2-2.1,2.8c-1.6,1.5-3.9,1.2-5.1-0.7c-0.6-1-1-2.1-1.1-3.2
	c-0.3-3.5,0.1-7,0.8-10.4c1.2-5.4,2.4-10.7,3.6-16.1c0.1-0.4,0.1-0.8,0.1-1.2c-0.1-0.1-0.2-0.1-0.3-0.2c-0.4,0.4-0.9,0.8-1.2,1.3
	c-4.8,6-7.7,13-9.5,20.4c-0.6,2.2-3.1,3.6-5.2,2.6c-0.4-0.2-0.8-0.9-0.8-1.4c-0.1-2.9,0-5.9,0-8.8c-0.2,0-0.3-0.1-0.5-0.1
	c-0.3,0.5-0.6,0.9-0.9,1.4c-0.8,1.3-1.6,2.7-2.4,3.9c-0.6,0.9-1.3,1.7-2.1,2.5c-1.7,1.6-3.6,2.4-5.8,1.3c-2.3-1.1-3.5-2.9-3.5-5.5
	c0-2,0-4-0.2-6c-0.9,1.8-1.8,3.7-2.7,5.5c-0.5,1-1,1.9-1.5,2.9c-1.1,2-2.9,2.9-5.1,2.8c-2.2-0.1-4-1.1-4.7-3.3
	c-0.6-1.7-0.9-3.4-1.3-5.2c-0.3,0.5-0.7,1.2-1.2,1.8c-1.3,1.8-2.4,3.7-3.9,5.3c-3.4,3.7-9,2.2-10.3-2.6c-0.4-1.4-0.5-3-0.7-4.4
	c0-0.3-0.1-0.6-0.2-1.1c-0.9,1.4-1.6,2.6-2.4,3.7c-1.9,3-3.8,6-5.7,8.9c-0.1,0.2-0.2,0.4-0.3,0.5c-2.8,3.9-6.2,3.8-8.6-0.4
	c-1.3-2.2-1.3-4.6-1.6-7c-0.2-1.1-0.3-2.2-0.4-3.7c-0.5,0.7-0.8,1.1-1.1,1.5c-0.8,1.1-1.5,2.2-2.4,3.2c-1.9,2.2-4.2,3-7.1,2
	c-2.8-1-3.8-3.2-4.1-5.9c-0.1-0.8,0-1.5-0.3-2.4c-0.2,0.3-0.5,0.6-0.7,1c-2.6,4.4-5.2,8.8-7.8,13.2c-0.5,0.9-1.1,1.7-1.7,2.4
	c-1.8,1.8-4.1,1.6-5.5-0.6c-0.6-0.9-0.9-2.2-1-3.3c-0.4-5.3,0.8-10.4,1.8-15.5c0.7-3.6,1.7-7.1,2.6-10.7c0.1-0.4,0.2-0.9,0.2-1.3
	c-0.1-0.1-0.2-0.1-0.3-0.2c-0.4,0.4-0.8,0.7-1.2,1.1c-4.5,5.5-7.2,11.9-9.2,18.7c-0.2,0.8-0.4,1.6-0.6,2.4c-0.3,1.3-1.1,1.9-2.3,2.1
	c-0.3,0-0.7,0.1-1,0.1c-2.3,0.1-2.6-0.1-2.7-2.4c0-7.6,0-15.2,0-22.9c0-1.4,0.5-2.1,2-2.3c0.9-0.1,1.8-0.1,2.7,0
	c1.4,0.2,2,1.1,1.9,2.9c-0.1,3.1-0.3,6.2-0.5,9.2c-0.1,1.4-0.1,2.9,0.1,4.4c0.2-0.4,0.4-0.9,0.6-1.3c1.9-3.6,3.8-7.3,5.9-10.8
	c0.9-1.4,2.1-2.7,3.5-3.7c3-2.3,5.9-1,6.3,2.7c0.2,2,0,4.1-0.3,6.1c-1,5.2-2.2,10.3-3.2,15.4c-0.4,2.2-0.6,4.4-0.9,6.6
	c0.1,0,0.3,0.1,0.4,0.1c0.2-0.4,0.5-0.7,0.7-1.1c3.1-5,6.2-9.9,9.2-14.9c1.3-2.2,2.4-4.4,3.5-6.7c1.6-3.4,3.6-6.4,7.5-7.1
	c2.1-0.4,4.4-0.1,6.8-0.1c0.4-1.6,0.8-3.5,1.2-5.4c1.2-5.2,3-10.2,6.1-14.5c1.5-2.1,3.5-3.8,5.5-5.5c1.4-1.2,3.1-1.3,4.8-0.3
	c1.6,0.9,2,2.3,2,4c0,3.1-1.1,6-2.3,8.7c-2.3,5.2-5,10.2-9,14.3c-2.5,2.7-3.2,5.9-3.4,9.4c-0.3,4.7-0.7,9.3-1,14c-0.1,1,0,2,0.3,3
	c0.2,0.6,0.7,1.5,1.1,1.5c0.6,0,1.4-0.6,1.7-1.1c3-4.8,5.8-9.8,9-14.5c1.7-2.5,1.7-5.3,2.4-8c0.3-1.1,0.5-2.3,0.8-3.4
	c0.5-1.8,1.9-2.4,4.4-1.9c1.4,0.3,2.1,1.5,1.8,3.2c-0.6,3.4-1.4,6.7-2,10c-0.3,1.7-0.4,3.4-0.6,5.1c0,0.2,0,0.3,0,0.5
	c0,1.9,0.8,3.2,2,3.6c1.2,0.3,2.7-0.4,3.7-1.9c1.9-2.9,3.7-5.7,5.5-8.6c0.4-0.6,0.4-1.4,0.6-2.1c0.6-2.8,1.5-5.6,3.3-7.9
	c1-1.2,2.2-2.1,3.8-2.4c2.4-0.4,4.2,0.4,5.5,2.6c0.7,1.2,1.2,2.6,1.8,4.1c0.9-1.7,1.8-3.2,2.7-4.8c1-1.8,2-2.2,3.9-1.9
	c1.7,0.3,2.4,1.2,2.1,2.9c-0.5,3.1-1.2,6.1-1.7,9.2c-0.4,2.8-0.7,5.5-0.8,8.3c-0.1,1-0.1,2.4,1.1,2.6c0.6,0.1,1.6-0.9,2.1-1.6
	c1.9-2.8,3.7-5.7,5.5-8.6c0.2-0.3,0.2-0.8,0.2-1.2c0.1-3.3,0.2-6.6,0.2-9.9c0-1.2,0.6-1.9,1.7-2.1c1-0.1,2.1-0.2,3.1-0.1
	c1.2,0.1,1.8,1,1.8,2.3c-0.1,3.2-0.3,6.3-0.4,9.5c-0.1,1.5-0.2,3,0,4.6c1.1-2.2,2.1-4.5,3.2-6.7c1.5-3,3.2-5.9,5.7-8.2
	c0.8-0.7,1.6-1.3,2.6-1.7c2-0.9,3.6-0.1,4.5,1.9c0.8,1.9,0.7,3.9,0.4,5.9c-0.9,4.9-2,9.7-3,14.6c-0.6,3.1-1,6.3-1.5,9.5
	C423.4,448.9,423.5,448.9,423.6,449z M331.6,440.4c3.9-4,7-8.2,8.2-13.6c0.4-1.8,0.4-3.8,0.2-5.7c-0.3-2.1-2.4-2.7-3.9-1.2
	c-0.6,0.6-1.1,1.4-1.5,2.1c-2.3,4.5-3.4,9.4-3.5,14.4C331.1,437.8,331.5,439.1,331.6,440.4z M440.6,436.1c0.2,1.8,0.3,3,0.6,4.2
	c0.3,1.2,1.2,1.3,1.9,0.3c2.9-4.5,4.8-9.3,4.7-14.8c0-1.7-0.6-3.3-1.9-4.5c-0.8-0.7-1.6-0.6-2.1,0.2c-0.5,0.8-1,1.8-1.2,2.7
	C441.9,428.4,441.3,432.5,440.6,436.1z M380.6,436.5c0.1,0,0.1,0.1,0.2,0.1c0.2,1.1,0.3,2.2,0.6,3.3c0.4,1.1,1.2,1.2,1.8,0.2
	c2.9-4.5,4.8-9.4,4.8-14.8c0-1.8-0.6-3.3-2-4.5c-0.6-0.5-1.3-0.6-1.7,0.1c-0.6,0.8-1.2,1.7-1.4,2.6
	C382,427.7,381.3,432.1,380.6,436.5z M347.9,417.3c0.4-0.3,0.5-0.4,0.6-0.5c4.7-5.3,7.8-11.4,9.6-18.1c0.3-1,0.4-2,0.5-3.1
	c0-0.5-0.4-0.9-0.6-1.4c-0.4,0.2-0.8,0.3-1.2,0.6c-0.4,0.4-0.7,0.8-1,1.3C352,402.5,349.3,409.5,347.9,417.3z"/>
<path d="M284.1,389c-3.7,3.3-7.3,6.5-11,9.7c0,0-0.1,0.1-0.1,0.1c-1.8,2.2-2.7,4.6-2.3,7.4c0.2,1.1-0.4,1.5-1.4,1.7
	c-1,0.1-1.3-0.6-1.3-1.4c-0.3-3.3,0.8-6.3,3.1-8.5c2.5-2.5,5.4-4.7,8.1-7.1c2.4-2.1,5-4.1,6.1-7.3c0.1-0.3,0.6-0.6,0.9-0.7
	c0.5-0.2,1.2-0.3,1.7-0.3c2.5,0.2,3.4,0.5,3.3,3.3c-0.5,12-0.8,24.1-1.3,36.1c-0.3,6.2-1.4,12.3-4,18.1c-1.6,3.4-3.7,6.4-7.2,8.2
	c-2.8,1.5-5.8,2-9,1.1c-5.8-1.5-8.7-6.5-7-12.3c1.6-5.4,5.4-9.1,10.2-11.8c0.4-0.2,1.1,0,1.6,0c-0.2,0.5-0.3,1-0.6,1.4
	c-1.6,1.6-3.4,3.1-4.9,4.8c-2.3,2.6-3.9,5.7-3.6,9.3c0.1,1.3,0.4,2.7,1,4c1.5,3.2,4.7,4.1,7.7,2.2c2.9-1.8,4.9-4.3,6.1-7.5
	c2-5.1,3-10.3,3.2-15.7c0.3-7.7,0.4-15.3,0.6-23C284.1,396.8,284.1,393,284.1,389z"/>
<path d="M365.3,406.3c1.2,0,2.1,0.8,2.1,2c0,1.3-1,2.3-2.3,2.3c-1.2,0-2.1-0.7-2.1-1.8C362.9,407.5,364,406.3,365.3,406.3z"/>
</svg>
