<?xml version="1.0" encoding="utf-8"?>
<!-- Generator: Adobe Illustrator 22.0.1, SVG Export Plug-In . SVG Version: 6.00 Build 0)  -->
<svg version="1.1" id="Layer_1" xmlns="http://www.w3.org/2000/svg" xmlns:xlink="http://www.w3.org/1999/xlink" x="0px" y="0px"
	 viewBox="0 0 500 500" style="enable-background:new 0 0 500 500;" xml:space="preserve">
<path d="M5,401.3c0.3-0.5,0.5-0.9,0.8-1.3c3.7-5.5,7.4-11,11-16.6c0.4-0.6,0.7-1.5,0.7-2.2c0-9.7,0-19.3,0.1-29
	c0-0.8,0.2-1.6,0.5-2.3c1.7-3.4,3.4-6.8,5.1-10.3c0.4-0.9,0.9-1.2,1.9-1.2c9.6,0,19.2,0,28.8,0c0.9,0,1.4-0.2,1.9-1
	c10.1-16.2,20.3-32.4,30.3-48.7c2.3-3.7,4.1-7.8,6-11.8c0.5-1,1-1.4,2.2-1.5c10.4-1.1,20.7-2.3,31-3.4c7.8-0.9,15.6-1.6,23.4-2.7
	c7.1-1,14.1-2.3,21.1-3.4c5.4-0.9,10.7-1.8,16.1-2.7c0.9-0.1,1.1-0.5,1.1-1.3c0-5.4,0-10.8,0-16.2c0-0.5,0-0.9,0-1.5
	c2.2,0,4.4,0,6.5,0c2,0,4.3-0.5,6.1,0.2c1.7,0.7,2.9,2.6,4.3,4c2.5,2.5,5,5,7.5,7.5c0.6,0.7,1.1,0.7,1.9,0.3
	c3.4-1.7,6.8-3.5,10.3-5.1c0.9-0.4,1.4-1,1.6-1.9c1.8-7.5,3.7-15.1,5.7-22.6c0.2-0.8,0.6-1.6,1.1-2.3c5.7-7.7,11.5-15.3,17.2-23
	c0.6-0.8,0.9-1.6,0.9-2.7c-0.1-3.6,0-7.2,0-11c0.5,0,0.9,0,1.4,0c7.5,0,15,0,22.5,0c0.9,0,1.5-0.2,2.1-0.8
	c3.6-3.6,7.2-7.2,10.8-10.8c0.6-0.6,0.9-1.3,0.9-2.1c0-9.5,0-19,0-28.5c0-0.5,0-1,0-1.7c2.1,0.4,4,0.8,5.9,1.1
	c8,1.6,16.1,3.2,24.1,4.8c1,0.2,1.7,0.6,2.3,1.5c3.6,5.5,7.3,11,10.9,16.5c0.6,0.9,1.2,1.2,2.3,1.2c7.5,0,15,0,22.5,0
	c0.8,0,1.4,0.2,2,0.8c1.5,1.6,3.1,3.2,4.7,4.7c0.5,0.4,1.2,0.8,1.9,0.8c11.8,0,23.6,0,35.5,0c0.6,0,1.3-0.3,1.7-0.7
	c3.6-3.6,7.2-7.2,10.9-10.8c0.3-0.3,0.7-0.6,1.1-1c0.4,0.4,0.7,0.7,1,1c5.7,5.7,11.3,11.3,17,16.9c0.5,0.5,1.3,0.8,2,0.8
	c3.7,0.1,7.5,0,11.4,0c0,0.6,0,1.1,0,1.5c0,7.5,0,15,0,22.5c0,0.7,0.3,1.5,0.7,2.1c5.8,7.7,11.5,15.5,17.4,23.2
	c0.5,0.7,1.2,1.3,1.9,1.7c9.7,5.9,19.5,11.7,29.3,17.6c0.3,0.2,0.6,0.4,1.1,0.7c-2.3,2.5-4.5,5-6.8,7.5
	c-18.4,20.3-36.8,40.5-55.2,60.8c-0.5,0.5-1,1-1.6,1.4c-18.2,12.2-36.4,24.3-54.6,36.4c-0.6,0.4-1.4,0.8-2.2,0.9
	c-9.7,1.3-19.4,2.5-29.1,3.8c-10.3,1.3-20.6,2.6-30.9,4c-9.7,1.2-19.3,2.5-29,3.7c-9.6,1.2-19.2,2.5-28.8,3.7
	c-9.6,1.2-19.1,2.5-28.7,3.7c-9.7,1.2-19.3,2.5-29,3.7c-10.3,1.3-20.7,2.6-31,4c-9.6,1.2-19.1,2.7-28.7,3.6
	c-10.9,1.1-21.1,5-31.6,7.7c-6.8,1.8-13.5,3.8-20.2,5.7c-0.6,0.2-1.3,0.3-2,0.3c-26.4,0-52.8,0-79.2,0C6,401.4,5.6,401.3,5,401.3z"
	/>
<path d="M145.3,150.7c0.8-2.1,1.5-4.3,2.3-6.4c1.4-3.6,2.8-7.3,4.3-10.9c0.5-1.3,1.3-2.5,2.1-3.6c1.2-1.7,2.9-2.3,4.5-1.6
	c1.4,0.5,2.2,2,2,4c-0.7,5.8-1.4,11.6-2.1,17.5c-0.4,3-0.7,6-1.1,9c-0.1,0.6-0.1,1.2-0.1,1.8c0.1,0,0.2,0.1,0.3,0.1
	c1-2.1,2-4.3,3.1-6.4c2.1-4.2,4.4-8.4,6.5-12.6c0.6-1.1,0.9-2.4,1.1-3.6c0.5-2.7,1.2-5.3,2.8-7.6c2-2.9,5.9-4.4,9.2-3.3
	c0.7,0.2,1.6,0.7,1.9,1.3c0.9,1.4,1.5,2.9,2.2,4.4c0.3,0.7,0.1,1.6-0.7,1.7c-0.5,0.1-1.3-0.3-1.6-0.8c-0.7-1.1-1.1-2.4-1.8-3.5
	c-0.3-0.6-0.9-1.3-1.3-1.3c-0.5,0-1.1,0.7-1.4,1.3c-2,3.9-3.2,8.1-3.2,12.5c0,2.1,0.1,4.3,0.6,6.4c0.7,2.8,3,3.9,5.6,2.6
	c1.6-0.8,3.3-2.1,4.4-3.6c2.2-3,4.1-6.2,6.1-9.4c0.1-0.2,0.2-0.6,0.2-0.8c0.7-8,1.3-16.1,2.1-24.1c0.3-3.3,0.7-6.5,2.1-9.5
	c1.6-3.3,4.1-5.5,7.8-5.6c2.5-0.1,4.3,1.5,4.6,4c0.4,3.7-0.5,7.3-1.7,10.7c-1.8,5-4.3,9.6-7.3,14c-0.7,0.9-1,1.9-1,3
	c0,1.9-0.2,3.8,0,5.8c0.5-0.7,1.1-1.4,1.6-2.2c1.6-2.2,3.2-4.5,4.9-6.7c1.1-1.4,2.2-1.6,3.7-0.6c-2.2,3.1-4.4,6.2-6.6,9.4
	c3.4,0.7,4.3,3.2,4.4,6.1c0.2,4.5,0.3,8.9,0.5,13.4c0,0.5,0.1,1,0.3,1.9c0.5-0.7,0.8-1,1.1-1.4c2.9-5.3,5.9-10.5,8.8-15.8
	c0.2-0.4,0.4-0.9,0.4-1.3c0.3-3,0.5-6.1,0.7-9.1c0.2-1.9,1.4-2.8,3.6-2.7c2,0.2,3.1,1.3,2.9,3.2c-0.3,3.8-0.6,7.5-0.8,11.3
	c-0.1,1.6,0,3.3,0.2,5c0.2-0.4,0.4-0.8,0.5-1.2c2.6-5.7,5.2-11.3,7.9-16.9c1-2,3.3-2.4,5.1-1.1c0.9,0.7,1.3,1.6,1.3,2.8
	c-0.2,6.8-0.3,13.5-0.5,20.3c0,0.3,0,0.6,0,1.4c1.1-1.4,2-2.6,2.8-3.7c2.3-3.4,4.6-6.9,6.9-10.3c0.2-0.3,0.4-0.8,0.7-0.9
	c0.4-0.2,1-0.3,1.3-0.2c0.2,0.1,0.3,0.8,0.3,1.2c0,0.3-0.2,0.5-0.4,0.8c-3.5,5.5-6.8,11.1-11.1,16c-0.3,0.4-0.4,1-0.5,1.5
	c-0.6,8.4-1.2,16.7-3.6,24.8c-1.4,5-4,9.1-8.9,11.4c-2.3,1-4.7,1.6-7.2,1c-3.5-0.8-5.6-3.6-5.8-7.7c-0.2-4.5,1.2-8.6,3.5-12.5
	c3.4-5.7,8.1-10.4,13-14.8c0.5-0.5,1-1,1.5-1.3c1.5-0.9,1.8-2.2,1.8-3.8c0.2-6.8,0.4-13.6,0.6-20.4c-0.1,0-0.2-0.1-0.3-0.1
	c-0.3,0.7-0.7,1.4-1,2.2c-1.9,4.7-3.8,9.5-5.6,14.2c-0.6,1.4-1.3,2.6-3,2.8c-1.9,0.2-3.5-0.5-4.4-2.1c-0.9-1.6-1.4-3.5-2.1-5.2
	c-0.1,0.2-0.3,0.5-0.5,0.8c-2.2,4-4.3,7.9-6.5,11.9c-0.1,0.1-0.1,0.2-0.2,0.3c-0.9,1.7-1.9,3.4-4.2,3c-2.2-0.4-2.9-2.3-3.1-4.1
	c-0.4-3.2-0.4-6.4-0.6-9.7c-0.1-2.1-0.3-4.2-0.5-6.2c-0.1-0.5-0.4-1.3-0.7-1.3c-0.5-0.1-1.2,0.3-1.5,0.7c-0.5,0.8-0.9,1.7-0.9,2.5
	c-0.1,2.6-0.1,5.2-0.1,7.8c0,0.3,0,0.5,0,0.8c-0.2,1.9-0.6,2.5-1.9,2.7c-2.2,0.2-3.5-0.4-3.8-2.3c-0.4-2.5-0.5-5-0.7-7.5
	c0-0.2,0-0.4-0.2-0.7c-0.6,0.9-1.2,1.9-1.8,2.8c-1.3,1.8-2.4,3.7-3.9,5.2c-2.9,3-6.6,4-10.6,3.1c-2.7-0.6-4.4-2.5-5.3-5
	c-0.5-1.5-0.8-3-1.2-4.7c-0.2,0.4-0.4,0.7-0.6,1c-2.4,4.7-4.8,9.5-7.1,14.2c-0.2,0.5-0.5,0.9-0.7,1.3c-0.7,1.2-1.7,2.1-3.2,2
	c-1.7-0.2-3.1-0.9-3.7-2.6c-0.4-1-0.6-2.1-0.6-3.1c-0.1-6.9,0.6-13.7,1.6-20.4c0.1-0.5,0.1-0.9,0.2-1.4c0-0.1-0.1-0.2-0.1-0.6
	c-0.4,1.1-0.8,1.9-1.1,2.8c-1.6,4.2-3.1,8.4-4.7,12.6c-0.5,1.4-1.2,2.8-2.9,3c-1.9,0.3-3.5-0.3-4.7-1.9c-1.4-1.9-1.8-4.2-1.9-6.5
	c0-0.3,0-0.7-0.1-1.3c-0.3,0.4-0.5,0.7-0.7,0.9c-1.4,2-2.7,4.2-4.1,6.1c-3.5,4.6-9.8,4.2-12.4-1c-1.2-2.3-1.6-5-2.3-7.4
	c0,0-0.2,0.2-0.4,0.5c-3.2,5.5-6.4,11-9.6,16.5c-0.4,0.7-0.9,1.5-1.4,2.1c-2,2.2-4.6,1.9-6.1-0.7c-1.1-1.9-1.1-4.1-0.9-6.2
	c0.6-7.9,2.3-15.7,4.3-23.4c0.1-0.5,0.2-1,0.3-1.4c-0.1-0.1-0.2-0.1-0.3-0.2c-0.4,0.3-0.8,0.6-1.1,1c-4.7,5.8-7.4,12.5-9.4,19.6
	c-0.1,0.5-0.3,1-0.4,1.5c-0.6,2.4-2.8,3.8-5.2,2.9c-0.5-0.2-1-1.1-1-1.7c-0.1-3,0-6,0-9c-0.2,0-0.3-0.1-0.5-0.1
	c-0.6,0.9-1.2,1.9-1.8,2.8c-1.3,1.8-2.6,3.8-4.2,5.3c-2.9,2.7-6.4,3-10,1.8c-2.1-0.7-3.7-2.1-4.4-4.3c-0.6-2.1-1-4.2-1.6-6.4
	c-0.2,0.2-0.4,0.6-0.6,0.9c-3.8,6.9-7.6,13.9-11.4,20.8c-0.5,0.9-1,1.8-1.6,2.6c-1.6,2.2-3.6,2.6-6,1.3c-1.8-0.9-3.1-2.4-3.5-4.3
	c-0.7-2.9-1.2-5.8-1.5-8.8c-0.5-5.1-0.9-10.3-2.8-15.1c-0.8-2-1.8-3.8-3.6-5c-0.6-0.4-1.3-0.7-2.2-1.2c-0.2,2-0.4,3.8-0.6,5.6
	c-0.9,8.8-1.8,17.6-2.6,26.4c-0.3,2.6-1.3,3.5-3.6,3.2c-1.3-0.2-1.9-0.7-1.8-2c0.1-2.2,0.4-4.5,0.6-6.7c1-9.7,2-19.4,3.1-29.2
	c0.7-6.5,1.5-13,2.2-19.5c0-0.4,0-0.7,0.1-1.5c-3.1,3.5-6.5,6.5-7.4,11.1c-0.3,1.4-0.8,1.8-1.8,1.5c-0.6-0.2-1-0.5-0.9-1.3
	c0.4-2.2,1.4-4.1,2.7-5.8c2.2-2.9,4.4-5.8,6.5-8.8c0.7-1,1.1-2.1,1.6-3.2c0.8-1.5,2.8-2,4.2-1.2c1,0.6,1,1.6,0.9,2.6
	c-0.5,3.8-0.9,7.7-1.4,11.5c-0.5,4.6-1.1,9.1-1.6,13.7c0,0.3,0,0.6,0,1.1c0.9-0.9,1.7-1.5,2.4-2.3c5.3-5.2,9.2-11.3,12.6-17.8
	c1.3-2.4,2.8-4.6,4.6-6.7c1.6-1.9,3.9-2.7,6.3-3.1c0.3,0,0.6-0.1,0.9,0c0.6,0.3,1.2,0.6,1.8,1c-0.5,0.3-1,0.9-1.5,0.9
	c-2.1,0.3-3.4,1.6-4.3,3.3c-1.5,2.8-3,5.7-4.5,8.6c-3.2,6-6.7,11.8-11.9,16.3c4.2,3,5.6,7.4,6.3,12c0.7,4.6,0.9,9.2,1.3,13.8
	c0.2,2.2,0.5,4.3,0.7,6.5c0,0.3,0.1,0.5,0.2,0.7c0.4,0.6,0.9,1.3,1.4,1.9c0.6-0.4,1.4-0.8,1.7-1.4c2.2-3.8,4.4-7.7,6.5-11.5
	c2.9-5.1,5.8-10.2,8.6-15.3c0.3-0.6,0.6-1.3,0.8-2c1-4.3,3.2-7.7,7.3-9.6c1.1-0.5,2.3-0.8,3.5-0.9c3.1-0.3,5,2,4.4,5.3
	c-0.7,3.1-2.4,5.6-4.9,7.5c-1,0.7-2,1.5-3.1,2c-1.1,0.5-1.7,1.4-1.8,2.5c-0.2,2-0.2,3.9,0.7,5.7c1.2,2.6,3.3,3.5,5.8,2.3
	c1.3-0.6,2.6-1.6,3.4-2.8c2-2.8,3.8-5.8,5.6-8.7c0.2-0.4,0.3-0.9,0.3-1.3c0-3.1,0.1-6.2,0.1-9.3c0-2.2,0.6-2.8,2.7-3
	c0.5-0.1,0.9-0.1,1.4,0c2,0.2,2.8,0.9,2.7,2.9c-0.1,3.9-0.3,7.9-0.5,11.8c0,0.7,0,1.4,0.2,2.2c0.9-1.9,1.6-3.8,2.6-5.6
	c1.6-2.8,3.2-5.6,5-8.3c0.8-1.2,2-2.1,3.2-2.9c2.5-1.6,5.1-0.6,5.5,2.3c0.4,2.3,0.3,4.8-0.1,7.2c-0.9,5.5-2.2,11-3.2,16.5
	c-0.4,2-0.5,4.1-0.5,6.3c0.2-0.3,0.4-0.5,0.6-0.8c3.9-6.4,7.7-12.8,11.6-19.2c0.3-0.5,0.5-1,0.6-1.5c0.3-7.2,2.1-14.1,3.5-21.1
	c0.1-0.5,0.2-1.1,0.3-1.7c-1.4-0.2-2.8-0.4-4.2-0.6c-0.7-0.1-1.4-0.2-1.4-1.1c0.1-0.9,0.7-1.3,1.5-1.3c1.2,0,2.5,0,3.7,0.2
	c0.9,0.1,1.3-0.2,1.6-1.1c0.9-2.7,1.8-5.3,2.8-7.9c0.3-0.8,1-1.6,1.8-1.9c0.8-0.3,1.9-0.3,2.6,0.1c1,0.4,1,1.5,0.9,2.5
	c-0.5,2.2-1,4.5-1.4,6.7c-0.1,0.5-0.2,1.1-0.3,1.7c1.9,0.1,3.7,0.3,5.5,0.4c0.8,0,1.3,0.2,1.4,1.1c0,0.9-0.5,1.3-1.3,1.3
	c-2,0-4.1,0-6.3,0c-0.4,2-0.8,4-1.2,5.9c-1,6.1-2.2,12.1-3,18.2c-0.4,2.7-0.1,5.6,0.1,8.4c0,0.9,0.4,1.7,0.8,2.5
	c1.1,2.1,3.2,2.4,4.9,0.7c0.5-0.5,1-1.2,1.4-1.8c1.8-2.8,3.5-5.6,5.2-8.4c0.3-0.5,0.5-1.2,0.6-1.9c0.4-2.8,0.6-5.7,1.1-8.5
	c0.4-2.4,1.9-3.3,4.3-2.8c1.1,0.2,1.7,1,1.6,2.5c-0.1,1.6-0.4,3.2-0.5,4.8c-0.2,4-0.5,8-0.6,11.9c0,1.4,0.4,2.8,0.7,4.2
	C145.1,150.7,145.2,150.7,145.3,150.7z M231.9,158.8c-0.6,0.5-1.1,0.8-1.4,1.1c-2.8,2.8-5.6,5.5-8.2,8.5c-3.1,3.5-5.3,7.5-6.4,12.2
	c-0.6,2.7-0.5,5.4,0.7,8c1.2,2.7,3.5,3.5,6.1,2.1c0.7-0.3,1.3-0.8,1.9-1.3c1.8-1.7,2.8-3.8,3.5-6.1
	C230.4,175.3,230.5,167.1,231.9,158.8z M197.9,125c0.3-0.3,0.4-0.4,0.5-0.5c3.4-5.1,5.9-10.6,7.2-16.6c0.3-1.4,0.5-2.8,0.4-4.2
	c0-0.7-0.6-1.6-1.2-2c-0.9-0.6-1.8,0.1-2.3,0.8c-0.6,0.9-1.2,1.9-1.5,2.9c-0.8,3.5-1.5,7-2.1,10.5
	C198.5,118.9,198.3,121.8,197.9,125z M72.2,139.2c2.4-1.6,4.4-3.1,5.5-5.5c0.6-1.4,0.8-2.7,0.4-4.2c-0.3-0.9-0.9-1.1-1.5-0.4
	C74.2,131.9,72.8,135.2,72.2,139.2z"/>
</svg>
