<?xml version="1.0" encoding="utf-8"?>
<!-- Generator: Adobe Illustrator 22.0.1, SVG Export Plug-In . SVG Version: 6.00 Build 0)  -->
<svg version="1.1" id="Layer_1" xmlns="http://www.w3.org/2000/svg" xmlns:xlink="http://www.w3.org/1999/xlink" x="0px" y="0px"
	 viewBox="0 0 500 500" style="enable-background:new 0 0 500 500;" xml:space="preserve">
<path d="M17.4,155.3c4,0.2,7.9,0.5,11.7,0.7c10.3,0.6,20.7,1.3,31,1.9c9.3,0.6,18.6,1.1,27.9,1.7c10.4,0.6,20.9,1.3,31.3,1.9
	c9.2,0.6,18.5,1.1,27.7,1.7c10.3,0.6,20.7,1.3,31,1.9c9.2,0.6,18.4,1.1,27.6,1.7c8.2,0.5,16.5,0.9,24.7,1.2
	c11.5,0.4,23.1,0.7,34.7,1c8.6,0.2,17.2,0.4,25.9,0.7c14,0.4,28,0.8,42.1,1.1c8.6,0.2,17.2,0.4,25.7,0.7c13.1,0.3,26.2,0.7,39.2,1
	c8.7,0.2,17.4,0.4,26.1,0.7c11,0.3,22,0.6,33,0.9c0.4,0,0.9,0.1,1.3,0.4c5.9,3.9,11.7,7.8,17.6,11.7c0.1,0.1,0.2,0.2,0.4,0.3
	c-0.2,0.5-0.4,0.9-0.7,1.4c-3.7,7.4-7.5,14.9-11.1,22.4c-0.3,0.6-0.4,1.5-0.2,2.1c1.8,5.5,3.6,11.1,5.5,16.6
	c0.2,0.6,0.6,1.2,1.1,1.6c7.7,5.8,15.3,11.6,23.1,17.3c0.7,0.5,0.9,1,0.9,1.8c0,57.1,0,114.2,0,171.3c0,0.4,0,0.8,0,1.3
	c-0.6,0-1,0-1.5,0c-86,0-172,0-258-0.1c-7.6,0-15.2-0.7-22.8-1.1c-9.5-0.5-19-1-28.5-1.5c-12.6-0.7-25.1-1.4-37.7-2
	c-12.6-0.7-25.2-1.4-37.8-2c-12.6-0.7-25.2-1.4-37.8-2s-25.2-1.4-37.8-2c-8.9-0.5-17.7-1-26.6-1.4c-0.5,0-0.9-0.1-1.6-0.1
	C9.1,324.8,13.3,240.1,17.4,155.3z"/>
<path d="M259,105c-0.3,0.5-0.5,1-0.9,1.4c-4.3,5.4-7,11.7-8.9,18.3c-0.3,0.9-0.6,1.9-0.7,2.8c-0.2,1.4-1,2.1-2.3,2.3
	c-0.3,0-0.6,0.1-0.9,0.1c-2.4,0.2-2.7,0-2.9-2.5c-0.1-2.2-0.2-4.4-0.2-6.6c0-0.4,0-0.9-0.4-1.4c-0.6,1-1.2,2-1.8,3
	c-1.1,1.6-2.1,3.2-3.3,4.6c-1.6,1.8-3.6,2.7-6,1.7c-2.4-1-3.6-3-3.7-5.6c-0.1-1.9,0-3.8-0.2-5.8c-0.3,0.5-0.5,1-0.7,1.4
	c-1.1,2.3-2.2,4.7-3.4,7c-1.1,2.1-2.9,2.9-5.1,2.8c-2.2-0.1-3.9-1.1-4.7-3.1c-0.6-1.7-0.9-3.5-1.4-5.2c-0.2,0.3-0.4,0.7-0.7,1.1
	c-3.5,6.4-6.9,12.8-10.4,19.1c-0.2,0.4-0.4,0.7-0.6,1.1c-2.3,3.7-5.8,3.9-8.5,0.5c-1.9-2.4-2.4-5.2-2.7-8.1
	c-0.5-5.1-0.6-10.2-2.1-15.1c-0.7-2.2-1.8-4.4-3-6.4c-0.7-1.2-2-2.1-3.6-2.4c-0.3,3.3-0.7,6.6-1,9.8c-0.8,7.4-1.5,14.9-2.3,22.3
	c-0.2,2.1-2.7,3.3-4.4,2c-0.4-0.3-0.7-1.2-0.7-1.7c0.1-2.2,0.3-4.3,0.6-6.5c1-9.8,2-19.7,3.1-29.5c0.7-6.5,1.5-13.1,2.2-20
	c-3.2,3.6-6.6,6.5-7.4,11.2c-0.2,0.9-0.5,1.5-1.6,1.3c-0.7-0.2-1.2-0.5-0.9-1.3c0.6-1.6,1.2-3.3,2-4.8c0.6-1.1,1.5-2,2.3-2.9
	c2.5-2.9,4.7-6.1,6.2-9.6c0.6-1.3,1.5-1.8,2.8-1.8c1.7,0,2.5,0.8,2.4,2.5c-0.5,4.9-1.1,9.7-1.7,14.6c-0.4,3.8-0.9,7.6-1.4,11.5
	c0.1,0.1,0.2,0.1,0.3,0.2c2-2.2,4.1-4.3,6-6.5c3.5-4.1,6.2-8.8,8.7-13.6c1.1-2,2.3-4,3.7-5.7c1.6-2,3.9-3,6.3-3.5
	c0.6-0.1,1.2-0.2,1.8,0c0.5,0.2,0.9,0.6,1.4,1c-0.4,0.3-0.8,0.8-1.3,0.8c-2.5,0.2-3.8,1.9-4.8,3.9c-2,3.7-3.9,7.5-5.9,11.1
	c-2.6,4.7-5.7,9.1-9.9,12.7c3.4,2.3,4.9,5.8,5.7,9.5c0.7,3,1,6.1,1.4,9.2c0.4,4.2,0.7,8.4,1.1,12.6c0.1,0.9,0.5,1.8,0.9,2.6
	c0.4,0.7,1,0.8,1.5,0.1c0.6-0.8,1.3-1.5,1.7-2.4c2.9-5.3,5.8-10.7,8.7-16c0.5-1,1-2,1.6-2.9c1.9-3,3.5-6,4.2-9.6
	c0.4-1.8,1.5-3.6,2.5-5.2c0.9-1.4,2.3-2.3,4.1-2.6c2.2-0.3,4.1,0.4,5.2,2.4c0.8,1.3,1.3,2.7,2,4.3c1-1.8,1.9-3.5,2.8-5.2
	c0.6-1.1,1.4-1.6,2.7-1.6c2.6,0,3.5,1.1,3.1,3.7c-0.8,4.9-1.6,9.7-2.3,14.6c-0.2,1.2,0,2.5,0.1,3.7c0.1,0.5,0.5,1.2,1,1.5
	c0.2,0.1,1-0.4,1.3-0.8c1-1.3,1.9-2.6,2.7-4c0.6-0.9,0.9-1.8,1.6-2.6c1.8-2.2,2.3-4.8,2.1-7.6c-0.1-2.3,0.1-4.6,0.2-6.9
	c0-0.3,0.1-0.7,0.2-1c0.5-1,2.9-1.5,4.7-1c1.1,0.3,1.8,1.2,1.7,2.6c-0.1,4.1-0.4,8.1-0.5,12.2c0,0.5,0,1.1,0.2,1.7
	c0.2-0.4,0.4-0.8,0.5-1.2c2-4.5,4-9,7.2-12.8c0.8-0.9,1.7-1.8,2.7-2.4c2.6-1.6,5-0.7,5.6,2.3c0.4,1.7,0.4,3.6,0.1,5.3
	c-1,5.6-2.2,11.2-3.2,16.9c-0.4,2.3-0.6,4.7-0.9,7c0.1,0,0.2,0.1,0.3,0.1c0.2-0.2,0.4-0.4,0.5-0.6c3.8-6.4,7.7-12.7,11.5-19.1
	c0.3-0.5,0.3-1.3,0.2-1.9c-0.7-2.3-1-4.6-0.5-7c0.8-3.6,4.2-6.3,7.9-6.1c1.6,0.1,2.9,0.8,3.3,2.3c0.5,1.7,0.7,3.4,0.8,5.1
	c0.1,1-0.7,1.4-1.6,1.4c-1,0-1.2-0.6-1.2-1.4c-0.1-1.2-0.1-2.4-0.3-3.5c-0.1-0.5-0.6-0.9-1-1.4c-0.4,0.5-0.9,0.9-1.1,1.4
	c-0.9,2.3-0.9,4.6-0.2,6.9c0.5,1.8,1.1,3.5,1.7,5.2c0.6,1.6,1.5,3.1,2.2,4.8c3.2-0.9,6-2.3,8-4.9c0.3-0.4,0.4-1,0.6-1.5
	c0.8-2.4,1.5-4.9,2.6-7.1c0.7-1.3,2-2.5,3.3-3.2c2.6-1.4,5.4-0.4,6.9,2.2c0.7,1.2,1.2,2.5,1.8,3.9c1-1.8,1.8-3.3,2.7-4.9
	c1.1-2,3.1-2.5,5.1-1.4c1,0.6,1.1,1.5,0.9,2.4c-0.5,2.8-1.1,5.6-1.4,8.4c-0.4,3.1-0.7,6.2-0.9,9.2c-0.1,1-0.1,2.5,1.1,2.7
	c0.6,0.1,1.7-1,2.2-1.7c2.2-3.4,4.3-6.9,6.4-10.4c0.2-0.3,0.1-1,0-1.4c-0.7-2.3-1.1-4.6-0.6-7c0.8-3.5,3.9-6.1,7.5-6.2
	c2.1,0,3.5,0.9,4,2.9c0.4,1.4,0.5,2.9,0.6,4.4c0.1,1.1-0.5,1.5-1.6,1.6c-1.1,0-1.2-0.6-1.3-1.5c-0.1-1.3-0.3-2.7-0.5-4
	c-0.1-0.3-0.5-0.8-0.7-0.8c-0.3,0.1-0.7,0.4-0.9,0.7c-1.1,2.2-1.1,4.5-0.7,6.9c0.5,2.7,2.6,8,4.2,10.5c3.6-0.9,6.5-2.7,8.7-5.8
	c0.4-0.6,0.7-1.2,1.2-1.6c0.4-0.3,1.1-0.4,1.6-0.5c0,0.5,0.3,1.3,0.1,1.6c-1.3,1.7-2.6,3.6-4.3,5c-1.8,1.4-4,2.4-6,3.5
	c-0.2,0.1-0.4,0.2-0.5,0.2c0.5,2.3,1.2,4.4,1.4,6.6c0.5,4.9-3.3,9-8,9c-2.2,0-3.6-1.1-4-3.3c-0.8-3.8,0.3-7.3,2.7-10.1
	c1.5-1.8,1.5-3.1,0.4-4.8c-0.7-1.2-1.3-2.5-2-4c-1.2,1.9-2.4,3.7-3.5,5.5c-1,1.5-1.9,3.1-2.9,4.6c-0.4,0.7-1,1.2-1.7,1.7
	c-1.6,1.3-3.4,2-5.4,1.1c-2.1-0.9-3.4-2.6-3.6-4.9c-0.2-2.2,0-4.4-0.3-6.7c-0.4,0.8-0.9,1.7-1.3,2.5c-1,2-1.9,4-2.9,5.9
	c-1.1,2.1-2.8,3-5.1,2.9c-2.3-0.1-3.8-1.2-4.8-3.2c-0.9-1.8-1-3.7-1-5.6c0-0.4,0-0.8,0-1.2c-2.4,1.3-4.8,2.7-7.1,4
	c0.5,2.1,1.2,4.3,1.4,6.6c0.5,4.9-3.3,9-8.1,8.9c-2.1,0-3.5-1.2-3.9-3.3c-0.8-4,0.5-7.5,2.9-10.4c1.3-1.5,1.3-2.6,0.4-4.2
	c-0.8-1.3-1.4-2.7-2.2-4.2c-0.3,0.4-0.5,0.7-0.7,1c-3.5,5.9-6.9,11.9-10.4,17.8c-0.5,0.8-1,1.7-1.7,2.4c-1.8,1.8-4.3,1.6-5.6-0.7
	c-0.6-1.1-0.9-2.4-1-3.6c-0.4-5.3,0.9-10.5,1.9-15.6c0.7-3.5,1.6-6.9,2.4-10.3c0.1-0.4,0.2-0.9,0.2-1.3
	C259.4,105.3,259.2,105.2,259,105z M297.2,120.8c0.2,1.7,0.3,3,0.6,4.3c0.1,0.4,0.5,1,0.9,1.1c0.3,0.1,0.9-0.4,1.1-0.7
	c0.6-0.9,1.2-1.9,1.7-3c1.7-3.8,3.1-7.7,2.9-12c-0.1-1.6-0.6-3.1-1.8-4.2c-0.9-0.9-1.6-0.9-2.3,0.2c-0.6,0.9-1,1.9-1.2,2.9
	C298.3,113.2,297.8,117.1,297.2,120.8z M217.5,121.6c0.1,0,0.2,0,0.4,0c0,0.7,0,1.4,0,2.2c0,0.4,0.1,0.8,0.2,1.1
	c0.3,0.5,0.6,1,1.1,1.3c0.2,0.1,0.9-0.5,1.1-0.8c2.6-4.2,4.3-8.8,4.5-13.8c0.1-2-0.3-3.9-1.9-5.4c-0.9-0.8-1.6-0.8-2.3,0.3
	c-0.5,0.7-0.9,1.6-1.1,2.4C218.9,113.1,218.2,117.4,217.5,121.6z M278.7,125c-1.6,2.1-2.7,4.1-2.9,6.5c-0.1,1-0.1,2,0.1,2.9
	c0.1,0.5,0.6,1.2,1.1,1.4c0.4,0.1,1.2-0.2,1.5-0.6c0.6-0.9,1.2-2,1.4-3C280.3,129.8,279.7,127.5,278.7,125z M328,125.1
	c-1.5,1.9-2.5,3.9-2.9,6.1c-0.2,1.1-0.1,2.3,0.1,3.4c0.3,1.5,1.5,1.9,2.5,0.7c0.7-0.8,1.2-1.9,1.5-2.9
	C329.6,129.9,329,127.5,328,125.1z"/>
</svg>
