<?xml version="1.0" encoding="utf-8"?>
<!-- Generator: Adobe Illustrator 22.0.1, SVG Export Plug-In . SVG Version: 6.00 Build 0)  -->
<svg version="1.1" id="Layer_1" xmlns="http://www.w3.org/2000/svg" xmlns:xlink="http://www.w3.org/1999/xlink" x="0px" y="0px"
	 viewBox="0 0 500 500" style="enable-background:new 0 0 500 500;" xml:space="preserve">
<path d="M376.1,223.5c-0.3,0.3-0.7,0.5-1,0.8c-14.3,14.3-28.5,28.7-42.9,42.8c-5.8,5.7-12.1,10.9-18.2,16.2
	c-14.7,12.9-29.4,25.7-44,38.6c-0.4,0.4-0.7,0.9-0.8,1.4c-2.4,9.4-4.7,18.8-7.1,28.2c-0.2,0.8-0.6,1.6-1,2.2
	c-9.8,12.3-19.6,24.5-29.4,36.8c-0.4,0.5-0.8,0.9-1.2,1.3c-12.1,12.1-24.2,24.2-36.3,36.4c-0.6,0.6-1,1.4-1.2,2.2
	c-5,19.7-9.9,39.3-14.8,59c0,0.2-0.1,0.3-0.2,0.6c-0.3-0.3-0.5-0.5-0.6-0.7c-14.9-22.4-29.9-44.8-44.8-67.2c-0.4-0.6-0.7-1.4-1-2.1
	c-7.3-19.5-14.7-38.9-21.9-58.4c-1.6-4.5-2.5-9.2-3.7-13.9c-6.5-25.8-12.9-51.6-19.4-77.4c-0.2-0.9-0.1-1.6,0.3-2.5
	c7.3-14.5,14.5-28.9,21.7-43.4c0.3-0.7,0.5-1.5,0.4-2.2c-1.6-15-3.3-30-5-45c-0.8-7.5-1.7-14.9-2.5-22.4c0-0.4,0-0.8,0-1.2
	c0-19.5,0-39.1,0-58.6c0-0.8,0.2-1.6,0.4-2.3c7.3-19.6,14.7-39.2,22-58.8c0.4-1,0.8-1.2,1.8-1.2c6.8,0,13.6,0,20.4,0
	c0.7,0,1.5,0.2,2.1,0.5c4.4,2.2,8.8,4.4,13.2,6.6c0.8,0.4,1.4,0.4,2.1-0.2c12-9.7,24.1-19.3,36.1-28.9c0.7-0.6,1.3-0.8,2.2-0.5
	c9.4,2.4,18.9,4.7,28.3,7.1c0.5,0.1,1.2,0.6,1.4,1.1c7.4,14.7,14.8,29.4,22,44.1c1.1,2.2,1.3,4.7,1.8,7.1
	c4.5,20.4,9.1,40.9,13.6,61.3c0.1,0.6,0.4,1.2,0.7,1.7c4.7,7.1,9.4,14.1,14.2,21.2c0.3,0.5,1,0.9,1.5,1.1c9.4,2.4,18.8,4.7,28.2,7.1
	c0.9,0.2,1.5,0.6,1.9,1.5c4.6,9.3,9.3,18.6,13.9,27.9c0.5,1,1.2,1.5,2.3,1.8c9.3,2.3,18.7,4.6,28,7c0.5,0.1,1,0.4,1.3,0.8
	c4.9,7.3,9.8,14.6,14.6,21.9C376,223,376,223.1,376.1,223.5z"/>
<path d="M387.3,443.2c-3,5.2-6,10.5-9,15.7c-0.6,1-1.2,2.1-2,3c-1.9,2.2-4.7,1.9-6.1-0.7c-1.2-2-1-4.3-0.9-6.5
	c0.6-7.8,2.3-15.4,4.2-22.9c0.2-0.6,0.3-1.2,0.4-1.9c-0.1-0.1-0.2-0.1-0.4-0.2c-0.4,0.4-0.8,0.7-1.2,1.1c-4.6,5.6-7.3,12.2-9.2,19.1
	c-0.2,0.9-0.5,1.8-0.6,2.7c-0.2,1.3-1,2-2.2,2.2c-0.3,0.1-0.7,0.1-1,0.2c-2.6,0.2-2.9-0.1-3-2.7c0-2.7,0-5.3,0-8
	c-0.1,0-0.3-0.1-0.4-0.1c-0.2,0.2-0.4,0.4-0.6,0.7c-1.7,2.5-3.3,5.2-5.3,7.4c-3.3,3.7-9.1,2.1-10.4-2.7c-0.5-1.8-0.7-3.7-1-5.8
	c-0.7,1.1-1.3,2.2-2,3.3c-1.1,1.7-2.2,3.5-3.5,5c-1.5,1.7-3.5,2.6-5.8,1.7c-2.4-0.9-3.7-2.8-3.9-5.3c-0.1-2.1,0-4.2,0-6.2
	c-0.1,0-0.2-0.1-0.3-0.1c-0.3,0.5-0.5,1-0.8,1.6c-1.1,2.3-2.2,4.6-3.3,6.8c-1.1,2.2-2.9,3.1-5.3,3c-2.3-0.1-3.9-1.2-4.8-3.2
	c-0.6-1.4-0.9-2.9-1.3-4.5c-0.9,1.7-1.8,3.3-2.6,5.1c-4.8,10.4-9.5,20.8-14.3,31.2c-0.6,1.4-1.6,2.7-2.7,3.6c-1.7,1.5-4,1.1-5.4-0.8
	c-1.6-2.2-1.9-4.7-2-7.3c-0.2-7.5,1-14.9,2.5-22.2c2.7-12.7,5.5-25.5,8.2-38.2c0.5-2.2,0.7-4.5,1-6.8c0.1-0.8-0.1-1.7-0.2-2.5
	c-0.2,0-0.3-0.1-0.5-0.1c-0.5,0.6-1.2,1.2-1.6,1.9c-2.6,4.6-5.3,9.1-7.7,13.8c-3.2,6.2-6.1,12.6-7.7,19.5c-1.1,4.7-1.8,9.4-2.7,14.1
	c-0.2,1-0.4,2-1.6,2.1c-1.4,0.2-2.8,0.3-3.8-0.9c-0.4-0.4-0.4-1.3-0.3-1.9c0.6-5,1.3-10.1,1.8-15.1c0.9-9.8,1.8-19.6,2.6-29.4
	c0.1-1-0.2-1.9-0.3-2.9c-0.1,0-0.3-0.1-0.4-0.1c-0.4,0.6-0.8,1.2-1.1,1.8c-3.3,7.5-6.9,15-8.6,23.1c-1.8,8.4-2.7,16.9-3.3,25.5
	c0,0.5,0,0.9-0.1,1.4c-0.1,0.3-0.1,0.7-0.4,0.9c-1.1,0.9-2.4,0.6-3.6,0.4c-1-0.2-1.2-1-1.2-1.9c0.1-4.1,0.2-8.2,0.4-12.4
	c0.4-8.5,0.9-17.1,1.3-25.6c0.3-5,0.5-10,0.8-15c0.1-1.3,0.7-2.1,2-2.3c0.4-0.1,0.9-0.2,1.4-0.2c1.9,0,2.7,0.7,2.6,2.6
	c-0.1,3.4-0.3,6.8-0.5,10.2c-0.1,2.4,0,4.7,0,6.7c1.1-2.6,2.4-5.7,3.7-8.6c1-2.3,2-4.7,3.3-6.8c0.9-1.4,2.1-2.7,3.5-3.7
	c2.5-1.7,5.5-0.4,5.7,2.7c0.2,3.8,0.1,7.6,0.1,11.5c0,3,0,6.1-0.2,9.2c0.1-0.2,0.3-0.5,0.4-0.7c2.6-6.7,5.8-13,9.8-18.9
	c0.9-1.4,2.2-2.6,3.5-3.6c1.9-1.4,4.1-1.4,6.1-0.3c2,1.1,2.8,2.9,2.6,5c-0.6,5.5-1,11.1-2,16.6c-2.6,13.5-5.6,27-8.4,40.5
	c-0.9,4.3-1.4,8.6-2.1,12.9c-0.1,0.8,0,1.7,0.1,2.6c0.1,0.9,0.7,1,1.2,0.3c0.5-0.7,1-1.5,1.4-2.4c3.2-6.9,6.2-13.9,9.5-20.8
	c3.1-6.6,6.6-13,9.8-19.5c0.4-0.7,0.5-1.6,0.6-2.4c0.6-2.7,1.3-5.3,3-7.6c0.5-0.7,1.1-1.3,1.7-1.8c2.8-2.2,6.5-1.4,8.2,1.7
	c0.7,1.2,1.2,2.5,1.8,4c1-1.8,1.9-3.4,2.7-5.1c1.1-2,3.1-2.6,5.1-1.5c1.2,0.6,1.2,1.7,1,2.8c-0.4,2.3-0.9,4.7-1.2,7
	c-0.5,3.5-0.9,7.1-1.2,10.7c-0.1,1-0.2,2.5,1,2.9c1.2,0.4,1.8-0.9,2.3-1.7c2.1-3.2,4.1-6.4,5.9-9.7c0.6-1,0.5-2.4,0.7-3.6
	c0.4-1.8,0.7-3.7,1.1-5.5c0.4-2,2-2.8,4.5-2.3c1.5,0.3,2.2,1.6,1.9,3.5c-0.7,3.5-1.4,7-2,10.6c-0.3,1.9-0.4,3.8-0.4,5.7
	c0,1.7,0.7,2.9,1.9,3.2c1.5,0.4,2.6-0.3,3.4-1.4c1.4-1.9,2.4-4.1,3.9-5.9c2-2.5,2.5-5.2,2.3-8.3c-0.1-2.1,0-4.2,0.1-6.4
	c0-1.5,0.5-2,1.9-2.4c0.5-0.1,1-0.2,1.5-0.2c2.6-0.1,3.5,0.7,3.4,3.4c-0.1,3.9-0.3,7.7-0.5,11.6c0,0.7,0,1.4,0.1,2.2
	c0.2-0.4,0.4-0.7,0.5-1.1c2-4.6,4-9.2,7.3-13c1-1.2,2.3-2.3,3.7-3.1c2-1.1,3.8-0.3,4.8,1.8c0.9,2.1,0.8,4.3,0.4,6.4
	c-1,5.5-2.2,10.9-3.2,16.4c-0.5,2.6-0.7,5.3-1.1,8c0.1,0,0.2,0.1,0.3,0.1c0.2-0.3,0.4-0.6,0.6-0.9c3.9-6.4,7.7-12.8,11.5-19.2
	c0.4-0.7,0.7-1.6,1-2.4c1.1-4.6,3.6-8.1,8.1-9.9c1-0.4,2.2-0.6,3.3-0.6c2.4,0,3.9,1.5,3.9,3.9c0,3-1.3,5.5-3.5,7.5
	c-1.5,1.4-3.4,2.5-5.1,3.8c-0.3,0.2-0.7,0.5-0.9,0.8c-1.2,2.2-0.5,6.8,1.2,8.6c1.4,1.5,2.9,2,5,0.9c1.4-0.7,2.7-1.8,3.6-3.1
	c1.9-2.6,3.5-5.4,5.2-8.1c0.7-1.1,1.4-2.2,2.1-3.3c0.4-0.6,1-1.2,1.7-0.7c0.8,0.5,0.4,1.2,0,1.8c-2.5,3.9-5,7.9-7.7,11.7
	c-1.7,2.5-4.1,4.2-7.2,4.4c-5.9,0.4-9.3-2.4-10.1-8.2c-0.1-1-0.2-2-0.3-3C387.5,443.3,387.4,443.3,387.3,443.2z M313.7,446.4
	c0.1,0,0.1,0,0.2,0.1c0.1,1,0.1,2.1,0.4,3.1c0.2,0.6,0.7,1.1,1.1,1.7c0.4-0.4,1-0.7,1.3-1.2c2.3-3.6,3.7-7.6,4.3-11.9
	c0.3-2.1,0.3-4.2-0.8-6.1c-0.5-0.8-1.4-1.8-2.1-1.8c-0.7,0-1.4,1.2-1.9,2c-0.3,0.5-0.5,1.1-0.5,1.6
	C314.9,438.1,314.3,442.3,313.7,446.4z M394.6,438.9c0.1,0.1,0.2,0.1,0.3,0.2c1.8-1.1,3.4-2.3,4.6-4.1c1-1.5,1.6-3.2,1.1-5.1
	c-0.1-0.4-0.4-1-0.7-1.1c-0.3-0.1-0.9,0.3-1.1,0.6c-1,1.7-2.1,3.4-3,5.2C395.3,435.9,395,437.4,394.6,438.9z"/>
<path d="M345.5,420.3c-1.3,0-2.1-0.8-2.1-2c0-1.3,1.1-2.4,2.4-2.4c1.2,0,2.2,0.9,2.1,2.1C347.9,419.4,346.8,420.4,345.5,420.3z"/>
</svg>
