<?xml version="1.0" encoding="utf-8"?>
<!-- Generator: Adobe Illustrator 22.0.1, SVG Export Plug-In . SVG Version: 6.00 Build 0)  -->
<svg version="1.1" id="Layer_1" xmlns="http://www.w3.org/2000/svg" xmlns:xlink="http://www.w3.org/1999/xlink" x="0px" y="0px"
	 viewBox="0 0 500 500" style="enable-background:new 0 0 500 500;" xml:space="preserve">
<style type="text/css">
	.st0{fill:none;stroke:#000000;stroke-width:0;stroke-linecap:round;stroke-linejoin:round;stroke-miterlimit:10;}
</style>
<g id="POLYLINE_1_">
	<path class="st0" d="M5,398.1V265.6l92.7-13.2l198.6-79.5l39.7,13.2l-13.2,53l39.7,39.7l53,39.7h39.7l-26.5-39.7h39.7l26.5,39.7
		l-13.2,26.5l-53,39.7l13.2,39.7h-53l-13.2-39.7h-39.7l-66.2-53L5,398.1"/>
</g>
<g id="HATCH_3_">
	<path d="M5,398.1V265.6l92.7-13.2l198.6-79.5l39.7,13.2l-13.2,53l39.7,39.7l53,39.7h39.7l-26.5-39.7h39.7l26.5,39.7l-13.2,26.5
		l-53,39.7l13.2,39.7h-53l-13.2-39.7h-39.7l-66.2-53L5,398.1C5,398.1,5,398.1,5,398.1z"/>
</g>
<g id="SPLINE_17_">
	<path class="st0" d="M409.5,112.3c-0.8-0.7-1.6,0.3-1.6,0.3c-3,4.5-5.1,6.2-9.9,7.8c-0.4,0.2-0.5,0-0.6-0.2c-2.5-5.1-5.4-11-4-16.3
		c0.2-1,1.1-3.5,2.1-1.9c0.8,1.5,0.8,3.2,0.7,4.9c-0.1,2,2.9,1.4,2.9,0c0-1.5-0.1-3-0.5-4.4c-0.6-2.5-2.2-3.7-4.9-3.4
		c-3.7,0.5-6.8,3.3-7.2,7c-0.4,2.7,0.2,5.2,1.1,7.6c-2.2,3.5-4.3,7.1-6.5,10.5c-1,1.6-2.2,3.4-4,3.4c-6.2-0.2-3.5-15.9-3-19
		c0.1-0.8,3.4-18.5,3.5-18.5c2.2,0,4.7,0.1,6.8-0.1c1.1,0,1.4-1.7,0.6-2.2c-0.2-0.2-0.4-0.2-0.7-0.2c-2.1-0.2-4-0.3-5.9-0.3
		c0.2-1.1,1.7-7.9,1.9-8.7c0.5-3.8-3.8-3.7-5.1-1.3c-1.1,1.9-1.6,3.9-3.5,9.7c-1.7,0-2-0.1-3.4-0.1c-0.3,0-0.5,0-0.8,0
		c-0.8,0-1.4,0.6-1.4,1.4c0,0.5,0.3,0.8,0.6,0.8c0.4,0.2,4.2,0.7,4.2,0.7c-1.5,7.5-3.8,16.1-4,24.1c-2.2,3.5-4.2,7-6.4,10.3
		c-1,1.6-2.2,3.4-4,3.4c-6.2-0.2-3.5-15.9-3-19c0.1-0.8,3.4-18.5,3.5-18.5c2.2,0,4,0.1,6.1-0.1c1.1,0,1.4-1.7,0.6-2.2
		c-0.2-0.2-0.4-0.2-0.7-0.2c-2.1-0.2-3.4-0.3-5.3-0.3c0.2-1.1,1.7-7.9,1.9-8.7c0.5-3.8-3.8-3.7-5.1-1.3c-1.1,1.9-1.6,3.9-3.5,9.7
		c-1.7,0-3-0.1-4.3-0.1c-0.3,0-0.5,0-0.8,0c-0.8,0-1.4,0.6-1.4,1.4c0,0.5,0.3,0.8,0.6,0.8c0.4,0.2,5.1,0.7,5.1,0.7
		c-1.5,7.5-3.7,16-4,23.9c-1.8,2.9-3.2,5-3.8,5.9c-0.7,1.3-1.5,2.6-2.4,4c-1.3,1.8-2.3,3.3-4.5,4.1c-1.1,0.3-2.1,0.5-3.2,0.2
		c-0.8-0.3-1.5-1-2-1.6c-1.7-2.3-1.8-5.9-1-8.5c0-0.1,0.1-0.2,0.2-0.4c0.2-0.2,0.4-0.2,0.5-0.3c2-1.1,3.9-2.3,5.5-3.9
		c1.5-1.5,2.6-3.4,3.2-5.4c1.3-4-1.1-6.9-5.2-6c-1.8,0.3-3.6,1.2-5,2.3c-3,2.2-4.5,5.7-5.2,9.2c0,0,0,0,0,0.1
		c-2.7,3.9-4.8,5.5-9.4,7c-0.4,0.2-0.5,0-0.6-0.2c-2.5-5.1-5.4-11-4-16.3c0.2-1,1.1-3.5,2.1-1.9c0.8,1.5,0.8,3.2,0.7,4.9
		c-0.1,2,2.9,1.4,2.9,0c0-1.5-0.1-3-0.5-4.4c-0.6-2.5-2.2-3.7-4.9-3.4c-3.7,0.5-6.8,3.3-7.2,7c-0.4,2.7,0.2,5.2,1.1,7.6
		c-4.2,7-7.5,13.8-10.7,20.7c-0.4,0.8-0.8,1.8-1.5,2.6c0-2.1,0.3-3.9,0.5-5.9c1-8,2.2-16,2.9-23.9c0-1.5-0.4-3.2-1.9-3.7
		c-1.5-0.6-3.2-0.2-4.2,1c-2.5,3.1-3.7,7.1-5.2,10.7c-1.5,3.9-3,7.9-4.2,11.8c-2.3-6.6-0.5-14.3,0.1-21.1c0.3-2.6-0.6-3.7-3.3-3.4
		c-1.5,0.1-2.1,1-2.5,2.3c-0.8,3.3-1.1,6.7-1.3,10.1c-0.3,0.5-0.6,1.1-0.9,1.6l-11.8,19.8c0-3.9,2.6-16.2,2.6-16.5
		c0,0,0.6-3.3,1-4.9c0.6-3.6,1.8-11.6-4.3-10.2c-3.7,0.7-6.7,6.7-8.4,9.2c0-1.3,0.1-7.6,0.7-8.4c5.3-5.8,9.3-13.4,10.8-20.8
		c0.7-4.2-1.2-7.2-5-7.3c-5.8-0.2-8.6,5.4-10.1,10.3c-2.3,7.9-2.8,16.9-3.5,25c-0.1,1-0.2,1.9-0.2,2.9c-1.2,1.9-2.1,3.3-2.4,4
		c-1.9,3.1-4.8,7.7-8.7,8.4c-1.3,0.2-2.6-0.1-3.6-1.1c-0.7-0.8-1.2-2.1-1.4-3.3c-0.7-4.8-0.1-10.1,1.6-14.7c0.5-1.3,1.4-4.1,2.8-4.8
		c2.1-0.7,3,8.7,5.7,5.3c0.5-0.7-0.8-3.2-1.2-3.8c-1.2-2.9-2.5-3.6-5.6-3.5c-2.2,0.1-4.3,0.8-5.8,2.4c-2.4,2.6-3.6,6.7-4,10.8
		c-1.1,1.7-2.1,3.3-2.6,4.2c-1.4,2.3-4.1,7.3-5.4,7.3c-2.4,0-1.1-8.5-0.8-10.2c0.5-3.6,1.4-7.1,1.9-10.7c0.2-1.5,0.2-2.8-1.7-3.3
		c-2.1-0.6-3.6,0-4.3,1.6l-3,5.5c-1.1-2.5-1.8-5.7-4.7-6.9c-6.4-1.8-9.5,5.3-10.5,12c-2.2,2.8-4.4,4.2-8.3,5.5
		c-0.4,0.2-0.5,0-0.6-0.2c-2.5-5.1-5.4-11-4-16.3c0.2-1,1.1-3.5,2.1-1.9c0.8,1.5,0.8,3.2,0.7,4.9c-0.1,2,2.9,1.4,2.9,0
		c0-1.5-0.1-3-0.5-4.4c-0.6-2.5-2.2-3.7-4.9-3.4c-3.7,0.5-6.8,3.3-7.2,7c-0.4,2.6,0.1,5.1,1.1,7.5c-2.6,3.8-4.8,5.4-9.3,6.9
		c-0.4,0.2-0.5,0-0.6-0.2c-2.5-5.1-5.4-11-4-16.3c0.2-1,1.1-3.5,2.1-1.9c0.8,1.5,0.8,3.2,0.7,4.9c-0.1,2,2.9,1.4,2.9,0
		c0-1.5-0.1-3-0.5-4.4c-0.6-2.5-2.2-3.7-4.9-3.4c-3.7,0.5-6.8,3.3-7.2,7c-0.4,2.7,0.2,5.2,1.1,7.6c-1.4,2.3-3,4.8-3.7,6
		c-1.4,2.3-4.1,7.3-5.4,7.3c-2.4,0-1.1-8.5-0.8-10.2c0.5-3.6,1.4-7.1,1.9-10.7c0.2-1.5,0.2-2.8-1.7-3.3c-2.1-0.6-3.6,0-4.3,1.6
		l-3,5.5c-1.1-2.5-1.8-5.7-4.7-6.9c-6.6-1.8-9.6,5.6-10.6,12.4c-7.3,11.9-16.7,34.8-20.4,42.4c-1.3,2.8-5.5,6.8,1.8-23.9
		c1.5-5.9,10.2-45.3,8.4-50.8c-0.7-2.5-3.3-4-6.1-3.7c-2.4,0.2-4.5,2.4-5.7,4c-6,8.7-11.1,20.7-11.1,22.4l0.8-19.5
		c0-1.3-0.2-2.5-0.4-3.8c-0.5-3.3-6.2-6.2-11.1,5c-2.8,6.5-3.4,7.2-5.7,13.6c0.3-5.7,0.5-12.9,0.8-18.9c0-1.5-0.6-2.3-2.1-2.4
		c-2.1,0-3.7,0.4-3.8,2.1c-0.8,16.5-2.2,37.2-2.6,53.1c-0.1,2.4,0.3,3.2,2.8,3.1c2.5,0.1,2.4-0.5,2.6-3.9c0.4-7.1,1.8-17.7,3.2-24.4
		c1.6-7.8,5.4-15.7,8.4-23l1-1.8c4.2-8.5-2.6,43.2-3.2,48c-0.1,1.5,1.3,2,2.6,2.1c2.1,0.2,3-0.4,3.2-2.2c0.7-3.8,1.5-8.7,2.3-12.7
		c2.8-13.6,16.5-37.8,17.8-37.3c3.8,0-10.5,47.3-11.2,65.6c-0.1,1.5-0.1,3.5-0.1,4.5c0,11.2,7,12.4,10.1,5.6
		c5.6-12.4,10.7-25,17.6-37.9c0,0.7,0,1.3,0.1,1.9c0.1,1.4,0.6,2.9,1.4,4.1c2.2,3.5,7.7,3.3,9.6-0.2c1.7-3.1,3.1-6.5,4.8-9.6
		c0,2.3-0.1,4.7,0,7.1c0.2,3.6,3.8,7,7.4,5.5c3.6-1.5,5.4-5.7,7.3-8.8c0.8-1.2,2-3.2,3.1-4.8c1.2,2.5,2.5,4.9,3.4,7.2
		c-3.1,3.1-5.3,7.6-4.7,12c0.8,6.5,8.9,4.2,11.3,0.1c2.3-3.9,1.1-7.6-0.3-11.7c-0.1-0.1-0.2-0.3-0.1-0.4c0.1-0.1,0.2-0.2,0.3-0.2
		c3.8-1.7,6.4-2.7,9.7-7c1.2,2.5,2.6,5,3.5,7.3c-3.1,3.1-5.3,7.6-4.7,12c0.8,6.5,8.9,4.2,11.3,0.1c2.3-3.9,1.1-7.6-0.3-11.7
		c-0.1-0.1-0.2-0.3-0.1-0.4c0.1-0.1,0.2-0.2,0.3-0.2c2.8-1.3,5-2.2,7.4-4.4c-0.1,1.6-0.1,3.1,0,4.3c0.1,1.4,0.6,2.9,1.4,4.1
		c2.2,3.5,7.7,3.3,9.6-0.2c1.7-3.1,3.1-6.5,4.8-9.6c0,2.3-0.1,4.7,0,7.1c0.2,3.6,3.8,7,7.4,5.5c3.6-1.5,5.4-5.7,7.3-8.8
		c0.3-0.4,0.6-0.9,0.9-1.4c0.1,1.2,0.2,2.3,0.4,3.3c0.7,3.5,2.3,6.7,6.1,7.6c3.5,0.7,6.9,0,9.7-2.1c2.4-1.9,4-4.7,5.5-7.1
		c0.2-0.3,0.5-0.8,0.8-1.3c0,0.8,0,1.6,0,2.4c0,1.9-1.1,7.7,2.3,7.7c1.4,0,2.4-0.2,2.8-1.8c2-12.1,8.8-19.6,10.5-20.8
		c-1.3,5.6-3,12.3-3.8,17.5c-0.7,4.3-2.2,13.9,3.2,14.5c1.2,0,2.3-0.6,3.2-1.4c0.8-0.8,1.4-1.9,1.9-3c4.6-7.9,7.4-12.7,9.1-15.7
		c0,0.3,0,0.6,0,0.9c0,4.2,1.4,9.6,5.9,9.6c2.2,0,3.2-1.5,3.7-3.2c1.1-2.9,5.3-14.4,6.6-17.1c-1.4,8.5-2.3,16.3-2.2,24.4
		c0,3.1,1.4,5.3,4.3,5.6c1.6,0.1,2.5-1,3.4-2.3c3.9-7.3,7-14.6,10.8-21c1.2,2.4,2.5,4.8,3.4,7c-3.1,3.1-5.3,7.6-4.7,12
		c0.8,6.5,8.9,4.2,11.3,0.1c2.3-3.9,1.1-7.6-0.3-11.7c-0.1-0.1-0.2-0.3-0.1-0.4c0.1-0.1,0.2-0.2,0.3-0.2c3.2-1.5,5.7-2.4,8.4-5.4
		c-0.2,2.8,0.1,5.6,1.3,8.4c1.6,3.9,6.2,5.2,10.1,4.4c5.1-1.1,7.2-5.4,9.7-9.3c0.5-0.8,1.3-1.9,2.2-3.4c0.1,1.7,0.3,3.4,0.7,5
		c0.4,1.7,1.1,3.3,2.1,4.7c2.8,3.4,8.1,4.4,11.8-0.3c2.3-3,4.1-6,5.9-9.2c0.1,1.7,0.3,3.3,0.7,4.8c0.4,1.7,1.1,3.3,2.1,4.7
		c2.8,3.4,8.1,4.4,11.8-0.3c2.7-3.5,4.7-7.1,6.9-10.8c1.2,2.5,2.5,4.8,3.4,7.1c-3.1,3.1-5.3,7.6-4.7,12c0.8,6.5,8.9,4.2,11.3,0.1
		c2.3-3.9,1.1-7.6-0.3-11.7c-0.1-0.1-0.2-0.3-0.1-0.4c0.1-0.1,0.2-0.2,0.3-0.2c4.2-1.9,7.1-3,11-8.8
		C409.5,114,410.3,112.8,409.5,112.3z"/>
</g>
<g id="SPLINE_16_">
	<path class="st0" d="M330.1,113c0.3-1.4,0.8-2.8,1.4-4.1c0.4-0.8,3.5-6.9,4.3-4.3c0.8,2.2,0,4.4-1.3,6.2c-0.6,0.8-1.3,1.4-2,2.1
		c-0.2,0.1-2.5,1.9-2.5,1.8C330,114.1,330,113.6,330.1,113z"/>
</g>
<g id="SPLINE_15_">
	<path class="st0" d="M256.2,81.2c0.4-0.5,0.8-1.2,1.7-1.1c4.2,1.3,0.6,9.3,0,11.2c-1.4,3.8-4.4,8.4-6.9,11.6
		C251.4,96.2,253,87.3,256.2,81.2z"/>
</g>
<g id="SPLINE_14_">
	<path class="st0" d="M126,127c-2.9,0-1.3-9.7-1-12.3c0.3-1.9,1.1-9.5,3.8-9.2C136.1,109.5,127.5,127,126,127z"/>
</g>
<g id="SPLINE_13_">
	<path class="st0" d="M155.8,136.2c-1,1.2-2.4,1-2.8-0.6c-0.8-3.6,0.8-7.3,3-10.1C157.4,128.7,158.4,133.6,155.8,136.2z"/>
</g>
<g id="SPLINE_12_">
	<path class="st0" d="M175.6,136.2c-1,1.2-2.4,1-2.8-0.6c-0.8-3.6,0.8-7.3,3-10.1C177.2,128.7,178.2,133.6,175.6,136.2z"/>
</g>
<g id="SPLINE_11_">
	<path class="st0" d="M196.8,127c-2.9,0-1.3-9.7-1-12.3c0.3-1.9,1.1-9.5,3.8-9.2C206.8,109.5,198.3,127,196.8,127z"/>
</g>
<g id="SPLINE_10_">
	<path class="st0" d="M308.6,136.2c-1,1.2-2.4,1-2.8-0.6c-0.8-3.6,0.8-7.3,3-10.1C310.2,128.7,311.1,133.6,308.6,136.2z"/>
</g>
<g id="SPLINE_9_">
	<path class="st0" d="M392.6,136.2c-1,1.2-2.4,1-2.8-0.6c-0.8-3.6,0.8-7.3,3-10.1C394.2,128.7,395.1,133.6,392.6,136.2z"/>
</g>
<g id="HATCH_2_">
	<path d="M409.5,112.3c-0.8-0.7-1.6,0.3-1.6,0.3c-3,4.5-5.1,6.2-9.9,7.8c-0.4,0.2-0.5,0-0.6-0.2c-2.5-5.1-5.4-11-4-16.3
		c0.2-1,1.1-3.5,2.1-1.9c0.8,1.5,0.8,3.2,0.7,4.9c-0.1,2,2.9,1.4,2.9,0c0-1.5-0.1-3-0.5-4.4c-0.6-2.5-2.2-3.7-4.9-3.4
		c-3.7,0.5-6.8,3.3-7.2,7c-0.4,2.7,0.2,5.2,1.1,7.6c-2.2,3.5-4.3,7.1-6.5,10.5c-1,1.6-2.2,3.4-4,3.4c-6.2-0.2-3.5-15.9-3-19
		c0.1-0.8,3.4-18.5,3.5-18.5c2.2,0,4.7,0.1,6.8-0.1c1.1,0,1.4-1.7,0.6-2.2c-0.2-0.2-0.4-0.2-0.7-0.2c-2.1-0.2-4-0.3-5.9-0.3
		c0.2-1.1,1.7-7.9,1.9-8.7c0.5-3.8-3.8-3.7-5.1-1.3c-1.1,1.9-1.6,3.9-3.5,9.7c-1.7,0-2-0.1-3.4-0.1c-0.3,0-0.5,0-0.8,0
		c-0.8,0-1.4,0.6-1.4,1.4c0,0.5,0.3,0.8,0.6,0.8c0.4,0.2,4.2,0.7,4.2,0.7c-1.5,7.5-3.8,16.1-4,24.1c-2.2,3.5-4.2,7-6.4,10.3
		c-1,1.6-2.2,3.4-4,3.4c-6.2-0.2-3.5-15.9-3-19c0.1-0.8,3.4-18.5,3.5-18.5c2.2,0,4,0.1,6.1-0.1c1.1,0,1.4-1.7,0.6-2.2
		c-0.2-0.2-0.4-0.2-0.7-0.2c-2.1-0.2-3.4-0.3-5.3-0.3c0.2-1.1,1.7-7.9,1.9-8.7c0.5-3.8-3.8-3.7-5.1-1.3c-1.1,1.9-1.6,3.9-3.5,9.7
		c-1.7,0-3-0.1-4.3-0.1c-0.3,0-0.5,0-0.8,0c-0.8,0-1.4,0.6-1.4,1.4c0,0.5,0.3,0.8,0.6,0.8c0.4,0.2,5.1,0.7,5.1,0.7
		c-1.5,7.5-3.7,16-4,23.9c-1.8,2.9-3.2,5-3.8,5.9c-0.7,1.3-1.5,2.6-2.4,4c-1.3,1.8-2.3,3.3-4.5,4.1c-1.1,0.3-2.1,0.5-3.2,0.2
		c-0.8-0.3-1.5-1-2-1.6c-1.7-2.3-1.8-5.9-1-8.5c0-0.1,0.1-0.2,0.2-0.4c0.2-0.2,0.4-0.2,0.5-0.3c2-1.1,3.9-2.3,5.5-3.9
		c1.5-1.5,2.6-3.4,3.2-5.4c1.3-4-1.1-6.9-5.2-6c-1.8,0.3-3.6,1.2-5,2.3c-3,2.2-4.5,5.7-5.2,9.2c0,0,0,0,0,0.1
		c-2.7,3.9-4.8,5.5-9.4,7c-0.4,0.2-0.5,0-0.6-0.2c-2.5-5.1-5.4-11-4-16.3c0.2-1,1.1-3.5,2.1-1.9c0.8,1.5,0.8,3.2,0.7,4.9
		c-0.1,2,2.9,1.4,2.9,0c0-1.5-0.1-3-0.5-4.4c-0.6-2.5-2.2-3.7-4.9-3.4c-3.7,0.5-6.8,3.3-7.2,7c-0.4,2.7,0.2,5.2,1.1,7.6
		c-4.2,7-7.5,13.8-10.7,20.7c-0.4,0.8-0.8,1.8-1.5,2.6c0-2.1,0.3-3.9,0.5-5.9c1-8,2.2-16,2.9-23.9c0-1.5-0.4-3.2-1.9-3.7
		c-1.5-0.6-3.2-0.2-4.2,1c-2.5,3.1-3.7,7.1-5.2,10.7c-1.5,3.9-3,7.9-4.2,11.8c-2.3-6.6-0.5-14.3,0.1-21.1c0.3-2.6-0.6-3.7-3.3-3.4
		c-1.5,0.1-2.1,1-2.5,2.3c-0.8,3.3-1.1,6.7-1.3,10.1c-0.3,0.5-0.6,1.1-0.9,1.6l-11.8,19.8c0-3.9,2.6-16.2,2.6-16.5
		c0,0,0.6-3.3,1-4.9c0.6-3.6,1.8-11.6-4.3-10.2c-3.7,0.7-6.7,6.7-8.4,9.2c0-1.3,0.1-7.6,0.7-8.4c5.3-5.8,9.3-13.4,10.8-20.8
		c0.7-4.2-1.2-7.2-5-7.3c-5.8-0.2-8.6,5.4-10.1,10.3c-2.3,7.9-2.8,16.9-3.5,25c-0.1,1-0.2,1.9-0.2,2.9c-1.2,1.9-2.1,3.3-2.4,4
		c-1.9,3.1-4.8,7.7-8.7,8.4c-1.3,0.2-2.6-0.1-3.6-1.1c-0.7-0.8-1.2-2.1-1.4-3.3c-0.7-4.8-0.1-10.1,1.6-14.7c0.5-1.3,1.4-4.1,2.8-4.8
		c2.1-0.7,3,8.7,5.7,5.3c0.5-0.7-0.8-3.2-1.2-3.8c-1.2-2.9-2.5-3.6-5.6-3.5c-2.2,0.1-4.3,0.8-5.8,2.4c-2.4,2.6-3.6,6.7-4,10.8
		c-1.1,1.7-2.1,3.3-2.6,4.2c-1.4,2.3-4.1,7.3-5.4,7.3c-2.4,0-1.1-8.5-0.8-10.2c0.5-3.6,1.4-7.1,1.9-10.7c0.2-1.5,0.2-2.8-1.7-3.3
		c-2.1-0.6-3.6,0-4.3,1.6l-3,5.5c-1.1-2.5-1.8-5.7-4.7-6.9c-6.4-1.8-9.5,5.3-10.5,12c-2.2,2.8-4.4,4.2-8.3,5.5
		c-0.4,0.2-0.5,0-0.6-0.2c-2.5-5.1-5.4-11-4-16.3c0.2-1,1.1-3.5,2.1-1.9c0.8,1.5,0.8,3.2,0.7,4.9c-0.1,2,2.9,1.4,2.9,0
		c0-1.5-0.1-3-0.5-4.4c-0.6-2.5-2.2-3.7-4.9-3.4c-3.7,0.5-6.8,3.3-7.2,7c-0.4,2.6,0.1,5.1,1.1,7.5c-2.6,3.8-4.8,5.4-9.3,6.9
		c-0.4,0.2-0.5,0-0.6-0.2c-2.5-5.1-5.4-11-4-16.3c0.2-1,1.1-3.5,2.1-1.9c0.8,1.5,0.8,3.2,0.7,4.9c-0.1,2,2.9,1.4,2.9,0
		c0-1.5-0.1-3-0.5-4.4c-0.6-2.5-2.2-3.7-4.9-3.4c-3.7,0.5-6.8,3.3-7.2,7c-0.4,2.7,0.2,5.2,1.1,7.6c-1.4,2.3-3,4.8-3.7,6
		c-1.4,2.3-4.1,7.3-5.4,7.3c-2.4,0-1.1-8.5-0.8-10.2c0.5-3.6,1.4-7.1,1.9-10.7c0.2-1.5,0.2-2.8-1.7-3.3c-2.1-0.6-3.6,0-4.3,1.6
		l-3,5.5c-1.1-2.5-1.8-5.7-4.7-6.9c-6.6-1.8-9.6,5.6-10.6,12.4c-7.3,11.9-16.7,34.8-20.4,42.4c-1.3,2.8-5.5,6.8,1.8-23.9
		c1.5-5.9,10.2-45.3,8.4-50.8c-0.7-2.5-3.3-4-6.1-3.7c-2.4,0.2-4.5,2.4-5.7,4c-6,8.7-11.1,20.7-11.1,22.4l0.8-19.5
		c0-1.3-0.2-2.5-0.4-3.8c-0.5-3.3-6.2-6.2-11.1,5c-2.8,6.5-3.4,7.2-5.7,13.6c0.3-5.7,0.5-12.9,0.8-18.9c0-1.5-0.6-2.3-2.1-2.4
		c-2.1,0-3.7,0.4-3.8,2.1c-0.8,16.5-2.2,37.2-2.6,53.1c-0.1,2.4,0.3,3.2,2.8,3.1c2.5,0.1,2.4-0.5,2.6-3.9c0.4-7.1,1.8-17.7,3.2-24.4
		c1.6-7.8,5.4-15.7,8.4-23l1-1.8c4.2-8.5-2.6,43.2-3.2,48c-0.1,1.5,1.3,2,2.6,2.1c2.1,0.2,3-0.4,3.2-2.2c0.7-3.8,1.5-8.7,2.3-12.7
		c2.8-13.6,16.5-37.8,17.8-37.3c3.8,0-10.5,47.3-11.2,65.6c-0.1,1.5-0.1,3.5-0.1,4.5c0,11.2,7,12.4,10.1,5.6
		c5.6-12.4,10.7-25,17.6-37.9c0,0.7,0,1.3,0.1,1.9c0.1,1.4,0.6,2.9,1.4,4.1c2.2,3.5,7.7,3.3,9.6-0.2c1.7-3.1,3.1-6.5,4.8-9.6
		c0,2.3-0.1,4.7,0,7.1c0.2,3.6,3.8,7,7.4,5.5c3.6-1.5,5.4-5.7,7.3-8.8c0.8-1.2,2-3.2,3.1-4.8c1.2,2.5,2.5,4.9,3.4,7.2
		c-3.1,3.1-5.3,7.6-4.7,12c0.8,6.5,8.9,4.2,11.3,0.1c2.3-3.9,1.1-7.6-0.3-11.7c-0.1-0.1-0.2-0.3-0.1-0.4c0.1-0.1,0.2-0.2,0.3-0.2
		c3.8-1.7,6.4-2.7,9.7-7c1.2,2.5,2.6,5,3.5,7.3c-3.1,3.1-5.3,7.6-4.7,12c0.8,6.5,8.9,4.2,11.3,0.1c2.3-3.9,1.1-7.6-0.3-11.7
		c-0.1-0.1-0.2-0.3-0.1-0.4c0.1-0.1,0.2-0.2,0.3-0.2c2.8-1.3,5-2.2,7.4-4.4c-0.1,1.6-0.1,3.1,0,4.3c0.1,1.4,0.6,2.9,1.4,4.1
		c2.2,3.5,7.7,3.3,9.6-0.2c1.7-3.1,3.1-6.5,4.8-9.6c0,2.3-0.1,4.7,0,7.1c0.2,3.6,3.8,7,7.4,5.5c3.6-1.5,5.4-5.7,7.3-8.8
		c0.3-0.4,0.6-0.9,0.9-1.4c0.1,1.2,0.2,2.3,0.4,3.3c0.7,3.5,2.3,6.7,6.1,7.6c3.5,0.7,6.9,0,9.7-2.1c2.4-1.9,4-4.7,5.5-7.1
		c0.2-0.3,0.5-0.8,0.8-1.3c0,0.8,0,1.6,0,2.4c0,1.9-1.1,7.7,2.3,7.7c1.4,0,2.4-0.2,2.8-1.8c2-12.1,8.8-19.6,10.5-20.8
		c-1.3,5.6-3,12.3-3.8,17.5c-0.7,4.3-2.2,13.9,3.2,14.5c1.2,0,2.3-0.6,3.2-1.4c0.8-0.8,1.4-1.9,1.9-3c4.6-7.9,7.4-12.7,9.1-15.7
		c0,0.3,0,0.6,0,0.9c0,4.2,1.4,9.6,5.9,9.6c2.2,0,3.2-1.5,3.7-3.2c1.1-2.9,5.3-14.4,6.6-17.1c-1.4,8.5-2.3,16.3-2.2,24.4
		c0,3.1,1.4,5.3,4.3,5.6c1.6,0.1,2.5-1,3.4-2.3c3.9-7.3,7-14.6,10.8-21c1.2,2.4,2.5,4.8,3.4,7c-3.1,3.1-5.3,7.6-4.7,12
		c0.8,6.5,8.9,4.2,11.3,0.1c2.3-3.9,1.1-7.6-0.3-11.7c-0.1-0.1-0.2-0.3-0.1-0.4c0.1-0.1,0.2-0.2,0.3-0.2c3.2-1.5,5.7-2.4,8.4-5.4
		c-0.2,2.8,0.1,5.6,1.3,8.4c1.6,3.9,6.2,5.2,10.1,4.4c5.1-1.1,7.2-5.4,9.7-9.3c0.5-0.8,1.3-1.9,2.2-3.4c0.1,1.7,0.3,3.4,0.7,5
		c0.4,1.7,1.1,3.3,2.1,4.7c2.8,3.4,8.1,4.4,11.8-0.3c2.3-3,4.1-6,5.9-9.2c0.1,1.7,0.3,3.3,0.7,4.8c0.4,1.7,1.1,3.3,2.1,4.7
		c2.8,3.4,8.1,4.4,11.8-0.3c2.7-3.5,4.7-7.1,6.9-10.8c1.2,2.5,2.5,4.8,3.4,7.1c-3.1,3.1-5.3,7.6-4.7,12c0.8,6.5,8.9,4.2,11.3,0.1
		c2.3-3.9,1.1-7.6-0.3-11.7c-0.1-0.1-0.2-0.3-0.1-0.4c0.1-0.1,0.2-0.2,0.3-0.2c4.2-1.9,7.1-3,11-8.8
		C409.5,114,410.3,112.8,409.5,112.3z M330.1,113c0.3-1.4,0.8-2.8,1.4-4.1c0.4-0.8,3.5-6.9,4.3-4.3c0.8,2.2,0,4.4-1.3,6.2
		c-0.6,0.8-1.3,1.4-2,2.1c-0.2,0.1-2.5,1.9-2.5,1.8C330,114.1,330,113.6,330.1,113z M256.2,81.2c0.4-0.5,0.8-1.2,1.7-1.1
		c4.2,1.3,0.6,9.3,0,11.2c-1.4,3.8-4.4,8.4-6.9,11.6C251.4,96.2,253,87.3,256.2,81.2z M126,127c-2.9,0-1.3-9.7-1-12.3
		c0.3-1.9,1.1-9.5,3.8-9.2C136.1,109.5,127.5,127,126,127z M155.8,136.2c-1,1.2-2.4,1-2.8-0.6c-0.8-3.6,0.8-7.3,3-10.1
		C157.4,128.7,158.4,133.6,155.8,136.2z M175.6,136.2c-1,1.2-2.4,1-2.8-0.6c-0.8-3.6,0.8-7.3,3-10.1
		C177.2,128.7,178.2,133.6,175.6,136.2z M196.8,127c-2.9,0-1.3-9.7-1-12.3c0.3-1.9,1.1-9.5,3.8-9.2C206.8,109.5,198.3,127,196.8,127
		z M308.6,136.2c-1,1.2-2.4,1-2.8-0.6c-0.8-3.6,0.8-7.3,3-10.1C310.2,128.7,311.1,133.6,308.6,136.2z M392.6,136.2
		c-1,1.2-2.4,1-2.8-0.6c-0.8-3.6,0.8-7.3,3-10.1C394.2,128.7,395.1,133.6,392.6,136.2z"/>
</g>
</svg>
