<?xml version="1.0" encoding="utf-8"?>
<!-- Generator: Adobe Illustrator 22.0.1, SVG Export Plug-In . SVG Version: 6.00 Build 0)  -->
<svg version="1.1" id="Layer_1" xmlns="http://www.w3.org/2000/svg" xmlns:xlink="http://www.w3.org/1999/xlink" x="0px" y="0px"
	 viewBox="0 0 500 500" style="enable-background:new 0 0 500 500;" xml:space="preserve">
<style type="text/css">
	.st0{fill:none;stroke:#000000;stroke-width:1.1339;stroke-linecap:round;stroke-linejoin:round;stroke-miterlimit:10;}
	.st1{fill:none;stroke:#000000;stroke-width:0;stroke-linecap:round;stroke-linejoin:round;stroke-miterlimit:10;}
</style>
<g id="SPLINE_17_">
	<path class="st0" d="M5,186c20.4,0,398.1-102.1,398.1-102.1v20.4l30.6,153.1H495v51l-51,20.4l-10.2-10.2l-51-40.8l-51-112.3
		l10.2,102.1l20.4,40.8h-51l-40.8-10.2v-20.4l10.2-20.4l-10.2-30.6l-51-10.2l-30.6-20.4l-20.4-30.6h-40.8L117.3,186l-40.8,10.2
		l-51,61.2C25.4,257.5,5,186,5,186z"/>
</g>
<g id="HATCH_3_">
	<path d="M5,186c20.4,0,398.1-102.1,398.1-102.1v20.4l30.6,153.1H495v51l-51,20.4l-10.2-10.2l-51-40.8l-51-112.3l10.2,102.1
		l20.4,40.8h-51l-40.8-10.2v-20.4l10.2-20.4l-10.2-30.6l-51-10.2l-30.6-20.4l-20.4-30.6h-40.8L117.3,186l-40.8,10.2l-51,61.2
		C25.4,257.5,5,186,5,186z"/>
</g>
<g id="SPLINE_16_">
	<path class="st1" d="M291.6,356.7c-0.9-0.8-1.6,0.3-1.6,0.3c-10,16.4-11.2,18.5-12.5,20.7c-0.3,0.6-1,1.4-1.8,1.3
		c-0.5-0.1-0.9-0.4-1.1-0.9c-0.2-0.4-0.2-0.9-0.3-1.4c-0.8-6.7,0.7-13.9,1.1-20.7c0.2-4.2,3.1-6.7,5.5-9.8
		c3.3-4.1,13.5-21.9,7.9-25.9c-2.1-1.5-4.4-1.1-6.3,0.4c-1.7,1.4-3.5,2.9-4.8,4.8c-3,4.4-5,9.3-6.4,14.5c-0.6,2.7-1.2,5.4-1.7,7.9
		c-1.5-0.3-2.9-0.8-4.3-0.7c-3.3,0-6.3,1.4-8.3,3.9c-1.3,1.6-2.7,4.3-3.6,7.3c-0.3,0.5-0.6,1-0.9,1.6c-4.1,6.8-8.2,13.7-12.4,20.5
		c0-9.5,3.8-18.7,4.6-28.4c0.2-3.6-1.2-7.7-5.2-6.4c-5.5,1.8-10.7,14.4-12.6,19c0-5.2,0.7-10.4,0.7-15.6c0-0.8,0-1.4-0.4-2
		c-0.5-1.2-2.2-1.2-3.4-1.2c-1.2,0.1-2.5,0.3-3,1.3c-0.2,0.4-0.2,0.9-0.2,1.4c-0.1,3.8-0.2,7.5-0.2,11.3c-1,1.7-2,3.2-2.5,4.1
		c-1.4,2.4-4.2,7.5-5.5,7.5c-2.5,0-1.1-8.7-0.9-10.4c0.5-3.7,1.4-7.3,2-10.9c0.2-1.5,0.2-2.8-1.7-3.4c-2.2-0.6-3.7,0-4.4,1.6l-3,5.6
		c-1.1-2.6-1.8-5.9-4.8-7c-6.7-1.8-9.8,5.7-10.9,12.6c-2,3.1-3.8,6.1-5.7,9.1c-2.8,4.4-6.2,3.9-7.3-1c-1.2-4.4-0.1-12.5,0.1-17
		c0-0.6,0.2-1.5,0.7-2.1c3.6-4.7,5.7-8.7,7.9-13.9c1.4-3.8,2.5-7.6,2.4-11.6c-0.1-2.8-1.5-4.8-3.6-5.1c-3.3-0.4-6.1,0.5-7.8,3.5
		c-1,1.5-1.8,3.1-2.4,4.9c-3.8,11.2-4.6,22.7-4,33.9c-3.7,5.8-7.4,11.1-8.6,12.1c0.3-2.8,0.5-18,0.7-23.1c0-3.1-4.9-4.3-6.4-1.7
		c-3.9,6.6-6.5,13.3-9.3,20.2c-0.2-6,0.4-12.1,0.9-18.2c0.3-3.8-6.4-4.1-6.7-0.8c-0.3,3.6-0.6,7.3-0.8,10.9
		c-1.1,1.8-2.2,3.5-2.7,4.4c-1.5,2.4-2.9,4.9-4.8,6.9c-2.1,2.1-3.1-0.5-3.1-2.2c0.1-6.1,2.4-12.7,3.9-18.5c0.9-3.4,0.4-4-3.1-3.9
		c-3.5,0-5.3,0.1-5.6,0c0.4-2.4,1.2-7-0.6-8.9c-0.8-0.9-2.2-0.9-3.3-0.7c-5,1.1-7.9,8.7-2.8,10.9c1.1,0.4,2.6,0.8,3.8,1.1
		c0.1,0-3.8,6-5.1,8c0,0,0,0,0,0.1c-1.6,2.6-3.5,5.7-4.4,7.1c-1.4,2.4-4.2,7.5-5.5,7.5c-2.5,0-1.1-8.7-0.9-10.4
		c0.5-3.7,1.4-7.3,2-10.9c0.2-1.5,0.2-2.8-1.7-3.4c-2.2-0.6-3.7,0-4.4,1.6l-3,5.6c-1.1-2.6-1.8-5.9-4.8-7
		c-6.7-1.9-9.9,5.8-10.9,12.7c-7.4,12.1-17.1,35.6-20.9,43.4c-1.3,2.8-5.6,6.9,1.8-24.5c1.5-6.1,10.4-46.4,8.6-52
		c-0.8-2.6-3.4-4.1-6.3-3.8c-2.5,0.2-4.7,2.5-5.9,4.1c-6.2,8.9-11.4,21.2-11.4,23l0.9-19.9c0-1.3-0.2-2.6-0.4-3.9
		c-0.5-3.4-6.4-6.4-11.4,5.1c-2.8,6.6-3.5,7.4-5.9,14c0.3-5.9,0.5-13.2,0.9-19.4c0-1.5-0.6-2.4-2.2-2.5c-2.2,0-3.8,0.4-3.9,2.2
		c-0.9,16.9-2.3,38.1-2.7,54.4c-0.1,2.5,0.3,3.3,2.8,3.1c2.6,0.1,2.5-0.5,2.7-4c0.4-7.3,1.8-18.1,3.3-25c1.6-8,5.5-16,8.6-23.5
		l1-1.8c4.3-8.7-2.7,44.2-3.3,49.2c-0.1,1.5,1.3,2.1,2.7,2.2c2.2,0.2,3-0.4,3.3-2.3c0.8-3.9,1.5-8.9,2.4-13
		c2.8-14,16.9-38.7,18.2-38.3c3.9,0-10.7,48.4-11.5,67.2c-0.1,1.5-0.1,3.6-0.1,4.7c0,11.5,7.2,12.7,10.3,5.7
		c5.7-12.7,11-25.6,18-38.8c0,0.7,0,1.4,0.1,2c0.1,1.4,0.7,2.9,1.4,4.2c2.3,3.6,7.9,3.4,9.9-0.2c1.7-3.1,3.1-6.6,4.9-9.9
		c0,2.4-0.1,4.8,0,7.3c0.2,3.7,3.9,7.2,7.6,5.6c3.7-1.5,5.5-5.9,7.5-9c1.2-1.7,3.3-5.1,4.4-6.9c0,0,0-0.1,0.1-0.2
		c1.5-2.3,5-7.8,5.7-9.3l3.5,0.1c-1.3,4.6-2.6,8.9-3.1,13.5c-0.2,1.5-0.4,3-0.4,4.7c0,2,0.4,4.4,2.1,5.7c6.2,5.3,10.6-3.8,13-7.7
		c0.3-0.4,0.6-0.9,1-1.5c-0.1,3.9,1.7,8.9,6.2,8.6c2.4-0.1,2.8-2.1,3.6-3.7c2-5,3.9-9.9,5.9-14.8c0.3-0.7,0.8-1.4,1.1-2.1
		c0,3-0.2,19.2-0.8,24.5c-5.1,4.3-10.5,9.3-14.6,15c-3.1,4.2-5.4,9-5.9,14.3c-0.6,8,5.1,12.1,12,9.6c5.7-2,8.9-6.4,10.6-12
		c1.7-6.1,2.4-10.5,2.9-15c1-9.6,0.9-12.4,1.1-12.6c3.4-3.8,6.1-7.8,8.6-11.8c0.5,4.2,1.4,8.4,5.9,10c2.9,1,6.3,0.4,8.1-2.2
		c1.8-2.5,3.4-5,5-7.5c0,1.1,0,2.2,0.1,3.1c0.1,1.4,0.7,2.9,1.4,4.2c2.3,3.6,7.9,3.4,9.9-0.2c1.7-3.1,3.1-6.6,4.9-9.9
		c0,2.4-0.1,4.8,0,7.3c0.2,3.7,3.9,7.2,7.6,5.6c3.7-1.5,5.5-5.9,7.5-9c0.3-0.4,0.6-0.9,1-1.4c0.1,3.3,0.2,6.7,0.3,10
		c0,0.5,0,1,0.4,1.3c0.2,0.3,0.6,0.4,1.1,0.4c1.5,0,3.4,0,4.3-1.2c0.3-0.5,0.4-1.2,0.5-1.8c2.1-8.2,5.3-16.4,10.7-22.8
		c0.2-0.2,0.5-0.4,0.8-0.4c0.4,0.1,0.3,0.6,0.2,1.1c-1.7,6.2-3,12.7-4,19c-0.5,2.9-0.9,6-0.6,8.9c0,1.3,0.2,2.6,0.9,3.7
		c0.6,1.2,1.7,2.1,3,2.3c2.7,0.1,4.2-2.5,5.2-4.4c3.2-6.1,6.1-10.8,9-15.4c-0.3,4.4,0.7,8.3,4.5,9.5c6,2,8.3-3.6,11.2-7.5
		c0.3,2.8,0.6,5.6,1.1,8.2c0.4,2.8,2.9,6.8,6.2,6.7c1-0.1,2-0.7,2.7-1.3c0.8-0.8,1.3-1.5,1.8-2.4c2.2-3.1,4-6.4,12-19.3
		C291.6,358.5,292.4,357.3,291.6,356.7z"/>
</g>
<g id="SPLINE_15_">
	<path class="st1" d="M280.8,333.1c0.5-1.5,5-12.1,6.8-10.9c0.5,0.3,0.7,1.1,0.5,1.6c-0.3,4.1-2.2,8.7-3.9,12.5
		c-1.8,3.9-4.2,7.5-7.5,11.1C277.5,342.4,278.8,337.6,280.8,333.1z"/>
</g>
<g id="SPLINE_14_">
	<path class="st1" d="M182.5,320.6c3.9,2.8-1.3,19.1-6.8,24.7C177.1,336.8,179,323.7,182.5,320.6z"/>
</g>
<g id="SPLINE_13_">
	<path class="st1" d="M88.9,371.8c-2.9,0-1.3-10-1-12.6c0.3-2,1.1-9.8,3.9-9.4C99.2,353.9,90.4,371.8,88.9,371.8z"/>
</g>
<g id="SPLINE_12_">
	<path class="st1" d="M120.1,345.8c-1.4-2.6-1.3-4.7,0-7.2C121.2,341.1,120.9,343.2,120.1,345.8z"/>
</g>
<g id="SPLINE_11_">
	<path class="st1" d="M152.7,391.4c-0.4,3.8-1,7.5-1.7,11.2c-1.1,4-2.6,8.5-6.4,10.4c-6.2,3-8-4.9-7.4-9.3c0.9-5,3.3-9.4,6.4-13.3
		c3.3-4.2,6.5-7.4,10.6-10.7L152.7,391.4z"/>
</g>
<g id="SPLINE_10_">
	<path class="st1" d="M196.1,371.8c-2.9,0-1.3-10-1-12.6c0.3-2,1.1-9.8,3.9-9.4C206.4,353.9,197.7,371.8,196.1,371.8z"/>
</g>
<g id="SPLINE_9_">
	<path class="st1" d="M260,372.1c-1.3-3-0.9-5.9-0.5-8.7c0.2-2.6,3.4-16.9,8-14.1c0.8,0.4,1.2,1.4,1.3,2.3
		C269.7,358.8,265.2,366.3,260,372.1z"/>
</g>
<g id="HATCH_2_">
	<path d="M291.6,356.7c-0.9-0.8-1.6,0.3-1.6,0.3c-10,16.4-11.2,18.5-12.5,20.7c-0.3,0.6-1,1.4-1.8,1.3c-0.5-0.1-0.9-0.4-1.1-0.9
		c-0.2-0.4-0.2-0.9-0.3-1.4c-0.8-6.7,0.7-13.9,1.1-20.7c0.2-4.2,3.1-6.7,5.5-9.8c3.3-4.1,13.5-21.9,7.9-25.9
		c-2.1-1.5-4.4-1.1-6.3,0.4c-1.7,1.4-3.5,2.9-4.8,4.8c-3,4.4-5,9.3-6.4,14.5c-0.6,2.7-1.2,5.4-1.7,7.9c-1.5-0.3-2.9-0.8-4.3-0.7
		c-3.3,0-6.3,1.4-8.3,3.9c-1.3,1.6-2.7,4.3-3.6,7.3c-0.3,0.5-0.6,1-0.9,1.6c-4.1,6.8-8.2,13.7-12.4,20.5c0-9.5,3.8-18.7,4.6-28.4
		c0.2-3.6-1.2-7.7-5.2-6.4c-5.5,1.8-10.7,14.4-12.6,19c0-5.2,0.7-10.4,0.7-15.6c0-0.8,0-1.4-0.4-2c-0.5-1.2-2.2-1.2-3.4-1.2
		c-1.2,0.1-2.5,0.3-3,1.3c-0.2,0.4-0.2,0.9-0.2,1.4c-0.1,3.8-0.2,7.5-0.2,11.3c-1,1.7-2,3.2-2.5,4.1c-1.4,2.4-4.2,7.5-5.5,7.5
		c-2.5,0-1.1-8.7-0.9-10.4c0.5-3.7,1.4-7.3,2-10.9c0.2-1.5,0.2-2.8-1.7-3.4c-2.2-0.6-3.7,0-4.4,1.6l-3,5.6c-1.1-2.6-1.8-5.9-4.8-7
		c-6.7-1.8-9.8,5.7-10.9,12.6c-2,3.1-3.8,6.1-5.7,9.1c-2.8,4.4-6.2,3.9-7.3-1c-1.2-4.4-0.1-12.5,0.1-17c0-0.6,0.2-1.5,0.7-2.1
		c3.6-4.7,5.7-8.7,7.9-13.9c1.4-3.8,2.5-7.6,2.4-11.6c-0.1-2.8-1.5-4.8-3.6-5.1c-3.3-0.4-6.1,0.5-7.8,3.5c-1,1.5-1.8,3.1-2.4,4.9
		c-3.8,11.2-4.6,22.7-4,33.9c-3.7,5.8-7.4,11.1-8.6,12.1c0.3-2.8,0.5-18,0.7-23.1c0-3.1-4.9-4.3-6.4-1.7c-3.9,6.6-6.5,13.3-9.3,20.2
		c-0.2-6,0.4-12.1,0.9-18.2c0.3-3.8-6.4-4.1-6.7-0.8c-0.3,3.6-0.6,7.3-0.8,10.9c-1.1,1.8-2.2,3.5-2.7,4.4c-1.5,2.4-2.9,4.9-4.8,6.9
		c-2.1,2.1-3.1-0.5-3.1-2.2c0.1-6.1,2.4-12.7,3.9-18.5c0.9-3.4,0.4-4-3.1-3.9c-3.5,0-5.3,0.1-5.6,0c0.4-2.4,1.2-7-0.6-8.9
		c-0.8-0.9-2.2-0.9-3.3-0.7c-5,1.1-7.9,8.7-2.8,10.9c1.1,0.4,2.6,0.8,3.8,1.1c0.1,0-3.8,6-5.1,8c0,0,0,0,0,0.1
		c-1.6,2.6-3.5,5.7-4.4,7.1c-1.4,2.4-4.2,7.5-5.5,7.5c-2.5,0-1.1-8.7-0.9-10.4c0.5-3.7,1.4-7.3,2-10.9c0.2-1.5,0.2-2.8-1.7-3.4
		c-2.2-0.6-3.7,0-4.4,1.6l-3,5.6c-1.1-2.6-1.8-5.9-4.8-7c-6.7-1.9-9.9,5.8-10.9,12.7c-7.4,12.1-17.1,35.6-20.9,43.4
		c-1.3,2.8-5.6,6.9,1.8-24.5c1.5-6.1,10.4-46.4,8.6-52c-0.8-2.6-3.4-4.1-6.3-3.8c-2.5,0.2-4.7,2.5-5.9,4.1
		c-6.2,8.9-11.4,21.2-11.4,23l0.9-19.9c0-1.3-0.2-2.6-0.4-3.9c-0.5-3.4-6.4-6.4-11.4,5.1c-2.8,6.6-3.5,7.4-5.9,14
		c0.3-5.9,0.5-13.2,0.9-19.4c0-1.5-0.6-2.4-2.2-2.5c-2.2,0-3.8,0.4-3.9,2.2c-0.9,16.9-2.3,38.1-2.7,54.4c-0.1,2.5,0.3,3.3,2.8,3.1
		c2.6,0.1,2.5-0.5,2.7-4c0.4-7.3,1.8-18.1,3.3-25c1.6-8,5.5-16,8.6-23.5l1-1.8c4.3-8.7-2.7,44.2-3.3,49.2c-0.1,1.5,1.3,2.1,2.7,2.2
		c2.2,0.2,3-0.4,3.3-2.3c0.8-3.9,1.5-8.9,2.4-13c2.8-14,16.9-38.7,18.2-38.3c3.9,0-10.7,48.4-11.5,67.2c-0.1,1.5-0.1,3.6-0.1,4.7
		c0,11.5,7.2,12.7,10.3,5.7c5.7-12.7,11-25.6,18-38.8c0,0.7,0,1.4,0.1,2c0.1,1.4,0.7,2.9,1.4,4.2c2.3,3.6,7.9,3.4,9.9-0.2
		c1.7-3.1,3.1-6.6,4.9-9.9c0,2.4-0.1,4.8,0,7.3c0.2,3.7,3.9,7.2,7.6,5.6c3.7-1.5,5.5-5.9,7.5-9c1.2-1.7,3.3-5.1,4.4-6.9
		c0,0,0-0.1,0.1-0.2c1.5-2.3,5-7.8,5.7-9.3l3.5,0.1c-1.3,4.6-2.6,8.9-3.1,13.5c-0.2,1.5-0.4,3-0.4,4.7c0,2,0.4,4.4,2.1,5.7
		c6.2,5.3,10.6-3.8,13-7.7c0.3-0.4,0.6-0.9,1-1.5c-0.1,3.9,1.7,8.9,6.2,8.6c2.4-0.1,2.8-2.1,3.6-3.7c2-5,3.9-9.9,5.9-14.8
		c0.3-0.7,0.8-1.4,1.1-2.1c0,3-0.2,19.2-0.8,24.5c-5.1,4.3-10.5,9.3-14.6,15c-3.1,4.2-5.4,9-5.9,14.3c-0.6,8,5.1,12.1,12,9.6
		c5.7-2,8.9-6.4,10.6-12c1.7-6.1,2.4-10.5,2.9-15c1-9.6,0.9-12.4,1.1-12.6c3.4-3.8,6.1-7.8,8.6-11.8c0.5,4.2,1.4,8.4,5.9,10
		c2.9,1,6.3,0.4,8.1-2.2c1.8-2.5,3.4-5,5-7.5c0,1.1,0,2.2,0.1,3.1c0.1,1.4,0.7,2.9,1.4,4.2c2.3,3.6,7.9,3.4,9.9-0.2
		c1.7-3.1,3.1-6.6,4.9-9.9c0,2.4-0.1,4.8,0,7.3c0.2,3.7,3.9,7.2,7.6,5.6c3.7-1.5,5.5-5.9,7.5-9c0.3-0.4,0.6-0.9,1-1.4
		c0.1,3.3,0.2,6.7,0.3,10c0,0.5,0,1,0.4,1.3c0.2,0.3,0.6,0.4,1.1,0.4c1.5,0,3.4,0,4.3-1.2c0.3-0.5,0.4-1.2,0.5-1.8
		c2.1-8.2,5.3-16.4,10.7-22.8c0.2-0.2,0.5-0.4,0.8-0.4c0.4,0.1,0.3,0.6,0.2,1.1c-1.7,6.2-3,12.7-4,19c-0.5,2.9-0.9,6-0.6,8.9
		c0,1.3,0.2,2.6,0.9,3.7c0.6,1.2,1.7,2.1,3,2.3c2.7,0.1,4.2-2.5,5.2-4.4c3.2-6.1,6.1-10.8,9-15.4c-0.3,4.4,0.7,8.3,4.5,9.5
		c6,2,8.3-3.6,11.2-7.5c0.3,2.8,0.6,5.6,1.1,8.2c0.4,2.8,2.9,6.8,6.2,6.7c1-0.1,2-0.7,2.7-1.3c0.8-0.8,1.3-1.5,1.8-2.4
		c2.2-3.1,4-6.4,12-19.3C291.6,358.5,292.4,357.3,291.6,356.7z M280.8,333.1c0.5-1.5,5-12.1,6.8-10.9c0.5,0.3,0.7,1.1,0.5,1.6
		c-0.3,4.1-2.2,8.7-3.9,12.5c-1.8,3.9-4.2,7.5-7.5,11.1C277.5,342.4,278.8,337.6,280.8,333.1z M182.5,320.6
		c3.9,2.8-1.3,19.1-6.8,24.7C177.1,336.8,179,323.7,182.5,320.6z M88.9,371.8c-2.9,0-1.3-10-1-12.6c0.3-2,1.1-9.8,3.9-9.4
		C99.2,353.9,90.4,371.8,88.9,371.8z M120.1,345.8c-1.4-2.6-1.3-4.7,0-7.2C121.2,341.1,120.9,343.2,120.1,345.8z M152.7,391.4
		c-0.4,3.8-1,7.5-1.7,11.2c-1.1,4-2.6,8.5-6.4,10.4c-6.2,3-8-4.9-7.4-9.3c0.9-5,3.3-9.4,6.4-13.3c3.3-4.2,6.5-7.4,10.6-10.7
		L152.7,391.4z M196.1,371.8c-2.9,0-1.3-10-1-12.6c0.3-2,1.1-9.8,3.9-9.4C206.4,353.9,197.7,371.8,196.1,371.8z M260,372.1
		c-1.3-3-0.9-5.9-0.5-8.7c0.2-2.6,3.4-16.9,8-14.1c0.8,0.4,1.2,1.4,1.3,2.3C269.7,358.8,265.2,366.3,260,372.1z"/>
</g>
</svg>
