<?xml version="1.0" encoding="utf-8"?>
<!-- Generator: Adobe Illustrator 22.0.1, SVG Export Plug-In . SVG Version: 6.00 Build 0)  -->
<svg version="1.1" id="Layer_1" xmlns="http://www.w3.org/2000/svg" xmlns:xlink="http://www.w3.org/1999/xlink" x="0px" y="0px"
	 viewBox="0 0 500 500" style="enable-background:new 0 0 500 500;" xml:space="preserve">
<style type="text/css">
	.st0{fill:none;stroke:#000000;stroke-width:0;stroke-linecap:round;stroke-linejoin:round;stroke-miterlimit:10;}
</style>
<g id="POLYLINE_1_">
	<path class="st0" d="M48.7,490V343.3l-17.6-17.6L25.3,314l17.6-17.6v-35.2l-11.7-52.8l-17.6-82.1V50h123.2l52.8,35.2h17.6l11.7-5.9
		l35.2,5.9l11.7,17.6l17.6-5.9l17.6,11.7h29.3l11.7-5.9h17.6l11.7,11.7h46.9l-52.8,29.3l-41.1,41.1l-46.9,52.8v46.9l-23.5,11.7
		l-5.9,23.5l5.9,5.9l5.9,64.5l35.2,11.7l52.8,46.9l5.9,29.3l-123.2,5.9L48.7,490"/>
</g>
<g id="HATCH_5_">
	<path d="M48.7,490V343.3l-17.6-17.6L25.3,314l17.6-17.6v-35.2l-11.7-52.8l-17.6-82.1V50h123.2l52.8,35.2h17.6l11.7-5.9l35.2,5.9
		l11.7,17.6l17.6-5.9l17.6,11.7h29.3l11.7-5.9h17.6l11.7,11.7h46.9l-52.8,29.3l-41.1,41.1l-46.9,52.8v46.9l-23.5,11.7l-5.9,23.5
		l5.9,5.9l5.9,64.5l35.2,11.7l52.8,46.9l5.9,29.3l-123.2,5.9L48.7,490C48.7,490,48.7,490,48.7,490z"/>
</g>
<g id="INSERT_1_">
	<g id="SPLINE_13_">
		<path class="st0" d="M302.5,28.7c2.3-2.6-1.9-5.3-3.6-2C298,29.1,300.9,30.2,302.5,28.7z"/>
	</g>
	<g id="HATCH_4_">
		<path d="M302.5,28.7c2.3-2.6-1.9-5.3-3.6-2C298,29.1,300.9,30.2,302.5,28.7z"/>
	</g>
	<g id="SPLINE_12_">
		<path class="st0" d="M486.2,45.5c-0.8-0.7-1.6,0.3-1.6,0.3c-1.5,2.4-3.4,5.4-4.2,6.7c-1.3,2.2-4,7-5.2,7c-2.3,0-1-8.2-0.8-9.8
			c0.5-3.5,1.3-6.8,1.8-10.3c0.2-1.4,0.2-2.6-1.6-3.2c-2-0.6-3.5,0-4.2,1.5l-2.9,5.3c-1-2.4-1.7-5.5-4.5-6.6
			c-6.4-1.8-9.3,5.5-10.2,12.1c-1.7,2.8-3.4,5.6-5.1,8.3c-0.9,1.5-2.1,3.3-3.9,3.3c-6-0.2-3.4-15.3-2.9-18.3
			C441,41,444.2,24,444.3,24c2.1,0,4.5,0.1,6.5-0.1c1,0,1.3-1.6,0.6-2.1c-0.2-0.2-0.4-0.2-0.7-0.2c-2-0.2-3.9-0.3-5.7-0.3
			c0.2-1,1.6-7.6,1.8-8.4c0.5-3.7-3.7-3.6-4.9-1.2c-1,1.8-1.5,3.8-3.4,9.4c-1.6,0-2.9-0.1-4.2-0.1c-0.3,0-0.5,0-0.8,0
			c-0.8,0-1.3,0.6-1.3,1.3c0,0.5,0.3,0.8,0.6,0.8c0.4,0.2,4.9,0.7,4.9,0.7c-1.4,7.2-3.6,15.5-3.8,23.1c-1.3,1.9-2.8,3.6-5.3,4.3
			c0.3-2.4,0.5-5,0.1-7.4c-1.6-8.3-11-8.7-14-1.3c-0.5,1.4-1.1,3.1-1.5,5c-2.3,3.2-4.4,4.6-8.5,5.9c-0.4,0.2-0.5,0-0.6-0.2
			c-2.4-4.9-5.2-10.6-3.9-15.7c0.2-0.9,1-3.4,2-1.8c0.8,1.4,0.8,3.1,0.7,4.7c-0.1,1.9,2.8,1.3,2.8,0c0-1.4-0.1-2.9-0.5-4.3
			c-0.6-2.4-2.1-3.6-4.7-3.3c-3.6,0.5-6.5,3.2-6.9,6.7c-0.4,2.6,0.1,5,1,7.3c-1.8,2.8-3.1,4.9-3.7,5.8c-0.7,1.2-1.4,2.5-2.3,3.9
			c-1.2,1.7-2.2,3.2-4.4,4c-1,0.3-2,0.5-3.1,0.2c-0.8-0.3-1.4-0.9-1.9-1.5c-1.6-2.2-1.7-5.7-0.9-8.2c0-0.1,0.1-0.2,0.2-0.4
			c0.2-0.2,0.4-0.2,0.5-0.3c1.9-1,3.8-2.2,5.3-3.8c1.4-1.4,2.5-3.3,3.1-5.2c1.2-3.9-1-6.6-5-5.8c-1.7,0.3-3.5,1.1-4.8,2.2
			c-2.9,2.1-4.4,5.5-5,8.9c0,0.1,0,0.2,0,0.3c-0.4,0.6-0.8,1.3-1.2,2c-3.9,6.4-7.7,12.8-11.6,19.3c0-9,3.6-17.6,4.3-26.7
			c0.2-3.4-1.1-7.2-4.9-6c-5.2,1.7-10.1,13.6-11.8,17.8c0-4.9,0.6-9.8,0.6-14.7c0-0.7,0-1.3-0.4-1.8c-0.5-1.1-2-1.1-3.2-1.1
			c-1.1,0.1-2.3,0.3-2.9,1.2c-0.2,0.4-0.2,0.8-0.2,1.3c-0.1,3.6-0.2,7.2-0.2,10.8c-3.9,6.4-7.7,12.8-11.6,19.2
			c0-9,3.6-17.6,4.3-26.7c0.2-3.4-1.1-7.2-4.9-6c-5.2,1.7-10.1,13.6-11.8,17.8c0-4.9,0.6-9.8,0.6-14.7c0-0.7,0-1.3-0.4-1.8
			c-0.5-1.1-2-1.1-3.2-1.1c-1.1,0.1-2.3,0.3-2.9,1.2c-0.2,0.4-0.2,0.8-0.2,1.3c-0.1,3.5-0.2,7.1-0.2,10.7c-2.1,3.3-3.3,5.3-4.5,7.3
			c-0.7,1-1.3,2.3-2.4,3.1c-0.9,0.6-2,0.8-3,0.2c-0.6-0.4-1-1.1-1.2-1.8c-0.7-3.5,1.4-13,2.1-16.4c0.4-1.6,0.3-3.7-1.6-4
			c-2.5-0.4-4.1,0.2-4.4,2.1c-0.6,2.7-1.2,5.7-1.6,8.8c-7,11.3-16.3,33.9-19.9,41.3c-1.2,2.6-5.3,6.5,1.7-23
			c1.4-5.7,9.8-43.6,8-48.9c-0.7-2.4-3.2-3.9-5.9-3.6c-2.3,0.2-4.4,2.3-5.5,3.9c-5.8,8.4-10.7,20-10.7,21.6l0.8-18.7
			c0-1.2-0.2-2.4-0.4-3.7c-0.5-3.2-6-6-10.7,4.8c-2.6,6.2-3.3,6.9-5.5,13.1c0.3-5.5,0.5-12.4,0.8-18.2c0-1.4-0.6-2.2-2-2.3
			c-2,0-3.6,0.4-3.7,2c-0.8,15.9-2.1,35.9-2.5,51.1c-0.1,2.3,0.3,3.1,2.6,3c2.4,0.1,2.3-0.5,2.5-3.8c0.4-6.8,1.7-17,3.1-23.5
			c1.5-7.5,5.2-15.1,8-22.1l0.9-1.7c4.1-8.2-2.5,41.6-3.1,46.3c-0.1,1.4,1.2,1.9,2.5,2c2,0.2,2.9-0.4,3.1-2.1
			c0.7-3.7,1.4-8.4,2.2-12.2c2.6-13.1,15.9-36.4,17.1-36c3.7,0-10.1,45.5-10.8,63.2c-0.1,1.4-0.1,3.4-0.1,4.4
			c0,10.8,6.7,11.9,9.7,5.4c5.5-12.2,10.6-24.7,17.4-37.4c0.1,1.8,0.3,3.6,0.7,5.3c1,3.6,4.2,5.3,7.7,4.3c0.9-0.2,1.7-0.7,2.3-1.4
			c2.1-2,3.5-4.7,5.1-7.1c0.2-0.4,0.5-0.9,0.9-1.5c0.1,3.1,0.2,6.3,0.3,9.4c0,0.5,0,0.9,0.4,1.2c0.2,0.3,0.6,0.4,1,0.4
			c1.4,0,3.2,0,4.1-1.1c0.3-0.5,0.4-1.1,0.5-1.7c1.9-7.7,5-15.4,10.1-21.4c0.2-0.2,0.5-0.4,0.7-0.4c0.4,0.1,0.3,0.6,0.2,1
			c-1.6,5.8-2.9,11.9-3.8,17.8c-0.5,2.8-0.8,5.6-0.6,8.4c0,1.2,0.2,2.4,0.8,3.5c0.6,1.1,1.6,1.9,2.9,2.1c2.5,0.1,4-2.3,4.9-4.2
			c3.1-5.9,5.9-10.4,8.6-14.9c0.1,3.1,0.2,6.2,0.3,9.3c0,0.5,0,0.9,0.4,1.2c0.2,0.3,0.6,0.4,1,0.4c1.4,0,3.2,0,4.1-1.1
			c0.3-0.5,0.4-1.1,0.5-1.7c1.9-7.7,5-15.4,10.1-21.4c0.2-0.2,0.5-0.4,0.7-0.4c0.4,0.1,0.3,0.6,0.2,1c-1.6,5.8-2.9,11.9-3.8,17.8
			c-0.5,2.8-0.8,5.6-0.6,8.4c0,1.2,0.2,2.4,0.8,3.5c0.6,1.1,1.6,1.9,2.9,2.1c2.5,0.1,4-2.3,4.9-4.2c3.4-6.4,6.4-11.2,9.4-16
			c-0.1,2.4,0.3,4.7,1.3,7.2c1.5,3.8,6,5,9.7,4.3c4.9-1,6.9-5.2,9.4-9c0.6-1,1.7-2.6,3.1-4.8c1.1,2.4,2.5,4.7,3.3,6.9
			c-3,3-5.1,7.3-4.5,11.5c0.8,6.2,8.6,4.1,10.9,0.1c2.2-3.8,1-7.3-0.3-11.3c-0.1-0.1-0.2-0.3-0.1-0.4c0.1-0.1,0.2-0.2,0.3-0.2
			c2.8-1.3,5-2.2,7.4-4.5c-0.5,5.3,0.7,10.7,6.7,11.8c2.6,0.5,4.9-0.7,6.4-2.8c1.4-1.9,2.1-4.5,2.8-6.8c2.3-0.4,3.9-1.7,5.4-3.3
			c0.1,1.8,0.3,3.6,0.7,5.3c0.4,1.6,1,3.2,2,4.5c2.6,3.3,7.8,4.3,11.4-0.3c1.6-2.1,3-4.3,4.3-6.4c0,0.9,0,1.8,0.1,2.5
			c0.1,1.3,0.6,2.8,1.3,4c2.1,3.4,7.4,3.2,9.3-0.2c1.6-3,3-6.2,4.6-9.3c0,2.2-0.1,4.5,0,6.8c0.2,3.5,3.7,6.7,7.1,5.3
			c3.5-1.4,5.2-5.5,7-8.5c1.1-1.6,3.1-4.8,4.2-6.5C486.1,47.1,486.9,46,486.2,45.5z"/>
	</g>
	<g id="SPLINE_11_">
		<path class="st0" d="M379.2,46.2c0.3-1.3,0.8-2.6,1.3-4c0.4-0.8,3.4-6.6,4.2-4.2c0.8,2.1,0,4.3-1.2,6c-0.6,0.8-1.2,1.3-1.9,2
			c-0.2,0.1-2.4,1.8-2.4,1.7C379.1,47.2,379.1,46.7,379.2,46.2z"/>
	</g>
	<g id="SPLINE_10_">
		<path class="st0" d="M399.7,68.5c-0.9,1.1-2.3,0.9-2.6-0.6c-0.8-3.5,0.8-7,2.9-9.7C401.2,61.3,402.1,66,399.7,68.5z"/>
	</g>
	<g id="SPLINE_9_">
		<path class="st0" d="M419.2,57.7c-0.8-2.5-1-5.4-0.1-8.2c0.1-0.2,0.2-0.5,0.5-0.4c2.2,1.7,4.2,3.2,6.9,3.8
			C425.6,60.1,420.6,63.8,419.2,57.7z"/>
	</g>
	<g id="SPLINE_8_">
		<path class="st0" d="M426.7,51c-2.5-0.7-4.6-2-5.4-4.2c-0.7-2-0.3-4.4,1-6c0.9-1.1,2.6-0.6,3.4,0.3C427.8,43.2,427.3,48,426.7,51z
			"/>
	</g>
	<g id="SPLINE_7_">
		<path class="st0" d="M460.1,59.7c-2.8,0-1.2-9.4-0.9-11.8c0.3-1.8,1-9.2,3.7-8.9C469.8,42.8,461.5,59.7,460.1,59.7z"/>
	</g>
	<g id="HATCH_3_">
		<path d="M486.2,45.5c-0.8-0.7-1.6,0.3-1.6,0.3c-1.5,2.4-3.4,5.4-4.2,6.7c-1.3,2.2-4,7-5.2,7c-2.3,0-1-8.2-0.8-9.8
			c0.5-3.5,1.3-6.8,1.8-10.3c0.2-1.4,0.2-2.6-1.6-3.2c-2-0.6-3.5,0-4.2,1.5l-2.9,5.3c-1-2.4-1.7-5.5-4.5-6.6
			c-6.4-1.8-9.3,5.5-10.2,12.1c-1.7,2.8-3.4,5.6-5.1,8.3c-0.9,1.5-2.1,3.3-3.9,3.3c-6-0.2-3.4-15.3-2.9-18.3
			C441,41,444.2,24,444.3,24c2.1,0,4.5,0.1,6.5-0.1c1,0,1.3-1.6,0.6-2.1c-0.2-0.2-0.4-0.2-0.7-0.2c-2-0.2-3.9-0.3-5.7-0.3
			c0.2-1,1.6-7.6,1.8-8.4c0.5-3.7-3.7-3.6-4.9-1.2c-1,1.8-1.5,3.8-3.4,9.4c-1.6,0-2.9-0.1-4.2-0.1c-0.3,0-0.5,0-0.8,0
			c-0.8,0-1.3,0.6-1.3,1.3c0,0.5,0.3,0.8,0.6,0.8c0.4,0.2,4.9,0.7,4.9,0.7c-1.4,7.2-3.6,15.5-3.8,23.1c-1.3,1.9-2.8,3.6-5.3,4.3
			c0.3-2.4,0.5-5,0.1-7.4c-1.6-8.3-11-8.7-14-1.3c-0.5,1.4-1.1,3.1-1.5,5c-2.3,3.2-4.4,4.6-8.5,5.9c-0.4,0.2-0.5,0-0.6-0.2
			c-2.4-4.9-5.2-10.6-3.9-15.7c0.2-0.9,1-3.4,2-1.8c0.8,1.4,0.8,3.1,0.7,4.7c-0.1,1.9,2.8,1.3,2.8,0c0-1.4-0.1-2.9-0.5-4.3
			c-0.6-2.4-2.1-3.6-4.7-3.3c-3.6,0.5-6.5,3.2-6.9,6.7c-0.4,2.6,0.1,5,1,7.3c-1.8,2.8-3.1,4.9-3.7,5.8c-0.7,1.2-1.4,2.5-2.3,3.9
			c-1.2,1.7-2.2,3.2-4.4,4c-1,0.3-2,0.5-3.1,0.2c-0.8-0.3-1.4-0.9-1.9-1.5c-1.6-2.2-1.7-5.7-0.9-8.2c0-0.1,0.1-0.2,0.2-0.4
			c0.2-0.2,0.4-0.2,0.5-0.3c1.9-1,3.8-2.2,5.3-3.8c1.4-1.4,2.5-3.3,3.1-5.2c1.2-3.9-1-6.6-5-5.8c-1.7,0.3-3.5,1.1-4.8,2.2
			c-2.9,2.1-4.4,5.5-5,8.9c0,0.1,0,0.2,0,0.3c-0.4,0.6-0.8,1.3-1.2,2c-3.9,6.4-7.7,12.8-11.6,19.3c0-9,3.6-17.6,4.3-26.7
			c0.2-3.4-1.1-7.2-4.9-6c-5.2,1.7-10.1,13.6-11.8,17.8c0-4.9,0.6-9.8,0.6-14.7c0-0.7,0-1.3-0.4-1.8c-0.5-1.1-2-1.1-3.2-1.1
			c-1.1,0.1-2.3,0.3-2.9,1.2c-0.2,0.4-0.2,0.8-0.2,1.3c-0.1,3.6-0.2,7.2-0.2,10.8c-3.9,6.4-7.7,12.8-11.6,19.2
			c0-9,3.6-17.6,4.3-26.7c0.2-3.4-1.1-7.2-4.9-6c-5.2,1.7-10.1,13.6-11.8,17.8c0-4.9,0.6-9.8,0.6-14.7c0-0.7,0-1.3-0.4-1.8
			c-0.5-1.1-2-1.1-3.2-1.1c-1.1,0.1-2.3,0.3-2.9,1.2c-0.2,0.4-0.2,0.8-0.2,1.3c-0.1,3.5-0.2,7.1-0.2,10.7c-2.1,3.3-3.3,5.3-4.5,7.3
			c-0.7,1-1.3,2.3-2.4,3.1c-0.9,0.6-2,0.8-3,0.2c-0.6-0.4-1-1.1-1.2-1.8c-0.7-3.5,1.4-13,2.1-16.4c0.4-1.6,0.3-3.7-1.6-4
			c-2.5-0.4-4.1,0.2-4.4,2.1c-0.6,2.7-1.2,5.7-1.6,8.8c-7,11.3-16.3,33.9-19.9,41.3c-1.2,2.6-5.3,6.5,1.7-23
			c1.4-5.7,9.8-43.6,8-48.9c-0.7-2.4-3.2-3.9-5.9-3.6c-2.3,0.2-4.4,2.3-5.5,3.9c-5.8,8.4-10.7,20-10.7,21.6l0.8-18.7
			c0-1.2-0.2-2.4-0.4-3.7c-0.5-3.2-6-6-10.7,4.8c-2.6,6.2-3.3,6.9-5.5,13.1c0.3-5.5,0.5-12.4,0.8-18.2c0-1.4-0.6-2.2-2-2.3
			c-2,0-3.6,0.4-3.7,2c-0.8,15.9-2.1,35.9-2.5,51.1c-0.1,2.3,0.3,3.1,2.6,3c2.4,0.1,2.3-0.5,2.5-3.8c0.4-6.8,1.7-17,3.1-23.5
			c1.5-7.5,5.2-15.1,8-22.1l0.9-1.7c4.1-8.2-2.5,41.6-3.1,46.3c-0.1,1.4,1.2,1.9,2.5,2c2,0.2,2.9-0.4,3.1-2.1
			c0.7-3.7,1.4-8.4,2.2-12.2c2.6-13.1,15.9-36.4,17.1-36c3.7,0-10.1,45.5-10.8,63.2c-0.1,1.4-0.1,3.4-0.1,4.4
			c0,10.8,6.7,11.9,9.7,5.4c5.5-12.2,10.6-24.7,17.4-37.4c0.1,1.8,0.3,3.6,0.7,5.3c1,3.6,4.2,5.3,7.7,4.3c0.9-0.2,1.7-0.7,2.3-1.4
			c2.1-2,3.5-4.7,5.1-7.1c0.2-0.4,0.5-0.9,0.9-1.5c0.1,3.1,0.2,6.3,0.3,9.4c0,0.5,0,0.9,0.4,1.2c0.2,0.3,0.6,0.4,1,0.4
			c1.4,0,3.2,0,4.1-1.1c0.3-0.5,0.4-1.1,0.5-1.7c1.9-7.7,5-15.4,10.1-21.4c0.2-0.2,0.5-0.4,0.7-0.4c0.4,0.1,0.3,0.6,0.2,1
			c-1.6,5.8-2.9,11.9-3.8,17.8c-0.5,2.8-0.8,5.6-0.6,8.4c0,1.2,0.2,2.4,0.8,3.5c0.6,1.1,1.6,1.9,2.9,2.1c2.5,0.1,4-2.3,4.9-4.2
			c3.1-5.9,5.9-10.4,8.6-14.9c0.1,3.1,0.2,6.2,0.3,9.3c0,0.5,0,0.9,0.4,1.2c0.2,0.3,0.6,0.4,1,0.4c1.4,0,3.2,0,4.1-1.1
			c0.3-0.5,0.4-1.1,0.5-1.7c1.9-7.7,5-15.4,10.1-21.4c0.2-0.2,0.5-0.4,0.7-0.4c0.4,0.1,0.3,0.6,0.2,1c-1.6,5.8-2.9,11.9-3.8,17.8
			c-0.5,2.8-0.8,5.6-0.6,8.4c0,1.2,0.2,2.4,0.8,3.5c0.6,1.1,1.6,1.9,2.9,2.1c2.5,0.1,4-2.3,4.9-4.2c3.4-6.4,6.4-11.2,9.4-16
			c-0.1,2.4,0.3,4.7,1.3,7.2c1.5,3.8,6,5,9.7,4.3c4.9-1,6.9-5.2,9.4-9c0.6-1,1.7-2.6,3.1-4.8c1.1,2.4,2.5,4.7,3.3,6.9
			c-3,3-5.1,7.3-4.5,11.5c0.8,6.2,8.6,4.1,10.9,0.1c2.2-3.8,1-7.3-0.3-11.3c-0.1-0.1-0.2-0.3-0.1-0.4c0.1-0.1,0.2-0.2,0.3-0.2
			c2.8-1.3,5-2.2,7.4-4.5c-0.5,5.3,0.7,10.7,6.7,11.8c2.6,0.5,4.9-0.7,6.4-2.8c1.4-1.9,2.1-4.5,2.8-6.8c2.3-0.4,3.9-1.7,5.4-3.3
			c0.1,1.8,0.3,3.6,0.7,5.3c0.4,1.6,1,3.2,2,4.5c2.6,3.3,7.8,4.3,11.4-0.3c1.6-2.1,3-4.3,4.3-6.4c0,0.9,0,1.8,0.1,2.5
			c0.1,1.3,0.6,2.8,1.3,4c2.1,3.4,7.4,3.2,9.3-0.2c1.6-3,3-6.2,4.6-9.3c0,2.2-0.1,4.5,0,6.8c0.2,3.5,3.7,6.7,7.1,5.3
			c3.5-1.4,5.2-5.5,7-8.5c1.1-1.6,3.1-4.8,4.2-6.5C486.1,47.1,486.9,46,486.2,45.5z M379.2,46.2c0.3-1.3,0.8-2.6,1.3-4
			c0.4-0.8,3.4-6.6,4.2-4.2c0.8,2.1,0,4.3-1.2,6c-0.6,0.8-1.2,1.3-1.9,2c-0.2,0.1-2.4,1.8-2.4,1.7C379.1,47.2,379.1,46.7,379.2,46.2
			z M399.7,68.5c-0.9,1.1-2.3,0.9-2.6-0.6c-0.8-3.5,0.8-7,2.9-9.7C401.2,61.3,402.1,66,399.7,68.5z M419.2,57.7
			c-0.8-2.5-1-5.4-0.1-8.2c0.1-0.2,0.2-0.5,0.5-0.4c2.2,1.7,4.2,3.2,6.9,3.8C425.6,60.1,420.6,63.8,419.2,57.7z M426.7,51
			c-2.5-0.7-4.6-2-5.4-4.2c-0.7-2-0.3-4.4,1-6c0.9-1.1,2.6-0.6,3.4,0.3C427.8,43.2,427.3,48,426.7,51z M460.1,59.7
			c-2.8,0-1.2-9.4-0.9-11.8c0.3-1.8,1-9.2,3.7-8.9C469.8,42.8,461.5,59.7,460.1,59.7z"/>
	</g>
</g>
</svg>
