<?xml version="1.0" encoding="utf-8"?>
<!-- Generator: Adobe Illustrator 22.0.1, SVG Export Plug-In . SVG Version: 6.00 Build 0)  -->
<svg version="1.1" id="Layer_1" xmlns="http://www.w3.org/2000/svg" xmlns:xlink="http://www.w3.org/1999/xlink" x="0px" y="0px"
	 viewBox="0 0 500 500" style="enable-background:new 0 0 500 500;" xml:space="preserve">
<style type="text/css">
	.st0{fill:none;stroke:#000000;stroke-width:0;stroke-linecap:round;stroke-linejoin:round;stroke-miterlimit:10;}
</style>
<g id="SPLINE_17_">
	<path class="st0" d="M99,389.6l167.8-6.7h100.7l13.4-6.7h53.7l-6.7,26.8l13.4,13.4l6.7,20.1l20.1-47v-13.4l13.4-13.4l13.4-20.1V309
		l-6.7,6.7h-13.4l-20.1-60.4l-13.4-20.1l-33.6-6.7l-13.4-20.1l6.7-13.4v-40.3l-26.8-6.7l-6.7-20.1l-53.7-47l-6.7-60.4l-20.1-6.7
		H172.8H5l6.7,26.8l47,40.3l13.4,6.7l-6.7,13.4l-6.7,13.4l6.7,20.1l26.8,20.1v187.9C92.3,349.3,100.4,390.3,99,389.6z"/>
</g>
<g id="HATCH_7_">
	<path d="M99,389.6l167.8-6.7h100.7l13.4-6.7h53.7l-6.7,26.8l13.4,13.4l6.7,20.1l20.1-47v-13.4l13.4-13.4l13.4-20.1V309l-6.7,6.7
		h-13.4l-20.1-60.4l-13.4-20.1l-33.6-6.7l-13.4-20.1l6.7-13.4v-40.3l-26.8-6.7l-6.7-20.1l-53.7-47l-6.7-60.4l-20.1-6.7H172.8H5
		l6.7,26.8l47,40.3l13.4,6.7l-6.7,13.4l-6.7,13.4l6.7,20.1l26.8,20.1v187.9C92.3,349.3,100.4,390.3,99,389.6z"/>
</g>
<g id="INSERT_1_">
	<g id="SPLINE_16_">
		<path class="st0" d="M197,420c2.4-2.7-2-5.4-3.6-2.1C192.5,420.4,195.5,421.5,197,420z"/>
	</g>
	<g id="HATCH_6_">
		<path d="M197,420c2.4-2.7-2-5.4-3.6-2.1C192.5,420.4,195.5,421.5,197,420z"/>
	</g>
	<g id="SPLINE_15_">
		<path class="st0" d="M327.2,420c2.4-2.7-2-5.4-3.6-2.1C322.6,420.4,325.6,421.5,327.2,420z"/>
	</g>
	<g id="HATCH_5_">
		<path d="M327.2,420c2.4-2.7-2-5.4-3.6-2.1C322.6,420.4,325.6,421.5,327.2,420z"/>
	</g>
	<g id="SPLINE_14_">
		<path class="st0" d="M339.4,437.1c-0.9-0.7-1.7,0.3-1.7,0.3c-3.3,5.2-4.9,7.7-6.4,10.2c-0.7,1-1.3,2.4-2.5,3.1
			c-0.9,0.6-2.1,0.8-3,0.2c-0.6-0.4-1-1.1-1.2-1.9c-0.7-3.5,1.4-13.2,2.2-16.6c0.4-1.7,0.3-3.7-1.7-4c-2.6-0.4-4.1,0.2-4.4,2.2
			c-0.6,2.8-1.3,5.8-1.6,8.9c-1.2,1.9-2.3,3.7-2.9,4.6c-1.4,2.3-2.8,4.6-4.5,6.6c-2,2-3-0.5-3-2.1c0.1-5.8,2.3-12.1,3.7-17.7
			c0.8-3.2,0.4-3.8-3-3.7c-3.3,0-5.1,0.1-5.4,0c0.4-2.3,1.1-6.7-0.6-8.5c-0.7-0.8-2.1-0.8-3.1-0.6c-4.8,1-7.5,8.3-2.7,10.4
			c1,0.4,2.5,0.7,3.6,1c0.1,0-3.6,5.7-4.9,7.6c0,0-0.1,0.2-0.2,0.5c-4.3,7-7.6,13.9-10.8,20.8c-0.4,0.8-0.8,1.8-1.4,2.6
			c0-2.1,0.3-3.8,0.5-5.8c0.9-7.8,2.2-15.6,2.8-23.3c0-1.4-0.4-3.1-1.9-3.6c-1.4-0.6-3.1-0.2-4.1,0.9c-2.5,3-3.6,6.9-5.1,10.4
			c-1.4,3.8-2.9,7.7-4.1,11.6c-2.3-6.4-0.5-13.9,0.1-20.6c0.3-2.6-0.6-3.6-3.2-3.3c-1.4,0.1-2.1,0.9-2.5,2.3
			c-0.8,3.1-1.1,6.4-1.2,9.7c-1.2,1.5-2.6,2.7-4.5,3.3c0.3-2.5,0.5-5.1,0.1-7.5c-1.7-8.4-11.2-8.8-14.1-1.3c-0.5,1.4-1.1,3.1-1.5,5
			c-2.4,3.3-4.5,4.7-8.6,6c-0.4,0.2-0.5,0-0.6-0.2c-2.5-5-5.3-10.7-3.9-15.9c0.2-0.9,1-3.4,2.1-1.9c0.8,1.4,0.8,3.1,0.7,4.8
			c-0.1,2,2.8,1.3,2.8,0c0-1.4-0.1-2.9-0.5-4.3c-0.6-2.5-2.2-3.6-4.8-3.3c-3.6,0.5-6.6,3.2-7,6.8c-0.4,2.6,0.1,5,1,7.3
			c-2.6,3.7-4.7,5.3-9.1,6.7c-0.4,0.2-0.5,0-0.6-0.2c-2.5-5-5.3-10.7-3.9-15.9c0.2-0.9,1-3.4,2.1-1.9c0.8,1.4,0.8,3.1,0.7,4.8
			c-0.1,2,2.8,1.3,2.8,0c0-1.4-0.1-2.9-0.5-4.3c-0.6-2.5-2.2-3.6-4.8-3.3c-3.6,0.5-6.6,3.2-7,6.8c-0.4,2.6,0.2,5.1,1.1,7.4
			c-2.9,4.6-4.4,7-5.8,9.3c-0.7,1-1.3,2.4-2.5,3.1c-0.9,0.6-2.1,0.8-3,0.2c-0.6-0.4-1-1.1-1.2-1.9c-0.7-3.5,1.4-13.2,2.2-16.6
			c0.4-1.7,0.3-3.7-1.7-4c-2.6-0.4-4.1,0.2-4.4,2.2c-0.6,2.8-1.3,5.8-1.6,8.9c-7.1,11.4-16.5,34.3-20.2,41.9
			c-1.2,2.7-5.4,6.6,1.8-23.3c1.4-5.8,9.9-44.2,8.2-49.6c-0.7-2.5-3.2-3.9-6-3.6c-2.4,0.2-4.4,2.4-5.6,3.9
			c-5.9,8.5-10.8,20.2-10.8,21.9l0.8-19c0-1.2-0.2-2.5-0.4-3.7c-0.5-3.2-6.1-6.1-10.8,4.9c-2.7,6.3-3.3,7-5.6,13.3
			c0.3-5.6,0.5-12.6,0.8-18.5c0-1.4-0.6-2.3-2.1-2.4c-2.1,0-3.6,0.4-3.7,2.1c-0.8,16.1-2.2,36.4-2.6,51.8c-0.1,2.4,0.3,3.1,2.7,3
			c2.5,0.1,2.4-0.5,2.6-3.8c0.4-6.9,1.8-17.2,3.1-23.9c1.5-7.6,5.3-15.3,8.2-22.4l0.9-1.8c4.1-8.3-2.6,42.1-3.1,46.9
			c-0.1,1.4,1.2,2,2.6,2.1c2.1,0.2,2.9-0.4,3.1-2.2c0.7-3.7,1.4-8.5,2.3-12.4c2.7-13.3,16.1-36.9,17.4-36.5c3.7,0-10.2,46.2-10.9,64
			c-0.1,1.4-0.1,3.4-0.1,4.4c0,10.9,6.8,12.1,9.8,5.5c5.6-12.4,10.7-25,17.6-37.9c0.1,1.9,0.3,3.7,0.7,5.3c1,3.6,4.2,5.4,7.8,4.3
			c0.9-0.2,1.8-0.7,2.4-1.4c2.2-2.1,3.5-4.8,5.2-7.2c0.6-1,1.4-2.3,3.1-4.8c1.1,2.4,2.5,4.7,3.3,7c-3,3-5.2,7.4-4.5,11.7
			c0.8,6.3,8.7,4.1,11.1,0.1c2.3-3.8,1-7.4-0.3-11.5c-0.1-0.1-0.2-0.3-0.1-0.4c0.1-0.1,0.2-0.2,0.3-0.2c3.7-1.6,6.3-2.7,9.5-6.8
			c1.2,2.5,2.5,4.8,3.4,7.1c-3,3-5.2,7.4-4.5,11.7c0.8,6.3,8.7,4.1,11.1,0.1c2.3-3.8,1-7.4-0.3-11.5c-0.1-0.1-0.2-0.3-0.1-0.4
			c0.1-0.1,0.2-0.2,0.3-0.2c2.9-1.3,5.1-2.2,7.5-4.5c-0.5,5.4,0.7,10.9,6.8,12c2.7,0.5,5-0.7,6.5-2.8c1.4-2,2.2-4.5,2.8-6.9
			c1.9-0.3,3.3-1.2,4.6-2.4c0,0.7,0,1.4,0,2c0,4.1,1.3,9.4,5.8,9.4c2.2,0,3.1-1.4,3.6-3.1c1-2.8,5.2-14,6.4-16.7
			c-1.3,8.3-2.3,15.9-2.2,23.9c0,3,1.3,5.2,4.2,5.5c1.5,0.1,2.5-0.9,3.3-2.3c4.2-7.8,7.4-15.7,11.7-22.4c0,0,0.1-0.2,0.2-0.4
			c1.5-2.3,4.7-7.3,5.4-8.7l3.3,0.1c-1.2,4.3-2.5,8.5-3,12.9c-0.2,1.4-0.4,2.9-0.4,4.4c0,1.9,0.4,4.2,2,5.5
			c5.9,5.1,10.1-3.6,12.4-7.3c0.3-0.5,0.7-1,1.1-1.7c0,2.1,0.2,4.2,0.8,6.1c1,3.6,4.2,5.4,7.8,4.3c0.9-0.2,1.8-0.7,2.4-1.4
			c2.2-2.1,3.5-4.8,5.2-7.2c0.7-1.2,1.8-2.8,4.2-6.6C339.3,438.8,340.1,437.6,339.4,437.1z"/>
	</g>
	<g id="SPLINE_13_">
		<path class="st0" d="M212,460.3c-0.9,1.1-2.4,0.9-2.7-0.6c-0.8-3.5,0.8-7.1,2.9-9.8C213.6,453,214.5,457.8,212,460.3z"/>
	</g>
	<g id="SPLINE_12_">
		<path class="st0" d="M231.3,460.3c-0.9,1.1-2.4,0.9-2.7-0.6c-0.8-3.5,0.8-7.1,2.9-9.8C232.9,453,233.8,457.8,231.3,460.3z"/>
	</g>
	<g id="SPLINE_11_">
		<path class="st0" d="M251.1,449.4c-0.8-2.6-1-5.5-0.1-8.3c0.1-0.2,0.2-0.5,0.5-0.4c2.3,1.8,4.2,3.2,7,3.8
			C257.7,451.8,252.6,455.6,251.1,449.4z"/>
	</g>
	<g id="SPLINE_10_">
		<path class="st0" d="M258.7,442.6c-2.6-0.7-4.6-2.1-5.5-4.2c-0.7-2.1-0.3-4.4,1-6.1c0.9-1.1,2.7-0.6,3.4,0.3
			C259.8,434.7,259.3,439.6,258.7,442.6z"/>
	</g>
	<g id="SPLINE_9_">
		<path class="st0" d="M301.4,426.6c-1.3-2.5-1.2-4.4,0-6.8C302.5,422.1,302.3,424.1,301.4,426.6z"/>
	</g>
	<g id="HATCH_4_">
		<path d="M339.4,437.1c-0.9-0.7-1.7,0.3-1.7,0.3c-3.3,5.2-4.9,7.7-6.4,10.2c-0.7,1-1.3,2.4-2.5,3.1c-0.9,0.6-2.1,0.8-3,0.2
			c-0.6-0.4-1-1.1-1.2-1.9c-0.7-3.5,1.4-13.2,2.2-16.6c0.4-1.7,0.3-3.7-1.7-4c-2.6-0.4-4.1,0.2-4.4,2.2c-0.6,2.8-1.3,5.8-1.6,8.9
			c-1.2,1.9-2.3,3.7-2.9,4.6c-1.4,2.3-2.8,4.6-4.5,6.6c-2,2-3-0.5-3-2.1c0.1-5.8,2.3-12.1,3.7-17.7c0.8-3.2,0.4-3.8-3-3.7
			c-3.3,0-5.1,0.1-5.4,0c0.4-2.3,1.1-6.7-0.6-8.5c-0.7-0.8-2.1-0.8-3.1-0.6c-4.8,1-7.5,8.3-2.7,10.4c1,0.4,2.5,0.7,3.6,1
			c0.1,0-3.6,5.7-4.9,7.6c0,0-0.1,0.2-0.2,0.5c-4.3,7-7.6,13.9-10.8,20.8c-0.4,0.8-0.8,1.8-1.4,2.6c0-2.1,0.3-3.8,0.5-5.8
			c0.9-7.8,2.2-15.6,2.8-23.3c0-1.4-0.4-3.1-1.9-3.6c-1.4-0.6-3.1-0.2-4.1,0.9c-2.5,3-3.6,6.9-5.1,10.4c-1.4,3.8-2.9,7.7-4.1,11.6
			c-2.3-6.4-0.5-13.9,0.1-20.6c0.3-2.6-0.6-3.6-3.2-3.3c-1.4,0.1-2.1,0.9-2.5,2.3c-0.8,3.1-1.1,6.4-1.2,9.7
			c-1.2,1.5-2.6,2.7-4.5,3.3c0.3-2.5,0.5-5.1,0.1-7.5c-1.7-8.4-11.2-8.8-14.1-1.3c-0.5,1.4-1.1,3.1-1.5,5c-2.4,3.3-4.5,4.7-8.6,6
			c-0.4,0.2-0.5,0-0.6-0.2c-2.5-5-5.3-10.7-3.9-15.9c0.2-0.9,1-3.4,2.1-1.9c0.8,1.4,0.8,3.1,0.7,4.8c-0.1,2,2.8,1.3,2.8,0
			c0-1.4-0.1-2.9-0.5-4.3c-0.6-2.5-2.2-3.6-4.8-3.3c-3.6,0.5-6.6,3.2-7,6.8c-0.4,2.6,0.1,5,1,7.3c-2.6,3.7-4.7,5.3-9.1,6.7
			c-0.4,0.2-0.5,0-0.6-0.2c-2.5-5-5.3-10.7-3.9-15.9c0.2-0.9,1-3.4,2.1-1.9c0.8,1.4,0.8,3.1,0.7,4.8c-0.1,2,2.8,1.3,2.8,0
			c0-1.4-0.1-2.9-0.5-4.3c-0.6-2.5-2.2-3.6-4.8-3.3c-3.6,0.5-6.6,3.2-7,6.8c-0.4,2.6,0.2,5.1,1.1,7.4c-2.9,4.6-4.4,7-5.8,9.3
			c-0.7,1-1.3,2.4-2.5,3.1c-0.9,0.6-2.1,0.8-3,0.2c-0.6-0.4-1-1.1-1.2-1.9c-0.7-3.5,1.4-13.2,2.2-16.6c0.4-1.7,0.3-3.7-1.7-4
			c-2.6-0.4-4.1,0.2-4.4,2.2c-0.6,2.8-1.3,5.8-1.6,8.9c-7.1,11.4-16.5,34.3-20.2,41.9c-1.2,2.7-5.4,6.6,1.8-23.3
			c1.4-5.8,9.9-44.2,8.2-49.6c-0.7-2.5-3.2-3.9-6-3.6c-2.4,0.2-4.4,2.4-5.6,3.9c-5.9,8.5-10.8,20.2-10.8,21.9l0.8-19
			c0-1.2-0.2-2.5-0.4-3.7c-0.5-3.2-6.1-6.1-10.8,4.9c-2.7,6.3-3.3,7-5.6,13.3c0.3-5.6,0.5-12.6,0.8-18.5c0-1.4-0.6-2.3-2.1-2.4
			c-2.1,0-3.6,0.4-3.7,2.1c-0.8,16.1-2.2,36.4-2.6,51.8c-0.1,2.4,0.3,3.1,2.7,3c2.5,0.1,2.4-0.5,2.6-3.8c0.4-6.9,1.8-17.2,3.1-23.9
			c1.5-7.6,5.3-15.3,8.2-22.4l0.9-1.8c4.1-8.3-2.6,42.1-3.1,46.9c-0.1,1.4,1.2,2,2.6,2.1c2.1,0.2,2.9-0.4,3.1-2.2
			c0.7-3.7,1.4-8.5,2.3-12.4c2.7-13.3,16.1-36.9,17.4-36.5c3.7,0-10.2,46.2-10.9,64c-0.1,1.4-0.1,3.4-0.1,4.4
			c0,10.9,6.8,12.1,9.8,5.5c5.6-12.4,10.7-25,17.6-37.9c0.1,1.9,0.3,3.7,0.7,5.3c1,3.6,4.2,5.4,7.8,4.3c0.9-0.2,1.8-0.7,2.4-1.4
			c2.2-2.1,3.5-4.8,5.2-7.2c0.6-1,1.4-2.3,3.1-4.8c1.1,2.4,2.5,4.7,3.3,7c-3,3-5.2,7.4-4.5,11.7c0.8,6.3,8.7,4.1,11.1,0.1
			c2.3-3.8,1-7.4-0.3-11.5c-0.1-0.1-0.2-0.3-0.1-0.4c0.1-0.1,0.2-0.2,0.3-0.2c3.7-1.6,6.3-2.7,9.5-6.8c1.2,2.5,2.5,4.8,3.4,7.1
			c-3,3-5.2,7.4-4.5,11.7c0.8,6.3,8.7,4.1,11.1,0.1c2.3-3.8,1-7.4-0.3-11.5c-0.1-0.1-0.2-0.3-0.1-0.4c0.1-0.1,0.2-0.2,0.3-0.2
			c2.9-1.3,5.1-2.2,7.5-4.5c-0.5,5.4,0.7,10.9,6.8,12c2.7,0.5,5-0.7,6.5-2.8c1.4-2,2.2-4.5,2.8-6.9c1.9-0.3,3.3-1.2,4.6-2.4
			c0,0.7,0,1.4,0,2c0,4.1,1.3,9.4,5.8,9.4c2.2,0,3.1-1.4,3.6-3.1c1-2.8,5.2-14,6.4-16.7c-1.3,8.3-2.3,15.9-2.2,23.9
			c0,3,1.3,5.2,4.2,5.5c1.5,0.1,2.5-0.9,3.3-2.3c4.2-7.8,7.4-15.7,11.7-22.4c0,0,0.1-0.2,0.2-0.4c1.5-2.3,4.7-7.3,5.4-8.7l3.3,0.1
			c-1.2,4.3-2.5,8.5-3,12.9c-0.2,1.4-0.4,2.9-0.4,4.4c0,1.9,0.4,4.2,2,5.5c5.9,5.1,10.1-3.6,12.4-7.3c0.3-0.5,0.7-1,1.1-1.7
			c0,2.1,0.2,4.2,0.8,6.1c1,3.6,4.2,5.4,7.8,4.3c0.9-0.2,1.8-0.7,2.4-1.4c2.2-2.1,3.5-4.8,5.2-7.2c0.7-1.2,1.8-2.8,4.2-6.6
			C339.3,438.8,340.1,437.6,339.4,437.1z M212,460.3c-0.9,1.1-2.4,0.9-2.7-0.6c-0.8-3.5,0.8-7.1,2.9-9.8
			C213.6,453,214.5,457.8,212,460.3z M231.3,460.3c-0.9,1.1-2.4,0.9-2.7-0.6c-0.8-3.5,0.8-7.1,2.9-9.8
			C232.9,453,233.8,457.8,231.3,460.3z M251.1,449.4c-0.8-2.6-1-5.5-0.1-8.3c0.1-0.2,0.2-0.5,0.5-0.4c2.3,1.8,4.2,3.2,7,3.8
			C257.7,451.8,252.6,455.6,251.1,449.4z M258.7,442.6c-2.6-0.7-4.6-2.1-5.5-4.2c-0.7-2.1-0.3-4.4,1-6.1c0.9-1.1,2.7-0.6,3.4,0.3
			C259.8,434.7,259.3,439.6,258.7,442.6z M301.4,426.6c-1.3-2.5-1.2-4.4,0-6.8C302.5,422.1,302.3,424.1,301.4,426.6z"/>
	</g>
</g>
</svg>
