<?xml version="1.0" encoding="utf-8"?>
<!-- Generator: Adobe Illustrator 22.0.1, SVG Export Plug-In . SVG Version: 6.00 Build 0)  -->
<svg version="1.1" id="Layer_1" xmlns="http://www.w3.org/2000/svg" xmlns:xlink="http://www.w3.org/1999/xlink" x="0px" y="0px"
	 viewBox="0 0 500 500" style="enable-background:new 0 0 500 500;" xml:space="preserve">
<style type="text/css">
	.st0{fill:none;stroke:#000000;stroke-width:0;stroke-linecap:round;stroke-linejoin:round;stroke-miterlimit:10;}
</style>
<g id="POLYLINE_1_">
	<path class="st0" d="M495,189.8l-4.5,104.3l-9.1,86.2l-4.5,59l-136.1-13.6l-167.9-31.8l-4.5,22.7l-13.6-4.5l-13.6,4.5H86.7
		l-9.1-22.7l-9.1-4.5l-9.1-59H45.8l-4.5,9.1l-9.1-13.6l4.5-22.7l18.1-36.3l-27.2-18.1v-27.2l-18.1-9.1L5,176.2v-31.8l9.1-9.1
		l4.5-27.2c0,0,77.1,18.1,77.1,18.1L259.1,158l127,18.1L495,189.8"/>
</g>
<g id="HATCH_3_">
	<path d="M495,189.8l-4.5,104.3l-9.1,86.2l-4.5,59l-136.1-13.6l-167.9-31.8l-4.5,22.7l-13.6-4.5l-13.6,4.5H86.7l-9.1-22.7l-9.1-4.5
		l-9.1-59H45.8l-4.5,9.1l-9.1-13.6l4.5-22.7l18.1-36.3l-27.2-18.1v-27.2l-18.1-9.1L5,176.2v-31.8l9.1-9.1l4.5-27.2l77.1,18.1
		L259.1,158l127,18.1L495,189.8C495,189.8,495,189.8,495,189.8z"/>
</g>
<g id="SPLINE_9_">
	<path class="st0" d="M470.4,96.6c-0.8-0.7-1.7,0.3-1.7,0.3c-1.5,2.5-3.4,5.5-4.2,6.8c-1.3,2.3-4,7.1-5.3,7.1c-2.4,0-1-8.3-0.8-9.9
		c0.5-3.5,1.3-6.9,1.9-10.4c0.2-1.4,0.2-2.7-1.7-3.2c-2.1-0.6-3.5,0-4.2,1.5l-2.9,5.4c-1-2.5-1.8-5.6-4.5-6.7
		c-6.5-1.8-9.5,5.6-10.4,12.3c0,0,0,0,0,0.1c-3.9,6.5-7.8,13-11.8,19.5c0-9.1,3.6-17.9,4.3-27c0.2-3.4-1.1-7.3-5-6.1
		c-5.3,1.8-10.2,13.7-12,18.1c0-5,0.6-9.9,0.6-14.9c0-0.7,0-1.3-0.4-1.9c-0.5-1.1-2.1-1.1-3.2-1.1c-1.1,0.1-2.4,0.3-2.9,1.2
		c-0.2,0.4-0.2,0.8-0.2,1.3c-0.1,3.6-0.2,7.2-0.2,10.8c-1,1.6-1.9,3.1-2.4,3.9c-1.3,2.3-4,7.1-5.3,7.1c-2.4,0-1-8.3-0.8-9.9
		c0.5-3.5,1.3-6.9,1.9-10.4c0.2-1.4,0.2-2.7-1.7-3.2c-2.1-0.6-3.5,0-4.2,1.5l-2.9,5.4c-1-2.5-1.8-5.6-4.5-6.7
		c-6.4-1.8-9.4,5.6-10.4,12.2c-1.7,2.8-3.4,5.7-5.2,8.4c-0.9,1.5-2.2,3.3-3.9,3.3c-6.1-0.2-3.4-15.5-2.9-18.6
		c0.1-0.8,3.3-18.1,3.4-18.1c2.2,0,4.5,0.1,6.6-0.1c1,0,1.3-1.7,0.6-2.2c-0.2-0.2-0.4-0.2-0.7-0.2c-2.1-0.2-3.9-0.3-5.8-0.3
		c0.2-1,1.7-7.7,1.9-8.5c0.5-3.7-3.7-3.6-5-1.2c-1,1.9-1.5,3.8-3.4,9.5c-1.7,0-2.9-0.1-4.2-0.1c-0.3,0-0.5,0-0.8,0
		c-0.8,0-1.3,0.6-1.3,1.3c0,0.5,0.3,0.8,0.6,0.8c0.4,0.2,5,0.7,5,0.7c-1.4,7.4-3.7,15.7-3.9,23.5c-0.4,0.6-0.7,1.2-1.1,1.8
		c-3.9,6.5-7.8,13-11.8,19.5c0-9.1,3.6-17.9,4.3-27c0.2-3.4-1.1-7.3-5-6.1c-5.3,1.8-10.2,13.7-12,18.1c0-5,0.6-9.9,0.6-14.9
		c0-0.7,0-1.3-0.4-1.9c-0.5-1.1-2.1-1.1-3.2-1.1c-1.1,0.1-2.4,0.3-2.9,1.2c-0.2,0.4-0.2,0.8-0.2,1.3c-0.1,3.5-0.2,7-0.2,10.5
		c-1.1,1.3-2.4,2.3-4.2,2.8c0.3-2.5,0.5-5.1,0.1-7.5c-1.7-8.4-11.1-8.8-14.1-1.3c-0.6,1.5-1.2,3.3-1.6,5.3
		c-7.1,11.3-16.7,34.5-20.4,42.2c-1.2,2.7-5.4,6.6,1.8-23.3c1.4-5.8,9.9-44.2,8.2-49.5c-0.7-2.5-3.2-3.9-6-3.6
		c-2.4,0.2-4.4,2.4-5.6,3.9c-5.9,8.5-10.8,20.2-10.8,21.9l0.8-19c0-1.2-0.2-2.5-0.4-3.7c-0.5-3.2-6.1-6.1-10.8,4.8
		c-2.7,6.3-3.3,7-5.6,13.3c0.3-5.6,0.5-12.6,0.8-18.5c0-1.4-0.6-2.3-2.1-2.4c-2.1,0-3.6,0.4-3.7,2.1c-0.8,16.1-2.2,36.3-2.6,51.8
		c-0.1,2.4,0.3,3.1,2.7,3c2.5,0.1,2.4-0.5,2.6-3.8c0.4-6.9,1.8-17.2,3.1-23.8c1.5-7.6,5.3-15.3,8.2-22.4l0.9-1.8
		c4.1-8.3-2.6,42.1-3.1,46.8c-0.1,1.4,1.2,2,2.6,2.1c2.1,0.2,2.9-0.4,3.1-2.2c0.7-3.7,1.4-8.5,2.3-12.4
		c2.7-13.3,16.1-36.8,17.3-36.4c3.7,0-10.2,46.1-10.9,64c-0.1,1.4-0.1,3.4-0.1,4.4c0,10.9,6.8,12.1,9.8,5.5
		c5.5-12.2,10.6-24.7,17.4-37.4c0,4.6,1.6,8.9,6.9,9.8c2.7,0.5,5-0.7,6.5-2.8c1.4-2,2.2-4.5,2.8-6.9c1.7-0.3,3.1-1.1,4.3-2.2
		c0.1,3.6,0.2,7.1,0.3,10.7c0,0.5,0,0.9,0.4,1.2c0.2,0.3,0.6,0.4,1,0.4c1.4,0,3.2,0,4.1-1.1c0.3-0.5,0.4-1.1,0.5-1.8
		c2-7.8,5.1-15.6,10.2-21.7c0.2-0.2,0.5-0.4,0.7-0.4c0.4,0.1,0.3,0.6,0.2,1c-1.7,5.9-2.9,12.1-3.8,18.1c-0.5,2.8-0.8,5.7-0.6,8.5
		c0,1.2,0.2,2.5,0.8,3.5c0.6,1.1,1.7,2,2.9,2.2c2.6,0.1,4-2.4,5-4.2c3.6-6.8,6.8-11.9,9.9-16.9c0.1,1.6,0.3,3.2,0.7,4.8
		c0.4,1.7,1,3.2,2.1,4.5c2.7,3.3,7.9,4.3,11.6-0.3c1.6-2.1,3-4.3,4.3-6.5c0,0.9,0,1.8,0.1,2.5c0.1,1.3,0.6,2.8,1.3,4
		c2.2,3.4,7.5,3.2,9.4-0.2c1.7-3,3-6.3,4.6-9.4c0,2.3-0.1,4.5,0,6.9c0.2,3.5,3.7,6.8,7.2,5.4c3.5-1.4,5.3-5.6,7.1-8.6
		c0.3-0.4,0.6-0.9,0.9-1.4c0.1,3.2,0.2,6.4,0.3,9.5c0,0.5,0,0.9,0.4,1.2c0.2,0.3,0.6,0.4,1,0.4c1.4,0,3.2,0,4.1-1.1
		c0.3-0.5,0.4-1.1,0.5-1.8c2-7.8,5.1-15.6,10.2-21.7c0.2-0.2,0.5-0.4,0.7-0.4c0.4,0.1,0.3,0.6,0.2,1c-1.7,5.9-2.9,12.1-3.8,18.1
		c-0.5,2.8-0.8,5.7-0.6,8.5c0,1.2,0.2,2.5,0.8,3.5c0.6,1.1,1.7,2,2.9,2.2c2.6,0.1,4-2.4,5-4.2c3.1-5.7,5.8-10.2,8.5-14.6
		c0,1,0,1.9,0.1,2.6c0.1,1.3,0.6,2.8,1.3,4c2.2,3.4,7.5,3.2,9.4-0.2c1.7-3,3-6.3,4.6-9.4c0,2.3-0.1,4.5,0,6.9
		c0.2,3.5,3.7,6.8,7.2,5.4c3.5-1.4,5.3-5.6,7.1-8.6c1.1-1.7,3.1-4.8,4.2-6.6C470.3,98.3,471.1,97.1,470.4,96.6z"/>
</g>
<g id="SPLINE_8_">
	<path class="st0" d="M311.1,109c-0.8-2.6-1-5.5-0.1-8.3c0.1-0.2,0.2-0.5,0.5-0.4c2.3,1.8,4.2,3.2,7,3.8
		C317.6,111.4,312.6,115.2,311.1,109z"/>
</g>
<g id="SPLINE_7_">
	<path class="st0" d="M318.6,102.2c-2.6-0.7-4.6-2.1-5.5-4.2c-0.7-2.1-0.3-4.4,1-6.1c0.9-1.1,2.7-0.6,3.4,0.3
		C319.8,94.4,319.3,99.2,318.6,102.2z"/>
</g>
<g id="SPLINE_6_">
	<path class="st0" d="M383,111c-2.8,0-1.2-9.5-0.9-12c0.3-1.9,1-9.3,3.7-9C392.8,94,384.5,111,383,111z"/>
</g>
<g id="SPLINE_5_">
	<path class="st0" d="M444,111c-2.8,0-1.2-9.5-0.9-12c0.3-1.9,1-9.3,3.7-9C453.8,94,445.4,111,444,111z"/>
</g>
<g id="HATCH_2_">
	<path d="M470.4,96.6c-0.8-0.7-1.7,0.3-1.7,0.3c-1.5,2.5-3.4,5.5-4.2,6.8c-1.3,2.3-4,7.1-5.3,7.1c-2.4,0-1-8.3-0.8-9.9
		c0.5-3.5,1.3-6.9,1.9-10.4c0.2-1.4,0.2-2.7-1.7-3.2c-2.1-0.6-3.5,0-4.2,1.5l-2.9,5.4c-1-2.5-1.8-5.6-4.5-6.7
		c-6.5-1.8-9.5,5.6-10.4,12.3c0,0,0,0,0,0.1c-3.9,6.5-7.8,13-11.8,19.5c0-9.1,3.6-17.9,4.3-27c0.2-3.4-1.1-7.3-5-6.1
		c-5.3,1.8-10.2,13.7-12,18.1c0-5,0.6-9.9,0.6-14.9c0-0.7,0-1.3-0.4-1.9c-0.5-1.1-2.1-1.1-3.2-1.1c-1.1,0.1-2.4,0.3-2.9,1.2
		c-0.2,0.4-0.2,0.8-0.2,1.3c-0.1,3.6-0.2,7.2-0.2,10.8c-1,1.6-1.9,3.1-2.4,3.9c-1.3,2.3-4,7.1-5.3,7.1c-2.4,0-1-8.3-0.8-9.9
		c0.5-3.5,1.3-6.9,1.9-10.4c0.2-1.4,0.2-2.7-1.7-3.2c-2.1-0.6-3.5,0-4.2,1.5l-2.9,5.4c-1-2.5-1.8-5.6-4.5-6.7
		c-6.4-1.8-9.4,5.6-10.4,12.2c-1.7,2.8-3.4,5.7-5.2,8.4c-0.9,1.5-2.2,3.3-3.9,3.3c-6.1-0.2-3.4-15.5-2.9-18.6
		c0.1-0.8,3.3-18.1,3.4-18.1c2.2,0,4.5,0.1,6.6-0.1c1,0,1.3-1.7,0.6-2.2c-0.2-0.2-0.4-0.2-0.7-0.2c-2.1-0.2-3.9-0.3-5.8-0.3
		c0.2-1,1.7-7.7,1.9-8.5c0.5-3.7-3.7-3.6-5-1.2c-1,1.9-1.5,3.8-3.4,9.5c-1.7,0-2.9-0.1-4.2-0.1c-0.3,0-0.5,0-0.8,0
		c-0.8,0-1.3,0.6-1.3,1.3c0,0.5,0.3,0.8,0.6,0.8c0.4,0.2,5,0.7,5,0.7c-1.4,7.4-3.7,15.7-3.9,23.5c-0.4,0.6-0.7,1.2-1.1,1.8
		c-3.9,6.5-7.8,13-11.8,19.5c0-9.1,3.6-17.9,4.3-27c0.2-3.4-1.1-7.3-5-6.1c-5.3,1.8-10.2,13.7-12,18.1c0-5,0.6-9.9,0.6-14.9
		c0-0.7,0-1.3-0.4-1.9c-0.5-1.1-2.1-1.1-3.2-1.1c-1.1,0.1-2.4,0.3-2.9,1.2c-0.2,0.4-0.2,0.8-0.2,1.3c-0.1,3.5-0.2,7-0.2,10.5
		c-1.1,1.3-2.4,2.3-4.2,2.8c0.3-2.5,0.5-5.1,0.1-7.5c-1.7-8.4-11.1-8.8-14.1-1.3c-0.6,1.5-1.2,3.3-1.6,5.3
		c-7.1,11.3-16.7,34.5-20.4,42.2c-1.2,2.7-5.4,6.6,1.8-23.3c1.4-5.8,9.9-44.2,8.2-49.5c-0.7-2.5-3.2-3.9-6-3.6
		c-2.4,0.2-4.4,2.4-5.6,3.9c-5.9,8.5-10.8,20.2-10.8,21.9l0.8-19c0-1.2-0.2-2.5-0.4-3.7c-0.5-3.2-6.1-6.1-10.8,4.8
		c-2.7,6.3-3.3,7-5.6,13.3c0.3-5.6,0.5-12.6,0.8-18.5c0-1.4-0.6-2.3-2.1-2.4c-2.1,0-3.6,0.4-3.7,2.1c-0.8,16.1-2.2,36.3-2.6,51.8
		c-0.1,2.4,0.3,3.1,2.7,3c2.5,0.1,2.4-0.5,2.6-3.8c0.4-6.9,1.8-17.2,3.1-23.8c1.5-7.6,5.3-15.3,8.2-22.4l0.9-1.8
		c4.1-8.3-2.6,42.1-3.1,46.8c-0.1,1.4,1.2,2,2.6,2.1c2.1,0.2,2.9-0.4,3.1-2.2c0.7-3.7,1.4-8.5,2.3-12.4
		c2.7-13.3,16.1-36.8,17.3-36.4c3.7,0-10.2,46.1-10.9,64c-0.1,1.4-0.1,3.4-0.1,4.4c0,10.9,6.8,12.1,9.8,5.5
		c5.5-12.2,10.6-24.7,17.4-37.4c0,4.6,1.6,8.9,6.9,9.8c2.7,0.5,5-0.7,6.5-2.8c1.4-2,2.2-4.5,2.8-6.9c1.7-0.3,3.1-1.1,4.3-2.2
		c0.1,3.6,0.2,7.1,0.3,10.7c0,0.5,0,0.9,0.4,1.2c0.2,0.3,0.6,0.4,1,0.4c1.4,0,3.2,0,4.1-1.1c0.3-0.5,0.4-1.1,0.5-1.8
		c2-7.8,5.1-15.6,10.2-21.7c0.2-0.2,0.5-0.4,0.7-0.4c0.4,0.1,0.3,0.6,0.2,1c-1.7,5.9-2.9,12.1-3.8,18.1c-0.5,2.8-0.8,5.7-0.6,8.5
		c0,1.2,0.2,2.5,0.8,3.5c0.6,1.1,1.7,2,2.9,2.2c2.6,0.1,4-2.4,5-4.2c3.6-6.8,6.8-11.9,9.9-16.9c0.1,1.6,0.3,3.2,0.7,4.8
		c0.4,1.7,1,3.2,2.1,4.5c2.7,3.3,7.9,4.3,11.6-0.3c1.6-2.1,3-4.3,4.3-6.5c0,0.9,0,1.8,0.1,2.5c0.1,1.3,0.6,2.8,1.3,4
		c2.2,3.4,7.5,3.2,9.4-0.2c1.7-3,3-6.3,4.6-9.4c0,2.3-0.1,4.5,0,6.9c0.2,3.5,3.7,6.8,7.2,5.4c3.5-1.4,5.3-5.6,7.1-8.6
		c0.3-0.4,0.6-0.9,0.9-1.4c0.1,3.2,0.2,6.4,0.3,9.5c0,0.5,0,0.9,0.4,1.2c0.2,0.3,0.6,0.4,1,0.4c1.4,0,3.2,0,4.1-1.1
		c0.3-0.5,0.4-1.1,0.5-1.8c2-7.8,5.1-15.6,10.2-21.7c0.2-0.2,0.5-0.4,0.7-0.4c0.4,0.1,0.3,0.6,0.2,1c-1.7,5.9-2.9,12.1-3.8,18.1
		c-0.5,2.8-0.8,5.7-0.6,8.5c0,1.2,0.2,2.5,0.8,3.5c0.6,1.1,1.7,2,2.9,2.2c2.6,0.1,4-2.4,5-4.2c3.1-5.7,5.8-10.2,8.5-14.6
		c0,1,0,1.9,0.1,2.6c0.1,1.3,0.6,2.8,1.3,4c2.2,3.4,7.5,3.2,9.4-0.2c1.7-3,3-6.3,4.6-9.4c0,2.3-0.1,4.5,0,6.9
		c0.2,3.5,3.7,6.8,7.2,5.4c3.5-1.4,5.3-5.6,7.1-8.6c1.1-1.7,3.1-4.8,4.2-6.6C470.3,98.3,471.1,97.1,470.4,96.6z M311.1,109
		c-0.8-2.6-1-5.5-0.1-8.3c0.1-0.2,0.2-0.5,0.5-0.4c2.3,1.8,4.2,3.2,7,3.8C317.6,111.4,312.6,115.2,311.1,109z M318.6,102.2
		c-2.6-0.7-4.6-2.1-5.5-4.2c-0.7-2.1-0.3-4.4,1-6.1c0.9-1.1,2.7-0.6,3.4,0.3C319.8,94.4,319.3,99.2,318.6,102.2z M383,111
		c-2.8,0-1.2-9.5-0.9-12c0.3-1.9,1-9.3,3.7-9C392.8,94,384.5,111,383,111z M444,111c-2.8,0-1.2-9.5-0.9-12c0.3-1.9,1-9.3,3.7-9
		C453.8,94,445.4,111,444,111z"/>
</g>
</svg>
