<?xml version="1.0" encoding="utf-8"?>
<!-- Generator: Adobe Illustrator 22.0.1, SVG Export Plug-In . SVG Version: 6.00 Build 0)  -->
<svg version="1.1" id="Layer_1" xmlns="http://www.w3.org/2000/svg" xmlns:xlink="http://www.w3.org/1999/xlink" x="0px" y="0px"
	 viewBox="0 0 500 500" style="enable-background:new 0 0 500 500;" xml:space="preserve">
<style type="text/css">
	.st0{fill:none;stroke:#000000;stroke-width:0;stroke-linecap:round;stroke-linejoin:round;stroke-miterlimit:10;}
</style>
<g id="POLYLINE_1_">
	<polyline class="st0" points="399.5,483.2 406.3,469.4 454.3,469.4 468,448.9 454.3,277.4 447.5,10 296.6,16.9 269.2,37.4 
		269.2,78.6 228,140.3 234.9,243.1 255.5,270.6 248.6,291.1 221.2,318.6 207.5,373.4 207.5,400.9 310.3,394 344.6,387.1 
		351.5,428.3 365.2,435.2 378.9,469.4 399.5,483.2 	"/>
</g>
<g id="HATCH_11_">
	<polygon points="399.5,483.2 406.3,469.4 454.3,469.4 468,448.9 454.3,277.4 447.5,10 296.6,16.9 269.2,37.4 269.2,78.6 228,140.3 
		234.9,243.1 255.5,270.6 248.6,291.1 221.2,318.6 207.5,373.4 207.5,400.9 310.3,394 344.6,387.1 351.5,428.3 365.2,435.2 
		378.9,469.4 399.5,483.2 	"/>
</g>
<g id="INSERT_1_">
	<g id="SPLINE_21_">
		<path class="st0" d="M93.7,425.3c2.3-2.6-2-5.2-3.5-2C89.3,425.8,92.2,426.8,93.7,425.3z"/>
	</g>
	<g id="HATCH_10_">
		<path d="M93.7,425.3c2.3-2.6-2-5.2-3.5-2C89.3,425.8,92.2,426.8,93.7,425.3z"/>
	</g>
	<g id="SPLINE_20_">
		<path class="st0" d="M147.9,424.7c2.3-2.6-2-5.2-3.5-2C143.5,425.1,146.4,426.2,147.9,424.7z"/>
	</g>
	<g id="HATCH_9_">
		<path d="M147.9,424.7c2.3-2.6-2-5.2-3.5-2C143.5,425.1,146.4,426.2,147.9,424.7z"/>
	</g>
	<g id="SPLINE_19_">
		<path class="st0" d="M202,424c2.3-2.6-2-5.2-3.5-2C197.6,424.4,200.5,425.5,202,424z"/>
	</g>
	<g id="HATCH_8_">
		<path d="M202,424c2.3-2.6-2-5.2-3.5-2C197.6,424.4,200.5,425.5,202,424z"/>
	</g>
	<g id="SPLINE_18_">
		<path class="st0" d="M279.4,423c2.3-2.6-2-5.2-3.5-2C275,423.5,277.9,424.5,279.4,423z"/>
	</g>
	<g id="HATCH_7_">
		<path d="M279.4,423c2.3-2.6-2-5.2-3.5-2C275,423.5,277.9,424.5,279.4,423z"/>
	</g>
	<g id="SPLINE_17_">
		<path class="st0" d="M291.5,439.5c-0.9-0.7-1.6,0.3-1.6,0.3c-3.1,5-4.6,7.6-6.1,10c-0.7,1-1.3,2.3-2.4,3c-0.9,0.6-2,0.8-2.9,0.2
			c-0.6-0.4-1-1.1-1.2-1.8c-0.7-3.4,1.2-12.8,1.9-16.1c0.4-1.6,0.3-3.6-1.7-3.9c-2.5-0.4-4,0.3-4.3,2.2c-0.6,2.6-1.1,5.4-1.4,8.3
			c-1.3,1.7-2.2,2.3-3.3,2.6c-1.4,0.3-2.7,0.1-4-0.7c-0.3-0.1-0.4-0.5-0.4-0.7c0.3-2.6,0.4-5-0.2-7.6c-1.4-5.2-7.8-7-10.8-2.2
			c-1.9,3.1-3.4,6.4-5.1,9.5c0.1-0.8,0.2-1.9,0.2-3c0.2-2.5,0.3-5,0.5-7.4c0.1-1.5-0.6-2.2-2-2.4c-2.8-0.5-3.8,0.4-4.2,3.1
			c-0.4,3-0.6,6-0.8,9c-1.4,1.8-2.3,2.5-3.4,2.7c-1.4,0.3-2.7,0.1-4-0.7c-0.3-0.1-0.4-0.5-0.4-0.7c0.3-2.6,0.4-5-0.2-7.6
			c-1.4-5.2-7.8-7-10.8-2.2c-1.9,3.1-3.4,6.4-5.1,9.5c0.1-0.8,0.2-1.9,0.2-3c0.2-2.5,0.3-5,0.5-7.4c0.1-1.5-0.6-2.2-2-2.4
			c-2.8-0.5-3.8,0.4-4.2,3.1c-0.4,3.1-0.7,6.2-0.9,9.4c-2.4,3.8-3.6,6-4.9,8.1c-0.7,1-1.3,2.3-2.4,3c-0.9,0.6-2,0.8-2.9,0.2
			c-0.6-0.4-1-1.1-1.2-1.8c-0.7-3.4,1.2-12.8,1.9-16.1c0.4-1.6,0.3-3.6-1.6-3.9c-2.5-0.4-4,0.3-4.3,2.2c-0.6,2.6-1.1,5.5-1.4,8.4
			c-2.2,3-4.2,4.3-8,5.6c-0.4,0.2-0.5,0-0.6-0.2c-2.5-4.8-5.2-10.3-4-15.4c0.2-0.9,1-3.3,2-1.8c0.8,1.4,0.8,3,0.8,4.6
			c-0.1,1.9,2.7,1.3,2.7,0c0-1.4-0.1-2.8-0.6-4.2c-0.6-2.4-2.1-3.5-4.6-3.1c-3.5,0.5-6.4,3.2-6.7,6.7c-0.3,2.5,0.2,4.9,1.1,7.1
			c-2.5,3.7-4.5,5.2-8.7,6.6c-0.4,0.2-0.5,0-0.6-0.2c-2.5-4.8-5.2-10.3-4-15.4c0.2-0.9,1-3.3,2-1.8c0.8,1.4,0.8,3,0.8,4.6
			c-0.1,1.9,2.7,1.3,2.7,0c0-1.4-0.1-2.8-0.6-4.2c-0.6-2.4-2.1-3.5-4.6-3.1c-3.5,0.5-6.4,3.2-6.7,6.7c-0.3,2.5,0.2,4.9,1.1,7.2
			c-2.8,4.5-4.1,6.8-5.5,9.1c-0.7,1-1.3,2.3-2.4,3c-0.9,0.6-2,0.8-2.9,0.2c-0.6-0.4-1-1.1-1.2-1.8c-0.7-3.4,1.2-12.8,1.9-16.1
			c0.4-1.6,0.3-3.6-1.6-3.9c-2.5-0.4-4,0.3-4.3,2.2c-0.6,2.6-1.1,5.5-1.4,8.4c-2.2,3-4.2,4.3-8,5.6c-0.4,0.2-0.5,0-0.6-0.2
			c-2.5-4.8-5.2-10.3-4-15.4c0.2-0.9,1-3.3,2-1.8c0.8,1.4,0.8,3,0.8,4.6c-0.1,1.9,2.7,1.3,2.7,0c0-1.4-0.1-2.8-0.6-4.2
			c-0.6-2.4-2.1-3.5-4.6-3.1c-3.5,0.5-6.4,3.2-6.7,6.7c-0.3,2.5,0.2,4.9,1.1,7.1c-2.5,3.7-4.5,5.2-8.7,6.6c-0.4,0.2-0.5,0-0.6-0.2
			c-2.5-4.8-5.2-10.3-4-15.4c0.2-0.9,1-3.3,2-1.8c0.8,1.4,0.8,3,0.8,4.6c-0.1,1.9,2.7,1.3,2.7,0c0-1.4-0.1-2.8-0.6-4.2
			c-0.6-2.4-2.1-3.5-4.6-3.1c-3.5,0.5-6.4,3.2-6.7,6.7c-0.3,2.5,0.2,4.9,1.1,7.2c-2.8,4.5-4.1,6.8-5.5,9.1c-0.7,1-1.3,2.3-2.4,3
			c-0.9,0.6-2,0.8-2.9,0.2c-0.6-0.4-1-1.1-1.2-1.8c-0.7-3.4,1.2-12.8,1.9-16.1c0.4-1.6,0.3-3.6-1.6-3.9c-2.5-0.4-4,0.3-4.3,2.2
			c-0.6,2.7-1.1,5.7-1.4,8.7c-6.8,11.1-15.6,33.5-19.1,40.8c-1.2,2.6-5.1,6.5,1.4-22.6c1.3-5.6,9.1-43,7.3-48.1
			c-0.7-2.4-3.1-3.8-5.8-3.4c-2.3,0.2-4.3,2.4-5.4,3.9c-5.6,8.3-10.3,19.7-10.2,21.3l0.6-18.4c0-1.2-0.2-2.4-0.4-3.6
			c-0.5-3.1-6-5.8-10.4,4.8c-2.5,6.1-3.1,6.8-5.2,13c0.2-5.4,0.3-12.2,0.6-17.9c0-1.4-0.6-2.2-2-2.3c-2,0-3.5,0.4-3.6,2
			c-0.6,15.6-1.7,35.3-1.9,50.3c-0.1,2.3,0.3,3,2.6,2.9c2.4,0.1,2.3-0.5,2.5-3.7c0.3-6.7,1.5-16.7,2.7-23.2
			c1.4-7.4,4.9-14.9,7.6-21.8l0.9-1.7c3.9-8.1-2,40.9-2.4,45.5c-0.1,1.4,1.2,1.9,2.5,2c2,0.2,2.8-0.4,3-2.1c0.7-3.6,1.3-8.2,2.1-12
			c2.4-12.9,15.2-35.9,16.4-35.5c3.6,0-9.4,44.9-9.8,62.2c-0.1,1.4-0.1,3.3,0,4.3c0.1,10.6,6.8,11.6,9.6,5.2
			c5.3-12,10.1-24.4,16.6-36.9c0.1,1.8,0.3,3.5,0.8,5.2c1,3.5,4.2,5.2,7.7,4.1c0.9-0.2,1.7-0.7,2.3-1.4c2.1-2,3.3-4.6,4.9-7.1
			c0.6-1,1.3-2.2,2.9-4.7c1.1,2.3,2.5,4.5,3.3,6.7c-2.9,2.9-4.9,7.3-4.3,11.4c0.9,6.1,8.5,3.9,10.7,0c2.2-3.7,0.9-7.2-0.4-11.1
			c-0.1-0.1-0.2-0.3-0.1-0.4c0.1-0.1,0.2-0.2,0.3-0.2c3.5-1.6,6-2.6,9.1-6.7c1.1,2.4,2.5,4.7,3.4,6.9c-2.9,2.9-4.9,7.3-4.3,11.4
			c0.9,6.1,8.5,3.9,10.7,0c2.2-3.7,0.9-7.2-0.4-11.1c-0.1-0.1-0.2-0.3-0.1-0.4c0.1-0.1,0.2-0.2,0.3-0.2c2.8-1.3,5-2.2,7.3-4.6
			c0,2.4,0.2,4.8,0.8,6.9c1,3.5,4.2,5.2,7.7,4.1c0.9-0.2,1.7-0.7,2.3-1.4c2.1-2,3.3-4.6,4.9-7.1c0.6-1,1.3-2.2,2.9-4.7
			c1.1,2.3,2.5,4.5,3.3,6.7c-2.9,2.9-4.9,7.3-4.3,11.4c0.9,6.1,8.5,3.9,10.7,0c2.2-3.7,0.9-7.2-0.4-11.1c-0.1-0.1-0.2-0.3-0.1-0.4
			c0.1-0.1,0.2-0.2,0.3-0.2c3.5-1.6,6-2.6,9.1-6.7c1.1,2.4,2.5,4.7,3.4,6.9c-2.9,2.9-4.9,7.3-4.3,11.4c0.9,6.1,8.5,3.9,10.7,0
			c2.2-3.7,0.9-7.2-0.4-11.1c-0.1-0.1-0.2-0.3-0.1-0.4c0.1-0.1,0.2-0.2,0.3-0.2c2.8-1.3,5-2.2,7.3-4.6c0,2.4,0.2,4.8,0.8,6.9
			c1,3.5,4.2,5.2,7.7,4.1c0.9-0.2,1.7-0.7,2.3-1.4c2.1-2,3.3-4.6,4.9-7.1c0.3-0.5,0.6-1.1,1.1-1.8c-0.2,4.4-0.4,8.9-0.7,13.3
			c-0.3,5.8-0.8,11.7-1,17.5c-0.1,1.8,1.3,3.3,3.1,3.2c3.5-0.1,3-4.3,3.2-6.8c0.4-8.7,1.2-20,3.5-27.4c1.5-4.4,3.6-10.2,6.6-13.2
			c0.4-0.4,0.8-0.2,1,0.1c1.1,1.6,1.6,3.4,1.8,5.3c0.2,5.9,0.4,2.8-2.2,4.4c-2.2,1.3-3.7,3.3-4.4,5.8c-0.8,2.4-1,5.8,1.7,7.1
			c0.7,0.3,1.6,0.4,2.4,0.2c4.7-0.9,6.8-6,7.4-10.2c0.5,0.2,1,0.4,1.6,0.6c1.2,0.4,2.4,0.6,3.7,0.2c1.1-0.2,1.9-0.7,2.7-1.4
			c-0.3,4.8-0.5,9.6-0.7,14.4c-0.3,5.8-0.8,11.7-1,17.5c-0.1,1.8,1.3,3.3,3.1,3.2c3.5-0.1,3-4.3,3.2-6.8c0.4-8.7,1.2-20,3.5-27.4
			c1.5-4.4,3.6-10.2,6.6-13.2c0.4-0.4,0.8-0.2,1,0.1c1.1,1.6,1.6,3.4,1.8,5.3c0.2,5.9,0.4,2.8-2.2,4.4c-2.2,1.3-3.7,3.3-4.4,5.8
			c-0.8,2.4-1,5.8,1.7,7.1c0.7,0.3,1.6,0.4,2.4,0.2c4.7-0.9,6.8-6,7.4-10.2c0.5,0.2,1,0.4,1.6,0.6c1.2,0.4,2.4,0.6,3.7,0.2
			c1-0.2,1.8-0.7,2.6-1.3c0,2.4,0.2,4.8,0.8,7c1,3.5,4.2,5.2,7.7,4.1c0.9-0.2,1.7-0.7,2.3-1.4c2.1-2,3.3-4.6,4.9-7.1
			c0.7-1.2,1.7-2.7,4-6.5C291.4,441.1,292.1,440,291.5,439.5z"/>
	</g>
	<g id="SPLINE_16_">
		<path class="st0" d="M108.7,464.3c-0.9,1.1-2.3,0.9-2.6-0.6c-0.8-3.4,0.7-6.9,2.7-9.5C110.1,457.2,111.1,461.7,108.7,464.3z"/>
	</g>
	<g id="SPLINE_15_">
		<path class="st0" d="M127.4,464c-0.9,1.1-2.3,0.9-2.6-0.6c-0.8-3.4,0.7-6.9,2.7-9.5C128.9,456.9,129.8,461.5,127.4,464z"/>
	</g>
	<g id="SPLINE_14_">
		<path class="st0" d="M162.9,463.6c-0.9,1.1-2.3,0.9-2.6-0.6c-0.8-3.4,0.7-6.9,2.7-9.5C164.3,456.5,165.2,461.1,162.9,463.6z"/>
	</g>
	<g id="SPLINE_13_">
		<path class="st0" d="M181.6,463.4c-0.9,1.1-2.3,0.9-2.6-0.6c-0.8-3.4,0.7-6.9,2.7-9.5C183,456.2,184,460.8,181.6,463.4z"/>
	</g>
	<g id="SPLINE_12_">
		<path class="st0" d="M224.9,453.1c-2.9-0.9,0.6-8.9,3.7-8.5C228.7,446.6,227.4,453.1,224.9,453.1z"/>
	</g>
	<g id="SPLINE_11_">
		<path class="st0" d="M255.2,452.7c-2.9-0.9,0.6-8.9,3.7-8.5C259,446.2,257.7,452.7,255.2,452.7z"/>
	</g>
	<g id="HATCH_6_">
		<path d="M291.5,439.5c-0.9-0.7-1.6,0.3-1.6,0.3c-3.1,5-4.6,7.6-6.1,10c-0.7,1-1.3,2.3-2.4,3c-0.9,0.6-2,0.8-2.9,0.2
			c-0.6-0.4-1-1.1-1.2-1.8c-0.7-3.4,1.2-12.8,1.9-16.1c0.4-1.6,0.3-3.6-1.7-3.9c-2.5-0.4-4,0.3-4.3,2.2c-0.6,2.6-1.1,5.4-1.4,8.3
			c-1.3,1.7-2.2,2.3-3.3,2.6c-1.4,0.3-2.7,0.1-4-0.7c-0.3-0.1-0.4-0.5-0.4-0.7c0.3-2.6,0.4-5-0.2-7.6c-1.4-5.2-7.8-7-10.8-2.2
			c-1.9,3.1-3.4,6.4-5.1,9.5c0.1-0.8,0.2-1.9,0.2-3c0.2-2.5,0.3-5,0.5-7.4c0.1-1.5-0.6-2.2-2-2.4c-2.8-0.5-3.8,0.4-4.2,3.1
			c-0.4,3-0.6,6-0.8,9c-1.4,1.8-2.3,2.5-3.4,2.7c-1.4,0.3-2.7,0.1-4-0.7c-0.3-0.1-0.4-0.5-0.4-0.7c0.3-2.6,0.4-5-0.2-7.6
			c-1.4-5.2-7.8-7-10.8-2.2c-1.9,3.1-3.4,6.4-5.1,9.5c0.1-0.8,0.2-1.9,0.2-3c0.2-2.5,0.3-5,0.5-7.4c0.1-1.5-0.6-2.2-2-2.4
			c-2.8-0.5-3.8,0.4-4.2,3.1c-0.4,3.1-0.7,6.2-0.9,9.4c-2.4,3.8-3.6,6-4.9,8.1c-0.7,1-1.3,2.3-2.4,3c-0.9,0.6-2,0.8-2.9,0.2
			c-0.6-0.4-1-1.1-1.2-1.8c-0.7-3.4,1.2-12.8,1.9-16.1c0.4-1.6,0.3-3.6-1.6-3.9c-2.5-0.4-4,0.3-4.3,2.2c-0.6,2.6-1.1,5.5-1.4,8.4
			c-2.2,3-4.2,4.3-8,5.6c-0.4,0.2-0.5,0-0.6-0.2c-2.5-4.8-5.2-10.3-4-15.4c0.2-0.9,1-3.3,2-1.8c0.8,1.4,0.8,3,0.8,4.6
			c-0.1,1.9,2.7,1.3,2.7,0c0-1.4-0.1-2.8-0.6-4.2c-0.6-2.4-2.1-3.5-4.6-3.1c-3.5,0.5-6.4,3.2-6.7,6.7c-0.3,2.5,0.2,4.9,1.1,7.1
			c-2.5,3.7-4.5,5.2-8.7,6.6c-0.4,0.2-0.5,0-0.6-0.2c-2.5-4.8-5.2-10.3-4-15.4c0.2-0.9,1-3.3,2-1.8c0.8,1.4,0.8,3,0.8,4.6
			c-0.1,1.9,2.7,1.3,2.7,0c0-1.4-0.1-2.8-0.6-4.2c-0.6-2.4-2.1-3.5-4.6-3.1c-3.5,0.5-6.4,3.2-6.7,6.7c-0.3,2.5,0.2,4.9,1.1,7.2
			c-2.8,4.5-4.1,6.8-5.5,9.1c-0.7,1-1.3,2.3-2.4,3c-0.9,0.6-2,0.8-2.9,0.2c-0.6-0.4-1-1.1-1.2-1.8c-0.7-3.4,1.2-12.8,1.9-16.1
			c0.4-1.6,0.3-3.6-1.6-3.9c-2.5-0.4-4,0.3-4.3,2.2c-0.6,2.6-1.1,5.5-1.4,8.4c-2.2,3-4.2,4.3-8,5.6c-0.4,0.2-0.5,0-0.6-0.2
			c-2.5-4.8-5.2-10.3-4-15.4c0.2-0.9,1-3.3,2-1.8c0.8,1.4,0.8,3,0.8,4.6c-0.1,1.9,2.7,1.3,2.7,0c0-1.4-0.1-2.8-0.6-4.2
			c-0.6-2.4-2.1-3.5-4.6-3.1c-3.5,0.5-6.4,3.2-6.7,6.7c-0.3,2.5,0.2,4.9,1.1,7.1c-2.5,3.7-4.5,5.2-8.7,6.6c-0.4,0.2-0.5,0-0.6-0.2
			c-2.5-4.8-5.2-10.3-4-15.4c0.2-0.9,1-3.3,2-1.8c0.8,1.4,0.8,3,0.8,4.6c-0.1,1.9,2.7,1.3,2.7,0c0-1.4-0.1-2.8-0.6-4.2
			c-0.6-2.4-2.1-3.5-4.6-3.1c-3.5,0.5-6.4,3.2-6.7,6.7c-0.3,2.5,0.2,4.9,1.1,7.2c-2.8,4.5-4.1,6.8-5.5,9.1c-0.7,1-1.3,2.3-2.4,3
			c-0.9,0.6-2,0.8-2.9,0.2c-0.6-0.4-1-1.1-1.2-1.8c-0.7-3.4,1.2-12.8,1.9-16.1c0.4-1.6,0.3-3.6-1.6-3.9c-2.5-0.4-4,0.3-4.3,2.2
			c-0.6,2.7-1.1,5.7-1.4,8.7c-6.8,11.1-15.6,33.5-19.1,40.8c-1.2,2.6-5.1,6.5,1.4-22.6c1.3-5.6,9.1-43,7.3-48.1
			c-0.7-2.4-3.1-3.8-5.8-3.4c-2.3,0.2-4.3,2.4-5.4,3.9c-5.6,8.3-10.3,19.7-10.2,21.3l0.6-18.4c0-1.2-0.2-2.4-0.4-3.6
			c-0.5-3.1-6-5.8-10.4,4.8c-2.5,6.1-3.1,6.8-5.2,13c0.2-5.4,0.3-12.2,0.6-17.9c0-1.4-0.6-2.2-2-2.3c-2,0-3.5,0.4-3.6,2
			c-0.6,15.6-1.7,35.3-1.9,50.3c-0.1,2.3,0.3,3,2.6,2.9c2.4,0.1,2.3-0.5,2.5-3.7c0.3-6.7,1.5-16.7,2.7-23.2
			c1.4-7.4,4.9-14.9,7.6-21.8l0.9-1.7c3.9-8.1-2,40.9-2.4,45.5c-0.1,1.4,1.2,1.9,2.5,2c2,0.2,2.8-0.4,3-2.1c0.7-3.6,1.3-8.2,2.1-12
			c2.4-12.9,15.2-35.9,16.4-35.5c3.6,0-9.4,44.9-9.8,62.2c-0.1,1.4-0.1,3.3,0,4.3c0.1,10.6,6.8,11.6,9.6,5.2
			c5.3-12,10.1-24.4,16.6-36.9c0.1,1.8,0.3,3.5,0.8,5.2c1,3.5,4.2,5.2,7.7,4.1c0.9-0.2,1.7-0.7,2.3-1.4c2.1-2,3.3-4.6,4.9-7.1
			c0.6-1,1.3-2.2,2.9-4.7c1.1,2.3,2.5,4.5,3.3,6.7c-2.9,2.9-4.9,7.3-4.3,11.4c0.9,6.1,8.5,3.9,10.7,0c2.2-3.7,0.9-7.2-0.4-11.1
			c-0.1-0.1-0.2-0.3-0.1-0.4c0.1-0.1,0.2-0.2,0.3-0.2c3.5-1.6,6-2.6,9.1-6.7c1.1,2.4,2.5,4.7,3.4,6.9c-2.9,2.9-4.9,7.3-4.3,11.4
			c0.9,6.1,8.5,3.9,10.7,0c2.2-3.7,0.9-7.2-0.4-11.1c-0.1-0.1-0.2-0.3-0.1-0.4c0.1-0.1,0.2-0.2,0.3-0.2c2.8-1.3,5-2.2,7.3-4.6
			c0,2.4,0.2,4.8,0.8,6.9c1,3.5,4.2,5.2,7.7,4.1c0.9-0.2,1.7-0.7,2.3-1.4c2.1-2,3.3-4.6,4.9-7.1c0.6-1,1.3-2.2,2.9-4.7
			c1.1,2.3,2.5,4.5,3.3,6.7c-2.9,2.9-4.9,7.3-4.3,11.4c0.9,6.1,8.5,3.9,10.7,0c2.2-3.7,0.9-7.2-0.4-11.1c-0.1-0.1-0.2-0.3-0.1-0.4
			c0.1-0.1,0.2-0.2,0.3-0.2c3.5-1.6,6-2.6,9.1-6.7c1.1,2.4,2.5,4.7,3.4,6.9c-2.9,2.9-4.9,7.3-4.3,11.4c0.9,6.1,8.5,3.9,10.7,0
			c2.2-3.7,0.9-7.2-0.4-11.1c-0.1-0.1-0.2-0.3-0.1-0.4c0.1-0.1,0.2-0.2,0.3-0.2c2.8-1.3,5-2.2,7.3-4.6c0,2.4,0.2,4.8,0.8,6.9
			c1,3.5,4.2,5.2,7.7,4.1c0.9-0.2,1.7-0.7,2.3-1.4c2.1-2,3.3-4.6,4.9-7.1c0.3-0.5,0.6-1.1,1.1-1.8c-0.2,4.4-0.4,8.9-0.7,13.3
			c-0.3,5.8-0.8,11.7-1,17.5c-0.1,1.8,1.3,3.3,3.1,3.2c3.5-0.1,3-4.3,3.2-6.8c0.4-8.7,1.2-20,3.5-27.4c1.5-4.4,3.6-10.2,6.6-13.2
			c0.4-0.4,0.8-0.2,1,0.1c1.1,1.6,1.6,3.4,1.8,5.3c0.2,5.9,0.4,2.8-2.2,4.4c-2.2,1.3-3.7,3.3-4.4,5.8c-0.8,2.4-1,5.8,1.7,7.1
			c0.7,0.3,1.6,0.4,2.4,0.2c4.7-0.9,6.8-6,7.4-10.2c0.5,0.2,1,0.4,1.6,0.6c1.2,0.4,2.4,0.6,3.7,0.2c1.1-0.2,1.9-0.7,2.7-1.4
			c-0.3,4.8-0.5,9.6-0.7,14.4c-0.3,5.8-0.8,11.7-1,17.5c-0.1,1.8,1.3,3.3,3.1,3.2c3.5-0.1,3-4.3,3.2-6.8c0.4-8.7,1.2-20,3.5-27.4
			c1.5-4.4,3.6-10.2,6.6-13.2c0.4-0.4,0.8-0.2,1,0.1c1.1,1.6,1.6,3.4,1.8,5.3c0.2,5.9,0.4,2.8-2.2,4.4c-2.2,1.3-3.7,3.3-4.4,5.8
			c-0.8,2.4-1,5.8,1.7,7.1c0.7,0.3,1.6,0.4,2.4,0.2c4.7-0.9,6.8-6,7.4-10.2c0.5,0.2,1,0.4,1.6,0.6c1.2,0.4,2.4,0.6,3.7,0.2
			c1-0.2,1.8-0.7,2.6-1.3c0,2.4,0.2,4.8,0.8,7c1,3.5,4.2,5.2,7.7,4.1c0.9-0.2,1.7-0.7,2.3-1.4c2.1-2,3.3-4.6,4.9-7.1
			c0.7-1.2,1.7-2.7,4-6.5C291.4,441.1,292.1,440,291.5,439.5z M108.7,464.3c-0.9,1.1-2.3,0.9-2.6-0.6c-0.8-3.4,0.7-6.9,2.7-9.5
			C110.1,457.2,111.1,461.7,108.7,464.3z M127.4,464c-0.9,1.1-2.3,0.9-2.6-0.6c-0.8-3.4,0.7-6.9,2.7-9.5
			C128.9,456.9,129.8,461.5,127.4,464z M162.9,463.6c-0.9,1.1-2.3,0.9-2.6-0.6c-0.8-3.4,0.7-6.9,2.7-9.5
			C164.3,456.5,165.2,461.1,162.9,463.6z M181.6,463.4c-0.9,1.1-2.3,0.9-2.6-0.6c-0.8-3.4,0.7-6.9,2.7-9.5
			C183,456.2,184,460.8,181.6,463.4z M224.9,453.1c-2.9-0.9,0.6-8.9,3.7-8.5C228.7,446.6,227.4,453.1,224.9,453.1z M255.2,452.7
			c-2.9-0.9,0.6-8.9,3.7-8.5C259,446.2,257.7,452.7,255.2,452.7z"/>
	</g>
</g>
</svg>
