<?xml version="1.0" encoding="utf-8"?>
<!-- Generator: Adobe Illustrator 22.0.1, SVG Export Plug-In . SVG Version: 6.00 Build 0)  -->
<svg version="1.1" id="Layer_1" xmlns="http://www.w3.org/2000/svg" xmlns:xlink="http://www.w3.org/1999/xlink" x="0px" y="0px"
	 viewBox="0 0 500 500" style="enable-background:new 0 0 500 500;" xml:space="preserve">
<style type="text/css">
	.st0{fill:none;stroke:#000000;stroke-width:0;stroke-linecap:round;stroke-linejoin:round;stroke-miterlimit:10;}
</style>
<g id="POLYLINE_1_">
	<polyline class="st0" points="147.3,236.1 405.4,188.7 468.7,167.6 473.9,183.4 463.4,199.2 442.3,209.7 442.3,215 473.9,215 
		489.7,220.3 495,236.1 484.5,246.6 442.3,257.2 447.6,267.7 463.4,283.5 463.4,299.3 437,309.8 426.5,320.4 394.9,352 394.9,373.1 
		379.1,378.3 352.7,388.9 342.2,388.9 294.8,346.7 273.7,341.5 236.8,346.7 226.3,357.3 210.5,357.3 210.5,341.5 199.9,330.9 
		184.1,336.2 131.5,336.2 105.1,346.7 73.5,367.8 5,367.8 5,352 26.1,330.9 52.4,320.4 89.3,288.8 105.1,283.5 136.7,262.4 
		147.3,251.9 147.3,236.1 	"/>
</g>
<g id="HATCH_7_">
	<polygon points="147.3,236.1 405.4,188.7 468.7,167.6 473.9,183.4 463.4,199.2 442.3,209.7 442.3,215 473.9,215 489.7,220.3 
		495,236.1 484.5,246.6 442.3,257.2 447.6,267.7 463.4,283.5 463.4,299.3 437,309.8 426.5,320.4 394.9,352 394.9,373.1 379.1,378.3 
		352.7,388.9 342.2,388.9 294.8,346.7 273.7,341.5 236.8,346.7 226.3,357.3 210.5,357.3 210.5,341.5 199.9,330.9 184.1,336.2 
		131.5,336.2 105.1,346.7 73.5,367.8 5,367.8 5,352 26.1,330.9 52.4,320.4 89.3,288.8 105.1,283.5 136.7,262.4 147.3,251.9 
		147.3,236.1 	"/>
</g>
<g id="INSERT_1_">
	<g id="SPLINE_25_">
		<path class="st0" d="M188.2,148.1c-0.8,1.2-1.7,2.6-2.4,3.8l-11.6,19.3c0-3.8,2.6-15.8,2.6-16.1c0,0,0.6-3.2,0.9-4.7
			c0.6-3.5,1.8-11.3-4.2-9.9c-3.6,0.7-6.5,6.5-8.1,9c0-1.2,0.1-7.4,0.7-8.1c5.2-5.7,9.1-13.1,10.5-20.3c0.7-4.1-1.1-7-4.8-7.1
			c-5.7-0.2-8.4,5.3-9.8,10c-2.3,7.7-2.7,16.5-3.4,24.3c-0.1,1-0.2,2-0.2,3c-1.7,2.7-3.3,5.5-5,8.2c-0.9,1.5-2.2,3.3-3.9,3.3
			c-6.1-0.2-3.4-15.5-2.9-18.6c0.1-0.8,3.3-18,3.4-18c2.2,0,4.5,0.1,6.6-0.1c1,0,1.3-1.7,0.6-2.2c-0.2-0.2-0.4-0.2-0.7-0.2
			c-2.1-0.2-3.9-0.3-5.8-0.3c0.2-1,1.7-7.7,1.9-8.5c0.5-3.7-3.7-3.6-5-1.2c-1,1.9-1.5,3.8-3.4,9.5c-1.7,0-2.9-0.1-4.2-0.1
			c-0.3,0-0.5,0-0.8,0c-0.8,0-1.3,0.6-1.3,1.3c0,0.5,0.3,0.8,0.6,0.8c0.4,0.2,5,0.7,5,0.7c-1.4,7.3-3.6,15.6-3.9,23.3
			c-1.4,2.2-2.9,4.6-3.6,5.7c-1.4,2.3-2.8,4.6-4.5,6.6c-2,2-3-0.5-3-2.1c0.1-5.8,2.3-12.1,3.7-17.6c0.8-3.2,0.4-3.8-3-3.7
			c-3.3,0-5.1,0.1-5.4,0c0.4-2.3,1.1-6.7-0.6-8.5c-0.7-0.8-2.1-0.8-3.1-0.6c-4.7,1-7.5,8.3-2.7,10.4c1,0.4,2.5,0.7,3.6,1
			c0.1,0-3.6,5.7-4.8,7.6c0,0-0.1,0.2-0.2,0.4c-1.4,2.2-3,4.3-5.8,5c0.3-2.5,0.5-5.1,0.1-7.5c-1.7-8.4-11.1-8.8-14.1-1.3
			c-0.6,1.5-1.2,3.3-1.6,5.3C88.4,160.3,81,177.5,79,177.5c-5.5,0,13.9-62.2,0.5-62.2c-3.8,0-6.9,7.7-9.4,14.6l-5.6,17.2
			c0.5-10.4,0.9-19.9,1.4-29.4c0.1-1.7-1.2-2-2.6-2c-1.1,0-2.4,0.1-2.5,1.9c-2.4,40.6-3.5,44.3-3.5,49c0,3.1,1,2.7,2.2,2.9
			c2.8,0.4,2.9-1.4,3.2-3.5c0.6-2.8,1.2-5.6,1.9-8.4c2.4-9.9,5.3-19.3,8.8-28.4c1.4-3.8,4.1-11.7,5.5-11.7c5.8,0-14.5,63.1-0.7,63.1
			c3.8,0,10.1-15.4,15.7-25.7c-0.1,4.8,1.4,9.4,6.9,10.4c2.7,0.5,5-0.7,6.5-2.8c1.4-2,2.2-4.5,2.8-6.9c3.5-0.6,5.6-3.3,7.6-6.2
			c0,0,0.1-0.2,0.2-0.4c1.5-2.3,4.7-7.3,5.4-8.6l3.3,0.1c-1.2,4.3-2.5,8.5-3,12.9c-0.2,1.4-0.4,2.9-0.4,4.4c0,1.9,0.4,4.2,2,5.5
			c5.9,5.1,10.1-3.6,12.4-7.3c0.6-0.8,1.3-2,2.1-3.2c0.1,1.7,0.3,3.3,0.7,4.9c0.4,1.7,1,3.2,2.1,4.5c2.7,3.3,7.9,4.3,11.6-0.3
			c1.7-2.2,3.1-4.4,4.4-6.7c0,0.7,0,1.4,0,2.1c0,1.9-1,7.5,2.3,7.5c1.3,0,2.4-0.2,2.7-1.8c2-11.8,8.6-19.1,10.2-20.3
			c-1.2,5.5-2.9,12-3.7,17c-0.7,4.2-2.2,13.5,3.1,14.1c1.1,0,2.3-0.6,3.1-1.3c0.8-0.8,1.3-1.9,1.9-2.9c10.5-18.3,11.3-19.4,12-20.3
			c0,0,0.7-1.1,0.1-1.7C188.9,147.1,188.2,148.1,188.2,148.1z"/>
	</g>
	<g id="SPLINE_24_">
		<path class="st0" d="M171.2,117.5c0.4-0.5,0.8-1.1,1.7-1c4.1,1.2,0.6,9.1,0,10.9c-1.3,3.7-4.3,8.1-6.7,11.3
			C166.4,132.1,168,123.5,171.2,117.5z"/>
	</g>
	<g id="SPLINE_23_">
		<path class="st0" d="M100.6,160.2c-0.8-2.6-1-5.5-0.1-8.3c0.1-0.2,0.2-0.5,0.5-0.4c2.3,1.8,4.2,3.2,7,3.8
			C107,162.6,102,166.4,100.6,160.2z"/>
	</g>
	<g id="SPLINE_22_">
		<path class="st0" d="M108.1,153.4c-2.6-0.7-4.6-2.1-5.5-4.2c-0.7-2.1-0.3-4.4,1-6.1c0.9-1.1,2.7-0.6,3.4,0.3
			C109.2,145.6,108.7,150.4,108.1,153.4z"/>
	</g>
	<g id="SPLINE_21_">
		<path class="st0" d="M121.1,137.4c-1.3-2.5-1.2-4.4,0-6.8C122.1,133,121.9,134.9,121.1,137.4z"/>
	</g>
	<g id="HATCH_6_">
		<path d="M188.2,148.1c-0.8,1.2-1.7,2.6-2.4,3.8l-11.6,19.3c0-3.8,2.6-15.8,2.6-16.1c0,0,0.6-3.2,0.9-4.7c0.6-3.5,1.8-11.3-4.2-9.9
			c-3.6,0.7-6.5,6.5-8.1,9c0-1.2,0.1-7.4,0.7-8.1c5.2-5.7,9.1-13.1,10.5-20.3c0.7-4.1-1.1-7-4.8-7.1c-5.7-0.2-8.4,5.3-9.8,10
			c-2.3,7.7-2.7,16.5-3.4,24.3c-0.1,1-0.2,2-0.2,3c-1.7,2.7-3.3,5.5-5,8.2c-0.9,1.5-2.2,3.3-3.9,3.3c-6.1-0.2-3.4-15.5-2.9-18.6
			c0.1-0.8,3.3-18,3.4-18c2.2,0,4.5,0.1,6.6-0.1c1,0,1.3-1.7,0.6-2.2c-0.2-0.2-0.4-0.2-0.7-0.2c-2.1-0.2-3.9-0.3-5.8-0.3
			c0.2-1,1.7-7.7,1.9-8.5c0.5-3.7-3.7-3.6-5-1.2c-1,1.9-1.5,3.8-3.4,9.5c-1.7,0-2.9-0.1-4.2-0.1c-0.3,0-0.5,0-0.8,0
			c-0.8,0-1.3,0.6-1.3,1.3c0,0.5,0.3,0.8,0.6,0.8c0.4,0.2,5,0.7,5,0.7c-1.4,7.3-3.6,15.6-3.9,23.3c-1.4,2.2-2.9,4.6-3.6,5.7
			c-1.4,2.3-2.8,4.6-4.5,6.6c-2,2-3-0.5-3-2.1c0.1-5.8,2.3-12.1,3.7-17.6c0.8-3.2,0.4-3.8-3-3.7c-3.3,0-5.1,0.1-5.4,0
			c0.4-2.3,1.1-6.7-0.6-8.5c-0.7-0.8-2.1-0.8-3.1-0.6c-4.7,1-7.5,8.3-2.7,10.4c1,0.4,2.5,0.7,3.6,1c0.1,0-3.6,5.7-4.8,7.6
			c0,0-0.1,0.2-0.2,0.4c-1.4,2.2-3,4.3-5.8,5c0.3-2.5,0.5-5.1,0.1-7.5c-1.7-8.4-11.1-8.8-14.1-1.3c-0.6,1.5-1.2,3.3-1.6,5.3
			C88.4,160.3,81,177.5,79,177.5c-5.5,0,13.9-62.2,0.5-62.2c-3.8,0-6.9,7.7-9.4,14.6l-5.6,17.2c0.5-10.4,0.9-19.9,1.4-29.4
			c0.1-1.7-1.2-2-2.6-2c-1.1,0-2.4,0.1-2.5,1.9c-2.4,40.6-3.5,44.3-3.5,49c0,3.1,1,2.7,2.2,2.9c2.8,0.4,2.9-1.4,3.2-3.5
			c0.6-2.8,1.2-5.6,1.9-8.4c2.4-9.9,5.3-19.3,8.8-28.4c1.4-3.8,4.1-11.7,5.5-11.7c5.8,0-14.5,63.1-0.7,63.1
			c3.8,0,10.1-15.4,15.7-25.7c-0.1,4.8,1.4,9.4,6.9,10.4c2.7,0.5,5-0.7,6.5-2.8c1.4-2,2.2-4.5,2.8-6.9c3.5-0.6,5.6-3.3,7.6-6.2
			c0,0,0.1-0.2,0.2-0.4c1.5-2.3,4.7-7.3,5.4-8.6l3.3,0.1c-1.2,4.3-2.5,8.5-3,12.9c-0.2,1.4-0.4,2.9-0.4,4.4c0,1.9,0.4,4.2,2,5.5
			c5.9,5.1,10.1-3.6,12.4-7.3c0.6-0.8,1.3-2,2.1-3.2c0.1,1.7,0.3,3.3,0.7,4.9c0.4,1.7,1,3.2,2.1,4.5c2.7,3.3,7.9,4.3,11.6-0.3
			c1.7-2.2,3.1-4.4,4.4-6.7c0,0.7,0,1.4,0,2.1c0,1.9-1,7.5,2.3,7.5c1.3,0,2.4-0.2,2.7-1.8c2-11.8,8.6-19.1,10.2-20.3
			c-1.2,5.5-2.9,12-3.7,17c-0.7,4.2-2.2,13.5,3.1,14.1c1.1,0,2.3-0.6,3.1-1.3c0.8-0.8,1.3-1.9,1.9-2.9c10.5-18.3,11.3-19.4,12-20.3
			c0,0,0.7-1.1,0.1-1.7C188.9,147.1,188.2,148.1,188.2,148.1z M171.2,117.5c0.4-0.5,0.8-1.1,1.7-1c4.1,1.2,0.6,9.1,0,10.9
			c-1.3,3.7-4.3,8.1-6.7,11.3C166.4,132.1,168,123.5,171.2,117.5z M100.6,160.2c-0.8-2.6-1-5.5-0.1-8.3c0.1-0.2,0.2-0.5,0.5-0.4
			c2.3,1.8,4.2,3.2,7,3.8C107,162.6,102,166.4,100.6,160.2z M108.1,153.4c-2.6-0.7-4.6-2.1-5.5-4.2c-0.7-2.1-0.3-4.4,1-6.1
			c0.9-1.1,2.7-0.6,3.4,0.3C109.2,145.6,108.7,150.4,108.1,153.4z M121.1,137.4c-1.3-2.5-1.2-4.4,0-6.8
			C122.1,133,121.9,134.9,121.1,137.4z"/>
	</g>
	<g id="SPLINE_20_">
		<path class="st0" d="M342.4,130.8c2.4-2.7-2-5.4-3.6-2.1C337.8,131.2,340.8,132.4,342.4,130.8z"/>
	</g>
	<g id="HATCH_5_">
		<path d="M342.4,130.8c2.4-2.7-2-5.4-3.6-2.1C337.8,131.2,340.8,132.4,342.4,130.8z"/>
	</g>
	<g id="SPLINE_19_">
		<path class="st0" d="M415.6,147.8c-0.8-0.7-1.6,0.3-1.6,0.3c-1.5,2.5-3.4,5.5-4.2,6.8c-1.3,2.3-4,7.1-5.3,7.1
			c-2.4,0-1-8.2-0.8-9.9c0.5-3.5,1.3-6.9,1.9-10.4c0.2-1.4,0.2-2.7-1.7-3.2c-2.1-0.6-3.5,0-4.2,1.5l-2.9,5.4c-1-2.5-1.8-5.6-4.5-6.7
			c-6.5-1.8-9.4,5.6-10.4,12.3c0,0,0,0,0,0.1c-3.9,6.5-7.8,13-11.8,19.5c0-9.1,3.6-17.8,4.3-27c0.2-3.4-1.1-7.3-4.9-6.1
			c-5.3,1.8-10.2,13.7-12,18c0-5,0.6-9.9,0.6-14.9c0-0.7,0-1.3-0.4-1.9c-0.5-1.1-2.1-1.1-3.2-1.1c-1.1,0.1-2.4,0.3-2.9,1.2
			c-0.2,0.4-0.2,0.8-0.2,1.3c-0.1,3.6-0.2,7.2-0.2,10.8c-2.1,3.3-3.3,5.4-4.6,7.4c-0.7,1-1.3,2.4-2.5,3.1c-0.9,0.6-2.1,0.8-3,0.2
			c-0.6-0.4-1-1.1-1.2-1.9c-0.7-3.5,1.4-13.2,2.2-16.6c0.4-1.6,0.3-3.7-1.7-4c-2.6-0.4-4.1,0.2-4.4,2.2c-0.6,2.7-1.2,5.8-1.6,8.8
			c-2,3.1-3.8,6.2-5.8,9.1c-2.7,4.2-5.9,3.7-6.9-0.9c-1.1-4.2-0.1-11.9,0.1-16.2c0-0.6,0.2-1.4,0.6-2c3.4-4.4,5.5-8.2,7.5-13.2
			c1.3-3.6,2.4-7.2,2.3-11c-0.1-2.7-1.4-4.5-3.4-4.8c-3.1-0.4-5.8,0.5-7.4,3.3c-0.9,1.4-1.8,3-2.3,4.6c-3.6,10.6-4.4,21.4-3.8,31.9
			c-1,1.1-2.3,2.1-3.9,2.6c0.3-2.5,0.5-5.1,0.1-7.5c-1.6-8.4-11.1-8.8-14.1-1.3c-0.6,1.5-1.1,3.3-1.6,5.3c-1.2,2-2.4,3.9-3.1,4.9
			c-1.4,2.3-2.8,4.6-4.5,6.6c-2,2-3-0.5-3-2.1c0.1-5.8,2.3-12.1,3.7-17.6c0.8-3.2,0.4-3.8-3-3.7c-3.3,0-5.1,0.1-5.4,0
			c0.4-2.3,1.1-6.7-0.6-8.5c-0.7-0.8-2.1-0.8-3.1-0.6c-4.7,1-7.5,8.3-2.7,10.4c1,0.4,2.5,0.7,3.6,1c0.1,0-3.6,5.7-4.8,7.6
			c0,0,0,0,0,0.1c-1.5,2.5-3.4,5.4-4.2,6.7c-1.3,2.3-4,7.1-5.3,7.1c-2.4,0-1-8.2-0.8-9.9c0.5-3.5,1.3-6.9,1.9-10.4
			c0.2-1.4,0.2-2.7-1.7-3.2c-2.1-0.6-3.5,0-4.2,1.5l-2.9,5.4c-1-2.5-1.8-5.6-4.5-6.7c-6.3-1.8-9.3,5.4-10.3,12
			c-8.7,13.4-14.5,21.8-17.7,21.8c-10.8,0-1.9-65.7,7.2-56.2c2.6,2.8,3.5,6.1,5,8.7c1.1,2,1.9,1.4,2.2,0.8c0.3-0.6-0.9-3.8-1.1-4.2
			c-3.5-9.1-7.2-10.2-14-6.5c-3.5,1.9-5.7,5.9-6.9,9.5c-4.1,11.9-5.3,25-4.7,37.4c0.1,2.8,0.8,5.7,1.9,8.1c2.8,6.7,9,7.3,13.2,4.6
			c3.4-2.2,8.6-10,14.8-19.6c0,1,0,2,0.1,2.8c0.1,1.3,0.6,2.8,1.3,4c2.2,3.4,7.5,3.2,9.4-0.2c1.6-3,3-6.3,4.6-9.4
			c0,2.3-0.1,4.5,0,6.9c0.2,3.5,3.7,6.8,7.2,5.4c3.5-1.4,5.3-5.6,7.1-8.6c1.1-1.7,3.1-4.8,4.2-6.6c0,0,0.1-0.1,0.1-0.2
			c1.4-2.2,4.7-7.4,5.4-8.8l3.3,0.1c-1.2,4.3-2.5,8.5-3,12.9c-0.2,1.4-0.4,2.9-0.4,4.4c0,1.9,0.4,4.2,2,5.5
			c5.9,5.1,10.1-3.6,12.4-7.3c0.3-0.4,0.6-0.8,0.9-1.3c-0.2,5,1.3,9.7,6.9,10.7c2.7,0.5,4.9-0.7,6.5-2.8c1.4-2,2.2-4.5,2.8-6.9
			c1.7-0.3,3-1.1,4.2-2.1c0.4,4.3,1.1,8.9,5.7,10.6c2.8,0.9,6,0.4,7.7-2.1c1.8-2.7,3.5-5.3,5.2-7.9c0,2.2,0.2,4.3,0.8,6.2
			c1,3.6,4.2,5.4,7.8,4.3c0.9-0.2,1.8-0.7,2.4-1.4c2.2-2.1,3.5-4.7,5.2-7.2c0.2-0.4,0.5-0.9,0.9-1.5c0.1,3.2,0.2,6.4,0.3,9.5
			c0,0.5,0,0.9,0.4,1.2c0.2,0.3,0.6,0.4,1,0.4c1.4,0,3.2,0,4.1-1.1c0.3-0.5,0.4-1.1,0.5-1.8c2-7.8,5.1-15.6,10.2-21.7
			c0.2-0.2,0.5-0.4,0.7-0.4c0.4,0.1,0.3,0.6,0.2,1c-1.6,5.9-2.9,12.1-3.8,18c-0.5,2.8-0.8,5.7-0.6,8.5c0,1.2,0.2,2.5,0.8,3.5
			c0.6,1.1,1.6,2,2.9,2.2c2.6,0.1,4-2.4,5-4.2c3.1-5.7,5.8-10.2,8.5-14.6c0,1,0,1.8,0.1,2.6c0.1,1.3,0.6,2.8,1.3,4
			c2.2,3.4,7.5,3.2,9.4-0.2c1.6-3,3-6.3,4.6-9.4c0,2.3-0.1,4.5,0,6.9c0.2,3.5,3.7,6.8,7.2,5.4c3.5-1.4,5.3-5.6,7.1-8.6
			c1.1-1.7,3.1-4.8,4.2-6.6C415.5,149.5,416.3,148.3,415.6,147.8z"/>
	</g>
	<g id="SPLINE_18_">
		<path class="st0" d="M328.4,113.5c3.7,2.7-1.2,18.2-6.5,23.5C323.3,128.8,325.1,116.4,328.4,113.5z"/>
	</g>
	<g id="SPLINE_17_">
		<path class="st0" d="M248.2,162.2c-2.8,0-1.2-9.5-0.9-12c0.3-1.9,1-9.3,3.7-9C258,145.1,249.7,162.2,248.2,162.2z"/>
	</g>
	<g id="SPLINE_16_">
		<path class="st0" d="M277.9,137.4c-1.3-2.5-1.2-4.4,0-6.8C278.9,133,278.7,134.9,277.9,137.4z"/>
	</g>
	<g id="SPLINE_15_">
		<path class="st0" d="M301.8,160.2c-0.8-2.6-1-5.5-0.1-8.3c0.1-0.2,0.2-0.5,0.5-0.4c2.3,1.8,4.2,3.2,7,3.8
			C308.3,162.6,303.3,166.4,301.8,160.2z"/>
	</g>
	<g id="SPLINE_14_">
		<path class="st0" d="M309.4,153.4c-2.6-0.7-4.6-2.1-5.5-4.2c-0.7-2.1-0.3-4.4,1-6.1c0.9-1.1,2.7-0.6,3.4,0.3
			C310.5,145.6,310,150.4,309.4,153.4z"/>
	</g>
	<g id="SPLINE_13_">
		<path class="st0" d="M389.2,162.2c-2.8,0-1.2-9.5-0.9-12c0.3-1.9,1-9.3,3.7-9C399,145.1,390.6,162.2,389.2,162.2z"/>
	</g>
	<g id="HATCH_4_">
		<path d="M415.6,147.8c-0.8-0.7-1.6,0.3-1.6,0.3c-1.5,2.5-3.4,5.5-4.2,6.8c-1.3,2.3-4,7.1-5.3,7.1c-2.4,0-1-8.2-0.8-9.9
			c0.5-3.5,1.3-6.9,1.9-10.4c0.2-1.4,0.2-2.7-1.7-3.2c-2.1-0.6-3.5,0-4.2,1.5l-2.9,5.4c-1-2.5-1.8-5.6-4.5-6.7
			c-6.5-1.8-9.4,5.6-10.4,12.3c0,0,0,0,0,0.1c-3.9,6.5-7.8,13-11.8,19.5c0-9.1,3.6-17.8,4.3-27c0.2-3.4-1.1-7.3-4.9-6.1
			c-5.3,1.8-10.2,13.7-12,18c0-5,0.6-9.9,0.6-14.9c0-0.7,0-1.3-0.4-1.9c-0.5-1.1-2.1-1.1-3.2-1.1c-1.1,0.1-2.4,0.3-2.9,1.2
			c-0.2,0.4-0.2,0.8-0.2,1.3c-0.1,3.6-0.2,7.2-0.2,10.8c-2.1,3.3-3.3,5.4-4.6,7.4c-0.7,1-1.3,2.4-2.5,3.1c-0.9,0.6-2.1,0.8-3,0.2
			c-0.6-0.4-1-1.1-1.2-1.9c-0.7-3.5,1.4-13.2,2.2-16.6c0.4-1.6,0.3-3.7-1.7-4c-2.6-0.4-4.1,0.2-4.4,2.2c-0.6,2.7-1.2,5.8-1.6,8.8
			c-2,3.1-3.8,6.2-5.8,9.1c-2.7,4.2-5.9,3.7-6.9-0.9c-1.1-4.2-0.1-11.9,0.1-16.2c0-0.6,0.2-1.4,0.6-2c3.4-4.4,5.5-8.2,7.5-13.2
			c1.3-3.6,2.4-7.2,2.3-11c-0.1-2.7-1.4-4.5-3.4-4.8c-3.1-0.4-5.8,0.5-7.4,3.3c-0.9,1.4-1.8,3-2.3,4.6c-3.6,10.6-4.4,21.4-3.8,31.9
			c-1,1.1-2.3,2.1-3.9,2.6c0.3-2.5,0.5-5.1,0.1-7.5c-1.6-8.4-11.1-8.8-14.1-1.3c-0.6,1.5-1.1,3.3-1.6,5.3c-1.2,2-2.4,3.9-3.1,4.9
			c-1.4,2.3-2.8,4.6-4.5,6.6c-2,2-3-0.5-3-2.1c0.1-5.8,2.3-12.1,3.7-17.6c0.8-3.2,0.4-3.8-3-3.7c-3.3,0-5.1,0.1-5.4,0
			c0.4-2.3,1.1-6.7-0.6-8.5c-0.7-0.8-2.1-0.8-3.1-0.6c-4.7,1-7.5,8.3-2.7,10.4c1,0.4,2.5,0.7,3.6,1c0.1,0-3.6,5.7-4.8,7.6
			c0,0,0,0,0,0.1c-1.5,2.5-3.4,5.4-4.2,6.7c-1.3,2.3-4,7.1-5.3,7.1c-2.4,0-1-8.2-0.8-9.9c0.5-3.5,1.3-6.9,1.9-10.4
			c0.2-1.4,0.2-2.7-1.7-3.2c-2.1-0.6-3.5,0-4.2,1.5l-2.9,5.4c-1-2.5-1.8-5.6-4.5-6.7c-6.3-1.8-9.3,5.4-10.3,12
			c-8.7,13.4-14.5,21.8-17.7,21.8c-10.8,0-1.9-65.7,7.2-56.2c2.6,2.8,3.5,6.1,5,8.7c1.1,2,1.9,1.4,2.2,0.8c0.3-0.6-0.9-3.8-1.1-4.2
			c-3.5-9.1-7.2-10.2-14-6.5c-3.5,1.9-5.7,5.9-6.9,9.5c-4.1,11.9-5.3,25-4.7,37.4c0.1,2.8,0.8,5.7,1.9,8.1c2.8,6.7,9,7.3,13.2,4.6
			c3.4-2.2,8.6-10,14.8-19.6c0,1,0,2,0.1,2.8c0.1,1.3,0.6,2.8,1.3,4c2.2,3.4,7.5,3.2,9.4-0.2c1.6-3,3-6.3,4.6-9.4
			c0,2.3-0.1,4.5,0,6.9c0.2,3.5,3.7,6.8,7.2,5.4c3.5-1.4,5.3-5.6,7.1-8.6c1.1-1.7,3.1-4.8,4.2-6.6c0,0,0.1-0.1,0.1-0.2
			c1.4-2.2,4.7-7.4,5.4-8.8l3.3,0.1c-1.2,4.3-2.5,8.5-3,12.9c-0.2,1.4-0.4,2.9-0.4,4.4c0,1.9,0.4,4.2,2,5.5
			c5.9,5.1,10.1-3.6,12.4-7.3c0.3-0.4,0.6-0.8,0.9-1.3c-0.2,5,1.3,9.7,6.9,10.7c2.7,0.5,4.9-0.7,6.5-2.8c1.4-2,2.2-4.5,2.8-6.9
			c1.7-0.3,3-1.1,4.2-2.1c0.4,4.3,1.1,8.9,5.7,10.6c2.8,0.9,6,0.4,7.7-2.1c1.8-2.7,3.5-5.3,5.2-7.9c0,2.2,0.2,4.3,0.8,6.2
			c1,3.6,4.2,5.4,7.8,4.3c0.9-0.2,1.8-0.7,2.4-1.4c2.2-2.1,3.5-4.7,5.2-7.2c0.2-0.4,0.5-0.9,0.9-1.5c0.1,3.2,0.2,6.4,0.3,9.5
			c0,0.5,0,0.9,0.4,1.2c0.2,0.3,0.6,0.4,1,0.4c1.4,0,3.2,0,4.1-1.1c0.3-0.5,0.4-1.1,0.5-1.8c2-7.8,5.1-15.6,10.2-21.7
			c0.2-0.2,0.5-0.4,0.7-0.4c0.4,0.1,0.3,0.6,0.2,1c-1.6,5.9-2.9,12.1-3.8,18c-0.5,2.8-0.8,5.7-0.6,8.5c0,1.2,0.2,2.5,0.8,3.5
			c0.6,1.1,1.6,2,2.9,2.2c2.6,0.1,4-2.4,5-4.2c3.1-5.7,5.8-10.2,8.5-14.6c0,1,0,1.8,0.1,2.6c0.1,1.3,0.6,2.8,1.3,4
			c2.2,3.4,7.5,3.2,9.4-0.2c1.6-3,3-6.3,4.6-9.4c0,2.3-0.1,4.5,0,6.9c0.2,3.5,3.7,6.8,7.2,5.4c3.5-1.4,5.3-5.6,7.1-8.6
			c1.1-1.7,3.1-4.8,4.2-6.6C415.5,149.5,416.3,148.3,415.6,147.8z M328.4,113.5c3.7,2.7-1.2,18.2-6.5,23.5
			C323.3,128.8,325.1,116.4,328.4,113.5z M248.2,162.2c-2.8,0-1.2-9.5-0.9-12c0.3-1.9,1-9.3,3.7-9
			C258,145.1,249.7,162.2,248.2,162.2z M277.9,137.4c-1.3-2.5-1.2-4.4,0-6.8C278.9,133,278.7,134.9,277.9,137.4z M301.8,160.2
			c-0.8-2.6-1-5.5-0.1-8.3c0.1-0.2,0.2-0.5,0.5-0.4c2.3,1.8,4.2,3.2,7,3.8C308.3,162.6,303.3,166.4,301.8,160.2z M309.4,153.4
			c-2.6-0.7-4.6-2.1-5.5-4.2c-0.7-2.1-0.3-4.4,1-6.1c0.9-1.1,2.7-0.6,3.4,0.3C310.5,145.6,310,150.4,309.4,153.4z M389.2,162.2
			c-2.8,0-1.2-9.5-0.9-12c0.3-1.9,1-9.3,3.7-9C399,145.1,390.6,162.2,389.2,162.2z"/>
	</g>
</g>
</svg>
