<?xml version="1.0" encoding="utf-8"?>
<!-- Generator: Adobe Illustrator 22.0.1, SVG Export Plug-In . SVG Version: 6.00 Build 0)  -->
<svg version="1.1" id="Layer_1" xmlns="http://www.w3.org/2000/svg" xmlns:xlink="http://www.w3.org/1999/xlink" x="0px" y="0px"
	 viewBox="0 0 500 500" style="enable-background:new 0 0 500 500;" xml:space="preserve">
<style type="text/css">
	.st0{fill:none;stroke:#000000;stroke-width:0;stroke-linecap:round;stroke-linejoin:round;stroke-miterlimit:10;}
</style>
<g id="POLYLINE_1_">
	<polyline class="st0" points="15.9,171.7 5,313.3 113.9,324.1 113.9,394.9 299,405.8 495,411.3 467.8,384 462.3,362.3 446,280.6 
		424.2,220.7 424.2,215.3 413.3,215.3 386.1,198.9 337.1,204.4 309.9,188 179.2,182.6 15.9,171.7 15.9,171.7 	"/>
</g>
<g id="HATCH_3_">
	<polygon points="15.9,171.7 5,313.3 113.9,324.1 113.9,394.9 299,405.8 495,411.3 467.8,384 462.3,362.3 446,280.6 424.2,220.7 
		424.2,215.3 413.3,215.3 386.1,198.9 337.1,204.4 309.9,188 179.2,182.6 15.9,171.7 15.9,171.7 	"/>
</g>
<g id="SPLINE_17_">
	<path class="st0" d="M354.1,126.1c-0.8-0.7-1.6,0.3-1.6,0.3c-1.5,2.4-3.3,5.4-4.2,6.7c-1.3,2.2-4,7-5.2,7c-2.3,0-1-8.1-0.8-9.7
		c0.5-3.5,1.3-6.8,1.8-10.2c0.2-1.4,0.2-2.6-1.6-3.1c-2-0.6-3.5,0-4.2,1.5l-2.8,5.3c-1-2.4-1.7-5.5-4.5-6.6
		c-6.3-1.7-9.2,5.4-10.2,11.9c-3,4.9-5.7,9.9-8.3,14.8c-0.9,2-1.9,3.8-1.9,0.2c0-4-0.1-7.9-0.4-11.8c-0.1-1.3-0.1-2.6-0.6-3.9
		c-0.3-0.8-0.9-1.6-1.7-2.2c-0.4-0.2-1.9-0.9-2.2-0.5c2.2-3,4.3-6.2,6.5-9.1c0.1,0,0.2-0.1,0.2-0.2c0-0.3-0.3-0.4-0.5-0.5
		c-1.2-0.4-2.1-0.2-2.9,0.8c-2.3,3-4.5,6.3-6.9,9.3l0.4-7.8c4.3-6,7.1-11.5,8.9-17.7c0.6-2.1,0.9-4.5,0.9-6.8c0-4-2.9-5.8-6.7-4.6
		c-1.8,0.6-3.7,2-4.7,3.7c-1.3,2.1-2.1,4.9-2.4,7.3c-1.3,9.2-2,18.3-2.5,27.6c-2.4,3.4-4.5,4.8-8.6,6.2c-0.4,0.2-0.5,0-0.6-0.2
		c-2.4-4.9-5.2-10.6-3.9-15.6c0.2-0.9,1-3.3,2-1.8c0.8,1.4,0.8,3,0.7,4.7c-0.1,1.9,2.7,1.3,2.7,0c0-1.4-0.1-2.8-0.5-4.3
		c-0.6-2.4-2.1-3.6-4.7-3.2c-3.6,0.5-6.5,3.1-6.9,6.7c-0.4,2.5,0.1,5,1,7.3c-1.4,2.2-2.9,4.6-3.6,5.7c-1.3,2.2-4,7-5.2,7
		c-2.3,0-1-8.1-0.8-9.7c0.5-3.5,1.3-6.8,1.8-10.2c0.2-1.4,0.2-2.6-1.6-3.1c-2-0.6-3.5,0-4.2,1.5l-2.8,5.3c-1-2.4-1.7-5.5-4.5-6.6
		c-6.3-1.7-9.2,5.4-10.2,11.9c-1,1.6-2,3.2-2.5,4c-1.4,2.2-2.7,4.6-4.5,6.5c-1.9,1.9-2.9-0.5-2.9-2c0.1-5.7,2.2-11.9,3.7-17.4
		c0.8-3.1,0.4-3.8-2.9-3.7c-3.2,0-5,0.1-5.3,0c0.4-2.2,1.1-6.6-0.6-8.3c-0.7-0.8-2-0.8-3-0.6c-4.7,1-7.4,8.1-2.6,10.2
		c1,0.4,2.4,0.7,3.6,1c0.1,0-3.6,5.6-4.8,7.5c0,0-0.1,0.2-0.2,0.4c-2.2,3.4-4.2,5.6-7.9,6.5c0.5-3.8,0.4-8.6-1.1-12.1
		c-1.5-3.3-5.9-3.9-8.1-0.9c-1.7,2.1-3,4.4-4.6,6.6c-0.1-1.4-0.3-3.3,0.5-4.5c3.5-4.7,6.2-9.8,8.1-15.3c1.3-4,2.8-7.8,2-12.1
		c-0.3-1.8-1.3-3-3.1-3.3c-11.6-2.1-13.7,21.6-14.2,28.8c-0.1,2.2-0.3,5.3-0.2,8.2c-1.3,2.1-2.4,3.7-2.8,4.4
		c-0.7,1.2-1.4,2.5-2.3,3.9c-1.2,1.7-2.2,3.1-4.4,4c-1,0.3-2,0.5-3,0.2c-0.8-0.3-1.4-0.9-1.9-1.5c-1.6-2.2-1.7-5.7-0.9-8.1
		c0-0.1,0.1-0.2,0.2-0.4c0.2-0.2,0.4-0.2,0.5-0.3c1.9-1,3.8-2.2,5.3-3.8c1.4-1.4,2.5-3.2,3-5.2c1.2-3.9-1-6.6-5-5.8
		c-1.7,0.3-3.5,1.1-4.8,2.2c-2.8,2.1-4.4,5.5-5,8.8c0,0,0,0.1,0,0.1c-6.1,9.9-13.8,28.1-15.9,28.1c-5.4,0,13.7-61.2,0.5-61.2
		c-3.8,0-6.8,7.6-9.2,14.4l-5.5,16.9c0.5-10.2,0.9-19.6,1.4-28.9c0.1-1.6-1.2-1.9-2.5-1.9c-1.1,0-2.3,0.1-2.4,1.8
		c-2.3,40-3.5,43.6-3.5,48.2c0,3,1,2.6,2.1,2.8c2.7,0.4,2.8-1.4,3.1-3.5c0.6-2.7,1.2-5.5,1.8-8.2c2.3-9.7,5.2-19,8.6-27.9
		c1.4-3.8,4.1-11.5,5.4-11.5c5.7,0-14.3,62.1-0.7,62.1c3.9,0,10.6-16.6,16.2-26.7c-0.1,2.4,0.3,4.7,1.3,7.1c1.5,3.8,6,5,9.6,4.3
		c4.9-1,6.9-5.2,9.3-8.9c0.4-0.6,0.9-1.3,1.5-2.3c0,0.4,0.1,0.7,0.1,1.1c0.4,2.7,1.6,5.2,4.9,4.8c1.4-0.1,2-1.2,2-2.3
		c0.1-3.7,3.3-9.1,4.9-12.5c0.5-1,2-2.5,2.3-0.6c0.6,4.4,0.6,8.5,0.4,12.8c-4,1.9-7.2,5.1-9,9.2c-0.9,1.9-1.1,3.7,0.1,5.6
		c0.1,0.2,0.3,0.4,0.4,0.6c2.1,2.4,6.3,0.6,8.4-0.7c2.2-1.5,3.8-3.9,4.5-6.4c0.6-1.7,1.5-8.3,1.5-8.3l0.6-0.2c4.2-0.9,6.5-3.3,9-7.3
		c0,0,0,0,0-0.1c1.3-2.1,4.7-7.4,5.4-8.8l3.2,0.1c-1.2,4.3-2.4,8.3-2.9,12.7c-0.2,1.4-0.4,2.8-0.4,4.4c0,1.8,0.4,4.2,1.9,5.4
		c5.8,5,9.9-3.6,12.2-7.2c0.2-0.3,0.4-0.6,0.6-0.9c0,1,0,2,0.1,2.8c0.1,1.3,0.6,2.7,1.3,4c2.1,3.3,7.4,3.1,9.2-0.2
		c1.6-2.9,2.9-6.2,4.6-9.2c0,2.2-0.1,4.5,0,6.8c0.2,3.5,3.7,6.7,7.1,5.3c3.5-1.4,5.2-5.5,7-8.4c0.8-1.1,2-3,3-4.6
		c1.1,2.4,2.4,4.7,3.3,6.9c-2.9,2.9-5.1,7.3-4.5,11.5c0.8,6.2,8.5,4.1,10.9,0.1c2.2-3.8,1-7.3-0.3-11.3c-0.1-0.1-0.2-0.3-0.1-0.4
		c0.1-0.1,0.2-0.2,0.3-0.2c3.1-1.4,5.4-2.3,8-5.1c-0.2,3.2-0.3,6.6,0.7,9.8c0.5,1.6,2,2.1,3.9,1.8c1.7-0.2,1.8-1.5,1.7-11.4
		c0-1.9,2.8-4.5,3.2-1.4c0.5,4.5,0.4,9.1,0.7,13.6c0.2,2.7,1.3,6.7,4.7,5.9c1.3-0.2,2-1.6,2.6-2.6c1.3-2.4,4.6-8.5,7.2-13.2
		c0,0.9,0,1.8,0.1,2.6c0.1,1.3,0.6,2.7,1.3,4c2.1,3.3,7.4,3.1,9.2-0.2c1.6-2.9,2.9-6.2,4.6-9.2c0,2.2-0.1,4.5,0,6.8
		c0.2,3.5,3.7,6.7,7.1,5.3c3.5-1.4,5.2-5.5,7-8.4c1.1-1.6,3-4.8,4.2-6.5C354,127.7,354.8,126.6,354.1,126.1z"/>
</g>
<g id="SPLINE_16_">
	<path class="st0" d="M308.6,91.6c4.2-0.1,0.3,10.6-1.1,14.2c-1.1,2.7-3.7,7-5.2,9.2C303.4,107.2,304.2,91.7,308.6,91.6z"/>
</g>
<g id="SPLINE_15_">
	<path class="st0" d="M204.2,107.9c1.1-4.7,1.9-9,3.9-12.8c0.2-0.4,0.6-0.8,0.9-1c0.6-0.5,1.2-0.6,1.4,0.8
		c1.1,8.3-3.3,16.8-7.7,23.6C203,114.9,203.5,111.4,204.2,107.9z"/>
</g>
<g id="SPLINE_14_">
	<path class="st0" d="M180.8,126.8c0.3-1.3,0.8-2.6,1.3-4c0.4-0.8,3.3-6.6,4.2-4.2c0.8,2.1,0,4.3-1.2,6c-0.6,0.8-1.2,1.3-1.9,2
		c-0.2,0.1-2.4,1.8-2.4,1.7C180.7,127.8,180.7,127.3,180.8,126.8z"/>
</g>
<g id="SPLINE_13_">
	<path class="st0" d="M206.9,147.8c-0.6,0.9-1.7,2.1-2.8,2c-0.2,0-0.4-0.1-0.6-0.2c-0.9-0.6-1.1-2.1-1.1-3.1c0.2-1.9,1.8-4,3-5.3
		c1.5-1.5,3.2-2.7,4.9-3.9C210.3,141,209,144.6,206.9,147.8z"/>
</g>
<g id="SPLINE_12_">
	<path class="st0" d="M229.2,115.8c-1.3-2.4-1.2-4.4,0-6.7C230.2,111.4,230,113.4,229.2,115.8z"/>
</g>
<g id="SPLINE_11_">
	<path class="st0" d="M253.5,140.2c-2.7,0-1.2-9.3-0.9-11.8c0.3-1.8,1-9.1,3.7-8.8C263.2,123.4,254.9,140.2,253.5,140.2z"/>
</g>
<g id="SPLINE_10_">
	<path class="st0" d="M282.1,149c-0.9,1.1-2.3,0.9-2.6-0.6c-0.8-3.5,0.8-7,2.8-9.6C283.7,141.8,284.6,146.5,282.1,149z"/>
</g>
<g id="SPLINE_9_">
	<path class="st0" d="M328.1,140.2c-2.7,0-1.2-9.3-0.9-11.8c0.3-1.8,1-9.1,3.7-8.8C337.7,123.4,329.5,140.2,328.1,140.2z"/>
</g>
<g id="HATCH_2_">
	<path d="M354.1,126.1c-0.8-0.7-1.6,0.3-1.6,0.3c-1.5,2.4-3.3,5.4-4.2,6.7c-1.3,2.2-4,7-5.2,7c-2.3,0-1-8.1-0.8-9.7
		c0.5-3.5,1.3-6.8,1.8-10.2c0.2-1.4,0.2-2.6-1.6-3.1c-2-0.6-3.5,0-4.2,1.5l-2.8,5.3c-1-2.4-1.7-5.5-4.5-6.6
		c-6.3-1.7-9.2,5.4-10.2,11.9c-3,4.9-5.7,9.9-8.3,14.8c-0.9,2-1.9,3.8-1.9,0.2c0-4-0.1-7.9-0.4-11.8c-0.1-1.3-0.1-2.6-0.6-3.9
		c-0.3-0.8-0.9-1.6-1.7-2.2c-0.4-0.2-1.9-0.9-2.2-0.5c2.2-3,4.3-6.2,6.5-9.1c0.1,0,0.2-0.1,0.2-0.2c0-0.3-0.3-0.4-0.5-0.5
		c-1.2-0.4-2.1-0.2-2.9,0.8c-2.3,3-4.5,6.3-6.9,9.3l0.4-7.8c4.3-6,7.1-11.5,8.9-17.7c0.6-2.1,0.9-4.5,0.9-6.8c0-4-2.9-5.8-6.7-4.6
		c-1.8,0.6-3.7,2-4.7,3.7c-1.3,2.1-2.1,4.9-2.4,7.3c-1.3,9.2-2,18.3-2.5,27.6c-2.4,3.4-4.5,4.8-8.6,6.2c-0.4,0.2-0.5,0-0.6-0.2
		c-2.4-4.9-5.2-10.6-3.9-15.6c0.2-0.9,1-3.3,2-1.8c0.8,1.4,0.8,3,0.7,4.7c-0.1,1.9,2.7,1.3,2.7,0c0-1.4-0.1-2.8-0.5-4.3
		c-0.6-2.4-2.1-3.6-4.7-3.2c-3.6,0.5-6.5,3.1-6.9,6.7c-0.4,2.5,0.1,5,1,7.3c-1.4,2.2-2.9,4.6-3.6,5.7c-1.3,2.2-4,7-5.2,7
		c-2.3,0-1-8.1-0.8-9.7c0.5-3.5,1.3-6.8,1.8-10.2c0.2-1.4,0.2-2.6-1.6-3.1c-2-0.6-3.5,0-4.2,1.5l-2.8,5.3c-1-2.4-1.7-5.5-4.5-6.6
		c-6.3-1.7-9.2,5.4-10.2,11.9c-1,1.6-2,3.2-2.5,4c-1.4,2.2-2.7,4.6-4.5,6.5c-1.9,1.9-2.9-0.5-2.9-2c0.1-5.7,2.2-11.9,3.7-17.4
		c0.8-3.1,0.4-3.8-2.9-3.7c-3.2,0-5,0.1-5.3,0c0.4-2.2,1.1-6.6-0.6-8.3c-0.7-0.8-2-0.8-3-0.6c-4.7,1-7.4,8.1-2.6,10.2
		c1,0.4,2.4,0.7,3.6,1c0.1,0-3.6,5.6-4.8,7.5c0,0-0.1,0.2-0.2,0.4c-2.2,3.4-4.2,5.6-7.9,6.5c0.5-3.8,0.4-8.6-1.1-12.1
		c-1.5-3.3-5.9-3.9-8.1-0.9c-1.7,2.1-3,4.4-4.6,6.6c-0.1-1.4-0.3-3.3,0.5-4.5c3.5-4.7,6.2-9.8,8.1-15.3c1.3-4,2.8-7.8,2-12.1
		c-0.3-1.8-1.3-3-3.1-3.3c-11.6-2.1-13.7,21.6-14.2,28.8c-0.1,2.2-0.3,5.3-0.2,8.2c-1.3,2.1-2.4,3.7-2.8,4.4
		c-0.7,1.2-1.4,2.5-2.3,3.9c-1.2,1.7-2.2,3.1-4.4,4c-1,0.3-2,0.5-3,0.2c-0.8-0.3-1.4-0.9-1.9-1.5c-1.6-2.2-1.7-5.7-0.9-8.1
		c0-0.1,0.1-0.2,0.2-0.4c0.2-0.2,0.4-0.2,0.5-0.3c1.9-1,3.8-2.2,5.3-3.8c1.4-1.4,2.5-3.2,3-5.2c1.2-3.9-1-6.6-5-5.8
		c-1.7,0.3-3.5,1.1-4.8,2.2c-2.8,2.1-4.4,5.5-5,8.8c0,0,0,0.1,0,0.1c-6.1,9.9-13.8,28.1-15.9,28.1c-5.4,0,13.7-61.2,0.5-61.2
		c-3.8,0-6.8,7.6-9.2,14.4l-5.5,16.9c0.5-10.2,0.9-19.6,1.4-28.9c0.1-1.6-1.2-1.9-2.5-1.9c-1.1,0-2.3,0.1-2.4,1.8
		c-2.3,40-3.5,43.6-3.5,48.2c0,3,1,2.6,2.1,2.8c2.7,0.4,2.8-1.4,3.1-3.5c0.6-2.7,1.2-5.5,1.8-8.2c2.3-9.7,5.2-19,8.6-27.9
		c1.4-3.8,4.1-11.5,5.4-11.5c5.7,0-14.3,62.1-0.7,62.1c3.9,0,10.6-16.6,16.2-26.7c-0.1,2.4,0.3,4.7,1.3,7.1c1.5,3.8,6,5,9.6,4.3
		c4.9-1,6.9-5.2,9.3-8.9c0.4-0.6,0.9-1.3,1.5-2.3c0,0.4,0.1,0.7,0.1,1.1c0.4,2.7,1.6,5.2,4.9,4.8c1.4-0.1,2-1.2,2-2.3
		c0.1-3.7,3.3-9.1,4.9-12.5c0.5-1,2-2.5,2.3-0.6c0.6,4.4,0.6,8.5,0.4,12.8c-4,1.9-7.2,5.1-9,9.2c-0.9,1.9-1.1,3.7,0.1,5.6
		c0.1,0.2,0.3,0.4,0.4,0.6c2.1,2.4,6.3,0.6,8.4-0.7c2.2-1.5,3.8-3.9,4.5-6.4c0.6-1.7,1.5-8.3,1.5-8.3l0.6-0.2c4.2-0.9,6.5-3.3,9-7.3
		c0,0,0,0,0-0.1c1.3-2.1,4.7-7.4,5.4-8.8l3.2,0.1c-1.2,4.3-2.4,8.3-2.9,12.7c-0.2,1.4-0.4,2.8-0.4,4.4c0,1.8,0.4,4.2,1.9,5.4
		c5.8,5,9.9-3.6,12.2-7.2c0.2-0.3,0.4-0.6,0.6-0.9c0,1,0,2,0.1,2.8c0.1,1.3,0.6,2.7,1.3,4c2.1,3.3,7.4,3.1,9.2-0.2
		c1.6-2.9,2.9-6.2,4.6-9.2c0,2.2-0.1,4.5,0,6.8c0.2,3.5,3.7,6.7,7.1,5.3c3.5-1.4,5.2-5.5,7-8.4c0.8-1.1,2-3,3-4.6
		c1.1,2.4,2.4,4.7,3.3,6.9c-2.9,2.9-5.1,7.3-4.5,11.5c0.8,6.2,8.5,4.1,10.9,0.1c2.2-3.8,1-7.3-0.3-11.3c-0.1-0.1-0.2-0.3-0.1-0.4
		c0.1-0.1,0.2-0.2,0.3-0.2c3.1-1.4,5.4-2.3,8-5.1c-0.2,3.2-0.3,6.6,0.7,9.8c0.5,1.6,2,2.1,3.9,1.8c1.7-0.2,1.8-1.5,1.7-11.4
		c0-1.9,2.8-4.5,3.2-1.4c0.5,4.5,0.4,9.1,0.7,13.6c0.2,2.7,1.3,6.7,4.7,5.9c1.3-0.2,2-1.6,2.6-2.6c1.3-2.4,4.6-8.5,7.2-13.2
		c0,0.9,0,1.8,0.1,2.6c0.1,1.3,0.6,2.7,1.3,4c2.1,3.3,7.4,3.1,9.2-0.2c1.6-2.9,2.9-6.2,4.6-9.2c0,2.2-0.1,4.5,0,6.8
		c0.2,3.5,3.7,6.7,7.1,5.3c3.5-1.4,5.2-5.5,7-8.4c1.1-1.6,3-4.8,4.2-6.5C354,127.7,354.8,126.6,354.1,126.1z M308.6,91.6
		c4.2-0.1,0.3,10.6-1.1,14.2c-1.1,2.7-3.7,7-5.2,9.2C303.4,107.2,304.2,91.7,308.6,91.6z M204.2,107.9c1.1-4.7,1.9-9,3.9-12.8
		c0.2-0.4,0.6-0.8,0.9-1c0.6-0.5,1.2-0.6,1.4,0.8c1.1,8.3-3.3,16.8-7.7,23.6C203,114.9,203.5,111.4,204.2,107.9z M180.8,126.8
		c0.3-1.3,0.8-2.6,1.3-4c0.4-0.8,3.3-6.6,4.2-4.2c0.8,2.1,0,4.3-1.2,6c-0.6,0.8-1.2,1.3-1.9,2c-0.2,0.1-2.4,1.8-2.4,1.7
		C180.7,127.8,180.7,127.3,180.8,126.8z M206.9,147.8c-0.6,0.9-1.7,2.1-2.8,2c-0.2,0-0.4-0.1-0.6-0.2c-0.9-0.6-1.1-2.1-1.1-3.1
		c0.2-1.9,1.8-4,3-5.3c1.5-1.5,3.2-2.7,4.9-3.9C210.3,141,209,144.6,206.9,147.8z M229.2,115.8c-1.3-2.4-1.2-4.4,0-6.7
		C230.2,111.4,230,113.4,229.2,115.8z M253.5,140.2c-2.7,0-1.2-9.3-0.9-11.8c0.3-1.8,1-9.1,3.7-8.8
		C263.2,123.4,254.9,140.2,253.5,140.2z M282.1,149c-0.9,1.1-2.3,0.9-2.6-0.6c-0.8-3.5,0.8-7,2.8-9.6
		C283.7,141.8,284.6,146.5,282.1,149z M328.1,140.2c-2.7,0-1.2-9.3-0.9-11.8c0.3-1.8,1-9.1,3.7-8.8
		C337.7,123.4,329.5,140.2,328.1,140.2z"/>
</g>
</svg>
