<?xml version="1.0" encoding="utf-8"?>
<!-- Generator: Adobe Illustrator 22.0.1, SVG Export Plug-In . SVG Version: 6.00 Build 0)  -->
<svg version="1.1" id="Layer_1" xmlns="http://www.w3.org/2000/svg" xmlns:xlink="http://www.w3.org/1999/xlink" x="0px" y="0px"
	 viewBox="0 0 500 500" style="enable-background:new 0 0 500 500;" xml:space="preserve">
<style type="text/css">
	.st0{fill:none;stroke:#000000;stroke-width:1.1339;stroke-linecap:round;stroke-linejoin:round;stroke-miterlimit:10;}
	.st1{fill:none;stroke:#000000;stroke-width:0;stroke-linecap:round;stroke-linejoin:round;stroke-miterlimit:10;}
</style>
<g id="POLYLINE_1_">
	<polyline class="st0" points="145,177.5 344.3,490 353.3,476.4 348.8,422.1 366.9,422.1 376,435.7 394.1,431.1 394.1,408.5 
		398.6,376.8 462,73.4 330.7,41.7 194.8,10 145,177.5 	"/>
</g>
<g id="HATCH_3_">
	<polygon points="145,177.5 344.3,490 353.3,476.4 348.8,422.1 366.9,422.1 376,435.7 394.1,431.1 394.1,408.5 398.6,376.8 
		462,73.4 330.7,41.7 194.8,10 145,177.5 	"/>
</g>
<g id="SPLINE_13_">
	<path class="st1" d="M250.5,416.2c-1-0.9-1.9,0.4-1.9,0.4c-1.8,2.9-4,6.5-5,8c-1.6,2.7-4.8,8.4-6.2,8.4c-2.8,0-1.2-9.7-1-11.7
		c0.6-4.1,1.6-8.2,2.2-12.3c0.2-1.7,0.2-3.2-1.9-3.8c-2.4-0.7-4.1,0-5,1.8l-3.4,6.3c-1.2-2.9-2.1-6.6-5.4-7.9
		c-7.6-2.1-11.1,6.5-12.2,14.4c-9.4,15.4-10.6,17.7-12,20c-0.4,0.7-1.1,1.6-2.1,1.5c-0.6-0.1-1-0.5-1.2-1c-0.2-0.5-0.2-1-0.4-1.6
		c-0.9-7.6,0.7-15.6,1.2-23.3c0.2-4.8,3.5-7.6,6.2-11c3.7-4.6,15.2-24.6,8.9-29.1c-2.3-1.7-5-1.2-7.1,0.5c-1.9,1.6-3.9,3.3-5.4,5.4
		c-3.4,5-5.6,10.5-7.2,16.3c-0.7,3-1.3,6.1-1.9,8.9c-1.7-0.4-3.3-0.9-4.9-0.7c-3.7,0-7.1,1.6-9.4,4.4c-1.5,1.8-2.9,4.7-4,7.9
		c-1.6,2.6-3.3,5.2-4.1,6.6c-1.6,2.7-4.8,8.4-6.2,8.4c-2.8,0-1.2-9.7-1-11.7c0.6-4.1,1.6-8.2,2.2-12.3c0.2-1.7,0.2-3.2-1.9-3.8
		c-2.4-0.7-4.1,0-5,1.8l-3.4,6.3c-1.2-2.9-2.1-6.6-5.4-7.9c-7.5-2.1-11,6.2-12.2,14c-1.5,2.1-2.4,2.8-3.8,3.2c-1.3,0.5-3,0.5-4.5-1
		c1-3.5,2.4-7.3,2.2-11.1c-0.1-1.6-0.6-3.8-2.2-4.4c-1.3-0.5-3.2,0.1-4.3,1c-0.5,0.4-1,0.7-1.2,1.1c-3.8,4.8-2.9,11.2,2.6,15
		c-0.2,1.8-4.3,12.4-6.8,10.6c-0.6-0.5-0.9-1.5-1-2.2c-0.9-3.4-0.4-7.1-0.2-10.6c0.1-3.7,0.4-7.4,0.6-11.1c0.1-1.9-0.2-3.2-2.3-3.4
		c-2.8-0.2-4.3,0.5-4.6,2.6c-0.4,1.6-0.4,3.2-0.6,4.8c-0.2,1.9-0.4,3.8-0.5,5.7c-1.5,2.4-2.7,4.3-3.2,5c-0.9,1.5-1.7,3-2.8,4.6
		c-1.5,2.1-2.7,3.8-5.2,4.8c-1.2,0.4-2.4,0.6-3.7,0.2c-1-0.4-1.7-1.1-2.3-1.8c-1.9-2.7-2.1-6.8-1.1-9.7c0-0.1,0.1-0.2,0.2-0.5
		c0.2-0.2,0.5-0.2,0.6-0.4c2.3-1.2,4.5-2.7,6.3-4.5c1.7-1.7,3-3.9,3.7-6.2c1.5-4.6-1.2-7.9-6-6.9c-2.1,0.4-4.1,1.3-5.7,2.7
		c-3.4,2.6-5.2,6.6-6,10.6c0,0.1,0,0.1,0,0.2c-7.3,11.9-16.6,33.7-19.1,33.7c-6.5,0,16.5-73.5,0.6-73.5c-4.5,0-8.2,9.1-11.1,17.3
		l-6.6,20.4c0.6-12.3,1.1-23.5,1.7-34.7c0.1-1.9-1.5-2.3-3-2.3c-1.3,0-2.8,0.1-2.9,2.2c-2.8,48-4.1,52.4-4.1,57.9
		c0,3.7,1.2,3.2,2.6,3.4c3.3,0.5,3.4-1.7,3.8-4.1c0.7-3.3,1.5-6.6,2.2-9.9c2.8-11.7,6.2-22.8,10.4-33.5c1.7-4.5,4.9-13.8,6.5-13.8
		c6.8,0-17.2,74.6-0.9,74.6c4.6,0,12.7-19.9,19.5-32.1c-0.1,2.9,0.3,5.7,1.6,8.6c1.8,4.5,7.2,6,11.6,5.1c5.8-1.2,8.3-6.2,11.2-10.7
		c0.3-0.5,0.8-1.2,1.3-1.9c0,1.4,0.1,2.8,0.3,4.1c1,8.2,9.9,11,13.9,4.3c1.5-2.4,2.6-5.5,3.5-8.3l0.4,0.2c2.8,1.6,6.3,0.7,8.4-1.1
		c-0.1,1.8-0.1,3.4,0,4.7c0.1,1.6,0.7,3.3,1.6,4.8c2.6,4,8.9,3.8,11.1-0.2c1.9-3.5,3.5-7.4,5.5-11.1c0,2.7-0.1,5.4,0,8.2
		c0.2,4.1,4.4,8,8.5,6.3c4.1-1.7,6.2-6.6,8.4-10.1c0.3-0.4,0.5-0.8,0.8-1.3c-0.5,5,0.7,9.6,5,10.9c6.7,2.2,9.4-4,12.6-8.4
		c0.4,3.2,0.7,6.3,1.2,9.3c0.5,3.2,3.3,7.7,6.9,7.6c1.1-0.1,2.2-0.7,3-1.5c0.9-0.9,1.5-1.7,2.1-2.7c2-2.9,3.8-5.9,9.3-14.8
		c0,1.2,0,2.2,0.1,3.1c0.1,1.6,0.7,3.3,1.6,4.8c2.6,4,8.9,3.8,11.1-0.2c1.9-3.5,3.5-7.4,5.5-11.1c0,2.7-0.1,5.4,0,8.2
		c0.2,4.1,4.4,8,8.5,6.3c4.1-1.7,6.2-6.6,8.4-10.1c1.3-1.9,3.7-5.7,5-7.8C250.4,418.1,251.4,416.8,250.5,416.2z"/>
</g>
<g id="SPLINE_12_">
	<path class="st1" d="M202.3,389.6c0.6-1.7,5.6-13.6,7.7-12.3c0.6,0.4,0.7,1.2,0.6,1.8c-0.4,4.6-2.4,9.7-4.4,14
		c-2.1,4.4-4.8,8.4-8.4,12.4C198.6,400.1,200.1,394.7,202.3,389.6z"/>
</g>
<g id="SPLINE_11_">
	<path class="st1" d="M90.3,417c0.4-1.6,1-3.2,1.6-4.8c0.5-1,4-7.9,5-5c1,2.6,0,5.1-1.5,7.2c-0.7,1-1.5,1.6-2.3,2.4
		c-0.2,0.1-2.9,2.2-2.9,2.1C90.2,418.3,90.2,417.7,90.3,417z"/>
</g>
<g id="SPLINE_10_">
	<path class="st1" d="M124.6,419.7c-0.2,0.5-0.4,0-0.5,0c-1.9-3.2-0.9-8.5,1.6-10.8C127.1,412.2,125.7,416.6,124.6,419.7z"/>
</g>
<g id="SPLINE_9_">
	<path class="st1" d="M143.2,433.1c-3.3,0-1.5-11.2-1.1-14.1c0.4-2.2,1.2-11,4.4-10.6C154.7,413,144.9,433.1,143.2,433.1z"/>
</g>
<g id="SPLINE_8_">
	<path class="st1" d="M178.9,433.5c-1.5-3.4-1-6.6-0.6-9.7c0.2-2.9,3.8-19,9-15.8c0.9,0.5,1.3,1.6,1.5,2.6
		C189.8,418.5,184.7,426.9,178.9,433.5z"/>
</g>
<g id="SPLINE_7_">
	<path class="st1" d="M219.3,433.1c-3.3,0-1.5-11.2-1.1-14.1c0.4-2.2,1.2-11,4.4-10.6C230.9,413,221,433.1,219.3,433.1z"/>
</g>
<g id="HATCH_2_">
	<path d="M250.5,416.2c-1-0.9-1.9,0.4-1.9,0.4c-1.8,2.9-4,6.5-5,8c-1.6,2.7-4.8,8.4-6.2,8.4c-2.8,0-1.2-9.7-1-11.7
		c0.6-4.1,1.6-8.2,2.2-12.3c0.2-1.7,0.2-3.2-1.9-3.8c-2.4-0.7-4.1,0-5,1.8l-3.4,6.3c-1.2-2.9-2.1-6.6-5.4-7.9
		c-7.6-2.1-11.1,6.5-12.2,14.4c-9.4,15.4-10.6,17.7-12,20c-0.4,0.7-1.1,1.6-2.1,1.5c-0.6-0.1-1-0.5-1.2-1c-0.2-0.5-0.2-1-0.4-1.6
		c-0.9-7.6,0.7-15.6,1.2-23.3c0.2-4.8,3.5-7.6,6.2-11c3.7-4.6,15.2-24.6,8.9-29.1c-2.3-1.7-5-1.2-7.1,0.5c-1.9,1.6-3.9,3.3-5.4,5.4
		c-3.4,5-5.6,10.5-7.2,16.3c-0.7,3-1.3,6.1-1.9,8.9c-1.7-0.4-3.3-0.9-4.9-0.7c-3.7,0-7.1,1.6-9.4,4.4c-1.5,1.8-2.9,4.7-4,7.9
		c-1.6,2.6-3.3,5.2-4.1,6.6c-1.6,2.7-4.8,8.4-6.2,8.4c-2.8,0-1.2-9.7-1-11.7c0.6-4.1,1.6-8.2,2.2-12.3c0.2-1.7,0.2-3.2-1.9-3.8
		c-2.4-0.7-4.1,0-5,1.8l-3.4,6.3c-1.2-2.9-2.1-6.6-5.4-7.9c-7.5-2.1-11,6.2-12.2,14c-1.5,2.1-2.4,2.8-3.8,3.2c-1.3,0.5-3,0.5-4.5-1
		c1-3.5,2.4-7.3,2.2-11.1c-0.1-1.6-0.6-3.8-2.2-4.4c-1.3-0.5-3.2,0.1-4.3,1c-0.5,0.4-1,0.7-1.2,1.1c-3.8,4.8-2.9,11.2,2.6,15
		c-0.2,1.8-4.3,12.4-6.8,10.6c-0.6-0.5-0.9-1.5-1-2.2c-0.9-3.4-0.4-7.1-0.2-10.6c0.1-3.7,0.4-7.4,0.6-11.1c0.1-1.9-0.2-3.2-2.3-3.4
		c-2.8-0.2-4.3,0.5-4.6,2.6c-0.4,1.6-0.4,3.2-0.6,4.8c-0.2,1.9-0.4,3.8-0.5,5.7c-1.5,2.4-2.7,4.3-3.2,5c-0.9,1.5-1.7,3-2.8,4.6
		c-1.5,2.1-2.7,3.8-5.2,4.8c-1.2,0.4-2.4,0.6-3.7,0.2c-1-0.4-1.7-1.1-2.3-1.8c-1.9-2.7-2.1-6.8-1.1-9.7c0-0.1,0.1-0.2,0.2-0.5
		c0.2-0.2,0.5-0.2,0.6-0.4c2.3-1.2,4.5-2.7,6.3-4.5c1.7-1.7,3-3.9,3.7-6.2c1.5-4.6-1.2-7.9-6-6.9c-2.1,0.4-4.1,1.3-5.7,2.7
		c-3.4,2.6-5.2,6.6-6,10.6c0,0.1,0,0.1,0,0.2c-7.3,11.9-16.6,33.7-19.1,33.7c-6.5,0,16.5-73.5,0.6-73.5c-4.5,0-8.2,9.1-11.1,17.3
		l-6.6,20.4c0.6-12.3,1.1-23.5,1.7-34.7c0.1-1.9-1.5-2.3-3-2.3c-1.3,0-2.8,0.1-2.9,2.2c-2.8,48-4.1,52.4-4.1,57.9
		c0,3.7,1.2,3.2,2.6,3.4c3.3,0.5,3.4-1.7,3.8-4.1c0.7-3.3,1.5-6.6,2.2-9.9c2.8-11.7,6.2-22.8,10.4-33.5c1.7-4.5,4.9-13.8,6.5-13.8
		c6.8,0-17.2,74.6-0.9,74.6c4.6,0,12.7-19.9,19.5-32.1c-0.1,2.9,0.3,5.7,1.6,8.6c1.8,4.5,7.2,6,11.6,5.1c5.8-1.2,8.3-6.2,11.2-10.7
		c0.3-0.5,0.8-1.2,1.3-1.9c0,1.4,0.1,2.8,0.3,4.1c1,8.2,9.9,11,13.9,4.3c1.5-2.4,2.6-5.5,3.5-8.3l0.4,0.2c2.8,1.6,6.3,0.7,8.4-1.1
		c-0.1,1.8-0.1,3.4,0,4.7c0.1,1.6,0.7,3.3,1.6,4.8c2.6,4,8.9,3.8,11.1-0.2c1.9-3.5,3.5-7.4,5.5-11.1c0,2.7-0.1,5.4,0,8.2
		c0.2,4.1,4.4,8,8.5,6.3c4.1-1.7,6.2-6.6,8.4-10.1c0.3-0.4,0.5-0.8,0.8-1.3c-0.5,5,0.7,9.6,5,10.9c6.7,2.2,9.4-4,12.6-8.4
		c0.4,3.2,0.7,6.3,1.2,9.3c0.5,3.2,3.3,7.7,6.9,7.6c1.1-0.1,2.2-0.7,3-1.5c0.9-0.9,1.5-1.7,2.1-2.7c2-2.9,3.8-5.9,9.3-14.8
		c0,1.2,0,2.2,0.1,3.1c0.1,1.6,0.7,3.3,1.6,4.8c2.6,4,8.9,3.8,11.1-0.2c1.9-3.5,3.5-7.4,5.5-11.1c0,2.7-0.1,5.4,0,8.2
		c0.2,4.1,4.4,8,8.5,6.3c4.1-1.7,6.2-6.6,8.4-10.1c1.3-1.9,3.7-5.7,5-7.8C250.4,418.1,251.4,416.8,250.5,416.2z M202.3,389.6
		c0.6-1.7,5.6-13.6,7.7-12.3c0.6,0.4,0.7,1.2,0.6,1.8c-0.4,4.6-2.4,9.7-4.4,14c-2.1,4.4-4.8,8.4-8.4,12.4
		C198.6,400.1,200.1,394.7,202.3,389.6z M90.3,417c0.4-1.6,1-3.2,1.6-4.8c0.5-1,4-7.9,5-5c1,2.6,0,5.1-1.5,7.2
		c-0.7,1-1.5,1.6-2.3,2.4c-0.2,0.1-2.9,2.2-2.9,2.1C90.2,418.3,90.2,417.7,90.3,417z M124.6,419.7c-0.2,0.5-0.4,0-0.5,0
		c-1.9-3.2-0.9-8.5,1.6-10.8C127.1,412.2,125.7,416.6,124.6,419.7z M143.2,433.1c-3.3,0-1.5-11.2-1.1-14.1c0.4-2.2,1.2-11,4.4-10.6
		C154.7,413,144.9,433.1,143.2,433.1z M178.9,433.5c-1.5-3.4-1-6.6-0.6-9.7c0.2-2.9,3.8-19,9-15.8c0.9,0.5,1.3,1.6,1.5,2.6
		C189.8,418.5,184.7,426.9,178.9,433.5z M219.3,433.1c-3.3,0-1.5-11.2-1.1-14.1c0.4-2.2,1.2-11,4.4-10.6
		C230.9,413,221,433.1,219.3,433.1z"/>
</g>
</svg>
