<?xml version="1.0" encoding="utf-8"?>
<!-- Generator: Adobe Illustrator 22.0.1, SVG Export Plug-In . SVG Version: 6.00 Build 0)  -->
<svg version="1.1" id="Layer_1" xmlns="http://www.w3.org/2000/svg" xmlns:xlink="http://www.w3.org/1999/xlink" x="0px" y="0px"
	 viewBox="0 0 500 500" style="enable-background:new 0 0 500 500;" xml:space="preserve">
<style type="text/css">
	.st0{fill:none;stroke:#000000;stroke-width:0;stroke-linecap:round;stroke-linejoin:round;stroke-miterlimit:10;}
</style>
<g id="POLYLINE_1_">
	<polyline class="st0" points="33.4,61.2 82.4,12.2 119.1,159.2 155.9,257.2 229.4,367.5 217.1,416.5 143.6,441 33.4,490 8.9,379.7 
		21.1,220.5 45.6,171.5 33.4,134.7 33.4,61.2 	"/>
</g>
<g id="HATCH_7_">
	<polygon points="33.4,61.2 82.4,12.2 119.1,159.2 155.9,257.2 229.4,367.5 217.1,416.5 143.6,441 33.4,490 8.9,379.7 21.1,220.5 
		45.6,171.5 33.4,134.7 33.4,61.2 	"/>
</g>
<g id="INSERT_1_">
	<g id="SPLINE_25_">
		<path class="st0" d="M218.6,42.1c-1.8,2.7-4.5,5.3-7.9,4.1c0,0-0.2-0.1-0.2-0.3v-0.2c0.7-2.3,3.4-10.4,0-11.8
			c-1.2-0.4-2.5,0.1-3.5,0.8c-0.4,0.3-0.7,0.6-1,0.9c-1.3,1.7-2,4-1.6,6.2c0.3,2.3,1.6,4.1,3.5,5.4c-2,5.9-4.1,11.1-6,16.8
			c-2.7,7.4-3.8,5.3-2.9-2.8c0.3-2.8,0.7-5.6,1-8.3c0.2-1.7,0.4-3.6,0.6-5.3c0.4-3.4,0.7-6.8,0.9-10.2c0.1-1.4-0.9-2.4-2.3-2.7
			c-1.5-0.2-3-0.1-3.9,1.4c-1.5,2.7-2.5,5.9-3.8,9c-1.3,3.5-2.1,5.6-2.7,7.4c-1,2.3-1.3,2.5-1.3-0.1c0-4.9,0.8-10.2,1.6-15.1
			c0.2-1,0.4-2.3-0.5-3c-1.2-0.9-2.7-0.9-4-0.1c-1.4,0.9-1.4,2.9-1.8,4.3c-0.3,1.9-0.6,3.8-0.9,5.8c-1.2,2-2.2,3.4-2.6,4.1
			c-0.7,1.2-1.3,2.4-2.2,3.7c-1.2,1.6-2.1,3-4.1,3.8c-1,0.3-1.9,0.5-2.9,0.2c-0.8-0.3-1.3-0.9-1.8-1.4c-1.5-2.1-1.6-5.4-0.9-7.7
			c0-0.1,0.1-0.2,0.2-0.4c0.2-0.2,0.4-0.2,0.5-0.3c1.8-1,3.6-2.1,5-3.6c1.4-1.4,2.4-3.1,2.9-4.9c1.2-3.7-1-6.3-4.7-5.5
			c-1.6,0.3-3.3,1.1-4.5,2.1c-2.7,2-4.1,5.2-4.7,8.4c0,0,0,0.1,0,0.1c-5.8,9.4-13.2,26.7-15.1,26.7c-5.1,0,13-58.2,0.5-58.2
			c-3.6,0-6.5,7.2-8.8,13.7l-5.2,16.1c0.5-9.7,0.9-18.6,1.4-27.5c0.1-1.5-1.2-1.8-2.4-1.8c-1.1,0-2.2,0.1-2.3,1.7
			c-2.2,38-3.3,41.5-3.3,45.8c0,2.9,1,2.5,2,2.7c2.6,0.4,2.7-1.4,3-3.3c0.6-2.6,1.2-5.2,1.7-7.8c2.2-9.3,4.9-18,8.2-26.5
			c1.4-3.6,3.9-10.9,5.1-10.9c5.4,0-13.6,59-0.7,59c3.7,0,10-15.8,15.4-25.4c-0.1,2.3,0.3,4.5,1.3,6.8c1.4,3.6,5.7,4.7,9.2,4.1
			c4.6-1,6.6-4.9,8.9-8.5c0.2-0.3,0.5-0.7,0.8-1.2c0,0.1,0,0.2,0,0.2c-0.2,3-0.5,6.1,1.9,8.2c2.2,1.9,5.5,0,6.5-2.4
			c1.9-5.1,3.1-9.4,5.2-14.2c0.1-0.2,0.2-0.4,0.4-0.4c0,0-1.2,8.6-1.3,9.2c-0.8,5.5-1.4,10.9-1.2,16.4c0.1,1.8,0.6,3.9,1.8,5.3
			c1.4,1.6,4,1.9,5.4,0.3c1.4-1.8,2.1-3.5,2.8-5.4c2.1-5.8,4.1-11.7,6.4-17.4c0-0.1,0-0.2,0-0.2s0.1,0,0.2,0
			c3.2,1.3,7.2-0.3,10.1-4.6c0,0,0.8-1.1,0.1-1.5C219.2,41.2,218.6,42.1,218.6,42.1z"/>
	</g>
	<g id="SPLINE_24_">
		<path class="st0" d="M168.1,42.4c0.3-1.3,0.8-2.5,1.3-3.8c0.4-0.8,3.2-6.3,4-4c0.8,2,0,4.1-1.2,5.7c-0.6,0.8-1.2,1.3-1.8,1.9
			c-0.2,0.1-2.3,1.7-2.3,1.6C168,43.4,168,42.9,168.1,42.4z"/>
	</g>
	<g id="SPLINE_23_">
		<path class="st0" d="M209.4,42.6c-0.2,0.6-0.4,1.1-0.6,1.5l-0.1,0.1l-0.2-0.1c-0.5-0.8-0.7-1.3-0.8-2.2c0-2,0.4-4.8,2-6.4
			c0.3,0.7,0.3,1.4,0.3,2.2C210.1,39.4,209.9,41.1,209.4,42.6z"/>
	</g>
	<g id="HATCH_6_">
		<path d="M218.6,42.1c-1.8,2.7-4.5,5.3-7.9,4.1c0,0-0.2-0.1-0.2-0.3v-0.2c0.7-2.3,3.4-10.4,0-11.8c-1.2-0.4-2.5,0.1-3.5,0.8
			c-0.4,0.3-0.7,0.6-1,0.9c-1.3,1.7-2,4-1.6,6.2c0.3,2.3,1.6,4.1,3.5,5.4c-2,5.9-4.1,11.1-6,16.8c-2.7,7.4-3.8,5.3-2.9-2.8
			c0.3-2.8,0.7-5.6,1-8.3c0.2-1.7,0.4-3.6,0.6-5.3c0.4-3.4,0.7-6.8,0.9-10.2c0.1-1.4-0.9-2.4-2.3-2.7c-1.5-0.2-3-0.1-3.9,1.4
			c-1.5,2.7-2.5,5.9-3.8,9c-1.3,3.5-2.1,5.6-2.7,7.4c-1,2.3-1.3,2.5-1.3-0.1c0-4.9,0.8-10.2,1.6-15.1c0.2-1,0.4-2.3-0.5-3
			c-1.2-0.9-2.7-0.9-4-0.1c-1.4,0.9-1.4,2.9-1.8,4.3c-0.3,1.9-0.6,3.8-0.9,5.8c-1.2,2-2.2,3.4-2.6,4.1c-0.7,1.2-1.3,2.4-2.2,3.7
			c-1.2,1.6-2.1,3-4.1,3.8c-1,0.3-1.9,0.5-2.9,0.2c-0.8-0.3-1.3-0.9-1.8-1.4c-1.5-2.1-1.6-5.4-0.9-7.7c0-0.1,0.1-0.2,0.2-0.4
			c0.2-0.2,0.4-0.2,0.5-0.3c1.8-1,3.6-2.1,5-3.6c1.4-1.4,2.4-3.1,2.9-4.9c1.2-3.7-1-6.3-4.7-5.5c-1.6,0.3-3.3,1.1-4.5,2.1
			c-2.7,2-4.1,5.2-4.7,8.4c0,0,0,0.1,0,0.1c-5.8,9.4-13.2,26.7-15.1,26.7c-5.1,0,13-58.2,0.5-58.2c-3.6,0-6.5,7.2-8.8,13.7
			l-5.2,16.1c0.5-9.7,0.9-18.6,1.4-27.5c0.1-1.5-1.2-1.8-2.4-1.8c-1.1,0-2.2,0.1-2.3,1.7c-2.2,38-3.3,41.5-3.3,45.8
			c0,2.9,1,2.5,2,2.7c2.6,0.4,2.7-1.4,3-3.3c0.6-2.6,1.2-5.2,1.7-7.8c2.2-9.3,4.9-18,8.2-26.5c1.4-3.6,3.9-10.9,5.1-10.9
			c5.4,0-13.6,59-0.7,59c3.7,0,10-15.8,15.4-25.4c-0.1,2.3,0.3,4.5,1.3,6.8c1.4,3.6,5.7,4.7,9.2,4.1c4.6-1,6.6-4.9,8.9-8.5
			c0.2-0.3,0.5-0.7,0.8-1.2c0,0.1,0,0.2,0,0.2c-0.2,3-0.5,6.1,1.9,8.2c2.2,1.9,5.5,0,6.5-2.4c1.9-5.1,3.1-9.4,5.2-14.2
			c0.1-0.2,0.2-0.4,0.4-0.4c0,0-1.2,8.6-1.3,9.2c-0.8,5.5-1.4,10.9-1.2,16.4c0.1,1.8,0.6,3.9,1.8,5.3c1.4,1.6,4,1.9,5.4,0.3
			c1.4-1.8,2.1-3.5,2.8-5.4c2.1-5.8,4.1-11.7,6.4-17.4c0-0.1,0-0.2,0-0.2s0.1,0,0.2,0c3.2,1.3,7.2-0.3,10.1-4.6c0,0,0.8-1.1,0.1-1.5
			C219.2,41.2,218.6,42.1,218.6,42.1z M168.1,42.4c0.3-1.3,0.8-2.5,1.3-3.8c0.4-0.8,3.2-6.3,4-4c0.8,2,0,4.1-1.2,5.7
			c-0.6,0.8-1.2,1.3-1.8,1.9c-0.2,0.1-2.3,1.7-2.3,1.6C168,43.4,168,42.9,168.1,42.4z M209.4,42.6c-0.2,0.6-0.4,1.1-0.6,1.5
			l-0.1,0.1l-0.2-0.1c-0.5-0.8-0.7-1.3-0.8-2.2c0-2,0.4-4.8,2-6.4c0.3,0.7,0.3,1.4,0.3,2.2C210.1,39.4,209.9,41.1,209.4,42.6z"/>
	</g>
	<g id="SPLINE_22_">
		<path class="st0" d="M436,25.8c2.2-2.5-1.8-5-3.4-1.9C431.7,26.2,434.5,27.3,436,25.8z"/>
	</g>
	<g id="HATCH_5_">
		<path d="M436,25.8c2.2-2.5-1.8-5-3.4-1.9C431.7,26.2,434.5,27.3,436,25.8z"/>
	</g>
	<g id="SPLINE_21_">
		<path class="st0" d="M490.9,41.7c-0.9-0.7-1.5,0.3-1.5,0.3c-1.9,3.1-3.5,5.5-4.1,6.4c-0.7,1.2-1.4,2.4-2.2,3.7
			c-1.2,1.6-2.1,3-4.1,3.8c-1,0.3-1.9,0.5-2.9,0.2c-0.8-0.3-1.4-0.9-1.8-1.4c-1.5-2.1-1.6-5.4-0.9-7.7c0-0.1,0.1-0.2,0.2-0.4
			c0.2-0.2,0.4-0.2,0.5-0.3c1.8-1,3.6-2.1,5-3.6c1.3-1.4,2.4-3.1,2.9-4.9c1.2-3.7-1-6.3-4.7-5.5c-1.6,0.3-3.3,1.1-4.5,2.1
			c-2.7,2-4.1,5.2-4.7,8.4c0,0,0,0.1,0,0.1c-1.3,2.1-2.8,4.4-3.4,5.6c-1.4,2.1-2.6,4.3-4.2,6.2c-1.8,1.8-2.8-0.5-2.8-1.9
			c0.1-5.4,2.1-11.3,3.5-16.5c0.8-3,0.4-3.6-2.8-3.5c-3.1,0-4.7,0.1-5,0c0.4-2.1,1.1-6.3-0.6-7.9c-0.7-0.8-1.9-0.8-2.9-0.6
			c-4.4,1-7,7.7-2.5,9.7c1,0.4,2.3,0.7,3.4,1c0.1,0-3.4,5.3-4.5,7.1c0,0-0.1,0.2-0.2,0.4c-2.9,4.6-4.4,7-5.8,9.2
			c-0.7,1-1.3,2.2-2.3,2.9c-0.9,0.6-1.9,0.8-2.8,0.2c-0.6-0.4-1-1.1-1.2-1.7c-0.7-3.3,1.4-12.3,2-15.5c0.4-1.5,0.3-3.5-1.5-3.8
			c-2.4-0.4-3.9,0.2-4.1,2c-0.6,2.6-1.2,5.4-1.5,8.3c-0.3,0.5-0.6,1.1-0.9,1.6l-10.8,18c0-3.6,2.4-14.8,2.4-15c0,0,0.6-3,0.9-4.4
			c0.6-3.3,1.6-10.6-4-9.3c-3.4,0.7-6.1,6.1-7.6,8.4c0-1.2,0.1-6.9,0.7-7.6c4.8-5.3,8.5-12.3,9.8-19c0.7-3.9-1.1-6.6-4.5-6.7
			c-5.3-0.2-7.8,4.9-9.2,9.4c-2.1,7.2-2.5,15.4-3.2,22.8c-0.1,0.8-0.1,1.5-0.2,2.3c-2,2.4-3.9,3.6-7.3,4.7c-0.4,0.2-0.5,0-0.6-0.2
			c-2.3-4.6-4.9-10-3.7-14.9c0.2-0.9,1-3.2,1.9-1.7c0.8,1.3,0.8,2.9,0.7,4.4c-0.1,1.8,2.6,1.3,2.6,0c0-1.3-0.1-2.7-0.5-4.1
			c-0.6-2.3-2-3.4-4.4-3.1c-3.4,0.5-6.2,3-6.6,6.4c-0.4,2.4,0.1,4.7,1,6.8c-1.6,2.3-2.6,3-3.8,3.3c-1.4,0.3-2.6,0.1-3.9-0.7
			c-0.3-0.1-0.4-0.5-0.4-0.7c0.3-2.5,0.5-4.8-0.1-7.3c-1.3-5-7.4-6.8-10.4-2.2c-1.8,3-3.4,6.2-5,9.1c0.1-0.8,0.2-1.8,0.2-2.9
			c0.2-2.4,0.4-4.8,0.6-7.1c0.1-1.4-0.6-2.1-1.9-2.3c-2.7-0.5-3.7,0.4-4.1,2.9c-0.4,3-0.7,6-0.9,9c-3.8,6.5-9.6,20.7-11.2,18.9
			c-0.3-0.2-0.4-0.6-0.4-1c-0.1-1.4,0.2-3.1,0.4-4.6c0.7-6.7,2.2-13.1,3.2-19.8c0.2-1.4,0.4-2.9,0-4.2c-1-3.3-6.3-4.6-8-1.3
			c-2.2,4.3-3.7,9.4-5.7,14.7c-0.2-3.8,0.1-7.3-0.4-11.1c-0.2-1.6-1.1-2.9-2.9-3.2c-2.7-0.5-4.4,1.5-5.2,3.9
			c-1.5,4.2-2.9,8.7-4.3,12.9c0.2-4.6,0.4-9.3,0.6-13.9c0-0.4,0-0.8-0.2-1.2c-0.5-1.3-3.6-1.1-4.6-1c-1.3,0.1-1.1,1.4-1.2,2.4
			c-0.1,3-0.3,6-0.3,9c-1,1.6-1.9,3.1-2.4,3.9c-1.3,2.1-3.8,6.7-4.9,6.7c-2.2,0-1-7.7-0.8-9.3c0.5-3.3,1.3-6.5,1.7-9.7
			c0.2-1.4,0.2-2.5-1.5-3c-1.9-0.6-3.3,0-4,1.4l-2.7,5c-1-2.3-1.6-5.2-4.2-6.3c-6-1.6-8.8,5.1-9.7,11.3C282,51.8,281,54,278.2,59
			c-1.9,3.5-3.4,6.4-5.5,9.4c-1.2,1.7-2.6,0.2-3-1.1c-1.4-5.1-1.5-10.4-1.4-15.6c0.2-5.1,0.4-10.5,1-15.5c0.1-0.4,0.1-0.8,0.9-1.5
			c5.9-4.4,11.1-9.5,13-16.7c0.8-2.7-0.3-5.8-2.2-7c-1.9-1.3-5.5-1.1-7.4,0.9c-1.4,1.3-2.9,3-3.8,4.7c-2.7,5.6-4,11.7-4.8,17.8
			c-0.1,0.6-0.2,1.3-0.6,1.5c-2.1,1.2-4.2,2.2-6.5,3.2c-0.1,0-0.1,0-0.2,0c-0.1-0.1-0.1-0.2-0.1-0.3c0.5-8.5,1.4-17.1,1.9-25.6
			c0.2-1.4-0.4-2.3-1.7-2.5c-1.4-0.2-2.6-0.2-2.9,1.6c-0.2,0.7-0.6,1.4-1,1.9c-2.3,2.9-4.4,5.9-6.9,8.6c-2.5,2.7-4.1,5.9-3.2,9.7
			c0,0.1,0,0.3,0,0.3c0.2,0.2,0.4,0.2,0.7,0.2c0.4,0,0.8-0.2,1-0.6c0.3-0.5,0.1-1.4,0.1-2c0.2-1,0.3-1.9,0.8-2.8
			c0.2-0.3,0.3-0.7,0.5-1c2-3.2,4.8-5.8,7.3-8.7c0,0.9,0,1.3,0,1.7c-0.6,6.9-1.3,13.9-1.5,20.8c0,0.2,0,0.3,0,0.4
			c-0.1,0.2-0.2,0.2-0.2,0.3c-2.2,2.2-5,3.7-7.2,5.8c-2.3,2.2-4.4,4.6-6.1,7.3c-1.9,3.2-3.1,6.8-2.9,10.5c0.1,1,0.2,1.8,0.5,2.8
			c1.1,3.1,3.7,4.4,6.8,4.1c2.7-0.3,4.9-1.4,6.8-3.2c3.7-3.2,4.7-7.3,5.2-11.8c0.6-4.6,1-9.4,1.4-14.1c0.1-0.7,0.3-1.6,0.8-1.9
			c2.1-1.2,4.2-2.1,6.5-3.2c0,0.6,0,1,0,1.3c-0.2,6.7-0.5,13.3-0.5,20c0,3.4,0.6,6.6,2.3,9.6c1.2,1.9,3.8,3.2,6,2.5
			c2.4-0.7,4-3.9,5-6c2.9-5.6,5.9-10.7,9-16c0,0.8,0,1.5,0.1,2.1c0.1,1.3,0.6,2.6,1.3,3.8c2,3.2,7,3,8.8-0.2
			c1.5-2.8,2.8-5.9,4.3-8.8c0,2.1-0.1,4.2,0,6.5c0.2,3.3,3.5,6.4,6.8,5c3.3-1.3,4.9-5.2,6.7-8c0.3-0.4,0.6-0.9,1-1.4
			c0,2.5,0.1,4.9,0.3,7.4c0.2,1.3,0.7,2.1,1.9,2.4c1.8,0.4,3.3-0.1,3.8-1.7c2.1-7.1,4.1-13.5,6.5-19.9c0,12.3-0.6,16.7,0.4,21.1
			c0.1,0.6,0.3,1.3,0.8,1.6c0.8,0.5,2.2,0.5,3-0.1c1.1-0.8,1.4-2.4,1.8-3.6c1.4-4.6,2.7-9.3,4.2-13.9c4.3-14.4,2.2,0.5,1.3,5.3
			c-0.7,3.6-1.3,7.1-1.7,10.8c-0.2,1.5-0.3,3.2,0,4.7c0.5,3.2,3.8,6,7.1,4.1c2-1.1,3.3-3.9,4.3-5.9c2.1-3.8,4.2-8,6.3-12
			c-0.3,4-0.5,8.1-0.7,12.1c-0.4,5.6-0.9,11.3-1.2,16.9c-0.1,1.7,1.3,3.2,3,3.1c3.4-0.1,3-4.1,3.2-6.6c0.5-8.4,1.3-19.3,3.7-26.3
			c1.5-4.2,3.6-9.7,6.6-12.6c0.4-0.4,0.8-0.2,1,0.1c1.1,1.5,1.5,3.3,1.6,5.1c0.1,5.7,0.4,2.7-2.2,4.2c-2.1,1.3-3.6,3.2-4.3,5.5
			c-0.8,2.3-1.1,5.6,1.5,6.8c0.7,0.3,1.5,0.4,2.3,0.2c4.5-0.8,6.7-5.7,7.2-9.7c0.5,0.2,1,0.4,1.5,0.6c1.2,0.4,2.3,0.6,3.6,0.2
			c1.9-0.4,3.2-1.7,4.2-3.2c1.1,2.3,2.4,4.5,3.2,6.6c-2.8,2.8-4.8,6.9-4.2,10.9c0.8,5.9,8.1,3.9,10.3,0.1c2.1-3.6,1-6.9-0.3-10.7
			c-0.1-0.1-0.2-0.3-0.1-0.4c0.1-0.1,0.2-0.2,0.3-0.2c2.6-1.2,4.6-2,6.8-4c0,1.1,0,2.3,0,3.5c0,1.7-1,7,2.1,7c1.3,0,2.2-0.2,2.5-1.6
			c1.8-11,8-17.8,9.6-19c-1.2,5.1-2.7,11.2-3.5,15.9c-0.7,4-2,12.6,2.9,13.2c1.1,0,2.1-0.6,2.9-1.3c0.8-0.8,1.3-1.7,1.7-2.7
			c4.1-7.2,6.7-11.5,8.3-14.2c0,1.9,0.2,3.8,0.7,5.5c1,3.4,4,5,7.3,4.1c0.9-0.2,1.6-0.7,2.2-1.4c2-1.9,3.3-4.4,4.8-6.8
			c0.7-1.2,1.6-2.6,4-6.2c0,0,0.1-0.2,0.2-0.4c1.4-2.1,4.4-6.8,5-8.1l3.1,0.1c-1.2,4.1-2.3,7.9-2.8,12.1c-0.2,1.4-0.4,2.7-0.4,4.1
			c0,1.7,0.4,4,1.8,5.1c5.5,4.7,9.5-3.4,11.6-6.8c0.4-0.6,1-1.5,1.5-2.4c-0.1,2.3,0.2,4.6,1.3,6.9c1.4,3.6,5.7,4.7,9.2,4.1
			c4.6-1,6.6-4.9,8.9-8.5c0.8-1.2,2.1-3.3,4.1-6.3C490.8,43.3,491.5,42.2,490.9,41.7z"/>
	</g>
	<g id="SPLINE_20_">
		<path class="st0" d="M474,42.4c0.3-1.3,0.8-2.5,1.3-3.8c0.4-0.8,3.2-6.3,4-4c0.8,2,0,4.1-1.2,5.7c-0.6,0.8-1.2,1.3-1.8,1.9
			c-0.2,0.1-2.3,1.7-2.3,1.6C473.9,43.4,473.9,42.9,474,42.4z"/>
	</g>
	<g id="SPLINE_19_">
		<path class="st0" d="M413.9,13.4c0.4-0.5,0.8-1.1,1.5-1c3.9,1.2,0.6,8.5,0,10.2c-1.3,3.5-4.1,7.6-6.3,10.6
			C409.5,27.1,410.9,19,413.9,13.4z"/>
	</g>
	<g id="SPLINE_18_">
		<path class="st0" d="M270.4,29.7c1.3-5.6,1.9-7.7,2.7-9.8c1.1-2.7,2.1-6.7,4.9-7.8c0.8-0.4,1.4,0.1,1.8,0.6
			c1.5,2.4,0.4,6.6-0.7,8.9c-2.1,4.4-5.6,8.1-9.4,11.1L270.4,29.7z"/>
	</g>
	<g id="SPLINE_17_">
		<path class="st0" d="M244.5,69.8c-1.6,1.1-2.9,0.9-4.1-0.8c-2.9-4-1.4-8.8,0.7-12.6c2.6-5.1,6.8-9,11.3-12.3
			C251.5,52.5,252.2,64.9,244.5,69.8z"/>
	</g>
	<g id="SPLINE_16_">
		<path class="st0" d="M293.3,55.2c-2.6,0-1.2-8.9-0.9-11.2c0.3-1.7,1-8.7,3.5-8.4C302.5,39.2,294.7,55.2,293.3,55.2z"/>
	</g>
	<g id="SPLINE_15_">
		<path class="st0" d="M368.2,54.2c-2.8-0.9,0.7-8.6,3.7-8.1C371.9,47.9,370.6,54.2,368.2,54.2z"/>
	</g>
	<g id="SPLINE_14_">
		<path class="st0" d="M389.7,63.5c-0.9,1.1-2.2,0.9-2.5-0.6c-0.8-3.3,0.8-6.7,2.7-9.2C391.1,56.7,392,61.1,389.7,63.5z"/>
	</g>
	<g id="SPLINE_13_">
		<path class="st0" d="M450.6,32c-1.3-2.3-1.2-4.1,0-6.4C451.5,27.9,451.3,29.7,450.6,32z"/>
	</g>
	<g id="HATCH_4_">
		<path d="M490.9,41.7c-0.9-0.7-1.5,0.3-1.5,0.3c-1.9,3.1-3.5,5.5-4.1,6.4c-0.7,1.2-1.4,2.4-2.2,3.7c-1.2,1.6-2.1,3-4.1,3.8
			c-1,0.3-1.9,0.5-2.9,0.2c-0.8-0.3-1.4-0.9-1.8-1.4c-1.5-2.1-1.6-5.4-0.9-7.7c0-0.1,0.1-0.2,0.2-0.4c0.2-0.2,0.4-0.2,0.5-0.3
			c1.8-1,3.6-2.1,5-3.6c1.3-1.4,2.4-3.1,2.9-4.9c1.2-3.7-1-6.3-4.7-5.5c-1.6,0.3-3.3,1.1-4.5,2.1c-2.7,2-4.1,5.2-4.7,8.4
			c0,0,0,0.1,0,0.1c-1.3,2.1-2.8,4.4-3.4,5.6c-1.4,2.1-2.6,4.3-4.2,6.2c-1.8,1.8-2.8-0.5-2.8-1.9c0.1-5.4,2.1-11.3,3.5-16.5
			c0.8-3,0.4-3.6-2.8-3.5c-3.1,0-4.7,0.1-5,0c0.4-2.1,1.1-6.3-0.6-7.9c-0.7-0.8-1.9-0.8-2.9-0.6c-4.4,1-7,7.7-2.5,9.7
			c1,0.4,2.3,0.7,3.4,1c0.1,0-3.4,5.3-4.5,7.1c0,0-0.1,0.2-0.2,0.4c-2.9,4.6-4.4,7-5.8,9.2c-0.7,1-1.3,2.2-2.3,2.9
			c-0.9,0.6-1.9,0.8-2.8,0.2c-0.6-0.4-1-1.1-1.2-1.7c-0.7-3.3,1.4-12.3,2-15.5c0.4-1.5,0.3-3.5-1.5-3.8c-2.4-0.4-3.9,0.2-4.1,2
			c-0.6,2.6-1.2,5.4-1.5,8.3c-0.3,0.5-0.6,1.1-0.9,1.6l-10.8,18c0-3.6,2.4-14.8,2.4-15c0,0,0.6-3,0.9-4.4c0.6-3.3,1.6-10.6-4-9.3
			c-3.4,0.7-6.1,6.1-7.6,8.4c0-1.2,0.1-6.9,0.7-7.6c4.8-5.3,8.5-12.3,9.8-19c0.7-3.9-1.1-6.6-4.5-6.7c-5.3-0.2-7.8,4.9-9.2,9.4
			c-2.1,7.2-2.5,15.4-3.2,22.8c-0.1,0.8-0.1,1.5-0.2,2.3c-2,2.4-3.9,3.6-7.3,4.7c-0.4,0.2-0.5,0-0.6-0.2c-2.3-4.6-4.9-10-3.7-14.9
			c0.2-0.9,1-3.2,1.9-1.7c0.8,1.3,0.8,2.9,0.7,4.4c-0.1,1.8,2.6,1.3,2.6,0c0-1.3-0.1-2.7-0.5-4.1c-0.6-2.3-2-3.4-4.4-3.1
			c-3.4,0.5-6.2,3-6.6,6.4c-0.4,2.4,0.1,4.7,1,6.8c-1.6,2.3-2.6,3-3.8,3.3c-1.4,0.3-2.6,0.1-3.9-0.7c-0.3-0.1-0.4-0.5-0.4-0.7
			c0.3-2.5,0.5-4.8-0.1-7.3c-1.3-5-7.4-6.8-10.4-2.2c-1.8,3-3.4,6.2-5,9.1c0.1-0.8,0.2-1.8,0.2-2.9c0.2-2.4,0.4-4.8,0.6-7.1
			c0.1-1.4-0.6-2.1-1.9-2.3c-2.7-0.5-3.7,0.4-4.1,2.9c-0.4,3-0.7,6-0.9,9c-3.8,6.5-9.6,20.7-11.2,18.9c-0.3-0.2-0.4-0.6-0.4-1
			c-0.1-1.4,0.2-3.1,0.4-4.6c0.7-6.7,2.2-13.1,3.2-19.8c0.2-1.4,0.4-2.9,0-4.2c-1-3.3-6.3-4.6-8-1.3c-2.2,4.3-3.7,9.4-5.7,14.7
			c-0.2-3.8,0.1-7.3-0.4-11.1c-0.2-1.6-1.1-2.9-2.9-3.2c-2.7-0.5-4.4,1.5-5.2,3.9c-1.5,4.2-2.9,8.7-4.3,12.9
			c0.2-4.6,0.4-9.3,0.6-13.9c0-0.4,0-0.8-0.2-1.2c-0.5-1.3-3.6-1.1-4.6-1c-1.3,0.1-1.1,1.4-1.2,2.4c-0.1,3-0.3,6-0.3,9
			c-1,1.6-1.9,3.1-2.4,3.9c-1.3,2.1-3.8,6.7-4.9,6.7c-2.2,0-1-7.7-0.8-9.3c0.5-3.3,1.3-6.5,1.7-9.7c0.2-1.4,0.2-2.5-1.5-3
			c-1.9-0.6-3.3,0-4,1.4l-2.7,5c-1-2.3-1.6-5.2-4.2-6.3c-6-1.6-8.8,5.1-9.7,11.3C282,51.8,281,54,278.2,59c-1.9,3.5-3.4,6.4-5.5,9.4
			c-1.2,1.7-2.6,0.2-3-1.1c-1.4-5.1-1.5-10.4-1.4-15.6c0.2-5.1,0.4-10.5,1-15.5c0.1-0.4,0.1-0.8,0.9-1.5c5.9-4.4,11.1-9.5,13-16.7
			c0.8-2.7-0.3-5.8-2.2-7c-1.9-1.3-5.5-1.1-7.4,0.9c-1.4,1.3-2.9,3-3.8,4.7c-2.7,5.6-4,11.7-4.8,17.8c-0.1,0.6-0.2,1.3-0.6,1.5
			c-2.1,1.2-4.2,2.2-6.5,3.2c-0.1,0-0.1,0-0.2,0c-0.1-0.1-0.1-0.2-0.1-0.3c0.5-8.5,1.4-17.1,1.9-25.6c0.2-1.4-0.4-2.3-1.7-2.5
			c-1.4-0.2-2.6-0.2-2.9,1.6c-0.2,0.7-0.6,1.4-1,1.9c-2.3,2.9-4.4,5.9-6.9,8.6c-2.5,2.7-4.1,5.9-3.2,9.7c0,0.1,0,0.3,0,0.3
			c0.2,0.2,0.4,0.2,0.7,0.2c0.4,0,0.8-0.2,1-0.6c0.3-0.5,0.1-1.4,0.1-2c0.2-1,0.3-1.9,0.8-2.8c0.2-0.3,0.3-0.7,0.5-1
			c2-3.2,4.8-5.8,7.3-8.7c0,0.9,0,1.3,0,1.7c-0.6,6.9-1.3,13.9-1.5,20.8c0,0.2,0,0.3,0,0.4c-0.1,0.2-0.2,0.2-0.2,0.3
			c-2.2,2.2-5,3.7-7.2,5.8c-2.3,2.2-4.4,4.6-6.1,7.3c-1.9,3.2-3.1,6.8-2.9,10.5c0.1,1,0.2,1.8,0.5,2.8c1.1,3.1,3.7,4.4,6.8,4.1
			c2.7-0.3,4.9-1.4,6.8-3.2c3.7-3.2,4.7-7.3,5.2-11.8c0.6-4.6,1-9.4,1.4-14.1c0.1-0.7,0.3-1.6,0.8-1.9c2.1-1.2,4.2-2.1,6.5-3.2
			c0,0.6,0,1,0,1.3c-0.2,6.7-0.5,13.3-0.5,20c0,3.4,0.6,6.6,2.3,9.6c1.2,1.9,3.8,3.2,6,2.5c2.4-0.7,4-3.9,5-6c2.9-5.6,5.9-10.7,9-16
			c0,0.8,0,1.5,0.1,2.1c0.1,1.3,0.6,2.6,1.3,3.8c2,3.2,7,3,8.8-0.2c1.5-2.8,2.8-5.9,4.3-8.8c0,2.1-0.1,4.2,0,6.5
			c0.2,3.3,3.5,6.4,6.8,5c3.3-1.3,4.9-5.2,6.7-8c0.3-0.4,0.6-0.9,1-1.4c0,2.5,0.1,4.9,0.3,7.4c0.2,1.3,0.7,2.1,1.9,2.4
			c1.8,0.4,3.3-0.1,3.8-1.7c2.1-7.1,4.1-13.5,6.5-19.9c0,12.3-0.6,16.7,0.4,21.1c0.1,0.6,0.3,1.3,0.8,1.6c0.8,0.5,2.2,0.5,3-0.1
			c1.1-0.8,1.4-2.4,1.8-3.6c1.4-4.6,2.7-9.3,4.2-13.9c4.3-14.4,2.2,0.5,1.3,5.3c-0.7,3.6-1.3,7.1-1.7,10.8c-0.2,1.5-0.3,3.2,0,4.7
			c0.5,3.2,3.8,6,7.1,4.1c2-1.1,3.3-3.9,4.3-5.9c2.1-3.8,4.2-8,6.3-12c-0.3,4-0.5,8.1-0.7,12.1c-0.4,5.6-0.9,11.3-1.2,16.9
			c-0.1,1.7,1.3,3.2,3,3.1c3.4-0.1,3-4.1,3.2-6.6c0.5-8.4,1.3-19.3,3.7-26.3c1.5-4.2,3.6-9.7,6.6-12.6c0.4-0.4,0.8-0.2,1,0.1
			c1.1,1.5,1.5,3.3,1.6,5.1c0.1,5.7,0.4,2.7-2.2,4.2c-2.1,1.3-3.6,3.2-4.3,5.5c-0.8,2.3-1.1,5.6,1.5,6.8c0.7,0.3,1.5,0.4,2.3,0.2
			c4.5-0.8,6.7-5.7,7.2-9.7c0.5,0.2,1,0.4,1.5,0.6c1.2,0.4,2.3,0.6,3.6,0.2c1.9-0.4,3.2-1.7,4.2-3.2c1.1,2.3,2.4,4.5,3.2,6.6
			c-2.8,2.8-4.8,6.9-4.2,10.9c0.8,5.9,8.1,3.9,10.3,0.1c2.1-3.6,1-6.9-0.3-10.7c-0.1-0.1-0.2-0.3-0.1-0.4c0.1-0.1,0.2-0.2,0.3-0.2
			c2.6-1.2,4.6-2,6.8-4c0,1.1,0,2.3,0,3.5c0,1.7-1,7,2.1,7c1.3,0,2.2-0.2,2.5-1.6c1.8-11,8-17.8,9.6-19c-1.2,5.1-2.7,11.2-3.5,15.9
			c-0.7,4-2,12.6,2.9,13.2c1.1,0,2.1-0.6,2.9-1.3c0.8-0.8,1.3-1.7,1.7-2.7c4.1-7.2,6.7-11.5,8.3-14.2c0,1.9,0.2,3.8,0.7,5.5
			c1,3.4,4,5,7.3,4.1c0.9-0.2,1.6-0.7,2.2-1.4c2-1.9,3.3-4.4,4.8-6.8c0.7-1.2,1.6-2.6,4-6.2c0,0,0.1-0.2,0.2-0.4
			c1.4-2.1,4.4-6.8,5-8.1l3.1,0.1c-1.2,4.1-2.3,7.9-2.8,12.1c-0.2,1.4-0.4,2.7-0.4,4.1c0,1.7,0.4,4,1.8,5.1
			c5.5,4.7,9.5-3.4,11.6-6.8c0.4-0.6,1-1.5,1.5-2.4c-0.1,2.3,0.2,4.6,1.3,6.9c1.4,3.6,5.7,4.7,9.2,4.1c4.6-1,6.6-4.9,8.9-8.5
			c0.8-1.2,2.1-3.3,4.1-6.3C490.8,43.3,491.5,42.2,490.9,41.7z M474,42.4c0.3-1.3,0.8-2.5,1.3-3.8c0.4-0.8,3.2-6.3,4-4
			c0.8,2,0,4.1-1.2,5.7c-0.6,0.8-1.2,1.3-1.8,1.9c-0.2,0.1-2.3,1.7-2.3,1.6C473.9,43.4,473.9,42.9,474,42.4z M413.9,13.4
			c0.4-0.5,0.8-1.1,1.5-1c3.9,1.2,0.6,8.5,0,10.2c-1.3,3.5-4.1,7.6-6.3,10.6C409.5,27.1,410.9,19,413.9,13.4z M270.4,29.7
			c1.3-5.6,1.9-7.7,2.7-9.8c1.1-2.7,2.1-6.7,4.9-7.8c0.8-0.4,1.4,0.1,1.8,0.6c1.5,2.4,0.4,6.6-0.7,8.9c-2.1,4.4-5.6,8.1-9.4,11.1
			L270.4,29.7z M244.5,69.8c-1.6,1.1-2.9,0.9-4.1-0.8c-2.9-4-1.4-8.8,0.7-12.6c2.6-5.1,6.8-9,11.3-12.3
			C251.5,52.5,252.2,64.9,244.5,69.8z M293.3,55.2c-2.6,0-1.2-8.9-0.9-11.2c0.3-1.7,1-8.7,3.5-8.4C302.5,39.2,294.7,55.2,293.3,55.2
			z M368.2,54.2c-2.8-0.9,0.7-8.6,3.7-8.1C371.9,47.9,370.6,54.2,368.2,54.2z M389.7,63.5c-0.9,1.1-2.2,0.9-2.5-0.6
			c-0.8-3.3,0.8-6.7,2.7-9.2C391.1,56.7,392,61.1,389.7,63.5z M450.6,32c-1.3-2.3-1.2-4.1,0-6.4C451.5,27.9,451.3,29.7,450.6,32z"/>
	</g>
</g>
</svg>
