<?xml version="1.0" encoding="utf-8"?>
<!-- Generator: Adobe Illustrator 22.0.1, SVG Export Plug-In . SVG Version: 6.00 Build 0)  -->
<svg version="1.1" id="Layer_1" xmlns="http://www.w3.org/2000/svg" xmlns:xlink="http://www.w3.org/1999/xlink" x="0px" y="0px"
	 viewBox="0 0 500 500" style="enable-background:new 0 0 500 500;" xml:space="preserve">
<style type="text/css">
	.st0{fill:none;stroke:#000000;stroke-width:0;stroke-linecap:round;stroke-linejoin:round;stroke-miterlimit:10;}
</style>
<g id="POLYLINE_1_">
	<polyline class="st0" points="55.9,38.4 27.7,123 41.8,207.7 98.2,264.2 13.5,377.1 41.8,447.7 55.9,433.5 140.6,490 197,391.2 
		211.1,320.6 211.1,250.1 197,193.6 168.8,165.4 182.9,137.2 211.1,123 211.1,80.7 55.9,38.4 	"/>
</g>
<g id="HATCH_5_">
	<polygon points="55.9,38.4 27.7,123 41.8,207.7 98.2,264.2 13.5,377.1 41.8,447.7 55.9,433.5 140.6,490 197,391.2 211.1,320.6 
		211.1,250.1 197,193.6 168.8,165.4 182.9,137.2 211.1,123 211.1,80.7 55.9,38.4 	"/>
</g>
<g id="INSERT_1_">
	<g id="SPLINE_19_">
		<path class="st0" d="M311.5,43.6c-1.9,2.8-4.7,5.5-8.2,4.2c0,0-0.2-0.1-0.2-0.3v-0.2c0.7-2.4,3.5-10.8,0-12.2
			c-1.2-0.4-2.6,0.1-3.6,0.8c-0.4,0.3-0.7,0.6-1,0.9c-1.3,1.8-2.1,4.1-1.7,6.4c0.3,2.4,1.7,4.2,3.6,5.6c-2.1,6.1-4.2,11.5-6.2,17.4
			c-2.8,7.7-3.9,5.5-3-2.9c0.3-2.9,0.7-5.8,1-8.6c0.2-1.8,0.4-3.7,0.6-5.5c0.4-3.5,0.7-7,0.9-10.6c0.1-1.5-0.9-2.5-2.4-2.8
			c-1.6-0.2-3.1-0.1-4,1.5c-1.6,2.8-2.6,6.1-3.9,9.3c-1.4,3.6-2.2,5.8-2.8,7.7c-1,2.4-1.3,2.6-1.3-0.1c0-5.1,0.8-10.6,1.7-15.6
			c0.2-1,0.4-2.4-0.5-3.1c-1.2-0.9-2.8-0.9-4.1-0.1c-1.4,0.9-1.5,3-1.9,4.5c-0.3,2-0.6,4-0.9,6c-1.3,2-2.3,3.6-2.7,4.2
			c-0.7,1.2-1.4,2.5-2.3,3.8c-1.2,1.7-2.2,3.1-4.3,3.9c-1,0.3-2,0.5-3,0.2c-0.8-0.3-1.4-0.9-1.9-1.5c-1.6-2.2-1.7-5.6-0.9-8
			c0-0.1,0.1-0.2,0.2-0.4c0.2-0.2,0.4-0.2,0.5-0.3c1.9-1,3.7-2.2,5.2-3.7c1.4-1.4,2.5-3.2,3-5.1c1.2-3.8-1-6.5-4.9-5.7
			c-1.7,0.3-3.4,1.1-4.7,2.2c-2.8,2.1-4.3,5.4-4.9,8.7c0,0,0,0.1,0,0.1c-6,9.7-13.6,27.7-15.7,27.7c-5.3,0,13.5-60.3,0.5-60.3
			c-3.7,0-6.7,7.5-9.1,14.2l-5.4,16.7c0.5-10.1,0.9-19.3,1.4-28.5c0.1-1.6-1.2-1.9-2.5-1.9c-1.1,0-2.3,0.1-2.4,1.8
			c-2.3,39.4-3.4,43-3.4,47.5c0,3,1,2.6,2.1,2.8c2.7,0.4,2.8-1.4,3.1-3.4c0.6-2.7,1.2-5.4,1.8-8.1c2.3-9.6,5.1-18.7,8.5-27.5
			c1.4-3.7,4-11.3,5.3-11.3c5.6,0-14.1,61.2-0.7,61.2c3.8,0,10.4-16.4,16-26.3c-0.1,2.4,0.3,4.7,1.3,7c1.5,3.7,5.9,4.9,9.5,4.2
			c4.8-1,6.8-5.1,9.2-8.8c0.2-0.3,0.5-0.8,0.8-1.2c0,0.1,0,0.2,0,0.2c-0.2,3.1-0.5,6.3,2,8.5c2.3,2,5.7,0,6.7-2.5
			c2-5.3,3.2-9.7,5.4-14.7c0.1-0.2,0.2-0.4,0.4-0.4c0,0-1.2,8.9-1.3,9.5c-0.8,5.7-1.5,11.3-1.2,17c0.1,1.9,0.6,4,1.9,5.5
			c1.4,1.7,4.1,2,5.6,0.3c1.5-1.9,2.2-3.6,2.9-5.6c2.2-6,4.3-12.1,6.6-18c0-0.1,0-0.2,0-0.2s0.1,0,0.2,0c3.3,1.3,7.5-0.3,10.5-4.8
			c0,0,0.8-1.1,0.1-1.6C312.2,42.6,311.5,43.6,311.5,43.6z"/>
	</g>
	<g id="SPLINE_18_">
		<path class="st0" d="M259.2,43.9c0.3-1.3,0.8-2.6,1.3-3.9c0.4-0.8,3.3-6.5,4.1-4.1c0.8,2.1,0,4.2-1.2,5.9c-0.6,0.8-1.2,1.3-1.9,2
			c-0.2,0.1-2.4,1.8-2.4,1.7C259.1,44.9,259.1,44.4,259.2,43.9z"/>
	</g>
	<g id="SPLINE_17_">
		<path class="st0" d="M302,44.1c-0.2,0.6-0.4,1.1-0.6,1.6l-0.1,0.1l-0.2-0.1c-0.5-0.8-0.7-1.4-0.8-2.3c0-2.1,0.4-5,2.1-6.6
			c0.3,0.7,0.3,1.5,0.3,2.3C302.7,40.8,302.5,42.5,302,44.1z"/>
	</g>
	<g id="HATCH_4_">
		<path d="M311.5,43.6c-1.9,2.8-4.7,5.5-8.2,4.2c0,0-0.2-0.1-0.2-0.3v-0.2c0.7-2.4,3.5-10.8,0-12.2c-1.2-0.4-2.6,0.1-3.6,0.8
			c-0.4,0.3-0.7,0.6-1,0.9c-1.3,1.8-2.1,4.1-1.7,6.4c0.3,2.4,1.7,4.2,3.6,5.6c-2.1,6.1-4.2,11.5-6.2,17.4c-2.8,7.7-3.9,5.5-3-2.9
			c0.3-2.9,0.7-5.8,1-8.6c0.2-1.8,0.4-3.7,0.6-5.5c0.4-3.5,0.7-7,0.9-10.6c0.1-1.5-0.9-2.5-2.4-2.8c-1.6-0.2-3.1-0.1-4,1.5
			c-1.6,2.8-2.6,6.1-3.9,9.3c-1.4,3.6-2.2,5.8-2.8,7.7c-1,2.4-1.3,2.6-1.3-0.1c0-5.1,0.8-10.6,1.7-15.6c0.2-1,0.4-2.4-0.5-3.1
			c-1.2-0.9-2.8-0.9-4.1-0.1c-1.4,0.9-1.5,3-1.9,4.5c-0.3,2-0.6,4-0.9,6c-1.3,2-2.3,3.6-2.7,4.2c-0.7,1.2-1.4,2.5-2.3,3.8
			c-1.2,1.7-2.2,3.1-4.3,3.9c-1,0.3-2,0.5-3,0.2c-0.8-0.3-1.4-0.9-1.9-1.5c-1.6-2.2-1.7-5.6-0.9-8c0-0.1,0.1-0.2,0.2-0.4
			c0.2-0.2,0.4-0.2,0.5-0.3c1.9-1,3.7-2.2,5.2-3.7c1.4-1.4,2.5-3.2,3-5.1c1.2-3.8-1-6.5-4.9-5.7c-1.7,0.3-3.4,1.1-4.7,2.2
			c-2.8,2.1-4.3,5.4-4.9,8.7c0,0,0,0.1,0,0.1c-6,9.7-13.6,27.7-15.7,27.7c-5.3,0,13.5-60.3,0.5-60.3c-3.7,0-6.7,7.5-9.1,14.2
			l-5.4,16.7c0.5-10.1,0.9-19.3,1.4-28.5c0.1-1.6-1.2-1.9-2.5-1.9c-1.1,0-2.3,0.1-2.4,1.8c-2.3,39.4-3.4,43-3.4,47.5
			c0,3,1,2.6,2.1,2.8c2.7,0.4,2.8-1.4,3.1-3.4c0.6-2.7,1.2-5.4,1.8-8.1c2.3-9.6,5.1-18.7,8.5-27.5c1.4-3.7,4-11.3,5.3-11.3
			c5.6,0-14.1,61.2-0.7,61.2c3.8,0,10.4-16.4,16-26.3c-0.1,2.4,0.3,4.7,1.3,7c1.5,3.7,5.9,4.9,9.5,4.2c4.8-1,6.8-5.1,9.2-8.8
			c0.2-0.3,0.5-0.8,0.8-1.2c0,0.1,0,0.2,0,0.2c-0.2,3.1-0.5,6.3,2,8.5c2.3,2,5.7,0,6.7-2.5c2-5.3,3.2-9.7,5.4-14.7
			c0.1-0.2,0.2-0.4,0.4-0.4c0,0-1.2,8.9-1.3,9.5c-0.8,5.7-1.5,11.3-1.2,17c0.1,1.9,0.6,4,1.9,5.5c1.4,1.7,4.1,2,5.6,0.3
			c1.5-1.9,2.2-3.6,2.9-5.6c2.2-6,4.3-12.1,6.6-18c0-0.1,0-0.2,0-0.2s0.1,0,0.2,0c3.3,1.3,7.5-0.3,10.5-4.8c0,0,0.8-1.1,0.1-1.6
			C312.2,42.6,311.5,43.6,311.5,43.6z M259.2,43.9c0.3-1.3,0.8-2.6,1.3-3.9c0.4-0.8,3.3-6.5,4.1-4.1c0.8,2.1,0,4.2-1.2,5.9
			c-0.6,0.8-1.2,1.3-1.9,2c-0.2,0.1-2.4,1.8-2.4,1.7C259.1,44.9,259.1,44.4,259.2,43.9z M302,44.1c-0.2,0.6-0.4,1.1-0.6,1.6
			l-0.1,0.1l-0.2-0.1c-0.5-0.8-0.7-1.4-0.8-2.3c0-2.1,0.4-5,2.1-6.6c0.3,0.7,0.3,1.5,0.3,2.3C302.7,40.8,302.5,42.5,302,44.1z"/>
	</g>
	<g id="SPLINE_16_">
		<path class="st0" d="M486.2,43.2c-0.9-0.7-1.6,0.3-1.6,0.3l-1.5,2.4c-3.6,5.6-7.3,10.9-8.4,11.9c0.3-2.6,0.5-16.6,0.6-21.3
			c0-2.9-4.5-4-5.9-1.6c-3.6,6.1-6,12.3-8.6,18.6c-0.2-5.5,0.4-11.2,0.8-16.8c0.3-3.5-5.9-3.8-6.2-0.7c-0.3,3.3-0.6,6.7-0.8,10
			c-1.2,2-2.2,3.5-2.6,4.1c-0.7,1.2-1.4,2.5-2.3,3.8c-1.2,1.7-2.2,3.1-4.3,3.9c-1,0.3-2,0.5-3,0.2c-0.8-0.3-1.4-0.9-1.9-1.5
			c-1.6-2.2-1.7-5.6-0.9-8c0-0.1,0.1-0.2,0.2-0.4c0.2-0.2,0.4-0.2,0.5-0.3c1.9-1,3.7-2.2,5.2-3.7c1.4-1.4,2.5-3.2,3-5.1
			c1.2-3.8-1-6.5-4.9-5.7c-1.7,0.3-3.4,1.1-4.7,2.2c-2.8,2.1-4.3,5.4-4.9,8.7c0,0,0,0,0,0.1c-2.5,3.7-4.6,5.2-8.9,6.6
			c-0.4,0.2-0.5,0-0.6-0.2c-2.4-4.8-5.1-10.4-3.8-15.4c0.2-0.9,1-3.3,2-1.8c0.8,1.4,0.8,3,0.7,4.6c-0.1,1.9,2.7,1.3,2.7,0
			c0-1.4-0.1-2.8-0.5-4.2c-0.6-2.4-2.1-3.5-4.6-3.2c-3.5,0.5-6.4,3.1-6.8,6.6c-0.4,2.5,0.1,4.9,1,7.2c-1.4,2.2-2.8,4.5-3.5,5.7
			c-1.4,2.2-2.7,4.5-4.4,6.4c-1.9,1.9-2.9-0.5-2.9-2c0.1-5.6,2.2-11.7,3.6-17.1c0.8-3.1,0.4-3.7-2.9-3.6c-3.2,0-4.9,0.1-5.2,0
			c0.4-2.2,1.1-6.5-0.6-8.2c-0.7-0.8-2-0.8-3-0.6c-4.6,1-7.3,8-2.6,10.1c1,0.4,2.4,0.7,3.5,1c0.1,0-3.5,5.5-4.7,7.4c0,0,0,0,0,0.1
			c-2,3.2-3.6,5.7-4.2,6.6c-0.7,1.2-1.4,2.5-2.3,3.8c-1.2,1.7-2.2,3.1-4.3,3.9c-1,0.3-2,0.5-3,0.2c-0.8-0.3-1.4-0.9-1.9-1.5
			c-1.6-2.2-1.7-5.6-0.9-8c0-0.1,0.1-0.2,0.2-0.4c0.2-0.2,0.4-0.2,0.5-0.3c1.9-1,3.7-2.2,5.2-3.7c1.4-1.4,2.5-3.2,3-5.1
			c1.2-3.8-1-6.5-4.9-5.7c-1.7,0.3-3.4,1.1-4.7,2.2c-2.8,2.1-4.3,5.3-4.9,8.6c-4.1,5.1-7.3,5.4-9.5,6l2.5-37.7
			c-0.3-2.6-3.7-3-4.6-1.7c-2.1,3.1-5.1,5.1-8,7.3c-6.3,4.7-10.5,9.2-8.9,17c0.4,1.8,1.6,2.1,3,0.9c-1.5-4.7-0.8-9.1,2.7-12.6
			c3.3-3.1,7.1-5.8,10.9-8.9l-2.6,37.2c-3.5,2.5-6.6,4.4-8.3,5.7c-5.8,4.2-11.5,8.5-16,14.1c-4.2,5.3-7,11.1-6.6,17.9
			c0.5,6.6,4.4,9.8,10.5,9.4c3.5-0.1,6.7-1.3,9.5-3.5c12.5-9.3,14.8-28.9,15.8-42.8c3.3-1.1,6.5-2.2,9.2-4.8c-0.2,2.8,0,5.5,1.2,8.3
			c1.5,3.7,5.9,4.9,9.5,4.2c4.8-1,6.8-5.1,9.2-8.8c0.8-1.2,2.2-3.4,4.2-6.5c0,0,0,0,0,0c1.3-2,4.7-7.3,5.4-8.7l3.2,0.1
			c-1.2,4.2-2.4,8.2-2.9,12.5c-0.2,1.4-0.4,2.8-0.4,4.3c0,1.8,0.4,4.1,1.9,5.3c5.7,4.9,9.8-3.5,12-7.1c0.8-1.1,1.9-3,2.9-4.6
			c1.1,2.3,2.4,4.6,3.3,6.8c-2.9,2.9-5,7.2-4.4,11.3c0.8,6.1,8.4,4,10.7,0.1c2.2-3.7,1-7.2-0.3-11.1c-0.1-0.1-0.2-0.3-0.1-0.4
			c0.1-0.1,0.2-0.2,0.3-0.2c3.1-1.4,5.4-2.3,7.9-5.1c-0.2,2.7,0.1,5.3,1.3,7.9c1.5,3.7,5.9,4.9,9.5,4.2c4.8-1,6.8-5.1,9.2-8.8
			c0.3-0.4,0.6-0.9,1-1.5c-0.1,3.7,1.6,8.3,5.7,8c2.2-0.1,2.6-1.9,3.3-3.4c1.8-4.6,3.6-9.1,5.4-13.7c0.3-0.6,0.7-1.3,1-1.9
			c0,2.8-0.2,17.7-0.7,22.6c-4.7,4-9.7,8.6-13.5,13.8c-2.9,3.9-5,8.3-5.4,13.2c-0.6,7.4,4.7,11.2,11.1,8.9c5.3-1.8,8.2-5.9,9.8-11.1
			c1.6-5.6,2.2-9.7,2.7-13.8c0.9-8.9,0.8-11.4,1-11.6c4.6-5.1,7.8-10.7,11.2-16C486.1,44.8,486.8,43.7,486.2,43.2z"/>
	</g>
	<g id="SPLINE_15_">
		<path class="st0" d="M440.3,43.9c0.3-1.3,0.8-2.6,1.3-3.9c0.4-0.8,3.3-6.5,4.1-4.1c0.8,2.1,0,4.2-1.2,5.9c-0.6,0.8-1.2,1.3-1.9,2
			c-0.2,0.1-2.4,1.8-2.4,1.7C440.2,44.9,440.2,44.4,440.3,43.9z"/>
	</g>
	<g id="SPLINE_14_">
		<path class="st0" d="M376.5,43.9c0.3-1.3,0.8-2.6,1.3-3.9c0.4-0.8,3.3-6.5,4.1-4.1c0.8,2.1,0,4.2-1.2,5.9c-0.6,0.8-1.2,1.3-1.9,2
			c-0.2,0.1-2.4,1.8-2.4,1.7C376.4,44.9,376.4,44.4,376.5,43.9z"/>
	</g>
	<g id="SPLINE_13_">
		<path class="st0" d="M335.8,96.9c-2.5,0.8-4.5-0.1-6-2.3c-2.5-3.7-2.1-7.6-1.1-11.7c1.1-4.7,3.6-8.6,6.7-12.1
			c5.8-6.6,13.1-11.3,20.2-16.5C354.3,69.3,351.3,91.5,335.8,96.9z"/>
	</g>
	<g id="SPLINE_12_">
		<path class="st0" d="M397.3,33.1c-1.3-2.4-1.2-4.3,0-6.6C398.3,28.8,398.1,30.7,397.3,33.1z"/>
	</g>
	<g id="SPLINE_11_">
		<path class="st0" d="M420,65.9c-0.9,1.1-2.3,0.9-2.6-0.6c-0.8-3.4,0.8-6.9,2.8-9.5C421.5,58.8,422.4,63.4,420,65.9z"/>
	</g>
	<g id="SPLINE_10_">
		<path class="st0" d="M467.8,75.3c-0.4,3.5-0.9,6.9-1.6,10.3c-1,3.7-2.4,7.8-5.9,9.6c-5.7,2.8-7.4-4.5-6.8-8.6
			c0.8-4.6,3-8.7,5.9-12.3c3-3.9,6-6.8,9.8-9.9L467.8,75.3z"/>
	</g>
	<g id="HATCH_3_">
		<path d="M486.2,43.2c-0.9-0.7-1.6,0.3-1.6,0.3l-1.5,2.4c-3.6,5.6-7.3,10.9-8.4,11.9c0.3-2.6,0.5-16.6,0.6-21.3
			c0-2.9-4.5-4-5.9-1.6c-3.6,6.1-6,12.3-8.6,18.6c-0.2-5.5,0.4-11.2,0.8-16.8c0.3-3.5-5.9-3.8-6.2-0.7c-0.3,3.3-0.6,6.7-0.8,10
			c-1.2,2-2.2,3.5-2.6,4.1c-0.7,1.2-1.4,2.5-2.3,3.8c-1.2,1.7-2.2,3.1-4.3,3.9c-1,0.3-2,0.5-3,0.2c-0.8-0.3-1.4-0.9-1.9-1.5
			c-1.6-2.2-1.7-5.6-0.9-8c0-0.1,0.1-0.2,0.2-0.4c0.2-0.2,0.4-0.2,0.5-0.3c1.9-1,3.7-2.2,5.2-3.7c1.4-1.4,2.5-3.2,3-5.1
			c1.2-3.8-1-6.5-4.9-5.7c-1.7,0.3-3.4,1.1-4.7,2.2c-2.8,2.1-4.3,5.4-4.9,8.7c0,0,0,0,0,0.1c-2.5,3.7-4.6,5.2-8.9,6.6
			c-0.4,0.2-0.5,0-0.6-0.2c-2.4-4.8-5.1-10.4-3.8-15.4c0.2-0.9,1-3.3,2-1.8c0.8,1.4,0.8,3,0.7,4.6c-0.1,1.9,2.7,1.3,2.7,0
			c0-1.4-0.1-2.8-0.5-4.2c-0.6-2.4-2.1-3.5-4.6-3.2c-3.5,0.5-6.4,3.1-6.8,6.6c-0.4,2.5,0.1,4.9,1,7.2c-1.4,2.2-2.8,4.5-3.5,5.7
			c-1.4,2.2-2.7,4.5-4.4,6.4c-1.9,1.9-2.9-0.5-2.9-2c0.1-5.6,2.2-11.7,3.6-17.1c0.8-3.1,0.4-3.7-2.9-3.6c-3.2,0-4.9,0.1-5.2,0
			c0.4-2.2,1.1-6.5-0.6-8.2c-0.7-0.8-2-0.8-3-0.6c-4.6,1-7.3,8-2.6,10.1c1,0.4,2.4,0.7,3.5,1c0.1,0-3.5,5.5-4.7,7.4c0,0,0,0,0,0.1
			c-2,3.2-3.6,5.7-4.2,6.6c-0.7,1.2-1.4,2.5-2.3,3.8c-1.2,1.7-2.2,3.1-4.3,3.9c-1,0.3-2,0.5-3,0.2c-0.8-0.3-1.4-0.9-1.9-1.5
			c-1.6-2.2-1.7-5.6-0.9-8c0-0.1,0.1-0.2,0.2-0.4c0.2-0.2,0.4-0.2,0.5-0.3c1.9-1,3.7-2.2,5.2-3.7c1.4-1.4,2.5-3.2,3-5.1
			c1.2-3.8-1-6.5-4.9-5.7c-1.7,0.3-3.4,1.1-4.7,2.2c-2.8,2.1-4.3,5.3-4.9,8.6c-4.1,5.1-7.3,5.4-9.5,6l2.5-37.7
			c-0.3-2.6-3.7-3-4.6-1.7c-2.1,3.1-5.1,5.1-8,7.3c-6.3,4.7-10.5,9.2-8.9,17c0.4,1.8,1.6,2.1,3,0.9c-1.5-4.7-0.8-9.1,2.7-12.6
			c3.3-3.1,7.1-5.8,10.9-8.9l-2.6,37.2c-3.5,2.5-6.6,4.4-8.3,5.7c-5.8,4.2-11.5,8.5-16,14.1c-4.2,5.3-7,11.1-6.6,17.9
			c0.5,6.6,4.4,9.8,10.5,9.4c3.5-0.1,6.7-1.3,9.5-3.5c12.5-9.3,14.8-28.9,15.8-42.8c3.3-1.1,6.5-2.2,9.2-4.8c-0.2,2.8,0,5.5,1.2,8.3
			c1.5,3.7,5.9,4.9,9.5,4.2c4.8-1,6.8-5.1,9.2-8.8c0.8-1.2,2.2-3.4,4.2-6.5c0,0,0,0,0,0c1.3-2,4.7-7.3,5.4-8.7l3.2,0.1
			c-1.2,4.2-2.4,8.2-2.9,12.5c-0.2,1.4-0.4,2.8-0.4,4.3c0,1.8,0.4,4.1,1.9,5.3c5.7,4.9,9.8-3.5,12-7.1c0.8-1.1,1.9-3,2.9-4.6
			c1.1,2.3,2.4,4.6,3.3,6.8c-2.9,2.9-5,7.2-4.4,11.3c0.8,6.1,8.4,4,10.7,0.1c2.2-3.7,1-7.2-0.3-11.1c-0.1-0.1-0.2-0.3-0.1-0.4
			c0.1-0.1,0.2-0.2,0.3-0.2c3.1-1.4,5.4-2.3,7.9-5.1c-0.2,2.7,0.1,5.3,1.3,7.9c1.5,3.7,5.9,4.9,9.5,4.2c4.8-1,6.8-5.1,9.2-8.8
			c0.3-0.4,0.6-0.9,1-1.5c-0.1,3.7,1.6,8.3,5.7,8c2.2-0.1,2.6-1.9,3.3-3.4c1.8-4.6,3.6-9.1,5.4-13.7c0.3-0.6,0.7-1.3,1-1.9
			c0,2.8-0.2,17.7-0.7,22.6c-4.7,4-9.7,8.6-13.5,13.8c-2.9,3.9-5,8.3-5.4,13.2c-0.6,7.4,4.7,11.2,11.1,8.9c5.3-1.8,8.2-5.9,9.8-11.1
			c1.6-5.6,2.2-9.7,2.7-13.8c0.9-8.9,0.8-11.4,1-11.6c4.6-5.1,7.8-10.7,11.2-16C486.1,44.8,486.8,43.7,486.2,43.2z M440.3,43.9
			c0.3-1.3,0.8-2.6,1.3-3.9c0.4-0.8,3.3-6.5,4.1-4.1c0.8,2.1,0,4.2-1.2,5.9c-0.6,0.8-1.2,1.3-1.9,2c-0.2,0.1-2.4,1.8-2.4,1.7
			C440.2,44.9,440.2,44.4,440.3,43.9z M376.5,43.9c0.3-1.3,0.8-2.6,1.3-3.9c0.4-0.8,3.3-6.5,4.1-4.1c0.8,2.1,0,4.2-1.2,5.9
			c-0.6,0.8-1.2,1.3-1.9,2c-0.2,0.1-2.4,1.8-2.4,1.7C376.4,44.9,376.4,44.4,376.5,43.9z M335.8,96.9c-2.5,0.8-4.5-0.1-6-2.3
			c-2.5-3.7-2.1-7.6-1.1-11.7c1.1-4.7,3.6-8.6,6.7-12.1c5.8-6.6,13.1-11.3,20.2-16.5C354.3,69.3,351.3,91.5,335.8,96.9z M397.3,33.1
			c-1.3-2.4-1.2-4.3,0-6.6C398.3,28.8,398.1,30.7,397.3,33.1z M420,65.9c-0.9,1.1-2.3,0.9-2.6-0.6c-0.8-3.4,0.8-6.9,2.8-9.5
			C421.5,58.8,422.4,63.4,420,65.9z M467.8,75.3c-0.4,3.5-0.9,6.9-1.6,10.3c-1,3.7-2.4,7.8-5.9,9.6c-5.7,2.8-7.4-4.5-6.8-8.6
			c0.8-4.6,3-8.7,5.9-12.3c3-3.9,6-6.8,9.8-9.9L467.8,75.3z"/>
	</g>
</g>
</svg>
