<?xml version="1.0" encoding="utf-8"?>
<!-- Generator: Adobe Illustrator 22.0.1, SVG Export Plug-In . SVG Version: 6.00 Build 0)  -->
<svg version="1.1" id="Layer_1" xmlns="http://www.w3.org/2000/svg" xmlns:xlink="http://www.w3.org/1999/xlink" x="0px" y="0px"
	 viewBox="0 0 500 500" style="enable-background:new 0 0 500 500;" xml:space="preserve">
<style type="text/css">
	.st0{fill:none;stroke:#000000;stroke-width:0;stroke-linecap:round;stroke-linejoin:round;stroke-miterlimit:10;}
</style>
<g id="POLYLINE_1_">
	<polyline class="st0" points="102.8,10 56.3,402.6 102.8,407.8 113.1,381.9 128.6,376.8 200.9,392.3 200.9,376.8 417.9,392.3 
		438.5,77.2 443.7,46.2 288.7,30.7 102.8,10 	"/>
</g>
<g id="HATCH_7_">
	<polygon points="102.8,10 56.3,402.6 102.8,407.8 113.1,381.9 128.6,376.8 200.9,392.3 200.9,376.8 417.9,392.3 438.5,77.2 
		443.7,46.2 288.7,30.7 102.8,10 	"/>
</g>
<g id="SPLINE_15_">
	<path class="st0" d="M225.2,445c-0.7-0.6-1.4,0.3-1.4,0.3c-1.8,2.6-4.4,5.1-7.6,3.9c0,0-0.2-0.1-0.2-0.3v-0.2
		c0.6-2.2,3.2-10,0-11.3c-1.1-0.4-2.4,0.1-3.3,0.7c-0.4,0.3-0.6,0.6-0.9,0.8c-1.2,1.7-1.9,3.8-1.6,5.9c0.3,2.2,1.6,3.9,3.3,5.2
		c-1.9,5.7-3.9,10.7-5.7,16.1c-2.6,7.1-3.6,5.1-2.8-2.7c0.3-2.7,0.6-5.4,0.9-8c0.2-1.7,0.4-3.4,0.6-5.1c0.4-3.2,0.6-6.5,0.8-9.8
		c0.1-1.4-0.8-2.3-2.2-2.6c-1.5-0.2-2.9-0.1-3.7,1.4c-1.5,2.6-2.4,5.7-3.6,8.6c-1.3,3.3-2,5.4-2.6,7.1c-0.9,2.2-1.2,2.4-1.2-0.1
		c0-4.7,0.7-9.8,1.6-14.5c0.2-0.9,0.4-2.2-0.5-2.9c-1.1-0.8-2.6-0.8-3.8-0.1c-1.3,0.8-1.4,2.8-1.8,4.2c-0.3,1.9-0.6,3.7-0.8,5.5
		c-1.2,1.9-2.1,3.3-2.5,3.9c-0.6,1.1-1.3,2.3-2.1,3.5c-1.1,1.6-2,2.9-4,3.6c-0.9,0.3-1.9,0.5-2.8,0.2c-0.7-0.3-1.3-0.8-1.8-1.4
		c-1.5-2-1.6-5.2-0.8-7.4c0-0.1,0.1-0.2,0.2-0.4c0.2-0.2,0.4-0.2,0.5-0.3c1.8-0.9,3.4-2,4.8-3.4c1.3-1.3,2.3-3,2.8-4.7
		c1.1-3.5-0.9-6-4.5-5.3c-1.6,0.3-3.2,1-4.4,2c-2.6,1.9-4,5-4.5,8.1c0,0,0,0.1,0,0.1c-5.6,9-12.6,25.6-14.5,25.6
		c-4.9,0,12.5-55.9,0.5-55.9c-3.4,0-6.2,7-8.4,13.2l-5,15.5c0.5-9.4,0.8-17.9,1.3-26.4c0.1-1.5-1.1-1.8-2.3-1.8
		c-1,0-2.1,0.1-2.2,1.7c-2.1,36.5-3.2,39.9-3.2,44c0,2.8,0.9,2.4,1.9,2.6c2.5,0.4,2.6-1.3,2.9-3.2c0.6-2.5,1.1-5,1.7-7.5
		c2.1-8.9,4.7-17.3,7.9-25.5c1.3-3.4,3.7-10.5,4.9-10.5c5.2,0-13.1,56.7-0.6,56.7c3.5,0,9.6-15.2,14.8-24.4
		c-0.1,2.2,0.2,4.3,1.2,6.5c1.4,3.4,5.5,4.5,8.8,3.9c4.4-0.9,6.3-4.7,8.5-8.2c0.2-0.3,0.5-0.7,0.8-1.2c0,0.1,0,0.2,0,0.2
		c-0.2,2.9-0.5,5.8,1.9,7.9c2.1,1.9,5.3,0,6.2-2.3c1.9-4.9,3-9,5-13.6c0.1-0.2,0.2-0.4,0.4-0.4c0,0-1.1,8.2-1.2,8.8
		c-0.7,5.3-1.4,10.5-1.1,15.8c0.1,1.8,0.6,3.7,1.8,5.1c1.3,1.6,3.8,1.9,5.2,0.3c1.4-1.8,2-3.3,2.7-5.2c2-5.6,4-11.2,6.1-16.7
		c0-0.1,0-0.2,0-0.2s0.1,0,0.2,0c3.1,1.2,7-0.3,9.7-4.4C225.1,446.5,225.9,445.5,225.2,445z"/>
</g>
<g id="SPLINE_14_">
	<path class="st0" d="M175.4,445.6c0.3-1.2,0.7-2.4,1.2-3.6c0.4-0.7,3.1-6,3.8-3.8c0.7,1.9,0,3.9-1.1,5.5c-0.6,0.7-1.1,1.2-1.8,1.9
		c-0.2,0.1-2.2,1.7-2.2,1.6C175.3,446.5,175.3,446,175.4,445.6z"/>
</g>
<g id="SPLINE_13_">
	<path class="st0" d="M215,445.8c-0.2,0.6-0.4,1-0.6,1.5l-0.1,0.1l-0.2-0.1c-0.5-0.7-0.6-1.3-0.7-2.1c0-1.9,0.4-4.6,1.9-6.1
		c0.3,0.6,0.3,1.4,0.3,2.1C215.7,442.7,215.5,444.3,215,445.8z"/>
</g>
<g id="HATCH_6_">
	<path d="M225.2,445c-0.7-0.6-1.4,0.3-1.4,0.3c-1.8,2.6-4.4,5.1-7.6,3.9c0,0-0.2-0.1-0.2-0.3v-0.2c0.6-2.2,3.2-10,0-11.3
		c-1.1-0.4-2.4,0.1-3.3,0.7c-0.4,0.3-0.6,0.6-0.9,0.8c-1.2,1.7-1.9,3.8-1.6,5.9c0.3,2.2,1.6,3.9,3.3,5.2c-1.9,5.7-3.9,10.7-5.7,16.1
		c-2.6,7.1-3.6,5.1-2.8-2.7c0.3-2.7,0.6-5.4,0.9-8c0.2-1.7,0.4-3.4,0.6-5.1c0.4-3.2,0.6-6.5,0.8-9.8c0.1-1.4-0.8-2.3-2.2-2.6
		c-1.5-0.2-2.9-0.1-3.7,1.4c-1.5,2.6-2.4,5.7-3.6,8.6c-1.3,3.3-2,5.4-2.6,7.1c-0.9,2.2-1.2,2.4-1.2-0.1c0-4.7,0.7-9.8,1.6-14.5
		c0.2-0.9,0.4-2.2-0.5-2.9c-1.1-0.8-2.6-0.8-3.8-0.1c-1.3,0.8-1.4,2.8-1.8,4.2c-0.3,1.9-0.6,3.7-0.8,5.5c-1.2,1.9-2.1,3.3-2.5,3.9
		c-0.6,1.1-1.3,2.3-2.1,3.5c-1.1,1.6-2,2.9-4,3.6c-0.9,0.3-1.9,0.5-2.8,0.2c-0.7-0.3-1.3-0.8-1.8-1.4c-1.5-2-1.6-5.2-0.8-7.4
		c0-0.1,0.1-0.2,0.2-0.4c0.2-0.2,0.4-0.2,0.5-0.3c1.8-0.9,3.4-2,4.8-3.4c1.3-1.3,2.3-3,2.8-4.7c1.1-3.5-0.9-6-4.5-5.3
		c-1.6,0.3-3.2,1-4.4,2c-2.6,1.9-4,5-4.5,8.1c0,0,0,0.1,0,0.1c-5.6,9-12.6,25.6-14.5,25.6c-4.9,0,12.5-55.9,0.5-55.9
		c-3.4,0-6.2,7-8.4,13.2l-5,15.5c0.5-9.4,0.8-17.9,1.3-26.4c0.1-1.5-1.1-1.8-2.3-1.8c-1,0-2.1,0.1-2.2,1.7
		c-2.1,36.5-3.2,39.9-3.2,44c0,2.8,0.9,2.4,1.9,2.6c2.5,0.4,2.6-1.3,2.9-3.2c0.6-2.5,1.1-5,1.7-7.5c2.1-8.9,4.7-17.3,7.9-25.5
		c1.3-3.4,3.7-10.5,4.9-10.5c5.2,0-13.1,56.7-0.6,56.7c3.5,0,9.6-15.2,14.8-24.4c-0.1,2.2,0.2,4.3,1.2,6.5c1.4,3.4,5.5,4.5,8.8,3.9
		c4.4-0.9,6.3-4.7,8.5-8.2c0.2-0.3,0.5-0.7,0.8-1.2c0,0.1,0,0.2,0,0.2c-0.2,2.9-0.5,5.8,1.9,7.9c2.1,1.9,5.3,0,6.2-2.3
		c1.9-4.9,3-9,5-13.6c0.1-0.2,0.2-0.4,0.4-0.4c0,0-1.1,8.2-1.2,8.8c-0.7,5.3-1.4,10.5-1.1,15.8c0.1,1.8,0.6,3.7,1.8,5.1
		c1.3,1.6,3.8,1.9,5.2,0.3c1.4-1.8,2-3.3,2.7-5.2c2-5.6,4-11.2,6.1-16.7c0-0.1,0-0.2,0-0.2s0.1,0,0.2,0c3.1,1.2,7-0.3,9.7-4.4
		C225.1,446.5,225.9,445.5,225.2,445z M175.4,445.6c0.3-1.2,0.7-2.4,1.2-3.6c0.4-0.7,3.1-6,3.8-3.8c0.7,1.9,0,3.9-1.1,5.5
		c-0.6,0.7-1.1,1.2-1.8,1.9c-0.2,0.1-2.2,1.7-2.2,1.6C175.3,446.5,175.3,446,175.4,445.6z M215,445.8c-0.2,0.6-0.4,1-0.6,1.5
		l-0.1,0.1l-0.2-0.1c-0.5-0.7-0.6-1.3-0.7-2.1c0-1.9,0.4-4.6,1.9-6.1c0.3,0.6,0.3,1.4,0.3,2.1C215.7,442.7,215.5,444.3,215,445.8z"
		/>
</g>
<g id="INSERT_1_">
	<g id="SPLINE_12_">
		<path class="st0" d="M341.4,430.5c2.1-2.4-1.8-4.8-3.2-1.9C337.3,430.8,340,431.8,341.4,430.5z"/>
	</g>
	<g id="HATCH_5_">
		<path d="M341.4,430.5c2.1-2.4-1.8-4.8-3.2-1.9C337.3,430.8,340,431.8,341.4,430.5z"/>
	</g>
	<g id="SPLINE_11_">
		<path class="st0" d="M390.7,445.8c-0.8-0.6-1.5,0.3-1.5,0.3c-1.3,2-2.8,4.1-5.4,4.8c0.3-2.2,0.5-4.5,0.1-6.8
			c-1.5-7.5-10-7.9-12.7-1.2c-0.5,1.3-1,2.9-1.4,4.7c-1.4,2.2-2.4,3.8-2.8,4.5c-1.7,2.7-4.2,6.8-7.6,7.3c-1.1,0.2-2.3-0.1-3.2-0.9
			c-0.6-0.7-1-1.9-1.2-2.9c-0.6-4.2-0.1-8.8,1.4-12.9c0.5-1.1,1.2-3.6,2.4-4.2c1.9-0.6,2.6,7.6,5,4.6c0.5-0.6-0.7-2.8-1-3.3
			c-1-2.5-2.2-3.2-4.9-3.1c-1.9,0.1-3.8,0.7-5.1,2.1c-2.1,2.2-3.2,5.9-3.5,9.5c-2,3.1-3.1,5-4.3,6.8c-0.6,0.9-1.2,2.1-2.2,2.8
			c-0.8,0.6-1.9,0.7-2.7,0.2c-0.6-0.4-0.9-1-1.1-1.7c-0.6-3.2,1.3-11.9,1.9-14.9c0.4-1.5,0.3-3.3-1.5-3.6c-2.3-0.4-3.7,0.2-4,1.9
			c-0.6,2.5-1.1,5.2-1.4,8c-5.8,9.3-6.8,11.1-8.4,9.7c-0.7-0.7-1-1.6-1.6-2.6c-0.6-1.2-1-2.4-1.4-3.6c-0.1-0.5-0.3-0.8-0.3-1.3
			c0.1-1,5.3-11.4,6.3-13.4c-1.7-0.4-2.7-0.3-3.3,1.1c-0.7,1.5-3.5,7-4.2,8.2c-0.8-2.3-1.4-4.6-2-6.8c-0.9-2.7-2.5-3.6-4.9-2.2
			c-2.1,1.2-0.1,5.4,0.3,7c0.1,0.3,0.3,0.9,0.6,1.7c-0.2,0.1-0.3,0.3-0.3,0.3c-1.9,3-3.3,5.3-3.9,6.1c-0.6,1.1-1.3,2.3-2.1,3.5
			c-1.1,1.6-2,2.9-4,3.6c-0.9,0.3-1.9,0.5-2.8,0.2c-0.7-0.3-1.3-0.8-1.8-1.4c-1.5-2-1.6-5.2-0.8-7.4c0-0.1,0.1-0.2,0.2-0.4
			c0.2-0.2,0.4-0.2,0.5-0.3c1.8-0.9,3.4-2,4.8-3.4c1.3-1.3,2.3-3,2.8-4.7c1.1-3.5-0.9-6-4.5-5.3c-1.6,0.3-3.2,1-4.4,2
			c-2.6,1.9-4,5-4.5,8.1c0,0.1,0,0.1,0,0.2c-6.5,9.8-15.4,31.7-18.9,38.7c-1.1,2.4-4.8,5.9,1.6-20.9c1.3-5.2,8.9-39.7,7.3-44.5
			c-0.6-2.2-2.9-3.5-5.4-3.2c-2.1,0.2-4,2.1-5,3.5c-5.3,7.6-9.7,18.2-9.7,19.6L265,423c0-1.1-0.2-2.2-0.4-3.3
			c-0.5-2.9-5.5-5.5-9.7,4.4c-2.4,5.7-3,6.3-5,12c0.3-5,0.5-11.3,0.7-16.6c0-1.3-0.6-2-1.9-2.1c-1.9,0-3.2,0.4-3.3,1.9
			c-0.7,14.5-1.9,32.6-2.3,46.5c-0.1,2.1,0.3,2.8,2.4,2.7c2.2,0.1,2.1-0.5,2.3-3.4c0.4-6.2,1.6-15.5,2.8-21.4
			c1.4-6.9,4.7-13.7,7.3-20.1l0.8-1.6c3.7-7.4-2.3,37.8-2.8,42.1c-0.1,1.3,1.1,1.8,2.3,1.9c1.9,0.2,2.6-0.4,2.8-1.9
			c0.6-3.3,1.3-7.6,2-11.1c2.4-12,14.5-33.1,15.6-32.7c3.3,0-9.2,41.4-9.8,57.5c-0.1,1.3-0.1,3.1-0.1,4c0,9.8,6.1,10.8,8.8,4.9
			c5.1-11.4,9.9-23,16.3-34.9c0,2,0.3,4,1.2,6c1.4,3.4,5.5,4.5,8.8,3.9c4.4-0.9,6.3-4.7,8.5-8.2c0.7-1,1.9-2.9,3.5-5.4
			c0.6,1.7,1.1,3.5,1,4c-0.2,1.5-4.7,7.9-5.7,9.6c0.6,0.1,1.2,0.1,1.9,0.1c0.7-0.3,4.6-6.3,5.1-7.1c0.2,0.6,1.1,2.7,1.4,3.1
			c1.1,2.1,3.1,3.6,5.6,3.3c2.8-0.2,4.3-2.4,5.6-4.6l3.2-4.8c0,2,0.2,3.9,0.7,5.7c0.9,3.2,3.8,4.8,7,3.9c0.8-0.2,1.6-0.6,2.1-1.3
			c1.9-1.9,3.2-4.3,4.6-6.5c0.2-0.4,0.5-0.8,0.8-1.4c0.1,1.1,0.2,2.1,0.4,3c0.6,3.1,2,5.8,5.4,6.7c3.1,0.6,6,0,8.5-1.9
			c2.1-1.7,3.5-4.1,4.8-6.2c0.2-0.3,0.5-0.8,0.9-1.4c-0.2,4.4,1.2,8.6,6.2,9.6c2.4,0.5,4.4-0.6,5.8-2.5c1.3-1.8,1.9-4.1,2.5-6.2
			c3.2-0.6,5-3,6.9-5.6C390.7,447.3,391.3,446.3,390.7,445.8z"/>
	</g>
	<g id="SPLINE_10_">
		<path class="st0" d="M300.2,446.4c0.3-1.2,0.7-2.4,1.2-3.6c0.4-0.7,3.1-6,3.8-3.8c0.7,1.9,0,3.9-1.1,5.5c-0.6,0.7-1.1,1.2-1.8,1.9
			c-0.2,0.1-2.2,1.7-2.2,1.6C300.1,447.3,300.1,446.9,300.2,446.4z"/>
	</g>
	<g id="SPLINE_9_">
		<path class="st0" d="M375.3,456.9c-0.7-2.3-0.9-4.9-0.1-7.4c0.1-0.2,0.2-0.5,0.5-0.4c2,1.6,3.8,2.9,6.3,3.4
			C381.1,459,376.6,462.4,375.3,456.9z"/>
	</g>
	<g id="SPLINE_8_">
		<path class="st0" d="M382,450.7c-2.3-0.6-4.2-1.9-4.9-3.8c-0.6-1.9-0.3-4,0.9-5.5c0.8-1,2.4-0.6,3.1,0.3
			C383.1,443.7,382.6,448.1,382,450.7z"/>
	</g>
	<g id="HATCH_4_">
		<path d="M390.7,445.8c-0.8-0.6-1.5,0.3-1.5,0.3c-1.3,2-2.8,4.1-5.4,4.8c0.3-2.2,0.5-4.5,0.1-6.8c-1.5-7.5-10-7.9-12.7-1.2
			c-0.5,1.3-1,2.9-1.4,4.7c-1.4,2.2-2.4,3.8-2.8,4.5c-1.7,2.7-4.2,6.8-7.6,7.3c-1.1,0.2-2.3-0.1-3.2-0.9c-0.6-0.7-1-1.9-1.2-2.9
			c-0.6-4.2-0.1-8.8,1.4-12.9c0.5-1.1,1.2-3.6,2.4-4.2c1.9-0.6,2.6,7.6,5,4.6c0.5-0.6-0.7-2.8-1-3.3c-1-2.5-2.2-3.2-4.9-3.1
			c-1.9,0.1-3.8,0.7-5.1,2.1c-2.1,2.2-3.2,5.9-3.5,9.5c-2,3.1-3.1,5-4.3,6.8c-0.6,0.9-1.2,2.1-2.2,2.8c-0.8,0.6-1.9,0.7-2.7,0.2
			c-0.6-0.4-0.9-1-1.1-1.7c-0.6-3.2,1.3-11.9,1.9-14.9c0.4-1.5,0.3-3.3-1.5-3.6c-2.3-0.4-3.7,0.2-4,1.9c-0.6,2.5-1.1,5.2-1.4,8
			c-5.8,9.3-6.8,11.1-8.4,9.7c-0.7-0.7-1-1.6-1.6-2.6c-0.6-1.2-1-2.4-1.4-3.6c-0.1-0.5-0.3-0.8-0.3-1.3c0.1-1,5.3-11.4,6.3-13.4
			c-1.7-0.4-2.7-0.3-3.3,1.1c-0.7,1.5-3.5,7-4.2,8.2c-0.8-2.3-1.4-4.6-2-6.8c-0.9-2.7-2.5-3.6-4.9-2.2c-2.1,1.2-0.1,5.4,0.3,7
			c0.1,0.3,0.3,0.9,0.6,1.7c-0.2,0.1-0.3,0.3-0.3,0.3c-1.9,3-3.3,5.3-3.9,6.1c-0.6,1.1-1.3,2.3-2.1,3.5c-1.1,1.6-2,2.9-4,3.6
			c-0.9,0.3-1.9,0.5-2.8,0.2c-0.7-0.3-1.3-0.8-1.8-1.4c-1.5-2-1.6-5.2-0.8-7.4c0-0.1,0.1-0.2,0.2-0.4c0.2-0.2,0.4-0.2,0.5-0.3
			c1.8-0.9,3.4-2,4.8-3.4c1.3-1.3,2.3-3,2.8-4.7c1.1-3.5-0.9-6-4.5-5.3c-1.6,0.3-3.2,1-4.4,2c-2.6,1.9-4,5-4.5,8.1
			c0,0.1,0,0.1,0,0.2c-6.5,9.8-15.4,31.7-18.9,38.7c-1.1,2.4-4.8,5.9,1.6-20.9c1.3-5.2,8.9-39.7,7.3-44.5c-0.6-2.2-2.9-3.5-5.4-3.2
			c-2.1,0.2-4,2.1-5,3.5c-5.3,7.6-9.7,18.2-9.7,19.6L265,423c0-1.1-0.2-2.2-0.4-3.3c-0.5-2.9-5.5-5.5-9.7,4.4c-2.4,5.7-3,6.3-5,12
			c0.3-5,0.5-11.3,0.7-16.6c0-1.3-0.6-2-1.9-2.1c-1.9,0-3.2,0.4-3.3,1.9c-0.7,14.5-1.9,32.6-2.3,46.5c-0.1,2.1,0.3,2.8,2.4,2.7
			c2.2,0.1,2.1-0.5,2.3-3.4c0.4-6.2,1.6-15.5,2.8-21.4c1.4-6.9,4.7-13.7,7.3-20.1l0.8-1.6c3.7-7.4-2.3,37.8-2.8,42.1
			c-0.1,1.3,1.1,1.8,2.3,1.9c1.9,0.2,2.6-0.4,2.8-1.9c0.6-3.3,1.3-7.6,2-11.1c2.4-12,14.5-33.1,15.6-32.7c3.3,0-9.2,41.4-9.8,57.5
			c-0.1,1.3-0.1,3.1-0.1,4c0,9.8,6.1,10.8,8.8,4.9c5.1-11.4,9.9-23,16.3-34.9c0,2,0.3,4,1.2,6c1.4,3.4,5.5,4.5,8.8,3.9
			c4.4-0.9,6.3-4.7,8.5-8.2c0.7-1,1.9-2.9,3.5-5.4c0.6,1.7,1.1,3.5,1,4c-0.2,1.5-4.7,7.9-5.7,9.6c0.6,0.1,1.2,0.1,1.9,0.1
			c0.7-0.3,4.6-6.3,5.1-7.1c0.2,0.6,1.1,2.7,1.4,3.1c1.1,2.1,3.1,3.6,5.6,3.3c2.8-0.2,4.3-2.4,5.6-4.6l3.2-4.8c0,2,0.2,3.9,0.7,5.7
			c0.9,3.2,3.8,4.8,7,3.9c0.8-0.2,1.6-0.6,2.1-1.3c1.9-1.9,3.2-4.3,4.6-6.5c0.2-0.4,0.5-0.8,0.8-1.4c0.1,1.1,0.2,2.1,0.4,3
			c0.6,3.1,2,5.8,5.4,6.7c3.1,0.6,6,0,8.5-1.9c2.1-1.7,3.5-4.1,4.8-6.2c0.2-0.3,0.5-0.8,0.9-1.4c-0.2,4.4,1.2,8.6,6.2,9.6
			c2.4,0.5,4.4-0.6,5.8-2.5c1.3-1.8,1.9-4.1,2.5-6.2c3.2-0.6,5-3,6.9-5.6C390.7,447.3,391.3,446.3,390.7,445.8z M300.2,446.4
			c0.3-1.2,0.7-2.4,1.2-3.6c0.4-0.7,3.1-6,3.8-3.8c0.7,1.9,0,3.9-1.1,5.5c-0.6,0.7-1.1,1.2-1.8,1.9c-0.2,0.1-2.2,1.7-2.2,1.6
			C300.1,447.3,300.1,446.9,300.2,446.4z M375.3,456.9c-0.7-2.3-0.9-4.9-0.1-7.4c0.1-0.2,0.2-0.5,0.5-0.4c2,1.6,3.8,2.9,6.3,3.4
			C381.1,459,376.6,462.4,375.3,456.9z M382,450.7c-2.3-0.6-4.2-1.9-4.9-3.8c-0.6-1.9-0.3-4,0.9-5.5c0.8-1,2.4-0.6,3.1,0.3
			C383.1,443.7,382.6,448.1,382,450.7z"/>
	</g>
</g>
</svg>
