<?xml version="1.0" encoding="utf-8"?>
<!-- Generator: Adobe Illustrator 22.0.1, SVG Export Plug-In . SVG Version: 6.00 Build 0)  -->
<svg version="1.1" id="Layer_1" xmlns="http://www.w3.org/2000/svg" xmlns:xlink="http://www.w3.org/1999/xlink" x="0px" y="0px"
	 viewBox="0 0 500 500" style="enable-background:new 0 0 500 500;" xml:space="preserve">
<style type="text/css">
	.st0{fill:none;stroke:#000000;stroke-width:0;stroke-linecap:round;stroke-linejoin:round;stroke-miterlimit:10;}
</style>
<g id="POLYLINE_1_">
	<polyline class="st0" points="5,427 5,396 48.4,358.7 29.8,302.9 129,296.7 184.9,253.3 184.9,209.9 166.3,197.5 246.9,104.4 
		327.5,79.6 327.5,110.6 339.9,141.7 346.1,191.3 358.5,191.3 370.9,247.1 383.4,259.5 383.4,321.5 383.4,346.3 402,414.6 
		426.8,414.6 482.6,383.6 495,389.8 420.6,445.6 395.8,439.4 395.8,420.8 352.3,408.4 296.5,396 290.3,371.2 265.5,364.9 
		228.3,364.9 153.9,396 129.1,396 5,427 	"/>
</g>
<g id="HATCH_5_">
	<polygon points="5,427 5,396 48.4,358.7 29.8,302.9 129,296.7 184.9,253.3 184.9,209.9 166.3,197.5 246.9,104.4 327.5,79.6 
		327.5,110.6 339.9,141.7 346.1,191.3 358.5,191.3 370.9,247.1 383.4,259.5 383.4,321.5 383.4,346.3 402,414.6 426.8,414.6 
		482.6,383.6 495,389.8 420.6,445.6 395.8,439.4 395.8,420.8 352.3,408.4 296.5,396 290.3,371.2 265.5,364.9 228.3,364.9 153.9,396 
		129.1,396 5,427 	"/>
</g>
<g id="INSERT_1_">
	<g id="SPLINE_17_">
		<path class="st0" d="M95.4,92.9c-1.8,2.9-4.4,5.7-7.7,4.3c0,0-0.2-0.1-0.2-0.3v-0.2c0.7-2.5,3.3-11.2,0-12.6
			c-1.1-0.4-2.4,0.1-3.4,0.8c-0.4,0.3-0.7,0.6-0.9,0.9c-1.2,1.9-2,4.2-1.6,6.6c0.3,2.5,1.6,4.3,3.4,5.8c-2,6.3-3.9,11.9-5.8,18
			c-2.6,8-3.7,5.7-2.8-3c0.3-3,0.7-6,0.9-8.9c0.2-1.9,0.4-3.8,0.6-5.7c0.4-3.6,0.7-7.2,0.8-11c0.1-1.6-0.8-2.6-2.3-2.9
			c-1.5-0.2-2.9-0.1-3.8,1.6c-1.5,2.9-2.4,6.3-3.7,9.6c-1.3,3.7-2.1,6-2.6,8c-0.9,2.5-1.2,2.7-1.2-0.1c0-5.3,0.8-11,1.6-16.2
			c0.2-1,0.4-2.5-0.5-3.2c-1.1-0.9-2.6-0.9-3.8-0.1c-1.3,0.9-1.4,3.1-1.8,4.7c-0.3,2.1-0.6,4.1-0.8,6.2c-1.2,2.1-2.1,3.7-2.5,4.4
			c-0.7,1.2-1.3,2.6-2.2,3.9c-1.1,1.8-2.1,3.2-4,4c-0.9,0.3-1.9,0.5-2.8,0.2c-0.8-0.3-1.3-0.9-1.8-1.6c-1.5-2.3-1.6-5.8-0.8-8.3
			c0-0.1,0.1-0.2,0.2-0.4c0.2-0.2,0.4-0.2,0.5-0.3c1.8-1,3.5-2.3,4.9-3.8c1.3-1.4,2.3-3.3,2.8-5.3c1.1-3.9-0.9-6.7-4.6-5.9
			c-1.6,0.3-3.2,1.1-4.4,2.3c-2.6,2.2-4,5.6-4.6,9c0,0,0,0.1,0,0.1c-5.7,10.1-12.8,28.7-14.7,28.7c-5,0,12.7-62.4,0.5-62.4
			c-3.5,0-6.3,7.8-8.5,14.7l-5.1,17.3c0.5-10.5,0.8-20,1.3-29.5c0.1-1.7-1.1-2-2.3-2c-1,0-2.2,0.1-2.3,1.9
			c-2.2,40.8-3.2,44.5-3.2,49.2c0,3.1,0.9,2.7,2,2.9c2.5,0.4,2.6-1.5,2.9-3.5c0.6-2.8,1.1-5.6,1.7-8.4c2.2-9.9,4.8-19.4,8-28.5
			c1.3-3.8,3.8-11.7,5-11.7c5.3,0-13.2,63.4-0.7,63.4c3.6,0,9.8-16.9,15-27.3c-0.1,2.4,0.3,4.8,1.2,7.3c1.4,3.8,5.5,5.1,8.9,4.3
			c4.5-1,6.4-5.3,8.6-9.1c0.2-0.3,0.5-0.8,0.8-1.3c0,0.1,0,0.2,0,0.3c-0.2,3.2-0.5,6.5,1.9,8.8c2.2,2.1,5.3,0,6.3-2.6
			c1.9-5.5,3-10,5.1-15.2c0.1-0.2,0.2-0.4,0.4-0.4c0,0-1.1,9.2-1.2,9.8c-0.8,5.9-1.4,11.7-1.1,17.6c0.1,2,0.6,4.1,1.8,5.7
			c1.3,1.8,3.8,2.1,5.3,0.3c1.4-2,2.1-3.7,2.7-5.8c2.1-6.2,4-12.5,6.2-18.6c0-0.1,0-0.2,0-0.2s0.1,0,0.2,0c3.1,1.3,7-0.3,9.8-5
			c0,0,0.8-1.1,0.1-1.7C96,91.9,95.4,92.9,95.4,92.9z"/>
	</g>
	<g id="SPLINE_16_">
		<path class="st0" d="M46.3,93.2c0.3-1.3,0.8-2.7,1.2-4c0.4-0.8,3.1-6.7,3.8-4.2c0.8,2.2,0,4.3-1.1,6.1c-0.6,0.8-1.1,1.3-1.8,2.1
			c-0.2,0.1-2.3,1.9-2.3,1.8C46.2,94.3,46.2,93.7,46.3,93.2z"/>
	</g>
	<g id="SPLINE_15_">
		<path class="st0" d="M86.5,93.4c-0.2,0.6-0.4,1.1-0.6,1.7l-0.1,0.1l-0.2-0.1c-0.5-0.8-0.7-1.4-0.8-2.4c0-2.2,0.4-5.2,2-6.8
			c0.3,0.7,0.3,1.6,0.3,2.4C87.1,90,86.9,91.8,86.5,93.4z"/>
	</g>
	<g id="HATCH_4_">
		<path d="M95.4,92.9c-1.8,2.9-4.4,5.7-7.7,4.3c0,0-0.2-0.1-0.2-0.3v-0.2c0.7-2.5,3.3-11.2,0-12.6c-1.1-0.4-2.4,0.1-3.4,0.8
			c-0.4,0.3-0.7,0.6-0.9,0.9c-1.2,1.9-2,4.2-1.6,6.6c0.3,2.5,1.6,4.3,3.4,5.8c-2,6.3-3.9,11.9-5.8,18c-2.6,8-3.7,5.7-2.8-3
			c0.3-3,0.7-6,0.9-8.9c0.2-1.9,0.4-3.8,0.6-5.7c0.4-3.6,0.7-7.2,0.8-11c0.1-1.6-0.8-2.6-2.3-2.9c-1.5-0.2-2.9-0.1-3.8,1.6
			c-1.5,2.9-2.4,6.3-3.7,9.6c-1.3,3.7-2.1,6-2.6,8c-0.9,2.5-1.2,2.7-1.2-0.1c0-5.3,0.8-11,1.6-16.2c0.2-1,0.4-2.5-0.5-3.2
			c-1.1-0.9-2.6-0.9-3.8-0.1c-1.3,0.9-1.4,3.1-1.8,4.7c-0.3,2.1-0.6,4.1-0.8,6.2c-1.2,2.1-2.1,3.7-2.5,4.4c-0.7,1.2-1.3,2.6-2.2,3.9
			c-1.1,1.8-2.1,3.2-4,4c-0.9,0.3-1.9,0.5-2.8,0.2c-0.8-0.3-1.3-0.9-1.8-1.6c-1.5-2.3-1.6-5.8-0.8-8.3c0-0.1,0.1-0.2,0.2-0.4
			c0.2-0.2,0.4-0.2,0.5-0.3c1.8-1,3.5-2.3,4.9-3.8c1.3-1.4,2.3-3.3,2.8-5.3c1.1-3.9-0.9-6.7-4.6-5.9c-1.6,0.3-3.2,1.1-4.4,2.3
			c-2.6,2.2-4,5.6-4.6,9c0,0,0,0.1,0,0.1c-5.7,10.1-12.8,28.7-14.7,28.7c-5,0,12.7-62.4,0.5-62.4c-3.5,0-6.3,7.8-8.5,14.7l-5.1,17.3
			c0.5-10.5,0.8-20,1.3-29.5c0.1-1.7-1.1-2-2.3-2c-1,0-2.2,0.1-2.3,1.9c-2.2,40.8-3.2,44.5-3.2,49.2c0,3.1,0.9,2.7,2,2.9
			c2.5,0.4,2.6-1.5,2.9-3.5c0.6-2.8,1.1-5.6,1.7-8.4c2.2-9.9,4.8-19.4,8-28.5c1.3-3.8,3.8-11.7,5-11.7c5.3,0-13.2,63.4-0.7,63.4
			c3.6,0,9.8-16.9,15-27.3c-0.1,2.4,0.3,4.8,1.2,7.3c1.4,3.8,5.5,5.1,8.9,4.3c4.5-1,6.4-5.3,8.6-9.1c0.2-0.3,0.5-0.8,0.8-1.3
			c0,0.1,0,0.2,0,0.3c-0.2,3.2-0.5,6.5,1.9,8.8c2.2,2.1,5.3,0,6.3-2.6c1.9-5.5,3-10,5.1-15.2c0.1-0.2,0.2-0.4,0.4-0.4
			c0,0-1.1,9.2-1.2,9.8c-0.8,5.9-1.4,11.7-1.1,17.6c0.1,2,0.6,4.1,1.8,5.7c1.3,1.8,3.8,2.1,5.3,0.3c1.4-2,2.1-3.7,2.7-5.8
			c2.1-6.2,4-12.5,6.2-18.6c0-0.1,0-0.2,0-0.2s0.1,0,0.2,0c3.1,1.3,7-0.3,9.8-5c0,0,0.8-1.1,0.1-1.7C96,91.9,95.4,92.9,95.4,92.9z
			 M46.3,93.2c0.3-1.3,0.8-2.7,1.2-4c0.4-0.8,3.1-6.7,3.8-4.2c0.8,2.2,0,4.3-1.1,6.1c-0.6,0.8-1.1,1.3-1.8,2.1
			c-0.2,0.1-2.3,1.9-2.3,1.8C46.2,94.3,46.2,93.7,46.3,93.2z M86.5,93.4c-0.2,0.6-0.4,1.1-0.6,1.7l-0.1,0.1l-0.2-0.1
			c-0.5-0.8-0.7-1.4-0.8-2.4c0-2.2,0.4-5.2,2-6.8c0.3,0.7,0.3,1.6,0.3,2.4C87.1,90,86.9,91.8,86.5,93.4z"/>
	</g>
	<g id="SPLINE_14_">
		<path class="st0" d="M213.2,92.5c-0.8-0.7-1.4,0.3-1.4,0.3c-3.5,5.9-6.4,11.9-9.2,17.8c-0.8,2.1-1.8,3.8-1.8,0.2
			c0-4-0.1-8.1-0.4-12c-0.1-1.3-0.1-2.7-0.6-3.9c-0.3-0.8-0.8-1.7-1.6-2.3c-0.4-0.2-1.8-0.9-2.1-0.5c2.1-3.1,3.9-6.3,6-9.3
			c0.1,0,0.2-0.1,0.2-0.2c0-0.3-0.3-0.4-0.5-0.5c-1.1-0.4-2-0.2-2.7,0.8c-2.2,3.1-4.1,6.4-6.4,9.5l0.4-8c3.9-6.1,6.6-11.7,8.3-18
			c0.6-2.2,0.8-4.6,0.8-6.9c0-4-2.7-5.9-6.2-4.7c-1.7,0.6-3.4,2.1-4.3,3.7c-1.2,2.2-2,5-2.3,7.5c-1.2,9.4-1.9,18.8-2.3,28.3
			c-1.2,2.1-2.4,4.3-3,5.4c-1.3,2.3-2.5,4.7-4.1,6.6c-1.8,2-2.7-0.5-2.7-2.1c0.1-5.8,2.1-12.1,3.4-17.7c0.8-3.2,0.4-3.8-2.7-3.7
			c-3,0-4.6,0.1-4.9,0c0.4-2.3,1-6.7-0.6-8.5c-0.7-0.8-1.9-0.8-2.8-0.6c-4.3,1-6.8,8.3-2.4,10.5c0.9,0.4,2.3,0.7,3.3,1
			c0.1,0-3.3,5.7-4.4,7.7c0,0-0.1,0.2-0.2,0.4c-1.3,2.2-2.7,4.3-5.3,5.1c0.3-2.5,0.5-5.1,0.1-7.6c-1.5-8.4-10.1-8.8-12.9-1.3
			c-0.5,1.3-0.9,2.9-1.3,4.7c-3,4-6.3,6.1-10.5,7.8c2.1-14.2,3.2-27.4,4.5-40.7c0.2-1.3,0-2.6-1.6-2.9c-1.7-0.3-2.5,0.2-3.1,2
			c-5.6,13.6-10.6,25-15.7,36.3c-3.7,8-2.3-10.8-2.1-13.8c0.8-7.4,1.9-14.7,2.9-22.1c0.2-1.3,0.1-2.4-1.4-2.6
			c-1.7-0.4-2.8,0.1-3.1,1.8c-0.7,3.9-1.2,7.9-1.8,11.8c-1,7.5-1.9,14.8-1.5,22.4c0.1,2,0.5,4,1,6c1,3.3,4.1,3.8,6.1,1.1
			c1.2-1.7,2.3-3.4,3.1-5.3c3.7-8.1,7.3-16.3,11-24.4c0.3-0.5,0.6-0.9,0.9-1.8c-0.7,6.5-1.3,12-2,17.6c-0.7,5.8-1.4,11.5-2.3,16.9
			c-4.1,2.2-8.7,4.6-12.6,7.4c-3.8,2.8-7.1,6-10.3,9.4c-4.7,5-7.6,11-7.6,18.2c0,5.3,3.1,10.6,7,11.6c11,2.6,17.8-7.5,21.3-16.4
			c3.7-9.6,5.3-19.3,6.9-29.4c3.9-2.5,7.3-4.3,10.1-7.3c-0.5,5.5,0.5,11.2,6.1,12.4c2.4,0.5,4.5-0.7,5.9-2.8c1.3-2,2-4.6,2.5-6.9
			c3.2-0.6,5.1-3.3,6.9-6.2c0,0,0.1-0.2,0.2-0.4c1.3-2.3,4.2-7.3,4.9-8.7l3,0.1c-1.1,4.3-2.3,8.5-2.7,12.9c-0.2,1.4-0.4,2.9-0.4,4.5
			c0,1.9,0.4,4.2,1.8,5.5c5.3,5.1,9.2-3.6,11.3-7.4c0.4-0.6,0.9-1.5,1.4-2.4c-0.1,3-0.1,6.2,0.7,9.1c0.5,1.7,1.9,2.2,3.6,1.9
			c1.6-0.2,1.7-1.6,1.6-11.6c0-2,2.6-4.6,3-1.5c0.5,4.6,0.4,9.3,0.7,13.9c0.2,2.8,1.2,6.8,4.3,6c1.2-0.2,1.9-1.7,2.4-2.7
			c1.5-3.1,6.1-12.5,8.5-17.1l1.4-2.3C213.2,94.1,213.8,93,213.2,92.5z"/>
	</g>
	<g id="SPLINE_13_">
		<path class="st0" d="M198.9,57.3c3.8-0.1,0.3,10.8-1,14.5c-1,2.8-3.4,7.1-4.8,9.4C194.1,73.2,194.8,57.4,198.9,57.3z"/>
	</g>
	<g id="SPLINE_12_">
		<path class="st0" d="M116.7,146c-4.5,3.3-8.8,3.8-11.4-1.4c-2.2-4.2-1.6-8.5-0.2-12.8c1.6-4.8,4.6-8.5,8-11.8
			c5.3-5.2,11.1-9.8,18-12.9C129.3,118.6,125.9,139.4,116.7,146z"/>
	</g>
	<g id="SPLINE_11_">
		<path class="st0" d="M152,104.9c-0.8-2.6-0.9-5.5-0.1-8.3c0.1-0.2,0.2-0.5,0.5-0.4c2.1,1.8,3.8,3.2,6.4,3.8
			C157.9,107.3,153.3,111.1,152,104.9z"/>
	</g>
	<g id="SPLINE_10_">
		<path class="st0" d="M158.9,98.1c-2.3-0.7-4.2-2.1-5-4.2c-0.7-2.1-0.3-4.5,0.9-6.1c0.8-1.1,2.4-0.6,3.1,0.3
			C159.9,90.2,159.4,95.1,158.9,98.1z"/>
	</g>
	<g id="SPLINE_9_">
		<path class="st0" d="M170.7,82c-1.2-2.5-1.1-4.5,0-6.8C171.6,77.6,171.4,79.5,170.7,82z"/>
	</g>
	<g id="HATCH_3_">
		<path d="M213.2,92.5c-0.8-0.7-1.4,0.3-1.4,0.3c-3.5,5.9-6.4,11.9-9.2,17.8c-0.8,2.1-1.8,3.8-1.8,0.2c0-4-0.1-8.1-0.4-12
			c-0.1-1.3-0.1-2.7-0.6-3.9c-0.3-0.8-0.8-1.7-1.6-2.3c-0.4-0.2-1.8-0.9-2.1-0.5c2.1-3.1,3.9-6.3,6-9.3c0.1,0,0.2-0.1,0.2-0.2
			c0-0.3-0.3-0.4-0.5-0.5c-1.1-0.4-2-0.2-2.7,0.8c-2.2,3.1-4.1,6.4-6.4,9.5l0.4-8c3.9-6.1,6.6-11.7,8.3-18c0.6-2.2,0.8-4.6,0.8-6.9
			c0-4-2.7-5.9-6.2-4.7c-1.7,0.6-3.4,2.1-4.3,3.7c-1.2,2.2-2,5-2.3,7.5c-1.2,9.4-1.9,18.8-2.3,28.3c-1.2,2.1-2.4,4.3-3,5.4
			c-1.3,2.3-2.5,4.7-4.1,6.6c-1.8,2-2.7-0.5-2.7-2.1c0.1-5.8,2.1-12.1,3.4-17.7c0.8-3.2,0.4-3.8-2.7-3.7c-3,0-4.6,0.1-4.9,0
			c0.4-2.3,1-6.7-0.6-8.5c-0.7-0.8-1.9-0.8-2.8-0.6c-4.3,1-6.8,8.3-2.4,10.5c0.9,0.4,2.3,0.7,3.3,1c0.1,0-3.3,5.7-4.4,7.7
			c0,0-0.1,0.2-0.2,0.4c-1.3,2.2-2.7,4.3-5.3,5.1c0.3-2.5,0.5-5.1,0.1-7.6c-1.5-8.4-10.1-8.8-12.9-1.3c-0.5,1.3-0.9,2.9-1.3,4.7
			c-3,4-6.3,6.1-10.5,7.8c2.1-14.2,3.2-27.4,4.5-40.7c0.2-1.3,0-2.6-1.6-2.9c-1.7-0.3-2.5,0.2-3.1,2c-5.6,13.6-10.6,25-15.7,36.3
			c-3.7,8-2.3-10.8-2.1-13.8c0.8-7.4,1.9-14.7,2.9-22.1c0.2-1.3,0.1-2.4-1.4-2.6c-1.7-0.4-2.8,0.1-3.1,1.8
			c-0.7,3.9-1.2,7.9-1.8,11.8c-1,7.5-1.9,14.8-1.5,22.4c0.1,2,0.5,4,1,6c1,3.3,4.1,3.8,6.1,1.1c1.2-1.7,2.3-3.4,3.1-5.3
			c3.7-8.1,7.3-16.3,11-24.4c0.3-0.5,0.6-0.9,0.9-1.8c-0.7,6.5-1.3,12-2,17.6c-0.7,5.8-1.4,11.5-2.3,16.9c-4.1,2.2-8.7,4.6-12.6,7.4
			c-3.8,2.8-7.1,6-10.3,9.4c-4.7,5-7.6,11-7.6,18.2c0,5.3,3.1,10.6,7,11.6c11,2.6,17.8-7.5,21.3-16.4c3.7-9.6,5.3-19.3,6.9-29.4
			c3.9-2.5,7.3-4.3,10.1-7.3c-0.5,5.5,0.5,11.2,6.1,12.4c2.4,0.5,4.5-0.7,5.9-2.8c1.3-2,2-4.6,2.5-6.9c3.2-0.6,5.1-3.3,6.9-6.2
			c0,0,0.1-0.2,0.2-0.4c1.3-2.3,4.2-7.3,4.9-8.7l3,0.1c-1.1,4.3-2.3,8.5-2.7,12.9c-0.2,1.4-0.4,2.9-0.4,4.5c0,1.9,0.4,4.2,1.8,5.5
			c5.3,5.1,9.2-3.6,11.3-7.4c0.4-0.6,0.9-1.5,1.4-2.4c-0.1,3-0.1,6.2,0.7,9.1c0.5,1.7,1.9,2.2,3.6,1.9c1.6-0.2,1.7-1.6,1.6-11.6
			c0-2,2.6-4.6,3-1.5c0.5,4.6,0.4,9.3,0.7,13.9c0.2,2.8,1.2,6.8,4.3,6c1.2-0.2,1.9-1.7,2.4-2.7c1.5-3.1,6.1-12.5,8.5-17.1l1.4-2.3
			C213.2,94.1,213.8,93,213.2,92.5z M198.9,57.3c3.8-0.1,0.3,10.8-1,14.5c-1,2.8-3.4,7.1-4.8,9.4C194.1,73.2,194.8,57.4,198.9,57.3z
			 M116.7,146c-4.5,3.3-8.8,3.8-11.4-1.4c-2.2-4.2-1.6-8.5-0.2-12.8c1.6-4.8,4.6-8.5,8-11.8c5.3-5.2,11.1-9.8,18-12.9
			C129.3,118.6,125.9,139.4,116.7,146z M152,104.9c-0.8-2.6-0.9-5.5-0.1-8.3c0.1-0.2,0.2-0.5,0.5-0.4c2.1,1.8,3.8,3.2,6.4,3.8
			C157.9,107.3,153.3,111.1,152,104.9z M158.9,98.1c-2.3-0.7-4.2-2.1-5-4.2c-0.7-2.1-0.3-4.5,0.9-6.1c0.8-1.1,2.4-0.6,3.1,0.3
			C159.9,90.2,159.4,95.1,158.9,98.1z M170.7,82c-1.2-2.5-1.1-4.5,0-6.8C171.6,77.6,171.4,79.5,170.7,82z"/>
	</g>
</g>
</svg>
