<?xml version="1.0" encoding="utf-8"?>
<!-- Generator: Adobe Illustrator 22.0.1, SVG Export Plug-In . SVG Version: 6.00 Build 0)  -->
<svg version="1.1" id="Layer_1" xmlns="http://www.w3.org/2000/svg" xmlns:xlink="http://www.w3.org/1999/xlink" x="0px" y="0px"
	 viewBox="0 0 500 500" style="enable-background:new 0 0 500 500;" xml:space="preserve">
<style type="text/css">
	.st0{fill:none;stroke:#000000;stroke-width:0;stroke-linecap:round;stroke-linejoin:round;stroke-miterlimit:10;}
</style>
<g id="POLYLINE_1_">
	<polyline class="st0" points="90.2,436.7 45.8,135 72.5,126.1 179,108.3 214.5,126.1 267.8,126.1 321,108.3 409.8,46.2 436.4,99.5 
		454.2,214.8 445.3,312.5 427.5,348 374.3,383.5 374.3,419 347.6,427.9 338.8,463.4 329.9,490 294.4,490 267.8,463.4 250,481.1 
		196.7,481.1 187.9,472.2 152.4,472.2 134.6,445.6 90.2,436.7 90.2,436.7 	"/>
</g>
<g id="HATCH_5_">
	<path d="M90.2,436.7L45.8,135l26.6-8.9L179,108.3l35.5,17.8h53.3l53.3-17.8l88.8-62.1l26.6,53.3l17.8,115.4l-8.9,97.6L427.5,348
		l-53.3,35.5V419l-26.6,8.9l-8.9,35.5l-8.9,26.6h-35.5l-26.6-26.6L250,481.1h-53.3l-8.9-8.9h-35.5l-17.8-26.6L90.2,436.7
		C90.2,436.7,90.2,436.7,90.2,436.7z"/>
</g>
<g id="INSERT_1_">
	<g id="SPLINE_13_">
		<path class="st0" d="M229.3,29c2.7-3-2.2-6-4-2.3C224.2,29.4,227.6,30.7,229.3,29z"/>
	</g>
	<g id="HATCH_4_">
		<path d="M229.3,29c2.7-3-2.2-6-4-2.3C224.2,29.4,227.6,30.7,229.3,29z"/>
	</g>
	<g id="SPLINE_12_">
		<path class="st0" d="M266,48.2c-1-0.8-1.9,0.3-1.9,0.3c-1.6,2.5-3.5,5.1-6.7,6c0.3-2.8,0.6-5.7,0.1-8.4
			c-1.9-9.4-12.5-9.8-15.9-1.5c-0.6,1.7-1.3,3.8-1.8,6c-2.8,4.4-4.3,6.9-5.8,9.4c-0.8,1.2-1.5,2.7-2.8,3.5c-1,0.7-2.3,0.9-3.4,0.2
			c-0.7-0.5-1.2-1.3-1.4-2.1c-0.8-3.9,1.6-14.8,2.4-18.6c0.5-1.9,0.3-4.2-1.9-4.5c-2.9-0.5-4.6,0.2-5,2.4c-0.7,3.1-1.4,6.5-1.8,9.9
			c-0.4,0.6-0.8,1.3-1.1,1.9l-13,21.6c0-4.3,2.9-17.7,2.9-18.1c0,0,0.7-3.6,1-5.3c0.7-3.9,2-12.7-4.7-11.1
			c-4.1,0.8-7.3,7.3-9.1,10.1c0-1.4,0.1-8.3,0.8-9.1c5.8-6.4,10.2-14.7,11.8-22.8c0.8-4.6-1.3-7.9-5.4-8c-6.4-0.2-9.4,5.9-11,11.2
			c-2.5,8.7-3,18.5-3.8,27.3c-0.1,1-0.2,2.1-0.2,3.1c-1.4,2.2-2.9,4.4-4.6,6.4c-2.3,2.8-5.1,5.3-8.6,6.6c1.2-7.1,2.4-14.6,2.9-21.9
			c0.6-7.8,0.6-15.6-2.2-23.1c-1-3.1-2.5-6-6.2-6.8c-3.8-0.8-7.5,0-10.5,2.8c-4.2,3.9-6.5,9-8,14.6c-1.7,6.6-3,13.2-3.6,19.9
			c-0.7,6.2-1.3,13.2-0.7,19.6c0.9,6.4,1.7,15.6,9.7,16.5c3.6,0.3,6.7-0.6,9.3-3.1c3.6-3.8,5.9-8.6,7.8-13.4c0.2-0.7,0.6-1.3,1-2
			c4.5-1.3,8.2-5.3,10.4-7.8c1.1-1.3,2.2-2.7,3.2-4.1c0,1,0,2,0,3.1c0,2.1-1.2,8.4,2.5,8.4c1.5,0,2.7-0.2,3-2
			c2.2-13.2,9.6-21.4,11.5-22.8c-1.4,6.1-3.2,13.4-4.2,19.1c-0.8,4.7-2.4,15.2,3.5,15.9c1.3,0,2.5-0.7,3.5-1.5
			c0.9-0.9,1.5-2.1,2.1-3.2c5-8.6,8-13.8,9.9-17c0,2.3,0.3,4.6,0.9,6.6c1.2,4.1,4.7,6,8.8,4.9c1-0.2,2-0.8,2.7-1.6
			c2.4-2.3,3.9-5.3,5.8-8.1c0.3-0.5,0.6-1,1-1.6c-0.2,5.6,1.4,10.9,7.7,12c3,0.6,5.6-0.8,7.3-3.1c1.6-2.2,2.4-5.1,3.1-7.8
			c3.9-0.7,6.2-3.7,8.6-6.9C265.9,50,266.7,48.8,266,48.2z"/>
	</g>
	<g id="SPLINE_11_">
		<path class="st0" d="M202.8,14.1c0.5-0.6,0.9-1.3,1.9-1.2c4.6,1.4,0.7,10.2,0,12.3c-1.5,4.2-4.9,9.1-7.5,12.7
			C197.5,30.5,199.2,20.8,202.8,14.1z"/>
	</g>
	<g id="SPLINE_10_">
		<path class="st0" d="M157.2,82.8c-2.1-2.3-3.6-6.7-4-10.4c-0.7-6.2-0.1-13.1,0.2-19.3c2.7,11.8,13.5,14.8,17.9,14.8
			C170.3,72.8,162.6,88.6,157.2,82.8z"/>
	</g>
	<g id="SPLINE_9_">
		<path class="st0" d="M172.1,64.5c-5,0.3-8.9-2.1-10.8-6c-2-4.3-2.8-9-3-13.7c-0.1-3-0.1-6,0-9c0.2-4.4,1.3-9.1,2.9-13.3
			c1.4-3.6,5-10,9.5-5.8c0.9,0.7,1.5,1.9,2,3c3,6.7,3,14.3,2.8,21.6C175.4,45.2,175.1,49.1,172.1,64.5z"/>
	</g>
	<g id="SPLINE_8_">
		<path class="st0" d="M246.6,62c-0.9-2.9-1.2-6.1-0.1-9.3c0.1-0.2,0.2-0.6,0.6-0.5c2.5,2,4.7,3.6,7.9,4.3
			C253.9,64.6,248.3,68.9,246.6,62z"/>
	</g>
	<g id="SPLINE_7_">
		<path class="st0" d="M255.1,54.3c-2.9-0.8-5.2-2.3-6.1-4.7c-0.8-2.3-0.3-5,1.2-6.8c1-1.3,3-0.7,3.8,0.3
			C256.4,45.5,255.8,51,255.1,54.3z"/>
	</g>
	<g id="HATCH_3_">
		<path d="M266,48.2c-1-0.8-1.9,0.3-1.9,0.3c-1.6,2.5-3.5,5.1-6.7,6c0.3-2.8,0.6-5.7,0.1-8.4c-1.9-9.4-12.5-9.8-15.9-1.5
			c-0.6,1.7-1.3,3.8-1.8,6c-2.8,4.4-4.3,6.9-5.8,9.4c-0.8,1.2-1.5,2.7-2.8,3.5c-1,0.7-2.3,0.9-3.4,0.2c-0.7-0.5-1.2-1.3-1.4-2.1
			c-0.8-3.9,1.6-14.8,2.4-18.6c0.5-1.9,0.3-4.2-1.9-4.5c-2.9-0.5-4.6,0.2-5,2.4c-0.7,3.1-1.4,6.5-1.8,9.9c-0.4,0.6-0.8,1.3-1.1,1.9
			l-13,21.6c0-4.3,2.9-17.7,2.9-18.1c0,0,0.7-3.6,1-5.3c0.7-3.9,2-12.7-4.7-11.1c-4.1,0.8-7.3,7.3-9.1,10.1c0-1.4,0.1-8.3,0.8-9.1
			c5.8-6.4,10.2-14.7,11.8-22.8c0.8-4.6-1.3-7.9-5.4-8c-6.4-0.2-9.4,5.9-11,11.2c-2.5,8.7-3,18.5-3.8,27.3c-0.1,1-0.2,2.1-0.2,3.1
			c-1.4,2.2-2.9,4.4-4.6,6.4c-2.3,2.8-5.1,5.3-8.6,6.6c1.2-7.1,2.4-14.6,2.9-21.9c0.6-7.8,0.6-15.6-2.2-23.1c-1-3.1-2.5-6-6.2-6.8
			c-3.8-0.8-7.5,0-10.5,2.8c-4.2,3.9-6.5,9-8,14.6c-1.7,6.6-3,13.2-3.6,19.9c-0.7,6.2-1.3,13.2-0.7,19.6c0.9,6.4,1.7,15.6,9.7,16.5
			c3.6,0.3,6.7-0.6,9.3-3.1c3.6-3.8,5.9-8.6,7.8-13.4c0.2-0.7,0.6-1.3,1-2c4.5-1.3,8.2-5.3,10.4-7.8c1.1-1.3,2.2-2.7,3.2-4.1
			c0,1,0,2,0,3.1c0,2.1-1.2,8.4,2.5,8.4c1.5,0,2.7-0.2,3-2c2.2-13.2,9.6-21.4,11.5-22.8c-1.4,6.1-3.2,13.4-4.2,19.1
			c-0.8,4.7-2.4,15.2,3.5,15.9c1.3,0,2.5-0.7,3.5-1.5c0.9-0.9,1.5-2.1,2.1-3.2c5-8.6,8-13.8,9.9-17c0,2.3,0.3,4.6,0.9,6.6
			c1.2,4.1,4.7,6,8.8,4.9c1-0.2,2-0.8,2.7-1.6c2.4-2.3,3.9-5.3,5.8-8.1c0.3-0.5,0.6-1,1-1.6c-0.2,5.6,1.4,10.9,7.7,12
			c3,0.6,5.6-0.8,7.3-3.1c1.6-2.2,2.4-5.1,3.1-7.8c3.9-0.7,6.2-3.7,8.6-6.9C265.9,50,266.7,48.8,266,48.2z M202.8,14.1
			c0.5-0.6,0.9-1.3,1.9-1.2c4.6,1.4,0.7,10.2,0,12.3c-1.5,4.2-4.9,9.1-7.5,12.7C197.5,30.5,199.2,20.8,202.8,14.1z M157.2,82.8
			c-2.1-2.3-3.6-6.7-4-10.4c-0.7-6.2-0.1-13.1,0.2-19.3c2.7,11.8,13.5,14.8,17.9,14.8C170.3,72.8,162.6,88.6,157.2,82.8z
			 M172.1,64.5c-5,0.3-8.9-2.1-10.8-6c-2-4.3-2.8-9-3-13.7c-0.1-3-0.1-6,0-9c0.2-4.4,1.3-9.1,2.9-13.3c1.4-3.6,5-10,9.5-5.8
			c0.9,0.7,1.5,1.9,2,3c3,6.7,3,14.3,2.8,21.6C175.4,45.2,175.1,49.1,172.1,64.5z M246.6,62c-0.9-2.9-1.2-6.1-0.1-9.3
			c0.1-0.2,0.2-0.6,0.6-0.5c2.5,2,4.7,3.6,7.9,4.3C253.9,64.6,248.3,68.9,246.6,62z M255.1,54.3c-2.9-0.8-5.2-2.3-6.1-4.7
			c-0.8-2.3-0.3-5,1.2-6.8c1-1.3,3-0.7,3.8,0.3C256.4,45.5,255.8,51,255.1,54.3z"/>
	</g>
</g>
</svg>
