<?xml version="1.0" encoding="utf-8"?>
<!-- Generator: Adobe Illustrator 22.0.1, SVG Export Plug-In . SVG Version: 6.00 Build 0)  -->
<svg version="1.1" id="Layer_1" xmlns="http://www.w3.org/2000/svg" xmlns:xlink="http://www.w3.org/1999/xlink" x="0px" y="0px"
	 viewBox="0 0 500 500" style="enable-background:new 0 0 500 500;" xml:space="preserve">
<style type="text/css">
	.st0{fill:none;stroke:#000000;stroke-width:0;stroke-linecap:round;stroke-linejoin:round;stroke-miterlimit:10;}
</style>
<g id="POLYLINE_1_">
	<path class="st0" d="M5,171.9v31.3l161.6,10.4l5.2,15.6l-5.2,125.1l15.6,10.4h26.1l15.6,15.6l31.3,10.4l20.9-5.2l15.6,15.6
		l36.5,5.2l41.7-5.2l10.4,10.4l15.6-5.2l31.3-5.2h31.3l36.5,20.9l-5.2-119.9l-5.2-26.1l-5.2-46.9v-10.4l-5.2-36.5H255.2L62.3,171.9
		L5,171.9"/>
</g>
<g id="HATCH_3_">
	<path d="M5,171.9v31.3l161.6,10.4l5.2,15.6l-5.2,125.1l15.6,10.4h26.1l15.6,15.6l31.3,10.4l20.9-5.2l15.6,15.6l36.5,5.2l41.7-5.2
		l10.4,10.4l15.6-5.2l31.3-5.2h31.3l36.5,20.9l-5.2-119.9l-5.2-26.1l-5.2-46.9v-10.4l-5.2-36.5H255.2L62.3,171.9L5,171.9
		C5,171.9,5,171.9,5,171.9z"/>
</g>
<g id="SPLINE_19_">
	<path class="st0" d="M398.3,116.1c-0.8-0.7-1.7,0.3-1.7,0.3c-1.6,2.5-3.4,5.5-4.3,6.9c-1.4,2.3-4.1,7.2-5.3,7.2
		c-2.4,0-1-8.3-0.8-10c0.5-3.5,1.4-7,1.9-10.5c0.2-1.5,0.2-2.7-1.7-3.2c-2.1-0.6-3.5,0-4.3,1.6l-2.9,5.4c-1-2.5-1.8-5.6-4.6-6.8
		c-6.5-1.8-9.5,5.6-10.5,12.4c-4.1,7.3-9.9,21.4-11.6,19.5c-0.3-0.2-0.4-0.6-0.4-1c-0.1-1.6,0.2-3.3,0.4-5
		c0.7-7.2,2.4-14.1,3.4-21.3c0.2-1.6,0.4-3.1,0-4.6c-1-3.5-6.8-5-8.6-1.4c-2.4,4.7-4,10.1-6.1,15.8c-0.2-4.1,0.1-7.9-0.4-12
		c-0.2-1.8-1.1-3.1-3.1-3.4c-2.9-0.5-4.8,1.7-5.6,4.2c-1.7,4.6-3.1,9.4-4.7,13.9c0.2-5,0.4-10,0.6-15c0-0.4,0-0.8-0.2-1.2
		c-0.5-1.4-3.9-1.1-5-1c-1.4,0.1-1.1,1.6-1.2,2.6c-0.1,3.2-0.3,6.3-0.4,9.5c-1.1,1.4-2.5,2.6-4.4,3.1c0.3-2.5,0.5-5.1,0.1-7.6
		c-1.7-8.4-11.2-8.8-14.3-1.4c-0.6,1.4-1.1,3.3-1.6,5.2c-0.4,0.7-0.8,1.4-1.2,2l-11.7,19.5c0-3.9,2.6-15.9,2.6-16.2
		c0,0,0.6-3.2,0.9-4.8c0.6-3.5,1.8-11.4-4.3-10c-3.6,0.7-6.6,6.6-8.2,9.1c0-1.2,0.1-7.5,0.7-8.2c5.2-5.7,9.2-13.2,10.6-20.5
		c0.7-4.2-1.1-7.1-4.9-7.2c-5.7-0.2-8.4,5.3-9.9,10.1c-2.3,7.8-2.7,16.6-3.4,24.6c-0.1,1-0.2,1.9-0.2,2.9c-1,1.6-1.9,3-2.4,3.9
		c-1.4,2.3-4.1,7.2-5.3,7.2c-2.4,0-1-8.3-0.8-10c0.5-3.5,1.4-7,1.9-10.5c0.2-1.5,0.2-2.7-1.7-3.2c-2.1-0.6-3.5,0-4.3,1.6l-2.9,5.4
		c-1-2.5-1.8-5.6-4.6-6.8c-6.4-1.8-9.4,5.4-10.4,12.1c-1.9,3-3.6,5.9-5.5,8.7c-2.7,4.3-5.9,3.7-7-0.9c-1.1-4.3-0.1-12,0.1-16.3
		c0-0.6,0.2-1.5,0.6-2c3.4-4.5,5.5-8.3,7.6-13.3c1.4-3.6,2.4-7.3,2.3-11.1c-0.1-2.7-1.5-4.6-3.4-4.9c-3.1-0.4-5.8,0.5-7.5,3.3
		c-0.9,1.5-1.8,3-2.3,4.7c-3.7,10.8-4.4,21.8-3.8,32.5c-3,4.9-5.6,9.8-8.1,14.6c-0.9,2.1-2,3.8-2,0.2c0-4.1-0.1-8.1-0.4-12.1
		c-0.1-1.4-0.1-2.7-0.6-4c-0.3-0.8-0.9-1.7-1.8-2.3c-0.4-0.2-2-0.9-2.3-0.5c2.3-3.1,4.4-6.3,6.7-9.4c0.1,0,0.2-0.1,0.2-0.2
		c0-0.3-0.3-0.4-0.5-0.5c-1.2-0.4-2.2-0.2-3,0.8c-2.4,3.1-4.6,6.5-7.1,9.6l0.4-8c4.4-6.1,7.3-11.8,9.2-18.1c0.6-2.2,0.9-4.6,0.9-7
		c0-4.1-3-5.9-6.9-4.7c-1.9,0.6-3.7,2.1-4.8,3.7c-1.4,2.2-2.2,5-2.5,7.5c-1.3,9.4-2.1,18.9-2.6,28.4c-1.6,2.5-3.2,4.9-5.1,7.2
		c-2.1,2.5-4.6,4.8-7.7,5.9c1-6.3,2.2-13.1,2.6-19.7c0.5-7,0.5-14-2-20.8c-0.9-2.8-2.3-5.4-5.6-6.1c-3.4-0.7-6.8,0-9.5,2.5
		c-3.7,3.5-5.8,8.1-7.2,13.1c-1.6,5.9-2.7,11.9-3.2,17.9c-0.6,5.6-1.1,11.9-0.6,17.6c0.8,5.7,1.6,14,8.7,14.9c3.2,0.3,6-0.5,8.3-2.8
		c3.2-3.4,5.3-7.7,7-12.1c0.2-0.6,0.5-1.1,0.9-1.8c4.1-1.1,7.4-4.8,9.4-7c1.3-1.5,2.6-3.2,3.8-4.9c-0.2,3.1-0.2,6.4,0.7,9.4
		c0.5,1.7,2.1,2.2,4,1.9c1.8-0.2,1.9-1.6,1.8-11.7c0-2,2.9-4.6,3.3-1.5c0.5,4.6,0.4,9.4,0.7,13.9c0.2,2.8,1.4,6.9,4.8,6
		c1.4-0.2,2.1-1.7,2.7-2.7c1.3-2.5,4.9-9.2,7.7-14.1c0.4,4,1.4,8,5.6,9.5c2.8,0.9,6,0.4,7.8-2.1c1.7-2.4,3.3-4.8,4.8-7.2
		c0,1.1,0,2.1,0.1,2.9c0.1,1.4,0.6,2.8,1.4,4.1c2.2,3.4,7.6,3.2,9.5-0.2c1.7-3,3-6.3,4.7-9.5c0,2.3-0.1,4.6,0,7
		c0.2,3.5,3.7,6.9,7.3,5.4c3.5-1.5,5.3-5.6,7.2-8.6c0.2-0.3,0.5-0.7,0.7-1.1c0,0.8,0,1.6,0,2.5c0,1.9-1,7.6,2.3,7.6
		c1.4,0,2.4-0.2,2.7-1.8c2-11.9,8.6-19.2,10.3-20.5c-1.2,5.5-2.9,12.1-3.7,17.2c-0.7,4.3-2.2,13.6,3.1,14.3c1.1,0,2.3-0.6,3.1-1.4
		c0.8-0.8,1.4-1.9,1.9-2.9c4.3-7.4,7-12,8.7-14.9c-0.2,4.9,1.4,9.6,6.9,10.6c2.7,0.5,5-0.7,6.6-2.8c1.5-2,2.2-4.6,2.8-7
		c1.8-0.3,3.2-1.2,4.5-2.3c0,3,0.1,6.1,0.3,9.1c0.2,1.4,0.7,2.3,2.1,2.6c2,0.4,3.5-0.1,4.1-1.9c2.3-7.7,4.4-14.6,7-21.4
		c0,13.2-0.6,18,0.4,22.8c0.1,0.6,0.3,1.4,0.8,1.8c0.8,0.5,2.4,0.5,3.2-0.1c1.1-0.8,1.6-2.6,2-3.8c1.5-5,2.9-10,4.6-15
		c4.7-15.5,2.4,0.5,1.4,5.7c-0.7,3.8-1.4,7.7-1.9,11.7c-0.2,1.7-0.3,3.4,0,5.1c0.5,3.4,4.1,6.5,7.7,4.5c2.2-1.1,3.5-4.2,4.7-6.3
		c2.1-3.9,4.2-8,6.4-12c0,0.7,0,1.4,0.1,1.9c0.1,1.4,0.6,2.8,1.4,4.1c2.2,3.4,7.6,3.2,9.5-0.2c1.7-3,3-6.3,4.7-9.5
		c0,2.3-0.1,4.6,0,7c0.2,3.5,3.7,6.9,7.3,5.4c3.5-1.5,5.3-5.6,7.2-8.6c1.1-1.7,3.1-4.9,4.3-6.7C398.2,117.8,399.1,116.6,398.3,116.1
		z"/>
</g>
<g id="SPLINE_18_">
	<path class="st0" d="M285.2,85.5c0.4-0.5,0.8-1.1,1.7-1c4.2,1.2,0.6,9.2,0,11c-1.4,3.7-4.4,8.2-6.8,11.4
		C280.4,100.3,281.9,91.6,285.2,85.5z"/>
</g>
<g id="SPLINE_17_">
	<path class="st0" d="M236,81.5c3.7,2.7-1.2,18.3-6.6,23.7C230.8,97,232.7,84.4,236,81.5z"/>
</g>
<g id="SPLINE_16_">
	<path class="st0" d="M210.7,80.7c4.3-0.1,0.3,10.8-1.1,14.6c-1.1,2.8-3.7,7.2-5.3,9.5C205.4,96.8,206.1,80.9,210.7,80.7z"/>
</g>
<g id="SPLINE_15_">
	<path class="st0" d="M168.6,147.3c-1.9-2.1-3.2-6-3.6-9.4c-0.6-5.6-0.1-11.8,0.2-17.4c2.4,10.6,12.2,13.3,16.1,13.3
		C180.4,138.4,173.5,152.5,168.6,147.3z"/>
</g>
<g id="SPLINE_14_">
	<path class="st0" d="M182.1,130.9c-4.5,0.3-8-1.9-9.7-5.4c-1.8-3.8-2.5-8.1-2.7-12.3c-0.1-2.7-0.1-5.4,0-8.1c0.2-4,1.1-8.2,2.6-12
		c1.2-3.2,4.5-8.9,8.5-5.2c0.8,0.6,1.4,1.7,1.8,2.7c2.7,6,2.7,12.9,2.5,19.5C185,113.5,184.8,117.1,182.1,130.9z"/>
</g>
<g id="SPLINE_13_">
	<path class="st0" d="M249.2,130.6c-2.8,0-1.2-9.6-0.9-12.1c0.3-1.9,1-9.4,3.7-9.1C259,113.4,250.6,130.6,249.2,130.6z"/>
</g>
<g id="SPLINE_12_">
	<path class="st0" d="M307.2,128.6c-0.8-2.6-1-5.5-0.1-8.3c0.1-0.2,0.2-0.5,0.5-0.4c2.3,1.8,4.3,3.2,7.1,3.8
		C313.8,131,308.7,134.9,307.2,128.6z"/>
</g>
<g id="SPLINE_11_">
	<path class="st0" d="M314.8,121.7c-2.6-0.7-4.7-2.1-5.5-4.3c-0.7-2.1-0.3-4.5,1-6.1c0.9-1.1,2.7-0.6,3.4,0.3
		C315.9,113.8,315.4,118.7,314.8,121.7z"/>
</g>
<g id="SPLINE_10_">
	<path class="st0" d="M371.7,130.6c-2.8,0-1.2-9.6-0.9-12.1c0.3-1.9,1-9.4,3.7-9.1C381.6,113.4,373.2,130.6,371.7,130.6z"/>
</g>
<g id="HATCH_2_">
	<path d="M398.3,116.1c-0.8-0.7-1.7,0.3-1.7,0.3c-1.6,2.5-3.4,5.5-4.3,6.9c-1.4,2.3-4.1,7.2-5.3,7.2c-2.4,0-1-8.3-0.8-10
		c0.5-3.5,1.4-7,1.9-10.5c0.2-1.5,0.2-2.7-1.7-3.2c-2.1-0.6-3.5,0-4.3,1.6l-2.9,5.4c-1-2.5-1.8-5.6-4.6-6.8
		c-6.5-1.8-9.5,5.6-10.5,12.4c-4.1,7.3-9.9,21.4-11.6,19.5c-0.3-0.2-0.4-0.6-0.4-1c-0.1-1.6,0.2-3.3,0.4-5
		c0.7-7.2,2.4-14.1,3.4-21.3c0.2-1.6,0.4-3.1,0-4.6c-1-3.5-6.8-5-8.6-1.4c-2.4,4.7-4,10.1-6.1,15.8c-0.2-4.1,0.1-7.9-0.4-12
		c-0.2-1.8-1.1-3.1-3.1-3.4c-2.9-0.5-4.8,1.7-5.6,4.2c-1.7,4.6-3.1,9.4-4.7,13.9c0.2-5,0.4-10,0.6-15c0-0.4,0-0.8-0.2-1.2
		c-0.5-1.4-3.9-1.1-5-1c-1.4,0.1-1.1,1.6-1.2,2.6c-0.1,3.2-0.3,6.3-0.4,9.5c-1.1,1.4-2.5,2.6-4.4,3.1c0.3-2.5,0.5-5.1,0.1-7.6
		c-1.7-8.4-11.2-8.8-14.3-1.4c-0.6,1.4-1.1,3.3-1.6,5.2c-0.4,0.7-0.8,1.4-1.2,2l-11.7,19.5c0-3.9,2.6-15.9,2.6-16.2
		c0,0,0.6-3.2,0.9-4.8c0.6-3.5,1.8-11.4-4.3-10c-3.6,0.7-6.6,6.6-8.2,9.1c0-1.2,0.1-7.5,0.7-8.2c5.2-5.7,9.2-13.2,10.6-20.5
		c0.7-4.2-1.1-7.1-4.9-7.2c-5.7-0.2-8.4,5.3-9.9,10.1c-2.3,7.8-2.7,16.6-3.4,24.6c-0.1,1-0.2,1.9-0.2,2.9c-1,1.6-1.9,3-2.4,3.9
		c-1.4,2.3-4.1,7.2-5.3,7.2c-2.4,0-1-8.3-0.8-10c0.5-3.5,1.4-7,1.9-10.5c0.2-1.5,0.2-2.7-1.7-3.2c-2.1-0.6-3.5,0-4.3,1.6l-2.9,5.4
		c-1-2.5-1.8-5.6-4.6-6.8c-6.4-1.8-9.4,5.4-10.4,12.1c-1.9,3-3.6,5.9-5.5,8.7c-2.7,4.3-5.9,3.7-7-0.9c-1.1-4.3-0.1-12,0.1-16.3
		c0-0.6,0.2-1.5,0.6-2c3.4-4.5,5.5-8.3,7.6-13.3c1.4-3.6,2.4-7.3,2.3-11.1c-0.1-2.7-1.5-4.6-3.4-4.9c-3.1-0.4-5.8,0.5-7.5,3.3
		c-0.9,1.5-1.8,3-2.3,4.7c-3.7,10.8-4.4,21.8-3.8,32.5c-3,4.9-5.6,9.8-8.1,14.6c-0.9,2.1-2,3.8-2,0.2c0-4.1-0.1-8.1-0.4-12.1
		c-0.1-1.4-0.1-2.7-0.6-4c-0.3-0.8-0.9-1.7-1.8-2.3c-0.4-0.2-2-0.9-2.3-0.5c2.3-3.1,4.4-6.3,6.7-9.4c0.1,0,0.2-0.1,0.2-0.2
		c0-0.3-0.3-0.4-0.5-0.5c-1.2-0.4-2.2-0.2-3,0.8c-2.4,3.1-4.6,6.5-7.1,9.6l0.4-8c4.4-6.1,7.3-11.8,9.2-18.1c0.6-2.2,0.9-4.6,0.9-7
		c0-4.1-3-5.9-6.9-4.7c-1.9,0.6-3.7,2.1-4.8,3.7c-1.4,2.2-2.2,5-2.5,7.5c-1.3,9.4-2.1,18.9-2.6,28.4c-1.6,2.5-3.2,4.9-5.1,7.2
		c-2.1,2.5-4.6,4.8-7.7,5.9c1-6.3,2.2-13.1,2.6-19.7c0.5-7,0.5-14-2-20.8c-0.9-2.8-2.3-5.4-5.6-6.1c-3.4-0.7-6.8,0-9.5,2.5
		c-3.7,3.5-5.8,8.1-7.2,13.1c-1.6,5.9-2.7,11.9-3.2,17.9c-0.6,5.6-1.1,11.9-0.6,17.6c0.8,5.7,1.6,14,8.7,14.9c3.2,0.3,6-0.5,8.3-2.8
		c3.2-3.4,5.3-7.7,7-12.1c0.2-0.6,0.5-1.1,0.9-1.8c4.1-1.1,7.4-4.8,9.4-7c1.3-1.5,2.6-3.2,3.8-4.9c-0.2,3.1-0.2,6.4,0.7,9.4
		c0.5,1.7,2.1,2.2,4,1.9c1.8-0.2,1.9-1.6,1.8-11.7c0-2,2.9-4.6,3.3-1.5c0.5,4.6,0.4,9.4,0.7,13.9c0.2,2.8,1.4,6.9,4.8,6
		c1.4-0.2,2.1-1.7,2.7-2.7c1.3-2.5,4.9-9.2,7.7-14.1c0.4,4,1.4,8,5.6,9.5c2.8,0.9,6,0.4,7.8-2.1c1.7-2.4,3.3-4.8,4.8-7.2
		c0,1.1,0,2.1,0.1,2.9c0.1,1.4,0.6,2.8,1.4,4.1c2.2,3.4,7.6,3.2,9.5-0.2c1.7-3,3-6.3,4.7-9.5c0,2.3-0.1,4.6,0,7
		c0.2,3.5,3.7,6.9,7.3,5.4c3.5-1.5,5.3-5.6,7.2-8.6c0.2-0.3,0.5-0.7,0.7-1.1c0,0.8,0,1.6,0,2.5c0,1.9-1,7.6,2.3,7.6
		c1.4,0,2.4-0.2,2.7-1.8c2-11.9,8.6-19.2,10.3-20.5c-1.2,5.5-2.9,12.1-3.7,17.2c-0.7,4.3-2.2,13.6,3.1,14.3c1.1,0,2.3-0.6,3.1-1.4
		c0.8-0.8,1.4-1.9,1.9-2.9c4.3-7.4,7-12,8.7-14.9c-0.2,4.9,1.4,9.6,6.9,10.6c2.7,0.5,5-0.7,6.6-2.8c1.5-2,2.2-4.6,2.8-7
		c1.8-0.3,3.2-1.2,4.5-2.3c0,3,0.1,6.1,0.3,9.1c0.2,1.4,0.7,2.3,2.1,2.6c2,0.4,3.5-0.1,4.1-1.9c2.3-7.7,4.4-14.6,7-21.4
		c0,13.2-0.6,18,0.4,22.8c0.1,0.6,0.3,1.4,0.8,1.8c0.8,0.5,2.4,0.5,3.2-0.1c1.1-0.8,1.6-2.6,2-3.8c1.5-5,2.9-10,4.6-15
		c4.7-15.5,2.4,0.5,1.4,5.7c-0.7,3.8-1.4,7.7-1.9,11.7c-0.2,1.7-0.3,3.4,0,5.1c0.5,3.4,4.1,6.5,7.7,4.5c2.2-1.1,3.5-4.2,4.7-6.3
		c2.1-3.9,4.2-8,6.4-12c0,0.7,0,1.4,0.1,1.9c0.1,1.4,0.6,2.8,1.4,4.1c2.2,3.4,7.6,3.2,9.5-0.2c1.7-3,3-6.3,4.7-9.5
		c0,2.3-0.1,4.6,0,7c0.2,3.5,3.7,6.9,7.3,5.4c3.5-1.5,5.3-5.6,7.2-8.6c1.1-1.7,3.1-4.9,4.3-6.7C398.2,117.8,399.1,116.6,398.3,116.1
		z M285.2,85.5c0.4-0.5,0.8-1.1,1.7-1c4.2,1.2,0.6,9.2,0,11c-1.4,3.7-4.4,8.2-6.8,11.4C280.4,100.3,281.9,91.6,285.2,85.5z
		 M236,81.5c3.7,2.7-1.2,18.3-6.6,23.7C230.8,97,232.7,84.4,236,81.5z M210.7,80.7c4.3-0.1,0.3,10.8-1.1,14.6
		c-1.1,2.8-3.7,7.2-5.3,9.5C205.4,96.8,206.1,80.9,210.7,80.7z M168.6,147.3c-1.9-2.1-3.2-6-3.6-9.4c-0.6-5.6-0.1-11.8,0.2-17.4
		c2.4,10.6,12.2,13.3,16.1,13.3C180.4,138.4,173.5,152.5,168.6,147.3z M182.1,130.9c-4.5,0.3-8-1.9-9.7-5.4
		c-1.8-3.8-2.5-8.1-2.7-12.3c-0.1-2.7-0.1-5.4,0-8.1c0.2-4,1.1-8.2,2.6-12c1.2-3.2,4.5-8.9,8.5-5.2c0.8,0.6,1.4,1.7,1.8,2.7
		c2.7,6,2.7,12.9,2.5,19.5C185,113.5,184.8,117.1,182.1,130.9z M249.2,130.6c-2.8,0-1.2-9.6-0.9-12.1c0.3-1.9,1-9.4,3.7-9.1
		C259,113.4,250.6,130.6,249.2,130.6z M307.2,128.6c-0.8-2.6-1-5.5-0.1-8.3c0.1-0.2,0.2-0.5,0.5-0.4c2.3,1.8,4.3,3.2,7.1,3.8
		C313.8,131,308.7,134.9,307.2,128.6z M314.8,121.7c-2.6-0.7-4.7-2.1-5.5-4.3c-0.7-2.1-0.3-4.5,1-6.1c0.9-1.1,2.7-0.6,3.4,0.3
		C315.9,113.8,315.4,118.7,314.8,121.7z M371.7,130.6c-2.8,0-1.2-9.6-0.9-12.1c0.3-1.9,1-9.4,3.7-9.1
		C381.6,113.4,373.2,130.6,371.7,130.6z"/>
</g>
</svg>
