<?xml version="1.0" encoding="utf-8"?>
<!-- Generator: Adobe Illustrator 22.0.1, SVG Export Plug-In . SVG Version: 6.00 Build 0)  -->
<svg version="1.1" id="Layer_1" xmlns="http://www.w3.org/2000/svg" xmlns:xlink="http://www.w3.org/1999/xlink" x="0px" y="0px"
	 viewBox="0 0 500 500" style="enable-background:new 0 0 500 500;" xml:space="preserve">
<style type="text/css">
	.st0{fill:none;stroke:#000000;stroke-width:0;stroke-linecap:round;stroke-linejoin:round;stroke-miterlimit:10;}
</style>
<g id="POLYLINE_1_">
	<polyline class="st0" points="5,369.8 232.9,455.3 403.8,495.2 432.3,364.1 443.7,347 438,324.3 426.6,307.2 489.3,238.8 
		495,210.3 477.9,187.5 443.7,181.8 381,159 312.7,159 255.7,153.3 232.9,141.9 187.3,141.9 170.2,130.5 175.9,119.1 181.6,102 
		164.5,85 158.8,73.6 124.7,67.9 107.6,124.8 50.6,244.5 5,312.9 5,335.6 5,352.7 5,369.8 5,369.8 	"/>
</g>
<g id="HATCH_3_">
	<path d="M5,369.8l227.9,85.5l170.9,39.9l28.5-131l11.4-17.1l-5.7-22.8l-11.4-17.1l62.7-68.4l5.7-28.5l-17.1-22.8l-34.2-5.7L381,159
		h-68.4l-57-5.7l-22.8-11.4h-45.6l-17.1-11.4l5.7-11.4l5.7-17.1L164.5,85l-5.7-11.4l-34.2-5.7l-17.1,57l-57,119.7L5,312.9v22.8v17.1
		L5,369.8C5,369.8,5,369.8,5,369.8z"/>
</g>
<g id="SPLINE_17_">
	<path class="st0" d="M492.1,56.4c-1.5-1.2-2.7,0.5-2.7,0.5c-1,1.5-1.8,3-2.8,4.7c-6.3,10.5-12.7,21-19,31.6c0-14.7,5.8-28.9,7-43.8
		c0.3-5.5-1.8-11.9-8-9.9c-8.5,2.8-16.5,22.2-19.4,29.2c0-8,1-16,1-24.1c0-1.2,0-2.2-0.7-3c-0.8-1.8-3.3-1.8-5.2-1.8
		c-1.8,0.2-3.8,0.5-4.7,2c-0.3,0.7-0.3,1.3-0.3,2.2c-0.2,5.6-0.3,11.3-0.3,17c-1.7,2-3.9,3.7-6.7,4.6c0.5-4,0.8-8.2,0.2-12.2
		c-2.7-13.5-18-14.2-22.9-2.2c-0.9,2.3-1.8,5.1-2.5,8.2l-14.4,21.2c1.2-12,1.7-22.7,2.3-33.6c0.2-2.2,0-4.3-3-4.7
		c-3.5-0.3-4.8,0.5-8.2,9.5c-2.2-4.7-4.7-10.5-11-10.7c-10.2-0.2-14.4,10.4-16.1,20.3c-1.9,3-3.3,5.2-4,6.2c-1.2,2-2.3,4.2-3.8,6.3
		c-2,2.8-3.7,5.2-7.2,6.5c-1.7,0.5-3.3,0.8-5,0.3c-1.3-0.5-2.3-1.5-3.2-2.5c-2.7-3.7-2.8-9.4-1.5-13.4c0-0.2,0.2-0.3,0.3-0.7
		c0.3-0.3,0.7-0.3,0.8-0.5c3.2-1.7,6.2-3.7,8.7-6.2c2.3-2.3,4.2-5.3,5-8.5c2-6.3-1.7-10.9-8.2-9.5c-2.8,0.5-5.7,1.8-7.9,3.7
		c-4.7,3.5-7.2,9-8.2,14.5c0,0.1,0,0.2,0,0.2c-2.3,3.7-4.8,7.7-6,9.6c-2.3,3.7-4.5,7.5-7.4,10.7c-3.2,3.2-4.8-0.8-4.8-3.3
		c0.2-9.4,3.7-19.5,6-28.6c1.3-5.2,0.7-6.2-4.8-6c-5.3,0-8.2,0.2-8.7,0c0.7-3.7,1.8-10.9-1-13.7c-1.2-1.3-3.3-1.3-5-1
		c-7.7,1.7-12.2,13.4-4.3,16.9c1.7,0.7,4,1.2,5.8,1.7c0.2,0-5.8,9.1-7.8,12.3c0,0,0,0,0,0c-3,4.7-6,9.5-9.7,13.9
		c-3.3,4-7.4,7.7-12.4,9.5c1.7-10.2,3.5-21,4.2-31.6c0.8-11.2,0.8-22.6-3.2-33.4c-1.5-4.5-3.7-8.7-9-9.9c-5.5-1.2-10.9,0-15.2,4
		c-6,5.7-9.4,13-11.5,21c-2.5,9.5-4.3,19-5.2,28.7c-1,9-1.8,19-1,28.2c1.3,9.2,2.5,22.6,14,23.9c5.2,0.5,9.7-0.8,13.4-4.5
		c5.2-5.5,8.5-12.4,11.2-19.4c0.3-1,0.8-1.8,1.5-2.8c6.5-1.8,11.9-7.7,15-11.2c3.8-4.3,7.1-9.3,10.1-14.1c0.2-0.2,0.2-0.3,0.2-0.3
		c2.2-3.3,7.9-12.2,9-14.5l5.3,0.2c-2,7-4,13.7-4.8,20.9c-0.3,2.3-0.7,4.7-0.7,7.2c0,3,0.7,6.8,3.2,8.9c9.5,8.2,16.4-5.8,20-11.9
		c0.7-1.1,1.7-2.5,2.7-4.1c-0.1,4,0.4,7.9,2.2,11.9c2.5,6.2,9.9,8.2,15.9,7c8-1.7,11.4-8.5,15.4-14.7c0.2-0.3,0.4-0.6,0.7-1
		c-0.1,1.9-0.2,3.7-0.2,5.2c0,8.2,11.2,14.4,17,4.8c3.7-6.2,7.2-12.4,11.2-19.4c-1.8,28.6,0.2,25.4-2.5,28.6
		c-7.7,7.5-14.5,12.9-21,21.5c-4.7,6.5-8.4,13.9-9,21.9c-1,12.5,8,18.9,18.5,15c9-3.2,13.7-10,16.5-18.7c0.3-0.8,0.5-1.7,0.7-2.5
		c2-6.7,3-13.5,3.7-20.4c1.5-14.9,1.5-18.7,1.8-19c4.6-5.2,8.6-11.1,13.3-18.4c-0.4,8.1,2,15.8,11.1,17.4c4.3,0.8,8-1.2,10.5-4.5
		c2.3-3.2,3.5-7.4,4.5-11.2c2.8-0.5,5-1.8,6.9-3.5c0.1,5.8,0.3,11.5,0.6,17.2c0,0.8,0,1.5,0.7,2c0.3,0.5,1,0.7,1.7,0.7
		c2.3,0,5.2,0,6.7-1.8c0.5-0.8,0.7-1.8,0.8-2.8c3.2-12.7,8.2-25.2,16.5-35.1c0.3-0.3,0.8-0.7,1.2-0.7c0.7,0.2,0.5,1,0.3,1.7
		c-2.7,9.5-4.7,19.5-6.2,29.2c-0.8,4.5-1.3,9.2-1,13.7c0,2,0.3,4,1.3,5.7c1,1.8,2.7,3.2,4.7,3.5c4.2,0.2,6.5-3.8,8-6.8
		c6.2-11.5,11.5-20,16.9-28.7c1-1.5,2-3,2.7-4.2C492,59,493.1,57.2,492.1,56.4z"/>
</g>
<g id="SPLINE_16_">
	<path class="st0" d="M331.3,57.4c0.5-2.2,1.3-4.3,2.2-6.5c0.7-1.3,5.5-10.9,6.8-6.8c1.3,3.5,0,7-2,9.9c-1,1.3-2,2.2-3.2,3.3
		c-0.3,0.2-4,3-4,2.8C331.1,59,331.1,58.2,331.3,57.4z"/>
</g>
<g id="SPLINE_15_">
	<path class="st0" d="M234.5,106.3c-3-3.3-5.2-9.7-5.8-15c-1-9-0.2-18.9,0.3-27.9c3.8,17,19.5,21.4,25.9,21.4
		C253.4,91.9,242.4,114.7,234.5,106.3z"/>
</g>
<g id="SPLINE_14_">
	<path class="st0" d="M256.1,79.9c-7.2,0.5-12.9-3-15.5-8.7c-2.8-6.2-4-13-4.3-19.7c-0.2-4.3-0.2-8.7,0-13
		c0.3-6.3,1.8-13.2,4.2-19.2c2-5.2,7.2-14.4,13.7-8.4c1.3,1,2.2,2.7,2.8,4.3c4.3,9.7,4.3,20.7,4,31.2
		C260.8,52,260.4,57.7,256.1,79.9z"/>
</g>
<g id="SPLINE_13_">
	<path class="st0" d="M290.7,39.3c-2.2-4-2-7.2,0-11C292.3,32.1,292,35.3,290.7,39.3z"/>
</g>
<g id="SPLINE_12_">
	<path class="st0" d="M377,61c-2.8,5-5.3,10.2-10.4,17.9c-6.3-5.8-1.7-31.2,6-34.4C378.4,48,380.5,55.7,377,61z"/>
</g>
<g id="SPLINE_11_">
	<path class="st0" d="M376.2,126.7c-1.5,6.3-3.8,13-9.7,16c-1.3,0.7-2.8,1.2-4.2,1c-7.2-0.3-8-10.2-7.2-15.4
		c1.3-7.5,5-14.5,9.9-20.5c5-6.5,9.9-11.4,16.4-16.5C379.4,103.3,378.9,115.2,376.2,126.7z"/>
</g>
<g id="SPLINE_10_">
	<path class="st0" d="M414.8,76.2c-1.3-4.2-1.7-8.9-0.2-13.4c0.2-0.3,0.3-0.8,0.8-0.7c3.7,2.8,6.8,5.2,11.4,6.2
		C425.3,80.1,417.1,86.3,414.8,76.2z"/>
</g>
<g id="SPLINE_9_">
	<path class="st0" d="M427,65.2c-4.2-1.2-7.5-3.3-8.9-6.8c-1.2-3.3-0.5-7.2,1.7-9.9c1.5-1.8,4.3-1,5.5,0.5
		C428.8,52.5,428,60.4,427,65.2z"/>
</g>
<g id="HATCH_2_">
	<path d="M492.1,56.4c-1.5-1.2-2.7,0.5-2.7,0.5c-1,1.5-1.8,3-2.8,4.7c-6.3,10.5-12.7,21-19,31.6c0-14.7,5.8-28.9,7-43.8
		c0.3-5.5-1.8-11.9-8-9.9c-8.5,2.8-16.5,22.2-19.4,29.2c0-8,1-16,1-24.1c0-1.2,0-2.2-0.7-3c-0.8-1.8-3.3-1.8-5.2-1.8
		c-1.8,0.2-3.8,0.5-4.7,2c-0.3,0.7-0.3,1.3-0.3,2.2c-0.2,5.6-0.3,11.3-0.3,17c-1.7,2-3.9,3.7-6.7,4.6c0.5-4,0.8-8.2,0.2-12.2
		c-2.7-13.5-18-14.2-22.9-2.2c-0.9,2.3-1.8,5.1-2.5,8.2l-14.4,21.2c1.2-12,1.7-22.7,2.3-33.6c0.2-2.2,0-4.3-3-4.7
		c-3.5-0.3-4.8,0.5-8.2,9.5c-2.2-4.7-4.7-10.5-11-10.7c-10.2-0.2-14.4,10.4-16.1,20.3c-1.9,3-3.3,5.2-4,6.2c-1.2,2-2.3,4.2-3.8,6.3
		c-2,2.8-3.7,5.2-7.2,6.5c-1.7,0.5-3.3,0.8-5,0.3c-1.3-0.5-2.3-1.5-3.2-2.5c-2.7-3.7-2.8-9.4-1.5-13.4c0-0.2,0.2-0.3,0.3-0.7
		c0.3-0.3,0.7-0.3,0.8-0.5c3.2-1.7,6.2-3.7,8.7-6.2c2.3-2.3,4.2-5.3,5-8.5c2-6.3-1.7-10.9-8.2-9.5c-2.8,0.5-5.7,1.8-7.9,3.7
		c-4.7,3.5-7.2,9-8.2,14.5c0,0.1,0,0.2,0,0.2c-2.3,3.7-4.8,7.7-6,9.6c-2.3,3.7-4.5,7.5-7.4,10.7c-3.2,3.2-4.8-0.8-4.8-3.3
		c0.2-9.4,3.7-19.5,6-28.6c1.3-5.2,0.7-6.2-4.8-6c-5.3,0-8.2,0.2-8.7,0c0.7-3.7,1.8-10.9-1-13.7c-1.2-1.3-3.3-1.3-5-1
		c-7.7,1.7-12.2,13.4-4.3,16.9c1.7,0.7,4,1.2,5.8,1.7c0.2,0-5.8,9.1-7.8,12.3c0,0,0,0,0,0c-3,4.7-6,9.5-9.7,13.9
		c-3.3,4-7.4,7.7-12.4,9.5c1.7-10.2,3.5-21,4.2-31.6c0.8-11.2,0.8-22.6-3.2-33.4c-1.5-4.5-3.7-8.7-9-9.9c-5.5-1.2-10.9,0-15.2,4
		c-6,5.7-9.4,13-11.5,21c-2.5,9.5-4.3,19-5.2,28.7c-1,9-1.8,19-1,28.2c1.3,9.2,2.5,22.6,14,23.9c5.2,0.5,9.7-0.8,13.4-4.5
		c5.2-5.5,8.5-12.4,11.2-19.4c0.3-1,0.8-1.8,1.5-2.8c6.5-1.8,11.9-7.7,15-11.2c3.8-4.3,7.1-9.3,10.1-14.1c0.2-0.2,0.2-0.3,0.2-0.3
		c2.2-3.3,7.9-12.2,9-14.5l5.3,0.2c-2,7-4,13.7-4.8,20.9c-0.3,2.3-0.7,4.7-0.7,7.2c0,3,0.7,6.8,3.2,8.9c9.5,8.2,16.4-5.8,20-11.9
		c0.7-1.1,1.7-2.5,2.7-4.1c-0.1,4,0.4,7.9,2.2,11.9c2.5,6.2,9.9,8.2,15.9,7c8-1.7,11.4-8.5,15.4-14.7c0.2-0.3,0.4-0.6,0.7-1
		c-0.1,1.9-0.2,3.7-0.2,5.2c0,8.2,11.2,14.4,17,4.8c3.7-6.2,7.2-12.4,11.2-19.4c-1.8,28.6,0.2,25.4-2.5,28.6
		c-7.7,7.5-14.5,12.9-21,21.5c-4.7,6.5-8.4,13.9-9,21.9c-1,12.5,8,18.9,18.5,15c9-3.2,13.7-10,16.5-18.7c0.3-0.8,0.5-1.7,0.7-2.5
		c2-6.7,3-13.5,3.7-20.4c1.5-14.9,1.5-18.7,1.8-19c4.6-5.2,8.6-11.1,13.3-18.4c-0.4,8.1,2,15.8,11.1,17.4c4.3,0.8,8-1.2,10.5-4.5
		c2.3-3.2,3.5-7.4,4.5-11.2c2.8-0.5,5-1.8,6.9-3.5c0.1,5.8,0.3,11.5,0.6,17.2c0,0.8,0,1.5,0.7,2c0.3,0.5,1,0.7,1.7,0.7
		c2.3,0,5.2,0,6.7-1.8c0.5-0.8,0.7-1.8,0.8-2.8c3.2-12.7,8.2-25.2,16.5-35.1c0.3-0.3,0.8-0.7,1.2-0.7c0.7,0.2,0.5,1,0.3,1.7
		c-2.7,9.5-4.7,19.5-6.2,29.2c-0.8,4.5-1.3,9.2-1,13.7c0,2,0.3,4,1.3,5.7c1,1.8,2.7,3.2,4.7,3.5c4.2,0.2,6.5-3.8,8-6.8
		c6.2-11.5,11.5-20,16.9-28.7c1-1.5,2-3,2.7-4.2C492,59,493.1,57.2,492.1,56.4z M331.3,57.4c0.5-2.2,1.3-4.3,2.2-6.5
		c0.7-1.3,5.5-10.9,6.8-6.8c1.3,3.5,0,7-2,9.9c-1,1.3-2,2.2-3.2,3.3c-0.3,0.2-4,3-4,2.8C331.1,59,331.1,58.2,331.3,57.4z
		 M234.5,106.3c-3-3.3-5.2-9.7-5.8-15c-1-9-0.2-18.9,0.3-27.9c3.8,17,19.5,21.4,25.9,21.4C253.4,91.9,242.4,114.7,234.5,106.3z
		 M256.1,79.9c-7.2,0.5-12.9-3-15.5-8.7c-2.8-6.2-4-13-4.3-19.7c-0.2-4.3-0.2-8.7,0-13c0.3-6.3,1.8-13.2,4.2-19.2
		c2-5.2,7.2-14.4,13.7-8.4c1.3,1,2.2,2.7,2.8,4.3c4.3,9.7,4.3,20.7,4,31.2C260.8,52,260.4,57.7,256.1,79.9z M290.7,39.3
		c-2.2-4-2-7.2,0-11C292.3,32.1,292,35.3,290.7,39.3z M377,61c-2.8,5-5.3,10.2-10.4,17.9c-6.3-5.8-1.7-31.2,6-34.4
		C378.4,48,380.5,55.7,377,61z M376.2,126.7c-1.5,6.3-3.8,13-9.7,16c-1.3,0.7-2.8,1.2-4.2,1c-7.2-0.3-8-10.2-7.2-15.4
		c1.3-7.5,5-14.5,9.9-20.5c5-6.5,9.9-11.4,16.4-16.5C379.4,103.3,378.9,115.2,376.2,126.7z M414.8,76.2c-1.3-4.2-1.7-8.9-0.2-13.4
		c0.2-0.3,0.3-0.8,0.8-0.7c3.7,2.8,6.8,5.2,11.4,6.2C425.3,80.1,417.1,86.3,414.8,76.2z M427,65.2c-4.2-1.2-7.5-3.3-8.9-6.8
		c-1.2-3.3-0.5-7.2,1.7-9.9c1.5-1.8,4.3-1,5.5,0.5C428.8,52.5,428,60.4,427,65.2z"/>
</g>
</svg>
