<?xml version="1.0" encoding="utf-8"?>
<!-- Generator: Adobe Illustrator 22.0.1, SVG Export Plug-In . SVG Version: 6.00 Build 0)  -->
<svg version="1.1" id="Layer_1" xmlns="http://www.w3.org/2000/svg" xmlns:xlink="http://www.w3.org/1999/xlink" x="0px" y="0px"
	 viewBox="0 0 500 500" style="enable-background:new 0 0 500 500;" xml:space="preserve">
<style type="text/css">
	.st0{fill:none;stroke:#000000;stroke-width:0;stroke-linecap:round;stroke-linejoin:round;stroke-miterlimit:10;}
</style>
<g id="POLYLINE_1_">
	<polyline class="st0" points="67.2,171.4 5,233.7 28.3,280.3 43.9,389.2 59.4,451.4 145,443.7 448.3,365.9 495,303.7 463.9,272.5 
		456.1,225.9 471.7,179.2 432.8,171.4 425,140.3 393.9,132.5 347.2,132.5 253.9,171.4 222.8,171.4 67.2,210.3 67.2,171.4 	"/>
</g>
<g id="HATCH_5_">
	<polygon points="67.2,171.4 5,233.7 28.3,280.3 43.9,389.2 59.4,451.4 145,443.7 448.3,365.9 495,303.7 463.9,272.5 456.1,225.9 
		471.7,179.2 432.8,171.4 425,140.3 393.9,132.5 347.2,132.5 253.9,171.4 222.8,171.4 67.2,210.3 67.2,171.4 	"/>
</g>
<g id="INSERT_1_">
	<g id="SPLINE_21_">
		<path class="st0" d="M317.6,68.1c2.4-2.7-1.9-5.3-3.6-2C313.1,68.5,316,69.6,317.6,68.1z"/>
	</g>
	<g id="HATCH_4_">
		<path d="M317.6,68.1c2.4-2.7-1.9-5.3-3.6-2C313.1,68.5,316,69.6,317.6,68.1z"/>
	</g>
	<g id="SPLINE_20_">
		<path class="st0" d="M359.9,85c-0.8-0.7-1.6,0.3-1.6,0.3c-1.5,2.5-3.4,5.4-4.2,6.8c-1.3,2.3-4,7.1-5.2,7.1c-2.4,0-1-8.2-0.8-9.8
			c0.5-3.5,1.3-6.9,1.8-10.3c0.2-1.4,0.2-2.7-1.6-3.2c-2-0.6-3.5,0-4.2,1.5l-2.9,5.3c-1-2.5-1.7-5.5-4.5-6.7
			c-6.4-1.8-9.3,5.5-10.3,12.1c-2.2,3.4-3.4,5.5-4.7,7.5c-0.7,1-1.3,2.4-2.5,3.1c-0.9,0.6-2,0.8-3,0.2c-0.6-0.4-1-1.1-1.2-1.8
			c-0.7-3.5,1.4-13.1,2.1-16.5c0.4-1.6,0.3-3.7-1.6-4c-2.6-0.4-4.1,0.2-4.4,2.1c-0.6,2.8-1.3,5.9-1.6,9c-0.1,0.2-0.2,0.4-0.4,0.6
			c-3.9,6.4-7.8,12.9-11.7,19.3c0-9,3.6-17.7,4.3-26.8c0.2-3.4-1.1-7.3-4.9-6c-5.2,1.7-10.1,13.6-11.9,17.9c0-4.9,0.6-9.8,0.6-14.7
			c0-0.7,0-1.3-0.4-1.8c-0.5-1.1-2-1.1-3.2-1.1c-1.1,0.1-2.4,0.3-2.9,1.2c-0.2,0.4-0.2,0.8-0.2,1.3c-0.1,3.5-0.2,7.1-0.2,10.7
			c-1,1.6-1.9,3-2.4,3.9c-1.3,2.3-4,7.1-5.2,7.1c-2.4,0-1-8.2-0.8-9.8c0.5-3.5,1.3-6.9,1.8-10.3c0.2-1.4,0.2-2.7-1.6-3.2
			c-2-0.6-3.5,0-4.2,1.5l-2.9,5.3c-1-2.5-1.7-5.5-4.5-6.7c-6.3-1.7-9.2,5.2-10.2,11.7c-1.3,1.8-2,2.3-3.2,2.7
			c-1.1,0.4-2.6,0.4-3.8-0.8c0.8-3,2-6.1,1.8-9.3c-0.1-1.3-0.5-3.2-1.8-3.7c-1.1-0.4-2.7,0.1-3.6,0.8c-0.4,0.3-0.8,0.6-1,0.9
			c-3.2,4-2.5,9.4,2.1,12.6c-0.2,1.5-3.6,10.4-5.7,8.9c-0.5-0.4-0.7-1.2-0.8-1.8c-0.7-2.9-0.3-5.9-0.2-8.9c0.1-3.1,0.3-6.2,0.5-9.3
			c0.1-1.6-0.2-2.7-1.9-2.9c-2.4-0.2-3.6,0.4-3.9,2.1c-0.3,1.3-0.3,2.7-0.5,4c-0.2,1.6-0.3,3.1-0.5,4.7c-1.9,3-3.6,5.9-5.5,8.7
			c-2.7,4.2-5.8,3.7-6.9-0.9c-1.1-4.2-0.1-11.8,0.1-16.1c0-0.6,0.2-1.4,0.6-1.9c3.4-4.4,5.4-8.2,7.5-13.1c1.3-3.6,2.4-7.2,2.3-10.9
			c-0.1-2.7-1.4-4.5-3.4-4.8c-3.1-0.4-5.7,0.5-7.4,3.3c-0.9,1.4-1.7,3-2.3,4.6c-3.6,10.6-4.3,21.5-3.8,32c-3.5,5.4-7,10.4-8.1,11.4
			c0.3-2.7,0.5-17,0.6-21.8c0-3-4.6-4.1-6-1.6c-3.7,6.2-6.1,12.6-8.8,19c-0.2-5.6,0.4-11.5,0.8-17.2c0.3-3.6-6-3.9-6.3-0.7
			c-0.3,3.3-0.6,6.6-0.8,9.9c-2.2,2.8-4.2,4.1-8,5.3c-0.4,0.2-0.5,0-0.6-0.2c-2.5-4.9-5.2-10.6-3.9-15.8c0.2-0.9,1-3.4,2-1.8
			c0.8,1.4,0.8,3.1,0.7,4.7c-0.1,1.9,2.8,1.3,2.8,0c0-1.4-0.1-2.9-0.5-4.3c-0.6-2.5-2.1-3.6-4.7-3.3c-3.6,0.5-6.5,3.2-7,6.8
			c-0.4,2.6,0.2,5,1.1,7.4c-0.4,0.6-0.7,1.3-1.2,1.9c-3.9,6.4-7.8,12.9-11.7,19.3c0-9,3.6-17.7,4.3-26.8c0.2-3.4-1.1-7.3-4.9-6
			c-5.2,1.7-10.1,13.6-11.9,17.9c0-4.9,0.6-9.8,0.6-14.7c0-0.7,0-1.3-0.4-1.8c-0.5-1.1-2-1.1-3.2-1.1c-1.1,0.1-2.4,0.3-2.9,1.2
			c-0.2,0.4-0.2,0.8-0.2,1.3c-0.1,3.6-0.2,7.2-0.2,10.9c-3.9,6.4-7.7,12.8-11.6,19.2c0-9,3.6-17.7,4.3-26.8c0.2-3.4-1.1-7.3-4.9-6
			c-5.2,1.7-10.1,13.6-11.9,17.9c0-4.9,0.6-9.8,0.6-14.7c0-0.7,0-1.3-0.4-1.8c-0.5-1.1-2-1.1-3.2-1.1c-1.1,0.1-2.4,0.3-2.9,1.2
			c-0.2,0.4-0.2,0.8-0.2,1.3c-0.1,3.5-0.2,7.1-0.2,10.6c-1.2,1.9-2.1,3.3-2.5,3.9c-0.7,1.2-1.4,2.6-2.4,3.9c-1.2,1.7-2.3,3.2-4.4,4
			c-1,0.3-2,0.5-3.1,0.2c-0.8-0.3-1.4-0.9-1.9-1.5c-1.6-2.3-1.7-5.7-0.9-8.2c0-0.1,0.1-0.2,0.2-0.4c0.2-0.2,0.4-0.2,0.5-0.3
			c1.9-1,3.8-2.3,5.3-3.8c1.4-1.4,2.6-3.3,3.1-5.2c1.2-3.9-1-6.7-5-5.8c-1.7,0.3-3.5,1.1-4.8,2.3c-2.9,2.1-4.4,5.5-5,8.9
			c0,0,0,0,0,0c-3.7,5.1-7.8,9.4-14,6.1c3.5-5.8,4.9-9.8,6-14.7c1.5-6.9,2.3-12.2,0.4-19c-0.6-2.5-2.6-4.6-5.4-5.2
			c-3-0.6-5.9,2-7.3,4.3c-4.9,7.9-6.5,13.8-9.6,23.1c0.4-8.3,0.7-16.6,0.9-25c0.1-2.3-2.3-3.2-4.4-2.8c-1.6,0.2-1.8,1.3-1.9,2.7
			c-0.3,8.1-0.5,16.2-0.8,24.2c-0.2,6.7-0.6,13.2-1,19.8c-0.3,5.5-0.7,11.1-1.1,16.6c-0.1,1.3,0.2,2,1.6,2.1
			c1.3,0.1,4.1,0.2,4.3-1.6c0.4-5,1.4-15.6,2-15.6c7.1,0.8,11.5-1.7,15-6.5c2.7,1.5,5.4,1.6,8.2,0.4c2.6-1.1,4.7-2.8,6.6-5
			c-0.2,2.8,0.1,5.4,1.3,8.2c1.5,3.8,6,5,9.7,4.3c4.9-1,7-5.2,9.4-9c0.3-0.4,0.6-0.9,1-1.5c0.1,3.2,0.2,6.4,0.3,9.5
			c0,0.5,0,0.9,0.4,1.2c0.2,0.3,0.6,0.4,1,0.4c1.4,0,3.2,0,4.1-1.1c0.3-0.5,0.4-1.1,0.5-1.7c1.9-7.8,5-15.5,10.1-21.5
			c0.2-0.2,0.5-0.4,0.7-0.4c0.4,0.1,0.3,0.6,0.2,1c-1.6,5.8-2.9,12-3.8,17.9c-0.5,2.8-0.8,5.6-0.6,8.4c0,1.2,0.2,2.5,0.8,3.5
			c0.6,1.1,1.6,1.9,2.9,2.1c2.6,0.1,4-2.4,4.9-4.2c3.2-5.9,5.9-10.5,8.7-14.9c0.1,3.1,0.2,6.2,0.3,9.3c0,0.5,0,0.9,0.4,1.2
			c0.2,0.3,0.6,0.4,1,0.4c1.4,0,3.2,0,4.1-1.1c0.3-0.5,0.4-1.1,0.5-1.7c1.9-7.8,5-15.5,10.1-21.5c0.2-0.2,0.5-0.4,0.7-0.4
			c0.4,0.1,0.3,0.6,0.2,1c-1.6,5.8-2.9,12-3.8,17.9c-0.5,2.8-0.8,5.6-0.6,8.4c0,1.2,0.2,2.5,0.8,3.5c0.6,1.1,1.6,1.9,2.9,2.1
			c2.6,0.1,4-2.4,4.9-4.2c3.8-7.1,7.1-12.3,10.3-17.6c0.2-0.2,0.3-0.5,0.5-0.7c1.1,2.4,2.4,4.7,3.3,6.9c-3,3-5.1,7.4-4.5,11.6
			c0.8,6.2,8.6,4.1,10.9,0.1c2.3-3.8,1-7.4-0.3-11.4c-0.1-0.1-0.2-0.3-0.1-0.4c0.1-0.1,0.2-0.2,0.3-0.2c2.8-1.3,5-2.2,7.4-4.5
			c0,0.2,0,0.5,0,0.7c-0.2,3.8,1.4,8.9,5.8,8.6c2.3-0.1,2.7-1.9,3.4-3.5c1.8-4.7,3.7-9.3,5.5-14c0.3-0.6,0.7-1.3,1-1.9
			c0,2.9-0.2,18.1-0.7,23.1c-4.8,4.1-9.9,8.8-13.8,14.1c-3,4-5.1,8.5-5.5,13.5c-0.6,7.6,4.8,11.5,11.4,9.1c5.4-1.8,8.4-6,10-11.4
			c1.6-5.7,2.3-9.9,2.8-14.1c0.9-9.1,0.8-11.7,1-11.9c3.2-3.6,5.8-7.4,8.2-11.2c0.4,3.9,1.3,7.9,5.5,9.4c2.8,0.9,5.9,0.4,7.7-2
			c1.8-2.6,3.4-5.1,5-7.6c0,1.2,0.1,2.3,0.3,3.5c0.8,6.9,8.3,9.2,11.7,3.6c1.2-2,2.1-4.6,3-7l0.3,0.2c2.3,1.3,5.3,0.6,7-0.9
			c-0.1,1.5-0.1,2.9,0,4c0.1,1.3,0.6,2.8,1.3,4c2.1,3.4,7.5,3.2,9.3-0.2c1.6-3,3-6.2,4.6-9.3c0,2.3-0.1,4.5,0,6.9
			c0.2,3.5,3.7,6.8,7.2,5.3c3.5-1.4,5.2-5.5,7.1-8.5c0.3-0.4,0.6-0.9,0.9-1.4c0.1,3.2,0.2,6.3,0.3,9.4c0,0.5,0,0.9,0.4,1.2
			c0.2,0.3,0.6,0.4,1,0.4c1.4,0,3.2,0,4.1-1.1c0.3-0.5,0.4-1.1,0.5-1.7c1.9-7.8,5-15.5,10.1-21.5c0.2-0.2,0.5-0.4,0.7-0.4
			c0.4,0.1,0.3,0.6,0.2,1c-1.6,5.8-2.9,12-3.8,17.9c-0.5,2.8-0.8,5.6-0.6,8.4c0,1.2,0.2,2.5,0.8,3.5c0.6,1.1,1.6,1.9,2.9,2.1
			c2.6,0.1,4-2.4,4.9-4.2c3.2-6,6.1-10.7,8.9-15.2c0,2,0.2,4,0.8,5.9c1,3.6,4.2,5.3,7.8,4.3c0.9-0.2,1.7-0.7,2.4-1.4
			c2.1-2,3.5-4.7,5.1-7.2c0.2-0.3,0.4-0.6,0.6-1c0,1,0,2,0.1,2.8c0.1,1.3,0.6,2.8,1.3,4c2.1,3.4,7.5,3.2,9.3-0.2
			c1.6-3,3-6.2,4.6-9.3c0,2.3-0.1,4.5,0,6.9c0.2,3.5,3.7,6.8,7.2,5.3c3.5-1.4,5.2-5.5,7.1-8.5c1.1-1.6,3.1-4.8,4.2-6.5
			C359.8,86.6,360.7,85.5,359.9,85z"/>
	</g>
	<g id="SPLINE_19_">
		<path class="st0" d="M220.8,50.9c3.7,2.7-1.2,18-6.4,23.3C215.7,66.2,217.5,53.8,220.8,50.9z"/>
	</g>
	<g id="SPLINE_18_">
		<path class="st0" d="M84.8,85.7c0.3-1.3,0.8-2.7,1.3-4c0.4-0.8,3.4-6.7,4.2-4.2c0.8,2.1,0,4.3-1.2,6c-0.6,0.8-1.2,1.3-1.9,2
			c-0.2,0.1-2.5,1.8-2.5,1.7C84.7,86.7,84.7,86.2,84.8,85.7z"/>
	</g>
	<g id="SPLINE_17_">
		<path class="st0" d="M48.9,97.6c-1.9-6.3,6.8-9.9,9.9-4.6C57.4,96.3,50,100.7,48.9,97.6z"/>
	</g>
	<g id="SPLINE_16_">
		<path class="st0" d="M59.5,90.3c-2.2-1.8-7.5-2.3-10.2-0.7c0.6-4,1.2-6.9,2.4-10.6c1.1-4,3.2-9.2,4.4-13c0.7-2.3,4.5-9.9,6.3-10.4
			c1.8-0.5,2.7,5.5,2.9,6.7C66.8,71.2,60.8,88.1,59.5,90.3z"/>
	</g>
	<g id="SPLINE_15_">
		<path class="st0" d="M165.9,108.1c-0.9,1.1-2.4,0.9-2.7-0.6c-0.8-3.5,0.8-7.1,2.9-9.7C167.5,100.8,168.4,105.6,165.9,108.1z"/>
	</g>
	<g id="SPLINE_14_">
		<path class="st0" d="M192.6,117.7c-0.4,3.6-0.9,7.1-1.6,10.5c-1,3.8-2.5,8-6,9.8c-5.8,2.9-7.6-4.6-7-8.8c0.8-4.7,3.1-8.9,6-12.6
			c3.1-4,6.1-7,10-10.1L192.6,117.7z"/>
	</g>
	<g id="SPLINE_13_">
		<path class="st0" d="M240.6,88c-0.2,0.4-0.3,0-0.4,0c-1.6-2.7-0.7-7.2,1.3-9.1C242.7,81.6,241.6,85.3,240.6,88z"/>
	</g>
	<g id="SPLINE_12_">
		<path class="st0" d="M256.2,99.2c-2.8,0-1.2-9.4-0.9-11.9c0.3-1.8,1-9.2,3.7-8.9C265.9,82.3,257.6,99.2,256.2,99.2z"/>
	</g>
	<g id="SPLINE_11_">
		<path class="st0" d="M333.7,99.2c-2.8,0-1.2-9.4-0.9-11.9c0.3-1.8,1-9.2,3.7-8.9C343.5,82.3,335.2,99.2,333.7,99.2z"/>
	</g>
	<g id="HATCH_3_">
		<path d="M359.9,85c-0.8-0.7-1.6,0.3-1.6,0.3c-1.5,2.5-3.4,5.4-4.2,6.8c-1.3,2.3-4,7.1-5.2,7.1c-2.4,0-1-8.2-0.8-9.8
			c0.5-3.5,1.3-6.9,1.8-10.3c0.2-1.4,0.2-2.7-1.6-3.2c-2-0.6-3.5,0-4.2,1.5l-2.9,5.3c-1-2.5-1.7-5.5-4.5-6.7
			c-6.4-1.8-9.3,5.5-10.3,12.1c-2.2,3.4-3.4,5.5-4.7,7.5c-0.7,1-1.3,2.4-2.5,3.1c-0.9,0.6-2,0.8-3,0.2c-0.6-0.4-1-1.1-1.2-1.8
			c-0.7-3.5,1.4-13.1,2.1-16.5c0.4-1.6,0.3-3.7-1.6-4c-2.6-0.4-4.1,0.2-4.4,2.1c-0.6,2.8-1.3,5.9-1.6,9c-0.1,0.2-0.2,0.4-0.4,0.6
			c-3.9,6.4-7.8,12.9-11.7,19.3c0-9,3.6-17.7,4.3-26.8c0.2-3.4-1.1-7.3-4.9-6c-5.2,1.7-10.1,13.6-11.9,17.9c0-4.9,0.6-9.8,0.6-14.7
			c0-0.7,0-1.3-0.4-1.8c-0.5-1.1-2-1.1-3.2-1.1c-1.1,0.1-2.4,0.3-2.9,1.2c-0.2,0.4-0.2,0.8-0.2,1.3c-0.1,3.5-0.2,7.1-0.2,10.7
			c-1,1.6-1.9,3-2.4,3.9c-1.3,2.3-4,7.1-5.2,7.1c-2.4,0-1-8.2-0.8-9.8c0.5-3.5,1.3-6.9,1.8-10.3c0.2-1.4,0.2-2.7-1.6-3.2
			c-2-0.6-3.5,0-4.2,1.5l-2.9,5.3c-1-2.5-1.7-5.5-4.5-6.7c-6.3-1.7-9.2,5.2-10.2,11.7c-1.3,1.8-2,2.3-3.2,2.7
			c-1.1,0.4-2.6,0.4-3.8-0.8c0.8-3,2-6.1,1.8-9.3c-0.1-1.3-0.5-3.2-1.8-3.7c-1.1-0.4-2.7,0.1-3.6,0.8c-0.4,0.3-0.8,0.6-1,0.9
			c-3.2,4-2.5,9.4,2.1,12.6c-0.2,1.5-3.6,10.4-5.7,8.9c-0.5-0.4-0.7-1.2-0.8-1.8c-0.7-2.9-0.3-5.9-0.2-8.9c0.1-3.1,0.3-6.2,0.5-9.3
			c0.1-1.6-0.2-2.7-1.9-2.9c-2.4-0.2-3.6,0.4-3.9,2.1c-0.3,1.3-0.3,2.7-0.5,4c-0.2,1.6-0.3,3.1-0.5,4.7c-1.9,3-3.6,5.9-5.5,8.7
			c-2.7,4.2-5.8,3.7-6.9-0.9c-1.1-4.2-0.1-11.8,0.1-16.1c0-0.6,0.2-1.4,0.6-1.9c3.4-4.4,5.4-8.2,7.5-13.1c1.3-3.6,2.4-7.2,2.3-10.9
			c-0.1-2.7-1.4-4.5-3.4-4.8c-3.1-0.4-5.7,0.5-7.4,3.3c-0.9,1.4-1.7,3-2.3,4.6c-3.6,10.6-4.3,21.5-3.8,32c-3.5,5.4-7,10.4-8.1,11.4
			c0.3-2.7,0.5-17,0.6-21.8c0-3-4.6-4.1-6-1.6c-3.7,6.2-6.1,12.6-8.8,19c-0.2-5.6,0.4-11.5,0.8-17.2c0.3-3.6-6-3.9-6.3-0.7
			c-0.3,3.3-0.6,6.6-0.8,9.9c-2.2,2.8-4.2,4.1-8,5.3c-0.4,0.2-0.5,0-0.6-0.2c-2.5-4.9-5.2-10.6-3.9-15.8c0.2-0.9,1-3.4,2-1.8
			c0.8,1.4,0.8,3.1,0.7,4.7c-0.1,1.9,2.8,1.3,2.8,0c0-1.4-0.1-2.9-0.5-4.3c-0.6-2.5-2.1-3.6-4.7-3.3c-3.6,0.5-6.5,3.2-7,6.8
			c-0.4,2.6,0.2,5,1.1,7.4c-0.4,0.6-0.7,1.3-1.2,1.9c-3.9,6.4-7.8,12.9-11.7,19.3c0-9,3.6-17.7,4.3-26.8c0.2-3.4-1.1-7.3-4.9-6
			c-5.2,1.7-10.1,13.6-11.9,17.9c0-4.9,0.6-9.8,0.6-14.7c0-0.7,0-1.3-0.4-1.8c-0.5-1.1-2-1.1-3.2-1.1c-1.1,0.1-2.4,0.3-2.9,1.2
			c-0.2,0.4-0.2,0.8-0.2,1.3c-0.1,3.6-0.2,7.2-0.2,10.9c-3.9,6.4-7.7,12.8-11.6,19.2c0-9,3.6-17.7,4.3-26.8c0.2-3.4-1.1-7.3-4.9-6
			c-5.2,1.7-10.1,13.6-11.9,17.9c0-4.9,0.6-9.8,0.6-14.7c0-0.7,0-1.3-0.4-1.8c-0.5-1.1-2-1.1-3.2-1.1c-1.1,0.1-2.4,0.3-2.9,1.2
			c-0.2,0.4-0.2,0.8-0.2,1.3c-0.1,3.5-0.2,7.1-0.2,10.6c-1.2,1.9-2.1,3.3-2.5,3.9c-0.7,1.2-1.4,2.6-2.4,3.9c-1.2,1.7-2.3,3.2-4.4,4
			c-1,0.3-2,0.5-3.1,0.2c-0.8-0.3-1.4-0.9-1.9-1.5c-1.6-2.3-1.7-5.7-0.9-8.2c0-0.1,0.1-0.2,0.2-0.4c0.2-0.2,0.4-0.2,0.5-0.3
			c1.9-1,3.8-2.3,5.3-3.8c1.4-1.4,2.6-3.3,3.1-5.2c1.2-3.9-1-6.7-5-5.8c-1.7,0.3-3.5,1.1-4.8,2.3c-2.9,2.1-4.4,5.5-5,8.9
			c0,0,0,0,0,0c-3.7,5.1-7.8,9.4-14,6.1c3.5-5.8,4.9-9.8,6-14.7c1.5-6.9,2.3-12.2,0.4-19c-0.6-2.5-2.6-4.6-5.4-5.2
			c-3-0.6-5.9,2-7.3,4.3c-4.9,7.9-6.5,13.8-9.6,23.1c0.4-8.3,0.7-16.6,0.9-25c0.1-2.3-2.3-3.2-4.4-2.8c-1.6,0.2-1.8,1.3-1.9,2.7
			c-0.3,8.1-0.5,16.2-0.8,24.2c-0.2,6.7-0.6,13.2-1,19.8c-0.3,5.5-0.7,11.1-1.1,16.6c-0.1,1.3,0.2,2,1.6,2.1
			c1.3,0.1,4.1,0.2,4.3-1.6c0.4-5,1.4-15.6,2-15.6c7.1,0.8,11.5-1.7,15-6.5c2.7,1.5,5.4,1.6,8.2,0.4c2.6-1.1,4.7-2.8,6.6-5
			c-0.2,2.8,0.1,5.4,1.3,8.2c1.5,3.8,6,5,9.7,4.3c4.9-1,7-5.2,9.4-9c0.3-0.4,0.6-0.9,1-1.5c0.1,3.2,0.2,6.4,0.3,9.5
			c0,0.5,0,0.9,0.4,1.2c0.2,0.3,0.6,0.4,1,0.4c1.4,0,3.2,0,4.1-1.1c0.3-0.5,0.4-1.1,0.5-1.7c1.9-7.8,5-15.5,10.1-21.5
			c0.2-0.2,0.5-0.4,0.7-0.4c0.4,0.1,0.3,0.6,0.2,1c-1.6,5.8-2.9,12-3.8,17.9c-0.5,2.8-0.8,5.6-0.6,8.4c0,1.2,0.2,2.5,0.8,3.5
			c0.6,1.1,1.6,1.9,2.9,2.1c2.6,0.1,4-2.4,4.9-4.2c3.2-5.9,5.9-10.5,8.7-14.9c0.1,3.1,0.2,6.2,0.3,9.3c0,0.5,0,0.9,0.4,1.2
			c0.2,0.3,0.6,0.4,1,0.4c1.4,0,3.2,0,4.1-1.1c0.3-0.5,0.4-1.1,0.5-1.7c1.9-7.8,5-15.5,10.1-21.5c0.2-0.2,0.5-0.4,0.7-0.4
			c0.4,0.1,0.3,0.6,0.2,1c-1.6,5.8-2.9,12-3.8,17.9c-0.5,2.8-0.8,5.6-0.6,8.4c0,1.2,0.2,2.5,0.8,3.5c0.6,1.1,1.6,1.9,2.9,2.1
			c2.6,0.1,4-2.4,4.9-4.2c3.8-7.1,7.1-12.3,10.3-17.6c0.2-0.2,0.3-0.5,0.5-0.7c1.1,2.4,2.4,4.7,3.3,6.9c-3,3-5.1,7.4-4.5,11.6
			c0.8,6.2,8.6,4.1,10.9,0.1c2.3-3.8,1-7.4-0.3-11.4c-0.1-0.1-0.2-0.3-0.1-0.4c0.1-0.1,0.2-0.2,0.3-0.2c2.8-1.3,5-2.2,7.4-4.5
			c0,0.2,0,0.5,0,0.7c-0.2,3.8,1.4,8.9,5.8,8.6c2.3-0.1,2.7-1.9,3.4-3.5c1.8-4.7,3.7-9.3,5.5-14c0.3-0.6,0.7-1.3,1-1.9
			c0,2.9-0.2,18.1-0.7,23.1c-4.8,4.1-9.9,8.8-13.8,14.1c-3,4-5.1,8.5-5.5,13.5c-0.6,7.6,4.8,11.5,11.4,9.1c5.4-1.8,8.4-6,10-11.4
			c1.6-5.7,2.3-9.9,2.8-14.1c0.9-9.1,0.8-11.7,1-11.9c3.2-3.6,5.8-7.4,8.2-11.2c0.4,3.9,1.3,7.9,5.5,9.4c2.8,0.9,5.9,0.4,7.7-2
			c1.8-2.6,3.4-5.1,5-7.6c0,1.2,0.1,2.3,0.3,3.5c0.8,6.9,8.3,9.2,11.7,3.6c1.2-2,2.1-4.6,3-7l0.3,0.2c2.3,1.3,5.3,0.6,7-0.9
			c-0.1,1.5-0.1,2.9,0,4c0.1,1.3,0.6,2.8,1.3,4c2.1,3.4,7.5,3.2,9.3-0.2c1.6-3,3-6.2,4.6-9.3c0,2.3-0.1,4.5,0,6.9
			c0.2,3.5,3.7,6.8,7.2,5.3c3.5-1.4,5.2-5.5,7.1-8.5c0.3-0.4,0.6-0.9,0.9-1.4c0.1,3.2,0.2,6.3,0.3,9.4c0,0.5,0,0.9,0.4,1.2
			c0.2,0.3,0.6,0.4,1,0.4c1.4,0,3.2,0,4.1-1.1c0.3-0.5,0.4-1.1,0.5-1.7c1.9-7.8,5-15.5,10.1-21.5c0.2-0.2,0.5-0.4,0.7-0.4
			c0.4,0.1,0.3,0.6,0.2,1c-1.6,5.8-2.9,12-3.8,17.9c-0.5,2.8-0.8,5.6-0.6,8.4c0,1.2,0.2,2.5,0.8,3.5c0.6,1.1,1.6,1.9,2.9,2.1
			c2.6,0.1,4-2.4,4.9-4.2c3.2-6,6.1-10.7,8.9-15.2c0,2,0.2,4,0.8,5.9c1,3.6,4.2,5.3,7.8,4.3c0.9-0.2,1.7-0.7,2.4-1.4
			c2.1-2,3.5-4.7,5.1-7.2c0.2-0.3,0.4-0.6,0.6-1c0,1,0,2,0.1,2.8c0.1,1.3,0.6,2.8,1.3,4c2.1,3.4,7.5,3.2,9.3-0.2
			c1.6-3,3-6.2,4.6-9.3c0,2.3-0.1,4.5,0,6.9c0.2,3.5,3.7,6.8,7.2,5.3c3.5-1.4,5.2-5.5,7.1-8.5c1.1-1.6,3.1-4.8,4.2-6.5
			C359.8,86.6,360.7,85.5,359.9,85z M220.8,50.9c3.7,2.7-1.2,18-6.4,23.3C215.7,66.2,217.5,53.8,220.8,50.9z M84.8,85.7
			c0.3-1.3,0.8-2.7,1.3-4c0.4-0.8,3.4-6.7,4.2-4.2c0.8,2.1,0,4.3-1.2,6c-0.6,0.8-1.2,1.3-1.9,2c-0.2,0.1-2.5,1.8-2.5,1.7
			C84.7,86.7,84.7,86.2,84.8,85.7z M48.9,97.6c-1.9-6.3,6.8-9.9,9.9-4.6C57.4,96.3,50,100.7,48.9,97.6z M59.5,90.3
			c-2.2-1.8-7.5-2.3-10.2-0.7c0.6-4,1.2-6.9,2.4-10.6c1.1-4,3.2-9.2,4.4-13c0.7-2.3,4.5-9.9,6.3-10.4c1.8-0.5,2.7,5.5,2.9,6.7
			C66.8,71.2,60.8,88.1,59.5,90.3z M165.9,108.1c-0.9,1.1-2.4,0.9-2.7-0.6c-0.8-3.5,0.8-7.1,2.9-9.7
			C167.5,100.8,168.4,105.6,165.9,108.1z M192.6,117.7c-0.4,3.6-0.9,7.1-1.6,10.5c-1,3.8-2.5,8-6,9.8c-5.8,2.9-7.6-4.6-7-8.8
			c0.8-4.7,3.1-8.9,6-12.6c3.1-4,6.1-7,10-10.1L192.6,117.7z M240.6,88c-0.2,0.4-0.3,0-0.4,0c-1.6-2.7-0.7-7.2,1.3-9.1
			C242.7,81.6,241.6,85.3,240.6,88z M256.2,99.2c-2.8,0-1.2-9.4-0.9-11.9c0.3-1.8,1-9.2,3.7-8.9C265.9,82.3,257.6,99.2,256.2,99.2z
			 M333.7,99.2c-2.8,0-1.2-9.4-0.9-11.9c0.3-1.8,1-9.2,3.7-8.9C343.5,82.3,335.2,99.2,333.7,99.2z"/>
	</g>
</g>
</svg>
