<?xml version="1.0" encoding="utf-8"?>
<!-- Generator: Adobe Illustrator 22.0.1, SVG Export Plug-In . SVG Version: 6.00 Build 0)  -->
<svg version="1.1" id="Layer_1" xmlns="http://www.w3.org/2000/svg" xmlns:xlink="http://www.w3.org/1999/xlink" x="0px" y="0px"
	 viewBox="0 0 500 500" style="enable-background:new 0 0 500 500;" xml:space="preserve">
<style type="text/css">
	.st0{fill:none;stroke:#000000;stroke-width:0;stroke-linecap:round;stroke-linejoin:round;stroke-miterlimit:10;}
</style>
<g id="POLYLINE_1_">
	<polyline class="st0" points="99.3,432.2 14.9,52.2 141.5,10 268.2,136.7 268.2,347.7 99.3,432.2 99.3,432.2 	"/>
</g>
<g id="HATCH_7_">
	<polygon points="99.3,432.2 14.9,52.2 141.5,10 268.2,136.7 268.2,347.7 99.3,432.2 99.3,432.2 	"/>
</g>
<g id="INSERT_1_">
	<g id="SPLINE_29_">
		<path class="st0" d="M303.8,456.2c-2,3.2-3.6,5.7-4.2,6.6c-0.7,1.2-1.4,2.5-2.3,3.8c-1.2,1.7-2.2,3.1-4.3,3.9c-1,0.3-2,0.5-3,0.2
			c-0.8-0.3-1.4-0.9-1.9-1.5c-1.6-2.2-1.7-5.6-0.9-8.1c0-0.1,0.1-0.2,0.2-0.4c0.2-0.2,0.4-0.2,0.5-0.3c1.9-1,3.7-2.2,5.2-3.7
			c1.4-1.4,2.5-3.2,3-5.1c1.2-3.8-1-6.5-4.9-5.7c-1.7,0.3-3.4,1.1-4.7,2.2c-2.8,2.1-4.3,5.4-4.9,8.8c0,0.1,0,0.1,0,0.2
			c-8.8,14.4-9.9,16.4-11,18.3c-0.3,0.6-0.9,1.3-1.7,1.2c-0.5-0.1-0.8-0.4-1-0.8c-0.2-0.4-0.2-0.8-0.3-1.3c-0.7-6.2,0.6-12.9,1-19.2
			c0.2-3.9,2.9-6.2,5.1-9.1c3-3.8,12.6-20.3,7.3-24.1c-1.9-1.4-4.1-1-5.8,0.4c-1.6,1.3-3.2,2.7-4.4,4.4c-2.8,4.1-4.6,8.7-5.9,13.5
			c-0.6,2.5-1.1,5-1.6,7.3c-1.4-0.3-2.7-0.7-4-0.6c-3,0-5.8,1.3-7.7,3.6c-1.2,1.5-2.4,3.9-3.3,6.6c-1.2,1.8-2.7,3.4-5.1,4.1
			c0.3-2.4,0.5-4.9,0.1-7.3c-1.6-8.2-10.9-8.6-13.8-1.3c-0.5,1.4-1.1,3.2-1.5,5.1c-0.4,0.7-0.8,1.3-1.2,2l-11.3,18.8
			c0-3.7,2.5-15.4,2.5-15.7c0,0,0.6-3.1,0.9-4.6c0.6-3.4,1.7-11.1-4.1-9.7c-3.5,0.7-6.3,6.3-7.9,8.8c0-1.2,0.1-7.2,0.7-7.9
			c5-5.5,8.9-12.8,10.3-19.8c0.7-4-1.1-6.8-4.7-6.9c-5.5-0.2-8.2,5.1-9.6,9.8c-2.2,7.5-2.6,16.1-3.3,23.7c-0.1,1-0.2,2.1-0.2,3.1
			l-2.2,4c-3.2,6.1-11.4,23.6-12.2,23.6c-1.3,0-0.3-7.6-0.3-11.6c0-3.1,0.2-6.4-0.2-9.7c-0.6-4.2-2.3-8-6.5-10.3
			c9.1-3.4,29.6-32,12-32c-9,0-15.1,16.6-17.5,23.1c-1.2,3.4-2.2,6.7-3.3,10.1c0.2-5.6,0.6-11.3,1-16.9c0.2-4.2,0.3-8.5,0.4-12.8
			c0.1-1.8-1.3-1.9-2.6-1.9c-1.2,0-2.3,0.1-2.4,1.9c-0.2,5.9-0.4,11.9-0.8,17.8c-0.4,7.4-1.1,14.8-1.7,22.2
			c-0.5,6.1-1,12.4-1.5,18.6c-0.1,1.4,0.2,2.3,1.8,2.4c1.9,0,2.6-0.5,2.9-2.2c0.7-4.7,1.2-9.6,2.2-14.4c0.9-4.8,2.4-9.7,3.5-14.2
			c7.1-1.6,7.6,11.1,7.7,15.3c0.1,4.3,0,8.8,0,13.1c0.1,1.9,1.6,3.6,3.4,4.1c1.9,0.5,3.6-0.6,4.4-2.2c3.4-7.1,7.3-15.9,11.2-22.9
			c0.2-0.3,0.4-0.7,0.6-1.1c0,0.5,0,1.1,0,1.6c0,1.8-1,7.3,2.2,7.3c1.3,0,2.3-0.2,2.6-1.7c1.9-11.5,8.4-18.6,10-19.8
			c-1.2,5.3-2.8,11.7-3.6,16.6c-0.7,4.1-2.1,13.2,3,13.8c1.1,0,2.2-0.6,3-1.3c0.8-0.8,1.3-1.8,1.8-2.8c4.1-7.2,6.7-11.6,8.4-14.5
			c-0.2,4.8,1.3,9.3,6.7,10.2c2.6,0.5,4.8-0.7,6.3-2.7c1.4-1.9,2.1-4.4,2.7-6.7c1.7-0.3,3-1.1,4.2-2.1c-0.7,4.7,0,9.2,4,10.4
			c5.5,1.8,7.7-3.3,10.4-6.9c0.3,2.6,0.6,5.2,1,7.6c0.4,2.6,2.7,6.3,5.7,6.2c0.9-0.1,1.8-0.6,2.5-1.2c0.7-0.7,1.2-1.4,1.7-2.2
			c1.8-2.6,3.3-5.2,8.6-13.8c-0.1,2.4,0.3,4.7,1.3,7.1c1.5,3.7,5.9,4.9,9.6,4.2c4.8-1,6.8-5.1,9.3-8.9c0.8-1.2,2.2-3.4,4.2-6.5
			c0,0,0.7-1.1,0.1-1.6C304.5,455.2,303.8,456.2,303.8,456.2z"/>
	</g>
	<g id="SPLINE_28_">
		<path class="st0" d="M287.8,456.6c0.3-1.3,0.8-2.6,1.3-3.9c0.4-0.8,3.3-6.5,4.1-4.1c0.8,2.1,0,4.2-1.2,5.9c-0.6,0.8-1.2,1.3-1.9,2
			c-0.2,0.1-2.4,1.8-2.4,1.7C287.7,457.6,287.7,457.1,287.8,456.6z"/>
	</g>
	<g id="SPLINE_27_">
		<path class="st0" d="M273.4,433.9c0.5-1.4,4.6-11.3,6.3-10.2c0.5,0.3,0.6,1,0.5,1.5c-0.3,3.8-2,8.1-3.6,11.6
			c-1.7,3.6-3.9,6.9-6.9,10.3C270.4,442.6,271.6,438.2,273.4,433.9z"/>
	</g>
	<g id="SPLINE_26_">
		<path class="st0" d="M212.2,426.3c0.4-0.5,0.8-1.1,1.6-1c4,1.2,0.6,8.9,0,10.7c-1.3,3.6-4.2,7.9-6.5,11.1
			C207.6,440.6,209.1,432.1,212.2,426.3z"/>
	</g>
	<g id="SPLINE_25_">
		<path class="st0" d="M173.3,454.8c-0.4,0,7.8-28.4,17-28.4C194.5,426.4,183,453.8,173.3,454.8z"/>
	</g>
	<g id="SPLINE_24_">
		<path class="st0" d="M233.5,467.9c-0.8-2.5-1-5.3-0.1-8.1c0.1-0.2,0.2-0.5,0.5-0.4c2.2,1.7,4.1,3.1,6.8,3.7
			C239.9,470.3,235,474,233.5,467.9z"/>
	</g>
	<g id="SPLINE_23_">
		<path class="st0" d="M240.9,461.3c-2.5-0.7-4.5-2-5.3-4.1c-0.7-2-0.3-4.3,1-5.9c0.9-1.1,2.6-0.6,3.3,0.3
			C242,453.6,241.5,458.4,240.9,461.3z"/>
	</g>
	<g id="SPLINE_22_">
		<path class="st0" d="M254.1,470.2c-1.2-2.8-0.8-5.4-0.5-8.1c0.2-2.4,3.1-15.7,7.4-13.1c0.7,0.4,1.1,1.3,1.2,2.1
			C263.1,457.8,258.9,464.7,254.1,470.2z"/>
	</g>
	<g id="HATCH_6_">
		<path d="M303.8,456.2c-2,3.2-3.6,5.7-4.2,6.6c-0.7,1.2-1.4,2.5-2.3,3.8c-1.2,1.7-2.2,3.1-4.3,3.9c-1,0.3-2,0.5-3,0.2
			c-0.8-0.3-1.4-0.9-1.9-1.5c-1.6-2.2-1.7-5.6-0.9-8.1c0-0.1,0.1-0.2,0.2-0.4c0.2-0.2,0.4-0.2,0.5-0.3c1.9-1,3.7-2.2,5.2-3.7
			c1.4-1.4,2.5-3.2,3-5.1c1.2-3.8-1-6.5-4.9-5.7c-1.7,0.3-3.4,1.1-4.7,2.2c-2.8,2.1-4.3,5.4-4.9,8.8c0,0.1,0,0.1,0,0.2
			c-8.8,14.4-9.9,16.4-11,18.3c-0.3,0.6-0.9,1.3-1.7,1.2c-0.5-0.1-0.8-0.4-1-0.8c-0.2-0.4-0.2-0.8-0.3-1.3c-0.7-6.2,0.6-12.9,1-19.2
			c0.2-3.9,2.9-6.2,5.1-9.1c3-3.8,12.6-20.3,7.3-24.1c-1.9-1.4-4.1-1-5.8,0.4c-1.6,1.3-3.2,2.7-4.4,4.4c-2.8,4.1-4.6,8.7-5.9,13.5
			c-0.6,2.5-1.1,5-1.6,7.3c-1.4-0.3-2.7-0.7-4-0.6c-3,0-5.8,1.3-7.7,3.6c-1.2,1.5-2.4,3.9-3.3,6.6c-1.2,1.8-2.7,3.4-5.1,4.1
			c0.3-2.4,0.5-4.9,0.1-7.3c-1.6-8.2-10.9-8.6-13.8-1.3c-0.5,1.4-1.1,3.2-1.5,5.1c-0.4,0.7-0.8,1.3-1.2,2l-11.3,18.8
			c0-3.7,2.5-15.4,2.5-15.7c0,0,0.6-3.1,0.9-4.6c0.6-3.4,1.7-11.1-4.1-9.7c-3.5,0.7-6.3,6.3-7.9,8.8c0-1.2,0.1-7.2,0.7-7.9
			c5-5.5,8.9-12.8,10.3-19.8c0.7-4-1.1-6.8-4.7-6.9c-5.5-0.2-8.2,5.1-9.6,9.8c-2.2,7.5-2.6,16.1-3.3,23.7c-0.1,1-0.2,2.1-0.2,3.1
			l-2.2,4c-3.2,6.1-11.4,23.6-12.2,23.6c-1.3,0-0.3-7.6-0.3-11.6c0-3.1,0.2-6.4-0.2-9.7c-0.6-4.2-2.3-8-6.5-10.3
			c9.1-3.4,29.6-32,12-32c-9,0-15.1,16.6-17.5,23.1c-1.2,3.4-2.2,6.7-3.3,10.1c0.2-5.6,0.6-11.3,1-16.9c0.2-4.2,0.3-8.5,0.4-12.8
			c0.1-1.8-1.3-1.9-2.6-1.9c-1.2,0-2.3,0.1-2.4,1.9c-0.2,5.9-0.4,11.9-0.8,17.8c-0.4,7.4-1.1,14.8-1.7,22.2
			c-0.5,6.1-1,12.4-1.5,18.6c-0.1,1.4,0.2,2.3,1.8,2.4c1.9,0,2.6-0.5,2.9-2.2c0.7-4.7,1.2-9.6,2.2-14.4c0.9-4.8,2.4-9.7,3.5-14.2
			c7.1-1.6,7.6,11.1,7.7,15.3c0.1,4.3,0,8.8,0,13.1c0.1,1.9,1.6,3.6,3.4,4.1c1.9,0.5,3.6-0.6,4.4-2.2c3.4-7.1,7.3-15.9,11.2-22.9
			c0.2-0.3,0.4-0.7,0.6-1.1c0,0.5,0,1.1,0,1.6c0,1.8-1,7.3,2.2,7.3c1.3,0,2.3-0.2,2.6-1.7c1.9-11.5,8.4-18.6,10-19.8
			c-1.2,5.3-2.8,11.7-3.6,16.6c-0.7,4.1-2.1,13.2,3,13.8c1.1,0,2.2-0.6,3-1.3c0.8-0.8,1.3-1.8,1.8-2.8c4.1-7.2,6.7-11.6,8.4-14.5
			c-0.2,4.8,1.3,9.3,6.7,10.2c2.6,0.5,4.8-0.7,6.3-2.7c1.4-1.9,2.1-4.4,2.7-6.7c1.7-0.3,3-1.1,4.2-2.1c-0.7,4.7,0,9.2,4,10.4
			c5.5,1.8,7.7-3.3,10.4-6.9c0.3,2.6,0.6,5.2,1,7.6c0.4,2.6,2.7,6.3,5.7,6.2c0.9-0.1,1.8-0.6,2.5-1.2c0.7-0.7,1.2-1.4,1.7-2.2
			c1.8-2.6,3.3-5.2,8.6-13.8c-0.1,2.4,0.3,4.7,1.3,7.1c1.5,3.7,5.9,4.9,9.6,4.2c4.8-1,6.8-5.1,9.3-8.9c0.8-1.2,2.2-3.4,4.2-6.5
			c0,0,0.7-1.1,0.1-1.6C304.5,455.2,303.8,456.2,303.8,456.2z M287.8,456.6c0.3-1.3,0.8-2.6,1.3-3.9c0.4-0.8,3.3-6.5,4.1-4.1
			c0.8,2.1,0,4.2-1.2,5.9c-0.6,0.8-1.2,1.3-1.9,2c-0.2,0.1-2.4,1.8-2.4,1.7C287.7,457.6,287.7,457.1,287.8,456.6z M273.4,433.9
			c0.5-1.4,4.6-11.3,6.3-10.2c0.5,0.3,0.6,1,0.5,1.5c-0.3,3.8-2,8.1-3.6,11.6c-1.7,3.6-3.9,6.9-6.9,10.3
			C270.4,442.6,271.6,438.2,273.4,433.9z M212.2,426.3c0.4-0.5,0.8-1.1,1.6-1c4,1.2,0.6,8.9,0,10.7c-1.3,3.6-4.2,7.9-6.5,11.1
			C207.6,440.6,209.1,432.1,212.2,426.3z M173.3,454.8c-0.4,0,7.8-28.4,17-28.4C194.5,426.4,183,453.8,173.3,454.8z M233.5,467.9
			c-0.8-2.5-1-5.3-0.1-8.1c0.1-0.2,0.2-0.5,0.5-0.4c2.2,1.7,4.1,3.1,6.8,3.7C239.9,470.3,235,474,233.5,467.9z M240.9,461.3
			c-2.5-0.7-4.5-2-5.3-4.1c-0.7-2-0.3-4.3,1-5.9c0.9-1.1,2.6-0.6,3.3,0.3C242,453.6,241.5,458.4,240.9,461.3z M254.1,470.2
			c-1.2-2.8-0.8-5.4-0.5-8.1c0.2-2.4,3.1-15.7,7.4-13.1c0.7,0.4,1.1,1.3,1.2,2.1C263.1,457.8,258.9,464.7,254.1,470.2z"/>
	</g>
	<g id="SPLINE_21_">
		<path class="st0" d="M344,422.9c-0.7,2.6-2.7,4.2-4.4,6c-5.5,4.8-13.5,9.2-12.5,17.2c0.2,2,2.9,0.7,2.6-0.1
			c-0.7-3.8,0.9-6.9,3.6-9.5l9.8-8.5l-0.4,32c-0.2,6.2-0.9,12.4-3.2,18.4c-1.1,2.9-3,5.3-5.6,7.1c-3.2,2.3-6.7,1.2-8.3-2.3
			c-2.2-5.1,0.2-10.3,3.7-14.1c0.9-1,2-1.9,3-2.8c0.5-0.4,2.7-2.2,0.7-2.3c-0.4-0.1-0.7,0.2-1.1,0.4c-5.1,3.1-9.8,8.3-10.2,14.4
			c-0.4,6.3,5.8,10.7,12.2,9.7c11.4-1.8,14.4-17,15-27.4c0.7-13.4,0.6-25.5,1-37.3C350.1,421.3,344.3,421.7,344,422.9z"/>
	</g>
	<g id="HATCH_5_">
		<path d="M344,422.9c-0.7,2.6-2.7,4.2-4.4,6c-5.5,4.8-13.5,9.2-12.5,17.2c0.2,2,2.9,0.7,2.6-0.1c-0.7-3.8,0.9-6.9,3.6-9.5l9.8-8.5
			l-0.4,32c-0.2,6.2-0.9,12.4-3.2,18.4c-1.1,2.9-3,5.3-5.6,7.1c-3.2,2.3-6.7,1.2-8.3-2.3c-2.2-5.1,0.2-10.3,3.7-14.1
			c0.9-1,2-1.9,3-2.8c0.5-0.4,2.7-2.2,0.7-2.3c-0.4-0.1-0.7,0.2-1.1,0.4c-5.1,3.1-9.8,8.3-10.2,14.4c-0.4,6.3,5.8,10.7,12.2,9.7
			c11.4-1.8,14.4-17,15-27.4c0.7-13.4,0.6-25.5,1-37.3C350.1,421.3,344.3,421.7,344,422.9z"/>
	</g>
	<g id="SPLINE_20_">
		<path class="st0" d="M484.8,455.9c-0.8-0.7-1.5,0.3-1.5,0.3c-9.3,15.2-10.4,17.2-11.6,19.2c-0.3,0.6-0.9,1.3-1.7,1.2
			c-0.5-0.1-0.8-0.4-1-0.8c-0.2-0.4-0.2-0.8-0.3-1.3c-0.7-6.2,0.6-12.9,1-19.2c0.2-3.9,2.9-6.2,5.1-9.1c3-3.8,12.6-20.3,7.3-24.1
			c-1.9-1.4-4.1-1-5.8,0.4c-1.6,1.3-3.2,2.7-4.4,4.4c-2.8,4.1-4.6,8.7-5.9,13.5c-0.6,2.5-1.1,5-1.6,7.3c-1.4-0.3-2.7-0.7-4-0.6
			c-3,0-5.8,1.3-7.7,3.6c-1.2,1.5-2.5,4-3.3,6.8c-0.3,0.5-0.6,1-0.9,1.5c-3.8,6.3-7.6,12.7-11.5,19c0-8.9,3.5-17.4,4.2-26.4
			c0.2-3.3-1.1-7.1-4.8-5.9c-5.1,1.7-10,13.4-11.7,17.6c0-4.8,0.6-9.7,0.6-14.5c0-0.7,0-1.3-0.4-1.8c-0.5-1.1-2-1.1-3.1-1.1
			c-1.1,0.1-2.3,0.3-2.8,1.2c-0.2,0.4-0.2,0.8-0.2,1.3c-0.1,3.5-0.2,7-0.2,10.5c-1,1.5-1.9,3-2.4,3.8c-1.3,2.2-3.9,6.9-5.1,6.9
			c-2.3,0-1-8.1-0.8-9.7c0.5-3.4,1.3-6.7,1.8-10.2c0.2-1.4,0.2-2.6-1.6-3.1c-2-0.6-3.4,0-4.1,1.5l-2.8,5.2c-1-2.4-1.7-5.4-4.4-6.5
			c-6.2-1.7-9.1,5.3-10.1,11.7c-1.8,2.9-3.5,5.7-5.3,8.4c-2.6,4.1-5.7,3.6-6.7-0.9c-1.1-4.1-0.1-11.6,0.1-15.8
			c0-0.6,0.2-1.4,0.6-1.9c3.3-4.3,5.3-8.1,7.3-12.9c1.3-3.5,2.3-7,2.2-10.8c-0.1-2.6-1.4-4.4-3.3-4.7c-3-0.4-5.6,0.5-7.2,3.2
			c-0.9,1.4-1.7,2.9-2.2,4.5c-3.5,10.3-4.3,20.8-3.7,31.1c-2,2.4-4,3.5-7.4,4.7c-0.4,0.2-0.5,0-0.6-0.2c-2.4-4.8-5.1-10.5-3.8-15.5
			c0.2-0.9,1-3.3,2-1.8c0.8,1.4,0.8,3,0.7,4.6c-0.1,1.9,2.7,1.3,2.7,0c0-1.4-0.1-2.8-0.5-4.2c-0.6-2.4-2.1-3.5-4.6-3.2
			c-3.5,0.5-6.4,3.1-6.8,6.6c-0.9,6,3.3,11.3,5.2,16.2c-2.9,2.9-5,7.2-4.4,11.4c0.8,6.1,8.5,4,10.8,0.1c2.2-3.7,1-7.2-0.3-11.2
			c-0.1-0.1-0.2-0.3-0.1-0.4c0.1-0.1,0.2-0.2,0.3-0.2c2.7-1.2,4.9-2.1,7.1-4.3c0.4,4.2,1,8.7,5.6,10.3c2.7,0.9,5.8,0.4,7.5-2
			c1.6-2.4,3.2-4.7,4.6-7c0,1.1,0,2,0.1,2.8c0.1,1.3,0.6,2.7,1.3,3.9c2.1,3.3,7.3,3.1,9.2-0.2c1.6-2.9,2.9-6.1,4.5-9.2
			c0,2.2-0.1,4.4,0,6.7c0.2,3.4,3.6,6.6,7,5.2c3.4-1.4,5.1-5.4,6.9-8.4c0.3-0.4,0.6-0.8,0.9-1.3c0.1,3.1,0.2,6.2,0.3,9.3
			c0,0.5,0,0.9,0.4,1.2c0.2,0.3,0.6,0.4,1,0.4c1.4,0,3.1,0,4-1.1c0.3-0.5,0.4-1.1,0.5-1.7c1.9-7.6,4.9-15.2,10-21.1
			c0.2-0.2,0.5-0.4,0.7-0.4c0.4,0.1,0.3,0.6,0.2,1c-1.6,5.7-2.8,11.8-3.7,17.6c-0.5,2.7-0.8,5.5-0.6,8.3c0,1.2,0.2,2.4,0.8,3.4
			c0.6,1.1,1.6,1.9,2.8,2.1c2.5,0.1,3.9-2.3,4.8-4.1c3-5.6,5.7-10,8.3-14.3c-0.3,4.1,0.7,7.7,4.2,8.8c5.5,1.8,7.7-3.3,10.4-6.9
			c0.3,2.6,0.6,5.2,1,7.6c0.4,2.6,2.7,6.3,5.7,6.2c0.9-0.1,1.8-0.6,2.5-1.2c0.7-0.7,1.2-1.4,1.7-2.2c2-2.9,3.7-5.9,11.2-17.9
			C484.8,457.5,485.5,456.4,484.8,455.9z"/>
	</g>
	<g id="SPLINE_19_">
		<path class="st0" d="M474.7,433.9c0.5-1.4,4.6-11.3,6.3-10.2c0.5,0.3,0.6,1,0.5,1.5c-0.3,3.8-2,8.1-3.6,11.6
			c-1.7,3.6-3.9,6.9-6.9,10.3C471.7,442.6,472.9,438.2,474.7,433.9z"/>
	</g>
	<g id="SPLINE_18_">
		<path class="st0" d="M383.5,422.4c3.6,2.6-1.2,17.7-6.3,22.9C378.4,437.3,380.3,425.2,383.5,422.4z"/>
	</g>
	<g id="SPLINE_17_">
		<path class="st0" d="M358.1,478.6c-0.9,1.1-2.3,0.9-2.6-0.6c-0.8-3.4,0.8-6.9,2.8-9.6C359.6,471.5,360.5,476.1,358.1,478.6z"/>
	</g>
	<g id="SPLINE_16_">
		<path class="st0" d="M396.2,469.9c-2.7,0-1.2-9.3-0.9-11.7c0.3-1.8,1-9.1,3.6-8.8C405.7,453.2,397.6,469.9,396.2,469.9z"/>
	</g>
	<g id="SPLINE_15_">
		<path class="st0" d="M455.4,470.2c-1.2-2.8-0.8-5.4-0.5-8.1c0.2-2.4,3.1-15.7,7.4-13.1c0.7,0.4,1.1,1.3,1.2,2.1
			C464.5,457.8,460.3,464.7,455.4,470.2z"/>
	</g>
	<g id="HATCH_4_">
		<path d="M484.8,455.9c-0.8-0.7-1.5,0.3-1.5,0.3c-9.3,15.2-10.4,17.2-11.6,19.2c-0.3,0.6-0.9,1.3-1.7,1.2c-0.5-0.1-0.8-0.4-1-0.8
			c-0.2-0.4-0.2-0.8-0.3-1.3c-0.7-6.2,0.6-12.9,1-19.2c0.2-3.9,2.9-6.2,5.1-9.1c3-3.8,12.6-20.3,7.3-24.1c-1.9-1.4-4.1-1-5.8,0.4
			c-1.6,1.3-3.2,2.7-4.4,4.4c-2.8,4.1-4.6,8.7-5.9,13.5c-0.6,2.5-1.1,5-1.6,7.3c-1.4-0.3-2.7-0.7-4-0.6c-3,0-5.8,1.3-7.7,3.6
			c-1.2,1.5-2.5,4-3.3,6.8c-0.3,0.5-0.6,1-0.9,1.5c-3.8,6.3-7.6,12.7-11.5,19c0-8.9,3.5-17.4,4.2-26.4c0.2-3.3-1.1-7.1-4.8-5.9
			c-5.1,1.7-10,13.4-11.7,17.6c0-4.8,0.6-9.7,0.6-14.5c0-0.7,0-1.3-0.4-1.8c-0.5-1.1-2-1.1-3.1-1.1c-1.1,0.1-2.3,0.3-2.8,1.2
			c-0.2,0.4-0.2,0.8-0.2,1.3c-0.1,3.5-0.2,7-0.2,10.5c-1,1.5-1.9,3-2.4,3.8c-1.3,2.2-3.9,6.9-5.1,6.9c-2.3,0-1-8.1-0.8-9.7
			c0.5-3.4,1.3-6.7,1.8-10.2c0.2-1.4,0.2-2.6-1.6-3.1c-2-0.6-3.4,0-4.1,1.5l-2.8,5.2c-1-2.4-1.7-5.4-4.4-6.5
			c-6.2-1.7-9.1,5.3-10.1,11.7c-1.8,2.9-3.5,5.7-5.3,8.4c-2.6,4.1-5.7,3.6-6.7-0.9c-1.1-4.1-0.1-11.6,0.1-15.8
			c0-0.6,0.2-1.4,0.6-1.9c3.3-4.3,5.3-8.1,7.3-12.9c1.3-3.5,2.3-7,2.2-10.8c-0.1-2.6-1.4-4.4-3.3-4.7c-3-0.4-5.6,0.5-7.2,3.2
			c-0.9,1.4-1.7,2.9-2.2,4.5c-3.5,10.3-4.3,20.8-3.7,31.1c-2,2.4-4,3.5-7.4,4.7c-0.4,0.2-0.5,0-0.6-0.2c-2.4-4.8-5.1-10.5-3.8-15.5
			c0.2-0.9,1-3.3,2-1.8c0.8,1.4,0.8,3,0.7,4.6c-0.1,1.9,2.7,1.3,2.7,0c0-1.4-0.1-2.8-0.5-4.2c-0.6-2.4-2.1-3.5-4.6-3.2
			c-3.5,0.5-6.4,3.1-6.8,6.6c-0.9,6,3.3,11.3,5.2,16.2c-2.9,2.9-5,7.2-4.4,11.4c0.8,6.1,8.5,4,10.8,0.1c2.2-3.7,1-7.2-0.3-11.2
			c-0.1-0.1-0.2-0.3-0.1-0.4c0.1-0.1,0.2-0.2,0.3-0.2c2.7-1.2,4.9-2.1,7.1-4.3c0.4,4.2,1,8.7,5.6,10.3c2.7,0.9,5.8,0.4,7.5-2
			c1.6-2.4,3.2-4.7,4.6-7c0,1.1,0,2,0.1,2.8c0.1,1.3,0.6,2.7,1.3,3.9c2.1,3.3,7.3,3.1,9.2-0.2c1.6-2.9,2.9-6.1,4.5-9.2
			c0,2.2-0.1,4.4,0,6.7c0.2,3.4,3.6,6.6,7,5.2c3.4-1.4,5.1-5.4,6.9-8.4c0.3-0.4,0.6-0.8,0.9-1.3c0.1,3.1,0.2,6.2,0.3,9.3
			c0,0.5,0,0.9,0.4,1.2c0.2,0.3,0.6,0.4,1,0.4c1.4,0,3.1,0,4-1.1c0.3-0.5,0.4-1.1,0.5-1.7c1.9-7.6,4.9-15.2,10-21.1
			c0.2-0.2,0.5-0.4,0.7-0.4c0.4,0.1,0.3,0.6,0.2,1c-1.6,5.7-2.8,11.8-3.7,17.6c-0.5,2.7-0.8,5.5-0.6,8.3c0,1.2,0.2,2.4,0.8,3.4
			c0.6,1.1,1.6,1.9,2.8,2.1c2.5,0.1,3.9-2.3,4.8-4.1c3-5.6,5.7-10,8.3-14.3c-0.3,4.1,0.7,7.7,4.2,8.8c5.5,1.8,7.7-3.3,10.4-6.9
			c0.3,2.6,0.6,5.2,1,7.6c0.4,2.6,2.7,6.3,5.7,6.2c0.9-0.1,1.8-0.6,2.5-1.2c0.7-0.7,1.2-1.4,1.7-2.2c2-2.9,3.7-5.9,11.2-17.9
			C484.8,457.5,485.5,456.4,484.8,455.9z M474.7,433.9c0.5-1.4,4.6-11.3,6.3-10.2c0.5,0.3,0.6,1,0.5,1.5c-0.3,3.8-2,8.1-3.6,11.6
			c-1.7,3.6-3.9,6.9-6.9,10.3C471.7,442.6,472.9,438.2,474.7,433.9z M383.5,422.4c3.6,2.6-1.2,17.7-6.3,22.9
			C378.4,437.3,380.3,425.2,383.5,422.4z M358.1,478.6c-0.9,1.1-2.3,0.9-2.6-0.6c-0.8-3.4,0.8-6.9,2.8-9.6
			C359.6,471.5,360.5,476.1,358.1,478.6z M396.2,469.9c-2.7,0-1.2-9.3-0.9-11.7c0.3-1.8,1-9.1,3.6-8.8
			C405.7,453.2,397.6,469.9,396.2,469.9z M455.4,470.2c-1.2-2.8-0.8-5.4-0.5-8.1c0.2-2.4,3.1-15.7,7.4-13.1c0.7,0.4,1.1,1.3,1.2,2.1
			C464.5,457.8,460.3,464.7,455.4,470.2z"/>
	</g>
</g>
</svg>
