<?xml version="1.0" encoding="utf-8"?>
<!-- Generator: Adobe Illustrator 22.0.1, SVG Export Plug-In . SVG Version: 6.00 Build 0)  -->
<svg version="1.1" id="Layer_1" xmlns="http://www.w3.org/2000/svg" xmlns:xlink="http://www.w3.org/1999/xlink" x="0px" y="0px"
	 viewBox="0 0 500 500" style="enable-background:new 0 0 500 500;" xml:space="preserve">
<style type="text/css">
	.st0{fill:none;stroke:#000000;stroke-width:1.1339;stroke-linecap:round;stroke-linejoin:round;stroke-miterlimit:10;}
	.st1{fill:none;stroke:#000000;stroke-width:0;stroke-linecap:round;stroke-linejoin:round;stroke-miterlimit:10;}
</style>
<g id="POLYLINE_1_">
	<path class="st0" d="M8,72.7v35.8L26,126.5h26.9l44.8,53.8l107.5,89.6l26.9,26.9l9,26.9l26.9,26.9l17.9,26.9h17.9l9-44.8l9-17.9
		h35.8l26.9-26.9v-26.9l26.9-26.9l26.9-17.9v-35.8l26.9-35.8l26.9-35.8h-26.9l-80.7-71.7l-35.8-9l-62.7,9l-17.9,17.9H241V27.9
		L223.1,10l-26.9,9h-89.6L61.8,36.9L8,72.7"/>
</g>
<g id="HATCH_7_">
	<path d="M8,72.7v35.8L26,126.5h26.9l44.8,53.8l107.5,89.6l26.9,26.9l9,26.9l26.9,26.9l17.9,26.9h17.9l9-44.8l9-17.9h35.8l26.9-26.9
		v-26.9l26.9-26.9l26.9-17.9v-35.8l26.9-35.8l26.9-35.8h-26.9l-80.7-71.7l-35.8-9l-62.7,9l-17.9,17.9H241V27.9L223.1,10l-26.9,9
		h-89.6L61.8,36.9L8,72.7C8,72.7,8,72.7,8,72.7z"/>
</g>
<g id="INSERT_1_">
	<g id="SPLINE_25_">
		<path class="st1" d="M207.1,436.3c-1,1.4-2,2.9-2.9,4.3l-14.3,21.7c0-4.3,3.2-17.7,3.2-18.1c0,0,0.8-3.6,1.1-5.3
			c0.8-3.9,2.2-12.7-5.2-11.1c-4.5,0.8-8,7.3-10.1,10.1c0-1.4,0.1-8.3,0.9-9.2c6.4-6.4,11.2-14.7,13-22.8c0.9-4.6-1.4-7.9-6-8
			c-7-0.2-10.3,5.9-12.1,11.2c-2.8,8.7-3.3,18.5-4.2,27.3c-0.1,1.1-0.2,2.2-0.3,3.4c-2.1,3.1-4.1,6.2-6.2,9.2
			c-1.1,1.7-2.7,3.7-4.8,3.7c-7.5-0.2-4.2-17.4-3.6-20.8c0.1-0.9,4.1-20.3,4.2-20.3c2.7,0,5.6,0.1,8.2-0.1c1.3,0,1.7-1.9,0.8-2.4
			c-0.3-0.2-0.5-0.2-0.9-0.2c-2.5-0.2-4.8-0.3-7.1-0.3c0.3-1.2,2-8.7,2.3-9.5c0.6-4.2-4.6-4.1-6.1-1.4c-1.3,2.1-1.9,4.3-4.2,10.7
			c-2,0-3.6-0.1-5.2-0.1c-0.4,0-0.6,0-1,0c-1,0-1.7,0.7-1.7,1.5c0,0.6,0.4,0.9,0.8,0.9c0.5,0.2,6.1,0.8,6.1,0.8
			c-1.8,8.3-4.5,17.6-4.8,26.4c-5.1,7.6-8.9,15-12.8,22.5c-0.5,0.9-1,2-1.8,2.9c0-2.3,0.4-4.3,0.6-6.5c1.1-8.8,2.7-17.5,3.4-26.2
			c0-1.6-0.5-3.5-2.3-4.1c-1.8-0.7-3.8-0.2-5.1,1c-3.1,3.4-4.5,7.8-6.2,11.7c-1.8,4.3-3.6,8.7-5.1,13c-2.8-7.2-0.6-15.6,0.1-23
			c0.4-2.9-0.8-4.1-4-3.7c-1.8,0.1-2.5,1-3.1,2.5c-0.9,3.5-1.3,7.2-1.5,10.9c-1.4,1.6-3.1,3.1-5.6,3.7c0.4-2.8,0.6-5.7,0.1-8.5
			c-2-9.4-13.8-9.8-17.5-1.5c-0.6,1.5-1.3,3.3-1.8,5.4c-3.4,4.2-9.5,10.4-16,14c-3.2-8.5-6.2-16.8-9.6-25c-1.9-4.5-3.3-9.1-2.8-14
			c0.4-3.2,0.9-6.6,3.2-9.4c3.8-4.5,7.7,3.7,7.9,6.4c0.4,4.2,0.6,8.2,1,12.3c0.1,1,0.6,1.5,1.9,1.5c1.4,0,1.7-0.6,1.5-1.7
			c-0.6-6.6,0.5-20.8-8.8-21.7c-5.7-0.6-10.7,1.5-12.5,6.4c-1.7,3.9-2.3,8-1.4,12.2c0.8,3.6,2.2,6.9,3.3,10.4
			c3.1,8.2,6.5,17,9.4,25.2c-9.6,8-16.8,14.5-17.5,25.1C43.7,486,48,491,55.6,489.8c2.8-0.6,6.5-2,8.5-3.9
			c9.4-9.4,8.3-18.6,5.1-31.6c5.6-3.4,10.4-7.3,14.4-11.6c-0.6,6,1,11.9,8.4,13.2c3.3,0.6,6.1-0.8,8-3.1c1.8-2.2,2.7-5.1,3.4-7.8
			c2.3-0.4,4.1-1.4,5.6-2.7c0,0.8,0,1.5,0,2.3c0,4.6,1.7,10.5,7.1,10.5c2.7,0,3.8-1.6,4.5-3.5c1.3-3.1,6.4-15.8,7.9-18.8
			c-1.7,9.3-2.8,17.8-2.7,26.8c0,3.4,1.7,5.8,5.2,6.1c1.9,0.1,3.1-1,4.1-2.5c4.3-7.3,7.8-14.5,11.8-21.1c0.1,1.7,0.4,3.4,0.8,5.1
			c0.5,1.9,1.3,3.6,2.5,5.1c3.3,3.7,9.8,4.9,14.3-0.3c2-2.4,3.8-4.9,5.5-7.5c0,0.8,0,1.6,0,2.4c0,2.1-1.3,8.5,2.8,8.5
			c1.7,0,2.9-0.2,3.3-2c2.4-13.2,10.6-21.4,12.6-22.8c-1.5,6.1-3.6,13.4-4.6,19.1c-0.9,4.7-2.7,15.2,3.8,15.9c1.4,0,2.8-0.7,3.8-1.5
			c1-0.9,1.7-2.1,2.3-3.2c13-20.5,14-21.8,14.8-22.8c0,0,0.9-1.3,0.1-1.9C208,435.2,207.1,436.3,207.1,436.3z"/>
	</g>
	<g id="SPLINE_24_">
		<path class="st1" d="M186.1,401.9c0.5-0.6,1-1.3,2-1.2c5.1,1.4,0.8,10.2,0,12.3c-1.7,4.2-5.4,9.1-8.3,12.7
			C180.2,418.4,182.2,408.6,186.1,401.9z"/>
	</g>
	<g id="SPLINE_23_">
		<path class="st1" d="M56.4,487.2c-2.8,1.6-5.2,1.2-7-1.4c-6.6-10.2,5.1-22.8,13.1-28C64.6,468.6,67.2,480.9,56.4,487.2z"/>
	</g>
	<g id="SPLINE_22_">
		<path class="st1" d="M91.8,449.9c-1-2.9-1.3-6.1-0.1-9.3c0.1-0.2,0.3-0.6,0.6-0.5c2.8,2,5.2,3.6,8.7,4.3
			C99.8,452.5,93.5,456.8,91.8,449.9z"/>
	</g>
	<g id="SPLINE_21_">
		<path class="st1" d="M101.1,442.2c-3.2-0.8-5.7-2.3-6.8-4.7c-0.9-2.3-0.4-5,1.3-6.8c1.1-1.3,3.3-0.7,4.2,0.3
			C102.5,433.4,101.8,438.9,101.1,442.2z"/>
	</g>
	<g id="HATCH_6_">
		<path d="M207.1,436.3c-1,1.4-2,2.9-2.9,4.3l-14.3,21.7c0-4.3,3.2-17.7,3.2-18.1c0,0,0.8-3.6,1.1-5.3c0.8-3.9,2.2-12.7-5.2-11.1
			c-4.5,0.8-8,7.3-10.1,10.1c0-1.4,0.1-8.3,0.9-9.2c6.4-6.4,11.2-14.7,13-22.8c0.9-4.6-1.4-7.9-6-8c-7-0.2-10.3,5.9-12.1,11.2
			c-2.8,8.7-3.3,18.5-4.2,27.3c-0.1,1.1-0.2,2.2-0.3,3.4c-2.1,3.1-4.1,6.2-6.2,9.2c-1.1,1.7-2.7,3.7-4.8,3.7
			c-7.5-0.2-4.2-17.4-3.6-20.8c0.1-0.9,4.1-20.3,4.2-20.3c2.7,0,5.6,0.1,8.2-0.1c1.3,0,1.7-1.9,0.8-2.4c-0.3-0.2-0.5-0.2-0.9-0.2
			c-2.5-0.2-4.8-0.3-7.1-0.3c0.3-1.2,2-8.7,2.3-9.5c0.6-4.2-4.6-4.1-6.1-1.4c-1.3,2.1-1.9,4.3-4.2,10.7c-2,0-3.6-0.1-5.2-0.1
			c-0.4,0-0.6,0-1,0c-1,0-1.7,0.7-1.7,1.5c0,0.6,0.4,0.9,0.8,0.9c0.5,0.2,6.1,0.8,6.1,0.8c-1.8,8.3-4.5,17.6-4.8,26.4
			c-5.1,7.6-8.9,15-12.8,22.5c-0.5,0.9-1,2-1.8,2.9c0-2.3,0.4-4.3,0.6-6.5c1.1-8.8,2.7-17.5,3.4-26.2c0-1.6-0.5-3.5-2.3-4.1
			c-1.8-0.7-3.8-0.2-5.1,1c-3.1,3.4-4.5,7.8-6.2,11.7c-1.8,4.3-3.6,8.7-5.1,13c-2.8-7.2-0.6-15.6,0.1-23c0.4-2.9-0.8-4.1-4-3.7
			c-1.8,0.1-2.5,1-3.1,2.5c-0.9,3.5-1.3,7.2-1.5,10.9c-1.4,1.6-3.1,3.1-5.6,3.7c0.4-2.8,0.6-5.7,0.1-8.5c-2-9.4-13.8-9.8-17.5-1.5
			c-0.6,1.5-1.3,3.3-1.8,5.4c-3.4,4.2-9.5,10.4-16,14c-3.2-8.5-6.2-16.8-9.6-25c-1.9-4.5-3.3-9.1-2.8-14c0.4-3.2,0.9-6.6,3.2-9.4
			c3.8-4.5,7.7,3.7,7.9,6.4c0.4,4.2,0.6,8.2,1,12.3c0.1,1,0.6,1.5,1.9,1.5c1.4,0,1.7-0.6,1.5-1.7c-0.6-6.6,0.5-20.8-8.8-21.7
			c-5.7-0.6-10.7,1.5-12.5,6.4c-1.7,3.9-2.3,8-1.4,12.2c0.8,3.6,2.2,6.9,3.3,10.4c3.1,8.2,6.5,17,9.4,25.2
			c-9.6,8-16.8,14.5-17.5,25.1C43.7,486,48,491,55.6,489.8c2.8-0.6,6.5-2,8.5-3.9c9.4-9.4,8.3-18.6,5.1-31.6
			c5.6-3.4,10.4-7.3,14.4-11.6c-0.6,6,1,11.9,8.4,13.2c3.3,0.6,6.1-0.8,8-3.1c1.8-2.2,2.7-5.1,3.4-7.8c2.3-0.4,4.1-1.4,5.6-2.7
			c0,0.8,0,1.5,0,2.3c0,4.6,1.7,10.5,7.1,10.5c2.7,0,3.8-1.6,4.5-3.5c1.3-3.1,6.4-15.8,7.9-18.8c-1.7,9.3-2.8,17.8-2.7,26.8
			c0,3.4,1.7,5.8,5.2,6.1c1.9,0.1,3.1-1,4.1-2.5c4.3-7.3,7.8-14.5,11.8-21.1c0.1,1.7,0.4,3.4,0.8,5.1c0.5,1.9,1.3,3.6,2.5,5.1
			c3.3,3.7,9.8,4.9,14.3-0.3c2-2.4,3.8-4.9,5.5-7.5c0,0.8,0,1.6,0,2.4c0,2.1-1.3,8.5,2.8,8.5c1.7,0,2.9-0.2,3.3-2
			c2.4-13.2,10.6-21.4,12.6-22.8c-1.5,6.1-3.6,13.4-4.6,19.1c-0.9,4.7-2.7,15.2,3.8,15.9c1.4,0,2.8-0.7,3.8-1.5
			c1-0.9,1.7-2.1,2.3-3.2c13-20.5,14-21.8,14.8-22.8c0,0,0.9-1.3,0.1-1.9C208,435.2,207.1,436.3,207.1,436.3z M186.1,401.9
			c0.5-0.6,1-1.3,2-1.2c5.1,1.4,0.8,10.2,0,12.3c-1.7,4.2-5.4,9.1-8.3,12.7C180.2,418.4,182.2,408.6,186.1,401.9z M56.4,487.2
			c-2.8,1.6-5.2,1.2-7-1.4c-6.6-10.2,5.1-22.8,13.1-28C64.6,468.6,67.2,480.9,56.4,487.2z M91.8,449.9c-1-2.9-1.3-6.1-0.1-9.3
			c0.1-0.2,0.3-0.6,0.6-0.5c2.8,2,5.2,3.6,8.7,4.3C99.8,452.5,93.5,456.8,91.8,449.9z M101.1,442.2c-3.2-0.8-5.7-2.3-6.8-4.7
			c-0.9-2.3-0.4-5,1.3-6.8c1.1-1.3,3.3-0.7,4.2,0.3C102.5,433.4,101.8,438.9,101.1,442.2z"/>
	</g>
	<g id="SPLINE_20_">
		<path class="st1" d="M397.7,416.9c2.9-3-2.4-6-4.5-2.3C392.1,417.3,395.8,418.6,397.7,416.9z"/>
	</g>
	<g id="HATCH_5_">
		<path d="M397.7,416.9c2.9-3-2.4-6-4.5-2.3C392.1,417.3,395.8,418.6,397.7,416.9z"/>
	</g>
	<g id="SPLINE_19_">
		<path class="st1" d="M488.3,436c-1-0.8-2,0.3-2,0.3c-1.9,2.8-4.2,6.1-5.2,7.6c-1.7,2.5-5,8-6.5,8c-2.9,0-1.3-9.3-1-11.1
			c0.6-3.9,1.7-7.8,2.3-11.7c0.3-1.6,0.3-3-2-3.6c-2.5-0.7-4.3,0-5.2,1.7l-3.6,6c-1.3-2.8-2.2-6.3-5.6-7.5c-8-2-11.7,6.3-12.8,13.8
			c0,0,0,0,0,0.1c-4.8,7.3-9.7,14.6-14.5,21.9c0-10.2,4.5-20,5.4-30.3c0.3-3.8-1.4-8.2-6.1-6.8c-6.5,2-12.6,15.4-14.8,20.3
			c0-5.6,0.8-11.1,0.8-16.7c0-0.8,0-1.5-0.5-2.1c-0.6-1.3-2.5-1.3-4-1.3c-1.4,0.1-2.9,0.3-3.6,1.4c-0.3,0.5-0.3,0.9-0.3,1.5
			c-0.2,4-0.2,8.1-0.2,12.1c-2.6,3.8-4.1,6-5.7,8.3c-0.9,1.2-1.7,2.7-3.1,3.5c-1.1,0.7-2.5,0.9-3.7,0.2c-0.8-0.5-1.3-1.3-1.5-2.1
			c-0.9-3.9,1.8-14.8,2.7-18.6c0.5-1.9,0.4-4.2-2-4.5c-3.2-0.5-5.1,0.2-5.5,2.4c-0.8,3.1-1.5,6.5-1.9,9.9c-2.5,3.5-4.7,6.9-7.1,10.3
			c-3.3,4.7-7.3,4.2-8.5-1c-1.4-4.7-0.1-13.3,0.1-18.2c0-0.7,0.3-1.6,0.8-2.2c4.2-5,6.8-9.3,9.3-14.8c1.7-4.1,2.9-8.1,2.8-12.4
			c-0.1-3-1.8-5.1-4.2-5.4c-3.8-0.5-7.1,0.6-9.2,3.7c-1.1,1.6-2.2,3.4-2.8,5.2c-4.5,11.9-5.4,24-4.7,35.8c-1.3,1.3-2.8,2.4-4.8,2.9
			c0.4-2.8,0.6-5.7,0.1-8.5c-2-9.4-13.8-9.8-17.5-1.5c-0.7,1.6-1.4,3.7-1.9,5.9c-1.5,2.2-3,4.4-3.8,5.5c-1.8,2.5-3.4,5.2-5.6,7.4
			c-2.4,2.2-3.7-0.6-3.7-2.3c0.1-6.5,2.8-13.6,4.6-19.8c1-3.6,0.5-4.3-3.7-4.2c-4.1,0-6.2,0.1-6.6,0c0.5-2.5,1.4-7.5-0.8-9.5
			c-0.9-0.9-2.5-0.9-3.8-0.7c-5.9,1.2-9.3,9.3-3.3,11.7c1.3,0.5,3.1,0.8,4.5,1.2c0.1,0-4.5,6.4-6,8.6c0,0,0,0,0,0.1
			c-1.9,2.8-4.2,6.1-5.2,7.6c-1.7,2.5-5,8-6.5,8c-2.9,0-1.3-9.3-1-11.1c0.6-3.9,1.7-7.8,2.3-11.7c0.3-1.6,0.3-3-2-3.6
			c-2.5-0.7-4.3,0-5.2,1.7l-3.6,6c-1.3-2.8-2.2-6.3-5.6-7.5c-7.8-2-11.5,6-12.8,13.4c-10.7,15-18,24.4-21.9,24.4
			c-13.4,0-2.3-73.8,8.9-63.1c3.2,3.1,4.3,6.8,6.1,9.7c1.4,2.2,2.3,1.6,2.7,0.9c0.4-0.7-1.1-4.3-1.4-4.7
			c-4.3-10.2-8.9-11.5-17.3-7.3c-4.3,2.1-7,6.6-8.5,10.7c-5.1,13.3-6.5,28-5.9,42c0.1,3.1,1,6.4,2.3,9.1c3.4,7.5,11.1,8.2,16.3,5.2
			c4.2-2.4,10.7-11.2,18.2-22c0,1.2,0,2.2,0.1,3.1c0.1,1.5,0.8,3.1,1.7,4.5c2.7,3.8,9.3,3.6,11.6-0.2c2-3.4,3.7-7.1,5.7-10.5
			c0,2.5-0.1,5.1,0,7.8c0.3,3.9,4.6,7.6,8.9,6c4.3-1.6,6.5-6.3,8.8-9.6c1.4-1.9,3.8-5.4,5.2-7.4c0,0,0.1-0.1,0.1-0.2
			c1.7-2.4,5.9-8.3,6.8-9.9l4.1,0.1c-1.5,4.9-3.1,9.5-3.7,14.5c-0.3,1.6-0.5,3.2-0.5,5c0,2.1,0.5,4.7,2.4,6.1
			c7.3,5.7,12.5-4.1,15.3-8.2c0.3-0.4,0.7-0.9,1.1-1.5c-0.3,5.6,1.6,10.9,8.5,12c3.3,0.6,6.1-0.8,8-3.1c1.8-2.2,2.7-5.1,3.4-7.8
			c2.1-0.3,3.7-1.2,5.2-2.4c0.5,4.8,1.3,10,7,11.9c3.4,1,7.4,0.5,9.6-2.3c2.3-3,4.4-5.9,6.5-8.8c0,2.4,0.3,4.8,0.9,7
			c1.3,4.1,5.2,6,9.7,4.9c1.1-0.2,2.2-0.8,2.9-1.6c2.7-2.3,4.3-5.3,6.4-8.1c0.3-0.5,0.7-1,1.1-1.7c0.1,3.6,0.2,7.1,0.4,10.7
			c0,0.6,0,1,0.5,1.4c0.3,0.3,0.8,0.5,1.3,0.5c1.8,0,4,0,5.1-1.3c0.4-0.6,0.5-1.3,0.6-2c2.4-8.8,6.2-17.5,12.6-24.3
			c0.3-0.2,0.6-0.5,0.9-0.5c0.5,0.1,0.4,0.7,0.3,1.2c-2,6.6-3.6,13.6-4.7,20.3c-0.6,3.1-1,6.4-0.8,9.5c0,1.4,0.3,2.8,1,3.9
			c0.8,1.3,2,2.2,3.6,2.4c3.2,0.1,5-2.7,6.1-4.7c3.8-6.4,7.2-11.5,10.5-16.4c0,1.1,0,2.1,0.1,2.9c0.1,1.5,0.8,3.1,1.7,4.5
			c2.7,3.8,9.3,3.6,11.6-0.2c2-3.4,3.7-7.1,5.7-10.5c0,2.5-0.1,5.1,0,7.8c0.3,3.9,4.6,7.6,8.9,6c4.3-1.6,6.5-6.3,8.8-9.6
			c1.4-1.9,3.8-5.4,5.2-7.4C488.1,437.8,489.2,436.6,488.3,436z"/>
	</g>
	<g id="SPLINE_18_">
		<path class="st1" d="M380.5,397.4c4.6,3-1.5,20.4-8,26.4C374.2,414.7,376.5,400.7,380.5,397.4z"/>
	</g>
	<g id="SPLINE_17_">
		<path class="st1" d="M281.3,452.1c-3.4,0-1.5-10.7-1.1-13.4c0.4-2.1,1.3-10.4,4.6-10.1C293.5,433,283.1,452.1,281.3,452.1z"/>
	</g>
	<g id="SPLINE_16_">
		<path class="st1" d="M318.1,424.3c-1.7-2.8-1.5-5,0-7.6C319.3,419.3,319.1,421.5,318.1,424.3z"/>
	</g>
	<g id="SPLINE_15_">
		<path class="st1" d="M347.6,449.9c-1-2.9-1.3-6.1-0.1-9.3c0.1-0.2,0.3-0.6,0.6-0.5c2.8,2,5.2,3.6,8.7,4.3
			C355.7,452.5,349.4,456.8,347.6,449.9z"/>
	</g>
	<g id="SPLINE_14_">
		<path class="st1" d="M357,442.2c-3.2-0.8-5.7-2.3-6.8-4.7c-0.9-2.3-0.4-5,1.3-6.8c1.1-1.3,3.3-0.7,4.2,0.3
			C358.4,433.4,357.7,438.9,357,442.2z"/>
	</g>
	<g id="SPLINE_13_">
		<path class="st1" d="M455.6,452.1c-3.4,0-1.5-10.7-1.1-13.4c0.4-2.1,1.3-10.4,4.6-10.1C467.7,433,457.4,452.1,455.6,452.1z"/>
	</g>
	<g id="HATCH_4_">
		<path d="M488.3,436c-1-0.8-2,0.3-2,0.3c-1.9,2.8-4.2,6.1-5.2,7.6c-1.7,2.5-5,8-6.5,8c-2.9,0-1.3-9.3-1-11.1
			c0.6-3.9,1.7-7.8,2.3-11.7c0.3-1.6,0.3-3-2-3.6c-2.5-0.7-4.3,0-5.2,1.7l-3.6,6c-1.3-2.8-2.2-6.3-5.6-7.5c-8-2-11.7,6.3-12.8,13.8
			c0,0,0,0,0,0.1c-4.8,7.3-9.7,14.6-14.5,21.9c0-10.2,4.5-20,5.4-30.3c0.3-3.8-1.4-8.2-6.1-6.8c-6.5,2-12.6,15.4-14.8,20.3
			c0-5.6,0.8-11.1,0.8-16.7c0-0.8,0-1.5-0.5-2.1c-0.6-1.3-2.5-1.3-4-1.3c-1.4,0.1-2.9,0.3-3.6,1.4c-0.3,0.5-0.3,0.9-0.3,1.5
			c-0.2,4-0.2,8.1-0.2,12.1c-2.6,3.8-4.1,6-5.7,8.3c-0.9,1.2-1.7,2.7-3.1,3.5c-1.1,0.7-2.5,0.9-3.7,0.2c-0.8-0.5-1.3-1.3-1.5-2.1
			c-0.9-3.9,1.8-14.8,2.7-18.6c0.5-1.9,0.4-4.2-2-4.5c-3.2-0.5-5.1,0.2-5.5,2.4c-0.8,3.1-1.5,6.5-1.9,9.9c-2.5,3.5-4.7,6.9-7.1,10.3
			c-3.3,4.7-7.3,4.2-8.5-1c-1.4-4.7-0.1-13.3,0.1-18.2c0-0.7,0.3-1.6,0.8-2.2c4.2-5,6.8-9.3,9.3-14.8c1.7-4.1,2.9-8.1,2.8-12.4
			c-0.1-3-1.8-5.1-4.2-5.4c-3.8-0.5-7.1,0.6-9.2,3.7c-1.1,1.6-2.2,3.4-2.8,5.2c-4.5,11.9-5.4,24-4.7,35.8c-1.3,1.3-2.8,2.4-4.8,2.9
			c0.4-2.8,0.6-5.7,0.1-8.5c-2-9.4-13.8-9.8-17.5-1.5c-0.7,1.6-1.4,3.7-1.9,5.9c-1.5,2.2-3,4.4-3.8,5.5c-1.8,2.5-3.4,5.2-5.6,7.4
			c-2.4,2.2-3.7-0.6-3.7-2.3c0.1-6.5,2.8-13.6,4.6-19.8c1-3.6,0.5-4.3-3.7-4.2c-4.1,0-6.2,0.1-6.6,0c0.5-2.5,1.4-7.5-0.8-9.5
			c-0.9-0.9-2.5-0.9-3.8-0.7c-5.9,1.2-9.3,9.3-3.3,11.7c1.3,0.5,3.1,0.8,4.5,1.2c0.1,0-4.5,6.4-6,8.6c0,0,0,0,0,0.1
			c-1.9,2.8-4.2,6.1-5.2,7.6c-1.7,2.5-5,8-6.5,8c-2.9,0-1.3-9.3-1-11.1c0.6-3.9,1.7-7.8,2.3-11.7c0.3-1.6,0.3-3-2-3.6
			c-2.5-0.7-4.3,0-5.2,1.7l-3.6,6c-1.3-2.8-2.2-6.3-5.6-7.5c-7.8-2-11.5,6-12.8,13.4c-10.7,15-18,24.4-21.9,24.4
			c-13.4,0-2.3-73.8,8.9-63.1c3.2,3.1,4.3,6.8,6.1,9.7c1.4,2.2,2.3,1.6,2.7,0.9c0.4-0.7-1.1-4.3-1.4-4.7
			c-4.3-10.2-8.9-11.5-17.3-7.3c-4.3,2.1-7,6.6-8.5,10.7c-5.1,13.3-6.5,28-5.9,42c0.1,3.1,1,6.4,2.3,9.1c3.4,7.5,11.1,8.2,16.3,5.2
			c4.2-2.4,10.7-11.2,18.2-22c0,1.2,0,2.2,0.1,3.1c0.1,1.5,0.8,3.1,1.7,4.5c2.7,3.8,9.3,3.6,11.6-0.2c2-3.4,3.7-7.1,5.7-10.5
			c0,2.5-0.1,5.1,0,7.8c0.3,3.9,4.6,7.6,8.9,6c4.3-1.6,6.5-6.3,8.8-9.6c1.4-1.9,3.8-5.4,5.2-7.4c0,0,0.1-0.1,0.1-0.2
			c1.7-2.4,5.9-8.3,6.8-9.9l4.1,0.1c-1.5,4.9-3.1,9.5-3.7,14.5c-0.3,1.6-0.5,3.2-0.5,5c0,2.1,0.5,4.7,2.4,6.1
			c7.3,5.7,12.5-4.1,15.3-8.2c0.3-0.4,0.7-0.9,1.1-1.5c-0.3,5.6,1.6,10.9,8.5,12c3.3,0.6,6.1-0.8,8-3.1c1.8-2.2,2.7-5.1,3.4-7.8
			c2.1-0.3,3.7-1.2,5.2-2.4c0.5,4.8,1.3,10,7,11.9c3.4,1,7.4,0.5,9.6-2.3c2.3-3,4.4-5.9,6.5-8.8c0,2.4,0.3,4.8,0.9,7
			c1.3,4.1,5.2,6,9.7,4.9c1.1-0.2,2.2-0.8,2.9-1.6c2.7-2.3,4.3-5.3,6.4-8.1c0.3-0.5,0.7-1,1.1-1.7c0.1,3.6,0.2,7.1,0.4,10.7
			c0,0.6,0,1,0.5,1.4c0.3,0.3,0.8,0.5,1.3,0.5c1.8,0,4,0,5.1-1.3c0.4-0.6,0.5-1.3,0.6-2c2.4-8.8,6.2-17.5,12.6-24.3
			c0.3-0.2,0.6-0.5,0.9-0.5c0.5,0.1,0.4,0.7,0.3,1.2c-2,6.6-3.6,13.6-4.7,20.3c-0.6,3.1-1,6.4-0.8,9.5c0,1.4,0.3,2.8,1,3.9
			c0.8,1.3,2,2.2,3.6,2.4c3.2,0.1,5-2.7,6.1-4.7c3.8-6.4,7.2-11.5,10.5-16.4c0,1.1,0,2.1,0.1,2.9c0.1,1.5,0.8,3.1,1.7,4.5
			c2.7,3.8,9.3,3.6,11.6-0.2c2-3.4,3.7-7.1,5.7-10.5c0,2.5-0.1,5.1,0,7.8c0.3,3.9,4.6,7.6,8.9,6c4.3-1.6,6.5-6.3,8.8-9.6
			c1.4-1.9,3.8-5.4,5.2-7.4C488.1,437.8,489.2,436.6,488.3,436z M380.5,397.4c4.6,3-1.5,20.4-8,26.4
			C374.2,414.7,376.5,400.7,380.5,397.4z M281.3,452.1c-3.4,0-1.5-10.7-1.1-13.4c0.4-2.1,1.3-10.4,4.6-10.1
			C293.5,433,283.1,452.1,281.3,452.1z M318.1,424.3c-1.7-2.8-1.5-5,0-7.6C319.3,419.3,319.1,421.5,318.1,424.3z M347.6,449.9
			c-1-2.9-1.3-6.1-0.1-9.3c0.1-0.2,0.3-0.6,0.6-0.5c2.8,2,5.2,3.6,8.7,4.3C355.7,452.5,349.4,456.8,347.6,449.9z M357,442.2
			c-3.2-0.8-5.7-2.3-6.8-4.7c-0.9-2.3-0.4-5,1.3-6.8c1.1-1.3,3.3-0.7,4.2,0.3C358.4,433.4,357.7,438.9,357,442.2z M455.6,452.1
			c-3.4,0-1.5-10.7-1.1-13.4c0.4-2.1,1.3-10.4,4.6-10.1C467.7,433,457.4,452.1,455.6,452.1z"/>
	</g>
</g>
</svg>
