<?xml version="1.0" encoding="utf-8"?>
<!-- Generator: Adobe Illustrator 22.0.1, SVG Export Plug-In . SVG Version: 6.00 Build 0)  -->
<svg version="1.1" id="Layer_1" xmlns="http://www.w3.org/2000/svg" xmlns:xlink="http://www.w3.org/1999/xlink" x="0px" y="0px"
	 viewBox="0 0 500 500" style="enable-background:new 0 0 500 500;" xml:space="preserve">
<style type="text/css">
	.st0{fill:none;stroke:#000000;stroke-width:0;stroke-linecap:round;stroke-linejoin:round;stroke-miterlimit:10;}
</style>
<g id="POLYLINE_1_">
	<polyline class="st0" points="31.1,140.5 24.6,218.9 5,401.8 357.8,421.4 390.5,441 449.3,434.5 481.9,454.1 495,454.1 495,375.7 
		495,212.3 475.4,192.7 468.9,179.7 488.5,160.1 246.7,153.5 31.1,140.5 	"/>
</g>
<g id="HATCH_5_">
	<polygon points="31.1,140.5 24.6,218.9 5,401.8 357.8,421.4 390.5,441 449.3,434.5 481.9,454.1 495,454.1 495,375.7 495,212.3 
		475.4,192.7 468.9,179.7 488.5,160.1 246.7,153.5 31.1,140.5 	"/>
</g>
<g id="INSERT_1_">
	<g id="SPLINE_23_">
		<path class="st0" d="M238.3,83.8c-0.7,1.2-1.5,2.6-2.1,3.8l-10.4,19.1c0-3.8,2.3-15.6,2.3-15.9c0,0,0.6-3.2,0.8-4.7
			c0.6-3.5,1.6-11.2-3.8-9.8c-3.3,0.7-5.9,6.4-7.3,8.9c0-1.2,0.1-7.4,0.7-8.1c4.6-5.6,8.2-13,9.5-20.1c0.7-4.1-1-6.9-4.4-7.1
			c-5.1-0.2-7.5,5.2-8.8,9.9c-2,7.7-2.4,16.4-3.1,24.1c-0.1,1-0.1,2-0.2,3c-1.5,2.7-3,5.5-4.5,8.1c-0.8,1.5-2,3.3-3.5,3.3
			c-5.5-0.2-3.1-15.3-2.6-18.4c0.1-0.8,3-17.9,3.1-17.9c2,0,4.1,0.1,5.9-0.1c0.9,0,1.2-1.6,0.6-2.1c-0.2-0.2-0.4-0.2-0.7-0.2
			c-1.9-0.2-3.5-0.3-5.2-0.3c0.2-1,1.5-7.7,1.7-8.4c0.5-3.7-3.3-3.6-4.5-1.2c-0.9,1.8-1.4,3.8-3.1,9.4c-1.5,0-2.6-0.1-3.8-0.1
			c-0.3,0-0.5,0-0.7,0c-0.7,0-1.2,0.6-1.2,1.3c0,0.5,0.3,0.8,0.6,0.8c0.4,0.2,4.5,0.7,4.5,0.7c-1.3,7.3-3.3,15.6-3.5,23.3
			c-3.7,6.7-6.5,13.3-9.3,19.9c-0.4,0.8-0.7,1.7-1.3,2.6c0-2,0.3-3.8,0.5-5.7c0.8-7.8,2-15.4,2.5-23.1c0-1.4-0.4-3.1-1.7-3.6
			c-1.3-0.6-2.8-0.2-3.7,0.9c-2.2,3-3.3,6.8-4.6,10.3c-1.3,3.8-2.6,7.7-3.7,11.4c-2-6.3-0.5-13.8,0.1-20.3c0.3-2.6-0.6-3.6-2.9-3.3
			c-1.3,0.1-1.9,0.9-2.2,2.2c-0.7,3.1-1,6.4-1.1,9.6c-1,1.5-2.3,2.7-4.1,3.3c0.3-2.5,0.5-5,0.1-7.5c-1.5-8.3-10-8.7-12.7-1.3
			c-0.5,1.3-0.9,3-1.3,4.7c-2.4,3.7-6.9,9.2-11.7,12.3c-2.3-7.5-4.6-14.8-7-22.1c-1.4-4-2.4-8.1-2-12.4c0.3-2.9,0.7-5.8,2.3-8.3
			c2.8-4,5.6,3.3,5.8,5.6c0.3,3.7,0.5,7.3,0.7,10.8c0.1,0.9,0.5,1.3,1.4,1.3c1,0,1.2-0.5,1.1-1.5c-0.5-5.8,0.4-18.4-6.4-19.1
			c-4.2-0.5-7.8,1.3-9.1,5.6c-1.2,3.5-1.7,7.1-1,10.7c0.6,3.2,1.6,6.1,2.4,9.2c2.2,7.3,4.7,15,6.9,22.3c-7,7.1-12.3,12.8-12.7,22.2
			c-0.4,5.7,2.8,10.1,8.3,9.1c2-0.5,4.7-1.7,6.2-3.5c6.9-8.3,6-16.5,3.7-27.9c4-3,7.6-6.4,10.5-10.3c-0.4,5.3,0.7,10.5,6.1,11.6
			c2.4,0.5,4.5-0.7,5.9-2.8c1.3-1.9,2-4.5,2.5-6.8c1.7-0.3,3-1.2,4.1-2.4c0,0.7,0,1.3,0,2c0,4.1,1.2,9.3,5.2,9.3
			c2,0,2.8-1.4,3.3-3.1c0.9-2.8,4.6-13.9,5.8-16.6c-1.2,8.2-2,15.7-2,23.6c0,3,1.2,5.1,3.8,5.4c1.4,0.1,2.2-0.9,3-2.2
			c3.1-6.4,5.7-12.8,8.6-18.6c0.1,1.5,0.3,3,0.6,4.5c0.4,1.6,0.9,3.2,1.9,4.5c2.4,3.3,7.2,4.3,10.4-0.3c1.5-2.2,2.8-4.4,4-6.6
			c0,0.7,0,1.4,0,2.1c0,1.8-0.9,7.5,2,7.5c1.2,0,2.1-0.2,2.4-1.7c1.8-11.7,7.7-18.9,9.2-20.1c-1.1,5.4-2.6,11.9-3.3,16.9
			c-0.7,4.2-2,13.4,2.8,14c1,0,2-0.6,2.8-1.3c0.7-0.8,1.2-1.8,1.7-2.9c9.5-18.1,10.2-19.2,10.8-20.1c0,0,0.7-1.1,0.1-1.6
			C238.9,82.8,238.3,83.8,238.3,83.8z"/>
	</g>
	<g id="SPLINE_22_">
		<path class="st0" d="M223,53.5c0.4-0.5,0.7-1.1,1.5-1c3.7,1.2,0.6,9,0,10.8c-1.2,3.7-3.9,8.1-6,11.2C218.7,68,220.1,59.4,223,53.5
			z"/>
	</g>
	<g id="SPLINE_21_">
		<path class="st0" d="M128.5,128.7c-2,1.4-3.8,1-5.1-1.2c-4.8-9,3.7-20.1,9.6-24.7C134.5,112.3,136.3,123.2,128.5,128.7z"/>
	</g>
	<g id="SPLINE_20_">
		<path class="st0" d="M154.2,95.8c-0.7-2.6-0.9-5.4-0.1-8.2c0.1-0.2,0.2-0.5,0.5-0.4c2,1.7,3.8,3.2,6.3,3.8
			C160.1,98.1,155.5,101.9,154.2,95.8z"/>
	</g>
	<g id="SPLINE_19_">
		<path class="st0" d="M161,89c-2.3-0.7-4.2-2-4.9-4.2c-0.7-2-0.3-4.4,0.9-6c0.8-1.1,2.4-0.6,3.1,0.3C162,81.3,161.6,86.1,161,89z"
			/>
	</g>
	<g id="HATCH_4_">
		<path d="M238.3,83.8c-0.7,1.2-1.5,2.6-2.1,3.8l-10.4,19.1c0-3.8,2.3-15.6,2.3-15.9c0,0,0.6-3.2,0.8-4.7c0.6-3.5,1.6-11.2-3.8-9.8
			c-3.3,0.7-5.9,6.4-7.3,8.9c0-1.2,0.1-7.4,0.7-8.1c4.6-5.6,8.2-13,9.5-20.1c0.7-4.1-1-6.9-4.4-7.1c-5.1-0.2-7.5,5.2-8.8,9.9
			c-2,7.7-2.4,16.4-3.1,24.1c-0.1,1-0.1,2-0.2,3c-1.5,2.7-3,5.5-4.5,8.1c-0.8,1.5-2,3.3-3.5,3.3c-5.5-0.2-3.1-15.3-2.6-18.4
			c0.1-0.8,3-17.9,3.1-17.9c2,0,4.1,0.1,5.9-0.1c0.9,0,1.2-1.6,0.6-2.1c-0.2-0.2-0.4-0.2-0.7-0.2c-1.9-0.2-3.5-0.3-5.2-0.3
			c0.2-1,1.5-7.7,1.7-8.4c0.5-3.7-3.3-3.6-4.5-1.2c-0.9,1.8-1.4,3.8-3.1,9.4c-1.5,0-2.6-0.1-3.8-0.1c-0.3,0-0.5,0-0.7,0
			c-0.7,0-1.2,0.6-1.2,1.3c0,0.5,0.3,0.8,0.6,0.8c0.4,0.2,4.5,0.7,4.5,0.7c-1.3,7.3-3.3,15.6-3.5,23.3c-3.7,6.7-6.5,13.3-9.3,19.9
			c-0.4,0.8-0.7,1.7-1.3,2.6c0-2,0.3-3.8,0.5-5.7c0.8-7.8,2-15.4,2.5-23.1c0-1.4-0.4-3.1-1.7-3.6c-1.3-0.6-2.8-0.2-3.7,0.9
			c-2.2,3-3.3,6.8-4.6,10.3c-1.3,3.8-2.6,7.7-3.7,11.4c-2-6.3-0.5-13.8,0.1-20.3c0.3-2.6-0.6-3.6-2.9-3.3c-1.3,0.1-1.9,0.9-2.2,2.2
			c-0.7,3.1-1,6.4-1.1,9.6c-1,1.5-2.3,2.7-4.1,3.3c0.3-2.5,0.5-5,0.1-7.5c-1.5-8.3-10-8.7-12.7-1.3c-0.5,1.3-0.9,3-1.3,4.7
			c-2.4,3.7-6.9,9.2-11.7,12.3c-2.3-7.5-4.6-14.8-7-22.1c-1.4-4-2.4-8.1-2-12.4c0.3-2.9,0.7-5.8,2.3-8.3c2.8-4,5.6,3.3,5.8,5.6
			c0.3,3.7,0.5,7.3,0.7,10.8c0.1,0.9,0.5,1.3,1.4,1.3c1,0,1.2-0.5,1.1-1.5c-0.5-5.8,0.4-18.4-6.4-19.1c-4.2-0.5-7.8,1.3-9.1,5.6
			c-1.2,3.5-1.7,7.1-1,10.7c0.6,3.2,1.6,6.1,2.4,9.2c2.2,7.3,4.7,15,6.9,22.3c-7,7.1-12.3,12.8-12.7,22.2c-0.4,5.7,2.8,10.1,8.3,9.1
			c2-0.5,4.7-1.7,6.2-3.5c6.9-8.3,6-16.5,3.7-27.9c4-3,7.6-6.4,10.5-10.3c-0.4,5.3,0.7,10.5,6.1,11.6c2.4,0.5,4.5-0.7,5.9-2.8
			c1.3-1.9,2-4.5,2.5-6.8c1.7-0.3,3-1.2,4.1-2.4c0,0.7,0,1.3,0,2c0,4.1,1.2,9.3,5.2,9.3c2,0,2.8-1.4,3.3-3.1
			c0.9-2.8,4.6-13.9,5.8-16.6c-1.2,8.2-2,15.7-2,23.6c0,3,1.2,5.1,3.8,5.4c1.4,0.1,2.2-0.9,3-2.2c3.1-6.4,5.7-12.8,8.6-18.6
			c0.1,1.5,0.3,3,0.6,4.5c0.4,1.6,0.9,3.2,1.9,4.5c2.4,3.3,7.2,4.3,10.4-0.3c1.5-2.2,2.8-4.4,4-6.6c0,0.7,0,1.4,0,2.1
			c0,1.8-0.9,7.5,2,7.5c1.2,0,2.1-0.2,2.4-1.7c1.8-11.7,7.7-18.9,9.2-20.1c-1.1,5.4-2.6,11.9-3.3,16.9c-0.7,4.2-2,13.4,2.8,14
			c1,0,2-0.6,2.8-1.3c0.7-0.8,1.2-1.8,1.7-2.9c9.5-18.1,10.2-19.2,10.8-20.1c0,0,0.7-1.1,0.1-1.6C238.9,82.8,238.3,83.8,238.3,83.8z
			 M223,53.5c0.4-0.5,0.7-1.1,1.5-1c3.7,1.2,0.6,9,0,10.8c-1.2,3.7-3.9,8.1-6,11.2C218.7,68,220.1,59.4,223,53.5z M128.5,128.7
			c-2,1.4-3.8,1-5.1-1.2c-4.8-9,3.7-20.1,9.6-24.7C134.5,112.3,136.3,123.2,128.5,128.7z M154.2,95.8c-0.7-2.6-0.9-5.4-0.1-8.2
			c0.1-0.2,0.2-0.5,0.5-0.4c2,1.7,3.8,3.2,6.3,3.8C160.1,98.1,155.5,101.9,154.2,95.8z M161,89c-2.3-0.7-4.2-2-4.9-4.2
			c-0.7-2-0.3-4.4,0.9-6c0.8-1.1,2.4-0.6,3.1,0.3C162,81.3,161.6,86.1,161,89z"/>
	</g>
	<g id="SPLINE_18_">
		<path class="st0" d="M406.5,83.5c-0.7-0.7-1.5,0.3-1.5,0.3c-1.4,2.5-3.1,5.4-3.8,6.7c-1.2,2.2-3.6,7.1-4.7,7.1
			c-2.1,0-0.9-8.2-0.7-9.8c0.5-3.5,1.2-6.8,1.7-10.3c0.2-1.4,0.2-2.7-1.5-3.2c-1.9-0.6-3.2,0-3.8,1.5l-2.6,5.3
			c-0.9-2.5-1.6-5.5-4.1-6.6c-5.8-1.8-8.5,5.5-9.3,12.1c-1.6,2.8-3.1,5.6-4.7,8.3c-0.8,1.5-2,3.3-3.5,3.3
			c-5.5-0.2-3.1-15.3-2.6-18.4c0.1-0.8,3-17.9,3.1-17.9c2,0,4.1,0.1,5.9-0.1c0.9,0,1.2-1.6,0.6-2.1c-0.2-0.2-0.4-0.2-0.7-0.2
			c-1.9-0.2-3.5-0.3-5.2-0.3c0.2-1,1.5-7.7,1.7-8.4c0.5-3.7-3.3-3.6-4.5-1.2c-0.9,1.8-1.4,3.8-3.1,9.4c-1.5,0-2.6-0.1-3.8-0.1
			c-0.3,0-0.5,0-0.7,0c-0.7,0-1.2,0.6-1.2,1.3c0,0.5,0.3,0.8,0.6,0.8c0.4,0.2,4.5,0.7,4.5,0.7c-1.3,7.3-3.3,15.5-3.5,23.2
			c-1.2,1.9-2.6,3.6-4.8,4.3c0.3-2.5,0.5-5,0.1-7.5c-1.5-8.3-10-8.7-12.7-1.3c-0.5,1.4-1,3.3-1.4,5.2c-3,5.2-5.6,10.5-8.1,15.7
			c-0.8,2-1.8,3.8-1.8,0.2c0-4-0.1-8-0.4-11.9c-0.1-1.3-0.1-2.7-0.6-3.9c-0.3-0.8-0.8-1.6-1.6-2.2c-0.4-0.2-1.8-0.9-2-0.5
			c2-3.1,3.9-6.2,5.9-9.2c0.1,0,0.2-0.1,0.2-0.2c0-0.3-0.3-0.4-0.5-0.5c-1.1-0.4-2-0.2-2.7,0.8c-2.1,3.1-4.1,6.3-6.3,9.4l0.4-7.9
			c3.9-6,6.5-11.5,8.2-17.8c0.6-2.1,0.8-4.5,0.8-6.8c0-4-2.7-5.8-6.1-4.6c-1.7,0.6-3.3,2-4.3,3.7c-1.2,2.1-2,4.9-2.2,7.4
			c-1.2,9.3-1.8,18.6-2.3,27.9c-1.2,2.1-2.4,4.2-3,5.3c-1.2,2.2-3.6,7.1-4.7,7.1c-2.1,0-0.9-8.2-0.7-9.8c0.5-3.5,1.2-6.8,1.7-10.3
			c0.2-1.4,0.2-2.7-1.5-3.2c-1.9-0.6-3.2,0-3.8,1.5l-2.6,5.3c-0.9-2.5-1.6-5.5-4.1-6.6c-5.5-1.7-8.2,4.8-9.2,11.1
			c-1.8,2.1-4,3.4-6.4,4.5c2.6-11.9,3.5-27.7-2.2-37.9c-1.1-1.9-2.7-2.9-4.8-3c-6-0.1-8.9,13.1-12.4,23.4c0-2.2-0.1-4.1,0-5.9
			c0.1-5,0.3-9.9,0.4-14.8c0.1-1.7-0.6-2.5-2.1-2.5c-1.8,0-2.4,0.7-2.4,2.8c-0.4,10.3-0.7,20.5-1.1,30.9c-0.3,5.6-0.7,11.2-0.9,16.9
			c-0.1,2.5,1.3,3.8,3.3,2.7c0.6-0.3,1.2-1.5,1.3-2.5c0.3-6.2,1.1-12.4,2.4-18.4c2.2-10.2,4.6-21.2,10.2-29.8
			c0.5-0.7,0.9-0.6,1.3,0.2c5.5,12.2,5.2,26.9,2.3,39.9c-2,1.4-4.3,2.1-6.1,3.4c-3.9,2.7-7.2,6-8.7,10.7c-0.8,2.4-1,5.1,0.7,7.2
			c1.8,2,4,1.6,6.2,0.8c7.4-2.8,10-14.3,12.1-21.3c1.9-0.8,4.5-2.1,6.7-3.9c-0.1,1.7-0.1,3.3,0,4.6c0.1,1.3,0.6,2.8,1.2,4
			c2,3.4,6.8,3.2,8.5-0.2c1.5-3,2.7-6.2,4.2-9.3c0,2.2-0.1,4.5,0,6.8c0.2,3.5,3.3,6.7,6.5,5.3c3.2-1.4,4.7-5.5,6.4-8.5
			c0.4-0.6,0.9-1.5,1.4-2.3c-0.1,3-0.1,6.1,0.6,9c0.5,1.6,1.9,2.1,3.5,1.8c1.6-0.2,1.7-1.5,1.6-11.4c0-1.9,2.6-4.5,3-1.4
			c0.5,4.5,0.4,9.2,0.7,13.7c0.2,2.8,1.2,6.7,4.3,5.9c1.2-0.2,1.9-1.6,2.4-2.7c1.2-2.5,4.4-9,6.8-13.7c-0.2,4.9,1.2,9.5,6.2,10.5
			c2.4,0.5,4.5-0.7,5.9-2.8c1.3-1.9,2-4.5,2.5-6.8c2.1-0.4,3.6-1.7,4.9-3.3c0.1,1.8,0.3,3.6,0.7,5.3c0.4,1.6,0.9,3.2,1.9,4.5
			c2.4,3.3,7.2,4.3,10.4-0.3c1.5-2.1,2.7-4.3,3.9-6.5c0,0.9,0,1.8,0.1,2.5c0.1,1.3,0.6,2.8,1.2,4c2,3.4,6.8,3.2,8.5-0.2
			c1.5-3,2.7-6.2,4.2-9.3c0,2.2-0.1,4.5,0,6.8c0.2,3.5,3.3,6.7,6.5,5.3c3.2-1.4,4.7-5.5,6.4-8.5c1-1.6,2.8-4.8,3.8-6.5
			C406.4,85.1,407.2,84,406.5,83.5z"/>
	</g>
	<g id="SPLINE_17_">
		<path class="st0" d="M328.4,48.8c3.8-0.1,0.3,10.6-1,14.3c-1,2.8-3.3,7.1-4.7,9.3C323.7,64.5,324.3,48.9,328.4,48.8z"/>
	</g>
	<g id="SPLINE_16_">
		<path class="st0" d="M273.2,104.7c-1.5,3-3,6.2-5.7,7.6c-0.8,0.4-1.5,0.3-2-0.4c-1-1.6-0.6-4.3-0.1-6c0.6-2,1.9-3.8,3.3-5.3
			c2.4-2.6,5.2-4.4,8.1-5.9C275.9,98,274.8,101.5,273.2,104.7z"/>
	</g>
	<g id="SPLINE_15_">
		<path class="st0" d="M295.3,97.7c-2.5,0-1.1-9.4-0.8-11.9c0.3-1.8,0.9-9.2,3.3-8.9C304.2,80.8,296.6,97.7,295.3,97.7z"/>
	</g>
	<g id="SPLINE_14_">
		<path class="st0" d="M345.5,95.8c-0.7-2.6-0.9-5.4-0.1-8.2c0.1-0.2,0.2-0.5,0.5-0.4c2,1.7,3.8,3.2,6.3,3.8
			C351.3,98.1,346.8,101.9,345.5,95.8z"/>
	</g>
	<g id="SPLINE_13_">
		<path class="st0" d="M352.3,89c-2.3-0.7-4.2-2-4.9-4.2c-0.6-2-0.3-4.4,0.9-6c0.8-1.1,2.4-0.6,3.1,0.3
			C353.3,81.3,352.8,86.1,352.3,89z"/>
	</g>
	<g id="SPLINE_12_">
		<path class="st0" d="M382.7,97.7c-2.5,0-1.1-9.4-0.8-11.9c0.3-1.8,0.9-9.2,3.3-8.9C391.6,80.8,384,97.7,382.7,97.7z"/>
	</g>
	<g id="HATCH_3_">
		<path d="M406.5,83.5c-0.7-0.7-1.5,0.3-1.5,0.3c-1.4,2.5-3.1,5.4-3.8,6.7c-1.2,2.2-3.6,7.1-4.7,7.1c-2.1,0-0.9-8.2-0.7-9.8
			c0.5-3.5,1.2-6.8,1.7-10.3c0.2-1.4,0.2-2.7-1.5-3.2c-1.9-0.6-3.2,0-3.8,1.5l-2.6,5.3c-0.9-2.5-1.6-5.5-4.1-6.6
			c-5.8-1.8-8.5,5.5-9.3,12.1c-1.6,2.8-3.1,5.6-4.7,8.3c-0.8,1.5-2,3.3-3.5,3.3c-5.5-0.2-3.1-15.3-2.6-18.4c0.1-0.8,3-17.9,3.1-17.9
			c2,0,4.1,0.1,5.9-0.1c0.9,0,1.2-1.6,0.6-2.1c-0.2-0.2-0.4-0.2-0.7-0.2c-1.9-0.2-3.5-0.3-5.2-0.3c0.2-1,1.5-7.7,1.7-8.4
			c0.5-3.7-3.3-3.6-4.5-1.2c-0.9,1.8-1.4,3.8-3.1,9.4c-1.5,0-2.6-0.1-3.8-0.1c-0.3,0-0.5,0-0.7,0c-0.7,0-1.2,0.6-1.2,1.3
			c0,0.5,0.3,0.8,0.6,0.8c0.4,0.2,4.5,0.7,4.5,0.7c-1.3,7.3-3.3,15.5-3.5,23.2c-1.2,1.9-2.6,3.6-4.8,4.3c0.3-2.5,0.5-5,0.1-7.5
			c-1.5-8.3-10-8.7-12.7-1.3c-0.5,1.4-1,3.3-1.4,5.2c-3,5.2-5.6,10.5-8.1,15.7c-0.8,2-1.8,3.8-1.8,0.2c0-4-0.1-8-0.4-11.9
			c-0.1-1.3-0.1-2.7-0.6-3.9c-0.3-0.8-0.8-1.6-1.6-2.2c-0.4-0.2-1.8-0.9-2-0.5c2-3.1,3.9-6.2,5.9-9.2c0.1,0,0.2-0.1,0.2-0.2
			c0-0.3-0.3-0.4-0.5-0.5c-1.1-0.4-2-0.2-2.7,0.8c-2.1,3.1-4.1,6.3-6.3,9.4l0.4-7.9c3.9-6,6.5-11.5,8.2-17.8
			c0.6-2.1,0.8-4.5,0.8-6.8c0-4-2.7-5.8-6.1-4.6c-1.7,0.6-3.3,2-4.3,3.7c-1.2,2.1-2,4.9-2.2,7.4c-1.2,9.3-1.8,18.6-2.3,27.9
			c-1.2,2.1-2.4,4.2-3,5.3c-1.2,2.2-3.6,7.1-4.7,7.1c-2.1,0-0.9-8.2-0.7-9.8c0.5-3.5,1.2-6.8,1.7-10.3c0.2-1.4,0.2-2.7-1.5-3.2
			c-1.9-0.6-3.2,0-3.8,1.5l-2.6,5.3c-0.9-2.5-1.6-5.5-4.1-6.6c-5.5-1.7-8.2,4.8-9.2,11.1c-1.8,2.1-4,3.4-6.4,4.5
			c2.6-11.9,3.5-27.7-2.2-37.9c-1.1-1.9-2.7-2.9-4.8-3c-6-0.1-8.9,13.1-12.4,23.4c0-2.2-0.1-4.1,0-5.9c0.1-5,0.3-9.9,0.4-14.8
			c0.1-1.7-0.6-2.5-2.1-2.5c-1.8,0-2.4,0.7-2.4,2.8c-0.4,10.3-0.7,20.5-1.1,30.9c-0.3,5.6-0.7,11.2-0.9,16.9
			c-0.1,2.5,1.3,3.8,3.3,2.7c0.6-0.3,1.2-1.5,1.3-2.5c0.3-6.2,1.1-12.4,2.4-18.4c2.2-10.2,4.6-21.2,10.2-29.8
			c0.5-0.7,0.9-0.6,1.3,0.2c5.5,12.2,5.2,26.9,2.3,39.9c-2,1.4-4.3,2.1-6.1,3.4c-3.9,2.7-7.2,6-8.7,10.7c-0.8,2.4-1,5.1,0.7,7.2
			c1.8,2,4,1.6,6.2,0.8c7.4-2.8,10-14.3,12.1-21.3c1.9-0.8,4.5-2.1,6.7-3.9c-0.1,1.7-0.1,3.3,0,4.6c0.1,1.3,0.6,2.8,1.2,4
			c2,3.4,6.8,3.2,8.5-0.2c1.5-3,2.7-6.2,4.2-9.3c0,2.2-0.1,4.5,0,6.8c0.2,3.5,3.3,6.7,6.5,5.3c3.2-1.4,4.7-5.5,6.4-8.5
			c0.4-0.6,0.9-1.5,1.4-2.3c-0.1,3-0.1,6.1,0.6,9c0.5,1.6,1.9,2.1,3.5,1.8c1.6-0.2,1.7-1.5,1.6-11.4c0-1.9,2.6-4.5,3-1.4
			c0.5,4.5,0.4,9.2,0.7,13.7c0.2,2.8,1.2,6.7,4.3,5.9c1.2-0.2,1.9-1.6,2.4-2.7c1.2-2.5,4.4-9,6.8-13.7c-0.2,4.9,1.2,9.5,6.2,10.5
			c2.4,0.5,4.5-0.7,5.9-2.8c1.3-1.9,2-4.5,2.5-6.8c2.1-0.4,3.6-1.7,4.9-3.3c0.1,1.8,0.3,3.6,0.7,5.3c0.4,1.6,0.9,3.2,1.9,4.5
			c2.4,3.3,7.2,4.3,10.4-0.3c1.5-2.1,2.7-4.3,3.9-6.5c0,0.9,0,1.8,0.1,2.5c0.1,1.3,0.6,2.8,1.2,4c2,3.4,6.8,3.2,8.5-0.2
			c1.5-3,2.7-6.2,4.2-9.3c0,2.2-0.1,4.5,0,6.8c0.2,3.5,3.3,6.7,6.5,5.3c3.2-1.4,4.7-5.5,6.4-8.5c1-1.6,2.8-4.8,3.8-6.5
			C406.4,85.1,407.2,84,406.5,83.5z M328.4,48.8c3.8-0.1,0.3,10.6-1,14.3c-1,2.8-3.3,7.1-4.7,9.3C323.7,64.5,324.3,48.9,328.4,48.8z
			 M273.2,104.7c-1.5,3-3,6.2-5.7,7.6c-0.8,0.4-1.5,0.3-2-0.4c-1-1.6-0.6-4.3-0.1-6c0.6-2,1.9-3.8,3.3-5.3c2.4-2.6,5.2-4.4,8.1-5.9
			C275.9,98,274.8,101.5,273.2,104.7z M295.3,97.7c-2.5,0-1.1-9.4-0.8-11.9c0.3-1.8,0.9-9.2,3.3-8.9
			C304.2,80.8,296.6,97.7,295.3,97.7z M345.5,95.8c-0.7-2.6-0.9-5.4-0.1-8.2c0.1-0.2,0.2-0.5,0.5-0.4c2,1.7,3.8,3.2,6.3,3.8
			C351.3,98.1,346.8,101.9,345.5,95.8z M352.3,89c-2.3-0.7-4.2-2-4.9-4.2c-0.6-2-0.3-4.4,0.9-6c0.8-1.1,2.4-0.6,3.1,0.3
			C353.3,81.3,352.8,86.1,352.3,89z M382.7,97.7c-2.5,0-1.1-9.4-0.8-11.9c0.3-1.8,0.9-9.2,3.3-8.9C391.6,80.8,384,97.7,382.7,97.7z"
			/>
	</g>
</g>
</svg>
