<?xml version="1.0" encoding="utf-8"?>
<!-- Generator: Adobe Illustrator 22.0.1, SVG Export Plug-In . SVG Version: 6.00 Build 0)  -->
<svg version="1.1" id="Layer_1" xmlns="http://www.w3.org/2000/svg" xmlns:xlink="http://www.w3.org/1999/xlink" x="0px" y="0px"
	 viewBox="0 0 500 500" style="enable-background:new 0 0 500 500;" xml:space="preserve">
<style type="text/css">
	.st0{fill:none;stroke:#000000;stroke-width:0;stroke-linecap:round;stroke-linejoin:round;stroke-miterlimit:10;}
</style>
<g id="POLYLINE_1_">
	<path class="st0" d="M5,294.9v-37.7l10.8-16.2l10.8-26.9l5.4-21.5l10.8-10.8h70l37.7-10.8l75.4-10.8l86.2-10.8l48.5-5.4l16.2-10.8
		h5.4L495,117.2v16.2l-43.1,32.3l-16.2,5.4l-37.7,32.3l-26.9,10.8l-21.5,21.5v16.2l-59.2,10.8l-16.2,5.4l-150.8,21.5L5,294.9"/>
</g>
<g id="HATCH_5_">
	<path d="M5,294.9v-37.7l10.8-16.2l10.8-26.9l5.4-21.5l10.8-10.8h70l37.7-10.8l75.4-10.8l86.2-10.8l48.5-5.4l16.2-10.8h5.4
		L495,117.2v16.2l-43.1,32.3l-16.2,5.4l-37.7,32.3l-26.9,10.8l-21.5,21.5v16.2l-59.2,10.8l-16.2,5.4l-150.8,21.5L5,294.9
		C5,294.9,5,294.9,5,294.9z"/>
</g>
<g id="INSERT_1_">
	<g id="SPLINE_17_">
		<path class="st0" d="M162.7,319.1c2.3-0.1,17.3,0.9,16.4-1.7c-0.4-1.3-10.8-0.7-12.2-0.7c-5-0.1-10-0.2-15.2-0.2
			c-5-0.1-9.8,0.6-14.2,3.4c-1.9-2-4.1-3.6-7.5-2l1.9,2.2c2.4,2.5,2.4,2.5,0.3,5.1c-2.7,3.1-3.8,6.5-2.3,10.3
			c0.6,1.6,1.7,2.5,3.5,2.7c4.8,0.5,8.1-3.5,7.8-8.7c-0.2-3.2-2.8-6.8-1.6-7.6c2.5-2,5-2.6,7.8-3c2.8-0.4,5.5-0.3,8.4-0.3
			c-5.3,12.6-4.8,31.9-7.2,47.4c-0.6,4.6-2.5,8.9-5.8,12.4c-2.6,2.7-6.1,3.6-8.9,2.3c-4.6-2.3-7.2-8.2-5.7-13.1
			c0.6-1.9,1.6-3.8,3.3-5.1c0.4-0.3,1.9-1,1.8-1.6c-0.1-1-1.6-0.5-2.3-0.2c-9.1,4.6-7.4,19,2.3,21.7c6.6,1.8,14.9-0.7,18.3-9.2
			c1.5-3.9,2.6-8,3.1-12c1.5-12.4,0.7-29.7,6.4-41.1C161.8,319.1,162.2,319.1,162.7,319.1z"/>
	</g>
	<g id="SPLINE_16_">
		<path class="st0" d="M135.6,335.4c-0.3,0.6-0.9,1.2-1.5,1c-3.5-0.6-2.4-8.7,1.2-11.3C137.1,328.2,137.6,332.2,135.6,335.4z"/>
	</g>
	<g id="HATCH_4_">
		<path d="M162.7,319.1c2.3-0.1,17.3,0.9,16.4-1.7c-0.4-1.3-10.8-0.7-12.2-0.7c-5-0.1-10-0.2-15.2-0.2c-5-0.1-9.8,0.6-14.2,3.4
			c-1.9-2-4.1-3.6-7.5-2l1.9,2.2c2.4,2.5,2.4,2.5,0.3,5.1c-2.7,3.1-3.8,6.5-2.3,10.3c0.6,1.6,1.7,2.5,3.5,2.7
			c4.8,0.5,8.1-3.5,7.8-8.7c-0.2-3.2-2.8-6.8-1.6-7.6c2.5-2,5-2.6,7.8-3c2.8-0.4,5.5-0.3,8.4-0.3c-5.3,12.6-4.8,31.9-7.2,47.4
			c-0.6,4.6-2.5,8.9-5.8,12.4c-2.6,2.7-6.1,3.6-8.9,2.3c-4.6-2.3-7.2-8.2-5.7-13.1c0.6-1.9,1.6-3.8,3.3-5.1c0.4-0.3,1.9-1,1.8-1.6
			c-0.1-1-1.6-0.5-2.3-0.2c-9.1,4.6-7.4,19,2.3,21.7c6.6,1.8,14.9-0.7,18.3-9.2c1.5-3.9,2.6-8,3.1-12c1.5-12.4,0.7-29.7,6.4-41.1
			C161.8,319.1,162.2,319.1,162.7,319.1z M135.6,335.4c-0.3,0.6-0.9,1.2-1.5,1c-3.5-0.6-2.4-8.7,1.2-11.3
			C137.1,328.2,137.6,332.2,135.6,335.4z"/>
	</g>
	<g id="SPLINE_15_">
		<path class="st0" d="M351.3,348.3c-0.9-0.7-1.6,0.3-1.6,0.3c-2,3.3-3.7,5.8-4.3,6.8c-0.7,1.2-1.4,2.6-2.4,3.9
			c-1.2,1.7-2.3,3.2-4.4,4c-1,0.3-2,0.5-3.1,0.2c-0.8-0.3-1.4-0.9-1.9-1.5c-1.6-2.3-1.7-5.7-0.9-8.2c0-0.1,0.1-0.2,0.2-0.4
			c0.2-0.2,0.4-0.2,0.5-0.3c1.9-1,3.8-2.3,5.3-3.8c1.4-1.4,2.6-3.3,3.1-5.2c1.2-3.9-1-6.7-5-5.8c-1.7,0.3-3.5,1.1-4.8,2.3
			c-2.9,2.2-4.4,5.5-5,8.9c0,0,0,0.1,0,0.1c-1.8,2.9-3.2,5.1-3.8,5.9c-0.7,1.2-1.4,2.6-2.4,3.9c-1.2,1.7-2.3,3.2-4.4,4
			c-1,0.3-2,0.5-3.1,0.2c-0.8-0.3-1.4-0.9-1.9-1.5c-1.6-2.3-1.7-5.7-0.9-8.2c0-0.1,0.1-0.2,0.2-0.4c0.2-0.2,0.4-0.2,0.5-0.3
			c1.9-1,3.8-2.3,5.3-3.8c1.4-1.4,2.6-3.3,3.1-5.2c1.2-3.9-1-6.7-5-5.8c-1.7,0.3-3.5,1.1-4.8,2.3c-2.9,2.2-4.4,5.5-5,8.9
			c0,0,0,0,0,0.1c-2.6,3.8-4.7,5.4-9.1,6.8c-0.4,0.2-0.5,0-0.6-0.2c-2.5-4.9-5.2-10.7-3.9-15.8c0.2-0.9,1-3.4,2-1.8
			c0.8,1.4,0.8,3.1,0.7,4.7c-0.1,1.9,2.8,1.3,2.8,0c0-1.4-0.1-2.9-0.5-4.3c-0.6-2.5-2.2-3.6-4.7-3.3c-3.6,0.5-6.6,3.2-7,6.8
			c-0.4,2.6,0.1,5,1,7.3c-2.6,3.7-4.6,5.2-9,6.7c-0.4,0.2-0.5,0-0.6-0.2c-2.5-4.9-5.2-10.7-3.9-15.8c0.2-0.9,1-3.4,2-1.8
			c0.8,1.4,0.8,3.1,0.7,4.7c-0.1,1.9,2.8,1.3,2.8,0c0-1.4-0.1-2.9-0.5-4.3c-0.6-2.5-2.2-3.6-4.7-3.3c-3.6,0.5-6.6,3.2-7,6.8
			c-0.4,2.6,0.1,5,1,7.3c-1.8,2.8-3.1,5-3.7,5.8c-0.7,1.2-1.4,2.6-2.4,3.9c-1.2,1.7-2.3,3.2-4.4,4c-1,0.3-2,0.5-3.1,0.2
			c-0.8-0.3-1.4-0.9-1.9-1.5c-1.6-2.3-1.7-5.7-0.9-8.2c0-0.1,0.1-0.2,0.2-0.4c0.2-0.2,0.4-0.2,0.5-0.3c1.9-1,3.8-2.3,5.3-3.8
			c1.4-1.4,2.6-3.3,3.1-5.2c1.2-3.9-1-6.7-5-5.8c-1.7,0.3-3.5,1.1-4.8,2.3c-2.9,2.2-4.4,5.5-5,8.9c0,0.1,0,0.2,0,0.3
			c-0.4,0.6-0.8,1.3-1.2,2c-3.9,6.5-7.8,12.9-11.7,19.4c0-9,3.6-17.7,4.3-26.8c0.2-3.4-1.1-7.3-4.9-6c-5.2,1.7-10.1,13.6-11.9,17.9
			c0-4.9,0.6-9.8,0.6-14.8c0-0.7,0-1.3-0.4-1.8c-0.5-1.1-2-1.1-3.2-1.1c-1.1,0.1-2.4,0.3-2.9,1.2c-0.2,0.4-0.2,0.8-0.2,1.3
			c-0.1,3.6-0.2,7.2-0.2,10.9c-3.9,6.4-7.7,12.8-11.6,19.3c0-9,3.6-17.7,4.3-26.8c0.2-3.4-1.1-7.3-4.9-6
			c-5.2,1.7-10.1,13.6-11.9,17.9c0-4.9,0.6-9.8,0.6-14.8c0-0.7,0-1.3-0.4-1.8c-0.5-1.1-2-1.1-3.2-1.1c-1.1,0.1-2.4,0.3-2.9,1.2
			c-0.2,0.4-0.2,0.8-0.2,1.3c-0.1,3.5-0.2,7.1-0.2,10.7c-1.2,1.9-2.1,3.3-2.5,3.9c-0.7,1.2-1.4,2.6-2.4,3.9c-1.2,1.7-2.3,3.2-4.4,4
			c-1,0.3-2,0.5-3.1,0.2c-0.8-0.3-1.4-0.9-1.9-1.5c-1.6-2.3-1.7-5.7-0.9-8.2c0-0.1,0.1-0.2,0.2-0.4c0.2-0.2,0.4-0.2,0.5-0.3
			c1.9-1,3.8-2.3,5.3-3.8c1.4-1.4,2.6-3.3,3.1-5.2c1.2-3.9-1-6.7-5-5.8c-1.7,0.3-3.5,1.1-4.8,2.3c-2.9,2.2-4.4,5.5-5,8.9
			c-0.7,4.2-0.9,8,0.8,12c1.5,3.8,6,5,9.7,4.3c4.9-1,7-5.2,9.4-9c0.3-0.4,0.6-0.9,1-1.5c0.1,3.2,0.2,6.4,0.3,9.5
			c0,0.5,0,0.9,0.4,1.2c0.2,0.3,0.6,0.4,1,0.4c1.4,0,3.2,0,4.1-1.1c0.3-0.5,0.4-1.1,0.5-1.7c1.9-7.8,5-15.5,10.1-21.5
			c0.2-0.2,0.5-0.4,0.7-0.4c0.4,0.1,0.3,0.6,0.2,1c-1.6,5.8-2.9,12-3.8,17.9c-0.5,2.8-0.8,5.6-0.6,8.4c0,1.2,0.2,2.5,0.8,3.5
			c0.6,1.1,1.6,1.9,2.9,2.2c2.6,0.1,4-2.4,4.9-4.2c3.2-5.9,6-10.5,8.7-14.9c0.1,3.1,0.2,6.2,0.3,9.3c0,0.5,0,0.9,0.4,1.2
			c0.2,0.3,0.6,0.4,1,0.4c1.4,0,3.2,0,4.1-1.1c0.3-0.5,0.4-1.1,0.5-1.7c1.9-7.8,5-15.5,10.1-21.5c0.2-0.2,0.5-0.4,0.7-0.4
			c0.4,0.1,0.3,0.6,0.2,1c-1.6,5.8-2.9,12-3.8,17.9c-0.5,2.8-0.8,5.6-0.6,8.4c0,1.2,0.2,2.5,0.8,3.5c0.6,1.1,1.6,1.9,2.9,2.2
			c2.6,0.1,4-2.4,4.9-4.2c3.4-6.4,6.4-11.3,9.4-16.1c-0.1,2.4,0.3,4.8,1.3,7.2c1.5,3.8,6,5,9.7,4.3c4.9-1,7-5.2,9.4-9
			c0.6-1,1.7-2.6,3.1-4.8c1.1,2.4,2.5,4.7,3.3,7c-3,3-5.1,7.4-4.5,11.6c0.8,6.2,8.6,4.1,11,0.1c2.3-3.8,1-7.4-0.3-11.4
			c-0.1-0.1-0.2-0.3-0.1-0.4c0.1-0.1,0.2-0.2,0.3-0.2c3.6-1.6,6.2-2.6,9.4-6.8c1.1,2.5,2.5,4.8,3.4,7.1c-3,3-5.1,7.4-4.5,11.6
			c0.8,6.2,8.6,4.1,11,0.1c2.3-3.8,1-7.4-0.3-11.4c-0.1-0.1-0.2-0.3-0.1-0.4c0.1-0.1,0.2-0.2,0.3-0.2c3.1-1.4,5.5-2.4,8.1-5.2
			c-0.2,2.7,0.1,5.4,1.3,8.1c1.5,3.8,6,5,9.7,4.3c4.9-1,7-5.2,9.4-9c0.4-0.6,1-1.5,1.7-2.7c-0.1,2.5,0.2,4.9,1.3,7.4
			c1.5,3.8,6,5,9.7,4.3c4.9-1,7-5.2,9.4-9c0.8-1.2,2.3-3.5,4.3-6.7C351.2,350,351.9,348.8,351.3,348.3z"/>
	</g>
	<g id="SPLINE_14_">
		<path class="st0" d="M333.3,349c0.3-1.3,0.8-2.7,1.3-4c0.4-0.8,3.4-6.7,4.2-4.2c0.8,2.2,0,4.3-1.2,6c-0.6,0.8-1.2,1.3-1.9,2
			c-0.2,0.1-2.5,1.8-2.5,1.7C333.2,350.1,333.2,349.5,333.3,349z"/>
	</g>
	<g id="SPLINE_13_">
		<path class="st0" d="M311.1,349c0.3-1.3,0.8-2.7,1.3-4c0.4-0.8,3.4-6.7,4.2-4.2c0.8,2.2,0,4.3-1.2,6c-0.6,0.8-1.2,1.3-1.9,2
			c-0.2,0.1-2.5,1.8-2.5,1.7C311,350.1,311,349.5,311.1,349z"/>
	</g>
	<g id="SPLINE_12_">
		<path class="st0" d="M250.6,349c0.3-1.3,0.8-2.7,1.3-4c0.4-0.8,3.4-6.7,4.2-4.2c0.8,2.2,0,4.3-1.2,6c-0.6,0.8-1.2,1.3-1.9,2
			c-0.2,0.1-2.5,1.8-2.5,1.7C250.5,350.1,250.5,349.5,250.6,349z"/>
	</g>
	<g id="SPLINE_11_">
		<path class="st0" d="M167.7,349c0.3-1.3,0.8-2.7,1.3-4c0.4-0.8,3.4-6.7,4.2-4.2c0.8,2.2,0,4.3-1.2,6c-0.6,0.8-1.2,1.3-1.9,2
			c-0.2,0.1-2.5,1.8-2.5,1.7C167.6,350.1,167.6,349.5,167.7,349z"/>
	</g>
	<g id="SPLINE_10_">
		<path class="st0" d="M271.2,371.5c-0.9,1.1-2.4,0.9-2.7-0.6c-0.8-3.5,0.8-7.1,2.9-9.7C272.7,364.2,273.6,368.9,271.2,371.5z"/>
	</g>
	<g id="SPLINE_9_">
		<path class="st0" d="M290.3,371.5c-0.9,1.1-2.4,0.9-2.7-0.6c-0.8-3.5,0.8-7.1,2.9-9.7C291.8,364.2,292.8,368.9,290.3,371.5z"/>
	</g>
	<g id="HATCH_3_">
		<path d="M351.3,348.3c-0.9-0.7-1.6,0.3-1.6,0.3c-2,3.3-3.7,5.8-4.3,6.8c-0.7,1.2-1.4,2.6-2.4,3.9c-1.2,1.7-2.3,3.2-4.4,4
			c-1,0.3-2,0.5-3.1,0.2c-0.8-0.3-1.4-0.9-1.9-1.5c-1.6-2.3-1.7-5.7-0.9-8.2c0-0.1,0.1-0.2,0.2-0.4c0.2-0.2,0.4-0.2,0.5-0.3
			c1.9-1,3.8-2.3,5.3-3.8c1.4-1.4,2.6-3.3,3.1-5.2c1.2-3.9-1-6.7-5-5.8c-1.7,0.3-3.5,1.1-4.8,2.3c-2.9,2.2-4.4,5.5-5,8.9
			c0,0,0,0.1,0,0.1c-1.8,2.9-3.2,5.1-3.8,5.9c-0.7,1.2-1.4,2.6-2.4,3.9c-1.2,1.7-2.3,3.2-4.4,4c-1,0.3-2,0.5-3.1,0.2
			c-0.8-0.3-1.4-0.9-1.9-1.5c-1.6-2.3-1.7-5.7-0.9-8.2c0-0.1,0.1-0.2,0.2-0.4c0.2-0.2,0.4-0.2,0.5-0.3c1.9-1,3.8-2.3,5.3-3.8
			c1.4-1.4,2.6-3.3,3.1-5.2c1.2-3.9-1-6.7-5-5.8c-1.7,0.3-3.5,1.1-4.8,2.3c-2.9,2.2-4.4,5.5-5,8.9c0,0,0,0,0,0.1
			c-2.6,3.8-4.7,5.4-9.1,6.8c-0.4,0.2-0.5,0-0.6-0.2c-2.5-4.9-5.2-10.7-3.9-15.8c0.2-0.9,1-3.4,2-1.8c0.8,1.4,0.8,3.1,0.7,4.7
			c-0.1,1.9,2.8,1.3,2.8,0c0-1.4-0.1-2.9-0.5-4.3c-0.6-2.5-2.2-3.6-4.7-3.3c-3.6,0.5-6.6,3.2-7,6.8c-0.4,2.6,0.1,5,1,7.3
			c-2.6,3.7-4.6,5.2-9,6.7c-0.4,0.2-0.5,0-0.6-0.2c-2.5-4.9-5.2-10.7-3.9-15.8c0.2-0.9,1-3.4,2-1.8c0.8,1.4,0.8,3.1,0.7,4.7
			c-0.1,1.9,2.8,1.3,2.8,0c0-1.4-0.1-2.9-0.5-4.3c-0.6-2.5-2.2-3.6-4.7-3.3c-3.6,0.5-6.6,3.2-7,6.8c-0.4,2.6,0.1,5,1,7.3
			c-1.8,2.8-3.1,5-3.7,5.8c-0.7,1.2-1.4,2.6-2.4,3.9c-1.2,1.7-2.3,3.2-4.4,4c-1,0.3-2,0.5-3.1,0.2c-0.8-0.3-1.4-0.9-1.9-1.5
			c-1.6-2.3-1.7-5.7-0.9-8.2c0-0.1,0.1-0.2,0.2-0.4c0.2-0.2,0.4-0.2,0.5-0.3c1.9-1,3.8-2.3,5.3-3.8c1.4-1.4,2.6-3.3,3.1-5.2
			c1.2-3.9-1-6.7-5-5.8c-1.7,0.3-3.5,1.1-4.8,2.3c-2.9,2.2-4.4,5.5-5,8.9c0,0.1,0,0.2,0,0.3c-0.4,0.6-0.8,1.3-1.2,2
			c-3.9,6.5-7.8,12.9-11.7,19.4c0-9,3.6-17.7,4.3-26.8c0.2-3.4-1.1-7.3-4.9-6c-5.2,1.7-10.1,13.6-11.9,17.9c0-4.9,0.6-9.8,0.6-14.8
			c0-0.7,0-1.3-0.4-1.8c-0.5-1.1-2-1.1-3.2-1.1c-1.1,0.1-2.4,0.3-2.9,1.2c-0.2,0.4-0.2,0.8-0.2,1.3c-0.1,3.6-0.2,7.2-0.2,10.9
			c-3.9,6.4-7.7,12.8-11.6,19.3c0-9,3.6-17.7,4.3-26.8c0.2-3.4-1.1-7.3-4.9-6c-5.2,1.7-10.1,13.6-11.9,17.9c0-4.9,0.6-9.8,0.6-14.8
			c0-0.7,0-1.3-0.4-1.8c-0.5-1.1-2-1.1-3.2-1.1c-1.1,0.1-2.4,0.3-2.9,1.2c-0.2,0.4-0.2,0.8-0.2,1.3c-0.1,3.5-0.2,7.1-0.2,10.7
			c-1.2,1.9-2.1,3.3-2.5,3.9c-0.7,1.2-1.4,2.6-2.4,3.9c-1.2,1.7-2.3,3.2-4.4,4c-1,0.3-2,0.5-3.1,0.2c-0.8-0.3-1.4-0.9-1.9-1.5
			c-1.6-2.3-1.7-5.7-0.9-8.2c0-0.1,0.1-0.2,0.2-0.4c0.2-0.2,0.4-0.2,0.5-0.3c1.9-1,3.8-2.3,5.3-3.8c1.4-1.4,2.6-3.3,3.1-5.2
			c1.2-3.9-1-6.7-5-5.8c-1.7,0.3-3.5,1.1-4.8,2.3c-2.9,2.2-4.4,5.5-5,8.9c-0.7,4.2-0.9,8,0.8,12c1.5,3.8,6,5,9.7,4.3
			c4.9-1,7-5.2,9.4-9c0.3-0.4,0.6-0.9,1-1.5c0.1,3.2,0.2,6.4,0.3,9.5c0,0.5,0,0.9,0.4,1.2c0.2,0.3,0.6,0.4,1,0.4
			c1.4,0,3.2,0,4.1-1.1c0.3-0.5,0.4-1.1,0.5-1.7c1.9-7.8,5-15.5,10.1-21.5c0.2-0.2,0.5-0.4,0.7-0.4c0.4,0.1,0.3,0.6,0.2,1
			c-1.6,5.8-2.9,12-3.8,17.9c-0.5,2.8-0.8,5.6-0.6,8.4c0,1.2,0.2,2.5,0.8,3.5c0.6,1.1,1.6,1.9,2.9,2.2c2.6,0.1,4-2.4,4.9-4.2
			c3.2-5.9,6-10.5,8.7-14.9c0.1,3.1,0.2,6.2,0.3,9.3c0,0.5,0,0.9,0.4,1.2c0.2,0.3,0.6,0.4,1,0.4c1.4,0,3.2,0,4.1-1.1
			c0.3-0.5,0.4-1.1,0.5-1.7c1.9-7.8,5-15.5,10.1-21.5c0.2-0.2,0.5-0.4,0.7-0.4c0.4,0.1,0.3,0.6,0.2,1c-1.6,5.8-2.9,12-3.8,17.9
			c-0.5,2.8-0.8,5.6-0.6,8.4c0,1.2,0.2,2.5,0.8,3.5c0.6,1.1,1.6,1.9,2.9,2.2c2.6,0.1,4-2.4,4.9-4.2c3.4-6.4,6.4-11.3,9.4-16.1
			c-0.1,2.4,0.3,4.8,1.3,7.2c1.5,3.8,6,5,9.7,4.3c4.9-1,7-5.2,9.4-9c0.6-1,1.7-2.6,3.1-4.8c1.1,2.4,2.5,4.7,3.3,7
			c-3,3-5.1,7.4-4.5,11.6c0.8,6.2,8.6,4.1,11,0.1c2.3-3.8,1-7.4-0.3-11.4c-0.1-0.1-0.2-0.3-0.1-0.4c0.1-0.1,0.2-0.2,0.3-0.2
			c3.6-1.6,6.2-2.6,9.4-6.8c1.1,2.5,2.5,4.8,3.4,7.1c-3,3-5.1,7.4-4.5,11.6c0.8,6.2,8.6,4.1,11,0.1c2.3-3.8,1-7.4-0.3-11.4
			c-0.1-0.1-0.2-0.3-0.1-0.4c0.1-0.1,0.2-0.2,0.3-0.2c3.1-1.4,5.5-2.4,8.1-5.2c-0.2,2.7,0.1,5.4,1.3,8.1c1.5,3.8,6,5,9.7,4.3
			c4.9-1,7-5.2,9.4-9c0.4-0.6,1-1.5,1.7-2.7c-0.1,2.5,0.2,4.9,1.3,7.4c1.5,3.8,6,5,9.7,4.3c4.9-1,7-5.2,9.4-9
			c0.8-1.2,2.3-3.5,4.3-6.7C351.2,350,351.9,348.8,351.3,348.3z M333.3,349c0.3-1.3,0.8-2.7,1.3-4c0.4-0.8,3.4-6.7,4.2-4.2
			c0.8,2.2,0,4.3-1.2,6c-0.6,0.8-1.2,1.3-1.9,2c-0.2,0.1-2.5,1.8-2.5,1.7C333.2,350.1,333.2,349.5,333.3,349z M311.1,349
			c0.3-1.3,0.8-2.7,1.3-4c0.4-0.8,3.4-6.7,4.2-4.2c0.8,2.2,0,4.3-1.2,6c-0.6,0.8-1.2,1.3-1.9,2c-0.2,0.1-2.5,1.8-2.5,1.7
			C311,350.1,311,349.5,311.1,349z M250.6,349c0.3-1.3,0.8-2.7,1.3-4c0.4-0.8,3.4-6.7,4.2-4.2c0.8,2.2,0,4.3-1.2,6
			c-0.6,0.8-1.2,1.3-1.9,2c-0.2,0.1-2.5,1.8-2.5,1.7C250.5,350.1,250.5,349.5,250.6,349z M167.7,349c0.3-1.3,0.8-2.7,1.3-4
			c0.4-0.8,3.4-6.7,4.2-4.2c0.8,2.2,0,4.3-1.2,6c-0.6,0.8-1.2,1.3-1.9,2c-0.2,0.1-2.5,1.8-2.5,1.7
			C167.6,350.1,167.6,349.5,167.7,349z M271.2,371.5c-0.9,1.1-2.4,0.9-2.7-0.6c-0.8-3.5,0.8-7.1,2.9-9.7
			C272.7,364.2,273.6,368.9,271.2,371.5z M290.3,371.5c-0.9,1.1-2.4,0.9-2.7-0.6c-0.8-3.5,0.8-7.1,2.9-9.7
			C291.8,364.2,292.8,368.9,290.3,371.5z"/>
	</g>
</g>
</svg>
