<?xml version="1.0" encoding="utf-8"?>
<!-- Generator: Adobe Illustrator 22.0.1, SVG Export Plug-In . SVG Version: 6.00 Build 0)  -->
<svg version="1.1" id="Layer_1" xmlns="http://www.w3.org/2000/svg" xmlns:xlink="http://www.w3.org/1999/xlink" x="0px" y="0px"
	 viewBox="0 0 500 500" style="enable-background:new 0 0 500 500;" xml:space="preserve">
<style type="text/css">
	.st0{fill:none;stroke:#000000;stroke-width:0;stroke-linecap:round;stroke-linejoin:round;stroke-miterlimit:10;}
</style>
<g id="POLYLINE_1_">
	<polyline class="st0" points="155.5,14.6 152.3,14.6 139.5,210 5,200.4 5,210 65.8,270.8 75.5,309.2 126.7,341.3 136.3,334.9 
		152.3,309.2 161.9,306 177.9,309.2 194,312.4 216.4,331.7 226,357.3 242,386.1 264.4,411.7 267.6,430.9 286.8,463 312.5,475.8 
		334.9,475.8 341.3,485.4 350.9,485.4 350.9,466.2 344.5,424.5 354.1,398.9 363.7,379.7 382.9,363.7 402.1,360.5 421.3,360.5 
		427.7,350.9 440.6,338.1 437.4,322.1 447,315.7 453.4,328.5 463,325.3 482.2,315.7 485.4,309.2 488.6,293.2 485.4,277.2 495,261.2 
		482.2,238.8 472.6,216.4 472.6,149.1 456.6,149.1 434.2,136.3 414.9,136.3 398.9,139.5 386.1,142.7 379.7,136.3 354.1,139.5 
		331.7,136.3 322.1,126.7 309.2,129.9 290,123.5 280.4,113.9 264.4,113.9 254.8,107.5 258,30.6 254.8,21 155.5,14.6 	"/>
</g>
<g id="HATCH_5_">
	<polygon points="155.5,14.6 152.3,14.6 139.5,210 5,200.4 5,210 65.8,270.8 75.5,309.2 126.7,341.3 136.3,334.9 152.3,309.2 
		161.9,306 177.9,309.2 194,312.4 216.4,331.7 226,357.3 242,386.1 264.4,411.7 267.6,430.9 286.8,463 312.5,475.8 334.9,475.8 
		341.3,485.4 350.9,485.4 350.9,466.2 344.5,424.5 354.1,398.9 363.7,379.7 382.9,363.7 402.1,360.5 421.3,360.5 427.7,350.9 
		440.6,338.1 437.4,322.1 447,315.7 453.4,328.5 463,325.3 482.2,315.7 485.4,309.2 488.6,293.2 485.4,277.2 495,261.2 482.2,238.8 
		472.6,216.4 472.6,149.1 456.6,149.1 434.2,136.3 414.9,136.3 398.9,139.5 386.1,142.7 379.7,136.3 354.1,139.5 331.7,136.3 
		322.1,126.7 309.2,129.9 290,123.5 280.4,113.9 264.4,113.9 254.8,107.5 258,30.6 254.8,21 155.5,14.6 	"/>
</g>
<g id="INSERT_1_">
	<g id="SPLINE_11_">
		<path class="st0" d="M82.5,394.9c2.2-0.1,17.1,0.9,16.2-1.7c-0.4-1.3-10.6-0.7-12-0.7c-5-0.1-9.9-0.2-15-0.2
			c-5-0.1-9.7,0.6-14.1,3.3c-1.9-2-4-3.5-7.4-2l1.9,2.1c2.3,2.4,2.3,2.4,0.3,5.1c-2.6,3-3.7,6.4-2.2,10.2c0.6,1.6,1.7,2.4,3.4,2.6
			c4.8,0.5,8-3.4,7.7-8.6c-0.2-3.1-2.7-6.7-1.6-7.5c2.4-2,5-2.5,7.7-2.9c2.7-0.4,5.5-0.3,8.3-0.3c-5.3,12.5-4.8,31.5-7.1,46.9
			c-0.6,4.6-2.4,8.8-5.8,12.2c-2.5,2.6-6.1,3.5-8.8,2.2c-4.6-2.2-7.1-8.1-5.7-13c0.6-1.9,1.6-3.7,3.2-5.1c0.4-0.3,1.9-1,1.8-1.6
			c-0.1-1-1.6-0.5-2.2-0.2c-9,4.6-7.3,18.7,2.2,21.5c6.5,1.8,14.7-0.7,18.1-9.1c1.5-3.8,2.5-7.9,3-11.8c1.5-12.2,0.7-29.4,6.3-40.6
			C81.6,394.9,82,394.9,82.5,394.9z"/>
	</g>
	<g id="SPLINE_10_">
		<path class="st0" d="M55.8,411c-0.3,0.6-0.9,1.2-1.5,1c-3.4-0.6-2.3-8.6,1.2-11.1C57.2,403.9,57.7,407.8,55.8,411z"/>
	</g>
	<g id="HATCH_4_">
		<path d="M82.5,394.9c2.2-0.1,17.1,0.9,16.2-1.7c-0.4-1.3-10.6-0.7-12-0.7c-5-0.1-9.9-0.2-15-0.2c-5-0.1-9.7,0.6-14.1,3.3
			c-1.9-2-4-3.5-7.4-2l1.9,2.1c2.3,2.4,2.3,2.4,0.3,5.1c-2.6,3-3.7,6.4-2.2,10.2c0.6,1.6,1.7,2.4,3.4,2.6c4.8,0.5,8-3.4,7.7-8.6
			c-0.2-3.1-2.7-6.7-1.6-7.5c2.4-2,5-2.5,7.7-2.9c2.7-0.4,5.5-0.3,8.3-0.3c-5.3,12.5-4.8,31.5-7.1,46.9c-0.6,4.6-2.4,8.8-5.8,12.2
			c-2.5,2.6-6.1,3.5-8.8,2.2c-4.6-2.2-7.1-8.1-5.7-13c0.6-1.9,1.6-3.7,3.2-5.1c0.4-0.3,1.9-1,1.8-1.6c-0.1-1-1.6-0.5-2.2-0.2
			c-9,4.6-7.3,18.7,2.2,21.5c6.5,1.8,14.7-0.7,18.1-9.1c1.5-3.8,2.5-7.9,3-11.8c1.5-12.2,0.7-29.4,6.3-40.6
			C81.6,394.9,82,394.9,82.5,394.9z M55.8,411c-0.3,0.6-0.9,1.2-1.5,1c-3.4-0.6-2.3-8.6,1.2-11.1C57.2,403.9,57.7,407.8,55.8,411z"
			/>
	</g>
	<g id="SPLINE_9_">
		<path class="st0" d="M176.2,423.7c-0.8-0.7-1.5,0.3-1.5,0.3c-2.8,4.4-4.9,6-9.5,7.5c-0.4,0.2-0.5,0-0.6-0.2
			c-2.4-4.9-5.2-10.5-3.8-15.6c0.2-0.9,1-3.3,2-1.8c0.8,1.4,0.8,3,0.7,4.7c-0.1,1.9,2.7,1.3,2.7,0c0-1.4-0.1-2.8-0.5-4.3
			c-0.6-2.4-2.1-3.5-4.7-3.2c-3.5,0.5-6.5,3.1-6.9,6.7c-0.4,2.5,0.1,4.9,1,7.2c-1.4,2.2-2.8,4.6-3.6,5.7c-1.3,2.2-3.9,7-5.2,7
			c-2.3,0-1-8.1-0.8-9.7c0.5-3.4,1.3-6.8,1.8-10.2c0.2-1.4,0.2-2.6-1.6-3.1c-2-0.6-3.4,0-4.2,1.5l-2.8,5.3c-1-2.4-1.7-5.5-4.5-6.6
			c-6.3-1.7-9.2,5.3-10.2,11.8c-6.1,9.7-7.1,11.6-8.9,10.1c-0.8-0.8-1.1-1.7-1.7-2.8c-0.6-1.3-1.1-2.6-1.5-3.9
			c-0.1-0.5-0.3-0.9-0.3-1.4c0.1-1.1,5.8-12.5,6.9-14.7c-1.8-0.4-2.9-0.3-3.6,1.2c-0.8,1.6-3.8,7.6-4.6,8.9
			c-0.9-2.5-1.5-5.1-2.2-7.4c-1-2.9-2.7-3.9-5.4-2.4c-2.3,1.3-0.1,5.9,0.3,7.7c0.1,0.3,0.3,1,0.6,1.8c-0.2,0.2-0.3,0.3-0.3,0.3
			c-2,3.2-3.6,5.8-4.3,6.7c-0.7,1.2-1.4,2.5-2.3,3.8c-1.2,1.7-2.2,3.1-4.4,3.9c-1,0.3-2,0.5-3,0.2c-0.8-0.3-1.4-0.9-1.9-1.5
			c-1.6-2.2-1.7-5.7-0.9-8.1c0-0.1,0.1-0.2,0.2-0.4c0.2-0.2,0.4-0.2,0.5-0.3c1.9-1,3.7-2.2,5.3-3.7c1.4-1.4,2.5-3.2,3-5.2
			c1.2-3.8-1-6.6-5-5.8c-1.7,0.3-3.4,1.1-4.8,2.2c-2.8,2.1-4.4,5.5-5,8.8c-0.7,4.2-0.9,7.9,0.8,11.8c1.5,3.7,6,5,9.6,4.3
			c4.9-1,6.9-5.2,9.3-8.9c0.8-1.1,2-3.1,3.8-5.9c0.6,1.9,1.2,3.8,1.1,4.4c-0.2,1.6-5.2,8.6-6.2,10.5c0.7,0.1,1.3,0.1,2,0.1
			c0.8-0.3,5.1-6.9,5.6-7.8c0.2,0.7,1.2,2.9,1.5,3.3c1.2,2.3,3.3,3.9,6.1,3.6c3-0.2,4.7-2.6,6.1-5.1l3.1-4.6c0,1.1,0,2.2,0.1,3
			c0.1,1.3,0.6,2.7,1.3,3.9c2.1,3.3,7.4,3.1,9.2-0.2c1.6-2.9,2.9-6.2,4.6-9.2c0,2.2-0.1,4.5,0,6.8c0.2,3.4,3.6,6.7,7.1,5.3
			c3.4-1.4,5.2-5.5,7-8.4c0.8-1.1,2-3,3-4.6c1.1,2.4,2.4,4.6,3.3,6.9c-2.9,2.9-5.1,7.3-4.5,11.4c0.8,6.2,8.5,4,10.8,0.1
			c2.2-3.7,1-7.3-0.3-11.2c-0.1-0.1-0.2-0.3-0.1-0.4c0.1-0.1,0.2-0.2,0.3-0.2c4-1.8,6.8-2.8,10.5-8.4
			C176.2,425.3,176.9,424.2,176.2,423.7z"/>
	</g>
	<g id="SPLINE_8_">
		<path class="st0" d="M87.5,424.4c0.3-1.3,0.8-2.6,1.3-3.9c0.4-0.8,3.3-6.6,4.1-4.1c0.8,2.1,0,4.3-1.2,6c-0.6,0.8-1.2,1.3-1.9,2
			c-0.2,0.1-2.4,1.8-2.4,1.7C87.4,425.4,87.4,424.9,87.5,424.4z"/>
	</g>
	<g id="SPLINE_7_">
		<path class="st0" d="M131.5,437.8c-2.7,0-1.2-9.3-0.9-11.7c0.3-1.8,1-9.1,3.6-8.8C141.1,421.1,132.9,437.8,131.5,437.8z"/>
	</g>
	<g id="SPLINE_6_">
		<path class="st0" d="M160,446.6c-0.9,1.1-2.3,0.9-2.6-0.6c-0.8-3.4,0.8-7,2.8-9.6C161.6,439.4,162.5,444.1,160,446.6z"/>
	</g>
	<g id="HATCH_3_">
		<path d="M176.2,423.7c-0.8-0.7-1.5,0.3-1.5,0.3c-2.8,4.4-4.9,6-9.5,7.5c-0.4,0.2-0.5,0-0.6-0.2c-2.4-4.9-5.2-10.5-3.8-15.6
			c0.2-0.9,1-3.3,2-1.8c0.8,1.4,0.8,3,0.7,4.7c-0.1,1.9,2.7,1.3,2.7,0c0-1.4-0.1-2.8-0.5-4.3c-0.6-2.4-2.1-3.5-4.7-3.2
			c-3.5,0.5-6.5,3.1-6.9,6.7c-0.4,2.5,0.1,4.9,1,7.2c-1.4,2.2-2.8,4.6-3.6,5.7c-1.3,2.2-3.9,7-5.2,7c-2.3,0-1-8.1-0.8-9.7
			c0.5-3.4,1.3-6.8,1.8-10.2c0.2-1.4,0.2-2.6-1.6-3.1c-2-0.6-3.4,0-4.2,1.5l-2.8,5.3c-1-2.4-1.7-5.5-4.5-6.6
			c-6.3-1.7-9.2,5.3-10.2,11.8c-6.1,9.7-7.1,11.6-8.9,10.1c-0.8-0.8-1.1-1.7-1.7-2.8c-0.6-1.3-1.1-2.6-1.5-3.9
			c-0.1-0.5-0.3-0.9-0.3-1.4c0.1-1.1,5.8-12.5,6.9-14.7c-1.8-0.4-2.9-0.3-3.6,1.2c-0.8,1.6-3.8,7.6-4.6,8.9
			c-0.9-2.5-1.5-5.1-2.2-7.4c-1-2.9-2.7-3.9-5.4-2.4c-2.3,1.3-0.1,5.9,0.3,7.7c0.1,0.3,0.3,1,0.6,1.8c-0.2,0.2-0.3,0.3-0.3,0.3
			c-2,3.2-3.6,5.8-4.3,6.7c-0.7,1.2-1.4,2.5-2.3,3.8c-1.2,1.7-2.2,3.1-4.4,3.9c-1,0.3-2,0.5-3,0.2c-0.8-0.3-1.4-0.9-1.9-1.5
			c-1.6-2.2-1.7-5.7-0.9-8.1c0-0.1,0.1-0.2,0.2-0.4c0.2-0.2,0.4-0.2,0.5-0.3c1.9-1,3.7-2.2,5.3-3.7c1.4-1.4,2.5-3.2,3-5.2
			c1.2-3.8-1-6.6-5-5.8c-1.7,0.3-3.4,1.1-4.8,2.2c-2.8,2.1-4.4,5.5-5,8.8c-0.7,4.2-0.9,7.9,0.8,11.8c1.5,3.7,6,5,9.6,4.3
			c4.9-1,6.9-5.2,9.3-8.9c0.8-1.1,2-3.1,3.8-5.9c0.6,1.9,1.2,3.8,1.1,4.4c-0.2,1.6-5.2,8.6-6.2,10.5c0.7,0.1,1.3,0.1,2,0.1
			c0.8-0.3,5.1-6.9,5.6-7.8c0.2,0.7,1.2,2.9,1.5,3.3c1.2,2.3,3.3,3.9,6.1,3.6c3-0.2,4.7-2.6,6.1-5.1l3.1-4.6c0,1.1,0,2.2,0.1,3
			c0.1,1.3,0.6,2.7,1.3,3.9c2.1,3.3,7.4,3.1,9.2-0.2c1.6-2.9,2.9-6.2,4.6-9.2c0,2.2-0.1,4.5,0,6.8c0.2,3.4,3.6,6.7,7.1,5.3
			c3.4-1.4,5.2-5.5,7-8.4c0.8-1.1,2-3,3-4.6c1.1,2.4,2.4,4.6,3.3,6.9c-2.9,2.9-5.1,7.3-4.5,11.4c0.8,6.2,8.5,4,10.8,0.1
			c2.2-3.7,1-7.3-0.3-11.2c-0.1-0.1-0.2-0.3-0.1-0.4c0.1-0.1,0.2-0.2,0.3-0.2c4-1.8,6.8-2.8,10.5-8.4
			C176.2,425.3,176.9,424.2,176.2,423.7z M87.5,424.4c0.3-1.3,0.8-2.6,1.3-3.9c0.4-0.8,3.3-6.6,4.1-4.1c0.8,2.1,0,4.3-1.2,6
			c-0.6,0.8-1.2,1.3-1.9,2c-0.2,0.1-2.4,1.8-2.4,1.7C87.4,425.4,87.4,424.9,87.5,424.4z M131.5,437.8c-2.7,0-1.2-9.3-0.9-11.7
			c0.3-1.8,1-9.1,3.6-8.8C141.1,421.1,132.9,437.8,131.5,437.8z M160,446.6c-0.9,1.1-2.3,0.9-2.6-0.6c-0.8-3.4,0.8-7,2.8-9.6
			C161.6,439.4,162.5,444.1,160,446.6z"/>
	</g>
</g>
</svg>
