<?xml version="1.0" encoding="utf-8"?>
<!-- Generator: Adobe Illustrator 22.0.1, SVG Export Plug-In . SVG Version: 6.00 Build 0)  -->
<svg version="1.1" id="Layer_1" xmlns="http://www.w3.org/2000/svg" xmlns:xlink="http://www.w3.org/1999/xlink" x="0px" y="0px"
	 viewBox="0 0 500 500" style="enable-background:new 0 0 500 500;" xml:space="preserve">
<style type="text/css">
	.st0{fill:none;stroke:#000000;stroke-width:0;stroke-linecap:round;stroke-linejoin:round;stroke-miterlimit:10;}
</style>
<g id="POLYLINE_1_">
	<polyline class="st0" points="133.5,10 46.2,427.7 376.6,490 426.5,153.4 295.5,128.4 308,47.4 133.5,10 	"/>
</g>
<g id="HATCH_3_">
	<polygon points="133.5,10 46.2,427.7 376.6,490 426.5,153.4 295.5,128.4 308,47.4 133.5,10 	"/>
</g>
<g id="SPLINE_5_">
	<path class="st0" d="M453.6,83c-0.9-0.7-1.6,0.3-1.6,0.3c-0.8,1.2-1.6,2.5-2.3,3.6l-11,18.4c0-3.6,2.5-15.1,2.5-15.4
		c0,0,0.6-3.1,0.9-4.5c0.6-3.4,1.7-10.8-4-9.5c-3.5,0.7-6.2,6.2-7.8,8.6c0-1.2,0.1-7.1,0.7-7.8c4.9-5.4,8.7-12.5,10.1-19.4
		c0.7-3.9-1.1-6.7-4.6-6.8c-5.4-0.2-8,5-9.4,9.6c-2.2,7.4-2.6,15.8-3.3,23.3c-0.1,0.9-0.2,1.8-0.2,2.7c-0.9,1.5-1.8,2.9-2.3,3.7
		c-1.3,2.2-3.8,6.8-5,6.8c-2.3,0-1-7.9-0.8-9.5c0.5-3.4,1.3-6.6,1.8-10c0.2-1.4,0.2-2.6-1.6-3.1c-2-0.6-3.4,0-4,1.5l-2.8,5.1
		c-1-2.4-1.7-5.3-4.3-6.4c-6.2-1.7-9,5.3-9.9,11.7c-1.7,2.7-3.3,5.4-5,8c-0.9,1.5-2.1,3.2-3.7,3.2c-5.8-0.2-3.3-14.8-2.8-17.8
		c0.1-0.8,3.2-17.3,3.3-17.3c2.1,0,4.3,0.1,6.3-0.1c1,0,1.3-1.6,0.6-2.1c-0.2-0.2-0.4-0.2-0.7-0.2c-2-0.2-3.7-0.3-5.5-0.3
		c0.2-1,1.6-7.4,1.8-8.1c0.5-3.6-3.6-3.5-4.7-1.2c-1,1.8-1.5,3.6-3.3,9.1c-1.6,0-2.8-0.1-4-0.1c-0.3,0-0.5,0-0.8,0
		c-0.8,0-1.3,0.6-1.3,1.3c0,0.5,0.3,0.8,0.6,0.8c0.4,0.2,4.7,0.7,4.7,0.7c-1.4,7-3.5,14.9-3.7,22.3c-4.7,7.4-7.5,12.6-10.4,18.2
		c-1.1,2.2-2.1,4.3-3.4,6.5c-3.2,5.3-0.1-19.2,0.3-23.2c1-7.7,2.1-15.3,3.4-22.9c0.5-3,0.9-5.9,1.3-8.9c0.1-1.5-0.9-2.5-2.4-2.7
		c-1.4-0.2-3-0.5-3.7,1.3c-2.6,5.6-5.2,11.3-7.5,17.2c-3.3,8.5-6.1,17.2-9.8,25.4c-1.5-10.3,0.4-20.3,3-42.4c0.5-3.6-5.1-3.1-5.9,0
		c-3.5,27.1-5.5,38.1-1.9,44.8c1.7,3.2,5.5,2.7,6.7-0.5l14.2-35.7c-2,14.4-5.1,28.8-5.4,43.4c-0.1,3.3,0.5,8.6,4.6,8.9
		c2.3,0.1,3.7-1.9,4.7-3.6c4.3-7.3,7.4-14.6,12.2-22.4c0.1,1.6,0.3,3.2,0.7,4.7c0.4,1.6,1,3.1,2,4.3c2.6,3.2,7.6,4.1,11-0.3
		c1.5-2,2.9-4.1,4.2-6.2c0,0.9,0,1.7,0.1,2.4c0.1,1.3,0.6,2.7,1.3,3.8c2.1,3.3,7.2,3.1,9-0.2c1.6-2.9,2.9-6,4.4-9
		c0,2.2-0.1,4.3,0,6.6c0.2,3.4,3.6,6.5,6.9,5.1c3.4-1.4,5-5.3,6.8-8.2c0.2-0.3,0.4-0.7,0.7-1c0,0.8,0,1.6,0,2.3c0,1.8-1,7.2,2.2,7.2
		c1.3,0,2.3-0.2,2.6-1.7c1.9-11.2,8.2-18.2,9.8-19.4c-1.2,5.2-2.8,11.4-3.6,16.3c-0.7,4-2.1,12.9,3,13.5c1.1,0,2.2-0.6,3-1.3
		c0.8-0.8,1.3-1.8,1.8-2.8c10.1-17.5,10.9-18.5,11.4-19.4C453.5,84.6,454.2,83.5,453.6,83z"/>
</g>
<g id="SPLINE_4_">
	<path class="st0" d="M435.7,54c0.4-0.5,0.8-1.1,1.6-1c3.9,1.2,0.6,8.7,0,10.5c-1.3,3.6-4.1,7.8-6.4,10.8
		C431.2,68,432.6,59.7,435.7,54z"/>
</g>
<g id="SPLINE_3_">
	<path class="st0" d="M401.6,96.7c-2.7,0-1.2-9.1-0.9-11.4c0.3-1.8,1-8.9,3.6-8.6C410.9,80.4,403,96.7,401.6,96.7z"/>
</g>
<g id="HATCH_2_">
	<path d="M453.6,83c-0.9-0.7-1.6,0.3-1.6,0.3c-0.8,1.2-1.6,2.5-2.3,3.6l-11,18.4c0-3.6,2.5-15.1,2.5-15.4c0,0,0.6-3.1,0.9-4.5
		c0.6-3.4,1.7-10.8-4-9.5c-3.5,0.7-6.2,6.2-7.8,8.6c0-1.2,0.1-7.1,0.7-7.8c4.9-5.4,8.7-12.5,10.1-19.4c0.7-3.9-1.1-6.7-4.6-6.8
		c-5.4-0.2-8,5-9.4,9.6c-2.2,7.4-2.6,15.8-3.3,23.3c-0.1,0.9-0.2,1.8-0.2,2.7c-0.9,1.5-1.8,2.9-2.3,3.7c-1.3,2.2-3.8,6.8-5,6.8
		c-2.3,0-1-7.9-0.8-9.5c0.5-3.4,1.3-6.6,1.8-10c0.2-1.4,0.2-2.6-1.6-3.1c-2-0.6-3.4,0-4,1.5l-2.8,5.1c-1-2.4-1.7-5.3-4.3-6.4
		c-6.2-1.7-9,5.3-9.9,11.7c-1.7,2.7-3.3,5.4-5,8c-0.9,1.5-2.1,3.2-3.7,3.2c-5.8-0.2-3.3-14.8-2.8-17.8c0.1-0.8,3.2-17.3,3.3-17.3
		c2.1,0,4.3,0.1,6.3-0.1c1,0,1.3-1.6,0.6-2.1c-0.2-0.2-0.4-0.2-0.7-0.2c-2-0.2-3.7-0.3-5.5-0.3c0.2-1,1.6-7.4,1.8-8.1
		c0.5-3.6-3.6-3.5-4.7-1.2c-1,1.8-1.5,3.6-3.3,9.1c-1.6,0-2.8-0.1-4-0.1c-0.3,0-0.5,0-0.8,0c-0.8,0-1.3,0.6-1.3,1.3
		c0,0.5,0.3,0.8,0.6,0.8c0.4,0.2,4.7,0.7,4.7,0.7c-1.4,7-3.5,14.9-3.7,22.3c-4.7,7.4-7.5,12.6-10.4,18.2c-1.1,2.2-2.1,4.3-3.4,6.5
		c-3.2,5.3-0.1-19.2,0.3-23.2c1-7.7,2.1-15.3,3.4-22.9c0.5-3,0.9-5.9,1.3-8.9c0.1-1.5-0.9-2.5-2.4-2.7c-1.4-0.2-3-0.5-3.7,1.3
		c-2.6,5.6-5.2,11.3-7.5,17.2c-3.3,8.5-6.1,17.2-9.8,25.4c-1.5-10.3,0.4-20.3,3-42.4c0.5-3.6-5.1-3.1-5.9,0
		c-3.5,27.1-5.5,38.1-1.9,44.8c1.7,3.2,5.5,2.7,6.7-0.5l14.2-35.7c-2,14.4-5.1,28.8-5.4,43.4c-0.1,3.3,0.5,8.6,4.6,8.9
		c2.3,0.1,3.7-1.9,4.7-3.6c4.3-7.3,7.4-14.6,12.2-22.4c0.1,1.6,0.3,3.2,0.7,4.7c0.4,1.6,1,3.1,2,4.3c2.6,3.2,7.6,4.1,11-0.3
		c1.5-2,2.9-4.1,4.2-6.2c0,0.9,0,1.7,0.1,2.4c0.1,1.3,0.6,2.7,1.3,3.8c2.1,3.3,7.2,3.1,9-0.2c1.6-2.9,2.9-6,4.4-9
		c0,2.2-0.1,4.3,0,6.6c0.2,3.4,3.6,6.5,6.9,5.1c3.4-1.4,5-5.3,6.8-8.2c0.2-0.3,0.4-0.7,0.7-1c0,0.8,0,1.6,0,2.3c0,1.8-1,7.2,2.2,7.2
		c1.3,0,2.3-0.2,2.6-1.7c1.9-11.2,8.2-18.2,9.8-19.4c-1.2,5.2-2.8,11.4-3.6,16.3c-0.7,4-2.1,12.9,3,13.5c1.1,0,2.2-0.6,3-1.3
		c0.8-0.8,1.3-1.8,1.8-2.8c10.1-17.5,10.9-18.5,11.4-19.4C453.5,84.6,454.2,83.5,453.6,83z M435.7,54c0.4-0.5,0.8-1.1,1.6-1
		c3.9,1.2,0.6,8.7,0,10.5c-1.3,3.6-4.1,7.8-6.4,10.8C431.2,68,432.6,59.7,435.7,54z M401.6,96.7c-2.7,0-1.2-9.1-0.9-11.4
		c0.3-1.8,1-8.9,3.6-8.6C410.9,80.4,403,96.7,401.6,96.7z"/>
</g>
</svg>
