<?xml version="1.0" encoding="utf-8"?>
<!-- Generator: Adobe Illustrator 22.0.1, SVG Export Plug-In . SVG Version: 6.00 Build 0)  -->
<svg version="1.1" id="Layer_1" xmlns="http://www.w3.org/2000/svg" xmlns:xlink="http://www.w3.org/1999/xlink" x="0px" y="0px"
	 viewBox="0 0 500 500" style="enable-background:new 0 0 500 500;" xml:space="preserve">
<style type="text/css">
	.st0{fill:none;stroke:#000000;stroke-width:0;stroke-linecap:round;stroke-linejoin:round;stroke-miterlimit:10;}
</style>
<g id="POLYLINE_1_">
	<polyline class="st0" points="367.7,490 469.5,475.5 440.4,344.5 455,155.5 484.1,97.3 469.5,53.6 469.5,10 353.2,24.5 236.8,68.2 
		236.8,140.9 265.9,213.6 280.4,330 309.5,330 338.6,460.9 367.7,490 	"/>
</g>
<g id="HATCH_5_">
	<polygon points="367.7,490 469.5,475.5 440.4,344.5 455,155.5 484.1,97.3 469.5,53.6 469.5,10 353.2,24.5 236.8,68.2 236.8,140.9 
		265.9,213.6 280.4,330 309.5,330 338.6,460.9 367.7,490 	"/>
</g>
<g id="INSERT_1_">
	<g id="SPLINE_11_">
		<path class="st0" d="M58.5,169.7c0.2-2.1-2.5-0.9-3.2-0.1c-7.9,9.3-15.2,35.4-19.8,50.9c-0.7,2.6-1.4,5.3-2.2,7.8
			c-1.6-19.6,1.3-39.5,3.5-57.9c0.1-1,0.2-2.3-1.2-2.5c-1.4-0.2-2.8-0.6-3.9,1.1c-1,1.8-2.4,3.5-3.8,5.1c-2.3,2.4-4.8,4.5-7.1,6.9
			c-3.3,3.6-5.4,7.6-4.7,12.7c0.1,1.3,0.7,1.5,1.8,1.4c1.2,0,1.1-0.8,1-1.9c-0.1-1.3-0.2-2.7,0.1-4c1.5-7,7.4-10.6,12.5-15.7
			c-2.2,17.2-3.9,34.2-3.5,51.2c0.2,5.5,2.1,9.6,5.6,9.6c1.6,0,1.9-1.4,2.2-2.7c4-14.8,7.7-29.8,13.3-44.2
			c2.4-6.1,4.4-11.3,7.8-15.6C57.1,171.5,58.5,170.3,58.5,169.7z"/>
	</g>
	<g id="HATCH_4_">
		<path d="M58.5,169.7c0.2-2.1-2.5-0.9-3.2-0.1c-7.9,9.3-15.2,35.4-19.8,50.9c-0.7,2.6-1.4,5.3-2.2,7.8c-1.6-19.6,1.3-39.5,3.5-57.9
			c0.1-1,0.2-2.3-1.2-2.5c-1.4-0.2-2.8-0.6-3.9,1.1c-1,1.8-2.4,3.5-3.8,5.1c-2.3,2.4-4.8,4.5-7.1,6.9c-3.3,3.6-5.4,7.6-4.7,12.7
			c0.1,1.3,0.7,1.5,1.8,1.4c1.2,0,1.1-0.8,1-1.9c-0.1-1.3-0.2-2.7,0.1-4c1.5-7,7.4-10.6,12.5-15.7c-2.2,17.2-3.9,34.2-3.5,51.2
			c0.2,5.5,2.1,9.6,5.6,9.6c1.6,0,1.9-1.4,2.2-2.7c4-14.8,7.7-29.8,13.3-44.2c2.4-6.1,4.4-11.3,7.8-15.6
			C57.1,171.5,58.5,170.3,58.5,169.7z"/>
	</g>
	<g id="SPLINE_10_">
		<path class="st0" d="M214.4,201c-0.8-0.6-1.4,0.3-1.4,0.3c-2.4,3.7-4.5,7.5-6.9,11.1c-0.9,1.5-2.2,3.3-3.9,3.3
			c-6.1-0.2-3.4-15.5-2.9-18.6c0.1-0.8,3.3-18,3.4-18c2.2,0,4.5,0.1,6.6-0.1c1,0,1.3-1.6,0.6-2.2c-0.2-0.2-0.4-0.2-0.7-0.2
			c-2.1-0.2-3.9-0.3-5.8-0.3c0.2-1,1.6-7.7,1.9-8.5c0.5-3.7-3.7-3.6-4.9-1.2c-1,1.9-1.5,3.8-3.4,9.5c-1.6,0-2.9-0.1-4.2-0.1
			c-0.3,0-0.5,0-0.8,0c-0.8,0-1.3,0.6-1.3,1.3c0,0.5,0.3,0.8,0.6,0.8c0.4,0.2,4.9,0.7,4.9,0.7c-1.4,7.3-3.7,15.7-3.9,23.4
			c-0.4,0.6-0.7,1.2-1.1,1.8c-3.9,6.5-7.8,13-11.8,19.5c0-9.1,3.6-17.8,4.3-27c0.2-3.4-1.1-7.3-4.9-6.1c-5.3,1.8-10.2,13.7-12,18
			c0-4.9,0.6-9.9,0.6-14.8c0-0.7,0-1.3-0.4-1.9c-0.5-1.1-2.1-1.1-3.2-1.1c-1.1,0.1-2.4,0.3-2.9,1.2c-0.2,0.4-0.2,0.8-0.2,1.3
			c-0.1,3.5-0.2,7-0.2,10.5c-1.1,1.3-2.4,2.3-4.2,2.8c0.3-2.5,0.5-5.1,0.1-7.5c-1.6-8.4-11.1-8.8-14.1-1.3c-0.6,1.5-1.2,3.3-1.6,5.3
			c-4.1,6.9-10.2,22.2-12,20.2c-0.3-0.2-0.4-0.6-0.4-1c-0.1-1.5,0.2-3.3,0.4-4.9c0.7-7.1,2.4-14,3.4-21.1c0.2-1.5,0.4-3.1,0-4.5
			c-1-3.5-6.7-4.9-8.6-1.3c-2.4,4.6-3.9,10-6.1,15.7c-0.2-4,0.1-7.8-0.4-11.9c-0.2-1.8-1.1-3.1-3.1-3.4c-2.9-0.5-4.7,1.6-5.6,4.1
			c-1.6,4.5-3.1,9.3-4.6,13.8c0.2-4.9,0.4-9.9,0.6-14.8c0-0.4,0-0.8-0.2-1.2c-0.5-1.3-3.8-1.1-4.9-1c-1.3,0.1-1.1,1.5-1.2,2.6
			c-0.1,3.2-0.3,6.4-0.4,9.6c-1.1,1.7-2.1,3.3-2.6,4.2c-1.4,2.3-2.8,4.6-4.5,6.6c-2,2-3-0.5-3-2.1c0.1-5.8,2.3-12.1,3.7-17.6
			c0.8-3.2,0.4-3.8-3-3.7c-3.3,0-5.1,0.1-5.4,0c0.4-2.3,1.1-6.7-0.6-8.5c-0.7-0.8-2.1-0.8-3.1-0.6c-4.7,1-7.5,8.2-2.7,10.4
			c1,0.4,2.5,0.7,3.6,1c0.1,0-3.6,5.7-4.8,7.6c0,0,0,0,0,0.1c-2,3.3-3.7,5.8-4.3,6.7c-0.7,1.2-1.4,2.6-2.4,3.9
			c-1.2,1.8-2.3,3.2-4.4,4c-1,0.3-2.1,0.5-3.1,0.2c-0.8-0.3-1.4-0.9-2-1.5c-1.6-2.3-1.8-5.8-0.9-8.2c0-0.1,0.1-0.2,0.2-0.4
			c0.2-0.2,0.4-0.2,0.5-0.3c2-1,3.8-2.3,5.4-3.8c1.4-1.4,2.6-3.3,3.1-5.3c1.2-3.9-1-6.7-5.1-5.9c-1.8,0.3-3.5,1.1-4.8,2.3
			c-2.9,2.2-4.4,5.6-5.1,9c-0.7,4.2-0.9,8,0.8,12.1c1.5,3.8,6.1,5.1,9.8,4.3c4.9-1,7-5.3,9.5-9.1c0.8-1.2,2.3-3.5,4.3-6.7
			c0,0,0,0,0,0c1.4-2.1,4.8-7.5,5.5-8.9l3.3,0.1c-1.2,4.3-2.5,8.5-3,12.9c-0.2,1.4-0.4,2.9-0.4,4.4c0,1.9,0.4,4.2,2,5.5
			c5.9,5.1,10.1-3.6,12.4-7.3c0.3-0.4,0.6-1,1-1.5c0,2.6,0.1,5.3,0.3,7.9c0.2,1.3,0.7,2.3,2.1,2.6c2,0.4,3.5-0.1,4-1.9
			c2.3-7.6,4.3-14.4,6.9-21.2c0,13.1-0.6,17.8,0.4,22.6c0.1,0.6,0.3,1.3,0.8,1.8c0.8,0.5,2.4,0.5,3.2-0.1c1.1-0.8,1.5-2.6,2-3.8
			c1.4-4.9,2.9-9.9,4.5-14.8c4.6-15.4,2.4,0.5,1.3,5.7c-0.7,3.8-1.3,7.6-1.9,11.5c-0.2,1.6-0.3,3.4,0,5.1c0.5,3.4,4,6.4,7.6,4.4
			c2.2-1.1,3.5-4.1,4.6-6.3c2.1-4,4.3-8.3,6.5-12.4c0,4.7,1.6,8.9,6.9,9.9c2.7,0.5,4.9-0.7,6.5-2.8c1.4-2,2.2-4.5,2.8-6.9
			c1.7-0.3,3.1-1.1,4.3-2.2c0.1,3.6,0.2,7.1,0.3,10.6c0,0.5,0,0.9,0.4,1.2c0.2,0.3,0.6,0.4,1,0.4c1.4,0,3.2,0,4.1-1.1
			c0.3-0.5,0.4-1.1,0.5-1.8c2-7.8,5.1-15.6,10.2-21.6c0.2-0.2,0.5-0.4,0.7-0.4c0.4,0.1,0.3,0.6,0.2,1c-1.6,5.9-2.9,12.1-3.8,18
			c-0.5,2.8-0.8,5.7-0.6,8.5c0,1.2,0.2,2.5,0.8,3.5c0.6,1.1,1.6,2,2.9,2.2c2.6,0.1,4-2.4,4.9-4.2c3.6-6.8,6.8-11.8,9.9-16.9
			c0.1,1.6,0.3,3.2,0.7,4.8c0.4,1.6,1,3.2,2.1,4.5c2.7,3.3,7.9,4.3,11.5-0.3c3-3.9,5.2-8,7.8-12.3
			C214.4,202.7,215.1,201.6,214.4,201z"/>
	</g>
	<g id="SPLINE_9_">
		<path class="st0" d="M58.8,201.6c0.3-1.3,0.8-2.7,1.3-4c0.4-0.8,3.4-6.7,4.2-4.2c0.8,2.2,0,4.3-1.2,6.1c-0.6,0.8-1.2,1.3-2,2.1
			c-0.2,0.1-2.5,1.9-2.5,1.8C58.7,202.6,58.7,202.1,58.8,201.6z"/>
	</g>
	<g id="SPLINE_8_">
		<path class="st0" d="M80.2,190.4c-1.3-2.5-1.2-4.4,0-6.8C81.2,186,81,188,80.2,190.4z"/>
	</g>
	<g id="SPLINE_7_">
		<path class="st0" d="M146.7,213.2c-0.8-2.6-1-5.5-0.1-8.2c0.1-0.2,0.2-0.5,0.5-0.4c2.3,1.8,4.2,3.2,7,3.8
			C153.2,215.6,148.2,219.4,146.7,213.2z"/>
	</g>
	<g id="SPLINE_6_">
		<path class="st0" d="M154.3,206.4c-2.6-0.7-4.6-2.1-5.5-4.2c-0.7-2.1-0.3-4.4,1-6.1c0.9-1.1,2.7-0.6,3.4,0.3
			C155.4,198.6,154.9,203.4,154.3,206.4z"/>
	</g>
	<g id="HATCH_3_">
		<path d="M214.4,201c-0.8-0.6-1.4,0.3-1.4,0.3c-2.4,3.7-4.5,7.5-6.9,11.1c-0.9,1.5-2.2,3.3-3.9,3.3c-6.1-0.2-3.4-15.5-2.9-18.6
			c0.1-0.8,3.3-18,3.4-18c2.2,0,4.5,0.1,6.6-0.1c1,0,1.3-1.6,0.6-2.2c-0.2-0.2-0.4-0.2-0.7-0.2c-2.1-0.2-3.9-0.3-5.8-0.3
			c0.2-1,1.6-7.7,1.9-8.5c0.5-3.7-3.7-3.6-4.9-1.2c-1,1.9-1.5,3.8-3.4,9.5c-1.6,0-2.9-0.1-4.2-0.1c-0.3,0-0.5,0-0.8,0
			c-0.8,0-1.3,0.6-1.3,1.3c0,0.5,0.3,0.8,0.6,0.8c0.4,0.2,4.9,0.7,4.9,0.7c-1.4,7.3-3.7,15.7-3.9,23.4c-0.4,0.6-0.7,1.2-1.1,1.8
			c-3.9,6.5-7.8,13-11.8,19.5c0-9.1,3.6-17.8,4.3-27c0.2-3.4-1.1-7.3-4.9-6.1c-5.3,1.8-10.2,13.7-12,18c0-4.9,0.6-9.9,0.6-14.8
			c0-0.7,0-1.3-0.4-1.9c-0.5-1.1-2.1-1.1-3.2-1.1c-1.1,0.1-2.4,0.3-2.9,1.2c-0.2,0.4-0.2,0.8-0.2,1.3c-0.1,3.5-0.2,7-0.2,10.5
			c-1.1,1.3-2.4,2.3-4.2,2.8c0.3-2.5,0.5-5.1,0.1-7.5c-1.6-8.4-11.1-8.8-14.1-1.3c-0.6,1.5-1.2,3.3-1.6,5.3
			c-4.1,6.9-10.2,22.2-12,20.2c-0.3-0.2-0.4-0.6-0.4-1c-0.1-1.5,0.2-3.3,0.4-4.9c0.7-7.1,2.4-14,3.4-21.1c0.2-1.5,0.4-3.1,0-4.5
			c-1-3.5-6.7-4.9-8.6-1.3c-2.4,4.6-3.9,10-6.1,15.7c-0.2-4,0.1-7.8-0.4-11.9c-0.2-1.8-1.1-3.1-3.1-3.4c-2.9-0.5-4.7,1.6-5.6,4.1
			c-1.6,4.5-3.1,9.3-4.6,13.8c0.2-4.9,0.4-9.9,0.6-14.8c0-0.4,0-0.8-0.2-1.2c-0.5-1.3-3.8-1.1-4.9-1c-1.3,0.1-1.1,1.5-1.2,2.6
			c-0.1,3.2-0.3,6.4-0.4,9.6c-1.1,1.7-2.1,3.3-2.6,4.2c-1.4,2.3-2.8,4.6-4.5,6.6c-2,2-3-0.5-3-2.1c0.1-5.8,2.3-12.1,3.7-17.6
			c0.8-3.2,0.4-3.8-3-3.7c-3.3,0-5.1,0.1-5.4,0c0.4-2.3,1.1-6.7-0.6-8.5c-0.7-0.8-2.1-0.8-3.1-0.6c-4.7,1-7.5,8.2-2.7,10.4
			c1,0.4,2.5,0.7,3.6,1c0.1,0-3.6,5.7-4.8,7.6c0,0,0,0,0,0.1c-2,3.3-3.7,5.8-4.3,6.7c-0.7,1.2-1.4,2.6-2.4,3.9
			c-1.2,1.8-2.3,3.2-4.4,4c-1,0.3-2.1,0.5-3.1,0.2c-0.8-0.3-1.4-0.9-2-1.5c-1.6-2.3-1.8-5.8-0.9-8.2c0-0.1,0.1-0.2,0.2-0.4
			c0.2-0.2,0.4-0.2,0.5-0.3c2-1,3.8-2.3,5.4-3.8c1.4-1.4,2.6-3.3,3.1-5.3c1.2-3.9-1-6.7-5.1-5.9c-1.8,0.3-3.5,1.1-4.8,2.3
			c-2.9,2.2-4.4,5.6-5.1,9c-0.7,4.2-0.9,8,0.8,12.1c1.5,3.8,6.1,5.1,9.8,4.3c4.9-1,7-5.3,9.5-9.1c0.8-1.2,2.3-3.5,4.3-6.7
			c0,0,0,0,0,0c1.4-2.1,4.8-7.5,5.5-8.9l3.3,0.1c-1.2,4.3-2.5,8.5-3,12.9c-0.2,1.4-0.4,2.9-0.4,4.4c0,1.9,0.4,4.2,2,5.5
			c5.9,5.1,10.1-3.6,12.4-7.3c0.3-0.4,0.6-1,1-1.5c0,2.6,0.1,5.3,0.3,7.9c0.2,1.3,0.7,2.3,2.1,2.6c2,0.4,3.5-0.1,4-1.9
			c2.3-7.6,4.3-14.4,6.9-21.2c0,13.1-0.6,17.8,0.4,22.6c0.1,0.6,0.3,1.3,0.8,1.8c0.8,0.5,2.4,0.5,3.2-0.1c1.1-0.8,1.5-2.6,2-3.8
			c1.4-4.9,2.9-9.9,4.5-14.8c4.6-15.4,2.4,0.5,1.3,5.7c-0.7,3.8-1.3,7.6-1.9,11.5c-0.2,1.6-0.3,3.4,0,5.1c0.5,3.4,4,6.4,7.6,4.4
			c2.2-1.1,3.5-4.1,4.6-6.3c2.1-4,4.3-8.3,6.5-12.4c0,4.7,1.6,8.9,6.9,9.9c2.7,0.5,4.9-0.7,6.5-2.8c1.4-2,2.2-4.5,2.8-6.9
			c1.7-0.3,3.1-1.1,4.3-2.2c0.1,3.6,0.2,7.1,0.3,10.6c0,0.5,0,0.9,0.4,1.2c0.2,0.3,0.6,0.4,1,0.4c1.4,0,3.2,0,4.1-1.1
			c0.3-0.5,0.4-1.1,0.5-1.8c2-7.8,5.1-15.6,10.2-21.6c0.2-0.2,0.5-0.4,0.7-0.4c0.4,0.1,0.3,0.6,0.2,1c-1.6,5.9-2.9,12.1-3.8,18
			c-0.5,2.8-0.8,5.7-0.6,8.5c0,1.2,0.2,2.5,0.8,3.5c0.6,1.1,1.6,2,2.9,2.2c2.6,0.1,4-2.4,4.9-4.2c3.6-6.8,6.8-11.8,9.9-16.9
			c0.1,1.6,0.3,3.2,0.7,4.8c0.4,1.6,1,3.2,2.1,4.5c2.7,3.3,7.9,4.3,11.5-0.3c3-3.9,5.2-8,7.8-12.3
			C214.4,202.7,215.1,201.6,214.4,201z M58.8,201.6c0.3-1.3,0.8-2.7,1.3-4c0.4-0.8,3.4-6.7,4.2-4.2c0.8,2.2,0,4.3-1.2,6.1
			c-0.6,0.8-1.2,1.3-2,2.1c-0.2,0.1-2.5,1.9-2.5,1.8C58.7,202.6,58.7,202.1,58.8,201.6z M80.2,190.4c-1.3-2.5-1.2-4.4,0-6.8
			C81.2,186,81,188,80.2,190.4z M146.7,213.2c-0.8-2.6-1-5.5-0.1-8.2c0.1-0.2,0.2-0.5,0.5-0.4c2.3,1.8,4.2,3.2,7,3.8
			C153.2,215.6,148.2,219.4,146.7,213.2z M154.3,206.4c-2.6-0.7-4.6-2.1-5.5-4.2c-0.7-2.1-0.3-4.4,1-6.1c0.9-1.1,2.7-0.6,3.4,0.3
			C155.4,198.6,154.9,203.4,154.3,206.4z"/>
	</g>
</g>
</svg>
