<?xml version="1.0" encoding="utf-8"?>
<!-- Generator: Adobe Illustrator 22.0.1, SVG Export Plug-In . SVG Version: 6.00 Build 0)  -->
<svg version="1.1" id="Layer_1" xmlns="http://www.w3.org/2000/svg" xmlns:xlink="http://www.w3.org/1999/xlink" x="0px" y="0px"
	 viewBox="0 0 500 500" style="enable-background:new 0 0 500 500;" xml:space="preserve">
<style type="text/css">
	.st0{fill:none;stroke:#000000;stroke-width:0;stroke-linecap:round;stroke-linejoin:round;stroke-miterlimit:10;}
</style>
<g id="SPLINE_19_">
	<path class="st0" d="M5,394.4c11.8,5.9,129.9-17.7,129.9-17.7l289.3-53.1l70.8-23.6l-11.8-23.6h-29.5L436,258.6l11.8-17.7
		l-17.7-23.6l17.7-5.9l-23.6-17.7l-29.5-11.8l-17.7-11.8v-11.8l5.9-11.8l-5.9-17.7l-29.5-5.9l-5.9-5.9l-11.8,11.8L312,116.9
		l-23.6,5.9l5.9,17.7L253,193.7l-29.5,17.7l-5.9,23.6l-11.8,17.7v35.4l-47.2,29.5l-35.4,5.9l-23.6-17.7l-59,64.9
		C40.4,370.8,5,394.4,5,394.4z"/>
</g>
<g id="HATCH_13_">
	<path d="M5,394.4c11.8,5.9,129.9-17.7,129.9-17.7l289.3-53.1l70.8-23.6l-11.8-23.6h-29.5L436,258.6l11.8-17.7l-17.7-23.6l17.7-5.9
		l-23.6-17.7l-29.5-11.8l-17.7-11.8v-11.8l5.9-11.8l-5.9-17.7l-29.5-5.9l-5.9-5.9l-11.8,11.8L312,116.9l-23.6,5.9l5.9,17.7
		L253,193.7l-29.5,17.7l-5.9,23.6l-11.8,17.7v35.4l-47.2,29.5l-35.4,5.9l-23.6-17.7l-59,64.9C40.4,370.8,5,394.4,5,394.4z"/>
</g>
<g id="POLYLINE_1_">
	<polyline class="st0" points="483.2,193.7 477.3,223.2 477.3,252.7 495,229.1 495,199.6 483.2,193.7 	"/>
</g>
<g id="HATCH_12_">
	<polygon points="483.2,193.7 477.3,223.2 477.3,252.7 495,229.1 495,199.6 483.2,193.7 	"/>
</g>
<g id="INSERT_1_">
	<g id="SPLINE_18_">
		<path class="st0" d="M68,106.6c0.2-2.1-2.5-0.9-3.2-0.1c-8,9.3-15.2,35.6-19.9,51.2c-0.7,2.6-1.5,5.3-2.2,7.9
			c-1.7-19.7,1.3-39.7,3.5-58.3c0.1-1,0.2-2.3-1.2-2.5c-1.5-0.2-2.8-0.6-3.9,1.1c-1,1.8-2.4,3.5-3.8,5.1c-2.3,2.4-4.9,4.6-7.2,6.9
			c-3.3,3.6-5.4,7.7-4.8,12.8c0.1,1.3,0.7,1.6,1.8,1.5c1.2,0,1.1-0.8,1-1.9c-0.1-1.3-0.2-2.7,0.1-4c1.6-7.1,7.5-10.7,12.5-15.8
			c-2.2,17.3-3.9,34.4-3.5,51.5c0.2,5.5,2.1,9.6,5.6,9.6c1.7,0,1.9-1.5,2.2-2.7c4-14.9,7.8-30,13.4-44.5c2.4-6.1,4.5-11.4,7.9-15.7
			C66.5,108.4,68,107.2,68,106.6z"/>
	</g>
	<g id="HATCH_11_">
		<path d="M68,106.6c0.2-2.1-2.5-0.9-3.2-0.1c-8,9.3-15.2,35.6-19.9,51.2c-0.7,2.6-1.5,5.3-2.2,7.9c-1.7-19.7,1.3-39.7,3.5-58.3
			c0.1-1,0.2-2.3-1.2-2.5c-1.5-0.2-2.8-0.6-3.9,1.1c-1,1.8-2.4,3.5-3.8,5.1c-2.3,2.4-4.9,4.6-7.2,6.9c-3.3,3.6-5.4,7.7-4.8,12.8
			c0.1,1.3,0.7,1.6,1.8,1.5c1.2,0,1.1-0.8,1-1.9c-0.1-1.3-0.2-2.7,0.1-4c1.6-7.1,7.5-10.7,12.5-15.8c-2.2,17.3-3.9,34.4-3.5,51.5
			c0.2,5.5,2.1,9.6,5.6,9.6c1.7,0,1.9-1.5,2.2-2.7c4-14.9,7.8-30,13.4-44.5c2.4-6.1,4.5-11.4,7.9-15.7C66.5,108.4,68,107.2,68,106.6
			z"/>
	</g>
	<g id="SPLINE_17_">
		<path class="st0" d="M66.6,118.8c-0.9,2.5,2.1,3.6,3.6,2.1C72.7,118.1,68.3,115.4,66.6,118.8z"/>
	</g>
	<g id="HATCH_10_">
		<path d="M66.6,118.8c-0.9,2.5,2.1,3.6,3.6,2.1C72.7,118.1,68.3,115.4,66.6,118.8z"/>
	</g>
	<g id="SPLINE_16_">
		<path class="st0" d="M142.2,120.8c2.4-2.7-2-5.4-3.6-2.1C137.7,121.2,140.7,122.4,142.2,120.8z"/>
	</g>
	<g id="HATCH_9_">
		<path d="M142.2,120.8c2.4-2.7-2-5.4-3.6-2.1C137.7,121.2,140.7,122.4,142.2,120.8z"/>
	</g>
	<g id="SPLINE_15_">
		<path class="st0" d="M190.2,120.8c2.4-2.7-2-5.4-3.6-2.1C185.7,121.2,188.7,122.4,190.2,120.8z"/>
	</g>
	<g id="HATCH_8_">
		<path d="M190.2,120.8c2.4-2.7-2-5.4-3.6-2.1C185.7,121.2,188.7,122.4,190.2,120.8z"/>
	</g>
	<g id="SPLINE_14_">
		<path class="st0" d="M233.2,137.9c-0.8-0.7-1.7,0.3-1.7,0.3c-1.6,2.5-3.4,5.5-4.3,6.8c-1.3,2.3-4,7.2-5.3,7.2c-2.4,0-1-8.3-0.8-10
			c0.5-3.5,1.3-6.9,1.9-10.5c0.2-1.5,0.2-2.7-1.7-3.2c-2.1-0.6-3.5,0-4.3,1.6l-2.9,5.4c-1-2.5-1.8-5.6-4.6-6.7
			c-6.4-1.8-9.4,5.5-10.4,12.2c-2.2,3.5-3.5,5.6-4.7,7.6c-0.7,1-1.3,2.4-2.5,3.1c-0.9,0.6-2.1,0.8-3,0.2c-0.6-0.4-1-1.1-1.2-1.9
			c-0.7-3.5,1.5-13.3,2.2-16.7c0.4-1.7,0.3-3.7-1.7-4c-2.6-0.4-4.1,0.2-4.5,2.2c-0.6,2.8-1.3,6-1.6,9.1c-0.1,0.2-0.2,0.4-0.4,0.6
			c-3.9,6.5-7.9,13.1-11.8,19.6c0-9.1,3.6-17.9,4.4-27.2c0.2-3.4-1.1-7.4-5-6.1c-5.3,1.8-10.3,13.8-12,18.1c0-5,0.6-10,0.6-14.9
			c0-0.7,0-1.3-0.4-1.9c-0.5-1.1-2.1-1.1-3.2-1.1c-1.1,0.1-2.4,0.3-2.9,1.2c-0.2,0.4-0.2,0.8-0.2,1.3c-0.1,3.6-0.2,7.2-0.2,10.9
			c-2.1,3.4-3.4,5.4-4.6,7.4c-0.7,1-1.3,2.4-2.5,3.1c-0.9,0.6-2.1,0.8-3,0.2c-0.6-0.4-1-1.1-1.2-1.9c-0.7-3.5,1.5-13.3,2.2-16.7
			c0.4-1.7,0.3-3.7-1.7-4c-2.6-0.4-4.1,0.2-4.5,2.2c-0.6,2.7-1.2,5.7-1.6,8.7l-8.7,12.8c0.7-7.5,1-14.1,1.5-20.8
			c0.1-1.3,0-2.7-1.9-2.9c-2.2-0.2-3,0.3-5.1,5.9c-1.3-2.9-2.9-6.5-6.8-6.6c-6.4-0.1-9,6.5-10,12.7c-1,1.6-1.9,3-2.4,3.8
			c-1.5,2.3-2.8,4.7-4.6,6.6c-2,2-3-0.5-3-2.1c0.1-5.8,2.3-12.1,3.7-17.7c0.8-3.2,0.4-3.8-3-3.7c-3.3,0-5.1,0.1-5.4,0
			c0.4-2.3,1.1-6.7-0.6-8.5c-0.7-0.8-2.1-0.8-3.1-0.6c-4.8,1-7.6,8.3-2.7,10.5c1,0.4,2.5,0.7,3.6,1c0.1,0-3.6,5.7-4.9,7.7
			c0,0-0.1,0.2-0.2,0.4c-3.2,5-4.7,7.5-6.2,9.9c-0.7,1-1.3,2.4-2.5,3.1c-0.9,0.6-2.1,0.8-3,0.2c-0.6-0.4-1-1.1-1.2-1.9
			c-0.7-3.5,1.5-13.3,2.2-16.7c0.4-1.7,0.3-3.7-1.7-4c-2.6-0.4-4.1,0.2-4.5,2.2c-1.3,5.9-2.7,13.3-1,19.2c1,3.6,4.3,5.4,7.9,4.4
			c0.9-0.2,1.8-0.7,2.4-1.5c2.2-2.1,3.5-4.8,5.2-7.3c0.7-1.2,1.8-2.8,4.3-6.6c0,0,0.1-0.2,0.2-0.4c1.5-2.3,4.7-7.3,5.4-8.7l3.3,0.1
			c-1.2,4.4-2.5,8.5-3,13c-0.2,1.5-0.4,2.9-0.4,4.5c0,1.9,0.4,4.3,2,5.5c5.9,5.1,10.2-3.6,12.4-7.4c0.1-0.1,0.2-0.3,0.3-0.5
			c-0.1,1.2-0.1,2.3-0.1,3.2c0,5.1,6.9,8.9,10.6,3c2.3-3.8,4.5-7.7,6.9-12c-1.1,17.7,0.1,15.8-1.6,17.7c-4.8,4.7-9,8-13.1,13.4
			c-2.9,4-5.2,8.6-5.6,13.6c-0.6,7.8,5,11.7,11.5,9.3c5.6-2,8.5-6.2,10.3-11.6c0.2-0.5,0.3-1,0.4-1.6c1.2-4.1,1.9-8.4,2.3-12.7
			c0.9-9.2,0.9-11.6,1.1-11.8c2.9-3.3,5.4-7,8.5-11.8c0,2.1,0.2,4.2,0.8,6.2c1,3.6,4.3,5.4,7.9,4.4c0.9-0.2,1.8-0.7,2.4-1.5
			c2.2-2.1,3.5-4.8,5.2-7.3c0.3-0.4,0.5-0.9,0.9-1.5c0.1,3.2,0.2,6.4,0.3,9.6c0,0.5,0,0.9,0.4,1.2c0.2,0.3,0.6,0.4,1,0.4
			c1.5,0,3.2,0,4.1-1.1c0.3-0.5,0.4-1.1,0.5-1.8c2-7.9,5.1-15.7,10.3-21.8c0.2-0.2,0.5-0.4,0.7-0.4c0.4,0.1,0.3,0.6,0.2,1
			c-1.7,5.9-2.9,12.1-3.8,18.1c-0.5,2.8-0.8,5.7-0.6,8.5c0,1.2,0.2,2.5,0.8,3.5c0.6,1.1,1.7,2,2.9,2.2c2.6,0.1,4-2.4,5-4.3
			c3.3-6.1,6.1-10.8,9-15.4c0,2.1,0.2,4.1,0.8,6c1,3.6,4.3,5.4,7.9,4.4c0.9-0.2,1.8-0.7,2.4-1.5c2.2-2.1,3.5-4.8,5.2-7.3
			c0.2-0.3,0.4-0.7,0.6-1c0,1,0,2,0.1,2.8c0.1,1.3,0.6,2.8,1.3,4c2.2,3.4,7.6,3.2,9.4-0.2c1.7-3,3-6.3,4.7-9.4c0,2.3-0.1,4.6,0,6.9
			c0.2,3.5,3.7,6.8,7.3,5.4c3.5-1.5,5.3-5.6,7.2-8.6c1.1-1.7,3.1-4.9,4.3-6.6C233.1,139.6,233.9,138.5,233.2,137.9z"/>
	</g>
	<g id="SPLINE_13_">
		<path class="st0" d="M85.9,127.5c-1.3-2.5-1.2-4.5,0-6.8C87,123,86.8,125,85.9,127.5z"/>
	</g>
	<g id="SPLINE_12_">
		<path class="st0" d="M117,140.9c-1.8,3.1-3.3,6.3-6.4,11.1c-3.9-3.6-1-19.4,3.7-21.4C117.9,132.9,119.2,137.6,117,140.9z"/>
	</g>
	<g id="SPLINE_11_">
		<path class="st0" d="M116.5,181.7c-0.9,3.9-2.4,8.1-6,10c-0.8,0.4-1.8,0.7-2.6,0.6c-4.5-0.2-5-6.3-4.5-9.5c0.8-4.7,3.1-9,6.1-12.8
			c3.1-4,6.1-7.1,10.2-10.3C118.5,167.2,118.2,174.5,116.5,181.7z"/>
	</g>
	<g id="SPLINE_10_">
		<path class="st0" d="M206.6,152.3c-2.8,0-1.2-9.5-0.9-12c0.3-1.9,1-9.3,3.7-9C216.5,135.2,208.1,152.3,206.6,152.3z"/>
	</g>
	<g id="HATCH_7_">
		<path d="M233.2,137.9c-0.8-0.7-1.7,0.3-1.7,0.3c-1.6,2.5-3.4,5.5-4.3,6.8c-1.3,2.3-4,7.2-5.3,7.2c-2.4,0-1-8.3-0.8-10
			c0.5-3.5,1.3-6.9,1.9-10.5c0.2-1.5,0.2-2.7-1.7-3.2c-2.1-0.6-3.5,0-4.3,1.6l-2.9,5.4c-1-2.5-1.8-5.6-4.6-6.7
			c-6.4-1.8-9.4,5.5-10.4,12.2c-2.2,3.5-3.5,5.6-4.7,7.6c-0.7,1-1.3,2.4-2.5,3.1c-0.9,0.6-2.1,0.8-3,0.2c-0.6-0.4-1-1.1-1.2-1.9
			c-0.7-3.5,1.5-13.3,2.2-16.7c0.4-1.7,0.3-3.7-1.7-4c-2.6-0.4-4.1,0.2-4.5,2.2c-0.6,2.8-1.3,6-1.6,9.1c-0.1,0.2-0.2,0.4-0.4,0.6
			c-3.9,6.5-7.9,13.1-11.8,19.6c0-9.1,3.6-17.9,4.4-27.2c0.2-3.4-1.1-7.4-5-6.1c-5.3,1.8-10.3,13.8-12,18.1c0-5,0.6-10,0.6-14.9
			c0-0.7,0-1.3-0.4-1.9c-0.5-1.1-2.1-1.1-3.2-1.1c-1.1,0.1-2.4,0.3-2.9,1.2c-0.2,0.4-0.2,0.8-0.2,1.3c-0.1,3.6-0.2,7.2-0.2,10.9
			c-2.1,3.4-3.4,5.4-4.6,7.4c-0.7,1-1.3,2.4-2.5,3.1c-0.9,0.6-2.1,0.8-3,0.2c-0.6-0.4-1-1.1-1.2-1.9c-0.7-3.5,1.5-13.3,2.2-16.7
			c0.4-1.7,0.3-3.7-1.7-4c-2.6-0.4-4.1,0.2-4.5,2.2c-0.6,2.7-1.2,5.7-1.6,8.7l-8.7,12.8c0.7-7.5,1-14.1,1.5-20.8
			c0.1-1.3,0-2.7-1.9-2.9c-2.2-0.2-3,0.3-5.1,5.9c-1.3-2.9-2.9-6.5-6.8-6.6c-6.4-0.1-9,6.5-10,12.7c-1,1.6-1.9,3-2.4,3.8
			c-1.5,2.3-2.8,4.7-4.6,6.6c-2,2-3-0.5-3-2.1c0.1-5.8,2.3-12.1,3.7-17.7c0.8-3.2,0.4-3.8-3-3.7c-3.3,0-5.1,0.1-5.4,0
			c0.4-2.3,1.1-6.7-0.6-8.5c-0.7-0.8-2.1-0.8-3.1-0.6c-4.8,1-7.6,8.3-2.7,10.5c1,0.4,2.5,0.7,3.6,1c0.1,0-3.6,5.7-4.9,7.7
			c0,0-0.1,0.2-0.2,0.4c-3.2,5-4.7,7.5-6.2,9.9c-0.7,1-1.3,2.4-2.5,3.1c-0.9,0.6-2.1,0.8-3,0.2c-0.6-0.4-1-1.1-1.2-1.9
			c-0.7-3.5,1.5-13.3,2.2-16.7c0.4-1.7,0.3-3.7-1.7-4c-2.6-0.4-4.1,0.2-4.5,2.2c-1.3,5.9-2.7,13.3-1,19.2c1,3.6,4.3,5.4,7.9,4.4
			c0.9-0.2,1.8-0.7,2.4-1.5c2.2-2.1,3.5-4.8,5.2-7.3c0.7-1.2,1.8-2.8,4.3-6.6c0,0,0.1-0.2,0.2-0.4c1.5-2.3,4.7-7.3,5.4-8.7l3.3,0.1
			c-1.2,4.4-2.5,8.5-3,13c-0.2,1.5-0.4,2.9-0.4,4.5c0,1.9,0.4,4.3,2,5.5c5.9,5.1,10.2-3.6,12.4-7.4c0.1-0.1,0.2-0.3,0.3-0.5
			c-0.1,1.2-0.1,2.3-0.1,3.2c0,5.1,6.9,8.9,10.6,3c2.3-3.8,4.5-7.7,6.9-12c-1.1,17.7,0.1,15.8-1.6,17.7c-4.8,4.7-9,8-13.1,13.4
			c-2.9,4-5.2,8.6-5.6,13.6c-0.6,7.8,5,11.7,11.5,9.3c5.6-2,8.5-6.2,10.3-11.6c0.2-0.5,0.3-1,0.4-1.6c1.2-4.1,1.9-8.4,2.3-12.7
			c0.9-9.2,0.9-11.6,1.1-11.8c2.9-3.3,5.4-7,8.5-11.8c0,2.1,0.2,4.2,0.8,6.2c1,3.6,4.3,5.4,7.9,4.4c0.9-0.2,1.8-0.7,2.4-1.5
			c2.2-2.1,3.5-4.8,5.2-7.3c0.3-0.4,0.5-0.9,0.9-1.5c0.1,3.2,0.2,6.4,0.3,9.6c0,0.5,0,0.9,0.4,1.2c0.2,0.3,0.6,0.4,1,0.4
			c1.5,0,3.2,0,4.1-1.1c0.3-0.5,0.4-1.1,0.5-1.8c2-7.9,5.1-15.7,10.3-21.8c0.2-0.2,0.5-0.4,0.7-0.4c0.4,0.1,0.3,0.6,0.2,1
			c-1.7,5.9-2.9,12.1-3.8,18.1c-0.5,2.8-0.8,5.7-0.6,8.5c0,1.2,0.2,2.5,0.8,3.5c0.6,1.1,1.7,2,2.9,2.2c2.6,0.1,4-2.4,5-4.3
			c3.3-6.1,6.1-10.8,9-15.4c0,2.1,0.2,4.1,0.8,6c1,3.6,4.3,5.4,7.9,4.4c0.9-0.2,1.8-0.7,2.4-1.5c2.2-2.1,3.5-4.8,5.2-7.3
			c0.2-0.3,0.4-0.7,0.6-1c0,1,0,2,0.1,2.8c0.1,1.3,0.6,2.8,1.3,4c2.2,3.4,7.6,3.2,9.4-0.2c1.7-3,3-6.3,4.7-9.4c0,2.3-0.1,4.6,0,6.9
			c0.2,3.5,3.7,6.8,7.3,5.4c3.5-1.5,5.3-5.6,7.2-8.6c1.1-1.7,3.1-4.9,4.3-6.6C233.1,139.6,233.9,138.5,233.2,137.9z M85.9,127.5
			c-1.3-2.5-1.2-4.5,0-6.8C87,123,86.8,125,85.9,127.5z M117,140.9c-1.8,3.1-3.3,6.3-6.4,11.1c-3.9-3.6-1-19.4,3.7-21.4
			C117.9,132.9,119.2,137.6,117,140.9z M116.5,181.7c-0.9,3.9-2.4,8.1-6,10c-0.8,0.4-1.8,0.7-2.6,0.6c-4.5-0.2-5-6.3-4.5-9.5
			c0.8-4.7,3.1-9,6.1-12.8c3.1-4,6.1-7.1,10.2-10.3C118.5,167.2,118.2,174.5,116.5,181.7z M206.6,152.3c-2.8,0-1.2-9.5-0.9-12
			c0.3-1.9,1-9.3,3.7-9C216.5,135.2,208.1,152.3,206.6,152.3z"/>
	</g>
</g>
</svg>
