<?xml version="1.0" encoding="utf-8"?>
<!-- Generator: Adobe Illustrator 22.0.1, SVG Export Plug-In . SVG Version: 6.00 Build 0)  -->
<svg version="1.1" id="Layer_1" xmlns="http://www.w3.org/2000/svg" xmlns:xlink="http://www.w3.org/1999/xlink" x="0px" y="0px"
	 viewBox="0 0 500 500" style="enable-background:new 0 0 500 500;" xml:space="preserve">
<style type="text/css">
	.st0{fill:none;stroke:#000000;stroke-width:0;stroke-linecap:round;stroke-linejoin:round;stroke-miterlimit:10;}
</style>
<g id="POLYLINE_1_">
	<polyline class="st0" points="17.5,277.2 17.5,312.9 44.2,348.5 124.4,401.9 177.9,393 204.6,375.2 249.1,348.5 249.1,295.1 
		266.9,268.3 275.8,232.7 320.4,206 347.1,170.3 382.7,125.8 373.8,99.1 409.5,90.2 436.2,108 454,90.2 436.2,81.3 418.4,54.5 
		382.7,54.5 373.8,72.4 338.2,81.3 293.7,134.7 275.8,72.4 177.9,81.3 160,10 151.1,99.1 133.3,134.7 79.9,170.3 79.9,206 
		53.1,214.9 35.3,277.2 17.5,277.2 17.5,277.2 	"/>
</g>
<g id="HATCH_13_">
	<polygon points="17.5,277.2 17.5,312.9 44.2,348.5 124.4,401.9 177.9,393 204.6,375.2 249.1,348.5 249.1,295.1 266.9,268.3 
		275.8,232.7 320.4,206 347.1,170.3 382.7,125.8 373.8,99.1 409.5,90.2 436.2,108 454,90.2 436.2,81.3 418.4,54.5 382.7,54.5 
		373.8,72.4 338.2,81.3 293.7,134.7 275.8,72.4 177.9,81.3 160,10 151.1,99.1 133.3,134.7 79.9,170.3 79.9,206 53.1,214.9 
		35.3,277.2 17.5,277.2 17.5,277.2 	"/>
</g>
<g id="INSERT_1_">
	<g id="SPLINE_25_">
		<path class="st0" d="M266.3,436.3c-2.3,3.6-4.4,7.2-6.6,10.7c-0.9,1.5-2.1,3.2-3.8,3.2c-5.8-0.2-3.3-14.8-2.8-17.8
			c0.1-0.8,3.2-17.3,3.3-17.3c2.1,0,4.4,0.1,6.3-0.1c1,0,1.3-1.6,0.6-2.1c-0.2-0.2-0.4-0.2-0.7-0.2c-2-0.2-3.8-0.3-5.5-0.3
			c0.2-1,1.6-7.4,1.8-8.1c0.5-3.6-3.6-3.5-4.8-1.2c-1,1.8-1.5,3.7-3.3,9.1c-1.6,0-2.8-0.1-4.1-0.1c-0.3,0-0.5,0-0.8,0
			c-0.8,0-1.3,0.6-1.3,1.3c0,0.5,0.3,0.8,0.6,0.8c0.4,0.2,4.8,0.7,4.8,0.7c-1.4,7-3.5,14.9-3.7,22.3c-2.5,3.6-4.5,5-8.7,6.4
			c-0.4,0.2-0.5,0-0.6-0.2c-2.4-4.8-5-10.3-3.8-15.2c0.2-0.9,1-3.3,2-1.8c0.8,1.4,0.8,3,0.7,4.6c-0.1,1.9,2.7,1.3,2.7,0
			c0-1.4-0.1-2.8-0.5-4.2c-0.6-2.4-2.1-3.5-4.6-3.2c-3.5,0.5-6.3,3.1-6.7,6.5c-0.4,2.5,0.1,4.8,1,7.1c-1.7,2.7-3,4.8-3.6,5.6
			c-0.7,1.2-1.4,2.5-2.3,3.8c-1.2,1.7-2.2,3.1-4.3,3.9c-1,0.3-2,0.5-3,0.2c-0.8-0.3-1.4-0.9-1.9-1.5c-1.6-2.2-1.7-5.5-0.9-7.9
			c0-0.1,0.1-0.2,0.2-0.4c0.2-0.2,0.4-0.2,0.5-0.3c1.9-1,3.7-2.2,5.1-3.7c1.4-1.4,2.5-3.2,3-5c1.2-3.8-1-6.4-4.8-5.6
			c-1.7,0.3-3.4,1.1-4.7,2.2c-2.8,2.1-4.3,5.3-4.8,8.6c0,0,0,0.1,0,0.1c-2.3,2.8-6.1,5-10.9,2.9c2.4-11.1,5-21.4,4.4-31.7
			c-0.1-1.4-0.2-2.9-1.8-3.7c-3.3-1.3-5.1,1.7-6.4,4.2c-2.4,4.7-2.8,9.6-3.2,14.6c-0.5,5.5,0,14.3,3.6,18.2
			c0.3,0.4-2.3,7.5-3.5,11.3c-0.8,2.7-3.5,11.9-4.5,11.9c-2.6-1.1-1-14.7-0.3-21.9c1.1-12.9,3-24.1,2.5-35.6
			c-0.1-1.2-0.7-2.2-2.1-2.4c-3.1-0.6-4.3,1.6-5.3,4c-3.8,8.2-6.7,17.3-13.7,41.2c0-6.7,0.5-13.7,1.2-20.4c0.8-7.7,2.1-15.2,3.2-23
			c0-0.4-0.2-1.1-0.5-1.4c-1.5-1.2-4.8-0.3-5.2,1.7c-0.6,4.2-8.4,50.3,0.5,47.8c0.9-0.3,2.9-1.1,3.3-1.9c0.9-2,1.4-4.2,2-6.2
			c3.5-12.7,6.8-25.6,11.8-37.6c-0.7,15.3-3,30.5-4.4,45.7c-0.3,3.5-0.3,6.9,1.1,10.2c0.7,1.6,2.2,2.9,4.2,3c3.7,0.3,5.7-4,6.6-6.7
			l6-18.8c3.7,0.8,5.6,0.7,8.2-0.4c1-0.4,2-1,2.8-1.7c-0.2,2.8,0,5.5,1.2,8.3c1.5,3.7,5.8,4.8,9.4,4.2c4.7-1,6.7-5,9.1-8.7
			c0.6-0.9,1.6-2.5,3-4.6c1.1,2.3,2.4,4.6,3.2,6.7c-2.9,2.9-4.9,7.1-4.4,11.2c0.8,6,8.3,4,10.6,0.1c2.2-3.7,1-7.1-0.3-11
			c-0.1-0.1-0.2-0.3-0.1-0.4c0.1-0.1,0.2-0.2,0.3-0.2c3.2-1.4,5.5-2.3,8.2-5.4c0.1,1.8,0.3,3.5,0.7,5.1c0.4,1.6,1,3.1,2,4.4
			c2.6,3.2,7.6,4.2,11.1-0.3c2.9-3.8,4.9-7.7,7.5-11.8c0,0,0.7-1.1,0-1.7C266.9,435.4,266.3,436.3,266.3,436.3z"/>
	</g>
	<g id="SPLINE_24_">
		<path class="st0" d="M212.8,436.6c0.3-1.3,0.8-2.6,1.3-3.9c0.4-0.8,3.3-6.4,4.1-4.1c0.8,2.1,0,4.2-1.2,5.8c-0.6,0.8-1.2,1.3-1.9,2
			c-0.2,0.1-2.4,1.8-2.4,1.7C212.7,437.6,212.7,437.1,212.8,436.6z"/>
	</g>
	<g id="SPLINE_23_">
		<path class="st0" d="M193.1,437.8c-2.1-10.2-0.4-21,3.7-30.5C198.2,417.4,195.4,428.1,193.1,437.8z"/>
	</g>
	<g id="SPLINE_22_">
		<path class="st0" d="M232.6,458.3c-0.9,1.1-2.3,0.9-2.6-0.6c-0.8-3.4,0.8-6.8,2.8-9.4C234.1,451.2,235,455.8,232.6,458.3z"/>
	</g>
	<g id="HATCH_12_">
		<path d="M266.3,436.3c-2.3,3.6-4.4,7.2-6.6,10.7c-0.9,1.5-2.1,3.2-3.8,3.2c-5.8-0.2-3.3-14.8-2.8-17.8c0.1-0.8,3.2-17.3,3.3-17.3
			c2.1,0,4.4,0.1,6.3-0.1c1,0,1.3-1.6,0.6-2.1c-0.2-0.2-0.4-0.2-0.7-0.2c-2-0.2-3.8-0.3-5.5-0.3c0.2-1,1.6-7.4,1.8-8.1
			c0.5-3.6-3.6-3.5-4.8-1.2c-1,1.8-1.5,3.7-3.3,9.1c-1.6,0-2.8-0.1-4.1-0.1c-0.3,0-0.5,0-0.8,0c-0.8,0-1.3,0.6-1.3,1.3
			c0,0.5,0.3,0.8,0.6,0.8c0.4,0.2,4.8,0.7,4.8,0.7c-1.4,7-3.5,14.9-3.7,22.3c-2.5,3.6-4.5,5-8.7,6.4c-0.4,0.2-0.5,0-0.6-0.2
			c-2.4-4.8-5-10.3-3.8-15.2c0.2-0.9,1-3.3,2-1.8c0.8,1.4,0.8,3,0.7,4.6c-0.1,1.9,2.7,1.3,2.7,0c0-1.4-0.1-2.8-0.5-4.2
			c-0.6-2.4-2.1-3.5-4.6-3.2c-3.5,0.5-6.3,3.1-6.7,6.5c-0.4,2.5,0.1,4.8,1,7.1c-1.7,2.7-3,4.8-3.6,5.6c-0.7,1.2-1.4,2.5-2.3,3.8
			c-1.2,1.7-2.2,3.1-4.3,3.9c-1,0.3-2,0.5-3,0.2c-0.8-0.3-1.4-0.9-1.9-1.5c-1.6-2.2-1.7-5.5-0.9-7.9c0-0.1,0.1-0.2,0.2-0.4
			c0.2-0.2,0.4-0.2,0.5-0.3c1.9-1,3.7-2.2,5.1-3.7c1.4-1.4,2.5-3.2,3-5c1.2-3.8-1-6.4-4.8-5.6c-1.7,0.3-3.4,1.1-4.7,2.2
			c-2.8,2.1-4.3,5.3-4.8,8.6c0,0,0,0.1,0,0.1c-2.3,2.8-6.1,5-10.9,2.9c2.4-11.1,5-21.4,4.4-31.7c-0.1-1.4-0.2-2.9-1.8-3.7
			c-3.3-1.3-5.1,1.7-6.4,4.2c-2.4,4.7-2.8,9.6-3.2,14.6c-0.5,5.5,0,14.3,3.6,18.2c0.3,0.4-2.3,7.5-3.5,11.3
			c-0.8,2.7-3.5,11.9-4.5,11.9c-2.6-1.1-1-14.7-0.3-21.9c1.1-12.9,3-24.1,2.5-35.6c-0.1-1.2-0.7-2.2-2.1-2.4c-3.1-0.6-4.3,1.6-5.3,4
			c-3.8,8.2-6.7,17.3-13.7,41.2c0-6.7,0.5-13.7,1.2-20.4c0.8-7.7,2.1-15.2,3.2-23c0-0.4-0.2-1.1-0.5-1.4c-1.5-1.2-4.8-0.3-5.2,1.7
			c-0.6,4.2-8.4,50.3,0.5,47.8c0.9-0.3,2.9-1.1,3.3-1.9c0.9-2,1.4-4.2,2-6.2c3.5-12.7,6.8-25.6,11.8-37.6c-0.7,15.3-3,30.5-4.4,45.7
			c-0.3,3.5-0.3,6.9,1.1,10.2c0.7,1.6,2.2,2.9,4.2,3c3.7,0.3,5.7-4,6.6-6.7l6-18.8c3.7,0.8,5.6,0.7,8.2-0.4c1-0.4,2-1,2.8-1.7
			c-0.2,2.8,0,5.5,1.2,8.3c1.5,3.7,5.8,4.8,9.4,4.2c4.7-1,6.7-5,9.1-8.7c0.6-0.9,1.6-2.5,3-4.6c1.1,2.3,2.4,4.6,3.2,6.7
			c-2.9,2.9-4.9,7.1-4.4,11.2c0.8,6,8.3,4,10.6,0.1c2.2-3.7,1-7.1-0.3-11c-0.1-0.1-0.2-0.3-0.1-0.4c0.1-0.1,0.2-0.2,0.3-0.2
			c3.2-1.4,5.5-2.3,8.2-5.4c0.1,1.8,0.3,3.5,0.7,5.1c0.4,1.6,1,3.1,2,4.4c2.6,3.2,7.6,4.2,11.1-0.3c2.9-3.8,4.9-7.7,7.5-11.8
			c0,0,0.7-1.1,0-1.7C266.9,435.4,266.3,436.3,266.3,436.3z M212.8,436.6c0.3-1.3,0.8-2.6,1.3-3.9c0.4-0.8,3.3-6.4,4.1-4.1
			c0.8,2.1,0,4.2-1.2,5.8c-0.6,0.8-1.2,1.3-1.9,2c-0.2,0.1-2.4,1.8-2.4,1.7C212.7,437.6,212.7,437.1,212.8,436.6z M193.1,437.8
			c-2.1-10.2-0.4-21,3.7-30.5C198.2,417.4,195.4,428.1,193.1,437.8z M232.6,458.3c-0.9,1.1-2.3,0.9-2.6-0.6
			c-0.8-3.4,0.8-6.8,2.8-9.4C234.1,451.2,235,455.8,232.6,458.3z"/>
	</g>
	<g id="SPLINE_21_">
		<path class="st0" d="M324.6,406c0.2-2-2.4-0.9-3.1-0.1c-7.6,8.9-14.5,33.9-19,48.9c-0.7,2.5-1.4,5-2.1,7.5
			c-1.6-18.8,1.3-37.9,3.4-55.6c0.1-1,0.2-2.2-1.2-2.4c-1.4-0.2-2.7-0.6-3.8,1.1c-1,1.7-2.3,3.4-3.7,4.8c-2.2,2.3-4.7,4.4-6.8,6.6
			c-3.2,3.5-5.1,7.3-4.6,12.2c0.1,1.3,0.7,1.5,1.7,1.4c1.2,0,1.1-0.8,1-1.8c-0.1-1.3-0.2-2.6,0.1-3.9c1.5-6.7,7.1-10.2,12-15
			c-2.1,16.5-3.8,32.9-3.4,49.2c0.2,5.2,2,9.2,5.3,9.2c1.6,0,1.8-1.4,2.1-2.6c3.9-14.3,7.4-28.6,12.8-42.5
			c2.3-5.8,4.3-10.9,7.5-14.9C323.2,407.7,324.6,406.6,324.6,406z"/>
	</g>
	<g id="HATCH_11_">
		<path d="M324.6,406c0.2-2-2.4-0.9-3.1-0.1c-7.6,8.9-14.5,33.9-19,48.9c-0.7,2.5-1.4,5-2.1,7.5c-1.6-18.8,1.3-37.9,3.4-55.6
			c0.1-1,0.2-2.2-1.2-2.4c-1.4-0.2-2.7-0.6-3.8,1.1c-1,1.7-2.3,3.4-3.7,4.8c-2.2,2.3-4.7,4.4-6.8,6.6c-3.2,3.5-5.1,7.3-4.6,12.2
			c0.1,1.3,0.7,1.5,1.7,1.4c1.2,0,1.1-0.8,1-1.8c-0.1-1.3-0.2-2.6,0.1-3.9c1.5-6.7,7.1-10.2,12-15c-2.1,16.5-3.8,32.9-3.4,49.2
			c0.2,5.2,2,9.2,5.3,9.2c1.6,0,1.8-1.4,2.1-2.6c3.9-14.3,7.4-28.6,12.8-42.5c2.3-5.8,4.3-10.9,7.5-14.9
			C323.2,407.7,324.6,406.6,324.6,406z"/>
	</g>
	<g id="SPLINE_20_">
		<path class="st0" d="M323.3,417.6c-0.9,2.4,2,3.5,3.5,2C329,417,324.9,414.4,323.3,417.6z"/>
	</g>
	<g id="HATCH_10_">
		<path d="M323.3,417.6c-0.9,2.4,2,3.5,3.5,2C329,417,324.9,414.4,323.3,417.6z"/>
	</g>
	<g id="SPLINE_19_">
		<path class="st0" d="M395.4,419.6c2.3-2.6-1.9-5.1-3.5-2C391.1,420,393.9,421.1,395.4,419.6z"/>
	</g>
	<g id="HATCH_9_">
		<path d="M395.4,419.6c2.3-2.6-1.9-5.1-3.5-2C391.1,420,393.9,421.1,395.4,419.6z"/>
	</g>
	<g id="SPLINE_18_">
		<path class="st0" d="M441.2,419.6c2.3-2.6-1.9-5.1-3.5-2C436.9,420,439.8,421.1,441.2,419.6z"/>
	</g>
	<g id="HATCH_8_">
		<path d="M441.2,419.6c2.3-2.6-1.9-5.1-3.5-2C436.9,420,439.8,421.1,441.2,419.6z"/>
	</g>
	<g id="SPLINE_17_">
		<path class="st0" d="M482.2,435.9c-0.8-0.7-1.6,0.3-1.6,0.3c-1.5,2.4-3.3,5.2-4.1,6.5c-1.3,2.2-3.9,6.8-5,6.8
			c-2.3,0-1-7.9-0.8-9.5c0.5-3.4,1.3-6.6,1.8-10c0.2-1.4,0.2-2.6-1.6-3.1c-2-0.6-3.4,0-4.1,1.5l-2.8,5.1c-1-2.4-1.7-5.3-4.4-6.4
			c-6.1-1.7-9,5.3-9.9,11.7c-2.1,3.3-3.3,5.3-4.5,7.2c-0.7,1-1.3,2.3-2.4,3c-0.9,0.6-2,0.8-2.9,0.2c-0.6-0.4-1-1.1-1.2-1.8
			c-0.7-3.4,1.4-12.7,2.1-15.9c0.4-1.6,0.3-3.6-1.6-3.9c-2.5-0.4-4,0.2-4.3,2.1c-0.6,2.7-1.2,5.7-1.5,8.7c-0.1,0.2-0.2,0.4-0.4,0.6
			c-3.8,6.2-7.5,12.5-11.3,18.7c0-8.7,3.5-17.1,4.2-25.9c0.2-3.3-1.1-7-4.7-5.8c-5,1.7-9.8,13.2-11.5,17.3c0-4.8,0.6-9.5,0.6-14.3
			c0-0.7,0-1.3-0.4-1.8c-0.5-1.1-2-1.1-3.1-1.1c-1.1,0.1-2.3,0.3-2.8,1.2c-0.2,0.4-0.2,0.8-0.2,1.3c-0.1,3.4-0.2,6.9-0.2,10.4
			c-2,3.2-3.2,5.2-4.4,7.1c-0.7,1-1.3,2.3-2.4,3c-0.9,0.6-2,0.8-2.9,0.2c-0.6-0.4-1-1.1-1.2-1.8c-0.7-3.4,1.4-12.7,2.1-15.9
			c0.4-1.6,0.3-3.6-1.6-3.9c-2.5-0.4-4,0.2-4.3,2.1c-0.6,2.6-1.2,5.4-1.5,8.3l-8.3,12.2c0.7-7.1,1-13.5,1.4-19.9
			c0.1-1.3,0-2.6-1.8-2.8c-2.1-0.2-2.9,0.3-4.8,5.6c-1.3-2.8-2.8-6.2-6.5-6.3c-6.1-0.1-8.5,6.2-9.5,12.1c-0.9,1.5-1.8,2.9-2.3,3.6
			c-1.4,2.2-2.7,4.5-4.4,6.3c-1.9,1.9-2.9-0.5-2.9-2c0.1-5.5,2.2-11.6,3.6-16.9c0.8-3.1,0.4-3.7-2.9-3.6c-3.2,0-4.8,0.1-5.1,0
			c0.4-2.2,1.1-6.4-0.6-8.1c-0.7-0.8-2-0.8-3-0.6c-4.6,1-7.2,7.9-2.6,10c1,0.4,2.4,0.7,3.5,1c0.1,0-3.5,5.4-4.7,7.3
			c0,0-0.1,0.2-0.2,0.4c-3,4.7-4.5,7.2-5.9,9.5c-0.7,1-1.3,2.3-2.4,3c-0.9,0.6-2,0.8-2.9,0.2c-0.6-0.4-1-1.1-1.2-1.8
			c-0.7-3.4,1.4-12.7,2.1-15.9c0.4-1.6,0.3-3.6-1.6-3.9c-2.5-0.4-4,0.2-4.3,2.1c-1.3,5.6-2.6,12.7-1,18.3c1,3.5,4.1,5.1,7.5,4.2
			c0.9-0.2,1.7-0.7,2.3-1.4c2.1-2,3.4-4.6,4.9-6.9c0.7-1.2,1.7-2.7,4.1-6.3c0,0,0.1-0.2,0.2-0.4c1.4-2.2,4.5-7,5.1-8.3l3.2,0.1
			c-1.2,4.2-2.4,8.1-2.9,12.4c-0.2,1.4-0.4,2.8-0.4,4.3c0,1.8,0.4,4.1,1.9,5.2c5.6,4.8,9.7-3.5,11.9-7c0.1-0.1,0.2-0.3,0.3-0.4
			c-0.1,1.1-0.1,2.2-0.1,3c0,4.8,6.6,8.5,10.1,2.9c2.2-3.7,4.3-7.3,6.6-11.5c-1.1,16.9,0.1,15-1.5,16.9c-4.6,4.5-8.6,7.6-12.5,12.8
			c-2.8,3.9-4.9,8.2-5.3,13c-0.6,7.4,4.7,11.2,11,8.9c5.3-1.9,8.1-5.9,9.8-11.1c0.2-0.5,0.3-1,0.4-1.5c1.2-4,1.8-8,2.2-12.1
			c0.9-8.8,0.9-11.1,1.1-11.3c2.8-3.1,5.2-6.7,8.1-11.2c0,2,0.2,4,0.7,5.9c1,3.5,4.1,5.1,7.5,4.2c0.9-0.2,1.7-0.7,2.3-1.4
			c2.1-2,3.4-4.6,4.9-6.9c0.2-0.4,0.5-0.9,0.9-1.4c0.1,3.1,0.2,6.1,0.3,9.1c0,0.5,0,0.9,0.4,1.2c0.2,0.3,0.6,0.4,1,0.4
			c1.4,0,3.1,0,4-1.1c0.3-0.5,0.4-1.1,0.5-1.7c1.9-7.5,4.8-14.9,9.8-20.8c0.2-0.2,0.5-0.4,0.7-0.4c0.4,0.1,0.3,0.6,0.2,1
			c-1.6,5.6-2.8,11.6-3.7,17.3c-0.5,2.7-0.8,5.4-0.6,8.1c0,1.2,0.2,2.4,0.8,3.4c0.6,1.1,1.6,1.9,2.8,2.1c2.5,0.1,3.9-2.3,4.8-4.1
			c3.1-5.8,5.9-10.3,8.6-14.7c0,2,0.2,3.9,0.7,5.7c1,3.5,4.1,5.1,7.5,4.2c0.9-0.2,1.7-0.7,2.3-1.4c2.1-2,3.4-4.6,4.9-6.9
			c0.2-0.3,0.4-0.6,0.6-1c0,1,0,1.9,0.1,2.7c0.1,1.3,0.6,2.7,1.3,3.9c2.1,3.3,7.2,3.1,9-0.2c1.6-2.9,2.9-6,4.5-9
			c0,2.2-0.1,4.4,0,6.6c0.2,3.4,3.6,6.5,6.9,5.1c3.4-1.4,5-5.3,6.8-8.2c1.1-1.6,3-4.7,4.1-6.3C482.1,437.5,482.9,436.4,482.2,435.9z
			"/>
	</g>
	<g id="SPLINE_16_">
		<path class="st0" d="M341.7,425.9c-1.3-2.4-1.2-4.3,0-6.5C342.7,421.7,342.5,423.5,341.7,425.9z"/>
	</g>
	<g id="SPLINE_15_">
		<path class="st0" d="M371.4,438.8c-1.7,3-3.2,6-6.1,10.6c-3.8-3.5-1-18.5,3.6-20.4C372.2,431.1,373.5,435.6,371.4,438.8z"/>
	</g>
	<g id="SPLINE_14_">
		<path class="st0" d="M370.9,477.7c-0.9,3.8-2.3,7.7-5.7,9.5c-0.8,0.4-1.7,0.7-2.5,0.6c-4.3-0.2-4.8-6-4.3-9.1
			c0.8-4.5,3-8.6,5.8-12.2c3-3.9,5.8-6.7,9.7-9.8C372.8,463.8,372.5,470.8,370.9,477.7z"/>
	</g>
	<g id="SPLINE_13_">
		<path class="st0" d="M456.9,449.7c-2.7,0-1.2-9.1-0.9-11.5c0.3-1.8,1-8.9,3.6-8.6C466.3,433.3,458.3,449.7,456.9,449.7z"/>
	</g>
	<g id="HATCH_7_">
		<path d="M482.2,435.9c-0.8-0.7-1.6,0.3-1.6,0.3c-1.5,2.4-3.3,5.2-4.1,6.5c-1.3,2.2-3.9,6.8-5,6.8c-2.3,0-1-7.9-0.8-9.5
			c0.5-3.4,1.3-6.6,1.8-10c0.2-1.4,0.2-2.6-1.6-3.1c-2-0.6-3.4,0-4.1,1.5l-2.8,5.1c-1-2.4-1.7-5.3-4.4-6.4c-6.1-1.7-9,5.3-9.9,11.7
			c-2.1,3.3-3.3,5.3-4.5,7.2c-0.7,1-1.3,2.3-2.4,3c-0.9,0.6-2,0.8-2.9,0.2c-0.6-0.4-1-1.1-1.2-1.8c-0.7-3.4,1.4-12.7,2.1-15.9
			c0.4-1.6,0.3-3.6-1.6-3.9c-2.5-0.4-4,0.2-4.3,2.1c-0.6,2.7-1.2,5.7-1.5,8.7c-0.1,0.2-0.2,0.4-0.4,0.6c-3.8,6.2-7.5,12.5-11.3,18.7
			c0-8.7,3.5-17.1,4.2-25.9c0.2-3.3-1.1-7-4.7-5.8c-5,1.7-9.8,13.2-11.5,17.3c0-4.8,0.6-9.5,0.6-14.3c0-0.7,0-1.3-0.4-1.8
			c-0.5-1.1-2-1.1-3.1-1.1c-1.1,0.1-2.3,0.3-2.8,1.2c-0.2,0.4-0.2,0.8-0.2,1.3c-0.1,3.4-0.2,6.9-0.2,10.4c-2,3.2-3.2,5.2-4.4,7.1
			c-0.7,1-1.3,2.3-2.4,3c-0.9,0.6-2,0.8-2.9,0.2c-0.6-0.4-1-1.1-1.2-1.8c-0.7-3.4,1.4-12.7,2.1-15.9c0.4-1.6,0.3-3.6-1.6-3.9
			c-2.5-0.4-4,0.2-4.3,2.1c-0.6,2.6-1.2,5.4-1.5,8.3l-8.3,12.2c0.7-7.1,1-13.5,1.4-19.9c0.1-1.3,0-2.6-1.8-2.8
			c-2.1-0.2-2.9,0.3-4.8,5.6c-1.3-2.8-2.8-6.2-6.5-6.3c-6.1-0.1-8.5,6.2-9.5,12.1c-0.9,1.5-1.8,2.9-2.3,3.6
			c-1.4,2.2-2.7,4.5-4.4,6.3c-1.9,1.9-2.9-0.5-2.9-2c0.1-5.5,2.2-11.6,3.6-16.9c0.8-3.1,0.4-3.7-2.9-3.6c-3.2,0-4.8,0.1-5.1,0
			c0.4-2.2,1.1-6.4-0.6-8.1c-0.7-0.8-2-0.8-3-0.6c-4.6,1-7.2,7.9-2.6,10c1,0.4,2.4,0.7,3.5,1c0.1,0-3.5,5.4-4.7,7.3
			c0,0-0.1,0.2-0.2,0.4c-3,4.7-4.5,7.2-5.9,9.5c-0.7,1-1.3,2.3-2.4,3c-0.9,0.6-2,0.8-2.9,0.2c-0.6-0.4-1-1.1-1.2-1.8
			c-0.7-3.4,1.4-12.7,2.1-15.9c0.4-1.6,0.3-3.6-1.6-3.9c-2.5-0.4-4,0.2-4.3,2.1c-1.3,5.6-2.6,12.7-1,18.3c1,3.5,4.1,5.1,7.5,4.2
			c0.9-0.2,1.7-0.7,2.3-1.4c2.1-2,3.4-4.6,4.9-6.9c0.7-1.2,1.7-2.7,4.1-6.3c0,0,0.1-0.2,0.2-0.4c1.4-2.2,4.5-7,5.1-8.3l3.2,0.1
			c-1.2,4.2-2.4,8.1-2.9,12.4c-0.2,1.4-0.4,2.8-0.4,4.3c0,1.8,0.4,4.1,1.9,5.2c5.6,4.8,9.7-3.5,11.9-7c0.1-0.1,0.2-0.3,0.3-0.4
			c-0.1,1.1-0.1,2.2-0.1,3c0,4.8,6.6,8.5,10.1,2.9c2.2-3.7,4.3-7.3,6.6-11.5c-1.1,16.9,0.1,15-1.5,16.9c-4.6,4.5-8.6,7.6-12.5,12.8
			c-2.8,3.9-4.9,8.2-5.3,13c-0.6,7.4,4.7,11.2,11,8.9c5.3-1.9,8.1-5.9,9.8-11.1c0.2-0.5,0.3-1,0.4-1.5c1.2-4,1.8-8,2.2-12.1
			c0.9-8.8,0.9-11.1,1.1-11.3c2.8-3.1,5.2-6.7,8.1-11.2c0,2,0.2,4,0.7,5.9c1,3.5,4.1,5.1,7.5,4.2c0.9-0.2,1.7-0.7,2.3-1.4
			c2.1-2,3.4-4.6,4.9-6.9c0.2-0.4,0.5-0.9,0.9-1.4c0.1,3.1,0.2,6.1,0.3,9.1c0,0.5,0,0.9,0.4,1.2c0.2,0.3,0.6,0.4,1,0.4
			c1.4,0,3.1,0,4-1.1c0.3-0.5,0.4-1.1,0.5-1.7c1.9-7.5,4.8-14.9,9.8-20.8c0.2-0.2,0.5-0.4,0.7-0.4c0.4,0.1,0.3,0.6,0.2,1
			c-1.6,5.6-2.8,11.6-3.7,17.3c-0.5,2.7-0.8,5.4-0.6,8.1c0,1.2,0.2,2.4,0.8,3.4c0.6,1.1,1.6,1.9,2.8,2.1c2.5,0.1,3.9-2.3,4.8-4.1
			c3.1-5.8,5.9-10.3,8.6-14.7c0,2,0.2,3.9,0.7,5.7c1,3.5,4.1,5.1,7.5,4.2c0.9-0.2,1.7-0.7,2.3-1.4c2.1-2,3.4-4.6,4.9-6.9
			c0.2-0.3,0.4-0.6,0.6-1c0,1,0,1.9,0.1,2.7c0.1,1.3,0.6,2.7,1.3,3.9c2.1,3.3,7.2,3.1,9-0.2c1.6-2.9,2.9-6,4.5-9
			c0,2.2-0.1,4.4,0,6.6c0.2,3.4,3.6,6.5,6.9,5.1c3.4-1.4,5-5.3,6.8-8.2c1.1-1.6,3-4.7,4.1-6.3C482.1,437.5,482.9,436.4,482.2,435.9z
			 M341.7,425.9c-1.3-2.4-1.2-4.3,0-6.5C342.7,421.7,342.5,423.5,341.7,425.9z M371.4,438.8c-1.7,3-3.2,6-6.1,10.6
			c-3.8-3.5-1-18.5,3.6-20.4C372.2,431.1,373.5,435.6,371.4,438.8z M370.9,477.7c-0.9,3.8-2.3,7.7-5.7,9.5c-0.8,0.4-1.7,0.7-2.5,0.6
			c-4.3-0.2-4.8-6-4.3-9.1c0.8-4.5,3-8.6,5.8-12.2c3-3.9,5.8-6.7,9.7-9.8C372.8,463.8,372.5,470.8,370.9,477.7z M456.9,449.7
			c-2.7,0-1.2-9.1-0.9-11.5c0.3-1.8,1-8.9,3.6-8.6C466.3,433.3,458.3,449.7,456.9,449.7z"/>
	</g>
</g>
</svg>
