<?xml version="1.0" encoding="utf-8"?>
<!-- Generator: Adobe Illustrator 22.0.1, SVG Export Plug-In . SVG Version: 6.00 Build 0)  -->
<svg version="1.1" id="Layer_1" xmlns="http://www.w3.org/2000/svg" xmlns:xlink="http://www.w3.org/1999/xlink" x="0px" y="0px"
	 viewBox="0 0 500 500" style="enable-background:new 0 0 500 500;" xml:space="preserve">
<style type="text/css">
	.st0{fill:none;stroke:#000000;stroke-width:0;stroke-linecap:round;stroke-linejoin:round;stroke-miterlimit:10;}
</style>
<g id="SPLINE_17_">
	<path class="st0" d="M421.9,475.2c-1.5-0.9-213,14.8-213,14.8l-39.2-23.5L154,450.8V396l-7.8-47l-70.5-62.7l-47-15.7l-7.8-86.2
		l-7.8-7.8l7.8-31.3l31.3-15.7V67l23.5-15.7l47-15.7l23.5,7.8l54.8,7.8l31.3,39.2l62.7,7.8l7.8,7.8h47l39.2,31.3l15.7,78.3
		L389,231.5v31.3l31.3-31.3l23.5-31.3l-7.8,39.2l-7.8,54.8l-15.7,31.3L421.9,475.2L421.9,475.2L421.9,475.2z"/>
</g>
<g id="HATCH_7_">
	<path d="M421.9,475.2c-1.5-0.9-213,14.8-213,14.8l-39.2-23.5L154,450.8V396l-7.8-47l-70.5-62.7l-47-15.7l-7.8-86.2l-7.8-7.8
		l7.8-31.3l31.3-15.7V67l23.5-15.7l47-15.7l23.5,7.8l54.8,7.8l31.3,39.2l62.7,7.8l7.8,7.8h47l39.2,31.3l15.7,78.3L389,231.5v31.3
		l31.3-31.3l23.5-31.3l-7.8,39.2l-7.8,54.8l-15.7,31.3L421.9,475.2C421.9,475.2,421.9,475.3,421.9,475.2z"/>
</g>
<g id="INSERT_1_">
	<g id="SPLINE_16_">
		<path class="st0" d="M304.2,27c2.5-2.8-2.1-5.7-3.8-2.2C299.4,27.4,302.6,28.6,304.2,27z"/>
	</g>
	<g id="HATCH_6_">
		<path d="M304.2,27c2.5-2.8-2.1-5.7-3.8-2.2C299.4,27.4,302.6,28.6,304.2,27z"/>
	</g>
	<g id="SPLINE_15_">
		<path class="st0" d="M441.3,27c2.5-2.8-2.1-5.7-3.8-2.2C436.4,27.4,439.6,28.6,441.3,27z"/>
	</g>
	<g id="HATCH_5_">
		<path d="M441.3,27c2.5-2.8-2.1-5.7-3.8-2.2C436.4,27.4,439.6,28.6,441.3,27z"/>
	</g>
	<g id="SPLINE_14_">
		<path class="st0" d="M486.7,45.2c-1-0.8-1.8,0.3-1.8,0.3c-0.7,1-1.2,2-1.9,3.1c-4.2,6.9-8.3,13.8-12.5,20.7c0-9.6,3.8-19,4.6-28.7
			c0.2-3.6-1.2-7.8-5.3-6.5c-5.6,1.9-10.8,14.6-12.7,19.2c0-5.3,0.7-10.5,0.7-15.8c0-0.8,0-1.4-0.4-2c-0.5-1.2-2.2-1.2-3.4-1.2
			c-1.2,0.1-2.5,0.3-3.1,1.3c-0.2,0.4-0.2,0.9-0.2,1.4c-0.1,3.8-0.2,7.6-0.2,11.5c-2.2,3.5-3.6,5.7-4.9,7.8
			c-0.8,1.1-1.4,2.5-2.6,3.3c-1,0.7-2.2,0.9-3.2,0.2c-0.7-0.4-1.1-1.2-1.3-2c-0.8-3.7,1.5-14,2.3-17.6c0.4-1.8,0.3-3.9-1.8-4.3
			c-2.7-0.4-4.4,0.2-4.7,2.3c-0.6,2.8-1.3,6-1.6,9.1c-2.4,3.2-4.7,4.7-8.9,6.1c-0.4,0.2-0.5,0-0.7-0.2c-2.6-5.3-5.6-11.4-4.2-16.9
			c0.2-1,1.1-3.6,2.2-2c0.9,1.5,0.9,3.3,0.8,5c-0.1,2.1,3,1.4,3,0c0-1.5-0.1-3.1-0.5-4.6c-0.7-2.6-2.3-3.8-5-3.5
			c-3.8,0.5-7,3.4-7.4,7.2c-0.4,2.8,0.2,5.4,1.1,7.9c-0.4,0.7-0.8,1.3-1.2,2.1c-4.2,6.9-8.3,13.8-12.5,20.7c0-9.6,3.8-19,4.6-28.7
			c0.2-3.6-1.2-7.8-5.3-6.5c-5.6,1.9-10.8,14.6-12.7,19.2c0-5.3,0.7-10.5,0.7-15.8c0-0.8,0-1.4-0.4-2c-0.5-1.2-2.2-1.2-3.4-1.2
			c-1.2,0.1-2.5,0.3-3.1,1.3c-0.2,0.4-0.2,0.9-0.2,1.4c-0.1,3.7-0.2,7.4-0.2,11.1c-1.1,1.3-2.5,2.5-4.4,3c0.3-2.6,0.5-5.4,0.1-8
			c-1.8-8.9-11.8-9.3-15-1.4c-0.6,1.5-1.2,3.5-1.7,5.5c-1.7,2.6-2.8,4.5-3.3,5.3c-2,3.2-4.9,8-9,8.7c-1.3,0.2-2.7-0.1-3.7-1.1
			c-0.8-0.9-1.2-2.2-1.4-3.4c-0.8-4.9-0.1-10.4,1.6-15.2c0.5-1.3,1.4-4.3,2.8-4.9c2.2-0.8,3.1,9,5.9,5.5c0.5-0.8-0.9-3.3-1.2-3.9
			c-1.2-3-2.6-3.7-5.8-3.6c-2.3,0.1-4.5,0.9-6,2.5c-2.4,2.6-3.7,6.7-4.1,10.7c-2.3,3-4.5,4.4-8.6,5.7c-0.4,0.2-0.5,0-0.7-0.2
			c-2.6-5.3-5.6-11.4-4.2-16.9c0.2-1,1.1-3.6,2.2-2c0.9,1.5,0.9,3.3,0.8,5c-0.1,2.1,3,1.4,3,0c0-1.5-0.1-3.1-0.5-4.6
			c-0.7-2.6-2.3-3.8-5-3.5c-3.8,0.5-7,3.4-7.4,7.2c-0.4,2.8,0.2,5.4,1.1,7.9c-3.1,4.8-4.6,7.4-6.2,9.9c-0.8,1.1-1.4,2.5-2.6,3.3
			c-1,0.7-2.2,0.9-3.2,0.2c-0.7-0.4-1.1-1.2-1.3-2c-0.8-3.7,1.5-14,2.3-17.6c0.4-1.8,0.3-3.9-1.8-4.3c-2.7-0.4-4.4,0.2-4.7,2.3
			c-0.6,2.8-1.2,5.8-1.6,8.9c-2.6,2.7-6.5,4.4-11.2,2.3c2.6-12.3,5.6-23.7,4.8-35.1c-0.1-1.5-0.2-3.2-2-4.1
			c-3.6-1.4-5.7,1.9-7.1,4.6c-2.6,5.1-3.1,10.6-3.5,16.2c-0.5,6.1,0,15.8,3.9,20.2c0.3,0.4-2.5,8.3-3.8,12.5
			c-0.9,3-3.8,13.1-4.9,13.1c-2.8-1.2-1.1-16.3-0.3-24.2c1.2-14.2,3.3-26.7,2.7-39.4c-0.1-1.3-0.8-2.4-2.3-2.6
			c-3.4-0.7-4.7,1.8-5.9,4.4c-4.2,9.1-7.4,19.2-15.1,45.6c0-7.4,0.5-15.1,1.3-22.6c0.9-8.5,2.3-16.9,3.5-25.4c0-0.4-0.2-1.2-0.5-1.5
			c-1.6-1.3-5.4-0.3-5.8,1.9c-0.7,4.6-9.3,55.6,0.5,52.9c1-0.3,3.2-1.2,3.6-2.1c1-2.2,1.5-4.6,2.2-6.9c3.8-14,7.6-28.4,13-41.6
			c-0.8,17-3.3,33.7-4.8,50.6c-0.3,3.8-0.3,7.7,1.2,11.3c0.8,1.8,2.4,3.2,4.6,3.3c4.1,0.3,6.4-4.4,7.3-7.4l6.7-20.8
			c4.1,0.9,6.2,0.8,9.1-0.4c0.9-0.4,1.7-0.9,2.5-1.5c-0.1,2.9,0,5.7,0.8,8.3c1.1,3.8,4.5,5.7,8.3,4.6c1-0.2,1.9-0.8,2.5-1.5
			c2.3-2.2,3.7-5,5.5-7.7c0.6-1.1,1.5-2.4,3.2-5.1c1.2,2.6,2.6,5,3.5,7.4c-3.2,3.2-5.5,7.9-4.8,12.4c0.9,6.7,9.2,4.4,11.7,0.1
			c2.4-4.1,1.1-7.9-0.3-12.2c-0.1-0.1-0.2-0.3-0.1-0.4c0.1-0.1,0.2-0.2,0.3-0.2c3-1.4,5.4-2.3,7.8-4.7c0,1.7,0.2,3.3,0.5,4.6
			c0.8,3.6,2.4,6.9,6.4,7.9c3.6,0.8,7.1,0,10.1-2.2c2.5-2,4.2-4.8,5.7-7.3c0.3-0.4,0.6-1,1-1.7c-0.2,5.3,1.4,10.2,7.3,11.3
			c2.8,0.5,5.3-0.8,6.9-3c1.5-2.1,2.3-4.8,3-7.3c1.8-0.3,3.3-1.2,4.6-2.3c0.1,3.8,0.2,7.6,0.4,11.3c0,0.5,0,1,0.4,1.3
			c0.2,0.3,0.7,0.4,1.1,0.4c1.5,0,3.4,0,4.4-1.2c0.3-0.5,0.4-1.2,0.5-1.9c2.1-8.3,5.4-16.5,10.8-23c0.2-0.2,0.5-0.4,0.8-0.4
			c0.4,0.1,0.3,0.7,0.2,1.1c-1.8,6.2-3.1,12.8-4.1,19.2c-0.5,3-0.9,6-0.7,9c0,1.3,0.2,2.6,0.9,3.7c0.7,1.2,1.8,2.1,3.1,2.3
			c2.7,0.1,4.3-2.5,5.3-4.5c4.1-7.6,7.6-13.1,11.1-18.8c0.2-0.3,0.3-0.5,0.5-0.8c1.2,2.5,2.6,5,3.5,7.4c-3.2,3.2-5.5,7.9-4.8,12.4
			c0.9,6.7,9.2,4.4,11.7,0.1c2.4-4.1,1.1-7.9-0.3-12.2c-0.1-0.1-0.2-0.3-0.1-0.4c0.1-0.1,0.2-0.2,0.3-0.2c3.1-1.4,5.5-2.4,8.1-5
			c-0.1,2.6,0.1,5.2,0.8,7.6c1.1,3.8,4.5,5.7,8.3,4.6c1-0.2,1.9-0.8,2.5-1.5c2.3-2.2,3.7-5,5.5-7.7c0.3-0.5,0.6-1,1-1.6
			c0.1,3.4,0.2,6.8,0.3,10.1c0,0.5,0,1,0.4,1.3c0.2,0.3,0.7,0.4,1.1,0.4c1.5,0,3.4,0,4.4-1.2c0.3-0.5,0.4-1.2,0.5-1.9
			c2.1-8.3,5.4-16.5,10.8-23c0.2-0.2,0.5-0.4,0.8-0.4c0.4,0.1,0.3,0.7,0.2,1.1c-1.8,6.2-3.1,12.8-4.1,19.2c-0.5,3-0.9,6-0.7,9
			c0,1.3,0.2,2.6,0.9,3.7c0.7,1.2,1.8,2.1,3.1,2.3c2.7,0.1,4.3-2.5,5.3-4.5c4.1-7.6,7.6-13.1,11.1-18.8c0.7-1,1.3-2,1.8-2.7
			C486.6,46.9,487.4,45.7,486.7,45.2z"/>
	</g>
	<g id="SPLINE_13_">
		<path class="st0" d="M281.8,47.1c-2.3-11.3-0.4-23.2,4.1-33.7C287.5,24.6,284.4,36.4,281.8,47.1z"/>
	</g>
	<g id="SPLINE_12_">
		<path class="st0" d="M320.1,69.8c-1,1.2-2.5,1-2.8-0.7c-0.9-3.7,0.9-7.6,3.1-10.4C321.8,62,322.7,67.1,320.1,69.8z"/>
	</g>
	<g id="SPLINE_11_">
		<path class="st0" d="M364.8,58.2c-0.9-2.7-1.1-5.8-0.1-8.8c0.1-0.2,0.2-0.5,0.5-0.4c2.4,1.9,4.5,3.4,7.4,4.1
			C371.7,60.7,366.3,64.8,364.8,58.2z"/>
	</g>
	<g id="SPLINE_10_">
		<path class="st0" d="M372.8,51c-2.7-0.8-4.9-2.2-5.8-4.5c-0.8-2.2-0.3-4.7,1.1-6.5c1-1.2,2.8-0.7,3.6,0.3
			C374,42.7,373.5,47.8,372.8,51z"/>
	</g>
	<g id="SPLINE_9_">
		<path class="st0" d="M418.4,69.8c-1,1.2-2.5,1-2.8-0.7c-0.9-3.7,0.9-7.6,3.1-10.4C420,62,421,67.1,418.4,69.8z"/>
	</g>
	<g id="HATCH_4_">
		<path d="M486.7,45.2c-1-0.8-1.8,0.3-1.8,0.3c-0.7,1-1.2,2-1.9,3.1c-4.2,6.9-8.3,13.8-12.5,20.7c0-9.6,3.8-19,4.6-28.7
			c0.2-3.6-1.2-7.8-5.3-6.5c-5.6,1.9-10.8,14.6-12.7,19.2c0-5.3,0.7-10.5,0.7-15.8c0-0.8,0-1.4-0.4-2c-0.5-1.2-2.2-1.2-3.4-1.2
			c-1.2,0.1-2.5,0.3-3.1,1.3c-0.2,0.4-0.2,0.9-0.2,1.4c-0.1,3.8-0.2,7.6-0.2,11.5c-2.2,3.5-3.6,5.7-4.9,7.8
			c-0.8,1.1-1.4,2.5-2.6,3.3c-1,0.7-2.2,0.9-3.2,0.2c-0.7-0.4-1.1-1.2-1.3-2c-0.8-3.7,1.5-14,2.3-17.6c0.4-1.8,0.3-3.9-1.8-4.3
			c-2.7-0.4-4.4,0.2-4.7,2.3c-0.6,2.8-1.3,6-1.6,9.1c-2.4,3.2-4.7,4.7-8.9,6.1c-0.4,0.2-0.5,0-0.7-0.2c-2.6-5.3-5.6-11.4-4.2-16.9
			c0.2-1,1.1-3.6,2.2-2c0.9,1.5,0.9,3.3,0.8,5c-0.1,2.1,3,1.4,3,0c0-1.5-0.1-3.1-0.5-4.6c-0.7-2.6-2.3-3.8-5-3.5
			c-3.8,0.5-7,3.4-7.4,7.2c-0.4,2.8,0.2,5.4,1.1,7.9c-0.4,0.7-0.8,1.3-1.2,2.1c-4.2,6.9-8.3,13.8-12.5,20.7c0-9.6,3.8-19,4.6-28.7
			c0.2-3.6-1.2-7.8-5.3-6.5c-5.6,1.9-10.8,14.6-12.7,19.2c0-5.3,0.7-10.5,0.7-15.8c0-0.8,0-1.4-0.4-2c-0.5-1.2-2.2-1.2-3.4-1.2
			c-1.2,0.1-2.5,0.3-3.1,1.3c-0.2,0.4-0.2,0.9-0.2,1.4c-0.1,3.7-0.2,7.4-0.2,11.1c-1.1,1.3-2.5,2.5-4.4,3c0.3-2.6,0.5-5.4,0.1-8
			c-1.8-8.9-11.8-9.3-15-1.4c-0.6,1.5-1.2,3.5-1.7,5.5c-1.7,2.6-2.8,4.5-3.3,5.3c-2,3.2-4.9,8-9,8.7c-1.3,0.2-2.7-0.1-3.7-1.1
			c-0.8-0.9-1.2-2.2-1.4-3.4c-0.8-4.9-0.1-10.4,1.6-15.2c0.5-1.3,1.4-4.3,2.8-4.9c2.2-0.8,3.1,9,5.9,5.5c0.5-0.8-0.9-3.3-1.2-3.9
			c-1.2-3-2.6-3.7-5.8-3.6c-2.3,0.1-4.5,0.9-6,2.5c-2.4,2.6-3.7,6.7-4.1,10.7c-2.3,3-4.5,4.4-8.6,5.7c-0.4,0.2-0.5,0-0.7-0.2
			c-2.6-5.3-5.6-11.4-4.2-16.9c0.2-1,1.1-3.6,2.2-2c0.9,1.5,0.9,3.3,0.8,5c-0.1,2.1,3,1.4,3,0c0-1.5-0.1-3.1-0.5-4.6
			c-0.7-2.6-2.3-3.8-5-3.5c-3.8,0.5-7,3.4-7.4,7.2c-0.4,2.8,0.2,5.4,1.1,7.9c-3.1,4.8-4.6,7.4-6.2,9.9c-0.8,1.1-1.4,2.5-2.6,3.3
			c-1,0.7-2.2,0.9-3.2,0.2c-0.7-0.4-1.1-1.2-1.3-2c-0.8-3.7,1.5-14,2.3-17.6c0.4-1.8,0.3-3.9-1.8-4.3c-2.7-0.4-4.4,0.2-4.7,2.3
			c-0.6,2.8-1.2,5.8-1.6,8.9c-2.6,2.7-6.5,4.4-11.2,2.3c2.6-12.3,5.6-23.7,4.8-35.1c-0.1-1.5-0.2-3.2-2-4.1
			c-3.6-1.4-5.7,1.9-7.1,4.6c-2.6,5.1-3.1,10.6-3.5,16.2c-0.5,6.1,0,15.8,3.9,20.2c0.3,0.4-2.5,8.3-3.8,12.5
			c-0.9,3-3.8,13.1-4.9,13.1c-2.8-1.2-1.1-16.3-0.3-24.2c1.2-14.2,3.3-26.7,2.7-39.4c-0.1-1.3-0.8-2.4-2.3-2.6
			c-3.4-0.7-4.7,1.8-5.9,4.4c-4.2,9.1-7.4,19.2-15.1,45.6c0-7.4,0.5-15.1,1.3-22.6c0.9-8.5,2.3-16.9,3.5-25.4c0-0.4-0.2-1.2-0.5-1.5
			c-1.6-1.3-5.4-0.3-5.8,1.9c-0.7,4.6-9.3,55.6,0.5,52.9c1-0.3,3.2-1.2,3.6-2.1c1-2.2,1.5-4.6,2.2-6.9c3.8-14,7.6-28.4,13-41.6
			c-0.8,17-3.3,33.7-4.8,50.6c-0.3,3.8-0.3,7.7,1.2,11.3c0.8,1.8,2.4,3.2,4.6,3.3c4.1,0.3,6.4-4.4,7.3-7.4l6.7-20.8
			c4.1,0.9,6.2,0.8,9.1-0.4c0.9-0.4,1.7-0.9,2.5-1.5c-0.1,2.9,0,5.7,0.8,8.3c1.1,3.8,4.5,5.7,8.3,4.6c1-0.2,1.9-0.8,2.5-1.5
			c2.3-2.2,3.7-5,5.5-7.7c0.6-1.1,1.5-2.4,3.2-5.1c1.2,2.6,2.6,5,3.5,7.4c-3.2,3.2-5.5,7.9-4.8,12.4c0.9,6.7,9.2,4.4,11.7,0.1
			c2.4-4.1,1.1-7.9-0.3-12.2c-0.1-0.1-0.2-0.3-0.1-0.4c0.1-0.1,0.2-0.2,0.3-0.2c3-1.4,5.4-2.3,7.8-4.7c0,1.7,0.2,3.3,0.5,4.6
			c0.8,3.6,2.4,6.9,6.4,7.9c3.6,0.8,7.1,0,10.1-2.2c2.5-2,4.2-4.8,5.7-7.3c0.3-0.4,0.6-1,1-1.7c-0.2,5.3,1.4,10.2,7.3,11.3
			c2.8,0.5,5.3-0.8,6.9-3c1.5-2.1,2.3-4.8,3-7.3c1.8-0.3,3.3-1.2,4.6-2.3c0.1,3.8,0.2,7.6,0.4,11.3c0,0.5,0,1,0.4,1.3
			c0.2,0.3,0.7,0.4,1.1,0.4c1.5,0,3.4,0,4.4-1.2c0.3-0.5,0.4-1.2,0.5-1.9c2.1-8.3,5.4-16.5,10.8-23c0.2-0.2,0.5-0.4,0.8-0.4
			c0.4,0.1,0.3,0.7,0.2,1.1c-1.8,6.2-3.1,12.8-4.1,19.2c-0.5,3-0.9,6-0.7,9c0,1.3,0.2,2.6,0.9,3.7c0.7,1.2,1.8,2.1,3.1,2.3
			c2.7,0.1,4.3-2.5,5.3-4.5c4.1-7.6,7.6-13.1,11.1-18.8c0.2-0.3,0.3-0.5,0.5-0.8c1.2,2.5,2.6,5,3.5,7.4c-3.2,3.2-5.5,7.9-4.8,12.4
			c0.9,6.7,9.2,4.4,11.7,0.1c2.4-4.1,1.1-7.9-0.3-12.2c-0.1-0.1-0.2-0.3-0.1-0.4c0.1-0.1,0.2-0.2,0.3-0.2c3.1-1.4,5.5-2.4,8.1-5
			c-0.1,2.6,0.1,5.2,0.8,7.6c1.1,3.8,4.5,5.7,8.3,4.6c1-0.2,1.9-0.8,2.5-1.5c2.3-2.2,3.7-5,5.5-7.7c0.3-0.5,0.6-1,1-1.6
			c0.1,3.4,0.2,6.8,0.3,10.1c0,0.5,0,1,0.4,1.3c0.2,0.3,0.7,0.4,1.1,0.4c1.5,0,3.4,0,4.4-1.2c0.3-0.5,0.4-1.2,0.5-1.9
			c2.1-8.3,5.4-16.5,10.8-23c0.2-0.2,0.5-0.4,0.8-0.4c0.4,0.1,0.3,0.7,0.2,1.1c-1.8,6.2-3.1,12.8-4.1,19.2c-0.5,3-0.9,6-0.7,9
			c0,1.3,0.2,2.6,0.9,3.7c0.7,1.2,1.8,2.1,3.1,2.3c2.7,0.1,4.3-2.5,5.3-4.5c4.1-7.6,7.6-13.1,11.1-18.8c0.7-1,1.3-2,1.8-2.7
			C486.6,46.9,487.4,45.7,486.7,45.2z M281.8,47.1c-2.3-11.3-0.4-23.2,4.1-33.7C287.5,24.6,284.4,36.4,281.8,47.1z M320.1,69.8
			c-1,1.2-2.5,1-2.8-0.7c-0.9-3.7,0.9-7.6,3.1-10.4C321.8,62,322.7,67.1,320.1,69.8z M364.8,58.2c-0.9-2.7-1.1-5.8-0.1-8.8
			c0.1-0.2,0.2-0.5,0.5-0.4c2.4,1.9,4.5,3.4,7.4,4.1C371.7,60.7,366.3,64.8,364.8,58.2z M372.8,51c-2.7-0.8-4.9-2.2-5.8-4.5
			c-0.8-2.2-0.3-4.7,1.1-6.5c1-1.2,2.8-0.7,3.6,0.3C374,42.7,373.5,47.8,372.8,51z M418.4,69.8c-1,1.2-2.5,1-2.8-0.7
			c-0.9-3.7,0.9-7.6,3.1-10.4C420,62,421,67.1,418.4,69.8z"/>
	</g>
</g>
</svg>
