<?xml version="1.0" encoding="utf-8"?>
<!-- Generator: Adobe Illustrator 22.0.1, SVG Export Plug-In . SVG Version: 6.00 Build 0)  -->
<svg version="1.1" id="Layer_1" xmlns="http://www.w3.org/2000/svg" xmlns:xlink="http://www.w3.org/1999/xlink" x="0px" y="0px"
	 viewBox="0 0 500 500" style="enable-background:new 0 0 500 500;" xml:space="preserve">
<style type="text/css">
	.st0{fill:none;stroke:#000000;stroke-width:0;stroke-linecap:round;stroke-linejoin:round;stroke-miterlimit:10;}
</style>
<g id="POLYLINE_1_">
	<path class="st0" d="M5,425.9l133.6,25.5l324.5,31.8l12.7-165.5L495,145.9l-190.9-19.1L68.6,82.3L5,425.9"/>
</g>
<g id="HATCH_5_">
	<path d="M5,425.9l133.6,25.5l324.5,31.8l12.7-165.5L495,145.9l-190.9-19.1L68.6,82.3L5,425.9C5,425.9,5,425.9,5,425.9z"/>
</g>
<g id="INSERT_1_">
	<g id="SPLINE_15_">
		<path class="st0" d="M343,32.9c2.4-2.7-2-5.4-3.6-2.1C338.5,33.3,341.5,34.4,343,32.9z"/>
	</g>
	<g id="HATCH_4_">
		<path d="M343,32.9c2.4-2.7-2-5.4-3.6-2.1C338.5,33.3,341.5,34.4,343,32.9z"/>
	</g>
	<g id="SPLINE_14_">
		<path class="st0" d="M416.2,49.9c-0.9-0.7-1.7,0.3-1.7,0.3l-10,14.8c0.7-7.4,1-14,1.4-20.8c0.1-1.3,0-2.7-1.9-2.9
			c-2.2-0.2-3,0.3-5.1,5.9c-1.3-2.9-2.9-6.5-6.8-6.6c-6.4-0.1-9,6.6-10,12.9c-3.9,6.4-7.7,12.8-11.6,19.2c0-9.1,3.6-17.9,4.3-27
			c0.2-3.4-1.1-7.3-5-6.1c-5.3,1.8-10.2,13.7-12,18.1c0-5,0.6-9.9,0.6-14.9c0-0.7,0-1.3-0.4-1.9c-0.5-1.1-2.1-1.1-3.2-1.1
			c-1.1,0.1-2.4,0.3-2.9,1.2c-0.2,0.4-0.2,0.8-0.2,1.3c-0.1,3.6-0.2,7.2-0.2,10.8c-2.1,3.3-3.3,5.4-4.6,7.4c-0.7,1-1.3,2.4-2.5,3.1
			c-0.9,0.6-2.1,0.8-3,0.2c-0.6-0.4-1-1.1-1.2-1.9c-0.7-3.5,1.4-13.2,2.2-16.6c0.4-1.7,0.3-3.7-1.7-4c-2.6-0.4-4.1,0.2-4.4,2.2
			c-0.6,2.8-1.3,5.9-1.6,9c-4.1,7-10.1,21.9-11.8,19.9c-0.3-0.2-0.4-0.6-0.4-1c-0.1-1.5,0.2-3.3,0.4-5c0.7-7.1,2.4-14,3.4-21.2
			c0.2-1.5,0.4-3.1,0-4.5c-1-3.5-6.7-5-8.6-1.3c-2.4,4.6-3.9,10-6.1,15.7c-0.2-4,0.1-7.8-0.4-11.9c-0.2-1.8-1.1-3.1-3.1-3.4
			c-2.9-0.5-4.7,1.7-5.6,4.1c-1.7,4.5-3.1,9.3-4.6,13.8c0.2-5,0.4-9.9,0.6-14.9c0-0.4,0-0.8-0.2-1.2c-0.5-1.3-3.8-1.1-5-1
			c-1.3,0.1-1.1,1.5-1.2,2.6c-0.1,3.1-0.3,6.3-0.4,9.4c-1.1,1.4-2.5,2.5-4.4,3.1c0.3-2.5,0.5-5.1,0.1-7.5
			c-1.7-8.4-11.1-8.8-14.1-1.3c-0.6,1.5-1.1,3.3-1.6,5.3l-0.4,0.6c-3.7,5.8-7.5,11.3-8.7,12.3c0.3-2.7,0.5-17.1,0.6-22
			c0-3-4.6-4.1-6.1-1.7c-3.7,6.3-6.2,12.7-8.9,19.2c-0.2-5.7,0.4-11.6,0.8-17.3c0.3-3.6-6.1-3.9-6.4-0.7c-0.3,3.3-0.6,6.5-0.8,9.7
			c-2.4,2.3-6,3.7-10.3,1.8c2.5-11.6,5.3-22.3,4.5-33c-0.1-1.4-0.2-3-1.9-3.8c-3.4-1.3-5.4,1.8-6.7,4.3c-2.5,4.9-2.9,10-3.3,15.3
			c-0.5,5.8,0,14.9,3.7,19c0.3,0.4-2.4,7.8-3.6,11.8c-0.8,2.8-3.6,12.4-4.6,12.4c-2.7-1.1-1-15.4-0.3-22.8
			c1.1-13.4,3.1-25.2,2.6-37.2c-0.1-1.2-0.7-2.3-2.2-2.5c-3.2-0.6-4.4,1.7-5.6,4.1c-3.9,8.6-7,18.1-14.2,42.9c0-7,0.5-14.2,1.2-21.3
			c0.8-8.1,2.2-15.9,3.3-24c0-0.4-0.2-1.1-0.5-1.4c-1.5-1.2-5.1-0.3-5.5,1.8c-0.6,4.3-8.8,52.4,0.5,49.9c0.9-0.3,3-1.1,3.4-2
			c0.9-2.1,1.4-4.3,2.1-6.5c3.6-13.2,7.1-26.7,12.3-39.2c-0.7,16-3.1,31.8-4.5,47.7c-0.3,3.6-0.3,7.2,1.1,10.6
			c0.7,1.7,2.3,3,4.3,3.1c3.8,0.3,6-4.1,6.9-7l6.3-19.6c3.8,0.8,5.9,0.7,8.6-0.4c0.8-0.3,1.5-0.8,2.2-1.3c0,0.5,0,0.9-0.1,1.4
			c-0.2,3.8,1.4,9,5.9,8.7c2.3-0.1,2.7-2,3.4-3.5c1.9-4.7,3.7-9.4,5.6-14.1c0.3-0.6,0.7-1.3,1-2c0,2.9-0.2,18.3-0.7,23.3
			c-4.9,4.1-10,8.9-13.9,14.2c-3,4-5.2,8.6-5.6,13.6c-0.6,7.6,4.9,11.6,11.5,9.2c5.5-1.9,8.5-6.1,10.1-11.5c1.7-5.8,2.3-10,2.8-14.2
			c0.9-9.2,0.8-11.8,1-12c3.2-3.6,5.8-7.4,8.2-11.2c-0.2,5,1.3,9.7,6.9,10.7c2.7,0.5,5-0.7,6.5-2.8c1.4-2,2.2-4.5,2.8-6.9
			c1.8-0.3,3.2-1.2,4.4-2.3c0,3,0.1,6,0.3,9c0.2,1.3,0.7,2.3,2.1,2.6c2,0.4,3.5-0.1,4-1.9c2.3-7.6,4.3-14.5,6.9-21.3
			c0,13.1-0.6,17.9,0.4,22.6c0.1,0.6,0.3,1.3,0.8,1.8c0.8,0.5,2.4,0.5,3.2-0.1c1.1-0.8,1.5-2.6,2-3.8c1.4-5,2.9-9.9,4.5-14.9
			c4.6-15.4,2.4,0.5,1.3,5.7c-0.7,3.8-1.3,7.6-1.9,11.6c-0.2,1.7-0.3,3.4,0,5.1c0.5,3.4,4,6.4,7.6,4.4c2.2-1.1,3.5-4.1,4.6-6.3
			c2.2-4.1,4.5-8.6,6.8-12.8c0,1.9,0.3,3.7,0.7,5.4c1,3.6,4.2,5.4,7.8,4.3c0.9-0.2,1.8-0.7,2.4-1.4c2.2-2.1,3.5-4.7,5.2-7.2
			c0.2-0.4,0.5-0.9,0.9-1.5c0.1,3.2,0.2,6.4,0.3,9.5c0,0.5,0,0.9,0.4,1.2c0.2,0.3,0.6,0.4,1,0.4c1.4,0,3.2,0,4.1-1.1
			c0.3-0.5,0.4-1.1,0.5-1.8c2-7.8,5.1-15.6,10.2-21.7c0.2-0.2,0.5-0.4,0.7-0.4c0.4,0.1,0.3,0.6,0.2,1c-1.7,5.9-2.9,12.1-3.8,18.1
			c-0.5,2.8-0.8,5.7-0.6,8.5c0,1.2,0.2,2.5,0.8,3.5c0.6,1.1,1.7,2,2.9,2.2c2.6,0.1,4-2.4,5-4.2c2.9-5.5,5.6-9.9,8.1-14
			c-0.1,1.1-0.1,2.1-0.1,2.9c0,5.1,6.9,8.9,10.5,3c2.3-3.8,4.4-7.6,6.9-12c-1.1,17.7,0.1,15.7-1.5,17.7c-4.7,4.6-9,8-13,13.3
			c-2.9,4-5.2,8.6-5.6,13.5c-0.6,7.7,5,11.7,11.5,9.3c5.6-2,8.5-6.2,10.2-11.6c0.2-0.5,0.3-1,0.4-1.5c1.2-4.1,1.9-8.4,2.3-12.6
			c0.9-9.2,0.9-11.6,1.1-11.8c3.8-4.3,7-9.5,11.6-16.6C416.1,51.5,416.8,50.4,416.2,49.9z"/>
	</g>
	<g id="SPLINE_13_">
		<path class="st0" d="M229.4,51.8c-2.2-10.6-0.4-21.9,3.8-31.8C234.7,30.6,231.9,41.7,229.4,51.8z"/>
	</g>
	<g id="SPLINE_12_">
		<path class="st0" d="M255.9,82.9c-0.4,3.6-0.9,7.1-1.7,10.6c-1,3.8-2.5,8.1-6.1,9.9c-5.9,2.9-7.6-4.6-7-8.9
			c0.8-4.7,3.1-9,6.1-12.7c3.1-4,6.2-7,10.1-10.2L255.9,82.9z"/>
	</g>
	<g id="SPLINE_11_">
		<path class="st0" d="M278.1,62.3c-0.8-2.6-1-5.5-0.1-8.3c0.1-0.2,0.2-0.5,0.5-0.4c2.3,1.8,4.2,3.2,7,3.8
			C284.6,64.7,279.5,68.5,278.1,62.3z"/>
	</g>
	<g id="SPLINE_10_">
		<path class="st0" d="M285.6,55.5c-2.6-0.7-4.6-2.1-5.5-4.2c-0.7-2.1-0.3-4.4,1-6.1c0.9-1.1,2.7-0.6,3.4,0.3
			C286.8,47.6,286.3,52.5,285.6,55.5z"/>
	</g>
	<g id="SPLINE_9_">
		<path class="st0" d="M396.1,52.9c-1.8,3.1-3.3,6.3-6.4,11c-3.9-3.6-1-19.3,3.7-21.3C396.9,44.8,398.3,49.6,396.1,52.9z"/>
	</g>
	<g id="SPLINE_8_">
		<path class="st0" d="M395.6,93.5c-0.9,3.9-2.4,8.1-6,9.9c-0.8,0.4-1.8,0.7-2.6,0.6c-4.4-0.2-5-6.3-4.4-9.5c0.8-4.6,3.1-9,6.1-12.7
			c3.1-4,6.1-7,10.1-10.2C397.5,79,397.2,86.3,395.6,93.5z"/>
	</g>
	<g id="HATCH_3_">
		<path d="M416.2,49.9c-0.9-0.7-1.7,0.3-1.7,0.3l-10,14.8c0.7-7.4,1-14,1.4-20.8c0.1-1.3,0-2.7-1.9-2.9c-2.2-0.2-3,0.3-5.1,5.9
			c-1.3-2.9-2.9-6.5-6.8-6.6c-6.4-0.1-9,6.6-10,12.9c-3.9,6.4-7.7,12.8-11.6,19.2c0-9.1,3.6-17.9,4.3-27c0.2-3.4-1.1-7.3-5-6.1
			c-5.3,1.8-10.2,13.7-12,18.1c0-5,0.6-9.9,0.6-14.9c0-0.7,0-1.3-0.4-1.9c-0.5-1.1-2.1-1.1-3.2-1.1c-1.1,0.1-2.4,0.3-2.9,1.2
			c-0.2,0.4-0.2,0.8-0.2,1.3c-0.1,3.6-0.2,7.2-0.2,10.8c-2.1,3.3-3.3,5.4-4.6,7.4c-0.7,1-1.3,2.4-2.5,3.1c-0.9,0.6-2.1,0.8-3,0.2
			c-0.6-0.4-1-1.1-1.2-1.9c-0.7-3.5,1.4-13.2,2.2-16.6c0.4-1.7,0.3-3.7-1.7-4c-2.6-0.4-4.1,0.2-4.4,2.2c-0.6,2.8-1.3,5.9-1.6,9
			c-4.1,7-10.1,21.9-11.8,19.9c-0.3-0.2-0.4-0.6-0.4-1c-0.1-1.5,0.2-3.3,0.4-5c0.7-7.1,2.4-14,3.4-21.2c0.2-1.5,0.4-3.1,0-4.5
			c-1-3.5-6.7-5-8.6-1.3c-2.4,4.6-3.9,10-6.1,15.7c-0.2-4,0.1-7.8-0.4-11.9c-0.2-1.8-1.1-3.1-3.1-3.4c-2.9-0.5-4.7,1.7-5.6,4.1
			c-1.7,4.5-3.1,9.3-4.6,13.8c0.2-5,0.4-9.9,0.6-14.9c0-0.4,0-0.8-0.2-1.2c-0.5-1.3-3.8-1.1-5-1c-1.3,0.1-1.1,1.5-1.2,2.6
			c-0.1,3.1-0.3,6.3-0.4,9.4c-1.1,1.4-2.5,2.5-4.4,3.1c0.3-2.5,0.5-5.1,0.1-7.5c-1.7-8.4-11.1-8.8-14.1-1.3
			c-0.6,1.5-1.1,3.3-1.6,5.3l-0.4,0.6c-3.7,5.8-7.5,11.3-8.7,12.3c0.3-2.7,0.5-17.1,0.6-22c0-3-4.6-4.1-6.1-1.7
			c-3.7,6.3-6.2,12.7-8.9,19.2c-0.2-5.7,0.4-11.6,0.8-17.3c0.3-3.6-6.1-3.9-6.4-0.7c-0.3,3.3-0.6,6.5-0.8,9.7
			c-2.4,2.3-6,3.7-10.3,1.8c2.5-11.6,5.3-22.3,4.5-33c-0.1-1.4-0.2-3-1.9-3.8c-3.4-1.3-5.4,1.8-6.7,4.3c-2.5,4.9-2.9,10-3.3,15.3
			c-0.5,5.8,0,14.9,3.7,19c0.3,0.4-2.4,7.8-3.6,11.8c-0.8,2.8-3.6,12.4-4.6,12.4c-2.7-1.1-1-15.4-0.3-22.8
			c1.1-13.4,3.1-25.2,2.6-37.2c-0.1-1.2-0.7-2.3-2.2-2.5c-3.2-0.6-4.4,1.7-5.6,4.1c-3.9,8.6-7,18.1-14.2,42.9c0-7,0.5-14.2,1.2-21.3
			c0.8-8.1,2.2-15.9,3.3-24c0-0.4-0.2-1.1-0.5-1.4c-1.5-1.2-5.1-0.3-5.5,1.8c-0.6,4.3-8.8,52.4,0.5,49.9c0.9-0.3,3-1.1,3.4-2
			c0.9-2.1,1.4-4.3,2.1-6.5c3.6-13.2,7.1-26.7,12.3-39.2c-0.7,16-3.1,31.8-4.5,47.7c-0.3,3.6-0.3,7.2,1.1,10.6
			c0.7,1.7,2.3,3,4.3,3.1c3.8,0.3,6-4.1,6.9-7l6.3-19.6c3.8,0.8,5.9,0.7,8.6-0.4c0.8-0.3,1.5-0.8,2.2-1.3c0,0.5,0,0.9-0.1,1.4
			c-0.2,3.8,1.4,9,5.9,8.7c2.3-0.1,2.7-2,3.4-3.5c1.9-4.7,3.7-9.4,5.6-14.1c0.3-0.6,0.7-1.3,1-2c0,2.9-0.2,18.3-0.7,23.3
			c-4.9,4.1-10,8.9-13.9,14.2c-3,4-5.2,8.6-5.6,13.6c-0.6,7.6,4.9,11.6,11.5,9.2c5.5-1.9,8.5-6.1,10.1-11.5c1.7-5.8,2.3-10,2.8-14.2
			c0.9-9.2,0.8-11.8,1-12c3.2-3.6,5.8-7.4,8.2-11.2c-0.2,5,1.3,9.7,6.9,10.7c2.7,0.5,5-0.7,6.5-2.8c1.4-2,2.2-4.5,2.8-6.9
			c1.8-0.3,3.2-1.2,4.4-2.3c0,3,0.1,6,0.3,9c0.2,1.3,0.7,2.3,2.1,2.6c2,0.4,3.5-0.1,4-1.9c2.3-7.6,4.3-14.5,6.9-21.3
			c0,13.1-0.6,17.9,0.4,22.6c0.1,0.6,0.3,1.3,0.8,1.8c0.8,0.5,2.4,0.5,3.2-0.1c1.1-0.8,1.5-2.6,2-3.8c1.4-5,2.9-9.9,4.5-14.9
			c4.6-15.4,2.4,0.5,1.3,5.7c-0.7,3.8-1.3,7.6-1.9,11.6c-0.2,1.7-0.3,3.4,0,5.1c0.5,3.4,4,6.4,7.6,4.4c2.2-1.1,3.5-4.1,4.6-6.3
			c2.2-4.1,4.5-8.6,6.8-12.8c0,1.9,0.3,3.7,0.7,5.4c1,3.6,4.2,5.4,7.8,4.3c0.9-0.2,1.8-0.7,2.4-1.4c2.2-2.1,3.5-4.7,5.2-7.2
			c0.2-0.4,0.5-0.9,0.9-1.5c0.1,3.2,0.2,6.4,0.3,9.5c0,0.5,0,0.9,0.4,1.2c0.2,0.3,0.6,0.4,1,0.4c1.4,0,3.2,0,4.1-1.1
			c0.3-0.5,0.4-1.1,0.5-1.8c2-7.8,5.1-15.6,10.2-21.7c0.2-0.2,0.5-0.4,0.7-0.4c0.4,0.1,0.3,0.6,0.2,1c-1.7,5.9-2.9,12.1-3.8,18.1
			c-0.5,2.8-0.8,5.7-0.6,8.5c0,1.2,0.2,2.5,0.8,3.5c0.6,1.1,1.7,2,2.9,2.2c2.6,0.1,4-2.4,5-4.2c2.9-5.5,5.6-9.9,8.1-14
			c-0.1,1.1-0.1,2.1-0.1,2.9c0,5.1,6.9,8.9,10.5,3c2.3-3.8,4.4-7.6,6.9-12c-1.1,17.7,0.1,15.7-1.5,17.7c-4.7,4.6-9,8-13,13.3
			c-2.9,4-5.2,8.6-5.6,13.5c-0.6,7.7,5,11.7,11.5,9.3c5.6-2,8.5-6.2,10.2-11.6c0.2-0.5,0.3-1,0.4-1.5c1.2-4.1,1.9-8.4,2.3-12.6
			c0.9-9.2,0.9-11.6,1.1-11.8c3.8-4.3,7-9.5,11.6-16.6C416.1,51.5,416.8,50.4,416.2,49.9z M229.4,51.8c-2.2-10.6-0.4-21.9,3.8-31.8
			C234.7,30.6,231.9,41.7,229.4,51.8z M255.9,82.9c-0.4,3.6-0.9,7.1-1.7,10.6c-1,3.8-2.5,8.1-6.1,9.9c-5.9,2.9-7.6-4.6-7-8.9
			c0.8-4.7,3.1-9,6.1-12.7c3.1-4,6.2-7,10.1-10.2L255.9,82.9z M278.1,62.3c-0.8-2.6-1-5.5-0.1-8.3c0.1-0.2,0.2-0.5,0.5-0.4
			c2.3,1.8,4.2,3.2,7,3.8C284.6,64.7,279.5,68.5,278.1,62.3z M285.6,55.5c-2.6-0.7-4.6-2.1-5.5-4.2c-0.7-2.1-0.3-4.4,1-6.1
			c0.9-1.1,2.7-0.6,3.4,0.3C286.8,47.6,286.3,52.5,285.6,55.5z M396.1,52.9c-1.8,3.1-3.3,6.3-6.4,11c-3.9-3.6-1-19.3,3.7-21.3
			C396.9,44.8,398.3,49.6,396.1,52.9z M395.6,93.5c-0.9,3.9-2.4,8.1-6,9.9c-0.8,0.4-1.8,0.7-2.6,0.6c-4.4-0.2-5-6.3-4.4-9.5
			c0.8-4.6,3.1-9,6.1-12.7c3.1-4,6.1-7,10.1-10.2C397.5,79,397.2,86.3,395.6,93.5z"/>
	</g>
</g>
</svg>
